<?xml version="1.0" encoding="utf-8"?>
<!-- Generator: Adobe Illustrator 28.1.0, SVG Export Plug-In . SVG Version: 6.00 Build 0)  -->
<svg version="1.1" id="Layer_1" xmlns="http://www.w3.org/2000/svg" xmlns:xlink="http://www.w3.org/1999/xlink" x="0px" y="0px"
	 viewBox="0 0 665.33 884" style="enable-background:new 0 0 665.33 884;" xml:space="preserve">
<style type="text/css">
	.st0{fill:#0A70A5;}
	.st1{fill:#F84F04;}
	.st2{fill:#F5AF02;}
	.st3{fill:#202020;}
</style>
<polygon class="st0" points="253.33,178 151.33,153.33 80,132.33 19.33,107.33 0,94.67 0,76 10,66 28.67,70 123.33,105.33 
	167.33,122 200,136 262,160.67 "/>
<polygon class="st1" points="299.43,134.85 304.89,116.44 327.56,107.56 329.78,101.78 341.67,99.56 344.44,99.56 365.78,89.33 
	382.67,89.33 397.78,85.33 414.22,76.44 420.44,71.56 429.78,79.11 429.78,88 422.22,91.11 427.11,96.89 423.56,103.2 
	429.78,110.22 425.33,116 429.78,122 427.11,128.89 419.11,137.33 404.89,141.78 395.56,151.11 395.11,161.78 394.5,172.92 
	307.78,145.33 "/>
<polygon class="st0" points="71.33,796.67 97.33,774.67 151.33,743.33 183.33,712 217.33,694 251.33,680.67 261.33,674 264,662.67 
	258,633.33 261.33,602.67 264,582 256,558.67 243.33,532 237.33,497.33 244,467.33 252.67,455.33 255.33,446.67 261.33,439.33 
	268,430.67 272,417.33 290.67,429.33 334,431.33 365.33,429.33 386,417.33 412,404.14 412,411.33 418,415.33 428,422.67 443.33,432 
	465.33,448.67 493.33,476 526.67,516 542,538 569.33,564 579.33,578 579.33,597.33 579.33,627.33 588,663.33 597.33,761.33 
	600.67,799.33 608.67,826 608.67,834.26 582.67,858.33 555.33,855.33 549.33,848.67 548,828 548,808 542,771.33 518.67,716.67 
	506.67,666 504,631.24 503.33,626 477.33,610 441.33,590 402,571.33 390,568.67 376.67,605.33 365.33,639.33 353.33,670 
	341.67,706.67 334.67,724.67 323.33,734.67 294.67,742.67 274,756.67 232.67,772.67 178.67,789.33 157.33,796.67 150,804.67 
	152.51,821.15 71.33,819.33 "/>
<polygon class="st2" points="71.33,796.67 71.33,809.33 90.67,815.33 120,815.33 144,809.33 156,826 169.33,840.67 186,850.67 
	202.67,858 206.67,873.33 188,884 146.33,884 104.47,884 71.33,860 48.67,844 46,830 58,802 "/>
<polygon class="st2" points="549.33,848.67 542,867.33 541.82,884 595.33,884 635.33,884 655.33,884 665.33,880.67 649.33,870.67 
	638,866.33 631.33,853.33 629.33,843.33 618,832.67 590.67,837.33 592.67,846 572,849.33 558,851.33 "/>
<polygon class="st2" points="272,417.33 272,404.14 272,391.33 272,383.33 280.67,375.33 280.67,359.67 276.33,346.33 
	276.33,332.33 263.67,310.33 241.67,310.33 222.67,295.33 216.67,290.33 216.67,270.71 216.67,263.33 224.67,234.33 232.67,225.33 
	233.67,205.33 241.67,188.33 257.67,158.33 274.67,145.33 296.67,132.33 307.67,142.33 342.03,153.33 368.67,158.33 385.67,162.33 
	392.67,170.33 415.67,183.33 436.67,197.32 452.67,197.32 464.67,209.33 476.67,239.33 476.67,260.33 483.67,270.71 483.67,286.28 
	483.67,303.33 478.67,326.33 468.67,333.33 457.67,328.33 440.67,320.33 431.67,316.33 431.67,344.33 431.67,383.33 416.67,398.33 
	412,404.14 365.33,429.33 290.67,429.33 "/>
<path class="st0" d="M304.89,116.44l-15.56-21.11l-4-17l2.33-26.67c0,0,9-22.33,9.67-24s17-16,17-16L350.17,0h21.5L390,13l13,15.67
	l2,3.67l24.78-1L440,34l1.33,6.33L437,54l-11.33,13.33l-5.22,4.22l-6.22,4.89l-16.44,8.89l-15.11,4h-16.89l-21.33,10.22h-2.78
	l-11.89,2.22l-2.22,5.78L304.89,116.44z"/>
<g>
	<path class="st3" d="M422,500.95c-0.29,0.06-0.36,0.01-0.53,0.05c-0.13,0.04-0.21,0.16-0.32,0.15c-0.41-0.03-1.43-0.46-1.55,0.28
		c-0.05,0.34-0.03,0.33-0.07,0.45c-0.08,0.19-0.34,0.08-0.5,0.13c-0.3,0.11-0.48,0.58-0.79,0.75c-1.02,0.22-1.61,1.12-2.33,1.78
		c-0.26,0.15-0.58,0.44-0.91,0.48c-0.55,0.34-0.12,0.92-0.07,1.37c-0.1,0.12-0.39-0.03-0.57-0.03c-0.66-0.1-1.02,0.5-1.06,1.19
		c-0.22,1.38-1.62,2.56-2.54,3.04c-0.68,0.3-1.09,0.95-1.14,1.64c-0.2,0.16-0.55,0.53-0.25,1.18c0.04,0.1,0.2,0.45,0.12,0.5
		c-0.07,0.06-0.45-0.05-0.72,0.04c-0.32,0.16-0.26,0.3-0.35,0.54c-0.09,0.36,0.11,0.78-0.24,0.99c-0.36,0.15-0.87,0.16-1.21,0.38
		c-0.16,0.21,0.13,0.57,0.15,0.74c0.02,0.1-0.09,0.14-0.24,0.17c-1.21,0.19,0.18,1.15,0.05,1.77c-0.14,0.41-1.02,0.54-1.16,1.03
		c0.03,0.09,0.08,0.19,0.48,0.15c0.15,0,0.34,0.02,0.32,0.24c-0.06,0.22-0.88,0.2-0.96,0.57c-0.07,0.32-0.16,1.01-0.28,1.39
		c-0.15,0.52,0.03,1.25-0.21,1.71c-0.11,0.31-0.02,0.49,0.02,0.92c0.07,0.44-0.17,0.94-0.37,1.53c-0.24,0.84-0.19,1.22-0.64,1.62
		c-0.45,0.19-0.65,0.62-0.54,1.11c0.08,0.61,0.73,1.5,0.08,1.86c-0.21,0.15-0.57,0.38-0.47,0.73c0.11,0.44,0.42,1.22-0.06,1.51
		c-0.47,0.24-0.08,0.47-0.15,0.83c-0.01,0.56-1.39,1.69-1.33,2.64c0.02,0.43,0.16,0.65,0.16,1.1c-0.07,0.38-0.89,0.39-1.06,0.53
		c-0.14,0.09-0.03,0.2,0.03,0.31c0.15,0.39-0.28,0.82-0.19,1.38c0.2,1.05,0.22,2.08-0.05,3.03c-0.01,0.46,0.27,1.08-0.09,1.46
		c-0.22,0.25-0.64,0.49-0.75,0.95c-0.08,0.6-0.23,1.38-0.5,1.98c-0.07,0.37-0.47,0.97-0.68,1.26c-0.23,0.31-0.14,0.43-0.41,0.72
		c-0.4,0.51-1.78,0.5-1.9,1.22c-0.03,0.14-0.02,0.35-0.06,0.47c-0.03,0.09-0.12,0.12-0.25,0.1c-0.58-0.11-0.82-0.28-1.36-0.36
		c-0.9-0.24-1.76-0.44-2.69-0.37c-0.49-0.01-0.72-0.06-0.97,0.22c-0.14,0.33-0.15,0.36-0.42,0.4c-0.11,0.01-0.21,0.06-0.1,0.27
		c0.4,0.75,0.69,1.59,0.68,2.45c-0.14,0.1-0.28-0.14-0.57-0.36c-0.27-0.24-0.48-0.41-0.81-0.52c-0.1,0.12,0.02,0.18,0.12,0.35
		c0.26,0.37,0.72,0.94,0.8,1.43c0.1,0.44,0.09,0.92,0.22,1.2c0.13,0.32,0.34,0.21,0.58,0.16c0.32-0.07,0.46-0.01,0.59,0.24
		c0.06,0.31-0.28,0.54-0.47,0.76c-0.57,0.45,0.08,1.18,0.08,1.66c0.03-0.02-0.08,0.43-0.1,0.42c-0.49,1.02-0.06,2.04-0.57,3.15
		c-0.51,1.25-0.66,2.86-0.19,3.99c0.08,0.38,0.1,0.84,0.3,1.18c0.24,0.39,0.73,0.83,1.01,1.27c0.65,1.04,1.27,1.39,1.88-0.21
		c0.27-0.7,0.52-1.56,0.56-1.92c0.03-0.53-0.41-0.01-0.4-0.43c0-0.09,0-0.26,0-0.35c-0.02-0.24-0.02-0.45-0.04-0.71
		c-0.02-0.47-0.45-0.75,0-1c0.09-0.06,0.1-0.15,0.04-0.3c0.05-0.27,0.49-0.28,0.59-0.49l0.03-0.02c-0.01-0.11-0.17-0.2-0.16-0.39
		c0.04-0.15,0.07-0.31,0.07-0.47c-0.02-0.57-0.46-1.24-0.81-1.6c-0.12-0.16,0.44-0.39,0.48-0.38c0.17-0.04,0.8,0.34,1,0.03
		c0.17-0.36-0.26-0.88-0.12-1.21c0.05-0.23,0.18-0.44,0.18-0.65c0.01-0.23-0.19-0.46-0.18-0.7c0.01-0.29,0.21-0.3,0.09-0.66
		c0.08-0.21,0.07-0.52,0.08-0.77c0.12-0.24,0.04-0.71,0.03-0.89c-0.06-0.29,0.02-0.19,0.11-0.27c0.17-0.11,0.27-0.18,0.48-0.24
		c1.22-0.36,2.9-0.66,4-1.33c0.28-0.15,0.32-0.4,0.5-0.62c0.13-0.04,0.22-0.1,0.32-0.21c0.13-0.08,0.65-0.44,0.91-0.62
		c0.97-0.54,1.6-1.55,2.06-2.54c0.14-0.44-0.1-0.7-0.03-1.12c0.29-0.39,1.05-0.46,1.13-1.15c0.05-0.78-0.18-1.65-0.09-2.39
		c0.1-0.83,0.41-1.44,0.06-2.21c-0.1-0.81,0.89-1.58,0.82-2.39c0.06-0.48-0.03-0.94,0.14-1.45c0.14-0.43,0.59-1.45,0.69-1.98
		c0.03-1.12,0.17-2.27,0.68-3.33c0.39-1.04-0.01-1.46,0.32-2.45c0.39-1.5,0.48-2.47,0.92-4.11c0.48-1.88,1.01-3.13,1.08-4.94
		c0.06-0.62,0.62-1.34,0.8-1.91c0.16-0.58-0.65-1.07-0.59-1.28c0.06-0.15,0.44-0.2,0.57-0.26c0.59-0.23,0.35-0.88,0.61-1.43
		c0.13-0.32,0.28-0.61,0.41-0.86c0.18-0.33,0.39-0.73,0.13-1.09c-0.12-0.4-0.15-0.38-0.12-0.69c0.02-0.08,0.07-0.15,0.14-0.22
		c-0.03,0.01,0.35-0.27,0.32-0.26c0.2-0.2,0.31-0.2,0.4-0.54c0.15-0.2,0.22-0.46,0.43-0.78c0.15-0.25,0.44-0.35,0.65-0.55
		c0.3-0.36,0.27-0.34,0.38-0.73c0.05-0.75,0.52-1.08,1.03-1.63c0.52-0.59,0.65-0.93,1.06-1.53c0.39-0.7,0.99-1.07,0.96-1.71
		c-0.01-0.11-0.01-0.1-0.02-0.28c-0.01-0.19,0.16-0.22,0.24-0.39c0.04-0.12,0.02-0.37,0.11-0.44c0.4-0.48,0.91,0.01,1.29-0.62
		c0.1-0.16,0.2-0.39,0.41-0.42c0.15-0.1,0.86,0.11,1.08-0.1c0.53-0.33,0.66-1.77,1-2.48c0.38-0.37,0.86,0.1,1.26-0.16
		c0.16-0.09,0.27-0.22,0.34-0.31c0.07-0.18,0.01-0.19-0.06-0.28C422.21,500.95,422.1,500.93,422,500.95z M390.92,555.33
		c-0.13-0.39,0.19-0.21,0.23,0.07C391.32,555.46,390.97,555.36,390.92,555.33z M394.38,555c0.14,0.09,0.24,0.04,0.41,0.08
		C394.85,555.36,394.35,554.99,394.38,555z"/>
	<path class="st3" d="M414.24,425.77c0.03,0.17,0.31,0.12,0.21,0.01C414.4,425.77,414.07,425.76,414.24,425.77z"/>
	<path class="st3" d="M425.98,477.12c0.13-0.3,0.14-0.71,0.17-1.01c-0.02-0.18-0.07-0.22-0.09-0.56c0.02-0.3,0.09-0.69,0.1-1.01
		c0.18-0.92,0.19-2.03,0.29-3.03c-0.02-0.65-0.98-0.93-0.8-1.21c0.16-0.23,0.53-0.34,0.64-0.61c0.15-0.43-0.12-0.81-0.22-1.2
		c-0.56-1.14-0.06-2.59,0.19-3.65c0.11-0.72,0.05-1.22-0.32-1.84c-0.18-0.41-0.08-0.57-0.17-1c-0.05-0.8,0.86-2.04,0.52-2.73
		c-0.22-0.37,0.12-0.64-0.19-0.92c-0.67-0.33-0.73-1.36-0.65-1.86c-0.02-0.18-0.48-0.02-0.56-0.09c-0.12-0.34,0.05-1.14-0.06-1.55
		c-0.09-0.51-0.48-0.93-0.67-1.4c-0.22-0.37-0.64-0.68-0.84-1.19c-0.16-0.35-0.6-0.96-0.75-1.2c-0.35-0.64-0.45-1.2-0.52-1.6
		c-0.08-0.9-0.75-1.22-1.36-1.75c-0.13-0.14-0.03-0.3-0.03-0.46c-0.04-0.3-0.11-0.37-0.15-0.61c-0.09-0.25-0.2-0.29-0.35-0.56
		c-0.11-0.2,0.02-0.5,0-0.68c0.32-0.65,0.79-1.6,0.98-2.32c0.14-0.77,0.7-0.87,1.23-1.23c0.58-1.22,0.69-3.17,0.86-4.52
		c0.13-0.92,0.24-1.84,0.08-2.78c-0.31-1.78-1.46-3.44-2.78-4.59c-1.09-0.78-2.61-0.63-3.88-0.97c-1.23-0.08-1.23,0.43-1.85-0.28
		c-0.28-0.17-0.24-0.08-0.59-0.19c-0.53-0.13-0.92-0.51-0.98-1.06c-0.01-0.22-0.03-0.29,0.15-0.49c0.22-0.26,0.64-0.51,0.62-0.86
		c-0.04-0.35-0.6-0.48-0.78-0.72c-0.22-0.21,0.08-1.36-0.14-1.98c-0.48-2.37-0.92-5.65-0.96-8.14c0.54-1.95-2.6-1.45-3.33-0.92
		c-0.25,0.16-0.28,0.34-0.22,0.57c0.14,0.58,0.18,0.81,0.01,1.38c-0.25,0.85,0.24,1.81,0.17,2.65c-0.15,0.32-0.4,0.59-0.31,0.97
		l-0.02,0.08c0.03,0.45,0.15,0.55,0.41,0.82c0.3,0.33,0.81,0.84,0.95,1.26c0.05,0.18-0.58,0.28-0.65,0.5
		c-0.21,0.3-0.2,0.69-0.03,1.01c0.1,0.24,0.09,0.48,0.12,0.71c0.05,0.22,0.09,0.24,0.07,0.37c-0.04,1.11-0.1,2.74,0.22,3.94
		c0.77,1.89,2.35,3.43,4.23,4.27c1.12,0.61,2.39,0.61,3.29,0.74c0.26,0.06,0.21,0.11,0.31,0.2c0.25,0.28,0.62,0.25,0.78,0.42
		c0.08,0.24,0.02,0.49,0.07,0.83c0.04,0.5,0.38,1.08,0.52,1.59c0.17,1.27-0.78,2.33-1.25,3.53c-1.28,2.26-1.71,5.21-1.04,7.75
		c1.07,2.09,2.16,3.41,3.01,5.23c0.88,1.73,1.46,4,2.72,5.43c0.25,0.33,0.18,0.63,0.17,0.98c-0.12,0.67,0.09,1.5,0.28,2.14
		c0.27,0.65,0.95,1.19,0.83,1.96c-0.04,0.24-0.04,0.51,0,0.76c-0.07,0.38-0.11,1.19-0.02,1.56c0.34,1.69,0.09,3.56,0.76,5.14
		c0.14,0.45,0.8,0.96,0.63,1.46c-0.32,0.51-0.2,0.71-0.37,1.22c-0.07,0.58-0.59,1.25-0.18,1.77c0.32,0.49,0.69,0.85,0.77,1.47
		c0.01,0.27-0.05,0.53-0.1,0.75c-0.06,0.23-0.14,0.38,0.02,0.49c0.3,0.07,0.53-0.47,0.68-0.66
		C425.74,477.58,425.96,477.16,425.98,477.12z M410.55,426.55c0.01,0.02,0.03,0.07,0.06,0.14
		C410.57,426.66,410.57,426.57,410.55,426.55z M410.69,427.29c-0.12-0.29,0.29-0.37,0.37-0.25
		C410.93,427.02,410.84,427.18,410.69,427.29z"/>
	<path class="st3" d="M522.89,618.91c-0.05-0.07-0.18-0.21-0.19-0.16l0.2,0.26L522.89,618.91z"/>
	<path class="st3" d="M522.74,619.22c-0.18-0.27-0.08-0.17-0.3-0.49c0-0.05,0.12,0.04,0.2,0.13c-0.05-0.07,0.09,0.02-0.03-0.15
		c-0.21-0.16-0.26-0.13-0.17,0.07c-0.06-0.04-0.11-0.11-0.15-0.16C522.36,618.77,522.52,619.01,522.74,619.22z"/>
	<path class="st3" d="M519.1,620.46c0.06,0.09,0.07,0.05,0.11,0.05L519.1,620.46z"/>
	<path class="st3" d="M522.45,619.55c0-0.02-0.01-0.05-0.03-0.09c0,0.02,0,0.03,0,0.04c-0.03-0.02-0.06-0.05-0.08-0.07
		c0.04,0.06,0.06,0.09,0.07,0.1l0.01-0.03c0,0,0,0.01,0,0.01L522.45,619.55z"/>
	<polygon class="st3" points="500.06,629.61 500.06,629.6 500.04,629.44 	"/>
	<path class="st3" d="M503.13,630.19c-0.03-0.07-0.06-0.16-0.09-0.24C503.1,630.15,503.02,630.24,503.13,630.19z"/>
	<path class="st3" d="M515.11,625.28c0.01,0.02,0.01,0.04,0.03,0.07l0.12,0.07C515.19,625.34,515.15,625.3,515.11,625.28z"/>
	<path class="st3" d="M502.51,630.36c0,0.01-0.01,0.01-0.01,0.02c0.01,0.05,0.03,0.11,0.04,0.16
		C502.54,630.48,502.53,630.42,502.51,630.36z"/>
	<path class="st3" d="M502.53,630.77c0.05-0.01,0.04-0.11,0.01-0.23C502.55,630.67,502.53,630.77,502.53,630.77z"/>
	<path class="st3" d="M504.24,629.89c0.13-0.09,0.21-0.37,0.35-0.48c0.02,0.1,0.02,0.21,0.09,0.3c0.15-0.22,0.43-0.08,0.68,0.05
		l-0.02-0.3c0.02,0,0.07,0.12,0.07,0.18c0.11,0.08-0.05-0.18-0.05-0.3c0.04-0.03,0.11,0.14,0.11,0.24c0.06-0.28,0.2-0.63,0.44-0.38
		v0.09c0.14,0.08-0.07-0.61,0.12-0.38v0.06c0.27,0.05,0.44-0.29,0.76,0.06c-0.11-0.41,0.29,0.1,0.11-0.47
		c0.23,0.23,0.23,0.34,0.48,0.46c0.06,0.01-0.05-0.37-0.01-0.45l0.11,0.29l-0.03-0.33l0.17,0.33l0.03-0.09
		c-0.03-0.01-0.1-0.11-0.12-0.2c0.04-0.16,0.29,0.12,0.35,0.27l0.12-0.32c0.04,0.12,0.02,0.17,0.02,0.25c0-0.33,0.14,0.3,0.14-0.01
		c-0.04-0.06-0.06-0.17-0.08-0.23c0.12,0.15,0.23,0.11,0.29,0l0.06,0.2c0.17-0.01,0.29-0.23,0.46-0.29
		c-0.1-0.07-0.22-0.41-0.18-0.47l0.14,0.29c-0.04-0.2-0.1-0.09-0.12-0.35c0.08,0.01,0.18,0.33,0.18,0.44l0.04-0.14
		c0.04,0.09,0.04,0.14,0.08,0.26c-0.04-0.2,0.26,0.25,0.17-0.1l0.04,0.09c0.18-0.07,0.21-0.2,0.35-0.27
		c-0.11-0.26-0.03-0.23-0.07-0.45c0.14,0.04,0.34,0.19,0.45,0.11c0.03-0.17-0.07-0.23-0.1-0.4c0.11,0.23,0.22,0.16,0.23,0.35
		c0.13-0.1,0.17-0.13,0.27-0.4c-0.06-0.09-0.1-0.12-0.13-0.2c0.02-0.05,0.12,0.06,0.17,0.18v0.03c0.05-0.44,0.79,0.47,0.74-0.09
		v0.03l0.05-0.33c0.1,0,0.03,0.2,0.16,0.31c0-0.48,0.32-0.08,0.35-0.41c0.45,0.62,0.39-0.25,0.76,0.11l-0.09-0.16
		c-0.04-0.18,0.09,0.07,0.14,0.09c-0.07-0.12-0.12-0.12-0.13-0.22c0.25-0.36,0.82-0.13,1.25-0.17c0.15-0.03-0.36-0.85,0-0.56
		l0.11,0.32c0.07-0.48,0.54-0.27,0.62-0.71c0.02,0.07,0.07,0.16,0.05,0.17c0.17,0.18,0.2-0.1,0.1-0.27c0.05,0,0.1,0.15,0.17,0.22
		c0.12,0.09-0.02-0.34,0.13-0.15c0.02,0.03,0.02,0.08,0.02,0.1c-0.02-0.12,0.17-0.07,0-0.29c0.16,0.06,0.12-0.21,0.27-0.11
		c-0.11-0.29,0.23,0.04,0.03-0.35c0.22,0.39,0.35,0.22,0.3,0c0.05,0.13,0.12,0.09,0.2,0.27c0.06-0.05,0.08-0.16-0.05-0.35
		c0.4,0.39,0.02-0.52,0.45,0.03c0.07-0.33,0.16-0.58,0.28-0.78c0.23,0.39-0.17,0.16,0.09,0.55c0.07-0.26-0.04-0.65,0.18-0.66
		c0.08,0.03,0.08,0.18,0.11,0.25c0.07-0.26,0.34-0.17,0.35-0.47c0.02,0.04,0.03,0.08,0.04,0.12c0.02-0.03,0.1,0.01-0.01-0.16v0.07
		c-0.21-0.22-0.23-0.6-0.31-0.73c0.27,0.52,0.22,0.03,0.55,0.7c0-0.04-0.03-0.14-0.11-0.25c0.05,0.01,0.1,0.08,0.16,0.22
		c0.04-0.16-0.12-0.32-0.02-0.38c0.05,0.08,0.06,0.13,0.11,0.23c-0.06-0.19-0.12-0.38,0-0.37c0.03,0.05,0.08,0.11,0.06,0.13
		c0.12-0.11-0.06-0.58,0.19-0.52c0.2,0.38,0.13,0.08,0.35,0.39l0.02-0.15l-0.13-0.13c0.07-0.04-0.02-0.31,0.1-0.25l0.04,0.16
		l0.09-0.15l-0.15-0.07c-0.04-0.21-0.28-0.38-0.13-0.36c0,0.04,0.07-0.04,0.23,0.11c-0.04-0.12-0.07-0.25,0.03-0.21
		c0.08,0.09,0.23,0.34,0.28,0.4c-0.15-0.28,0.11-0.18-0.04-0.48c0.03,0.07,0.14,0.23,0.17,0.26l-0.12-0.23
		c0.08,0.04,0.11,0.07,0.19,0.2c0.12-0.03-0.31-0.36-0.08-0.28c0,0.02,0.03,0.05,0.03,0.09c0.17,0.01,0.12-0.28,0.3-0.25
		c0.25,0.28-0.04,0.14,0.19,0.37c0.11-0.16,0.04-0.58,0.23-0.62l-0.05-0.01c-0.3-0.44,0.26,0.13,0.18-0.12
		c0.01,0.04,0.15,0.25,0.12,0.2c0.15-0.01,0.12-0.25,0.16-0.5l0.06,0.12c0.13,0.05,0.19-0.06,0.29-0.06
		c-0.07-0.12-0.02-0.13-0.16-0.27c0.66,0.47,0.1-0.6,0.66-0.22c-0.02,0.02,0.03,0.13,0.04,0.12l0.06-0.21
		c-0.16-0.17-0.11-0.09-0.25-0.21c-0.07-0.12-0.1-0.24-0.06-0.26c0.03,0.17,0.23,0.29,0.34,0.37c-0.05-0.05-0.09-0.12-0.14-0.17
		c0.33,0.26-0.28-0.37-0.01-0.24l0.07,0.1c0-0.08-0.07-0.23-0.01-0.24c0.19,0.19,0.04,0.13,0.18,0.3c0.05-0.06-0.21-0.48,0.01-0.32
		c0.02,0.08-0.01,0.11,0.01,0.18c0.24,0.19,0.22,0.14,0.27,0.14l0.18,0.03l-0.08-0.05c-0.37-0.59,0.06-0.21-0.14-0.64
		c0.19,0.41,0.15,0.2,0.33,0.44c0.08,0.04,0.18,0.09,0.22,0.16c-0.11-0.22,0.2,0.09,0.03-0.24c0.07,0.07,0.05-0.03,0.2,0.16
		c0.01-0.11-0.12-0.12-0.2-0.22c-0.13-0.33,0.47,0.13,0.3-0.33c-0.02-0.24-0.21-0.5-0.22-0.71c0.14,0.09,0.21,0.29,0.21,0.29
		c0.15,0.06,0.17,0.01,0.15-0.12c0.05,0.07,0.1,0.12,0.19,0.19c0.02-0.06-0.21-0.29-0.06-0.23c0.06,0.09,0.17,0.23,0.22,0.33
		c-0.01-0.11-0.08-0.29-0.09-0.4c0.13,0.12,0.14,0.22,0.2,0.32c0.01-0.11,0.04-0.24-0.12-0.46l-0.1-0.04
		c0.01-0.03,0.16,0.16,0.18,0.21c0.09,0.2-0.13-0.01-0.2-0.08l-0.01-0.08c-0.42-0.4-0.08,0.19-0.17,0.23l-0.25-0.34l0.16,0.32
		c-0.09-0.07-0.25-0.23-0.26-0.31c-0.19-0.11,0.05,0.15-0.14,0.02c-0.03-0.02-0.04-0.04-0.05-0.06l0.03,0.14
		c-0.05-0.07-0.2-0.21-0.13-0.2c-0.25-0.1,0.06,0.36-0.18,0.15l-0.01-0.03c-0.03,0.21,0.19,0.24,0.33,0.59l-0.55-0.52l0.19,0.24
		c-0.02,0-0.06,0.01-0.13-0.09c0.09,0.2,0.09,0.09,0.19,0.27c-0.24-0.16-0.09,0.24-0.42-0.12c0.13,0.2,0.18,0.09,0.21,0.27
		c-0.36-0.38-0.02,0.13-0.23,0c-0.16-0.22-0.01-0.16-0.22-0.29c0.26,0.38-0.18,0.01-0.17,0.12c0.11,0.13,0.11,0.18,0.08,0.22
		c-0.04-0.07-0.06-0.11-0.06-0.13c-0.04-0.05-0.09-0.09-0.14-0.15c-0.02,0,0.12,0.18,0.2,0.28c-0.03,0.04-0.09,0.06-0.09,0.14
		c-0.07-0.1-0.28-0.03-0.44-0.07l-0.04-0.05c0.22,0.3,0.1,0.31,0.09,0.41c-0.14-0.17-0.18-0.25-0.21-0.35l-0.05,0.04
		c0.06,0.1,0.08,0.16,0.08,0.22l-0.08-0.11l0.01-0.01c-0.02-0.03-0.05-0.07-0.07-0.11l0.05,0.1l-0.07-0.1
		c-0.06,0.07,0.06,0.37-0.15,0.3c0.15,0.21,0.52,0.5,0.52,0.71c-0.09-0.11-0.24-0.29-0.25-0.35c0,0.02,0.04,0.11-0.01,0.08
		l-0.1-0.21c-0.11-0.05,0.1,0.17,0.05,0.18c-0.12-0.16-0.11-0.09-0.2-0.22c0-0.02,0.08,0.04,0.05-0.03c-0.06,0-0.18-0.06-0.29-0.16
		c0.07,0.09,0.16,0.21,0.15,0.25c-0.06,0.07-0.17-0.17-0.28-0.22c0.07,0.12-0.07,0.04,0.11,0.28c-0.02,0.02-0.11-0.09-0.17-0.15
		c0.04,0.13-0.15,0.16,0.08,0.38l0.02,0.01c0,0.01,0,0.01,0,0.01c0.05,0.33-0.36,0.06-0.4,0.26l-0.06-0.08
		c-0.01,0.15-0.12,0.18-0.05,0.39c-0.02,0.02-0.16-0.11-0.22-0.21c-0.01,0.1,0.05,0.2-0.13,0.13c-0.05-0.18-0.11-0.11-0.02-0.14
		c-0.12-0.01-0.23-0.13-0.15,0.14c-0.12-0.22-0.24-0.22-0.23-0.13l0.16,0.11c-0.02,0.06-0.07,0.06-0.11,0.07l-0.18-0.28
		c-0.39-0.22,0.13,0.75-0.38,0.28c0.09,0.22,0.18,0.08,0.3,0.32c-0.1,0.01-0.44-0.33-0.47-0.31c-0.2-0.08,0.19,0.46,0.02,0.43
		c0.08,0.09,0.27,0.34,0.26,0.48c-0.1,0.01-0.37-0.35-0.38-0.46c0.01-0.02,0.04,0.01,0.06,0.04c0-0.05,0-0.11-0.1-0.2l0.06,0.1
		c-0.1-0.07-0.19,0-0.28-0.17c0.01,0.13,0.09,0.18,0.16,0.2c-0.19-0.08-0.14,0.1-0.3,0.06c0.05,0.04,0.14,0.15,0.13,0.16
		c-0.22-0.03,0.07,0.23,0,0.33c-0.15-0.11-0.22-0.37-0.23-0.18c-0.13-0.06-0.19-0.25-0.22-0.35c0.04,0.25-0.24-0.02-0.31-0.02
		l-0.01-0.11c0.01,0.06-0.02,0.08-0.04,0.09l0.16,0.18c-0.05-0.02-0.07,0-0.13-0.09c0.06,0.15,0.24,0.31,0.3,0.53
		c-0.1-0.08-0.04,0.18-0.22-0.08c0.17,0.02-0.19-0.26-0.12-0.36c0,0.04-0.02,0.06-0.07,0.04c-0.02-0.03-0.03-0.06-0.04-0.08
		c-0.26-0.17,0.15,0.33,0.03,0.4c-0.08-0.16-0.21-0.27-0.21-0.22c0.05-0.03,0.18,0.23,0.22,0.37c-0.15-0.07-0.02,0.14-0.07,0.15
		l0.08,0.03c0.08,0.16,0.03,0.16,0.02,0.24c-0.08-0.11-0.01-0.11-0.06-0.15c0.11,0.3-0.3-0.19-0.26,0.04
		c-0.1-0.08-0.18-0.28-0.26-0.33c0.04,0.25-0.22-0.15-0.21,0.07c0.15,0.19,0.13,0.13,0.19,0.37l0.06-0.23l0.09,0.35
		c0.05-0.03,0.02-0.19,0.06-0.17c0.06,0.19,0.03,0.14,0.16,0.29c-0.25-0.26-0.01,0.25-0.21,0.09l-0.31-0.5
		c-0.25-0.16-0.03,0.37-0.25,0.33l0.1,0.06c0.1,0.21-0.07,0.08-0.07,0.19c-0.1-0.17-0.17-0.21-0.25-0.31
		c0.08,0.12-0.11,0.05,0.08,0.4l-0.2-0.18c-0.17-0.02,0.16,0.56,0.02,0.57c-0.08-0.2-0.2-0.29-0.2-0.47
		c-0.04,0.02-0.09,0.01-0.02,0.13c-0.08-0.09,0.04,0.29-0.09,0.15c0.01,0.02,0.02,0.04,0.03,0.07c-0.02-0.01-0.03-0.02-0.03,0.01
		c0.01,0.01,0.02,0.02,0.02,0.03c-0.01-0.03,0-0.04,0.01-0.04c0.04,0.09,0.09,0.19,0.05,0.21c-0.02-0.03-0.05-0.08-0.05-0.08
		c0.05,0.08,0,0.15,0.15,0.32c-0.43-0.47-0.3,0.22-0.67-0.18c-0.05,0.1-0.11,0.21-0.18,0.27c-0.02-0.05-0.05-0.09-0.02-0.08
		c-0.19-0.1,0.22,0.53,0,0.42c-0.22-0.24-0.02-0.19-0.12-0.27c-0.33-0.56-0.1,0.16-0.36-0.13v-0.04c-0.17-0.16-0.03,0.3-0.15,0.31
		c0,0-0.02-0.05-0.05-0.09c0.09,0.33,0.02,0.49-0.04,0.62c-0.09-0.24-0.02-0.14-0.16-0.36c-0.03,0.05,0.21,0.36,0.16,0.47
		c-0.09-0.11-0.21-0.18-0.35-0.42l0.07-0.06c-0.21-0.29-0.1,0.07-0.17,0.03l-0.07-0.14c-0.1,0.11,0.08,0.46-0.06,0.5l0.07,0.1
		c0.11,0.38-0.16-0.16-0.1,0.13l-0.2-0.34c0,0.11,0.01,0.43-0.04,0.54c-0.08-0.29-0.05-0.47-0.07-0.66
		c-0.05,0.02-0.15,0.11-0.08,0.3c0-0.04-0.02-0.14,0.03-0.1c0.08,0.31,0.08,0.48-0.02,0.53c-0.33-0.69-0.33-0.04-0.67-0.54
		c-0.04,0.33-0.39,0.05-0.56,0.19c0.33,0.5-0.05,0.04,0.23,0.59c-0.03,0.06-0.05,0.06-0.07,0.02l-0.05-0.05
		c-0.04-0.14-0.1-0.32-0.2-0.39c0.1,0.12,0.1,0.23,0.13,0.33l-0.18-0.15c-0.11-0.14-0.01-0.14-0.08-0.26
		c-0.12,0.01-0.15-0.21-0.29-0.33c0.11,0.19,0.1,0.3,0.01,0.25l0.2,0.22c0,0.36-0.34-0.41-0.34-0.05l-0.04-0.2
		c-0.02,0.14-0.27,0.12-0.13,0.6c-0.04-0.06-0.13-0.2-0.12-0.26c-0.2,0.01-0.18,0.65-0.44,0.43l-0.05-0.14
		c-0.02,0.05,0.06,0.28-0.05,0.16c-0.02-0.06-0.05-0.14-0.07-0.14c0,0.05,0.02,0.28-0.06,0.22l-0.03-0.17
		c-0.25-0.1-0.1,0.49-0.2,0.65c-0.17-0.41-0.36-0.48-0.46-0.52l-0.02-0.06c-0.22,0.03-0.2,0.47-0.32,0.71
		c-0.3-0.4-0.47-0.03-0.75-0.2c0.06,0.06,0.12,0.32,0.1,0.38c-0.08-0.07-0.01,0.33-0.15-0.05h0.02c-0.18-0.36-0.23-0.22-0.3-0.21
		l0.18,0.5c-0.46-0.65-0.39,0.44-0.73-0.17c0,0.14-0.06,0.16-0.06,0.3l-0.09-0.27c-0.15-0.02-0.22-0.03-0.35,0.09l-0.04-0.2
		c-0.09,0.01,0.16,0.81,0.09,0.85l-0.16-0.39c-0.15,0.06-0.42-0.24-0.45,0.17c-0.02-0.06-0.05-0.18-0.03-0.2
		c-0.08,0.01-0.37-0.18-0.16,0.36c-0.12-0.36-0.17,0.02-0.2,0.2l-0.07-0.27c0.04,0.36,0.07,0.45,0,0.58
		c-0.02-0.02-0.06-0.12-0.06-0.15c-0.07-0.03,0.03,0.26-0.1,0.16l-0.02-0.18c-0.09,0.01-0.05,0.09-0.03,0.31
		c-0.02,0.12-0.17-0.02-0.26-0.25c0.03,0.15,0.05,0.36-0.02,0.31c-0.03-0.09-0.03-0.15-0.03-0.18c-0.19-0.14-0.11,0.37-0.28,0.14
		c-0.03-0.09-0.05-0.13-0.06-0.15c0.11-0.02,0.2-0.03,0.2-0.01c-0.08-0.25-0.17-0.26-0.21-0.62c-0.01,0.2-0.01,0.64-0.13,0.55
		c-0.01-0.02-0.02-0.05-0.04-0.08v-0.03c-0.03-0.02-0.04,0.01-0.04,0.06c-0.04-0.03-0.06-0.06-0.09-0.05
		c-0.07-0.2-0.13-0.08-0.18-0.08c0.08,0.27,0.01,0.24,0.13,0.45c-0.01-0.02,0-0.03,0.02-0.05c0-0.01,0.01-0.02,0.01-0.03v0.02
		c0.03-0.02,0.06-0.03,0.1-0.05c0.01,0.15,0,0.27-0.09,0.14l0-0.01l-0.01,0.01c0,0.01,0,0.02-0.01,0.02
		c0.01,0.02,0.03,0.04,0.03,0.06l-0.01-0.06c0.03,0.17,0.05,0.35,0.07,0.43c-0.17-0.36-0.34-0.53-0.42-0.76
		c-0.09,0.19-0.28,0.19-0.22,0.72c-0.02,0.08-0.08-0.13-0.12-0.21c0.01-0.06,0.04-0.06,0.03-0.13c-0.04,0.15-0.21,0.11-0.13,0.48
		c-0.14-0.13-0.04-0.34-0.15-0.25l-0.01-0.11c-0.41-0.51-0.18,1.02-0.66,0.36c0.03,0.04,0.05,0.06,0.07,0.12
		c-0.41-0.24-0.6,0.48-1.05,0.03c-0.12-0.08-0.07,0.15-0.09,0.33l-0.09-0.29l-0.02,0.36c-0.08,0.28-0.4-0.67-0.47-0.16l0.06,0.19
		c-0.07-0.02-0.17,0.16-0.21-0.07c0,0.04,0.02,0.21-0.02,0.11l-0.03-0.15l-0.1,0.3c-0.14-0.09-0.11-0.62-0.28-0.61
		c-0.05,0.07-0.09,0.49-0.05,0.59c0.03,0,0.09,0.08,0.12,0.24l-0.04,0.09c0.08,0.46,0.12,0.94,0.34,1.22l0.05-0.3l0.08,0.21
		l-0.08,0.03c0.09,0.2,0.09,0.01,0.1-0.13c0.03,0.12,0.06,0.2,0.09,0.23l0.01-0.46c0.05,0.18,0.03,0.36,0.12,0.45
		c0.01-0.21-0.13-0.39-0.08-0.54c0.09,0.2,0.11,0.37,0.13,0.18c0.03,0.12,0.04,0.19,0.02,0.25c0.02-0.15,0.13-0.09,0.1-0.34
		c0.11,0.24,0.16-0.1,0.25,0.33c-0.01-0.11,0.02-0.36,0.06-0.39c0.03,0.53,0.19-0.01,0.29,0.55c-0.04-0.48,0.19-0.26,0.24-0.54
		c0,0.04,0.01,0.12-0.01,0.09c0.07,0.02,0.12,0.16,0.19,0.24c-0.08-0.38,0-0.5,0-0.74c0.17,0.35,0.06,0.46,0.17,0.81
		c-0.08-0.31,0.06-0.34-0.02-0.59c0.11,0.21,0.08,0.1,0.19,0.41c-0.1-0.48,0.04-0.1,0.02-0.4c0.13,0.19,0.13,0.39,0.18,0.29
		c-0.02-0.06-0.03-0.13-0.04-0.18c0.09-0.13,0.12,0.25,0.2,0.42c0.05-0.11,0.02-0.46,0.08-0.46c0.02,0.06,0.04,0.08,0.04,0.15
		c0-0.3,0.22-0.07,0.22-0.45c0.01,0.03,0.03,0.06,0.03,0.09c-0.06-0.18-0.11-0.36-0.14-0.49c0.04-0.02,0.02-0.25,0.1-0.02
		c-0.03,0-0.01,0.09,0,0.17l0.02-0.11c0.13,0.33-0.03,0.13,0.03,0.38c0.06-0.13,0.09-0.43,0.18-0.36c0.1,0.32-0.13,0.15,0.04,0.42
		l-0.14-0.1c0.22,0.5-0.07-0.02,0.15,0.52c0.16,0.06,0.11-0.2,0.28-0.15c-0.02-0.19-0.08-0.27-0.1-0.46c0.1-0.38,0.38,0.78,0.4,0.3
		c-0.02-0.23-0.13-0.65,0.04-0.46l0.07,0.38c0.14,0-0.07-0.55,0.14-0.34c0.02,0.15-0.07,0.15-0.04,0.19c0.17,0.27,0-0.23,0.07-0.25
		L504.24,629.89z M504.75,629.28c-0.03,0-0.05,0-0.08,0.01c-0.03-0.09-0.06-0.19-0.04-0.19
		C504.64,629.17,504.7,629.21,504.75,629.28z M503.83,627.64c-0.01-0.04-0.02-0.08-0.02-0.11c0.02-0.05,0.04,0,0.06,0.06
		C503.86,627.6,503.84,627.61,503.83,627.64z"/>
	<path class="st3" d="M504.99,627.51c0.01,0,0.01-0.01,0.02,0C505,627.49,504.99,627.5,504.99,627.51z"/>
	<polygon class="st3" points="507.47,628.93 507.49,628.93 507.46,628.86 	"/>
	<path class="st3" d="M518.1,622.43c0.01,0.05,0.03,0.1,0.03,0.14C518.17,622.57,518.19,622.56,518.1,622.43z"/>
	<path class="st3" d="M518.07,622.61c0.06,0.03,0.07,0,0.07-0.04C518.1,622.57,518.06,622.56,518.07,622.61z"/>
	<path class="st3" d="M522.72,619.36c-0.01-0.01-0.02-0.03-0.03-0.04l0.01,0.04H522.72z"/>
	<path class="st3" d="M522.67,619.21l0.02,0.08C522.7,619.28,522.72,619.27,522.67,619.21z"/>
	<path class="st3" d="M522.17,619.69c0.04-0.01,0.21,0.11,0.2,0.03l-0.05-0.06C522.41,619.78,522.09,619.54,522.17,619.69z"/>
	<path class="st3" d="M521.05,619.11c-0.09-0.07-0.2-0.16-0.18-0.22c-0.32-0.15,0.18,0.17,0.04,0.23L521.05,619.11z"/>
	<path class="st3" d="M520.39,619.06c0.03,0.1,0.04,0.13,0.14,0.17C520.55,619.15,520.43,619.11,520.39,619.06z"/>
	<path class="st3" d="M518.32,620.64c-0.01,0.06,0.06,0.08,0.15,0.21L518.32,620.64z"/>
	<polygon class="st3" points="518.84,622.21 518.98,622.32 518.86,622.11 	"/>
	<polygon class="st3" points="517.52,620.99 517.54,620.91 517.53,620.87 	"/>
	<path class="st3" d="M513.93,623.34l0.17,0.27C514.1,623.54,513.93,623.23,513.93,623.34z"/>
	<path class="st3" d="M512.3,624.49c0.04,0,0.14,0.09,0.14,0.04C512.35,624.4,512.25,624.34,512.3,624.49z"/>
	<polygon class="st3" points="507.05,626.38 507.09,626.39 507.08,626.27 	"/>
	<path class="st3" d="M262.86,694.3c0.09-0.11,0.03-0.22-0.06-0.3c-0.57-0.36-0.11-0.98-0.08-1.48c-0.25-0.22-0.8-0.28-0.41-0.76
		c0.76-1.3-0.93-0.7-1.08-1.78c-0.24-0.23-0.54-0.16-0.84-0.46c-0.17-0.55-0.65-1.1-0.85-1.63c-0.35-0.54,0.16-1.59,0.29-2.22
		c-1.57-1.14-1.55-4.26-3.88-4.19c-0.3-0.12,0.19-0.87-0.09-0.97c-0.43,0.05-0.83,0.11-1.13-0.27c-3.64-1.34-4.47-0.58-3.05,2.93
		c0,0.01,0.06-0.02,0.07-0.03c0.3-0.08,0.01,0.18,0.11,0.32c0,0.13,0.51-0.79,0.69-0.91c0.03,0.09-0.46,0.75-0.08,0.76
		c0.21-0.04,0.12,0.49,0.54,0.7c1.1,0.32,0.49,1.57,1.18,2.05c0.12,0.65,0.73,0.86,1.07,1.39c0.1,1.89,1.28,3.61,2.6,4.86
		c0.39,0.33,1.21,0.1,1.07,0.8c0.17,0.31,0.81,0.27,0.97,0.41c0.5,0.59,0.67,2.14,1.83,2.19c0.03,0.07-0.02,0.2,0.03,0.28
		c-0.67,1,0.3,0.82,0.51,1.45c0.41-0.22,1.31-0.99,0.86-1.4C263.75,693.99,262.08,695.19,262.86,694.3z M253.62,683.57
		c0.01-0.03,0-0.04-0.02-0.05c0.14-0.14,0.28-0.27,0.29-0.26C253.79,683.34,253.73,683.44,253.62,683.57z"/>
	<path class="st3" d="M256.15,680.58c-0.06,0.05-0.13,0.12-0.21,0.2c0.03-0.04,0.11-0.07,0.14-0.06
		C256.16,680.63,256.23,680.55,256.15,680.58z"/>
	<path class="st3" d="M394.94,49.87c-0.02-0.04-0.06-0.08-0.1-0.12c-0.03,0.06-0.08,0.12-0.12,0.18
		C394.84,50,394.93,50.01,394.94,49.87z"/>
	<path class="st3" d="M401.72,31.16c-0.36,0.37-0.31,0.85-0.71,1.17c-0.55,0.75-1.39,1.16-2.07,1.88c-0.43,0.38-0.68,0.97-0.86,1.49
		c-0.52,1.15-1.33,1.08-2.16,1.71l-0.03,0.03c-0.45,0.43-0.57,1.93-0.46,2.87c0.08,1.06-0.04,1.28-0.92,0.74
		c-0.87-0.44-1.4,0.37-1.77,1.22c-0.32,0.59-0.74,1.06-1.19,1.48c-0.84,0.97-2.65,2.38-3.76,3.37c-0.94,1-1.02,1.92-2.07,3.19
		c-1.01,1.21-2.12,2.2-3.42,3.05c-1.67,1.2-2.05,1.8-3.61,2.63c-1.03,0.45-1.88,1.36-2.35,2.37c-0.23,0.38-0.2,0.61-0.5,0.71
		c-0.23,0.03-0.85-0.08-1.35,0.32c-0.25,0.18-0.26,0.2-0.43,0.36c-1.11,1.36-2.14,3.05-3.24,4c-1.4,1.11-3.05,1.95-4.53,2.96
		c-2.49,1.33-4.61,2.99-7.04,4.61c-1.54,0.86-2.47,2.16-4.04,3c-1.17,0.78-1.99,1.18-2.89,2.07c-0.57,0.5-0.97,0.85-1.59,1.25
		c-0.75,0.51-1.66,0.78-2.32,1.37c-0.7,0.68-1.68,1.41-2.42,1.95c-3.44,0.09-6.48,0.21-8.45,0.4c1.87,0.44,3.86,0.91,5.93,1.41
		c-0.15,0.18-0.28,0.38-0.37,0.59c-0.2,0.4-0.17,0.54-0.4,0.83c-0.28,0.32-0.85-0.08-1.17-0.02c-0.63,0.16-0.93,0.96-1.61,1.25
		c-0.47,0.28-0.86,0.52-1.39,0.82c-0.71,0.37-0.75,1.49-1.4,1.83c-0.39,0.27-0.63,0.32-1.07,0.37c-0.7,0.08-1.16,0.59-1.87,0.68
		c-0.48,0.12-0.99,0.39-1.4,0.61c-0.5,0.26-0.88,0.42-1.38,0.7c-1.13,0.76-2.52,0.99-3.68,1.74c-0.73,0.34-1.85,0.88-2.44,1.43
		c-0.77,0.49-0.76,1.01-1.43,1.31c-0.14,0.06-0.17,0.09-0.38,0.17c-0.25,0.08-0.59-0.05-0.88-0.06c-0.26-0.01-0.49,0.1-0.73,0.19
		c-0.7,0.24-1.41,0.14-2.15-0.06c-0.88-0.09-1.2,0.69-1.72,1.22c-0.69,0.8-1.56,1.54-2.63,1.07c-1.18,0-0.86,0.83,0.04,0.95
		c0.76,0.1,1.52,0.83,2.32,0.57c0.4-0.16,0.6-0.25,1-0.45c0.36-0.32,0.93-0.21,1.39-0.45c0.07-0.04,0.25-0.13,0.4-0.15
		c0.19-0.05,0.53-0.01,0.77-0.02c0.5-0.03,0.83-0.11,1.27-0.16c0.64-0.13,1.19-0.39,1.82-0.55c0.5-0.17,1.12-0.17,1.52-0.33
		c0.61-0.27,0.73-1.06,0.99-1.59c0.12-0.34,0.35,0,0.86,0.32c0.61,0.41,1.24,0.12,1.67-0.34c0.63-0.5,1.14-0.97,1.83-1.35
		c0.83-0.48,1.6-0.55,2.52-0.63c0.88-0.06,1.72,0.17,2.51-0.3c0.4-0.25,0.9-0.35,1.33-0.65c0.6-0.45,0.92-1.37,1.63-1.52
		c0.21-0.02,0.58,0.2,0.92,0.15c0.41-0.1,0.74-0.46,1.15-0.6c0.63-0.3,1.52,0.01,1.98-0.07c0.38-0.09,0.51-0.52,0.81-0.71
		c0.22-0.15,0.43-0.06,0.67-0.12c0.44-0.04,0.5-0.87,0.71-1.24c0.35-0.83,1.62-0.65,2.08-0.95c0.15-0.17-0.27-0.84-0.07-0.89
		c0.65-0.31,1.45-0.35,2.17-0.66c0.56-0.22,0.82-0.66,1.29-1.04c0.04-0.03,0.07-0.06,0.11-0.08c6.93,1.65,14.11,3.37,20.1,4.75
		h10.82c-0.48,0.18-0.94,0.38-1.4,0.62c-0.97,0.51-2.01,0.21-2.99-0.1c-0.87-0.28-1.56,0.11-2.44,0.27
		c-1.01,0.15-2.23,0.13-3.57,0.55c-1.31,0.26-3.05,0.91-3.41,2.13c-0.23,0.49-0.51,0.97-0.89,1.34c-0.3,0.31-0.73,0.47-1.3,0.6
		c-2.7,0.76-5.63,1.72-8.45,2.14c-1.76,0.3-3.78,0.33-5.39,1.07c-1.34,0.57-2.64,1.13-4.13,1.21c-1.13,0.07-2.25,0.13-3.32,0.27
		l-0.26,0.12h-0.46c-1.61,0.3-3.08,0.86-4.26,2.12c-0.81,0.88-0.87,2.17-1.51,3.07c-0.57,0.62-1.93,0.73-2.76,0.98
		c-1.63,0.27-3.22,0.95-4.71,1.71c-4.13,1.71-8.54,2.78-12.83,4.15c-1.11,0.35-2.22,0.71-3.34,1.06l-9.7,3.8l-0.93,3.15
		c0.62-0.21,1.23-0.53,1.83-0.73c3.79-1.45,7.94-1.86,11.79-3.44c1.06-0.52,2.46-0.96,3.46-1.27c0.88-0.16,1.72-0.45,2.59-0.63
		c0.2-0.02,0.19-0.03,0.54-0.05c0.57-0.03,0.9-0.16,1.45-0.27c1.03-0.28,1.85-0.87,2.87-1.2c2.5-0.86,3.38-2.38,4.82-2.7
		c0.49-0.05,1.36-0.2,1.2,0.18c-0.19,0.76,0.48,0.62,1.01,0.43c2.89-1.21,6.37-2.69,9.26-3.54c4.15-1.43,8.02-3.56,12.28-4.65
		c3.36-1.06,6.87-1.63,10.24-2.3c2.8-0.45,6.2-0.97,8.61-2.49c0.15-0.05,0.16-0.07,0.39-0.09c2.22,0.51,6.52-0.48,8.47-2.46
		c4.28-2.92,9.82-2.79,14.8-3.51c1.68-0.3,3.29-1.01,4.82-1.4c3.12-0.54,7.29-1.56,10.09-2c1.89-0.2,3.93-0.9,5.75-1.96
		c2.33-1.37,5.66-2.91,7.02-4c0.11-0.19-0.15-0.19-0.31-0.22c-1.39-0.1-6.73,0.45-8.12,0.24c-0.1-0.02-0.15-0.04-0.16-0.07
		c2.89-1.73,7.63-0.83,10.16-2.64c0.14-0.08,0.27-0.13,0.39-0.19l-4.02-3.25c-0.2,0.25-0.27,0.37-0.3,0.5
		c-0.04,0.18,0.24,0.23,0.18,0.31c-0.03,0.08-0.36,0.15-0.61,0.22c-0.43,0.1-1.03,0.3-1.46,0.35c-0.13,0.03-0.31-0.33-0.23-0.4
		c0.63-0.34,1.83-0.49,2.4-1.01l-1.09-0.88c-3.04,0.64-6.74,1.65-9.65,1.93c-0.08,0.01-0.16,0.04-0.23,0.07l-0.71,0.39
		c-0.61,0.5-1.03,1.3-1.52,1.91c-0.64,1.08-2.31,1.07-3.91,1.02l-9.8,5.3c1.16,0.74,2.49,0.29,3.99,0.01
		c0.92-0.1,1.29-0.21,0.67,0.12c-1.94,1.03-4.98,2.26-7.19,2.13c-0.28-0.13,0.02-0.45-0.41-0.2c-1.39,0.98-4.07,1.03-6.05,0.98
		c-0.96,0.06-1.94,0.12-2.91,0.23l-3.66,0.97h-0.01l15.11-4l16.44-8.89l1.08-0.85c-0.04-0.01-0.08-0.02-0.12-0.03
		c-0.04-0.08,0.29-0.41,0.59-0.41c0.03,0,0.06,0,0.08,0l4.58-3.6l4.88-3.95c-1.26-0.07-2.52-0.03-3.73,0.03
		c-0.71,0.03-1.74,0.06-2.31,0.03c0.29-0.19,2.49-0.4,3.43-0.66c1.35-0.29,2.84-0.78,4.24-1.19L437,54l0.21-0.67
		c-1.8-0.14-3.59-0.2-5.12-0.15c-0.62,0.07-1.2,0.21-1.75,0.31c-0.78,0.11-1.16,0.08-1.98,0.25c-1.56,0.33-3.14,0.67-4.56,0.51
		c-0.56-0.12-0.67-0.18-1.4-0.28c-0.21-0.05-0.44-0.13-0.12-0.31c0.62-0.33,1.51-0.51,2.08-0.78c0.66-0.29,1.17-0.57,1.72-0.87
		c0.78-0.37,1.59-0.63,2.34-0.84c0.37-0.07,1.39,0.69,2.12,0.46c1.04-0.16,1.07-0.57,2.5-1.03c0.22-0.08,0.47-0.17,0.71-0.27
		c0.01-0.04,0.03-0.08,0.04-0.12c0,0.04-0.01,0.07-0.01,0.11c0.24-0.1,0.48-0.22,0.67-0.35c0.88-0.61,0.2-0.78-0.39-0.76
		c-0.58,0.06-0.95-0.03-0.17-0.62c1.17-0.87,3.26-1.07,4.78-1c0.12,0,0.26-0.02,0.38-0.02l2.29-7.22l-0.3-1.41
		c-3.02-0.89-6.26,0.25-9.17,1.04c-2.95,0.81-5.43,0.56-8.24,0.97c-1.55,0.21-4.02,0.73-4.68,0.76c-0.08-0.01,0.06-0.08,0.37-0.22
		c0.54-0.26,0.93-0.39,1.65-0.77c2.35-0.95,3.85-2.32,6.3-3.48c1.64-0.88,3.84-1.11,5.37-2.03c1.04-0.6,1.96-1.54,2.88-2.37
		l-5.74-1.5l-1.2,0.05c-1.13,0.59-2.28,1.11-3.66,1.39c-2.09,0.43-3.62,1.39-5.69,2.62c-2.02,1.34-4.15,1.35-5.77,3.4
		c-0.48,0.54-0.93,1.26-1.48,1.69c-0.25,0.24-0.61,0.28-0.86,0.31c-1.1-0.25-1.53,1.22-2.02,2.03c-0.86,1.68-1.71,3.13-0.11,3.89
		c1.97,0.49,4.24,0.79,6.33,0.88c1.41,0.04,3.05-0.4,4.46-0.04c0.13,0.03,0.13,0.03,0.38,0.07c0.67,0.16,1.05-0.35,1.53-0.54
		c0.12-0.03,0.34-0.19,0.42-0.1c0.01,0.12-0.17,0.43-0.33,0.57c-1.11,1.15-4,2.26-5.69,3.18c-1.09,0.59-15.2,7.05-12.38,7.3
		c1.12-0.08,1.84,0.05,2.65,0.23c4.49,0.21,9.25,0.06,13.54,0.71c1.26,0.2,1.85,0.48,2.9,0.56c0.79,0.02,2.3,0.04,2.02,0.22
		c-0.79,0.31-2.51,0.27-3.48,0.45c-1.99,0.3-3.2,0.94-4.33,0.93c-0.44,0.02-0.53,0.03-0.97,0.1c-3.38,1.15-7.04,1.05-10.45,1.87
		c-3.39,1-9.87,2.29-13.45,3.69c-0.16,0.22,0.42,0.48,1.51,0.9c4.33,1.56,9.59,3.79,13.4,4.89c0.83,0.19,1.71,0.2,2.45,0.03
		c0.71-0.36,1.32-0.05,1.86,0.41c0.43,0.57,2.67,1.62,1.14,2.38c-3.81,1.35-7.65,1.1-11.74,1.32c-5.34,0.74-9.03,1.19-13.65,2.52
		c-6.92,1.1-14.29,0.99-21.34,1.24c-2.7,0.12-6.29,0.2-10.05,0.27c0.31-0.16,0.6-0.28,0.84-0.36c0.35-0.11,0.42-0.15,0.73-0.24
		c1.07-0.29,1.71-1.35,2.3-2.2c0.29-0.3,0.67-0.12,1.04-0.21c0.81-0.31,1.17-1.02,1.72-1.64c0.15-0.13,0.3-0.2,0.48-0.21
		c0.51,0.05,0.68-0.39,1.23-0.54c0.96-0.58,2.12-0.66,3.06-1.23c0.72-0.46,1.25-1.39,2.22-1.41c0.57-0.09,1.32,0.22,1.78-0.19
		c0.48-0.48,0.89-0.84,1.4-1.37c0.91-1.18,2.1-2.19,3.13-3.2c2.05-1.36,4.19-3.04,5.98-4.92c1.32-0.97,2.09-2.28,3.37-3.28
		c0.71-0.49,1.45-0.76,1.91-1.41c0.75-1.15,1.61-2.1,2.82-2.88c0.69-0.61,0.87-1.42,1.04-2.29c0.2-1.13,1.11-2.77,2.31-2.76
		c0.54,0.01,1.15,0.13,1.55-0.34c0.04-0.05,0.06-0.1,0.1-0.15c-0.03-0.02-0.06-0.04-0.09-0.06c0.03-0.06,0.06-0.13,0.09-0.25
		c-0.02-0.02-0.04-0.05-0.07-0.08c0.07,0.08,0.13,0.14,0.18,0.21c0.34-0.78-0.43-1.5,0.46-1.99c0.55-0.51,1.31-1.07,1.58-1.79
		c0.8-1.08,1.65-2.15,2.39-3.36c1.32-2.17,3.47-4.11,4.71-6.27c0.3-0.5,0.7-1.02,1.15-1.34c0.53-0.53,1.03-0.9,0.62-1.67
		c-0.38-0.81-1.96-1.9-2.85-2.19C402.52,30.95,402,30.96,401.72,31.16z M350.77,103.34l-0.02-0.11c0.03,0.05,0.06,0.09,0.1,0.12
		C350.83,103.34,350.8,103.34,350.77,103.34z M419.53,76.86c0,0.05,0.03,0.11,0.1,0.2c-0.08-0.04-0.15-0.06-0.23-0.1
		C419.44,76.93,419.49,76.89,419.53,76.86z M417.07,81.54c0.02,0.1-0.03,0.18-0.1,0.27c-0.13-0.02-0.24-0.08-0.31-0.17
		C416.77,81.61,416.9,81.57,417.07,81.54z M415.72,78.45c0.03,0.01,0.05,0.02,0.07,0.02c0.01,0.06,0.02,0.11,0.05,0.15
		c-0.14,0.05-0.29,0.08-0.43,0.11C415.48,78.62,415.51,78.47,415.72,78.45z M415.09,77.7c0,0.01,0,0.01,0,0.02
		c-0.03,0-0.05,0-0.08,0C415.04,77.71,415.07,77.71,415.09,77.7z M415.46,78.36c0.01,0,0.02,0.01,0.04,0.01l-0.4,0.35
		c-0.14-0.02-0.24-0.08-0.3-0.22C415.22,78.48,415.4,78.43,415.46,78.36z M413.22,81.11c-0.02,0.07-0.03,0.13-0.04,0.19
		c-0.03,0-0.06,0-0.09,0C413.17,81.22,413.22,81.15,413.22,81.11z M412.92,79.47v0.09l-0.01-0.09
		C412.91,79.47,412.91,79.47,412.92,79.47z M402.48,84.91c0.15-0.11,0.31-0.22,0.47-0.32C402.87,84.73,402.7,84.83,402.48,84.91z
		 M403.81,85.39c0.64-0.32,1.28-0.48,2.16-0.64c0.4-0.11,0.73-0.35,1-0.41c0.32-0.03,0.48-0.22,0.8-0.36
		c0.3-0.1,0.84,0.12,1.03,0.29c0.09,0.1,0.04,0.23-0.15,0.38c-0.71,0.5-1.8,0.94-2.63,1.24c-0.61,0.24-0.33-0.31-0.44-0.49
		l-0.04-0.01c-0.12-0.01-0.2,0.57-0.5,0.81c-0.61,0.36-1.39-0.07-1.67-0.41C403.28,85.62,403.57,85.49,403.81,85.39z M429.7,59.05
		c-0.03,0.02-0.06,0.03-0.09,0.05l-0.02-0.08C429.62,59.03,429.66,59.04,429.7,59.05z M428.57,58.9l-0.8,0.72L427,59.1
		C427.55,58.99,428.05,58.9,428.57,58.9z M433.73,43.13c0.15-0.01,0.3-0.04,0.44-0.08c-0.15,0.07-0.3,0.15-0.44,0.22
		C433.73,43.23,433.72,43.18,433.73,43.13z M425.59,47.63c-0.01-0.01-0.02-0.01-0.02-0.01c0.54-0.26,1.03-0.47,1.34-0.61
		C426.63,47.14,426.22,47.31,425.59,47.63z M425.06,46.7c0.47-0.39,1.39-0.94,1.98-0.97l0.12,0.04c0.27,0.61,0.55,0.04,1.15-0.07
		c0.26-0.08,0.91-0.26,1.1-0.24c0.04,0.04-0.51,0.27-0.84,0.44c-1.04,0.5-2.22,1.1-3.24,1.53c-0.21,0.05-0.17-0.16-0.26-0.37
		C425.01,46.92,424.97,46.81,425.06,46.7z M422.56,49.03l0.15-0.02c0.29,0.02,0.83,0.2,0.33,0.45c-0.14,0.04-0.17-0.04-0.41,0.02
		c-0.63,0.11-1.71,0.46-2.32,0.59C421.02,49.73,421.86,49.37,422.56,49.03z M385.92,85.15c-0.19,0.07-0.48,0.13-0.89,0.15
		c-0.03-0.02-0.08-0.05-0.12-0.07C385.24,85.2,385.58,85.18,385.92,85.15z M390.05,47.48c-0.1-0.18-0.36-0.14-0.63-0.21
		c0.09-0.05,0.18-0.15,0.27-0.25C389.92,47.2,390.12,47.42,390.05,47.48z M389.99,46.62c-0.01-0.01-0.01-0.01-0.01-0.01
		c0.04-0.08,0.08-0.14,0.11-0.19C390.06,46.47,390.03,46.52,389.99,46.62z"/>
	<path class="st3" d="M581.41,881.26c-0.21,0.03-0.4,0.08-0.58,0.13l5.23,0.94c-0.16-0.16-0.31-0.32-0.49-0.46
		C584.72,881.15,582.44,881.15,581.41,881.26z"/>
	<path class="st3" d="M665.33,880.67l-9.52-5.95c-0.49,0.07-0.99,0.16-1.49,0.3c-1.22,0.41-1.97,1.01-3.34,0.98
		c-2.77-0.04-5.82-2.95-8.67-2.23c-0.94,0.35,0.23,0.57,0.58,0.63c0.67,0.17,0.31,0.52,0.89,0.81c0.07,0.05,0.15,0.06,0.16,0.16
		c-0.02,0.04-0.13,0.09-0.31,0.14c-0.65,0.15-1.4,0.19-2.04-0.07c-1.26-0.42-1.96-1.59-3.29-1.88c-2.09-0.38-4.65,0.37-6.29,0.16
		c-1.13-0.24-2.46-0.74-3.62-0.81c-1.29,0-2.94,0.36-4.17,0.41c-0.29-0.08,0.81-0.48,1.01-0.7c0.23-0.23-0.22-0.42-0.41-0.56
		c-0.35-0.23-1.2-0.85-0.92-1.22c2.19-1.88,4.66-2.64,7.39-4c1.94-1.16,3.68-2.15,5.2-3.45l-5.16-10.06l-0.03-0.16
		c-1.64,0.26-3.26,0.61-4.77,1.23c-1.09,0.4-2.2,0.9-3.33,1.04c-1.43,0.1,0.49-0.63,1.02-0.83c1.92-0.77,3.5-2.16,5.71-2.43
		c0.39-0.03,0.77-0.08,1.15-0.14l-1.74-8.72l-0.22-0.21c-0.51,0.04-1,0.09-1.48,0.17c-1.96,0.32-3.38,1.56-5.28,1.85
		c-3.22,0.2-6.32,2.22-9.47,2.53c-0.58-0.25,0.11-0.82,0.37-1.11c1.24-1.14,2.13-2.65,3.92-3.03c0.45-0.12,0.94-0.21,1.39-0.35
		c0.68-0.21,1.23-0.62,1.46-1.26c0.25-0.64,0.16-1.37,0.58-1.96c0.71-0.74,1.73-1.47,2.81-2.19l-1.45-1.37
		c-1.13,0.35-2.19,0.63-3.04,0.66c-1.07-0.16-1.75-0.93-2.64-0.54c-1.31,1.27-2.43,1.7-4.46,2.78c-0.48,0.22-1.61,0.68-1.85,0.61
		c-0.06-0.01-0.07-0.04-0.06-0.08c0.08-0.13,0.63-0.48,0.87-0.62c0.57-0.26,1.23-1.15,0.29-1.28c-1.37,0.09-2.27,1.47-3.53,1.96
		c-1.75,0.99-4.02,0.76-5.47,2.24c-0.16,0.19-0.2,0.37-0.11,0.46c0.16,0.12,0.23,0.08,0.41,0.08c0.43-0.02,0.83-0.17,1.16-0.22
		c0.17-0.03,0.1,0.18-0.17,0.52c-1.19,1.6-3.72,1.39-5.53,1.62c-2.01,0.41-3.93,2.1-5.45,3.54c-0.8,0.82-1.58,1.21-2.53,1.38
		c-0.24,0.04-0.7,0.29-0.54-0.14c0.59-1.17,1.54-2.35,2.07-3.18l-7.8,1.26c-1,0.46-2.3,1.02-3.27,1.24
		c-0.73,0.11-1.18-0.11-1.51-0.47l-6.81,1.1l-4.49,0.64c-0.86,0.5-1.64,1.11-2.68,1.78c-0.69,0.44-1.62,0.62-1.88,1.33
		c-0.04,0.28,0,0.57,0.11,0.87c0.49,1.14,1.26,3.19,2.12,4.18c0.86,0.82,1.49,0.2,2.82,0c2.28,0.02,4.04-0.64,6.18-1.81
		c1.44-0.79,3.21-0.86,4.33-1.44c0.26-0.13,0.6-0.32,0.84-0.42c0.09-0.03,0.13-0.01,0.14,0.07c-0.04,0.68-0.46,2.53-0.66,3.34
		c-0.08,0.23-0.15,0.11-0.24-0.23c-0.17-0.5-0.22-2.19-0.99-1.22c-1.61,1.98-8.05,10.37-9.58,12.34c-0.21,0.34-0.46,0.64,0.14,0.34
		c1.27-0.64,7.29-4.14,8.75-4.87c1.23-0.63-0.46,1.88-0.68,2.48c-0.86,1.89-2.97,5.31-3.41,6.88c0.04-0.02,0.11-0.07,0.2-0.16
		c0.97-0.86,3.73-4.14,5.23-5.41c0.89-0.78,0.77,1.63,0.96,2.08c0.19,1.09,0.66-0.55,0.91-1.25c0.85-3.07,2.51-7.16,5.75-7.88
		c1.09-0.11,2.13-0.19,3.17-0.49c1.49-0.5,3.22,0.08,5.02-0.36c0.69-0.12,1.86-0.57,2.41-0.33c0.46,0.33,0.06,1.16-0.01,1.67
		c-0.16,0.7-0.4,1.29,0.27,1.22c0.77-0.08,2.74-1.02,4.05-1.43c2.18-0.8,4.15-1.04,6.65-1.03c5.46,0.26,11.29,1.03,16.58,1.1
		c1.41,0.15,2.78-0.77,3.8-1.23c0.28-0.04,0.78,0.13,1.17,0.18c0.44,0.03,0.42,0.22,0.32,0.47c-0.45,0.67-1.24,0.83-1.82,1.44
		c-2.02,1.5-6.62,4.61-8.99,6.94c-1.33,1.21-2.18,2.9-3.31,4.28c-1.06,1.24-1.75,2.55-1.25,3.37c1.49,1.5,4.44,0.9,6.44,1.3
		c1.95,0.26,3.73,1.01,5.68,1.14c3.39,0.37,7.34-0.35,10.75,0.29c0.07,0.12-1.32,0.41-1.64,0.54c-0.16,0.06-0.04,0.1,0.33,0.11
		c2.1,0.03,4.33-0.63,6.4-0.2c2.08,0.87-5.73,1.72-6.03,1.91c-1.85,0.66-3.65-0.28-5.54-0.48c-2.72,0.05-5.64,0.92-8.25,0.36
		c-1.52-0.15-3.03,0.2-4.55,0.16c-1.43,0.01-3.31-0.23-4.96,0.03c-1.49,0.18-3.31,0.48-4.74,0.16c-0.78-0.17-1.62-0.5-2.4-0.43
		c-0.6,0.06-1.23,0.51-1.63,0.9c-0.33,0.36-0.42,0.44-0.86,0.35c-0.48-0.1-0.91-0.38-1.42-0.35c-1.29,0.11-2.49,0.77-3.79,0.5
		c-0.91-0.37-2.45-0.06-3.06-0.17c-0.22-0.19-0.29-0.59-0.54-0.72c-1.82-1.1-3.4-0.03-5.59,0.56l6.82,1.23h14.98
		c0.1-0.15,0.24-0.31,0.43-0.16c0.05,0.05,0.11,0.11,0.16,0.16h24.43h19.98V884L665.33,880.67z M579.17,861.7l-0.11,0.21l-0.04-0.8
		l0.18-0.13L579.17,861.7z M580.38,857.12l-0.08,0.12l-0.56-0.58c0.28,0.12,0.5,0.27,0.66,0.42L580.38,857.12z M587.3,852.49
		c0.07-0.08,0.14-0.17,0.21-0.25c0,0.07,0,0.13,0.01,0.2C587.44,852.46,587.37,852.47,587.3,852.49z M589.35,852.53l-0.32-0.43
		c0.03-0.02,0.05-0.03,0.07-0.05c0.02,0,0.02,0.01,0.04,0.01l0.27,0.37C589.4,852.46,589.37,852.49,589.35,852.53z M603.08,842.09
		c0,0.04-0.02,0.08-0.02,0.12c-0.02-0.17-0.02-0.33,0.03-0.48c0.48-0.35,0.73-0.28,0.88-0.15
		C603.72,841.71,603.44,841.86,603.08,842.09z M612.62,856.17c0.02-0.1,0.01-0.18,0.01-0.26l0.17,0.25
		C612.74,856.16,612.68,856.17,612.62,856.17z M613.85,856.14c-0.23,0.01-0.52,0.02-0.75,0.02l-0.12-0.02
		c-0.08-0.02-0.34-0.15-0.27-0.24c0.06-0.04,0.17-0.11,0.23-0.14c0.22-0.09-0.24-0.2,0.21-0.34c0.19-0.06,0.51-0.02,0.64,0.06
		C614.07,855.59,614.23,856.08,613.85,856.14z M643.49,881.26l-0.1-0.08c-0.34-0.94,1.84-0.59,2.22-0.51
		c0.68-0.06,1.7,0.04,2.43,0.14C646.77,881.06,644.83,881.42,643.49,881.26z M650.23,880.9c0.01,0,0.01,0,0.02-0.01
		c0.36,0,0.72-0.01,1.08-0.04C651.26,880.96,650.99,881,650.23,880.9z M653.18,880.78v-0.02c0.1-0.09,0.29-1.3-0.17-0.59
		c-0.16,0.29-0.36,0.52-0.55,0.49c-0.13-0.01-0.25-0.11-0.21-0.23c0.24-0.68,2.38-1.28,2.93-1.69c0.16-0.03,0.01,0.21,0.01,0.29
		c0.01,0.09,0.04,0.26,0.06,0.34c0.1,0.19,0.47,0.31,0.44,0.4C655.06,880.07,653.72,880.12,653.18,880.78z"/>
	<path class="st3" d="M577.31,747.28c1.96-1.93,4.58-0.33,16.53-0.75c0.81-0.05,1.49-0.08,2.08-0.08l-0.76-7.96
		c-9.99,2.48-22.02,4.98-37.62,7.38c-2.33-0.47-1.2,0.73,0.78,0.29c8.47-0.48,1.75,0.92-1.49,0.63
		c-11.86,3.08,22.32-28.4,27.92-28.91c2.65,0.39-13.75,9.39-7.52,6.68c5.13-2.98,10.57-6.43,15.63-10.14l-0.52-5.48
		c-11.04,10.16-15,6.34-42.73,34.71c-2.61-0.55-4.44,3.58-7.8,7.15c6.93,0.11,17.06-0.04,24.04-2.01
		C558.24,750.99,582.15,747.26,577.31,747.28z"/>
	<path class="st3" d="M584.15,783.24c3.61,1.02,8.93,1.81,15.3,2.2l-0.23-2.64c-2.24-0.17-4.51-0.39-6.86-0.68
		c-4.96-1.28-1.37-2.63,6.34-5.25l-0.27-3.05C585.9,777.64,568.6,782.71,584.15,783.24z M586.21,780.67
		c1.07,0.34,1.68,0.55-0.5,0.18C585.86,780.8,586.03,780.74,586.21,780.67z M584.96,781.63l-0.01-0.49
		C585.08,780.98,585.07,781.71,584.96,781.63z M584.95,780.73l-0.01-0.46C585.05,780.21,585.07,780.84,584.95,780.73z"/>
	<path class="st3" d="M603.37,808.31l-0.55-1.84c-0.37-0.24-0.75-0.5-1.15-0.77c0.28-0.13,0.53-0.24,0.81-0.37l-0.31-0.97
		c-0.34,0.02-0.34-0.08-0.08-0.28l-0.27-0.92C595.24,806.15,597.68,807.69,603.37,808.31z M601.83,804.76
		c-0.81,0.43-1.95,1.02-2.62,0.04C599.35,804.85,602.56,804.45,601.83,804.76z"/>
	<path class="st3" d="M586.79,658.31l-1.2-5c-14.73,2.59-21.16,3.23-37.48,2.59c-4.03,0.12,3.22-3.4,4.17-3.11
		c13.71-6.98,14.54-7.27,24.44-15.79c-9.94,6.59-24.49,16.68-6.55,3.55c-5.29,3.34-10.97,7.38-14.24,9.21
		c2.62-1.95,3.77-2.76,3.89-2.96c6.99-3.14,15.48-13.95,21.34-11.93l-1.51-6.28c-19.6,14.51-29.77,16.06-51.77,32.01
		C548.79,663.03,569.09,659.52,586.79,658.31z"/>
	<path class="st3" d="M456.5,477.44c4.62-1.77,15.74-5.45,27.88-10.18l-3.33-3.25c-5.08,2.04-10.87,4.05-17.91,6.14
		c-42.13,9.42-43.97,13.56-2.86,14.77c4.83-1.3,30.8-4.07,36.44-4.85l-3.39-4.07l-0.84-0.82
		C469.84,478.32,447.51,480.93,456.5,477.44z"/>
	<path class="st3" d="M583.28,661.26c-40.5,26.82-12.13,27.18,7.28,28.94l-0.28-2.96c-2.6-0.41-5.7-1.05-9.78-2.03
		c-7.76-1.82-1.48-1.2,1.66-0.97c-6.48-0.48-18.83-2.6-7.75-8.3c-10.42,7.71,8.55-5.18-0.26-0.54c3.07-2.01,5.66-3.73,5.76-3.45
		c2.9-2.48-3.09,0.61,2.85-4.07c1.26-0.62,3.23-1.91,5.36-3.29l-0.12-1.27l-0.83-3.46C583.88,662.12,577.96,665.24,583.28,661.26z"
		/>
	<path class="st3" d="M597.09,758.74c-7.18,0.96-14.22,1.93-19.98,2.62c0.26-0.69,1.75-1.12,6.28-1.91
		c-2.07-0.15-15.6,2.32-7.93,0.87c12.16-6.88,12.48-7.93,20.91-9.12l-0.24-2.51c-9.14,4.58-43.24,14.91-46.12,18.94
		c21.6-3.08,33.11-5,47.27-6.87L597.09,758.74z"/>
	<path class="st3" d="M519.27,507.13l-4.27-5.12c-2.23,0.74-5.22,1.56-8.4,2.16c2.72-1.1,5.45-1.83,8.1-2.52l-6.18-7.41
		c-20.91,6.13-48.14,15.7-70.25,14.24c17.07-11.42,40.92-15.43,62.82-23.15l-3.41-4.09c-5.11,1.93-16.93,5.13-20.36,5.64
		c-2.25,0.44-1.78,0.09-0.52-0.45c-19.92,7.29-32.02,10.15-48.86,23.24c-11.63,6.52,19.77,2.43,25.85,2.45
		c1.81-2.25,15.14-3.13,3.4-0.14c1.08,0.46-7.7,1.31,0.2,0.75c-4,1.12-16.55,10.25-20.94,12.08
		C459.57,518.62,492.05,513.23,519.27,507.13z M494.09,506.21c0-0.01-0.01-0.01-0.01-0.01
		C494.16,506.19,494.17,506.19,494.09,506.21z M489.25,507.24c-1.44,0.43-2.91,0.7-4.6,1.02
		C486.38,507.87,487.92,507.53,489.25,507.24z M480.03,509.38c0.45,0,1.17-0.04,2.2-0.12C481.35,509.35,479.42,509.73,480.03,509.38
		z M478.59,508.68c-0.95,0.28-1.91,0.56-2.88,0.84C476.53,508.87,477.61,508.91,478.59,508.68z M483.9,513.31
		c-2.44,0.53-5.33,1.19-8.38,1.88C475.16,513.93,479.2,514.24,483.9,513.31z M463.34,518c-1.65,0.43-3.19,0.77-4.35,1.04
		C460.01,518.8,461.36,518.48,463.34,518z"/>
	<path class="st3" d="M481.46,484.7c0,0-2.32,0.8-4,1.46c-0.23,0.09-0.45,0.18-0.64,0.27C478.32,485.88,479.87,485.31,481.46,484.7z
		"/>
	<path class="st3" d="M579.33,627.34v-5.69c-3.69,0.68-7.62,1.34-11.7,1.88c15.06-0.58-21.83,2.5-31.68,5.37
		c14.67-6.2,28.5-11.32,43.38-15.16v-7.57c-8.04,1.75-15.64,3.42-19.32,2.7c-4.14-1.05-9.02,2.74-21.77,3.42
		c-3.99-0.06-1.95-0.4,0.45-0.72c12.45-3.54-42.19,5.47-12.99-3.53c7.97-7.84,36.64-6.97,53.63-10.33v-0.38v-7.55
		c-47.44,6.04-43.86,4.51-78.58,7.28c-33.55-3.08,40.97-17.04,73.66-25.95l-5.08-7.11l-0.85-0.81c-3.15,0.3-8.17,0.64-16.95,1.09
		c-29.04,1.69-16.2,0.94-34.94,2.54c8.14-5.7,23.75-10.31,40.55-14.43l-8.84-8.41c-20.04,4.01-33.99,6.18-26.3,1.84
		c2.73-0.85,11.53-2.76,22.76-5.2L542,538l-2.64-3.79c-0.94,0.22-1.79,0.43-2.47,0.63c0.66-0.23,1.48-0.46,2.43-0.7l-3.72-5.33
		c-20.03,4.8-33.96,7.82-18.82-0.91c3.97-2.99,8.42-5.36,12.98-7.47l-3.08-4.42l-0.77-0.93c-17.1,8.71-62.49,38.25-38,30.86
		c81.2-19.34,8.8-3.21-30.1,17.75c18.85-1.41,48.37-7.03,45.95-7.18c7.79-0.93,5.38,0.4,0.95,1.32c10.43-2.18,10.72-0.33,26.05-3.08
		c-13.6,4.6-28.83,9.77-41.34,15.13c-25.86,11.03-26.18,9.86,1.97,7.57c19.45-1.83,31.65-4.29,46.46-4.8
		c12.08-1.46-4.56,0.84-11.01,2.98c-8.56,3.73-35.61,5.96-47.87,19.4c11.88,12.78,33.14,4.53,48.77,5.97
		c-10.35,4.26-54.51,18.87-23.41,17.18c16.04,0.99,19.55,0.25,40.52-1.47c24.02-5.41-16.17,7.52-40.51,18.98l0.39,5.11
		c26.32-4.93,61.63-12.37,74.86-12.39L579.33,627.34z M563.85,614.46c-0.57,0.1-1.2,0.21-1.65,0.28
		C562.64,614.65,563.21,614.56,563.85,614.46z M501.94,536.02c-1.26,0.39,0.18-0.45,0.68-0.9
		C502.54,535.31,502.4,535.56,501.94,536.02z M532.71,629.55c-5.07,1.05-1.74-0.28,1.37-1.41
		C532.1,629.24,532.73,629.28,532.71,629.55z"/>
	<path class="st3" d="M84.53,858.78c-3.36-0.41-6.24-3.42-9.05-1.32c-0.27,0.19-0.5,0.34-0.87,0.28c-1.05-0.17-1.78-0.87-2.88-0.98
		c-1.31-0.1-2.42,0.22-3.66,0.08c-0.28-0.03-0.4-0.12-0.24-0.21c0.65-0.26,1.47-0.25,2.2-0.33c2.41-0.18,6.52-0.47,9.55-0.71
		c1.24-0.1,1.69-0.19,1.18-0.38c-1.26-0.44-3.99-1.02-5.57-1.46c-2.66-0.66-6.37-1.64-8.08-2.11c-0.3-0.06-0.59-0.03-0.86,0.02
		c-3.28,0.56-6.42-0.82-2.61-3.97c3.46-3.5-6.1-3.35-7.56-4.13c-0.81-0.28-0.93-0.64-2.44-0.6c-0.58,0-1.24,0.04-1.76-0.03
		c-0.94-0.12-0.92-0.62-2.76-0.51c-0.24,0.01-0.48,0.04-0.73,0.07l0.08,0.45c0.92,0.12,0.93,0.85,1.93,1.09
		c0.86,0.2,1.98,0.21,2.94,0.21c1.63-0.16,7.95,0.87,7.28,2.86c-0.65,1.26-2.31,1.91-3.26,3.03l5.21,3.68
		c0.46,0.11,0.91,0.2,1.31,0.25l0.01,0.04c-0.12,0.05-0.34,0.14-0.58,0.23l6.75,4.77c0.01,0,0.01,0,0.02,0
		c1.52-0.08,3.83,0.44,1.85,1.23l6.04,3.33c3.31-0.39,6.75-0.81,9.73-1.75c1.6-0.5,4.23-0.71,5.42-1.51
		C90.99,859.5,86.67,859.41,84.53,858.78z M75.13,860.5c-0.09,0.02-0.26,0.05-0.35,0.06c-0.2-0.01,0.09-0.06,0.14-0.1
		c-0.05-0.12-0.93-0.01-0.85-0.12c0.06,0.01,0.19,0.01,0.25,0.02l0.12-0.01c0.13-0.05,0.73-0.26,0.87-0.21
		C75.36,860.16,75.23,860.43,75.13,860.5z M87.28,861.3c-0.32,0.14-0.49,0.2-0.58,0.34c-0.08,0.12-0.02-0.31-0.07-0.51
		c-0.06-0.14,0.06-0.68-0.07-0.83c-0.09-0.15-0.73,0.1-0.94,0.05c-0.01-0.03-0.03-0.08-0.04-0.1c0.13-0.26,0.79-0.4,1.02-0.57
		c0.27-0.23,0.22,0.05,0.43,0.14l0.1,0.03c0.17,0.03,2.2,0.14,2.29,0.24C89.02,860.41,87.65,861.07,87.28,861.3z"/>
	<path class="st3" d="M201.28,868.62c-1.2-0.24-2.93-0.01-4.12-0.7c-0.91-0.5-0.29-0.96-0.49-1.13c-4.19-1.42-8.94-1.03-13.21-1.12
		c-1.42-0.11,0.1-0.36,1.59-0.36c2.79-0.12,6.2,0.21,8.91-0.72c1.2-0.47,1.98-1.2,3.19-1.58c1.93-0.69,5.33-0.25,6.75,0.69
		c0.09,0.06,0.2,0.1,0.29,0.15l-1.53-5.85l-16.38-7.21c-3.15-0.61-6.5-0.5-9.55-0.44c-6.41-0.7-0.45-1.66,4.92-2.29l-12.33-7.4
		l-1.93-2.13c-1.26,0.3-2.41,0.91-3.86,1.19c-3.02,0.13-5.84-0.94-8.97-0.84c-4.43-0.03-3.99-1.04-0.89-2.04
		c1.02-0.39,1.53-0.8,2.72-1.45c1.94-1.01,4.08-1.53,6.16-2.19l-5.36-5.9c-0.47,0.04-0.94,0.05-1.4,0.02
		c-1.88-0.07-3.72-1-5.41-1.16c-4.48-0.47-8.98,0.82-13.25,1.22c-0.96-0.04-0.8-0.57-2.68-0.4c-1.82,0.05-3.87,0.56-5.63,0.4
		c-1.63-0.5-3.29-1.13-5.14-1.2c-5.83-0.63-11.71,1.86-17.11-0.25c-0.21-0.27,0.27-0.59,1.19-0.88c3.28-0.96,6.66-1.59,9.99-2.14
		c4.15-0.81,7.64-2.61,11.55-3.88c2.05-0.54,4.19-0.45,6.29-0.75c3.36-0.38,5.73-2.44,8.92-3.03c1.09-0.13,2.16-0.41,3.23-0.73
		l-2.83-3.94c-0.66,0.03-1.33,0.03-2,0.25c-2.22,0.79-5.53,1.83-8.14,2.1c-2,0.45-3.34,1.17-5.42,1.39
		c-4.45-0.12-8.61,2.04-12.76,3.24c-1.95,0.7-3.55,0.33-5.55,1.3c-1.09,0.49-2.19,1.38-3.33,1.68c-0.86,0.34-1.37-0.64-2.16-0.33
		c-2.48,1.16-4.74,1.45-7.55,2.18c-1.52,0.26-2.91,0.37-4.32,0.77c-0.54,0.13-1.24,0.45-1.66,0.46c-0.27-0.05,1.75-1.22,1.98-1.48
		c-4.64,1.32-18.03,6.75-21.91,8.08c-2.24,1.1,9.26,0.75,9.89,0.66c3.84,0.03,8.99-0.63,12.62-0.19c0.36,0.17,0.39,0.38,0.75,0.2
		c0.33-0.13,0.43-0.18,0.7-0.26c1.21-0.45,2.39-0.02,3.57,0.33c1.36,0.39,3.4,0.1,4.92,0.12c3.27-0.05,7.5,0.84,10.54-0.29
		c0.88-0.35,1.59-0.7,2.03-0.76c0.22-0.04,0.46-0.03,0.67,0.04c0.54,0.16,0.13,0.49,0.15,0.68c0.03,0.12,0.2,0.19,0.52,0.23
		c1.09,0.06,2.99-0.22,4.19-0.18c1.82-0.01,0.91,0.6,0.05,0.71c-0.79,0.15-2.1,0.1-2.71,0.51c-0.31,0.65,1.64,0.97,2.14,1.02
		c3.45,0.53,6.68-0.56,9.98-1.08c1.89-0.1,3.46,0.96,5.25,1.09c1.67,0.18,3.35-0.73,4.94-0.97c1.04-0.16,1.94,0.43,2.95,0.48
		c0.84,0.02,2.42-0.42,3.1-0.46c0.17-0.01,0.4-0.04,0.51,0.1c-1.95,2.52-7.11,4.71-9.93,6.13c-2.21,0.84-3.69,1.17-5.56,2.66
		c-2.52,1.94-6.84,4.41-8.26,6.02c0.61,0.3,2.65-0.18,3.77-0.23c2.89-0.37,7.35-0.69,9.54-1.31c2.46-0.72,4.36-0.52,7.23-0.34
		c3.67,0.14,8.01-0.15,11.57,0.23c0.77,0.15,0.17,0.45-1.45,1.02c-3.12,1.14-9.8,3.52-11.8,4.28c-0.28,0.12-0.97,0.36-0.4,0.54
		c3.65,0.77,11.36,1.91,15.91,2.75c3.84,0.69,7.96-0.11,11.77,1.36c2.66,0.8,5.55,1.47,8.3,1.36c1.76,0.02,2.84,0.43,4.29,1
		c0.37,0.15,0.45,0.25,0.28,0.32c-1.31,0.23-3.01,0.12-4.39,0.25c-2.7,0.11-3.18,0.66-6.12,0.88c-10.78,0.67-24.88-0.32-36.56,0.12
		c9.17,2.54,21.91,5.96,29.35,8.02c4.14,1.15,8.47,2.36,12.65,3.45c1.04,0.24,2.84,0.93,0.75,1.21c-6.82-0.3-14.25,0.91-20.86,1.34
		c-0.61,0.02-1.3,0.09-1.8-0.07c0.45-0.35,2.99-0.6,3.67-0.84c0.14-0.07,0.38-0.11-0.05-0.15c-3.67,0.14-7.25,1.15-10.88,1.1
		c-1.89-0.01-2.06-0.29-3.14-0.55c-4.68-0.25-9.66-0.07-14.36-0.18c-0.82-0.06-1.29-0.06-1.68,0.35c-1.11,1.07-4.15,1.79-5.7,0.45
		c-1.22-0.68-2.45-1.37-3.93-1.2c-3.45,0.12-6.96,0.17-10.49-0.2c-4.66-0.31-9.78,0.7-14.06-1.74c-2.17-0.85-4.48,0.11-6.98-0.24
		l9.89,5.45c1.66-0.07,3.32-0.02,4.82,0.72c1.6,0.92,1.88,1.22,4.62,1.71c0.72,0.04,1.69,0.42,2.52,0.68l1.85,0.15
		c0.73-0.16,1.27-0.47,2.18-0.84c1.15-0.35,2.62-0.67,3.71-0.36c0.29,0.1,0.49,0.19,0.4,0.46c-0.07,0.19-0.23,0.4-0.21,0.6
		c0.07,0.24,0.27,0.32,0.59,0.46c1.49,0.55,3.25-0.15,4.92-0.13c1.57,0.15,2.91,0.04,4.58-0.41c0.97-0.2,1.83-0.18,2.57-0.48
		c1.59-0.73,2.87-0.38,4.76-0.13c1.35,0.14,3.06,0.4,4.45,0.76c2.79,0.56,6.4,1.8,9.01,0.58c0.98-0.71-2.64-0.23-2.72-0.37
		c-0.32-0.1,0.37-0.34,0.42-0.46c0.2-0.2-0.95-0.14-1.59-0.26c-0.97-0.27,1.48-0.54,2.26-0.57c2.87-0.54,4.79,1.54,7.45,1.77
		c3.35-0.14,6.95-0.65,10.4-1.22c2.17,0.03,4.36,0.69,6.56,0.37c3.91-0.27,7.62-0.31,11.28-1.42c1.7-0.23,1.15,1.02,2.52,0.86
		c2.9-0.29,5.93-1.04,8.76-1.8c1.94-0.28,4.26,0,6.4-0.08l4.74-2.71l-1.1-4.18C204.16,869.13,202.51,869.1,201.28,868.62z
		 M104.47,826.16c0.12-0.03,0.24-0.07,0.36-0.1c0.14,0.07,0.24,0.13,0.29,0.22C104.91,826.23,104.69,826.2,104.47,826.16z
		 M149.66,838.84c-0.38,0.01-0.75,0.04-1.13,0.07c0.22-0.13,0.45-0.27,0.72-0.42C149.82,838.32,150.04,838.59,149.66,838.84z
		 M150.81,832.25c0.29-0.16,0.67-0.29,1.29-0.31l0.04,0.09C151.48,832.34,151,832.37,150.81,832.25z"/>
	<path class="st3" d="M369.18,601.9c-0.54,1.12-0.52,2.46-0.69,0.71c-0.1-3.97-0.95,6.04,1.07,7.89c0.51,1.4,2.56,2.66,0.96,0.37
		c1.21,1.03,1.23,1.37,2.47,1.56c-0.46,0.07-2.4,0.56-1.15,0.35c-3.67,6.85-2.76,5.23-8.28,9.06c-3.84,4.17-2.34,4.22-4.58,8.97
		c-6.09,4.18,0.16-2.24-1.46-1.73c-4.96,5.71-7.53,6.81-12,14.91c-1.87-0.85-9.19,8.65-8.33,6.37c-1.82,4.17,0.27,4.22-0.39,10.87
		c-0.41,2.7-0.27-2.54-0.91-1.36c-0.41,0.45-0.57,0.06-0.63-0.5c0.06,0.73,0.11,3.41-0.29,1.71c-0.71,6.12,12.18,12.79,9.74,10.45
		c2.2-0.03,4.59,1.53,7.06,3.35l1.55-4.86l0.22-0.56c-3.35-1.46-6.18-2.48-6.64-2.66c-1.42,2.94-7.51-4.09-3.68-3.86
		c-4.15-5.13,0.69-12.38,8.01-20.48c-0.35,2.54,6.82-4.57,3.23-2.51c4.4-6.09,2.96-3.12,6.85-7.69l-2.22,1.78
		c1.4-2.37-1.24-0.75,1.39-3.14c4.16-4.09,7.95-7.13,11.08-10.25l3.36-10.07c-1.36-1.01-2.41-2.45-1.14-2.2
		c-4.38-4.73,1.07-10.12,7.34-15.3l1.65-4.54C377.31,593,370.03,598.04,369.18,601.9z"/>
	<path class="st3" d="M408.32,503.47C408.5,502.92,408.51,502.79,408.32,503.47L408.32,503.47z"/>
	<path class="st3" d="M408.32,503.47c-0.11,0.36-0.29,0.89-0.53,1.5c0.09-0.17,0.19-0.36,0.28-0.56
		C408.18,504,408.26,503.69,408.32,503.47z"/>
	<path class="st3" d="M365.29,565.5c1.88,3.08,0.1-6.08,4.24-8.85c-0.72,4.79,1.31-2.85,3.69-3.29c-1.66,2.18-2.71,3.22,0.07,1.57
		c8-5.75,2.73-14.03,9.96-18.36c0.78-3.16,14.72-19.42,17.07-23.09c1.46,1.32,2.93-6.27,2.54-1.08c0.97-1.79,4.26-8.59,2.61-3.34
		c0.98-0.99,1.79-2.73,2.32-4.09c-1.26,2.31-2.72,1.96-1.27,0.25c-3.61,2.65-5.26,6.96-6.81,8.78c-2.79-1.12-0.89,0.84-3.41,1.6
		c-0.25,1.02-2.06,2.91-1,0.71c-4.52,5.67-5.54,5.54-6.19,10.34c-4.5,0-2.22,1.73-4.45,2.33c-1.44,6.65-9.33,5.52-7.36,12.09
		c-1.09-0.65-2.38-3.45-1.51-0.57c2.71,2.45-0.18,5.15-0.79,8.21c-2.16,3.4-8.01,7.6-10.49,10.85c-0.09,1.38-0.14,11.05-1.57,5.24
		c-1.1,4.72,9.22,13.6,10.56,9.58c-0.98-1.32,4.54-0.59,1.16,0.39c3.24-0.04-1.16,1.17,2.66,0.53c1.03,3.5,3.78-0.29,6.66,2.93
		c0.93,0.15,1.71,0.33,2.35,0.54l1.33-3.67C378.07,572.77,366.96,571.56,365.29,565.5z"/>
	<path class="st3" d="M306.52,717.13c1.03-0.29,4.97,0.98,1.5,0.89c-3.55-0.4-1.72,1.36,2.17,1.26c3.77,1.52,25.3,1.23,15.76,3.08
		c1,1.29-4.45,1.72-5.28,0.51c-5.78,2.39-12.68,4.4-1.64-0.15c-1.72,0.37-5.86,1.29-6.64,2.05c0.58,2.58-36.25,2.35-40.8,7.38
		c2.47-4.02-1.66,1.09-5.49-0.45c-1.27-0.37,1.54-0.61,1.33-1c-3.68,0.34-1.64-0.57-4.12-0.75c-2.49,4.04-5.87,0.32-14.31,2.34
		c-0.44,12.36,4.71,6.07,7.1,7.38c17.74-2.49,26.81-2.32,40.88-3.29c-20.94,6.76-44.38,8.57-62.47,18.25
		c-8.11,1.47-10.21,5.96-17.38,8.14c3-1.02-9.38,0.95-6.61,3.05c-23.77,0.95-14.03,0.51,0.63,3.99c-9.65-1.64-21.93,6.22-29.26,6.15
		c-6.53-1.32-17.26,7.76-24.49,3.8c2.37,3.93-10.18,3.3-11.74,4.42l11.32,1.47c1.5,3.12,12.47-1.27,16.37,1.18
		c-5.45,1.43-7.11,3.64-11.42,5.52c-10.83,1.44-17.15,6.81-27.86,5.52c-2.98,1.79-3.02,4.41,1.1,3.48c1.11,0.77-3.46,0.87-0.43,1.59
		c0.94-0.18,1.34-0.32,1.73,0.56c0.7-1.32,2.65-0.1,0.14,0.24c3.97-0.23,5.79-2.42,8.19-1.21c1.43-0.95-1.75-0.87,0.73-1.83
		c0.9,1.02,4.97-0.85,2.46,0.81c2.79-1.14,5.14-1.94,7.28-2.6l2.07-2.25l21.33-7.33l7.04-2.17c6.16-2.89,8.44-4.78-4.72-3.31
		c0.91-0.63,2.29-0.98,3.6-1.16c-0.45-0.01-0.92-0.02-1.47-0.04c-6.19-0.19,3.5-0.01,3.24-2.88c8.61-1.05,7.11,0.09,14.55-3.42
		c-3.55,3.78,16.92-5.26,22.86-4.2c9.67-4.06,24.37-2.44,2.42-7.1c16.29-9.36,43.41-15.86,64.98-20.01l3.51-2.38l28.67-8l4.68-4.13
		c-0.09-0.23-0.17-0.36-0.24-0.34c-1.73-0.11-1.08-0.12-4.72-0.99c3.82-0.09,6.23-0.92,8.67-1.95l2.94-2.59l3.23-8.32
		c-11.13-0.98-21.15-2.16-22.05-3.25c9.67-5.74,19.39-11.02,29.18-17.04l2.81-8.83c-14.31,9.28-28.37,17.46-49.13,29.74
		C297.49,717.56,303.35,717.46,306.52,717.13z M165.64,780.54c0.06-0.09,0.33-0.16,0.7-0.21
		C166.11,780.4,165.88,780.47,165.64,780.54z M174.75,781.14c-2.03,0.9-0.82,0.76,0.18,0.15
		C176.41,783.1,168.09,781.47,174.75,781.14z M179.43,781.77c-8.06,1.16-1.32-0.99,1.91-1.72
		C182.03,780.94,176.31,781.55,179.43,781.77z M221.97,771.38c0.25-0.07,0.6-0.16,1.13-0.31
		C222.87,771.18,222.18,771.31,221.97,771.38z M223.11,765.74c0.19-0.13,0.38-0.23,0.61-0.13
		C223.51,765.65,223.31,765.8,223.11,765.74z M224.56,766.17l0.01-0.37C224.74,765.85,224.66,766.11,224.56,766.17z"/>
	<path class="st3" d="M184.59,782.69C190.73,782.83,187.89,782.23,184.59,782.69L184.59,782.69z"/>
	<path class="st3" d="M200.35,716.04c-0.51,0.27-0.95,0.15-1.46,0.39c-0.87,0.36-1.17,0.75-2.02,1.23c-0.7,0.47-1.5,0.44-2.14,0.66
		c-0.85,0.2-1.63,0.81-2.43,0.33c-1.75-0.61-2.96,0.61-4.49,1.72c-0.57,0.44-1.44,1.02-2.05,1.01c-0.67-0.04-0.86-0.9-2.3-0.71
		c-3.8,0.62-8.6,2.62-12.15,4.66c-0.85,0.48-1.77,0.95-2.7,1.26c-0.09,0.03-0.17,0.05-0.26,0.08l-1.53,1.5
		c1.24,0.12,2.49,0.27,3.82-0.13c1.57-0.26,2.85-1.59,4.05-1.98c0.62-0.23,1.31-0.16,1.94-0.24c0.97-0.16,1.78-0.88,2.83-1.17
		c3.32-1.14,6.98-0.89,10.23-2.42c2.8-1.5,6.91-2.08,10.18-3.54c1.42-0.49,1.97,0.02,3.68-0.84c1.96-1.05,4.95-2.63,7.61-2.46
		c1.29,0.02,1.26-0.4,2.65-0.78c0.23-0.06,0.53-0.11,0.74-0.17c0.35-0.09,0.68-0.25,0.06-0.36c-1.73-0.18-4.35-0.55-5.55-1.72
		c-1.97-1.15-5.11-1.15-7.56-0.98c-5.59,0.6-10.86,0.08-15.49-0.8l-2.67,1.41l-1.47,1.44c3.72,0.23,7.35,0.35,11.3,1.27
		c1.76,0.14,4.53-0.02,6.06,0.27c0.86,0.15,1.26,0.54,1.31,0.78C200.56,715.87,200.48,715.96,200.35,716.04z M209.37,714.22
		c1.12,0.31-0.08,0.22-0.55,0.5C208.64,713.82,208.64,713.88,209.37,714.22z"/>
	<path class="st3" d="M278.94,592.27c-1.6-3.13-5.91-0.5-8.62-0.65c-2.47,0.1-5.02,0.26-7.62,0.45l-0.9,6.99
		c0.52,0.05,1.06,0.04,1.63-0.15c1.47-0.24,2.91-1.65,4.37-1.01c1.69,0.93,3.57-0.11,5.46-0.21
		C277.57,597.41,280.82,597.89,278.94,592.27z M268.84,593.39c0.11-0.15-0.24-0.23-0.65-0.32
		C268.03,592.54,270.1,592.87,268.84,593.39z"/>
	<path class="st3" d="M268.6,653.95c4.23-1.3,18.18-11.88,15.51-12.27l-0.09-0.02c-0.89-0.32-5.09-0.14-6.01-1.83
		c-0.06-0.26,0-0.47,0.04-0.7c0-0.84-1.36-1.04-2.06-1.31c-0.96-0.27-2.01-0.34-2.26-0.16c-0.27,0.14-0.17,0.43-0.5,0.43
		c-1.17-0.19-2.38-1.09-3.52-1.53c-3.13-1.29-7.72-2.25-11.66-3.63l-0.04,0.41l1.57,7.69c1.21,0.63,2.5,1.18,3.91,1.5
		c1.2,0.52,6.72,1.2,6.25,2.33c-2.5,2.29-5.19,4.55-7.99,6.77l1.21,5.92c0.19-0.19,0.15-0.09,0.03,0.13l0.16,0.77
		c0.14-0.22,0.27-0.45,0.39-0.63C264.4,655.76,266.47,654.52,268.6,653.95z"/>
	<path class="st3" d="M275.32,598.07c0.09-0.08,0.25-0.58,0.13-0.33C274.72,597.73,274.19,598.27,275.32,598.07z"/>
	<path class="st3" d="M270.23,525.01c-5.25,1.99-11.34,2.59-16.1,6.3c-0.88,0.65-1.8,1.26-2.84,1.64c-1.03,0.4-2.2,0.58-3.31,0.73
		c-1.18,0.16-2.36,0.4-3.52,0.66l2.86,6.02c3.78-1.17,7.58-2.42,11.3-4.09c5.76-2.72,12.48-3.96,17.91-5.81
		c1.29-0.47,2.37-1.11,3.52-1.78c5.65-3.46,14.83-2.28,23.77-0.06c2.24,0.58,3.63,0.77,0.92-1c-8.26-5.4-19.85-11.64-25.18-10.15
		c-0.95,0.11-2.54-0.09-3.73-0.28c-8.88-1.42-20.56-1.2-24.41,0.26c-1.83,0.46-2.84-0.86-4.97-1.08c-1.67-0.34-3.75-0.61-5.96-0.8
		l1.35,7.77c0.07-0.01,0.14-0.01,0.22-0.02c1.73-0.22,3.32-0.21,4.98,0.13c5.46,1.13,15.87,0.35,21.7,0.29
		C271.74,523.68,273.19,523.86,270.23,525.01z"/>
	<path class="st3" d="M334.9,542.81c-5.42,1.22-24.86,6.63-30.24,7.63l-0.11,0.01c-2.41,0.14-5.24,0.27-7.78,0.53
		c-6.42,0.56-8.68,1.73-14.78,1.02c-1.29-0.64,2.93-0.84,3.27-1c0.51-0.08,1.04-0.47,0.44-0.79c-0.99-0.39-1.97-0.38-3.07-0.46
		c-1.23-0.04-2.42-0.12-3.52-0.08c-2.22,0.03-3.82,1.19-6.15,1.25c-6.07-0.46-13.68-0.5-20.89-0.52l2.97,6.26
		c7.68-0.06,16.33-1.89,20.77-0.83c1.67,0.34,3.65,0.53,5.32,0.77c0.6,0.1,0.93,0.22,1.03,0.36c0.48,0.65-3.9,1.72-9.8,2.95
		c-4.57,0.96-10.06,2.01-14.9,3.05l1.73,5.04c0.61-0.06,1.23-0.11,1.84-0.12c1.98,0,3.91-0.41,5.71-1.22
		c5.59-2.3,11.05-2.19,16.49-5.09c0.45-0.09,0.99-0.34,1.21,0.06c0.17,0.27-0.02,0.82,0.46,0.71c1.14-0.43,3.06-1.75,4.62-1.55
		c11.22,0.07,30.62-9.75,45.5-17.78C335.74,542.61,335.32,542.71,334.9,542.81z"/>
	<path class="st3" d="M258.11,507.09c7.81-4.95,27.45-7.72,38.92-14.08c2.38-1.48,3.78-3.06,3.56-4.78
		c-0.23-2.46-4.76-5.36-7.52-5.37c-12.14,0.27-28.25-1.7-42.06-2.12c-3.07,0.02-6.58,0.36-10.15,0.75l-1.5,6.74
		c1.44,0.05,3.2,0.09,4.3-0.05c5.27-0.78,16.11-1.5,20.12-1.34c1.1,0.04,1.7,0.13,1.53,0.3c-0.05,0.24-3.11,0.73-4.12,0.95
		c-0.07,0.03-0.34,0.09-0.12,0.12c0.44,0.08,3.72-0.12,4.55-0.25c0.26-0.04,0.34-0.06,0.34-0.1c0-0.03-0.07-0.07-0.09-0.13
		c0.21-0.46,1.41-0.46,1.97-0.6c4.67-0.66,10.71,0.46,14.56,1.82c0.47,0.19,1.3,0.41,1.17,0.92c-0.1,0.26-0.6,0.63-0.88,0.92
		c-0.69,0.61-0.95,1.52-1.62,1.95c-0.53,0.33-1.15,0.44-1.81,0.5c-8.76,0.09-24.39,7.34-40.46,12.58l1.03,5.95
		C245.59,510.37,252.45,509.19,258.11,507.09z"/>
	<path class="st3" d="M301.31,442.45c3.11,0.13,8.68-0.9,10.42-1.01c-0.01,0.03-0.43,0.16-0.54,0.29c-0.17,0.19-0.17,0.24-0.3,0.3
		c-0.2,0.12-0.61,0.2-0.44,0.31c0.07,0.05,0.19,0.12,0.25,0.19c0.06,0.15-0.12,0.18-0.32,0.31c-0.18,0.13-0.7,0.28-0.65,0.51
		c0.25,0.37,2.93,0.29,2.11,0.88c-0.38,0.26-0.83,0.52-0.2,0.76c0.43,0.25,1.37,0.33,0.11,0.54c-0.07,0.01-0.66,0.12-0.96,0.19
		c-0.43,0.11-0.39,0.11-0.56,0.17c-0.5,0.24-0.3,0.29-0.49,0.76c-0.07,0.12-0.25,0.25-0.61,0.38c-2.82,0.81-5.88,0.9-8.86,1.65
		c-10.57,2.41-21.19,3.27-29.36,4.43c-5.64,0.8-10.48,1.83-14.31,3.75c-1.34,0.7-2.63,0.98-4.21,1.08c-0.54,0.04-1.13,0.07-1.7,0.14
		l-2.79,3.86c0.39,1.79,1.81,2.77,3.87,2.21c2.65-0.5,5.34-2.63,8.19-2.22c0.26,0.09,0.77,0.11,0.78,0.46
		c-0.07,0.62-2.04,0.9-0.92,1.07c1.23,0.13,2.92,0.34,4.09,0.25c0.64-0.25,1.24-0.11,2.03-0.13c4.8,0.23,9.57-1.17,12.79-0.91
		c0.87,0.17,0.05,0.62-0.37,0.76c-1.67,0.65-4.79,0.96-7.81,0.67c-3.4-0.15-7.78-0.3-10.6,1.56c-0.12,0.08-0.26,0.28-0.08,0.32
		c0.55,0.2,3.2-0.81,3.76-0.77c0.06,0.01,0.14,0-0.05,0.15c-0.25,0.18-0.72,0.41-0.99,0.6c-0.54,0.38,1.96-0.35,2.03-0.28
		c-6.44,2.16-14.41,1.65-21.07,3.77l-1.44,6.48c25.21-5.72,37.39-7.18,68.26-15.41c1.6-0.45,2.88-0.86,0.71-0.93
		c-14.46,0.07-20.59-0.97-34.93-0.73c-1.54-0.09-1.36-0.61-0.38-1.19c7.22-6.1,47.99-5.98,48.1-13.61c-0.52-0.9-3.08-1.72-5.07-2.22
		c-3.98-1.06-7.82-1.39-11.76-2.35c-1.37-0.35-0.78-0.62-1.75-0.82c-0.3-0.05-0.57-0.1-0.91-0.13c-1.31-0.11-3.02-0.33-4.28-0.15
		c-0.32,0.11-0.35,0.07-0.6,0.32c-0.29,0.36-0.28,0.83-1.35,0.55c-0.85-0.21-1.73-0.61-2.58-0.76c-1.91-0.24-4.62,0.45-6.73,0.25
		c-0.92-0.09-2.06,0-2.63-0.61c-0.14-0.14-0.56-0.16-0.79-0.16c-0.83-0.01-1.88,0.17-2.69,0.08c-0.95-0.09-0.61-0.67-1.68-1.08
		c-4.16-1.34-8.32,0-13.32,0.05c-0.5-0.03-1.1,0.01-1.1-0.53c-0.23-0.79-0.99-1.22-1.97-1.46l-2.32,3.01
		c11.11,1.98,28.87,1.51,36.03,3.85C299.37,442.22,300.07,442.4,301.31,442.45z M257.82,460.41c0.34-0.01,0.57,0.01,0.72,0.05
		C258.44,460.45,257.66,460.48,257.82,460.41z M259.87,459.84c-0.01-0.05,0.02-0.09,0.11-0.14
		C259.93,459.75,259.9,459.8,259.87,459.84z M294.99,459.29c0.11,0.53-0.18,0.38-0.61,0.34
		C294.4,459.46,294.68,459.38,294.99,459.29z M265.83,458.76c0.96-0.17,2.41-1,3.32-0.35C268.18,458.57,266.82,458.57,265.83,458.76
		z M273.78,457.53c-0.67,0.32-2.11,0.76-2.6,0.12l-0.09-0.04c-0.41,0.01-0.52,0.05-0.77,0.07c-1.8,0.19,1.98-0.66,3.53-0.9
		c0.08,0,0.25,0,0.33,0C274.58,456.89,274.35,457.28,273.78,457.53z"/>
	<path class="st3" d="M305.26,403.25c0.08,0.12,0.74-0.05,0.95-0.15c0.22-0.09,0.97-0.4,1.06-0.87c-0.2-0.04-1.72,0.89-1.98,0.98
		L305.26,403.25z"/>
	<path class="st3" d="M354.68,379.23c0.07,0.07,0.14,0.13,0.21,0.15H355c0.23-0.07,0.49-0.48,0.91-0.9
		c0.26-0.28,0.62-0.64,0.81-0.86c-0.05,0.03-0.1,0.06-0.15,0.1C355.9,378.19,355.28,378.7,354.68,379.23z"/>
	<path class="st3" d="M408.08,336.48c-0.03,0.01-0.04,0.01-0.07,0.02c-0.27,0.08-0.63,0.22-0.93,0.34
		c-0.29,0.12-0.54,0.21-0.79,0.28c-0.59,0.79-0.9,1.38,0.8,0.11C407.42,336.99,407.75,336.74,408.08,336.48z"/>
	<path class="st3" d="M284.77,418.06c6.07-0.83,11.46-2.34,16.97-3.2c1.74-0.12-3.03,1.73-3.77,1.97
		c-3.77,1.56-11.09,3.74-12.53,6.89c-0.87,3.82,7.27,3.7,9.34,4.14c9.83,1.09,20.65-0.83,30.62-1.39
		c5.45-0.42,11.44-1.84,16.84-2.83c4.11-0.68,7.23-2.06,11.49-3.16c12.75-3.4,26.37-5.64,38.93-10.07c2.33-0.99,4.89-2.54,6.7-3.29
		c2.52-0.93,5.1-1.22,7.95-2.48c2.08-0.83,4.15-1.63,6.23-2.44l3.11-3.87l6.96-6.96c-5.21,2.43-10.36,5.2-15.55,7.19
		c-1.49,0.6-3.7,1.39-5.34,1.46c-1.11-0.1-1.39-0.39-2.99,0.1c-4.48,1.27-8.7,3.56-12.87,5.51c-2.28,1-4.9,1.47-7.29,2.08
		c-2.45,0.58-5.27,1.76-7.5,2.57c-0.52,0.16-0.65,0.14-0.37-0.06c0.78-0.54,2.13-1.18,3-1.73c0.74-0.46,0.27-0.4-0.82-0.04
		c-2.29,0.65-3.73,2.07-5.96,2.88c-3.5,1.39-6.58,1.41-10.94,2.03c-5.27,0.75-10.55,1.61-15.74,2.68
		c-5.34,1.25-11.45,1.18-16.51,3.17c-2.95,1.6-7.32,2.52-10.2,1.15c-1.15-0.45-2.58-0.53-3.25-0.55c-0.96-0.07-1.7-0.2-2.8-0.11
		c-3.61,0.28,1.32-1.25,2.13-1.63c5.55-2.37,11.26-3.56,16.82-6.07c2.58-1.18,4.96-2.7,7.61-3.68c3.08-1.19,6.84-1.42,10.76-2.49
		c1.7-0.51,3.53-0.91,4.93-2.01c2.2-1.73,1.83-5.93-0.76-7.23c-1.66-0.91-4.07,0.15-6.7,0.97c-1.74,0.57-3.5,1.13-5.26,1.58
		c-6.98,1.5-13.1,2.11-20.71,3.82c-3.79,0.58-7.94,2.21-11.28,3.09c-2.14,0.55-4.37,0.35-6.55,0.86c-1.79,0.39-4.27,1.27-5.65,1.64
		c-0.76,0.21-1.31,0.31-1.54,0.23c-0.18-0.06-0.19-0.26,0.05-0.51c1.77-1.38,3.81-2.05,6.24-3.02c2.66-0.95,5.88-1.71,8.37-3.27
		c0.42-0.27,0.62-0.48,0.58-0.59c-0.12-0.12-0.26-0.07-0.5-0.05c-0.12,0.01-0.41,0.07-0.43,0.07c-0.52,0.1-1.19,0.28-1.62,0.4
		c-0.37,0.1-0.32-0.03,0.16-0.4c2.33-1.59,5.32-2.63,8.09-3.22c5.09-0.67,9.78-3.96,14.86-4.15c1.42,0.06,2.3-0.67,3.59-1.17
		c5.86-2.05,11.31-4.41,16.59-8.11c2.53-1.68,4.29-3.71,6.38-5.54c-0.18-0.2-0.32-0.55-0.17-0.71c0.08-0.12,0.24-0.13,0.29-0.04
		c0.06,0.09-0.02,0.24,0.11,0.2c0.34-0.45,1.29-1.18,1.94-1.27c0.03,0.01-0.03,0.09-0.13,0.21c1.8-1.22,3.78-2.34,5.63-3.43
		c6.19-4.31,14.22-6.11,21.26-8.57c3.66-1.3,7.15-2.7,10.79-3.64c4.56-1.38,6.38-0.92,11.16-2.08c3.47-0.68,6.43-1.98,9.77-1.71
		c0.77,0.12,1.03,0.35,1.56,0.6c0.48,0.31-0.06,1.04-0.96,1.84c-1.58,1.53-3.46,3.38-4.84,5.4c-1.37,2.08-2.4,5.14-4.39,6.62
		c-0.3,0.21-0.53,0.25-0.73,0.2c-1.17-0.7-1.89,0.33-3.52,1.61c-2.53,2.32-5.49,4.76-8.38,7.32c-1.45,1.28-2.56,2.76-4.53,3.46
		c-1.02,0.4-2.58,0.5-3.38,0.66c-2.83,0.66,4.9,4.92,5.89,4.72c2.56,0.22,6.32-0.41,8.52-0.56c0.79-0.09,1.51-0.19,2.2-0.61
		c1.57-1.05,3.7-2.31,5.59-2.92c0.66-0.21,1.14-0.25,1.6-0.03c0.33,0.22,0.63,0.53,1.06,0.53c2.14-0.15,4.47-1.32,6.58-2.03
		c1.5-0.62,3.05-1.14,4.55-1.91c2.2-1.16,3.49-2.14,6.1-2.99c1-0.33,2.18-0.63,3.41-0.89v-5.71c-1.27,0.45-2.48,0.87-3.55,1.23
		c-1.85,0.67-3.86,1.21-5.38,1.89c-1.39,0.71-2.45,1.92-3.95,2.5c-2.4,1.1-5.01,0.76-7.31,0.98c-2.04,0.39-4.04,1.18-6.03,1.81
		c-0.75,0.24-2.1,0.71-2.76,0.53c-0.45-0.12-0.16-0.79,0.1-1.14c1.1-1.58,3.05-3.05,4.2-4.08c0.96-0.76,1.09-1.32,1.35-2.33
		c1.58-3.23,5.07-5.81,7.53-8.33c3.52-3.12,6.23-7.79,8.99-11.62c0.68-0.95,2.61-3.42,1.12-3.5c-4.26,0.22-9.25,2.05-13.62,2.87
		c-1.67,0.35-2.74,0.1-4.29,0.25c-1.79,0.26-3.42,0.9-5.9,1.75c-4.74,1.61-9.26,3.48-13.92,5.05c-4.35,1.14-7.8,1.47-12.26,3.58
		c-1.51,0.62-5.84,2.76-2.87-0.53c2.69-2.96,6.5-6.67,9.66-8.75c1.78-1.18,3.33-2.61,4.2-4.32c0.46-0.78,0.66-1.32,1.4-1.93
		c2.24-1.65,4.19-3.37,6.17-5.52c2.34-2.2,4.39-3.42,6.48-5.33c0.77-0.65,1.09-0.67,1.84-0.76c1.37-0.4,2.2-0.31,3.44-0.69
		c0.33-0.44,0.74-0.95,0.93-1.23c0.38-0.59,0.85-1.69,1.5-2.48c1.73-2.05,4.67-4.65,6.8-6.58l0.04-0.02
		c0.09-0.03,0.09,0.04-0.01,0.22c-0.3,0.55-1.65,2.04-1.68,2.33c-0.08,0.28,0.14,0.32-0.03,0.69c-1.26,2.59-3.48,4.67-5.77,6.44
		c0.26-0.08,0.42-0.09,0.47-0.02c0.04,0.05,0.04,0.13,0,0.22c-0.36,0.54-1.41,1.09-1.97,1.68c-0.4,0.32-0.58,1.34,0.09,1.05
		c0.42-0.16,1.05-0.83,1.68-1.59c1.12-1.23,1.99-2.47,3.27-3.37c2.14-1.26,4.18-2.65,6.13-4.26c0.46-0.37,0.92-0.77,1.37-1.2
		c-0.02,0.46-0.04,0.93-0.04,1.38c0.48,8.64,6.64,7.5,12.58,6.45v-4.53c-1.12,0.16-2.24,0.31-3.35,0.48
		c-2.38-0.66-3.13-5.17-2.97-11.18c0.31-0.44,0.6-0.88,0.88-1.3c1.16-1.41,3.3-2.91,3.19-4.88c-0.13-0.9-1.21-1.34-2.02-1.18
		c-0.74,0.16-1.27,0.61-1.66,1.23c1.15-11.72,4.35-25.77,5.83-29.89c1.47-0.58,4.66-1.63,6.09-1.59
		c-19.16,8.35,28.79-6.89,26.41-3.45c-4.52,2.91-19.87,7.94-5.45,5.33c-10.33,3.36,11.61,0.3,15.45,0.34
		c-13.89,7.95-18.83,8.1-40.53,16.57c-2.84,1.96,33.11,1.93,49.59,3.09l0.55-2.53v-3.76c-22.42,0.15-24.37,0.24,0-10.77v-2.52v-6.65
		c-2.31,0.02-2.8-0.65,0.04-2.47v-6.44l-0.75-1.11c-0.87,0.24-1.78,0.5-2.75,0.75c-3.96,0.31-24.87,6.78-15.84,3.35
		c-1.64,0.42-5.37,2.06-6.97,2.19c3.64-1.55,2.88-1.84,0.11-2.29c46.23-22.31-15.3,0.77,19.2-22.1v-5.52
		c-2.71,1.94-5.21,4.07-6.13,5.1c-2.06-0.74,0.78-7.34,4.89-14.84l-1.15-2.87c-2.59,4.85-5.1,9.6-7.69,13.9
		c-3.95,9.17-6.9,15.37-16.53,18.42c-1.43,0.82-2.05,1.52,0.17,1.85c16.4,2.01-13.55,7.24-12.58,13.13
		c-17.03,13.01,3.33-32.2-10.53-15.93c-2.42,8.69,1.68,21.9-9.1,25.14c-0.55,1.02,3.72-0.11,4.42-0.17
		c2.17,8.44-1.04,20.7-2.59,31.7c-1.53,1.1-3.17,2.08-4.76,3.08c-2.25,1.34-4.09,3.05-6.14,4.81c-4.93,4.85-10.74,8.49-15.95,13.06
		c-1.76,1.65-4.09,3.66-5.68,4.7c-3.74,2.38-9.39,7.38-11.11,11.06c-0.32,0.53-0.43,0.93-0.88,1.32c-0.54,0.47-1.33,0.48-1.98,0.8
		c-2.77,1.25-5.51,3.89-7.99,5.88c-3.37,2.23-8.35,7.2-11.11,9.06c-0.7,0.32-1.11-0.15-1.88,0.26c-1.73,0.79-3.89,2.44-5.49,2.88
		c-0.26,0,0.01-0.21,0.12-0.34c0.56-0.65,1.78-1.26,2.04-2.04c0.04-0.26-0.69-0.16-0.86-0.11c-2.79,0.62-6.17,2.95-8.73,4.78
		c-3.13,2.43-7.11,3.09-10.55,4.85c-5.54,3.37-10.4,5.3-16.43,7.27c-7.02,2.19-15.44,3.26-22.49,6.05
		c-4.19,1.46-9.05,1.64-13.44,2.63c-1.57,0.39-3.07,0.86-4.54,1.32v1.39v3.66c0.13-0.03,0.25-0.06,0.38-0.1
		c0.94-0.2,2.84-0.81,3.6-0.77c-1.3,0.62-2.64,1.23-3.99,1.84v8.57l4.18,2.69C278.99,419.28,281.83,418.57,284.77,418.06z
		 M305.59,413.4l0.07-0.04c1.39-0.37,3.33-0.89,4.73-1.24c0.12-0.01,0.17,0.01,0.15,0.05c-1.13,0.75-2.98,1.11-4.42,1.31
		C306.03,413.48,305.47,413.54,305.59,413.4z M408.88,336.1c0.14-0.18,0.26-0.26,0.36-0.3L408.88,336.1z M470.04,253
		c-0.36,0.19-1.66,1.18-1.88,0.9C468.07,253.25,470.42,251.86,470.04,253z M462.35,262.8c-0.11,0.01-0.22,0.03-0.33,0.04
		C462.11,262.71,462.23,262.72,462.35,262.8z M458.43,266.74c0,0.02,0.17,0.38,0.12,0.39C458.55,267.14,458.34,266.72,458.43,266.74
		z M425.93,287.55c-0.02,0.17-1.3,0.4-1.42,0.39C424.83,287.86,425.62,287.54,425.93,287.55z M422.26,289.1
		c1.19-0.38,2.82-1.12,3.69-1.02C425.43,288.36,423.37,288.83,422.26,289.1z M418.78,326.97c1.23-0.9-3.48,6.18-3.71,4.78
		c-0.04-0.5,0.48-1.4-0.51-0.68c-1.71,1.08-0.2-1.49,0.3-1.88c1.09-1,2.57-1.42,3.82-2.17L418.78,326.97z M365.98,367.59H366
		c-0.42,0.5-1.79,1.93-2.21,2.34C364.21,369.48,365.46,367.95,365.98,367.59z M352.01,375.89c-0.12,0.17-0.26,0.33-0.39,0.49
		C351.52,376.26,351.71,376.09,352.01,375.89z M281.18,411.01c2-0.76,3.63-0.74,6.02-1.87c2.36-1,4.58-2.39,6.9-2.98
		c2.89-0.65-0.17,0.84-1.16,1.15c-0.87,0.34-1.79,0.66-2.64,1c-1.87,0.7-0.59,0.92-1.46,1.38c-1.5,0.64-3.28,0.89-4.87,1.36
		c-1.11,0.23-3.03,0.97-3.85,0.76l-0.02-0.03C280.04,411.61,280.54,411.27,281.18,411.01z M274.36,413.13
		c1.27-0.49,3.97-1.17,5.29-1.04c-1.53,0.52-3.69,0.91-5.31,1.06L274.36,413.13z"/>
	<path class="st3" d="M471.29,329.36c-3.7-0.07-7.39-0.02-11.07,0.13l8.46,3.84l8.92-6.24c-3.27,0.3-6.44,0.78-7.02,1.26
		C471.98,328.72,474.2,328.59,471.29,329.36z"/>
	<path class="st3" d="M462.64,229.65c0.13-0.09,0.24-0.18,0.32-0.26C462.72,229.11,462.48,229.35,462.64,229.65z"/>
	<path class="st3" d="M470.85,224.8l-0.78-1.94c-2.76,2.15-5.49,4.02-8.21,5.39C462.83,230.42,466.52,228.2,470.85,224.8z"/>
	<path class="st3" d="M431.67,318.25v-0.42c-0.3,0.04-0.62,0.07-0.92,0.11C431.04,318.05,431.36,318.15,431.67,318.25z"/>
	<path class="st3" d="M471.81,327.61c0.45-0.11,1.2-0.23,1.58-0.28C473.4,326.93,471.85,327.02,471.81,327.61z"/>
	<path class="st3" d="M482.05,310.74c-15.02,4.45-33.13,5.14-47.73,6.77l6.25,2.78c11.1,1.81,26.02,2.43,38.7,3.24L482.05,310.74z"
		/>
	<path class="st3" d="M401.35,176.14c-0.45-0.03-0.92-0.09-1.41-0.15C400.09,176.12,400.84,176.32,401.35,176.14z"/>
	<path class="st3" d="M299.94,149.22c0.18,0.1,0.38,0.25,0.5,0.37c0.37,0.38-1.17-0.19-0.7,0.09c15.81,7.53,33.25,13.07,50.96,14.05
		c0.51,0.36-0.39,1.09-0.18,1.21c2.56-0.34,4.42,0.41,7.02,0.86c1.97-0.04,4.47,1,5.67,2.23c0.83-0.46,2.6-1.45,3.23-0.26
		c-12.69,2.8-27.36,0.25-40.65,0.74c6.82,9.96,29.77,14.57,43.41,15.65c11.54,1.86-20.74,5.04-23.98,5.49
		c-4.95,1.56,17.52,8.85,20.07,10.42c-10.09,2.26-22.34,4.6-32.16,7.87c18.25,5.16,40.93,9.3,57.52,12.94
		c-2.7,3.01-5.98,0.17-9.15,0.95c-14.67,3.52-9.33,13.66,2.74,15.67c3.62,2.98,7.63,2.1,11.69,2.51c0.88,0.34,2.8,1.76,2.88,0.03
		c2.07-0.82,5.56,2.25,6.44,3.55c-2.9,0.92-5.76,3.15-8.65,4.37c-5.55,5.16-46.87,18.17-22,25.82c3.66,0.45,1.61,2.54-0.73,3.62
		c-8.63,4.23-19.18,8.04-6.43,15.61c2.47-2.2,3.12,3.27,6.22,2.88c1.2,0.3,2.11,1.13,3.54,1.67c2.93,1.09-0.21,0.68,0.91,1.04
		c0.82,0.27,3.78,0.96,4.15,1.21c-1.25-0.23-3.42-0.05-0.76,1.24c0.9,0.97-3.25,2.04-4.14,1.56c-7.7-0.89-17.89,3.91-24.94,7.39
		c-3.89,3.4-9.05,2.33-13.5,4.91c-1.15-1.23-3.57,1.66-4.53,1.58c-0.74-1.18-3.77,1.6-4.36,1.97c-0.63,0.94,2.38-1.81,2.92-0.98
		c0.49,1.96,5.14-1.94,6.58-2.27c5.98-0.95,13.87-1.4,18.46-6.01c5.08,0.19,9.49-2.76,14.49-3.58c5.77-1.66,12.51-0.75,17.79-4.2
		c-7.74-4.22-17.44-7.1-23.24-13.69c-1.19-0.44-0.99-2.01-1.98-2.22c-0.89-0.12-2.3-0.7-0.58-1.07c3.67,0.58,6.44-1.75,9.83-2.92
		c2.65-1.96,6.46-3.11,8.42-6.08c0.67-0.76,3.63-1.07,1.21-1.77c-12.51-2.03-19.52-8.77-4.15-12.28c2.94-1.37,5.99-2.38,8.3-4.51
		c6.27-0.43,10.38-6.21,16.16-8.04c1.46-0.69-0.9,0.06-1.19,0.12c-1.46,0.31,0.35-0.66,0.74-0.8c5.83-2.03,11.96-4.35,2.94-8.2
		c-2.41-1.91-5.92-0.06-7.87-2.59c-0.33-1.11,2.19-0.34,2.67-0.31c-4.49-4.75-19.92,0.88-20.79-7.66c-1.6-0.81,0.61-2.82,1-1.41
		c0.37,2.4,3.55-0.3,4.86-0.73c4-0.11,6.73-3.56,10.69-3.72c12.25,0.04,25.25-2.04,38.83-4.53c-8.61-3-19.55,1.81-27.33,3.37
		c0.01-0.36,2.06-0.73,1.65-1.38c4.2-2.03,9.39-2.8,12.76-5.73c-4.26,0.67-8.42,0.94-12.66,0.12c-2.36,0.94-4.12,0.93-6.42-0.33
		c-5.21-0.86-11.7,0.55-16.64-1.95c-4.89-0.53-10.04-0.82-14.71-1.26c0.05-2.45-6.38-1.17-8.68-1.61c-9.03-1.42-10.82-2-0.56-4.41
		c0.06,2.1,3.16,0.76,5.28,0.56c11.87-1.98,23.38-3.03,35.4-0.45c4,1.21,4.25-10.79-0.26-9.29c-2.15-0.06-3.76,1.33-5.59,1.67
		c-3.43-1.35-7-0.36-10.73-0.17c-7.58-0.19-14.1-4.45-21.22-5.72c-3.27-1.57,8.03,0.18,9.13,0.67c8.7-1.29,26.73-4.45,38.44-2.78
		c4.01,0.41,9.36,1.38,14.18,1.33l-12.49-8.32l-1.08-0.61c-17.64-0.69-35.12-2.92-52.41-6.27c-12.65-1.43,2.1-3.23,6.43-2.49
		c2.95-0.34,30.02,0.36,17.93,0.68c-2.93,2.9,5.91,0.18,7.58,0.59c1.13-0.13,3.62,0.44,5.83,0.76c-0.02-0.02-0.04-0.04-0.03-0.05
		c0.47-0.01,1.02-0.03,1.75-0.08c0.03-0.03,0.09-0.07,0.12-0.1c-0.07,0.2-0.23,0.32-0.42,0.39c0.59,0.04,1.12,0.05,1.56-0.02
		l-2.42-1.37c-0.07-0.02-0.1-0.03-0.09-0.05l-7.73-4.37l-4.03-4.61c-4.29-0.55-8.69-1.06-13.48-1.67
		c-20.21-4.13-40.19-7.48-59.85-12.56c-3.21-1.38-6.41-2.39-9.8-4.18c-1.37-2.62-3.81-4.41-6.83-5c-1.28-0.3-0.33,0.91-1.01,1.19
		C292.68,144.06,297.4,148.54,299.94,149.22z M415.56,217.61c-1.57,0.02-4.09,0.05-5.47,0.07
		C408.01,216.75,414.49,217.51,415.56,217.61z M407.9,216.36c1.2,0.02,4.82,0.19,5.34,0.24C412.1,216.88,405.13,217.38,407.9,216.36
		z M408.64,221.73c-0.83,0.25-1.59,0.47-2.13,0.5C407.56,221.63,407.68,221.56,408.64,221.73z M390.21,170.77
		c0.25-0.14-0.43-0.27-1.18-0.43C389.7,170.27,392.01,170.42,390.21,170.77z M387.04,169.03l-0.02,0.02
		C383.3,169.13,384.07,168.3,387.04,169.03z M371.77,168.72c-0.16,0.08-0.39,0.11-0.55,0.04
		C371.4,168.74,371.59,168.73,371.77,168.72z M370.11,168.87c-0.03,0.1-0.12,0.18-0.36,0.25c-0.47,0.01-0.82-0.04-1.06-0.13
		C369.18,168.96,369.66,168.91,370.11,168.87z"/>
	<path class="st3" d="M242.63,295.63c-0.66,0.69-4.34,0.49-5.97,0.86c-1.49,0.24-2.49,0.78-3.96,1c-1.37,0.28-3.04,0.42-4.2,1.25
		c-0.26,0.23-0.42,0.5-0.52,0.78l10.39,8.2c0.29-0.11,0.57-0.22,0.83-0.33c0.61-0.37,0.42-1.27,0.34-1.96
		c-0.81-3.18,3.41-3.29,5.41-3.82c4.18-0.09,6.34-2.32,5.97-6.63c-0.32-1.8-1.62-3.52-2.09-5.35c-0.77-3.47-1.47-6.81-2.69-10.16
		c-0.61-1.95-0.62-3.88-0.7-5.62c-0.24-1.38-1.22-2.14-1.47-3.5c-0.21-0.74-0.07-1.57-0.08-2.34c-0.08-1.44-0.54-2.54-1.03-3.55
		c-1.76-2.36-2.66-4.31-2.85-7.25c0-0.55,0-0.83,0.42-1.05c0.74-0.36,0.53-0.87,0.39-1.9c-0.13-0.37-0.22-0.7-0.33-0.97
		c0.16-0.07,0.27-0.18,0.12-0.38c-0.08-0.02-0.2-0.01-0.31-0.01c0.06,0.1,0.12,0.22,0.17,0.35c-0.01,0-0.02,0.01-0.02,0.02
		c-0.04-0.11-0.09-0.24-0.18-0.4c-0.03,0-0.07-0.01-0.11-0.01c0.05,0,0.08,0.01,0.13,0c-0.09-0.14-0.2-0.27-0.34-0.37
		c-0.22-0.11-0.57-0.09-0.79-0.18c-0.14-0.06-0.18-0.17-0.18-0.36c0.06-0.93,0.26-2.83-0.2-3.84c-0.26-0.76-0.8-1.46-0.9-2.26
		c-0.03-0.54,0-1.38-0.14-1.92c-0.24-1.52-0.93-2.95-1.36-4.44c-0.48-2.27-0.84-5.29-1.2-7.79c-0.36-2.32-0.79-3.74-1.06-6
		c-0.05-0.89-0.36-1.64-0.49-2.46c-0.05-0.62,0.2-1.35,0.14-1.97c-0.03-0.63-0.25-1.1-0.87-1.35l-0.27,5.39l-3.38,3.81
		c0.04,0.5,0.1,1,0.12,1.45c0.04,0.82,0.6,1.73,0.83,2.41c0.15,0.67,0.15,0.94,0.19,1.4c-0.08,0.35-0.18,0.64-0.03,1.14
		c0.05,0.18,0.09,0.54,0.02,0.77c-0.17,0.6-0.23,1.31,0,1.94c0.32,0.48,0.69,1.87,1.21,2.59c0.51,0.63,1.04,1.15,1.35,1.5
		c0.35,0.35,0.49,0.66,0.33,1.02c-0.14,0.31-0.28,0.52-0.63,0.59c-0.25,0.08-0.2,0.04-0.48,0.14c-0.14,0.06-0.28,0.14-0.33,0.28
		c0,1.12,0.58,2.35,0.96,3.42c0.13,1.03,0.67,2.24,0.62,2.95c-0.01,0.53,0.09,0.85,0.17,1.35c0.64,1.89,0.72,5.54,1.03,7.97
		c0.58,2.38,1.86,4.48,2.43,6.93c0.89,3.27,1.18,6.68,1.67,10c0.03,1.13,0.62,1.87,0.67,2.99c0.23,1.45,0.25,2.93,0.49,4.25
		c0.16,1.63,0.5,3.83,1.71,5.04c0.22,0.29,0.48,0.42,0.44,0.77c-0.05,0.21-0.28,0.52-0.38,0.94c-0.35,0.93,0.25,2.18,0.77,3.04
		C242.79,294.58,243.3,295.24,242.63,295.63z M234.5,301.13l0.29-0.64c0.08-0.04,0.16-0.09,0.23-0.13
		C234.92,300.64,234.76,300.92,234.5,301.13z M235.13,300.13c-0.07,0.02-0.13,0.04-0.2,0.06l0.34-0.75c0.06,0,0.13-0.03,0.21-0.08
		L235.13,300.13z M235.17,255.7c-0.05-0.15-0.09-0.28-0.12-0.37c0.03,0.08,0.07,0.18,0.14,0.36
		C235.18,255.7,235.17,255.7,235.17,255.7z M235.5,257.22c0-0.19-0.04-0.42-0.1-0.67c0.27-0.11,0.58-0.11,0.6,0.05
		C235.79,256.56,235.69,256.95,235.5,257.22z"/>
	<path class="st3" d="M232.96,171.02c-0.57-0.11-1.95,0.58-3.32,1.25l6.77,1.64c4.35-1.77,9.82-4.59,11.37-4.44
		c3.21-0.94,9.26-6.41,12.86-6.09l0.69-1.38c-3.78-0.77-10.05,2.12-12.08,4.59c-1.64,0.58-3.61-0.6-4.92,0.95
		C240.72,169.09,236.08,171.45,232.96,171.02z"/>
	<path class="st3" d="M186.88,161.92l6.98,1.69c0.19-0.06,0.39-0.13,0.57-0.18c5.01-1.1,9.04-0.69,14.09-3.33
		c6.88-0.03,18.2-7.75,23.48-3.17c-0.04,1.87-1.58,3.15-0.32,4.79c-2.99,2.4-3.85,6.62-6.5,9.47l1.78,0.43
		c3.95-5.46,13.91-13.34,5.79-18.63c-1.25-0.02-2.47,2.42-2.98,0c-0.88-0.41-1.14-0.19-2.14-0.89c-13.49,0.93-26.79,9.76-40.23,9.72
		C187.28,161.83,187.09,161.87,186.88,161.92z"/>
	<path class="st3" d="M60.97,116.06c0.31,0.06,4.36-0.82,2.56-0.17c-3.13,1.04-6.17,3.31-9.21,5.93l16.32,6.73
		c2.35-0.64,4.63-1.27,6.81-1.85c9-0.58,17.46-2.44,26.07-3.26c1.5-0.17,2.85-0.41,1.52,0.78c-4.43,3.73-7.77,8.11-12.88,11.42
		c-0.06,0.1-0.1,0.2-0.14,0.3l11.09,3.26c3.88-1.52,7.9-3.55,11.63-3.95c4.25-3.36,8.87-2.84,14.1-3.95
		c2.44,0.96-6.33,7.03-7.4,9.29c-0.88,1.14-1.87,2.18-2.92,3.14l14.77,4.35c7.25-2.65,14.37-5.53,20.27-7.2
		c0.6,0.25-5.19,2.12-3.84,2.16c3.8-0.99,9.85-5.32,12.47-2.9c1.61,6.63-5.52,9.05-9.07,13.67l7.81,1.89
		c4.56-1.94,9.16-3.69,14.02-4.34c1.19-1.14,3.7-1.72,5.41-1.81c1.07-1.78,2.4-2.4,4.7-2.39c1.18-0.17,2.76-0.86,1.92,0.38
		c-1.38,1.09-1.58,4.04-2.29,5.21c-1.24,2.18-2.23,5.07-3.32,7.85l3.62,0.88c2.92-2.96,3.41-8.52,5.4-11.65
		c-3.38,3.93,2.78-5.79,3.36-7.17c0.51-4.05-9.12,2.36-11.09,3.12c-2.75,1.13-3.46-0.78-0.59-1.42c0.4-0.56-2.26,0.4-3.07,0.31
		c-2.26-0.79-14.65,7-11.61,2.72c-1.29-0.36-2.68,1.99-4.03,2.1c0.43-1.09,2.57-1.53,3.28-2.39c-0.56-1.04,2.09-3.77,1.14-4.09
		c6.31-8.42-3.29-14.64-10.03-8.88c1.53-0.07,8.24-2.45,2.24,0.14c0.51,0.12,3.02-0.92,3.75-0.61c-6.06,3.16-11.67-0.33-18.22,3.79
		c-5.52,2.41-12.38,2.41-17.31,6.57c-4.36,2.16,6.08-9.25,6.39-9.9c2.74,1.3,4.27-3.88,6.36-5.79c9.64-8.5-10.16-2.5-14.75-1.75
		c-0.9-0.59-5.9,2.11-5.32-0.18c-2.61-0.87-8.1,2.19-11.17,3.97c-4.69,1.95,15.08-11.87,10.5-12.83c-1.54,0.1-9.8-0.19-6.01-1.81
		c-1.82-1.18-7.63-0.43-8.13,0.1c2.16,0.32,1.71,0.68-0.13,0.8c-11.02-1.47-22.57,2.7-32.95,5.14c-2.3,0.16-3.68,0.38-6.33,1
		c-4.79,0.38,8.87-7.43,8.97-10.09c2.5-9.4-9.92-5.83-14.83-4.08c-3.81-0.75-7.86,1-2.67-3.5c10.86-9.08,4.73-5.65-4.56-5.94
		c-1.65-1.39-12.02,2.59-9.95-0.97c0.81-1.49,10.09-9.21,6.24-8.71c-7.9,1.78-15.35,5.75-23.11,5.02
		c-7.01,0.85-13.28,4.73-20.25,4.49l6.37,4.17c1.85-0.49,3.68-1.09,5.49-1.84c0.4-0.89,3.13-2.7,2.58-0.74
		c1.29,0.14,3.26-1.19,4.75-1.3c2.71,0.34-5.6,1.67-1.92,2.75c2.53,1.05,1.03,4.82,4.6,4.32c6.59-1.07,13.28-0.93,19.71-1.98
		c-3.31,3.75-8.26,6.72-13.21,9.43l12.02,4.96c2.3-0.48,4.66-0.8,6.18-1.4C55.45,117.43,58.53,115.21,60.97,116.06z M53.07,110.19
		l0.03,0.86c-0.4-0.04-0.8-0.06-1.2-0.05C52.3,110.73,52.69,110.46,53.07,110.19z"/>
	<path class="st3" d="M16.57,88.89c2.17-4.2,5.2-10.61,7.12-14.7c-1.59,1.14-6.36,9.14-10.28,8.69c-2.88,3.4-6.69,4.56-11.04,5.74
		C1.61,89.24,0.81,89.76,0,90.25v4.41l5.64,3.7C7.59,93.84,12.66,90.65,16.57,88.89z M2.72,94.46c0.59-0.07,1.26-0.33,1.91-0.6
		C3.63,94.91,2.52,94.95,2.72,94.46z"/>
	<path class="st3" d="M433.17,50.63c-0.09,0.04-0.17,0.08-0.24,0.11l-0.07,0.04c0.06,0.07,0.08,0.15,0.18,0.17
		c0.16-0.01,0.36-0.07,0.65-0.25c0.06-0.12,0.08-0.25,0.09-0.38c-0.02,0-0.03,0.01-0.04,0.02
		C433.53,50.45,433.34,50.54,433.17,50.63z"/>
	<path class="st3" d="M320.27,19.02c1.88-1.06,25.02-9.49,21.42-5.42c-9.35,7.4-22.9,13.47-34.93,19.94
		c21.18-4.83,38.76-9.85,56.36-18.52c1.23-0.56-2.45,2.17-3.05,2.47c-32.37,25.14-28.16,17.2,7.52,9.63
		c6.29-2.47,14.42-7.14,21.17-5.91c-5.27,6.08-14.25,10.05-20.09,16.15c-0.28,0.06,1.1-1.92,0.69-1.56
		c-4.66,5.96-23.83,22.41-21.78,25.91c-0.78,1.49-2.14,2.27-3.77,2.05c-6.22,2.05-9.28,9.3-13.88,13.22
		c-1.37,0.64-10.92,7.03-5.35,4.99c8.22-3.95,13.42-12.09,21.58-16.03c5.57-5.89,16.34-7.46,19.87-14.65
		c7.24,0.59,11.51-7.74,17.86-10.17c6.06-5.24,13.66-6.94,18.59-13.08l-4.26-5.13c-1.95,1.17-3.84,3.6-4.99,3.34
		c0.18-1.35,1.85-3.44,3.21-5.48l-5.97-7.19c-5.56-0.58-11.21,4.29-16.67,4.97c-1.46-0.1,0.34-2.97-1.6-1.22
		c-0.52,0.47-0.52,0.04-0.38-0.32c4.6-1.59,9.33-4.05,14.04-6.93l-8.7-6.17c-4.44,1.43-8.81,2.75-13.02,3.84
		c0.63-1.35,3.82-4.18,7.84-7.51L371.67,0h-12.49c-7.06,2.95-14.19,6.14-21.36,7.28c3.65-3.1-2.45-0.19-4,0.32
		c-1.17,0.34-4.07,0.31-4.08,1.63c0.5,0.28,1.85-0.1,0.77,0.77c-0.9,0.89-4.39,1.34-2.96-0.65c2.89-3,7.15-3.01,10.59-4.49
		c0.39-0.37,0.63-0.77,0.77-1.18l-24.57,8c0,0-16.33,14.33-17,16c-0.13,0.31-0.55,1.36-1.15,2.86c4.65-4.61,9.53-8.39,15-9.75
		C307.46,26.02,318.09,18.49,320.27,19.02z M374.82,34.18c-0.1,0.11-0.22,0.21-0.36,0.3C374.55,34.4,374.66,34.3,374.82,34.18z
		 M359.4,54.36c-2.45-0.71-3.24,3.2-6.33,3.63c-2.23,2.7,0.1-1.29-4.87,1.6c1.33-0.97,9.35-6.11,12.04-7.86
		C359.6,52.47,360.3,53.95,359.4,54.36z M386.59,35.72c-8.69,4.37-16.98,11.62-25.58,15.83c4.57-3.43,9.36-6.2,12.73-10.12
		C376.61,42.82,393.82,26.66,386.59,35.72z M394.05,29.25c0.92-1.15-1.03-0.7,1-1.37C398.49,26.44,393.26,30.8,394.05,29.25z
		 M393.81,29.93c-0.18,0.36-1.01,1.02-1.43,1.06C391.62,30.74,393.64,29.82,393.81,29.93z M358.67,8.2l0.3,0.23
		c-0.27,0.11-0.54,0.22-0.8,0.33C358.29,8.54,358.45,8.35,358.67,8.2z M344.87,11.7c-0.21,0.48-0.41,0.64-0.7,0.12
		C344.41,11.78,344.64,11.74,344.87,11.7z M339.78,11.71c-0.47,0.12-1.13,0.42-1.56,0.42C337.75,11.13,339.34,11.77,339.78,11.71z
		 M336.34,12.79c-0.29,0.16-0.66,0.25-0.83,0.33C335.68,13.05,335.92,12.96,336.34,12.79z M330.65,8.77
		c-0.01,0.04-0.03,0.08-0.03,0.12c-0.15-0.63,0.87-0.8,0.97-0.52C331.33,8.47,331.03,8.59,330.65,8.77z M323.15,11.31
		c-0.94,0.43-2.31,1.09-3.2,1.56C320.5,11.81,322.06,11.31,323.15,11.31z M318.83,13.79c-0.14,0.24-0.58,0.72-0.75,0.95
		C316.89,15.53,318.48,12.66,318.83,13.79z"/>
	<path class="st3" d="M391.73,114.33c-0.11,0.02-0.21,0.05-0.31,0.09C391.57,114.39,391.66,114.36,391.73,114.33z"/>
	<path class="st3" d="M404.84,141.83l0.05-0.05l14.22-4.44l1.35-1.43c-11.03,2.96-24.93,0.49-31.01,3.88
		c-5.36,0.62-1.08,4.34-2.73,3.04c0.41,0.91,8.73,4.33,11.54,5.57l2.16-2.16c-0.16-0.14-0.34-0.3-0.55-0.42
		c0.2,0.08,0.45,0.17,0.72,0.26l0.51-0.51c-1.79-0.72-3.12-1.33-3.16-1.6c0-0.08-0.22-0.1-0.49-0.1
		C392.69,143.21,397.89,142.47,404.84,141.83z"/>
	<path class="st3" d="M428.32,125.78l1.46-3.77l-0.8-1.09c-3.66,0.28-7.22,0.7-8.44,2.38c-3.52-0.04-1.71-2.2-5.39-0.9
		c3.18,1.11-1.97,0.02-3.13,0.7c-23.52,3-8.24,11.51,8.53,12.72l4-4.22c-3.55-0.93-9.47-2.36-13.31-1.49
		C403.87,127.28,416.42,127.5,428.32,125.78z"/>
	<path class="st3" d="M398.13,148.54c-0.18-0.06-0.38-0.13-0.61-0.21c0,0.19,0.15,0.37,0.28,0.54L398.13,148.54z"/>
	<path class="st3" d="M425.97,105.94c-9.72,1.16-13.62,2.5-19.9,2.3c5.82-1.61,14.87-2.79,17.61-5.25l1.09-1.94
		c-0.16,0.03-0.3,0.06-0.48,0.09c0.29-0.13,0.49-0.24,0.62-0.34l0.2-0.35c-0.13-0.38-1.45-0.55-1.38-0.93
		c-4.08-0.43-0.27-1.31,3.3-2.47l0.08-0.14l-0.21-0.24c-0.04,0.05-0.07,0.08-0.11,0.13c0.02-0.08,0.03-0.14,0.05-0.2l-0.27-0.32
		c-0.19,0.28-0.42,0.62-0.61,0.75c-0.41-1.65-3.32,1.06-2.43-0.33c-15.54,7.87,2.74,3.3-5.44,6.09c0.78,0.1-0.25,0.17-0.57,0.19
		c1.67,0.97-0.69,2.76,0.1,0.9c-0.74,0.47-0.97,0.35-0.23-0.31c-0.88,0.11-0.52,0.91-1.36,0.27c-0.13-3.27-9.23,1.92-11.71,0.79
		c-1.85-0.18-4.83,5.37-4.85,2.01c3.68-0.91-4.41,0.24-0.97,0.12c-2.06-0.24-9.14,4.78-7.83,1.95c-0.22,0.63-14.79,3.59-15.66,3.85
		c0.5,0.22,18.2,1.1,16.72,1.77c0.63-0.12,1.31,0.08,0.48-0.54c1.81,0.37,0.29-0.12,1.41-1.02c0.65,0.2,1.92-0.38,2.18,0.23
		c-2.01-0.08,0.26,0.62-1.42,0.83c1.94,0.51,2.54-0.94,4.36-0.34c-1.02-0.51,2.85-1.11,2.61-1.1c-1.84-1.89,7.3,1.87,8.6-0.59
		l-2.62,0.56c2.98-1.7-0.2,0.27-0.22-1.13c3.07,0.81,12.16-0.03,14.37,2.4c1.31-0.23,3.43-0.26,5.78-0.13l2.52-3.27L425.97,105.94z
		 M424.22,101.68c-0.32,0.42-0.7,0.37-1.06,0.55C423.02,101.51,423.71,101.47,424.22,101.68z M421.8,101.71
		c0.17,0.17,0.4,0.17,0.67,0.11C422.17,101.98,421.49,102.53,421.8,101.71z M421.63,101.43c0.23,0.29-0.06,0.22-0.28,0.33
		C421.11,101.67,420.89,101.64,421.63,101.43z M419.99,102.33c-0.3,0.13-0.61,0.24-0.94,0.34
		C418.99,102.5,419.05,102.32,419.99,102.33z M398.19,110.57c0.08-0.86,0.98-1.02,1.76-1.16
		C399.61,109.78,398.29,110.36,398.19,110.57z M399.99,109.28c0.13-0.09,0.21-0.16,0.27-0.23
		C400.32,109.23,400.14,109.29,399.99,109.28z M402.48,108.54c2.26-0.88-3.09,0.86-1.77,0.12
		C399.27,107.61,408.55,107.7,402.48,108.54z"/>
	<path class="st3" d="M395.39,155.27c-1.42,0.07-2.79,0.12-3.97,0.14c2.58,0.62-8.67-0.67-9.88,0.98c3.29,1.61,4.51,3.62,8.26,3.86
		c0.61,0.6,2.77,1.49,5.28,2.33l0.03-0.8l0.12-2.92c-1.5-0.24-2.67-0.52-4.45-0.94c2,0.27,3.21,0.5,4.46,0.73v-0.05
		c-0.45-0.09-0.96-0.19-1.68-0.32c0.85,0.13,1.31,0.2,1.69,0.26l0.01-0.16c-0.03-0.01-0.06-0.02-0.09-0.03
		c0.03,0.01,0.06,0.01,0.09,0.02L395.39,155.27z"/>
	<path class="st3" d="M423.72,103.39l-0.17-0.19l0.09-0.16C423.42,103.3,423.46,103.4,423.72,103.39z"/>
</g>
</svg>
