<?xml version="1.0" encoding="utf-8"?>
<!-- Generator: Adobe Illustrator 28.1.0, SVG Export Plug-In . SVG Version: 6.00 Build 0)  -->
<svg version="1.1" id="Layer_1_xA0_Image_00000104666629571363473720000016160834446342509225_"
	 xmlns="http://www.w3.org/2000/svg" xmlns:xlink="http://www.w3.org/1999/xlink" x="0px" y="0px" viewBox="0 0 1920 1080"
	 style="enable-background:new 0 0 1920 1080;" xml:space="preserve">
<style type="text/css">
	.st0{fill:#281E05;}
</style>
<path class="st0" d="M1539,0c1.3,5.9,2.9,11.7,3.6,17.6c0.2,2-1.4,4.8-3.1,6.3c-2.8,2.6-6.2,4.5-9.5,6.9c0.3,0.5,0.5,1.1,1,1.4
	c7.5,6.2,8.4,9.7,4.2,18.5c-1.8,3.8-3.5,7.6-5.8,11c-0.9,1.4-3.4,1.8-5.1,2.7c-0.7-1.9-2.4-4-1.9-5.5c1.4-4.2,3.5-8.2,5.6-12.2
	c1.6-3.2,1.2-5.7-2.2-7.5c-0.7-0.4-1.4-0.9-2.1-1.4c-4.1-2.8-7.8-5.8-3.2-12c-17.7,1.5-34.6,1.4-49.4,11.4
	c-8,5.4-16.7,9.8-24.7,15.2c-8.8,6-15.4,13.7-17,24.8c-0.4,2.8-0.9,5.8-2.3,8.1c-6.5,11.3-5.1,23.6-6.4,35.8
	c-1.8,17.5,7.1,30.3,15.8,43.4c4.4,6.7,12.1,5.7,16.6-1c1.3-1.9,3.7-3.2,5.8-4.5c6.1-3.6,12.3-7.1,17.5-10.1
	c-0.6-4.4-0.9-7.4-1.5-10.3c-0.2-1.1-0.8-2.1-1.4-3c-8.3-12.5-11.7-26.2-8.4-40.9c0.9-4.2,3.3-8.7,6.4-11.5c8.8-8,19.5-12.5,31-15.3
	c1.6-0.4,3.4-0.7,4.9-0.3c2.1,0.6,3.9,2,5.9,3.1c-1.8,0.8-3.4,1.9-5.3,2.3c-12,2.6-23,7.3-31.4,16.2c-2.6,2.7-3.9,7.4-4.3,11.3
	c-1,10,1.7,19.4,7.3,28.9c4-8.7,11-11,19.4-9.9c1.8,0.2,3.4,1.9,5.1,2.9c-1.8,1.1-3.4,2.6-5.4,3.3c-1.7,0.6-3.6,0.1-5.5,0.3
	c-4.5,0.5-5.2,2.6-5.5,7.1c-0.2,2.8-2.9,5.4-5,9c0.1,2.4,0.3,6.5,0.5,10.6c1.8-0.6,4.8-0.9,7-2.4c1.7-1.2,3.4-3.9,3.5-5.9
	c0.1-4.5,1.9-6.7,6.1-7.7c1.9-0.4,3.9-1.3,5.4-2.5c1.2-0.9,2-2.6,2.7-4.1c1-2.1,1.7-4.3,2.5-6.4c1.4,1.6,2.9,3.2,4.4,4.8
	c12.8-8.3,23.5-28.9,21.6-42.8c-4.7,2.9-8.7,5.3-9.7,11.9c-1.6,10.6-11.1,16.2-20.6,13.6c-4.3-1.2-6.8-3.8-7.6-8.2
	c-1.5-8.6,6-21.9,14.8-24.8c-1.4,0.8-2.8,1.6-5.1,2.8c5.4,0.7,9.3,1.4,13.2,1.7c1.2,0.1,2.7-0.3,3.6-0.9c5-3.6,9.8-7.4,15-11.3
	c-6.3-10.5,3.8-14.1,8.4-20.3c-1-0.5-1.9-1-2.8-1.5c-4.3-2.6-4.8-5.7-1.7-9.5c8.4-10.1,16.8-20.2,25.4-30.1c1.4-1.6,3.8-2.7,5.9-3.1
	c1.3-0.2,3.4,1.2,4.2,2.5c0.4,0.7-0.9,2.8-1.8,4c-0.6,0.9-1.9,1.4-2.5,2.3c-6.8,9.1-13.5,18.1-20.4,27.5c4,2.5,5.9,6.4,3.5,11.7
	c-0.3,0.6,0.3,1.9,0.8,2.6c10.9,15.6,12,33.3,10.1,51.3c-2.3,21.6-12.4,39.1-31.9,49.5c-7.6,4-16.7,5.4-25.1,7.8
	c-1.5,0.4-3.6,0.5-4.9-0.2c-2-1-3.6-2.8-5.3-4.3c1.6-1.6,2.9-4.1,4.8-4.7c6.3-2,13.1-2.8,19.3-5.1c19.8-7.4,29.7-22.9,32.9-42.9
	c2.5-15.4,0.4-30.5-5.1-45.2c-0.3-0.8-0.7-1.4-1.1-2.2c-2.9,1.7-4.3,3.2-2.6,6.8c2,4.3-0.8,7.7-4.1,10.3c-2.4,1.8-3.2,3.8-2.8,6.8
	c2.7,23.9-11.3,39.7-26.8,54.6c-2,2-6.1,2.6-9.2,2.5c-3.8-0.1-5.9,0.6-6.9,4.5c-1.2,5.2-4.3,8.7-9.8,10.2
	c-8.3,2.3-19.4,15.5-16.8,27.6c4,0.6,7.9,0.5,11,1.9c16,7.4,31.4,6.1,44.4-5.1c14.9-12.8,28.1-27.2,36.9-45.4
	c9.8-20.3,18.3-41,22.8-63.2c3.5-17.3,0.5-33-10.9-46.9c-1.6-2-2.3-4.7-3.4-7c2.8,0.4,5.9,0.2,8.2,1.5c11,6.1,14.9,17,18.1,28.2
	c4.3,14.8,1.4,29.5-2.5,43.8c-10.1,37.2-26.5,70.9-55.4,97.7c-14.8,13.7-31.8,19.2-51.4,16.2c-7.8-1.2-15.8-3.4-19.5-11.9
	c-0.1-0.3-0.2-0.8-0.4-0.9c-2.7-0.6-5.8-0.8-5.8-4.7c0.1-6.9-1.3-14.1,2.8-20.4c1.9-3,4.1-5.9,6.8-9.8c-8,4.9-15.2,9.1-22.1,13.6
	c-9.8,6.4-17.1,6.3-24.1-2.9c-6.5-8.6-11.2-18.4-16.7-27.7c-0.6-1.1-0.8-2.6-0.8-3.9c0-12.5,0-25,0.1-37.5c0-1.2,0.2-2.3,0.6-3.4
	c3.5-10.4,5.9-21.3,10.8-31c3.7-7.3,9.6-14.3,16.2-19.1c11.7-8.4,24.3-15.9,37.3-22.1c7.4-3.6,16.3-4.3,24.6-5.7
	c5.9-1,11.9-1.3,17.9-1.1c3.3,0.1,6.5,1.8,9.6,3.4c3.2-0.2,4.7-2.2,4-5.9c-0.8-4.8-1.3-9.7-2-14.6C1533.6,0,1536.3,0,1539,0z
	 M1516,92.9c-4.7-0.8-6.9,2.1-6.3,8.2C1514.5,100.3,1515.2,96.6,1516,92.9z"/>
<path class="st0" d="M1341,1080c-9.5-12.6-8-31.6,2.9-33.4c0,2.9-0.1,5.9,0,8.8c0.4,12.2,6.4,18.8,18.5,19.9
	c10.3,1,20.3,0.2,29.7-4.7c9.1-4.8,11.5-12.3,4.8-20.1c-6.1-7.1-13.8-12.9-21.4-18.5c-12.1-8.9-24.7-17-36.9-25.7
	c-3-2.1-5.6-4.7-8-7.5c-6.6-7.6-5.5-15.7,2.8-21.3c11.4-7.8,24.2-9.8,37.7-8.2c5.6,0.7,11.3,1.4,16.6,3.2c5.2,1.7,5.2,5.8,0.8,9.2
	c-9.3-7.2-39.7-2.7-50.4,8c2.1,2.2,3.9,4.7,6.4,6.4c11.6,8.3,23.5,16.4,35.1,24.7c7,5,14.2,10,20.6,15.8
	c8.6,7.7,14.4,17.2,10.8,29.2c-1.5,5.1-5.8,9.4-8.8,14.1C1381.6,1080,1361.3,1080,1341,1080z"/>
<path class="st0" d="M1920,950c-10.8,5.3-21.5,10.5-33.8,11.3c-12.6,0.8-17.8-5.8-13.6-17.6c1-2.8,2.4-5.6,4.3-7.8
	c12.3-14.4,27.5-25.3,43.1-35.9c0,6,0,12,0,18c-10.9,7.5-20.7,16-29.3,26c0.3,0.5,0.6,1,0.9,1.5c9.5-4.1,18.9-8.3,28.4-12.4
	C1920,938.7,1920,944.3,1920,950z"/>
<path class="st0" d="M543.9,0c-2.6,5.7-5.2,11.4-8.3,18.4c3.6-1.2,5.6-1.9,7.8-2.6c-0.7,6.2-7.2,11.7-12.6,10.9
	c-4.6-0.7-5.2-4.1-4.7-7.9c0.4-2.6,1.2-5.2,2-7.7s2-4.9,3.6-8.7c-2.4,1.3-3.8,1.9-5,2.8c-5.5,4-10.8,8.3-16.5,12.1
	c-2.7,1.8-5.9,3.3-9,3.9c-5.4,0.9-8.2-2.6-6.8-7.9c0.8-2.8,2.1-5.6,3.8-9.9c-4.2,2.7-7.5,4.3-10.4,6.6c-5.7,4.5-11.2,9.4-16.8,14.1
	c-1.4,1.2-2.8,2.8-4.4,3.2c-1.7,0.4-3.8-0.3-5.7-0.6c0.6-1.7,0.7-3.8,1.9-4.9c7.9-7.3,16-14.4,24.1-21.6c7.3,0,14.7,0,22,0
	c-0.6,2.5-1.1,5-2,9c4.4-3.6,7.7-6.3,11-9C526.6,0,535.2,0,543.9,0z"/>
<path class="st0" d="M1920,892c-19.3,6.1-38.6,12.3-58,18.3c-3.4,1.1-7.2,1.4-10.8,1.5c-3.7,0.1-6.5-1.8-7.1-5.7
	c-0.6-4.2,1.8-6.6,5.6-7.7c23.4-6.8,46.9-13.6,70.3-20.4C1920,882.7,1920,887.3,1920,892z"/>
<path class="st0" d="M391.9,0c-2.2,4.6-4.1,9.4-6.8,13.8c-3.1,5.1-7.6,5.3-11.3,0.5c-2.5-3.2-4.2-7-7.1-11.9
	c-1.7,6.2-3.3,11.6-4.7,17c-0.3,1.1,0,2.3-0.1,3.5c-0.3,2.9,1.3,7.3-3.6,7.3c-4.7,0-3.4-4.1-3.5-7.2c-0.2-8.2,2.1-15.8,6-22.9
	c4.7,0,9.3,0,14,0c1.1,3.1,2.2,6.2,3.4,9.3c0.5-0.1,1-0.1,1.5-0.1c1.4-3.1,2.8-6.1,4.2-9.2C386.6,0,389.2,0,391.9,0z"/>
<path class="st0" d="M635.9,0c-0.1,1.9,0.2,3.9-0.5,5.5c-1.2,2.7-3.1,5.1-4.8,7.6c-3.3,5.1-4.8,5.2-8.1,0.9
	c-9.5,5.7-18.9,11.5-28.5,17c-0.7,0.4-2.3-0.6-5.2-1.5C603.1,19,616,9.5,628.9,0C631.2,0,633.6,0,635.9,0z"/>
<path class="st0" d="M383.2,665.8c6.7-1.1,12.6-1.8,18.5-3.1c1.6-0.3,3.5-1.9,4.3-3.4c3.5-6.8,6.7-13.7,9.9-20.7
	c1.7-3.7,4.2-6.1,8.4-6c4.6,0.1,7.6,2.9,8.6,7.1c1.6,7.5,2.8,15,4,22.6c1.4,8.8,2.5,17.7,4.7,26.7c0.5-1.3,1-2.6,1.4-3.9
	c5-15.2,9.9-30.4,14.8-45.6c0.4-1.3,0.9-2.5,1.5-3.7c3-5.5,8.7-7.7,13.9-5.5c5.2,2.2,7.8,7.8,6,13.8c-3,9.7-6.4,19.3-9.5,28.9
	c-0.5,1.5-0.9,3.1-1.4,4.7c0.4,0.2,0.8,0.4,1.2,0.6c5.4-9.5,10.9-18.8,16.1-28.4c1.6-3,3-5.7,6.7-5.8c4.1,0,6.6,2.6,7.6,6.2
	c3.4,12.3,6.4,24.8,9.9,37.1c0.9,3.3,2.7,6.4,4.1,9.5c0.7-0.1,1.3-0.2,1.9-0.3c0.7-4,1.4-7.9,2-11.8c1-6.1,2-12.1,2.9-18.2
	c0.3-2.5,1.6-5-1.1-7.7c-1.2-1.2-0.4-5.7,1-7.7c6.5-8.9,15.8-12.6,26.6-11.8c9.2,0.7,14.8,10.2,13.4,21.6
	c-1.3,10.4-7.1,18.6-13.4,26.3c-4,4.9-8.5,9.4-13.5,14.9c6.3,3.3,12.4,6.5,19.6,10.4c0-5.5-0.4-9.4,0.1-13.3
	c2.2-19,12.9-33.2,26.5-45.6c1.2-1.1,2.9-2.4,4.3-2.3c2.6,0.1,6,0.4,7.5,2.1c2.3,2.6-0.3,4.7-2.4,7c-11.9,13.3-20.1,28.2-18.3,46.9
	c0.7,6.5,8.2,10.3,14.5,7.9c3-1.2,6.2-2,10-3.2c1.3-8.6,2.6-18.1,4.3-27.5c1.2-6.4,3-12.6,5-18.8c0.5-1.6,2.8-2.6,4.3-3.9
	c0.7,1.7,2,3.4,1.9,5.1c-0.3,7.7-1.1,15.5-1.7,23.4c9-2.8,9-2.8,9.4-11.2c0.2-4.2,0.2-8.3,0.4-12.5c0.1-1.7,0.1-3.3,0.4-5
	c0.8-4.2,2.9-7.4,7.5-7.2c4.6,0.1,6.9,3.4,7,7.6c0.3,14.5,0.5,29,0.2,43.4c-0.2,9.6-1.1,19.3-1.7,30.3c1.3-1.6,1.9-2,2.2-2.6
	c4.9-10.9,9.9-21.9,14.7-32.8c0.5-1.1,0.9-2.9,0.4-3.6c-7-8.9-6.8-19.9-8.8-30.2c-1.2-6.2-2.5-12.4-3.4-18.6c-0.3-2,0.3-5.7,1.1-5.8
	c2.3-0.5,5.7-0.4,7.1,1c2.3,2.3,4.1,5.7,5,9c2,7.2,3.4,14.6,5.1,21.8c0.4,1.9,0.9,3.8,1.7,6.7c1.1-2,1.8-3.2,2.4-4.5
	c4.7-10.3,9.4-20.6,14.1-30.9c1.5-3.2,3.5-6,7.5-5s4.9,4.3,4.4,7.9c-0.5,3.4-1.1,7-2.4,10.2c-13.2,31.5-26.5,62.9-40,94.2
	c-2,4.5-4.9,8.7-7.8,12.7c-3.1,4.2-7.7,5.1-10.9,2.8c-4-2.9-3.8-6.7-2-10.7c1.3-3,2.8-5.9,4.2-9c-8.9-1.2-11.3-3.7-11.2-12.4
	c0.1-9,0.7-18,1.1-27c0.1-1.8,0-3.6,0-5.9c-2.7,0.3-5.1,0.5-8.2,0.8c0,5.7,0,11.2,0,16.7c0,2.5-0.1,5-0.5,7.5
	c-1.3,7.1-6.8,8.9-12.3,4.2c-0.5-0.4-1-0.7-1.9-1.3c-0.6,1.3-1.2,2.2-1.5,3.2c-2.5,8.3-8.5,11.4-16.6,8c-16.4-6.9-32.7-13.9-49.3-21
	c-1.7,3.5-3.8,8.2-6.3,12.7c-2.7,5-9.7,5.7-13.5,0.8c-2.7-3.4-4.3-7.8-5.9-11.9c-1.5-3.7-2.3-7.6-3.5-11.6
	c-13,0.7-25.9,1.4-39.5,2.2c-1.5,7.3-3.1,15.3-4.7,23.2c-0.2,1-0.3,2-0.5,3c-1.6,7.2-5.6,11.3-11.3,11.5c-5.6,0.2-10.2-3.6-11.5-11
	c-3.2-18.4-6-36.8-8.9-55.2c-0.9-5.9-1.6-11.8-2.4-17.9c-0.6,0.3-1.2,0.4-1.4,0.8c-5.9,12.9-11.9,25.7-17.5,38.7
	c-1.1,2.5-1.1,5.8-0.5,8.5c1.4,6.4,0,10.9-4.7,12.6c-4.8,1.7-9.5-1.1-11.6-7.4c-3.5-10.8-6.6-21.6-10-32.8
	c-6.9,0.7-13.7,1.4-20.4,1.9c-7.1,0.5-14.3,0.5-21.4,1.3c-2.6,0.3-5.7,1.8-7.4,3.8c-4.6,5.3-8.5,11.1-12.7,16.7
	c-2.1,2.8-4.5,5.5-8.3,3c-3.5-2.4-3.2-6.1-1.3-9.4c2.7-4.6,5.8-8.9,8.5-13.5c1.9-3.1,3.3-6.4,5.1-9.5c0.8-1.4,1.9-2.7,3.1-3.7
	c2.9-2.7,6.3-4.8,8.8-7.8c9.6-11.4,20.3-21.6,32.4-30.4c1.3-1,2.7-2,4.1-2.8c6.1-3.5,11.1-1.6,13.1,5.2
	C378.8,649.7,380.9,657.5,383.2,665.8z M526.2,684.3c0.5,0.3,1.1,0.7,1.6,1c5.6-7.3,11.4-14.4,16.7-21.9c1.6-2.3,1.7-5.6,2.1-8.6
	c0.4-2.6-0.9-3.9-3.7-4c-6-0.2-11.5,0.7-15.3,3.6C527.2,665,526.7,674.7,526.2,684.3z M494.1,694c-1.6-9.2-3.1-17.7-4.8-27.1
	c-7.7,10.8-14.6,20.7-22.3,31.5C476.5,696.8,485.1,695.4,494.1,694z M363,652.7c-7.3,6.6-13.7,12.4-20.1,18.2
	c0.3,0.4,0.5,0.7,0.8,1.1c7.6-1.2,15.3-2.3,23.1-3.5c-0.1-1.2-0.1-1.8-0.2-2.5C365.5,662.1,364.5,658.1,363,652.7z"/>
<path class="st0" d="M96.7,758.2c1.6-6.1,8.1-11.6,14-12.1c3.7-0.3,5.4,2.2,5,5.3c-1.1,7.7-1.5,15.7-4.3,22.8
	c-10.8,27.8-23.6,54.7-39.1,80.3c-4.1,6.8-4.7,14.3-4.4,22.6c4.2-3.1,8.8-5.8,12.7-9.3c9.3-8.6,18.2-17.6,27.4-26.3
	c5.9-5.6,10.1-4.6,13,2.8c0.4,1,1.6,1.8,2.7,2.4c5.7,3.2,7,7.8,6.6,14.2c-0.6,9.2-5.8,16-9.5,23.7c-7.7,15.7-14.1,32-22.1,47.5
	c-7.9,15.4-17,30.1-25.8,45.1c-2.2,3.7-4.5,7.5-9.8,7.4c-0.9,0-2.1,1.4-2.7,2.5c-1.6,2.7-3,5.5-4.4,8.4c-1.8,3.7-4,6.8-8.5,6.3
	c-4.4-0.5-5.8-3.9-6.4-8.2c-1,0.2-2,0.7-2.8,0.5c-3-0.9-7.1-1.2-8.6-3.3c-1.6-2.3-1.7-6.7-0.8-9.6c1-3.3,3.9-6.1,6.1-9
	c19.5-27,39.1-53.9,58.6-80.9c3.1-4.3,5.8-8.8,7.9-13.9c-1.1,0.8-2.3,1.4-3.4,2.2c-16.2,12.2-32.5,24.5-48.7,36.6
	c-2.8,2.1-5.8,3.9-8.7,5.8c-1,0.6-2.1,1.6-3.1,1.5c-6.6-0.7-13.5-0.8-19.7-2.9c-4.1-1.3-3.8-6.4-1.9-10.1
	c3.9-7.7,8.4-15.1,12.2-22.9c1.3-2.6,1.4-5.8,2.1-8.7c2.2-9,3.5-18.3,6.9-26.8c7.1-17.5,17.8-33.1,28.7-48.5
	c3.6-5.1,6.4-10.8,8.8-16.6c3.4-8.3,6.3-16.8,9.2-25.3C86.2,754,90.4,752.7,96.7,758.2z"/>
<path class="st0" d="M1619.7,604.6c-0.7,2.4-1.7,4.7-2.1,7.1c-0.2,1.4,0.1,3.2,0.8,4.5c1.2,2.5,3.7,4.7,4.2,7.3s0.1,6.3-1.5,8
	c-1.3,1.4-5.8,1.5-7.5,0.3c-5-3.5-9.9-7.5-13.6-12.3c-4.9-6.4-9-13.6-12.7-20.9c-3.3-6.5-1.9-10.6,3.1-14.3
	c-0.5-7.1,1.7-11.3,6.2-10.8c4.6,0.5,9.2,1.7,11.7,6.5c2.6,5,5.4,9.9,8.3,15.3c47.7-56.9,92.9-115.4,136.6-174.2
	c-2.2-2.1-4.6-3.5-5-5.2c-0.3-1.6,1.2-4.8,2.6-5.2c2.9-0.9,6.3-0.7,9.4-0.4c1.2,0.1,2.2,1.9,3.5,3.1c4.2-3.5,8.6-6.9,12.8-10.6
	c11.7-10.5,25.9-10.1,40.1-9.6c3.7,0.1,6.1,3,5.6,6.5c-0.7,5-1.5,10.4-4,14.6c-5.9,10-13.2,19.2-19.2,29.2
	c-16.2,27.1-37.5,49.5-62.7,68.5c-12.9,9.7-26,19.2-38.4,29.5c-20,16.8-41.3,32.1-59,51.6C1633.9,598.6,1627.6,603,1619.7,604.6z
	 M1746.4,486.3c0.4,0.3,0.8,0.5,1.2,0.8c26.4-23.3,43.3-53.8,63.3-81.8c-0.5-0.7-1.1-1.4-1.6-2c-2.2,0.9-4.5,1.6-6.6,2.8
	c-7,3.8-8.4,11.8-13.2,17.4c-7,8.2-13.8,16.6-20.8,25c6,2.5,6.6,4.4,2.9,9c-1.3,1.7-2.8,3.3-4.2,4.9
	C1760.4,470.3,1753.4,478.3,1746.4,486.3z M1700.7,511.9c-4.4,0.2-9.3,5.5-11.8,10.9C1692.1,519.8,1695.9,516.3,1700.7,511.9z
	 M1694,528.5c0.2,0.2,0.4,0.4,0.6,0.6c3.1-3.1,6.2-6.2,9.2-9.2c-0.2-0.2-0.5-0.5-0.7-0.8C1700,522.3,1697,525.4,1694,528.5z"/>
<path class="st0" d="M1846.7,140.9c-11.9,0-22.7,0.4-33.4-0.1c-6.8-0.3-13.5-1.6-20.2-2.9c-3-0.6-6.2-2-8.6-3.8
	c-6.7-5.2-9.3-9.6-3.2-16.6c0.5-0.6,0.8-1.4,1.2-2.2c4.2-8.8,6.7-10.2,16.4-9.3c1.9,0.2,4,0.1,5.8-0.5c2.8-0.9,5.4-2.2,7.3,1.3
	c0.2,0.4,1.2,0.7,1.8,0.6c6.2-0.6,12.5,2.3,18.6-0.9c2.6-1.3,4.8-1,6.2,2c0.3,0.6,1.2,1.5,1.7,1.4c5.5-1.1,6.2,2.2,5.8,6.5
	c3.5,1.3,5.3,0.1,5.8-3.2c1.4-10.3,2.8-20.7,4.4-32.2c-6.3,3.1-11.4,5.6-16.6,8.1c-20,9.6-41,12.2-62.8,7.9c-2.9-0.6-5.8-1.6-8.4-3
	c-9.3-4.6-11.8-14.4-5.3-22.5c3.2-3.9,7.2-7.7,11.7-9.9c22.2-10.8,44.9-20.5,69-25.9c8.5-1.9,17.8-0.5,26.8-0.4
	c1.9,0,4.3,0.6,5.6,1.8c1.7,1.6,2.5,4,3.7,6.1c-2.1,0.8-4.4,2.5-6.3,2.1c-9.9-2.1-19.5-1-29.2,0.7c-0.7,0.1-1.4,0.5-2.3,0.9
	c5.2,1.8,10.2,3,14.8,5.2c12.1,5.8,13.4,15.2,3.9,24.5c-0.5,0.5-0.9,1-1.2,1.3c3.8,14.6-1.1,28.5-2.4,42c2.2,1.2,5.7,2.4,5.6,3.3
	c-0.4,3.4-0.8,8.5-3.1,9.7c-6.5,3.6-7,9.4-8.5,15.3c-5.6,22.4-11.3,44.8-17,67.2c-0.3,1.2-0.8,2.8-0.2,3.7c2.9,4.8,0.8,8.5-2.6,11.5
	c-9.6,8.8-21,11.8-33.3,7.5c-7.6-2.6-11.8-9-13.1-17.2c-2.3-14.3-4.8-28.5-7-42.8c-2.8-18.6-5.2-37.2-8-55.8
	c-0.7-4.9-2.2-9.7-2.9-14.7c-0.2-1.6,0.9-3.4,1.4-5.1c1.2,1.4,3.2,2.5,3.6,4.1c2.3,9,4.5,18.1,6.1,27.2c4.2,24.9,7.9,49.9,12.1,74.8
	c0.9,5.1,3,10.1,4.8,15.1c1.4,3.8,4.2,6,8.3,6.1c3.3,0,6.7,0.3,9.9-0.4c6-1.3,10.5-3.9,12.3-11
	C1832.2,192.7,1839.6,166.8,1846.7,140.9z M1796.2,87.2c18.7,0.2,35.4-6.1,51.3-14.9c3.4-1.9,6-5.2,9-7.9c-3.3-2.6-6.3-5.9-10.1-7.6
	c-7.2-3.2-15.1-6.7-23-3.9c-12.5,4.5-24.7,9.8-36.8,15.4c-4.6,2.1-8.8,5.4-12.6,8.8c-3.5,3.1-2.9,5.6,1.6,6.7
	C1782.4,85.4,1789.3,86.2,1796.2,87.2z"/>
<path class="st0" d="M129.1,221.1c0.6-4.3,1-7.6,1.7-10.7c2-9.3,10-12.1,17.2-5.8c3.3,2.8,5.9,6.3,8.9,9.4
	c7.1,7.4,13.8,15.5,21.7,22.1c5.6,4.7,12.7,7.7,19.3,11.1c4,2.1,7,0.6,7.2-4.1c0.6-13.1,1.9-26.3,1.1-39.3
	c-0.8-13.4-3.8-26.7-5.7-40c-0.4-3.1-0.6-6.3-0.6-9.4c0.1-3.9,1.8-4.8,5-2.6c2.2,1.6,4.6,3.5,5.9,5.9c15.2,27.8,19.5,57.4,14.1,88.5
	c-0.6,3.6-2,7.1-3.6,10.3c-4,8-10.7,11.7-19.6,10.8c-12.4-1.2-23-6.9-32.1-14.9c-7.6-6.7-14.2-14.4-21.3-21.7
	c-0.8-0.8-1.6-1.5-3.5-3.3c0,7.9,0,14.5,0,21c0,3.3,0.1,6.7-0.2,10c-0.3,4.3-2.2,7.8-6.9,8.6c-4.9,0.9-7.9-2-9.6-6.2
	c-3.8-9.6-7.4-19.3-11.2-28.8c-3.2-7.8-6.7-15.5-10-23.3c-0.5,0.1-0.9,0.1-1.4,0.2c-0.1,1.8-0.3,3.7-0.3,5.5
	c0.3,24.1,0.6,48.3,0.8,72.4c0.1,8.3-0.1,16.7,0,25c0,2.1,0.7,4.2,0.8,6.4c0.1,1.3-0.1,3.8-0.6,3.9c-1.4,0.3-3.8,0.3-4.5-0.6
	c-2-2.6-4.1-5.5-4.7-8.6c-1.4-7.8-2.7-15.8-2.9-23.7c-1-29.1-1.6-58.2-2.2-87.4c-0.1-3.3,0.4-6.7,1.3-9.9c2.2-8,9.7-10.2,15.9-4.7
	c2.7,2.4,5,5.4,6.8,8.6C120.4,203.7,124.4,211.9,129.1,221.1z"/>
<path class="st0" d="M1332.8,922.2c-14.2,1.4-28.4,3.1-42.7,4.2c-12.3,0.9-24.6,1.3-36.9,1.3c-2.2,0-5.8-2.7-6.3-4.8
	s1.4-6.3,3.4-7.2c9.3-4,18.9-7.3,28.5-10.6c1.2-0.4,2.9,0.9,4.3,1.4c-0.8,1.4-1.2,3.3-2.4,4.2c-1.7,1.4-4,2.1-5.7,4
	c9.6-1,19.2-2.3,28.9-3.1c14.3-1.1,28.5-2.1,42.8-2.5c9-0.3,13.2,7.5,8.2,15c-2.6,3.9-6.3,7.4-10.2,10.1
	c-10.7,7.4-21.7,14.2-32.6,21.3c-1.3,0.9-2.7,1.8-5.1,3.4c5.4-0.9,9.3-1.8,13.2-2c2.6-0.2,5.4,0.1,7.8,1.1c3.9,1.5,4.9,5.4,2.1,8.5
	c-2.2,2.3-5.1,4.5-8.1,5.5c-21.1,7.1-42.4,13.8-63.6,20.8c-14.4,4.8-28.7,9.8-43,14.6c-3.8,1.3-7.6,2.4-11.6,3.1
	c-4.8,0.8-9.3-2-10.7-6.2c-1.5-4.5,0.5-9.3,5.3-11.6c3.6-1.7,7.4-2.9,11.1-4.5c37.6-16.2,74.7-33.6,109.3-55.8
	c4.7-3,9.6-5.7,14.4-8.6C1333.1,923.3,1332.9,922.8,1332.8,922.2z"/>
<path class="st0" d="M1649.7,276c-4.3,30.9-8.4,61.2-12.7,91.5c-0.4,3-0.5,6.3-2.1,8.6c-1.4,2.1-4.4,4.2-6.8,4.3
	c-3.3,0.2-5.4-2.8-5.1-6.2c0.7-7.1,1.6-14.2,2.8-21.2c4-23.9,8.1-47.7,12.2-71.6c0.2-1,0-1.9,0-1.6c-6.6-2.5-12.4-4.8-18.4-6.8
	c-1.4-0.5-3.3,0-4.8,0.4c-17,4.6-34,9.5-51.1,14c-2.4,0.6-5.2-0.1-7.8-0.2c2-1.6,3.7-4,6-4.8c16.8-5.9,33.7-11.6,50.6-17.1
	c3.1-1,4.5-2.3,5-5.6c0.8-5.7,3.1-10.9,7.8-14.6c5.3-4.3,10.6-8.5,15.7-12.9c1-0.8,2-2.3,2-3.5c0-21.1-0.1-42.3-0.1-63.4
	c0-2.2-0.2-4.4,0.3-6.4c0.4-1.3,1.9-3.1,3-3.2c1.1-0.1,3.2,1.5,3.5,2.7c1.1,4.2,2,8.5,2.1,12.8c0.5,18.1,0.7,36.3,1,54.5
	c0,1.8,0,3.6,0,5.6c10.7-0.1,19.9,1.4,22.3,14.2c2.8-0.8,5.4-1.5,8-2.3c10.1-3.3,20.2-6.6,30.4-9.9c0.9-0.3,1.9-0.7,2.8-0.9
	c3.2-0.6,6.8-1.2,8.1,2.7c1.3,3.7-1.4,6.1-4.5,7.3c-9.1,3.3-18.2,6.3-27.4,9.3c-3.3,1.1-6.7,2.2-10,3.1c-6.9,1.8-13.2,3.6-16.8,11.3
	C1663,272,1656.4,274.9,1649.7,276z"/>
<path class="st0" d="M1813,527.2c-8,0.5-14.6-3.1-21-7.1c-4.2-2.7-5.2-7.1-4.7-11.9c0.8-7.2,3.9-13.5,8.7-18.7
	c7.4-8,15.3-15.8,23-23.5c2.4-2.4,4.9-3.1,8.6-2.1c3.3,1,7.1,0.3,10.7,0.2c0.7,0,1.3-0.4,1.9-0.4c11.5,0.8,23.1,1,34.5,2.9
	c6.5,1,10.1,8.3,8.6,14.9c-1,4.3-2.7,8.7-5.2,12.2c-7.9,11.1-17.8,20.3-30.3,26.2c-4.4,2.1-9.4,3.3-14.2,4.3
	C1826.9,525.5,1819.9,526.2,1813,527.2z M1808.4,497.2c-1.2,4-2.4,8.1-3.7,12.4C1809.3,509.4,1809.3,509.4,1808.4,497.2z"/>
<path class="st0" d="M341.8,865.2c-10.4,12.9-23.3,21.5-37.5,28.4c-8.3,4-17.1,5.5-26.2,3.7c-8.9-1.8-12.6-6.9-9.5-15.5
	c3.1-8.4,7.6-16.2,11.4-24.3c0.9-1.9,1.1-4.1,1.8-6.2c0.4-1.2,1-2.5,1.8-3.5c7.3-9.7,14.6-19.3,22-29c2.4-3.2,5-6.3,7.4-9.4
	c3.4-4.4,7.9-5.3,12.9-4.3c1.6,0.3,3.6,1.6,4.1,2.9c0.5,1.3-0.4,3.6-1.5,4.7c-3.4,3.6-6.9,7.3-10.9,10.3
	c-17.2,13.3-26.8,31.9-35.8,50.9c-1.7,3.7-2.6,7.8-4,12.3c6.6,1.6,12.5,1.2,18-1.1c16.5-7.1,30.8-17.1,41.1-32.2
	c1-1.5,3-2.3,4.5-3.5c1.1-14.4,2.1-29.2,3.4-43.9c0.2-1.8,1.5-3.9,3-5.1c0.5-0.4,2.9,1.3,4.4,2c0.3,0.1,0.3,0.8,0.6,0.8
	c8.3,1.3,5.6,7.4,5.4,12.3c-0.7,15.5-1.4,30.9-2,46.4c-0.1,1.6,0,3.2,0.9,5c0.6-1.4,1.3-2.8,1.8-4.3c7-20,13.7-40,21-59.8
	c2.5-7,6.1-13.7,9.4-20.3c1.3-2.6,3.6-5,6.8-3.2c3.4,1.9,1.5,4.8,0.5,7.4c-8.2,22.5-16.5,45-24.5,67.5c-4.9,13.6-9.5,27.3-14.2,41
	c-0.4,1.1-0.8,2.2-1.3,3.3c-1.2,2.8-3,5.1-6.5,4.1c-3.8-1.1-3.9-4.3-3.1-7.3c1.1-4.3,2.5-8.6,4-13.4
	C344.7,878.4,339.5,873.9,341.8,865.2z"/>
<path class="st0" d="M1583.9,953c2.4,2,4.8,3,4.9,4.2c0.3,3.9-3.9,7.8-7.9,7.4c-1.9,11.5-3.9,23.1-5.8,34.7c0.3,0.2,0.7,0.3,1.1,0.5
	c1.8-2.1,3.6-4.2,5.3-6.4c15-18.3,29.9-36.7,44.9-55c2.5-3.1,5.3-6,8.2-8.7c2.7-2.6,5.9-4.6,9.2-1.4c3.1,3,1.1,6.1-1.1,8.8
	c-16.7,20.8-33.3,41.6-49.9,62.5c-1.4,1.8-2.8,3.7-4.8,6.4c7.4-1.3,13.8-3.1,20.3-3.3c12.6-0.4,25.2-0.4,37.8,0.5
	c4.5,0.3,9.2,3,13.2,5.4c1.9,1.2,3.8,4.8,3.3,6.8c-0.4,1.7-4.1,2.8-6.6,3.6c-1.3,0.5-3,0-4.4-0.4c-21.1-5.5-41.9-3.5-62.6,2
	c-4.5,1.2-9,2.5-13.6,3.1c-3,0.4-3.8,1.8-4.3,4.4c-0.9,5.9-2,11.8-3.2,17.7c-1,4.7-4.2,7.2-8,6.5c-3.9-0.7-6.3-4.5-5.5-9.2
	c5.2-28.3,10.4-56.6,15.7-84.9c0.3-1.8,0.8-3.6,1.4-5.3c1.2-3.4,3.2-6.1,7.2-5.8C1582.8,947.5,1583.9,950.6,1583.9,953z"/>
<path class="st0" d="M1453.3,727.1c1.2,6.9,4.8,12.4,12.7,13.4c10.4,1.3,20.8,2.3,31.2,3c1.9,0.1,4-1.8,6.4-3.1
	c1.3,0.3,3.9,0.5,6.3,1.5c2.3,0.9,5.3,2.2,6,4c0.8,1.9-0.1,6.1-1.6,6.9c-6.6,3.5-11.6,9.7-19.8,10.8c-17.6,2.5-32.7-1.3-44.7-15
	c-2.1-2.3-4.4-4.5-6.9-6.5c-11-8.7-13.6-21.8-6.3-33.8c8.4-13.7,21.4-17.5,36.6-16.2c11.1,0.9,20.8,5.6,30,11.3
	c3.7,2.3,5.6,5.5,5,10.1c-0.1,1.1,0.6,2.3,0.9,3.5c0.7,2.3,2.7,5.6,1.8,6.8c-1.3,1.8-4.6,3-7,3
	C1487.3,727.3,1470.5,727.1,1453.3,727.1z"/>
<path class="st0" d="M1707.1,937.7c3.6,0.5,7.9,0.5,11.8,1.9c2.2,0.8,3.7,3.7,5.5,5.6c-2.1,1.3-4.1,3.2-6.4,3.6
	c-5,1-10.3,0.7-15.3,1.9c-12,2.9-20.8,10.9-28.8,19.7c-2.8,3.2-0.2,4.6,2.2,5.3c9.3,2.6,18.6,5.1,28,7.3c13.4,3.1,27,5.8,40.4,9
	c4,1,7.9,2.6,11.5,4.6c13.4,7.5,16.3,23.2,6.2,34.8c-9.1,10.6-20.8,16.7-34.8,17.2c-6.4,0.2-13-0.8-19.2-2.3
	c-5.7-1.4-7.9-5.9-6.4-10c1.5-4,5.3-5,11-3.6c3.1,0.7,6.6,0.9,9.7,0.2c9.1-1.9,17.5-5.4,24.3-12c5.8-5.7,5.2-11.4-2.5-13.6
	c-14.2-4-28.7-6.9-43.1-10.4c-9.5-2.3-19.3-4-28.5-7.2c-17.5-6.2-20-18.9-6.8-32c9-8.9,18.9-16.3,31.7-19
	C1700.6,938.1,1703.6,938,1707.1,937.7z"/>
<path class="st0" d="M219.2,868.2c-2.3,1.2-4.5,2.7-7,3.4c-4.6,1.4-9.3,3.1-13.9,3.2c-12.8,0.3-21-9.7-19-22.3
	c3.1-19.8,9.5-38.7,17.1-57.2c5.3-12.9,11.4-25.5,17.1-38.3c0.5-1.1,0.9-2.1,1.5-3.2c2-3.5,4-7.5,8.9-6.7c5,0.8,5.4,5.3,6.1,9.3
	c2.9,19.1,5.7,38.2,8.5,57.2c0.2,1.2,0.6,2.5,0.2,3.4c-0.8,1.7-2.2,4.3-3.3,4.2c-1.7-0.1-4-1.7-4.7-3.3c-1-2.3-0.6-5.2-1-7.8
	c-2.3-15.3-4.7-30.6-7.1-45.9c-0.1-0.7-0.6-1.4-1.1-2.9c-1.5,3.2-2.8,5.6-3.9,8.2c-9.1,20.9-19,41.5-23.9,64
	c-1.6,7.1-3.7,14.1-5.2,21.2c-1.3,6.1,2.6,11.1,8.9,10.9c4-0.1,8.1-1.3,11.9-2.7c4.8-1.8,9.2-4.6,14.1-6.4c5.2-1.9,9.2,1.3,8.2,6.8
	c-0.7,3.7-1.8,7.6-3.7,10.8c-15.7,26.5-34.6,50.5-55.7,72.9c-1.2,1.3-4.3,2.2-5.6,1.5c-1.6-0.9-2.6-3.5-3.2-5.5
	c-0.4-1.3,0.4-2.9,0.6-4.4c3-16.8,5.9-33.7,8.9-50.6c0.1-0.8-0.1-1.8,0.3-2.5c0.9-1.6,2.1-3.1,3.2-4.6c1.1,1.5,3.1,3,3.1,4.5
	c0,8.6-0.4,17.3-1,25.9c-0.4,5.3-1.5,10.5-1.8,16C193.1,909.6,207.1,889.8,219.2,868.2z"/>
<path class="st0" d="M443.1,152.3c-3.8,0-6.9,0-10.1,0c-5.9,0-7.7-1.9-7.6-7.9c0-3,0.2-6,0.2-9c0-0.3-0.3-0.6-0.8-1.6
	c-4.1,1-8.4,2.1-12.7,2.9c-4,0.9-8.1,1.8-12.2,2.1c-1.6,0.1-4.3-1.4-4.6-2.7c-0.5-1.7,0.3-4.9,1.5-5.6c4.6-2.8,9.5-5.8,14.6-6.9
	c15.7-3.6,30.9-8.5,43.5-18.9c5.8-4.7,11-10.3,12-18.3c0.9-6.9-2.7-11.2-9.8-11.6c-2.6-0.1-5.3,0.3-8,0.3c-1.5,0-3-0.4-4.4-1.6
	c5.8-1.9,11.5-3.5,17.4-0.9c12.6,5.5,14.7,13.8,8,25.2c-5.8,9.8-14.2,16.7-24.4,21.4c-5.9,2.7-11.9,5.2-18.3,8.1
	c6.2,2.5,5.6,7.8,5.3,12.5c-0.4,5.4,1.8,6.8,6.6,6.1c1.1-0.2,2.3-0.1,3.5-0.1c5.3-0.1,7,1.3,7.1,6.6c0.3,9.1,0.2,18.3,0.7,27.5
	c0.1,2.2,1.7,4.3,2.4,6.5c0.9,2.6,2.1,5.2,2.5,7.9c0.4,3.2,0.1,6.5,1.3,9.9c3.7-9.4,7.9-18.6,10.9-28.1c8.9-28.2,17.2-56.7,26-84.9
	c2.7-8.7,6-17.3,9.2-25.8c0.4-1,1.7-1.7,2.5-2.6c0.7,1.2,1.8,2.3,1.9,3.5c0,1.9-0.7,3.8-1.2,6.4c4.6-2.2,8.6-4.3,12.6-6
	c2.9-1.2,6-2.1,9-2.8c5.3-1.1,7,0.3,7.2,5.8c0.1,3.3,0,6.6,0,10.9c5.3-0.7,10-1.8,14.7-1.8c3.4,0,8.2,0.1,10.1,2.2
	c6.5,7.1,13.9,5.7,21.7,4.1c8.7-1.8,17.5-3.6,26.3-5.1c1.3-0.2,2.8,1.1,4.2,1.6c-1.1,1.3-2,3.4-3.3,3.7c-10.6,2.8-21.2,5.8-31.9,7.8
	c-7.7,1.4-15.2,0.3-20.8-6.6c-1.2-1.5-5.2-1.1-7.8-1.1c-4.5,0.1-8.9,0.8-13.4,0.9c-4.2,0-6.4-2.3-6.2-6.7c0.2-3.6,0-7.3,0-12.4
	c-5.4,2-10.1,3.9-14.8,5.5c-7.6,2.6-11,7.9-13.2,15.6c-8.5,30.3-17.4,60.4-26.8,90.4c-4.2,13.5-9.7,26.6-14.6,39.8
	c-1,2.6-2,5.5-5.4,4.4c-3.5-1.1-2.7-4.4-1.8-6.8c1.5-3.8,2.3-7,0.1-11.2c-1.6-3.1-0.3-7.5-0.6-11.3c-0.1-1.4-1.1-3.6-2.1-3.8
	c-5.6-1.2-6.5-5.3-6.5-9.8c0-7.8,0.2-15.6,0.3-23.5C443.4,155.3,443.2,154,443.1,152.3z"/>
<path class="st0" d="M1841,722.5c7.4-6.3,8.3-6.4,17.1-1.9c0.3,0.2,0.6,0.3,0.9,0.4c10.6,4.2,11.4,5.9,8.4,17.8
	c4.4-2.7,8.2-5.3,12.3-7.5c6.1-3.4,9.5-1.5,9,5.4c-0.4,5.3-2.2,10.4-3.6,16.3c1-0.4,2.8-0.6,3.9-1.6c1.7-1.5,2.6-4,4.4-5.4
	c1.4-1.1,3.6-1.3,5.4-1.9c0,1.9,0.7,4.3-0.2,5.7c-4.2,7.2-8.9,14.1-13.3,21.1c-0.8,1.3-1.4,2.9-1.3,4.8c5.2-5.5,10.5-10.9,15.6-16.4
	c5-5.4,9.8-10.9,14.8-16.3c0.7,0.4,1.3,0.8,2,1.2c-0.9,2.2-1.3,4.9-2.8,6.7c-13.8,15.6-27.5,31.2-41.7,46.4c-4,4.3-4.9,3.5-7.8-2.2
	c-1.1-2-3.8-3.2-5.9-5c-0.9,1-1.8,2.7-3.1,3.4c-1.8,0.9-3.9,1-5.9,1.5c0.2-1.9-0.3-4.3,0.7-5.7c5.2-7.5,11.2-14.5,16.1-22.2
	c3.8-5.9,6.4-12.6,9.6-18.9c-0.5-0.4-0.9-0.7-1.4-1.1c-4.4,3.9-8.9,7.5-13,11.7c-5.4,5.4-10.4,11.3-15.6,16.9
	c-1.1,1.2-2.1,2.8-3.6,3.4c-1.8,0.7-4.9,1.4-5.7,0.6c-1.2-1.3-1.8-4.5-1-6c2-3.9,5-7.4,7.6-11.2c-4.1,0.4-8.2,1.2-12.1,1.1
	c-7.5-0.2-10.6-3.8-10.9-11.3c-0.4-8.6,1.5-16.5,5.6-24C1829.7,720.5,1832.6,719.4,1841,722.5z M1850.4,722.5
	c-0.3-0.2-0.5-0.4-0.8-0.7c-1.2,1-3,1.7-3.6,3c-3.8,7.6-7.9,15.2-10.9,23.2c-1.8,4.6-0.2,5.9,4.8,5.7c10.1-0.5,17.4-8.8,17.8-20.2
	c0.3-7.7-0.7-8.7-8.2-8.3c-0.2,0-0.3-0.4-0.5-0.7C1849.5,723.8,1849.9,723.2,1850.4,722.5z M1838.6,759c-9.1-1.8-10.5-3.8-8.5-13
	c0.6-2.7,1.5-5.5,2.6-8c1.7-3.9,3.7-7.7,5.6-11.5c-0.4-0.4-0.8-0.8-1.1-1.2c-1.9,1.6-4.4,2.9-5.7,5c-4,6.9-5.7,14.4-5.5,22.4
	c0.1,3.9,2,5.9,5.6,6.3C1834,759.2,1836.3,759,1838.6,759z M1861,740.2c4.3-6.2,4.4-9.9,0.7-12.9
	C1861.5,731.4,1861.3,735.3,1861,740.2z"/>
<path class="st0" d="M284.6,48.2c-0.9,9.3-1.7,18.7-2.6,28c-0.3,2.8-0.2,5.8-1.2,8.3c-0.6,1.6-3,3.6-4.4,3.5c-1.5-0.1-3.7-2.4-4.1-4
	c-0.8-3.2-0.5-6.6-1.3-10c-0.6,8.6-1.2,17.1-1.6,25.7c-0.1,1.2,0.7,2.5,1.4,3.7c10.3,17.6,19.2,35.8,25.5,55.2
	c0.2,0.6,0.6,1.1,1.1,1.9c1.3-5.6,2.4-10.9,4-16.1c0.5-1.7,2.5-3,3.8-4.5c1.2,1.6,2.7,3,3.5,4.7c0.7,1.4,0.8,3.2,1.4,5.9
	c2-2.6,3.5-4.5,4.9-6.4c2-2.7,3.6-5.7,5.9-8.1c1.3-1.3,4.2-2.7,5.5-2.1c2.5,1.1,5.3,3.1,6.3,5.5c1.7,3.8-2.4,6.1-8.1,4.6
	c-2.7,3.5-5.1,7.2-8.1,10.5c-3.7,4.1-6.4,4-11.7,0.8c-1.7,3-3.5,6-5.2,9c-0.6-0.2-1.3-0.4-1.9-0.5c4.2,14.3,8.6,28.6,12.6,43
	c1.4,5.1,2,10.4,2.6,15.6c0.1,1-1.9,2.3-2.9,3.4c-1.1-1.1-2.8-1.9-3.2-3.2c-4.5-14.6-9.3-29.1-13.2-43.9
	c-6.8-25.5-17.3-49.2-30.4-72.1c-5.4-9.4-8.6-20.1-12.7-30.3c-1.1-2.7-0.9-5.5,2.3-6.7s4.9,1,6.1,3.6c0.8,1.8,1.6,3.6,3.3,5.3
	c0.6-4.2,1-8.3,1.7-12.4c0.8-4.4,1.7-8.8,2.9-13.2c1.7-6.1,4.8-6.9,10-2.2c1-4.3,2-8.5,3-12.5c0.4-1.6,0.6-3.5,1.5-4.7
	c1-1.2,3-2.7,4.3-2.5s3.4,2.4,3.3,3.6c-0.6,7.9,3.9,14,6.9,20.6c7.2,15.9,15.4,31.5,17.8,49.1c0.1,0.7,0.6,1.4,0.4,1.9
	c-0.4,1.4-1.1,2.8-1.7,4.2c-1.2-0.9-3-1.6-3.6-2.8c-1-1.9-1.3-4.1-1.6-6.2C304,82,293.7,65.5,286.5,47.7
	C285.6,48.1,285.1,48.1,284.6,48.2z"/>
<path class="st0" d="M1558.5,883.6c-1.6,4.7-3.1,7.5-3.5,10.6c-1.5,10.9,5.2,19.8,16.7,21.5c10.9,1.6,21.7,0.3,31.5-5.2
	c3.3-1.8,6.3-4.5,8.7-7.3c4.3-5.2,3.7-11.9-1.7-15.9c-5.2-3.8-10.8-7.2-16.6-10c-9.8-4.9-20-9.1-29.9-13.8
	c-10.8-5.1-11.9-12.2-2.5-19.6c6-4.7,12.6-8.7,19.1-12.7c7.9-4.9,16.8-4.8,25.7-4c1.6,0.2,3.5,0.6,4.6,1.6c1.4,1.3,2.2,3.3,3.3,5.1
	c-1.7,0.9-3.5,2.8-5.1,2.7c-16.4-1.4-29.3,5.5-41.2,16.8c2,1.1,3.7,2,5.3,2.9c12.6,6.7,25.6,12.9,37.9,20.2
	c17.2,10.3,18.7,28.1,3.8,41.5c-14.9,13.4-32.5,17.2-51.6,11.9c-15.4-4.3-24.2-18.9-20.7-32.8c1.2-5,3.7-9.4,8.5-11.7
	C1552.6,884.3,1555.1,884.3,1558.5,883.6z"/>
<path class="st0" d="M413.6,972.7c2.4-3.3,4.7-6.7,7.3-9.8c1-1.2,2.9-1.8,4.4-2.6c0.8,1.5,2.2,3.1,2.2,4.7c-0.3,5-0.6,10-1.8,14.8
	c-2.7,10.6-6,21.1-9.2,31.6c-0.5,1.7-1.7,3.3-2.6,4.9c-0.6-0.1-1.2-0.2-1.9-0.3c0-2.3-0.5-4.7,0.1-6.8c2.1-8.7,4.6-17.3,6.9-26
	c1.3-4.8,2.6-9.5,3.9-14.3c-0.5-0.2-0.9-0.4-1.4-0.7c-1.7,2.7-3.8,5.2-4.9,8.1c-3.8,9.2-7.4,18.5-10.8,27.9c-1,2.8-2,5.7-5.6,5.2
	c-3.8-0.5-4-3.4-3.6-6.4c0.1-0.7,0.1-1.3,0.1-2.7c-3.6,4.3-3.2,10.7-9.6,13.5c-1.4-10.1,3.1-18.7,4.4-29c-3.5,5.3-6,9.6-9,13.5
	c-5.2,6.5-10.3,13.1-16.2,18.9c-2.9,2.8-7.5,4.3-11.5,5c-4.6,0.8-7.8-3.2-6.5-7.6c4.5-15.7,13.3-28.7,26.6-38.1
	c2.7-1.9,7.2-1.2,10.9-1.7c0.2,0.5,0.3,1.1,0.5,1.6c1.7-2.4,3.2-5.2,5.2-7.2s4.7-4.6,6.9-4.5c1.9,0.1,3.7,3.7,5.5,5.6
	c2.8-10.7,5.8-22.3,8.8-33.9c2.1-8.5,4.1-17.2,6.2-25.7c0.3-1.3,1.6-2.3,2.4-3.4c1,1.2,2.8,2.4,2.8,3.5c-0.3,6-0.6,12-1.7,17.8
	c-2.6,13.2-5.8,26.3-8.8,39.5c-0.4,1.5-0.6,3.1-0.9,4.7C413,972.4,413.3,972.5,413.6,972.7z M380.4,985.3c-0.4-0.3-0.7-0.5-1.1-0.8
	c-7.8,5.7-13,13.4-17.4,21.8c0.4,0.3,0.8,0.6,1.2,1C368.9,999.9,374.7,992.6,380.4,985.3z"/>
<path class="st0" d="M214.2,86.6c-0.7-2.5-1.4-5-2-7.5c-1.4-6.3-3.1-12.6-4.1-19c-0.3-1.8,1.1-5,2.6-5.7c1.3-0.6,4.2,1,5.7,2.3
	c2.4,2.1,4.4,4.9,7.2,8.2c2.3-6.5,3.9-12.2,6.3-17.6c3.1-7,6.5-13.8,10.3-20.4c0.7-1.3,3.4-1.5,5.2-2.3c-0.2,1.8,0,3.7-0.7,5.3
	c-3.1,8-6.5,15.9-9.7,23.9c-1.5,3.7-2.4,7.6-3.8,11.4c-2.8,7.2-5.5,8.2-13,5c0.7,9.7,8.8,19.5,0,29.4c11.8,25.3,23.6,51.6,36.4,77.4
	c6.9,14,15.2,27.3,23.2,40.7c2.7,4.5,6.5,8.4,9.7,12.7c1.9,2.5,3.5,5.3,0.5,7.9c-3.1,2.7-6,1.1-8.3-1.4
	c-10.4-11.1-19.3-23.4-25.9-37.2c-10.6-22.4-20.5-45.1-30.9-67.7c-7.5-16.3-15.1-32.6-22.7-48.9c-1-2.1-2.3-4.3-2.4-6.5
	c-0.1-1.8,1.4-3.7,2.1-5.5c1.9,0.9,4.4,1.3,5.6,2.8c1.8,2.3,2.5,5.4,3.9,8.1c0.9,1.8,2.3,3.4,3.4,5
	C213.4,86.9,213.8,86.8,214.2,86.6z"/>
<path class="st0" d="M233.9,362.3c0.2,3.5,0.7,6.9,0.5,10.3c-0.8,13.6-1.9,27.2-2.8,40.8c-0.1,1.6,0.2,3.2,1.1,4.9
	c0.6-5.2,1.2-10.5,2-15.6c1-6.7,2.6-7.6,8-5.9c1.7-11.8,3.4-23.8,5.2-35.8c0.3-2.1,0.7-4.5,1.9-6.1c1.4-1.7,3.8-2.5,5.7-3.6
	c0.8,2.1,2.3,4.3,2.1,6.3c-1,12.2-2.5,24.4-3.6,36.6c-0.2,2.7-1.1,6.5,3.2,7.3c3.9,0.7,6.3-1.8,7.6-5.1c6.4-16,9.4-32-1.7-47.5
	c-2.5-3.5-1-6.3,3.4-5.8c2.8,0.3,6.3,1.6,7.7,3.7c3.1,4.4,6.4,9.4,7.1,14.4c1.9,13.5,0.4,26.9-5.7,39.4c-4,8.1-10.3,12.7-19.6,11.3
	c-3.7-0.6-7.2-2.6-10.6-4c-1.7,8-3.5,17-5.7,26c-0.8,3.2-2.1,6.3-3.4,9.3c-1.6,3.5-4.4,5.6-8.4,4.6c-3.8-1-5.2-4.1-5.1-7.7
	c0.3-10,0.4-20,1.3-29.9c1.2-13.6,3-27.1,4.8-40.6c0.3-2.6,1.5-5.1,2.3-7.7C232.2,362.1,233.1,362.2,233.9,362.3z"/>
<path class="st0" d="M363.3,406.8c4.9,2.3,5.5,4.4,7,22.5c2-10.4,3.9-19.6,5.4-29c0.6-3.3,1-6.7,5.3-6.5c4.1,0.2,4.7,3.7,4.8,7
	c0.2,7.2,0.1,14.3,0.2,21.5c0,1.8,0.2,3.5,0.2,5.3c0.4,0,0.8,0,1.3,0.1c0.5-5.3,0.9-10.5,1.4-15.8c0.6-6.3,1.3-12.6,2.2-18.8
	c0.2-1.3,1.7-2.4,2.6-3.6c1.4,1,3.5,1.8,4,3.2c1.1,3.1,1.8,6.4,2,9.7c0.9,14.7,0.3,29.3-3.8,43.5c-0.5,1.7-1.2,3.5-2.1,5
	c-3.4,5.5-9.8,5.5-12.7-0.3c-1.8-3.6-2.7-7.6-4.2-12.2c-1,4.6-1.6,8.7-3,12.5c-0.9,2.6-2.5,5.1-4.4,7.1c-0.8,0.9-3,0.5-5,0.7
	c1.3-4.4,2.3-7.9,3.4-11.3c-0.2-0.1-0.4-0.2-0.6-0.3c-1.2,1.8-2.4,3.8-3.7,5.5c-4.1,5.2-9.4,7.2-15.9,5.4
	c-5.9-1.7-10.6-6.6-10.6-13.1c0.2-12.1,1.2-24.2,1.9-36.3c0.1-1.3,0.5-3,1.3-3.6c1.7-1.2,3.9-1.8,5.8-2.6c0.8,1.9,2.4,3.9,2.3,5.8
	c-0.6,10.8-1.6,21.5-2.4,32.2c0,0.5,0,1,0,1.5c0.5,3.1,0.9,7.1,4.9,6.9c2.3-0.1,5.5-2.5,6.6-4.7c4.9-9.9,5.6-20.8,5.3-31.7
	c0-1.7-0.1-3.3-0.1-5C362.7,407.3,363.1,407,363.3,406.8z"/>
<path class="st0" d="M1730,911.6c2.1-0.5,4.5-0.7,6.4-1.7c3.9-2.1,8.1-4.2,11.3-7.3c11.9-11.3,23.8-22.8,35.1-34.7
	c3.7-3.9,6.5-9,8.5-14c1.7-4.3,1.4-9.2,2.2-14.7c3.3-1.2,6,0.7,7.3,4.7c2.4,6.9,2.1,14.1-1.1,20.5c-3.7,7.4-7.6,15-13.2,21
	c-10.3,11.2-21.4,22-33.2,31.6c-5.6,4.6-13.4,7.5-20.6,9.2c-10.1,2.3-18.2-4.8-17.6-15.1c1.5-21.9,12.3-38.6,30.7-50.3
	c2.1-1.3,5.1-1.6,7.6-1.6c1.2,0,3.1,1.6,3.4,2.8c0.2,0.9-1.4,2.8-2.6,3.4c-12.6,6.4-26.4,30.4-25.2,44.2
	C1729.2,910,1729.5,910.5,1730,911.6z"/>
<path class="st0" d="M1413,1021.5c-0.2-11.9,1.3-23.6,6-34.7c1.1-2.6,2.2-5.8,5.8-4.7c3.5,1.1,3.2,4.2,2.4,7.1
	c-3.4,12.7-3.5,25.7-2.3,38.7c1,11.3,8.2,19.7,17.1,20.4c6.1,0.5,10.6-1.9,14.4-6.4c10.1-12.1,14.5-26.4,15.5-41.9
	c0.5-7.3,0.4-14.6,0.5-21.9c0.1-3.1,3.7-4.8,6.1-2.3c2.3,2.3,4.6,5.6,5.2,8.7c3.7,22.6-0.2,43.8-13.8,62.6
	c-7.7,10.8-17.8,17-31.7,14.3c-14-2.7-24.5-16-25.3-31.5C1412.9,1027.1,1413,1024.3,1413,1021.5z"/>
<path class="st0" d="M289.5,1015.8c2.1,8.8,3.3,9.8,11.3,7.9c4.1-1,8.3-2.6,12-4.8c14.6-8.3,25.2-20.5,33.7-34.8
	c4.1-6.8,4.5-14.2,3.2-21.8c-1.2-7.1-5.6-10.9-12.5-11.4c-11.8-0.8-22.8,1.9-33.1,7.6c-1.4,0.8-2.5,2.6-3,4.1
	c-7.6,24.5-15,49-22.6,73.4c-0.4,1.4-1,3-2,3.9c-0.9,0.8-2.7,1.4-3.9,1.2c-0.9-0.2-2-2-2-3c0.1-2.3,0.8-4.6,1.5-6.8
	c7.3-22.6,14.9-45.2,21.9-67.9c1.8-5.7,3.1-9.7,9.6-12.5c11.1-4.7,22-8.4,34.1-7.5c11.8,0.8,19.1,8.3,20.1,20.1
	c0.9,10.1-0.9,19.5-6,28.3c-8.5,14.9-19.7,27.2-34.1,36.4c-6.2,4-13,6.5-20.7,6.5c-4.9,0-9-1.1-11.2-5.8
	C283.7,1024.2,285.5,1020,289.5,1015.8z"/>
<path class="st0" d="M118,417.1c1.2-2.8,2.6-6.4,4.3-9.8c3.1-5.8,7.8-9.5,14.7-9.5c6.4,0,9.7,4.4,11.7,9.4
	c2.7,7.1,5.5,14.4,6.6,21.8c4.1,28.6-5.2,53.5-22.6,75.8c-2.5,3.1-6.2,5.7-9.8,7.3c-2.2,1-6.3,0.3-8.2-1.2c-1.6-1.3-1.7-5-1.7-7.6
	c0-2,1-4,2.5-6.1c0.6,1.7,1.2,3.4,2.1,5.8c1.8-1.4,3.8-2.3,5.1-3.9c18.2-23,29.7-48.2,24.1-78.4c-0.9-4.8-3.3-9.4-5.4-13.9
	c-1.4-3.2-4.2-4.1-7.5-3.3c-6.5,1.6-15.8,14.4-13.2,20.4c2.6,6.1,2.3,12,2,17.9c-0.8,15.5-2.2,30.9-3.6,46.3
	c-0.1,1.6-1.9,3.1-2.9,4.6c-1.3-1.5-3.5-2.9-3.6-4.4c-1.1-11.6-2-23.2-2.5-34.9c-0.4-10.5-0.2-21-0.1-31.5c0-1.9,0.8-4.6,2.2-5.5
	C113.3,415.5,115.8,416.7,118,417.1z"/>
<path class="st0" d="M1792.1,746.1c-5.4-7-10.8-10.5-17.5-12.2c-5.5-1.3-11.1-2.5-16.3-4.6c-9.7-3.9-12.6-13.5-5.6-21.3
	c4.6-5.1,10.8-9.7,17.1-12.2c6.9-2.7,14.9-3,22.5-3.8c5.1-0.5,7.9,3,6.7,7.9c-0.4,1.4-3.2,3.4-4.5,3.2c-14.2-2.3-19.9,9.2-27.8,16.9
	c-0.5,0.5,0.4,3.6,1.5,4.2c4,2.4,8.2,4.2,12.5,6.4c-0.3,0.2-0.8,0.6-1.5,1.2c5.8,2.7,11.4,5.3,17.5,8.2c0-1.9,0-3.4,0-5
	c3.3,2.8,4.5,11,2.3,14.8c-0.8,1.4-1.8,3-1.7,4.4c0.3,6-2.6,10.2-7.2,13.5c-7.4,5.3-15.7,7.2-24.6,6c-2.1-0.3-4.5-0.8-6.1-2
	c-5.8-4.4-10.4-10.2-17-13.8c-3-1.7-3.4-5.8-1.5-9.8c1.3,1.1,2.3,1.9,2.9,2.4c-0.3-3.1-0.8-6.5-0.9-10c0-0.9,1.4-1.9,2.2-2.9
	c0.8,0.7,1.9,1.3,2.4,2.2c1.7,3,2.9,6.4,4.9,9.2c4.1,5.6,9.7,8.3,16.6,6C1776.4,752.5,1783.7,749.4,1792.1,746.1z M1789.6,758.5
	c-9.2,1.8-18.7,3.8-28,5.7C1770.4,768.1,1784.4,765.1,1789.6,758.5z"/>
<path class="st0" d="M439.7,847.1c0,2.5,0.6,5.1-0.1,7.4c-4.4,15-27,31.1-42.6,30.5c-7.2-0.3-11.3-4-11.1-11.2
	c0.6-26.1,10.6-48.7,28.4-67.3c11.1-11.7,26-11.3,40.7-8.1c4.4,1,6.4,5.3,4.4,9.5c-1.7,3.7-4.2,7.3-7.1,10.1
	c-14.3,14-31.7,23.6-49,33.3c-1.4,0.8-3.1,0.9-6,1.6c-0.5,6.1-1.2,12.8-1.4,19.5c0,0.9,2.9,3,3.8,2.7c5-1.6,10.4-3,14.5-6
	c6.7-5.1,12.6-11.3,18.7-17.2c1.8-1.7,3.3-3.7,4.9-5.5C438.5,846.7,439.1,846.9,439.7,847.1z M400,845.3c0.3,0.3,0.6,0.7,1,1
	c9.9-6.2,19.9-12,29.5-18.6c6.7-4.6,12.8-10,18.9-15.4c2-1.8,3.2-4.6,5.3-7.7c-13.7-2.5-25.6-2.8-35.5,6.5
	C409.1,820.4,403.8,832.4,400,845.3z"/>
<path class="st0" d="M1378.9,855c-3.5-3-2.2-6.8,0.4-9c5.1-4.4,10.4-9.9,16.5-11.6c27.2-7.5,48-3.4,65.2,18.9
	c8.1,10.4,15.1,21.5,16.3,35.3c0.5,5.7-0.3,11-3.5,15.7c-10.5,15.3-23.6,28-40.4,36.4c-3.7,1.8-8.3,2.2-12.5,2.3
	c-1.7,0-3.4-2.4-5.2-3.7c1.4-1.2,2.6-3.1,4.2-3.7c17.2-6.3,29.7-18.5,41.5-31.9c6.2-7.1,7.9-15,5-23.7c-5.2-15.2-13.1-29.1-28-36.2
	c-17-8.2-34.7-8.4-51.2,2.5C1384.3,848.3,1382.1,851.6,1378.9,855z"/>
<path class="st0" d="M1673.1,912.2c4.9-1.2,9.8-2.3,14.6-3.8c3.1-1,3.6,0.1,3.4,2.7c-0.4,4.7-3.2,7.8-7.1,9.5
	c-10.6,4.7-21.4,4.7-31.8-0.5c-7.6-3.8-11.8-12.6-9.6-21.7c1.8-7.3,3.8-15.2,8-21.2c7.8-11.1,16.9-21.3,26.3-31.2
	c7.7-8.1,17.9-8,28-5.3c6.7,1.8,9.5,8,6.6,13.7c-0.6,1.1-2,2.1-3.3,2.3c-0.5,0.1-2.1-1.8-2.1-2.8c0-4.2-2.6-4.7-5.9-5.1
	c-7.5-0.9-14,1-18.7,7c-7,9-14.3,18-20.4,27.6c-3.1,4.8-4.3,11.1-5.3,16.9c-1.1,6.2,0.8,8.3,7.2,9.8c3.2,0.7,6.6,0.8,9.9,1.1
	C1672.9,911.7,1673,912,1673.1,912.2z"/>
<path class="st0" d="M1594.3,778.8c-0.1,2,0,3.8-0.4,5.5c-0.4,1.4-1.4,2.5-2.2,3.8c-0.6-1.4-1.8-2.7-1.7-4.1c0.3-8,0.8-16,1.4-23.9
	c0.7-8.8,1.8-17.7,2.4-26.5c0.3-4.9,0.1-9.8,0.1-14.7c-7.8-2.8-9.1-9.6-2.9-16.3c7.9-8.6,18.1-13.1,29.5-13.7
	c11.2-0.6,22.5,0.1,33.8,0.6c5.9,0.3,9.9,7.4,7.1,12.6c-1.7,3.2-4.1,6.1-6.8,8.5c-14.2,13-29.7,24.2-47.8,31.2
	c-2.9,1.1-3.9,2.7-3.9,5.9c0,9.2-0.2,18.3-0.7,27.4C1601.6,781.4,1599.9,782.1,1594.3,778.8z M1653.8,695.4
	c-0.5-0.3-1.1-0.8-1.7-0.9c-15.3-2.2-30.5-2.7-45.1,3.8c-1.5,0.7-3.3,2.8-3.4,4.4c-0.8,9.8-1.2,19.7-1.7,29.4
	C1617.9,734.9,1650.6,711.1,1653.8,695.4z M1597.2,765.7c0.5,0,0.9,0,1.4,0c0-4.8,0-9.6,0-14.5c-0.2,0-0.4,0-0.6,0
	C1597.7,756.1,1597.4,760.9,1597.2,765.7z M1595.3,713.2c1-2.8,2.1-5.6,3.4-9C1593.5,707.6,1592.8,709,1595.3,713.2z"/>
<path class="st0" d="M395.1,93c-1.2,2.6-2.5,4.4-2.8,6.3c-4.5,27.9-8.9,55.7-13.3,83.6c-0.3,2-0.4,4.2-1.4,5.8
	c-1.1,1.7-3.2,2.7-4.9,4.1c-1.1-2-3.4-4-3.2-5.9c0.7-6.9,2.7-13.7,3.4-20.6c2-19.7,3.6-39.4,5.2-59.1c1.4-17.2,2.5-34.5,3.9-51.7
	c0.1-1.5,2.2-4.2,3.1-4.2c3.5,0.3,8.8-2.3,9,5.2c1.4-1.8,2.4-2.9,3.3-4.1c-5.3,12.7-2.9,26.1-4,39C393.3,92.1,395,92.9,395.1,93z"/>
<path class="st0" d="M97.4,573c3.8-0.8,7-1.8,10.2-2c6.8-0.4,10.1,2.4,11.2,9.3c1.7,10.6,1.5,21.3-1.1,31.7
	c-3.1,12.1-6.6,24.1-9.9,36.1c-0.3,1.1-0.7,2.2-1.2,3.3c-1.3,2.6-3.4,4.9-6.2,3.2c-1.5-0.9-2.6-4.3-2.1-6.2
	c2.8-11.3,6.1-22.5,9.2-33.7c3.2-11.5,4.4-23.1,2.2-34.9c-7.6-1.7-12.8,2.2-12.8,9.2c0,17.3,0,34.7-0.1,52c0,1.3,0.4,2.9-0.2,3.9
	c-0.9,1.5-2.5,3.6-3.9,3.7c-1.4,0.1-3.3-1.7-4.3-3.1c-0.8-1.1-0.5-2.9-0.5-4.4c0.2-18.7,0.3-37.3,0.5-56c0.1-6.2,0-12.5,0.6-18.7
	c0.2-1.9,2.1-5,3.7-5.3c3.4-0.7,4.2,2.3,4.4,5.2C97.2,568.6,97.3,570.7,97.4,573z"/>
<path class="st0" d="M214.3,358c0,2.5,0.5,5.1-0.1,7.4c-2.8,12.1-5.9,24.2-8.9,36.3c-0.5,2.2-1.1,4.3-1.4,5.6
	c3.4-1,7.3-3.6,10.1-2.8c4.7,1.5,3.6,6.8,3.8,10.9c1.2,22.7-3.9,44.6-7.5,66.7c-0.6,3.4-1.1,6.9-1.5,10.4c-0.4,3.8-1.4,7.1-5.9,7.2
	c-3.6,0.1-5.8-3-4.9-8.1c1.5-9.7,3.6-19.3,5.4-28.9c2.5-14,6.3-27.9,5.3-42.4c-0.5-0.5-0.9-0.9-1.4-1.4c-0.5,1.2-0.9,2.4-1.6,3.5
	c-1.4,2.2-3,4.4-4.6,6.5c-2.2,2.9-4.5,6.7-8.8,4.5c-4.1-2.1-2.6-6-1.6-9.4c6.3-21,12.7-42,19.2-62.9c0.4-1.3,1.7-2.4,2.6-3.5
	C213.1,357.7,213.7,357.9,214.3,358z"/>
<path class="st0" d="M184.3,538.8c-1.2,4.2-2.3,8.4-3.5,12.7c-0.6,2.1-1.2,4.2-1.9,6.2c-1,2.9-2.2,6-6.1,5.3c-3.8-0.7-4.1-4-4.1-7
	c-0.1-4.3,0-8.6-1-13c-0.2,6.8-0.5,13.5-0.7,20.3c-0.1,1.7,0.4,3.5-0.1,5c-0.7,1.8-2.2,3.2-3.3,4.9c-1.4-1.6-3.9-3.2-3.9-4.7
	c0.2-10,0.4-20,1.8-29.8c1.1-7.7,3.5-15.2,5.9-22.7c0.6-1.9,3.2-3.2,4.9-4.8c1,2,2.5,4,2.8,6.1c0.6,6,0.7,12.2,1.7,18.4
	c2.1-5.7,3.9-11.6,6.4-17.1c1-2.1,3.7-3.5,5.7-5.2c1.4,2.3,3.6,4.4,3.9,6.8c2.2,17.3,4.1,34.7,6.1,52c0.3,3,0.3,6.1-3.4,6.7
	c-3.5,0.6-5.1-2-5.5-5.1c-1.4-10.2-2.7-20.4-4.1-30.6c-0.2-1.4-0.3-2.8-0.4-4.2C185,538.9,184.7,538.8,184.3,538.8z"/>
<path class="st0" d="M427.5,258c-6.3,4-11.9,7.3-17.1,11c-4.6,3.3-8.8,7.2-13.3,10.6c-2.1,1.6-4.4,3.1-6.8,4.1
	c-8,3.4-14.5,0.1-13.6-9.1c0.3-3.6,0-7.2,0-12c-4,1.3-7.5,1.6-10.1,3.3c-8.5,5.5-16.7,11.4-25,17.3c-4,2.9-7.6,6.5-11.8,9.2
	c-1.2,0.8-3.5-0.1-5.2-0.2c0.7-1.7,0.9-4,2.1-4.9c10.1-7.4,20.1-14.9,30.7-21.5c5.4-3.4,11.7-5.2,17.9-7.2c4.3-1.4,7,1.1,7.8,5.4
	c0.4,2.6,0.5,5.3,0.8,7.9c0.2,1.7,0.3,3.5,0.6,6.4c3.5-1.7,6.2-2.8,8.6-4.4c6.8-4.5,13.4-9.3,20.2-13.8c2.3-1.6,4.8-3,7.3-4.3
	c9.2-4.4,12.4-3,15.2,6.7c2.9,9.9,5.7,11.3,17.2,8.8c4.4-0.9,8.8-2.1,13.2-2.6c10.9-1.2,21,1.2,30.7,6.6c7.5,4.2,15.7,7.2,23.5,10.8
	c1.8,0.8,3.4,1.7,5.7,2.9c-3.4,3.8-7.1,3.6-10.4,2.3c-7-2.7-14-5.4-20.4-9.2c-12.6-7.6-25.5-9.1-39.3-4.5c-0.9,0.3-1.9,0.5-2.9,0.6
	c-17.9,2.7-20.8-1.1-24.2-15C428.7,262.1,428.3,260.9,427.5,258z"/>
<path class="st0" d="M186.8,655.7c0.7-8.9,1.3-17.8,2-26.8c0-0.5-0.1-1.1,0.1-1.5c1.4-2.2,2.8-4.3,4.2-6.5c1.3,2,3.5,4,3.9,6.2
	c2.4,14.7,0.1,29.2-3.2,43.5c-0.5,2.2-3.3,4.9-5.4,5.3c-1.6,0.3-4.8-2.2-5.7-4.2c-2.7-6.2-4.6-12.8-6.8-19.2c-0.5-1.5-1-3-2.4-4.4
	c-0.5,6-1.1,12.1-1.4,18.1c-0.2,5.5-0.1,11-0.1,16.5c0,3.3-0.8,6.3-4.8,6.2c-3.6-0.1-4.5-3.1-4.3-6.1c1.1-18.2,2.2-36.5,3.5-54.7
	c0.2-3.5,0.9-6.9,1.5-10.3c0.5-2.8,1.8-5.7,5-4.8c1.7,0.5,3.5,3.2,4,5.3c2.9,12.6,5.3,25.2,7.9,37.8
	C185.4,655.9,186.1,655.8,186.8,655.7z"/>
<path class="st0" d="M247,644.8c6-8,11.5-16,11-26.6c-0.2-4.2,0.9-8.6,2.4-12.6c0.6-1.7,3.8-2.5,5.8-3.6c1,1.9,2.8,3.7,2.8,5.6
	c-0.1,7.8,0.9,16.2-1.5,23.2c-2.9,8.5-8.5,16.3-13.9,23.6c-2.8,3.7-8.2,3.3-12.6,1.4c-4.3-1.8-5.5-5.7-5.3-9.9
	c0.2-4.8,0.1-9.8,1.4-14.3c4.7-15.9,9.8-31.7,15-47.5c1-2.9,3.1-5.5,5.2-7.9c2.5-2.8,5.9-3.2,9-1.3c1.2,0.7,2.2,2.6,2.3,4
	c0,1-1.6,2.2-2.6,3.2c-1.2,1.2-3.1,2-3.9,3.4c-9.4,18-14,37.3-15.3,57.4C246.8,643.5,246.9,644.1,247,644.8z"/>
<path class="st0" d="M1554,728.9c3.5,3.3,6.7,6.8,10.4,9.5c1.8,1.3,4.7,1.3,7.1,1.5c6.1,0.3,6.7,1,5.3,6.9c-0.2,0.8,0.6,1.8,0.4,2.7
	c-0.3,1.8-0.3,4.3-1.5,5.2c-1.2,1-3.6,0.7-5.4,0.4c-1-0.1-2.1-1-2.9-1.9c-6-6.6-14.3-8.8-22.4-11c-1.2-0.3-3.1,0.5-4,1.5
	c-4.1,4.2-7.9,8.7-12.1,12.8c-1,1-3.1,0.9-4.7,1.2c-0.1-1.7-0.8-3.8-0.1-4.9c3.5-5.3,7.4-10.2,12-16.5c-1.4-0.9-3-1.8-4.4-2.9
	c-6.3-5.1-8.1-12.3-8.5-19.8c-0.1-1.4,2.8-4.4,4.2-4.3c3.3,0.2,6.9,1.1,9.6,3c4.2,2.9,7.7,6.8,11.1,9.9c4.9-4.5,9.6-9.2,14.6-13.5
	c4-3.4,8.3-6.6,12.8-9.4c1.2-0.7,3.3,0.2,5.1,0.3c-1,1.2-1.9,2.5-3,3.6c-1.5,1.5-3.3,2.8-4.7,4.4
	C1566.6,714.5,1560.6,721.4,1554,728.9z"/>
<path class="st0" d="M354.1,167.9c5.1-0.6,6.3,2,6,6c-0.6,6.6-1,13.2-1.5,19.9c6.5-0.5,7.6,0.4,7.4,7c-0.1,4.3-0.5,8.7-1.4,12.9
	c-0.3,1.4-2.5,2.4-3.9,3.5c-0.9-1.6-2.4-3.1-2.4-4.6c0-2.6,1-5.1,0.7-8.1c-1.4,2-2.6,4.2-4.3,5.8c-1,1-3.1,1.8-4.2,1.4
	c-1.1-0.4-2.5-2.9-2.1-3.8c4.3-9.4,0.4-18.6-0.6-27.9c-0.3-3-0.7-6-0.7-8.9c0-36.5,0-73,0.1-109.4c0-2-0.2-4.1,0.4-5.9
	c0.6-1.6,2.2-2.8,3.4-4.2c1.1,1.5,2.4,2.8,3.1,4.4c0.5,1.3,0.1,3,0.1,4.5c0,33.6,0,67.3,0,101C354.1,163.2,354.1,165.2,354.1,167.9z
	"/>
<path class="st0" d="M1526.2,1028.9c2.2,0,4.3-0.2,6.5,0.1c1.2,0.1,2.8,0.8,3.2,1.6c0.4,0.9-0.1,2.9-0.9,3.5c-2.1,1.8-4.4,3.8-7,4.6
	c-9.8,2.9-19.7,3.1-29.4-0.7c-8.7-3.4-12.6-10.1-11-19.4c3.2-18.8,14.8-32.4,28.9-44.1c4.6-3.8,9.9-6.8,15.1-9.5
	c1.6-0.8,4.1,0.3,6.2,0.6c-1,1.8-1.6,4.1-3.1,5.2c-15.1,11.6-27.5,25.2-33,43.9c-2.7,8.9-1.4,11.1,7.6,12.8
	c5.5,1.1,11.2,1.3,16.8,1.9C1526.2,1029.2,1526.2,1029.1,1526.2,1028.9z"/>
<path class="st0" d="M264.4,834.4c3.1-1.1,5.4-2,7.7-2.6c0.8-0.2,1.9,0.2,2.8,0.3c-0.2,1,0.1,2.5-0.5,3c-2.9,2.7-5.7,5.7-9.1,7.6
	c-3.2,1.8-4.9,4-5.8,7.5c-5.9,22.8-12.1,45.6-18.1,68.4c-0.3,1.1-0.2,2.6-0.9,3.3c-1.1,1.2-3.1,3.1-4,2.7c-1.5-0.5-3.1-2.6-3.3-4.1
	c-0.2-2.6,0.4-5.3,1.1-7.8c5.3-18.9,10.7-37.7,16-56.6c0.5-1.7,1-3.5,1.8-6.1c-2.5,0.9-4.4,1.7-6.3,2.3c-2.5,0.7-5.1,1.7-7.7,1.7
	c-1.4,0-2.8-1.7-4.2-2.7c1-1.1,1.8-2.7,3-3.3c4.9-2.4,10.2-4.2,15-6.7c1.8-0.9,3.6-3,4.2-5c6-18.2,11.6-36.4,17.6-54.6
	c0.5-1.6,2.5-2.8,3.8-4.1c0.6,1.9,2.1,4,1.6,5.6c-4.1,14.9-8.6,29.7-12.9,44.6C265.8,829.7,265.2,831.7,264.4,834.4z"/>
<path class="st0" d="M201.2,538.8c0.9-9.8,1.6-19.5,2.6-29.3c0.4-3.9,1.7-7.8,6.5-8.3c8.9-1,11.1-0.2,13.4,6.1
	c3.9,10.7,3.6,22,2.7,33.1c-0.5,5.9-1.5,11.9-3.3,17.6c-2.1,6.7-6.7,9.6-12.1,9c-5.4-0.6-8.9-4.5-9.4-11.7c-0.4-5.5-0.1-11-0.1-16.5
	C201.4,538.8,201.3,538.8,201.2,538.8z M215.3,508c-3.3,14.5-3,29.2-2.1,43.9C216.6,537.4,218,522.8,215.3,508z"/>
<path class="st0" d="M663.2,33.4c-3.4-0.6-6.1-1-8.8-1.5c0-0.2,0-0.5,0-0.7c3.6-0.5,7.2-1.1,10.8-1.5s5,1.3,4.1,4.8
	c-0.3,1.3-0.8,2.5-1.5,3.7c-12.7,23.3-20.5,48.4-27.6,73.7c-7.2,25.9-17.9,50.4-30.4,74.2c-6.1,11.6-10.7,23.9-16.1,35.9
	c-1.2,2.5-3,4.7-4.6,7.1c-0.6-0.2-1.2-0.4-1.8-0.6c0-2.5-0.7-5.3,0.1-7.4c4-10.1,7.5-20.7,13-30.1c17.2-29.2,29.8-60.1,38.5-92.8
	c5.7-21.4,12.7-42.5,23.5-62C662.8,35.4,662.9,34.5,663.2,33.4z"/>
<path class="st0" d="M1448.6,130.8c-5.8-0.8-9.6-5.2-10.6-10.3c-3.8-20.3,1.5-37.5,17.3-51.3c11.5-10.1,22.8-20.7,37.2-26.6
	c5.5-2.2,11.8-2.8,17.9-3.5c2.2-0.3,5,0.8,6.9,2.2c1.3,0.9,1.6,3.3,2.3,5c-1.6,0.6-3.2,1.9-4.7,1.6c-11.2-1.8-20.9,2-29.5,8.4
	c-9.9,7.5-19.6,15.5-28.7,24c-7.9,7.3-11.3,17.1-11.7,27.8C1444.8,115.8,1443,123.7,1448.6,130.8z"/>
<path class="st0" d="M129.4,599c4.2-6.1,7.8-11.5,11.6-16.6c1.8-2.4,3.8-4.7,6.2-6.3c2.8-1.9,5.1-0.5,4.7,2.8
	c-0.3,2.7-1.2,5.6-2.7,7.9c-5.4,8.4-11.3,16.5-16.7,24.8c-1.6,2.5-2.3,5.7-3.6,8.4c-0.7,1.5-1.8,3.6-3,3.7c-1.2,0.2-3.4-1.5-3.8-2.8
	c-0.8-2.8-0.9-6-1-9c0-2.1,0.7-4.3,0.7-6.4c0.1-14.7,0-29.3,0.2-43.9c0-2.4,1.7-6.7,2.4-6.7c4.1,0.2,2.8,4.1,3.2,6.6
	c0.4,2.4,0.4,4.8,0.6,8.7c3.3-5.3,5.7-9.6,8.4-13.6c1.9-2.8,3.8-5.6,6.3-7.7c1.3-1.1,4.1-0.4,6.2-0.5c-0.2,2.1,0.3,4.6-0.7,6.2
	c-4.4,6.7-8.9,13.2-13.9,19.4C128.9,581.3,128,589.2,129.4,599z"/>
<path class="st0" d="M1664.6,736.8c-3-0.1-5.7-0.3-8.7-0.4c-0.7,1.3-1.2,2.9-2.2,3.8c-1.1,0.9-2.8,1.2-4.2,1.8
	c-0.4-1.5-1.5-3.2-1.1-4.3c2.6-6.3,5.6-12.4,8.2-18.7c9.5-22.3,19-44.6,28.4-67c0.8-1.9,0.3-4.3,1.2-6.2c0.5-1.2,2.3-1.9,3.5-2.8
	c0.6,1.4,1.8,2.8,1.7,4.2c-0.1,2.3-0.9,4.5-1.4,6.5c1.1,0.7,2.8,1.5,2.8,2c-0.8,5.5-0.9,11.4-3.2,16.3
	c-9.5,20.5-19.6,40.8-24.2,63.2C1665.4,735.9,1664.9,736.4,1664.6,736.8z"/>
<path class="st0" d="M471.8,906.8c-1.4,7.3-2,14.9-4.2,21.9c-9.5,31.2-18.4,62.6-23.8,94.8c-0.2,1.1-0.4,2.4-1.1,3.3s-2,2.1-3,2.1
	s-2.6-1.3-2.8-2.2c-0.5-2.2-0.9-4.7-0.4-6.8c7.2-29.2,14.3-58.5,22-87.5c3-11.2,5.6-22.2,5.5-33.8c0-1.8,1.9-3.6,2.9-5.3
	c1.3,1.7,3.2,3.2,3.6,5.1c0.6,2.7,0.2,5.6,0.2,8.5C471,906.6,471.4,906.7,471.8,906.8z"/>
<path class="st0" d="M1377.5,865.8c0.9,0.7,2.9,1.8,4.4,3.4c9.2,10.5,15.9,22.5,20.6,35.6c3.3,9.3,6.2,18.8,9,28.3
	c0.3,1.2-0.3,3.4-1.1,3.9c-1.4,0.8-3.7,1.1-5,0.4c-1.8-0.9-3.5-2.7-4.5-4.5c-5.5-9.6-11.3-19.1-16-29.2
	c-4.8-10.2-8.4-20.9-12.4-31.5C1370.9,867.9,1372.3,865.7,1377.5,865.8z"/>
<path class="st0" d="M1733.8,722.6c-1-1.9-1.5-2.8-2.3-4.2c-6.6,13.1-16.9,22.1-29.3,27.9c-5,2.3-12.1,0.4-18.3-0.2
	c-1.2-0.1-3-2.8-2.9-4.1c0.5-5.9,0.8-12,2.7-17.4c1.7-4.9,5.4-9.1,8.3-13.5c5.5-8.4,8.9-9.1,17.5-4.1c1.1,0.6,2.5,0.8,3.7,0.9
	c1.3,0,2.6-0.4,3.9-0.6C1730.4,705.3,1733.2,707.7,1733.8,722.6z M1700.2,718.3c-7.6,2-9,7.8-9.4,14.2c-0.4,5.8,0.2,6.6,6.1,7.1
	c11.3,1.1,29-12.4,32.2-25.8c-5.3,0-10.3,0.1-15.3,0c-5.2-0.1-7.4,2.7-7.9,7.6c-0.3,2.8-1.1,5.5-1.7,8.3c-0.8,0-1.5,0-2.2,0
	C1701.4,726,1700.8,722.3,1700.2,718.3z"/>
<path class="st0" d="M581.8,218.2c-1.6,1.3-3,3.1-4.8,3.7c-7,2.2-14.2,1.8-19.9-3c-9.5-8-19.5-6.6-30-3.2c-4,1.3-8.4,1.9-12.6,2.3
	c-3.9,0.4-5.8-2-5.6-5.9c0.3-4.6,0.7-9.2,1.2-14.6c-11.6,2.6-21.1,7.6-30,15c-2.2-2-1.9-4.6,0.2-6.5c8.5-7.9,18.5-12.9,30.1-14.2
	c3.8-0.4,5.5,1.9,5.6,5.4c0.1,4.3,0,8.6,0,13.8c3.2-0.9,5.3-1.7,7.5-2.2c6.6-1.4,13.3-3.2,20-3.6c3.9-0.2,8.5,1,11.7,3.2
	c6.6,4.5,13.4,7.1,21.3,7.4c1.6,0.1,3.2,0.7,4.7,1C581.3,217.4,581.6,217.8,581.8,218.2z"/>
<path class="st0" d="M244.2,521.1c1.1-3,2-6.2,3.6-9c0.7-1.3,2.7-1.9,4.1-2.9c0.8,1.4,2.1,2.6,2.2,4c0.9,12.7-3.4,23.9-10.4,34.2
	c-1.1,1.6-4.4,2.7-6.4,2.3c-1.6-0.3-3.6-3-3.9-5c-0.6-3.4-0.2-7-0.1-10.4c0.2-11.1,0.7-22.3,0.7-33.4c0-4.8-0.9-9.6-1.6-14.3
	c-0.4-2.6-1.3-5.6,2-6c1.5-0.2,4.4,2.5,4.8,4.2c1.6,7.2,2.8,14.6,3.6,22c0.5,4.6,0.1,9.4,0.1,14.1C243.4,521,243.8,521,244.2,521.1z
	"/>
<path class="st0" d="M1502.4,895.4c1.4-6.3,2.4-11.4,3.7-16.4c3.8-14.8,7.7-29.6,11.9-44.3c0.6-2.1,3.1-5,4.7-5.1
	c3.7-0.1,3.8,3.4,3.6,6.4c-0.3,4.5-0.6,8.7,0.2,13.4c0.9,5.4-2.3,11.5-3.7,17.2c-0.5,1.9-1.1,3.8-1.6,5.7c-2.1,7.3-4.1,14.7-6.2,22
	c-0.3,1-0.5,2.3-1.1,2.7c-2.3,1.5-5,3.8-7.3,3.5C1504.9,900.5,1503.5,896.9,1502.4,895.4z"/>
<path class="st0" d="M293.4,561.8c1-0.2,2.1-0.7,3.2-0.7c3.7-0.3,5.6,2.5,3.9,5.8c-0.5,1-1.2,2.2-2.2,2.7c-5.3,3-5.7,7.8-5.5,13.2
	c0.4,10.7,0.2,21.3,0.2,32c0,3.2-0.3,6.5-4.3,6.6c-4.3,0.1-4.9-3.4-4.9-6.7c0-11.5,0-23,0-34.4c-1.8-0.4-3.4-0.7-5.1-1
	c0.7-2.2,1.3-4.5,2.2-6.8c0.9-2.5,2.6-4.8,2.9-7.4c0.6-6,0.5-12,1.1-18c0.2-1.6,1.9-3,2.9-4.5c1.4,1.3,3.7,2.5,4,4.1
	C292.8,551.6,292.9,556.6,293.4,561.8z"/>
<path class="st0" d="M166.6,420.5c0.4-9.3,0.6-18.6,1.4-27.9c0.2-1.8,2.8-3.3,4.2-5c1.2,1.7,3.5,3.3,3.6,5
	c0.9,22.8,1.5,45.6,2.1,68.4c0,1.3,0.3,2.9-0.2,3.9c-0.7,1.3-1.9,2.9-3.2,3.3c-1,0.3-3.1-0.6-3.8-1.6c-1.3-2-2.6-4.5-2.6-6.7
	c-0.2-13.1-0.1-26.3-0.1-39.4C167.5,420.5,167,420.5,166.6,420.5z"/>
<path class="st0" d="M394.3,489.6c0.7,2.3,2,4.4,1.5,5.6c-1.1,2.5-2.9,5-5,6.7c-6.7,5.1-13.6,10.1-20.7,14.7
	c-13.1,8.6-26.3,16.9-39.6,25.2c-1.5,1-3.7,0.8-5.6,1.2c0.6-2,0.6-4.8,1.9-5.9c8.1-6.6,16.4-13,25-19.1
	c12.2-8.6,24.7-16.9,37.1-25.3C390.2,491.8,391.7,491.1,394.3,489.6z"/>
<path class="st0" d="M221.9,662.9c0,4,0,8,0,12c0,3.9,0.1,8.5-5.2,8.5c-5.1,0-4.9-4.4-4.9-8.2c-0.2-11-0.1-22-0.9-32.9
	c-0.7-9.2-2.5-18.4-3.6-27.7c-0.2-1.8,0.9-3.7,1.3-5.6c1.9,1,5.1,1.6,5.5,3c2.6,8.9,5.1,17.8,6.6,27c1.3,7.8,1.1,15.9,1.6,23.9
	C222.2,662.9,222.1,662.9,221.9,662.9z"/>
<path class="st0" d="M1543.9,354c-1.4-0.8-2.9-1.2-3.4-2.1c-0.5-1-0.4-2.7,0.2-3.6c1-1.5,2.4-2.7,3.8-3.9
	c17.4-13.9,34.9-27.8,52.4-41.6c2.1-1.6,4.4-3.1,6.8-4c1.2-0.5,3,0.5,4.5,0.8c-0.5,1.5-0.6,3.4-1.6,4.3c-4.1,3.7-8.4,7-12.7,10.5
	c-14.4,11.8-28.8,23.7-43.3,35.4C1548.9,351.5,1546.4,352.5,1543.9,354z"/>
<path class="st0" d="M335,455.4c0,10.4,0,17.9,0,25.4c0,1.7,0.2,3.5-0.4,4.9c-0.8,1.6-2.4,3.7-3.8,3.9c-1.2,0.1-3.5-2.1-3.8-3.6
	c-1-5-1.9-10.2-1.8-15.3c0.3-14.8,1.1-29.6,1.7-44.3c0-0.7,0-1.4,0.3-2c0.8-1.5,1.7-2.9,2.6-4.4c1,1.5,2.8,2.9,2.9,4.5
	C333.7,435.7,334.4,447,335,455.4z"/>
<path class="st0" d="M412,62.6c-0.2-2.4-0.3-4.7-0.5-7.4c-4.5,0.9-8.6,5-14.4,1.1c2.2-1,3.8-1.6,5.3-2.4c3.9-1.9,8.9-2.4,9.8-8
	c0.1-0.5,1-1.3,1.4-1.2c6.7,2.2,10.2-4.2,15.4-5.8c1.7-0.5,3.3-1.8,5-2.1c1.6-0.3,4.1-0.4,4.9,0.6c0.9,1,0.9,3.6,0.1,5
	c-2.5,4.6-5.5,8.9-8.8,14.1c5.2-2.6,9.6-4.9,14-6.9c3.5-1.6,5.1-0.3,5.8,3.5c0.4,2.1,2.1,4,3.7,7c-1.4,0.4-4.6,2.3-5.7,1.4
	c-2.2-1.8-3.2-5-5.2-8.6c-3.2,2.2-7.1,4.9-10.9,7.6c-2.6,1.8-4.9,4-7.7,5.5c-1.3,0.7-3.3,0.3-5,0.4c0.1-1.7-0.4-3.8,0.5-5
	c3.4-4.9,7.2-9.6,10.8-14.4c0.9-1.2,1.8-2.6,1.8-4.7c-4.7,2.7-9.5,5.3-14,8.3c-1,0.7-1.2,2.8-1.7,4.3c-1,2.7-1.9,5.5-2.8,8.2
	C413.3,62.9,412.7,62.7,412,62.6z"/>
<path class="st0" d="M301.8,562.4c0-7.5-0.1-15,0.1-22.4c0.1-1.6,1.6-3.2,2.5-4.8c1.2,1.4,3.3,2.7,3.5,4.3c0.8,5.2,1,10.6,1.4,15.9
	c1,15.1,1.8,30.2,2.7,45.3c0,0.5,0.2,1.1,0,1.5c-1,1.6-2.1,3.2-3.2,4.8c-1.3-1.4-3.6-2.7-3.8-4.3c-1.4-13.4-2.5-26.8-3.6-40.2
	C301.5,562.5,301.6,562.5,301.8,562.4z"/>
<path class="st0" d="M1687,286.3c4.2,1.3,8.4,1.6,11.3,3.7c9.1,6.3,17.8,13.3,26.6,20c0.8,0.6,1.3,1.5,1.9,2.3
	c1.9,2.6,4.1,5.6,1.3,8.5c-2.8,2.9-5.6,0.4-7.9-1.5c-8.6-7.1-16.9-14.5-25.5-21.6c-2.5-2.1-5.6-3.4-8.4-5.1
	c-1.4-0.9-2.6-2.1-3.9-3.2C1684,288.4,1685.4,287.3,1687,286.3z"/>
<path class="st0" d="M357,563.2c0,8.3,0,16.6,0,24.9c0,1.5,0.2,3.3-0.6,4.4c-1.1,1.5-3,3.3-4.7,3.5c-1.1,0.1-3.2-2.3-3.5-3.9
	c-0.6-2.9-0.2-6-0.1-8.9c0.5-9.8,1.2-19.6,1.5-29.4c0.2-5.8-0.5-11.6-0.3-17.4c0.1-1.7,1.9-3.3,2.9-5c1.2,1.5,3.4,3,3.5,4.5
	c0.3,9.1,0.2,18.3,0.2,27.4C356.3,563.2,356.6,563.2,357,563.2z"/>
<path class="st0" d="M1827.6,709.3c-0.9,3.1-1.6,5.8-2.4,8.6c-3.1,11-6.1,22.1-9.4,33c-0.7,2.4-1.5,5.6-5.2,4.6
	c-3.6-1-6.4-2.9-4.8-7.4c2.9-8.6,5.6-17.3,8.8-25.8c1.9-5,4.5-9.8,7.1-14.4c0.6-1,2.6-2,3.8-1.8
	C1826.3,706.2,1826.9,708.2,1827.6,709.3z"/>
<path class="st0" d="M1800.2,1065.2c1.5-0.7,3-2.1,4.4-1.9c2.4,0.2,6.2,0.8,6.6,2.2c0.7,2-0.3,6.5-1.7,7.1c-6,2.4-12.4,4.4-18.8,5.3
	c-4.6,0.6-7.4-3.4-5.9-8c2.7-8.2,8.7-13.9,16.3-17.8c1-0.5,2.4-0.7,3.4-0.3c1.4,0.5,3.3,1.4,3.7,2.6c0.3,1-1,2.8-2.1,3.8
	c-2.2,2.2-4.6,4.1-6.9,6.1C1799.6,1064.5,1799.9,1064.9,1800.2,1065.2z"/>
<path class="st0" d="M1783.8,940.8c1.7-1.7,3.3-3.3,5-5c1.3,1.6,3.2,3.1,3.7,5c3.7,14,7.2,28,10.8,42c0.8,2.9,0.9,5.6-2.3,6.7
	c-3.4,1.2-5.4-1.1-6.3-4c-1-3.2-1.4-6.5-2.2-9.7c-2.3-9.5-4.7-19-7-28.5c-0.4-1.8-0.6-3.6-0.9-5.4
	C1784.4,941.5,1784.1,941.2,1783.8,940.8z"/>
<path class="st0" d="M297.1,480.1c0,10.5,0,21,0,31.5c0,2.4,0.5,5.7-3.2,5.6c-3.6-0.1-3.1-3.3-3.1-5.7c0.3-21.6,0.5-43.3,1-64.9
	c0-1.5,1.3-3,2-4.5c0.9,1.6,2.5,3.1,2.5,4.7c0.2,11.1,0.1,22.3,0.1,33.5C296.6,480.1,296.9,480.1,297.1,480.1z"/>
<path class="st0" d="M269.6,462.7c0.4,1.9,1.1,3.8,1.2,5.6c0.6,13.4,1.1,26.9,1.7,40.3c0,0.2,0,0.3,0,0.5c-0.4,3,0.6,7.3-3.9,7.4
	s-4.1-4.2-4.1-7.1c0-13.6,0.1-27.2,0.5-40.8c0.1-2.2,1.5-4.3,2.4-6.5C268,462.3,268.8,462.5,269.6,462.7z"/>
<path class="st0" d="M1802.1,154.4c-4.2,0.9-8.2,2.1-12.2,2.6c-1.2,0.1-3.4-1.2-3.7-2.2c-0.3-1.1,1-3.1,2.1-3.8
	c7.1-4.2,14.4-7.8,22.9-7.6c2.1,0.1,4.2,1.1,7,1.8c-11.2,11.1-22.6,20.4-27.3,35.1C1786.2,175.9,1786.9,174.4,1802.1,154.4z"/>
<path class="st0" d="M506.9,127.1c-4.4,2.6-8.3,4.9-12.9,7.7c0.2-1.8,0-3.3,0.6-3.8c4.4-3.6,8.7-7.5,13.6-10.4
	c2.9-1.7,5.3,0.2,6.1,3.7c1.3,5.8,2.3,6.6,8,5.1c5.4-1.4,9.9-0.1,14,3.1c1.3,1,1.8,3.2,2.6,4.8c-1.8,0.6-4.1,2.1-5.2,1.5
	c-5.3-3.1-10.9-1.9-16.4-2C511,137,507.9,133.6,506.9,127.1z"/>
<path class="st0" d="M1576.7,240.7c-10.3-2.6-20.1-4.9-29.8-7.8c-1.6-0.5-2.3-4.1-3.4-6.2c2-1,4.2-3.1,6.1-2.8
	c10.5,1.4,20.2,5.2,28.6,11.8c0.9,0.7,1.3,2.1,1.9,3.1C1578.9,239.4,1577.7,240.1,1576.7,240.7z"/>
<path class="st0" d="M1591.4,181.3c0.9,1.7,1.9,3.2,2.6,4.9c2.4,6,4.8,12,6.9,18.1c2.6,7.2,5,14.4,7.4,21.6c0.3,1.1,0,2.4,0,3.6
	c-1.4-0.1-3.4,0.4-4-0.3c-1.8-2.1-3.6-4.4-4.4-7c-3.3-10.4-6.1-21-9.2-31.5c-0.4-1.5-1.5-2.9-2.2-4.3c-0.3-0.6-0.9-1.5-0.7-1.8
	C1588.2,183.7,1589.1,183.2,1591.4,181.3z"/>
<path class="st0" d="M1701.2,161.9c-1.1,2.8-1.6,5.4-2.8,7.4c-5.2,8.9-10.6,17.7-16.2,26.4c-0.9,1.5-2.9,2.2-4.5,3.3
	c-0.1-2-1.1-4.4-0.3-5.8c4.2-7.6,8.8-14.9,13.2-22.3c1.7-3,2.9-6.3,4.6-9.3c0.7-1.3,2.1-2.2,3.1-3.2
	C1699.3,159.5,1700.2,160.7,1701.2,161.9z"/>
<path class="st0" d="M145.6,527.4c-1.4,2.8-2.2,5.5-3.9,7.5c-4.3,5.2-8.9,10.2-13.7,15c-1.1,1.1-3.4,1.1-5.1,1.6
	c0.1-1.9-0.5-4.4,0.4-5.7c4.7-6.8,9.7-13.4,14.9-19.8c1-1.3,3.2-2.1,4.9-2.2C143.9,523.8,144.8,526.1,145.6,527.4z"/>
<path class="st0" d="M281.1,438.9c-0.7,0-1.7,0.2-2.4-0.2c-1.4-0.9-2.6-2.1-3.8-3.1c1.1-1.1,2-2.7,3.3-3.3c6-2.6,12.1-5.1,18.2-7.3
	c1.9-0.7,4.2-0.2,6.3-0.3c-0.8,1.9-1.2,4.2-2.5,5.5C295,435.1,288.8,438.5,281.1,438.9z"/>
<path class="st0" d="M395.2,91.9c-0.5-1.3-1.5-2.7-1.4-4c0.1-1.4,1-2.8,1.8-4c4.3-6.4,8.7-12.8,13.2-19c0.5-0.7,2.1-1.4,2.3-1.1
	c0.8,0.7,1.6,1.9,1.5,2.7c-0.3,1.8-1,3.5-2,5c-3.7,5.9-7.5,11.7-11.2,17.6c-0.8,1.3-1.2,2.8-1.8,4.2C396.8,92.8,396,92.4,395.2,91.9
	z"/>
<path class="st0" d="M1795.4,198.1c-0.2,1.2-0.4,2.4-0.9,4.9c2.5-1.6,4.2-2.5,5.6-3.6c1.7-1.3,3.1-3.1,4.8-4.2
	c0.9-0.6,2.3-0.3,3.5-0.4c-0.1,1.3,0.2,3-0.4,3.9c-2.3,3-4.9,5.8-7.7,8.4c-0.7,0.7-2.7,0.2-4-0.2c-0.8-0.2-1.2-1.3-1.9-1.9
	c-1.1-1-3.3-2.1-3.2-2.8c0.4-1.8,1.8-3.3,2.8-4.9C1794.5,197.5,1795,197.8,1795.4,198.1z"/>
<path class="st0" d="M1823.4,161.6c-0.6-4.4,2.8-6,5.4-7.3c2.1-1.1,5.1-0.6,7.7-0.8c0.1,1.1,0.6,2.8,0.1,3.2
	c-1.6,1.3-3.6,2.4-5.5,3.2C1828.8,160.7,1826.4,161,1823.4,161.6z"/>
<path class="st0" d="M1531.4,845.7c-1.3-2-2.8-3.9-2.6-4.1c2.1-2,4.4-3.9,6.9-5.4c0.4-0.2,2,1.5,3,2.3
	C1536.5,840.6,1534.3,842.8,1531.4,845.7z"/>
<path class="st0" d="M210.7,593.7c-0.5-1.9-1.5-3.7-1.5-5.6c0-1.3,1.3-2.6,2.1-3.9c0.9,1.2,2.4,2.4,2.4,3.6c0,2-0.9,4-1.4,6
	C211.8,593.7,211.3,593.7,210.7,593.7z"/>
<path class="st0" d="M1824.2,204.6c-1.8-2.3-3.3-3.8-4.3-5.6c-0.2-0.3,1.9-2.4,2-2.3c1.8,1.4,3.6,2.9,5.2,4.5
	C1827.1,201.4,1825.6,202.9,1824.2,204.6z"/>
</svg>
