<?xml version="1.0" encoding="utf-8"?>
<!-- Generator: Adobe Illustrator 28.1.0, SVG Export Plug-In . SVG Version: 6.00 Build 0)  -->
<svg version="1.1" id="Layer_1" xmlns="http://www.w3.org/2000/svg" xmlns:xlink="http://www.w3.org/1999/xlink" x="0px" y="0px"
	 viewBox="0 0 472.4 341.3" style="enable-background:new 0 0 472.4 341.3;" xml:space="preserve">
<style type="text/css">
	.st0{fill:#302B2C;}
	.st1{fill:#F6B002;}
	.st2{fill:#E9C6A3;}
	.st3{fill:#F74461;}
	.st4{fill:#201A11;}
	.st5{fill:#202020;}
	.st6{display:none;fill:#202020;}
</style>
<polygon class="st0" points="43.2,128.8 41.9,297.7 452,299.5 447.3,120.4 "/>
<polygon class="st1" points="433.4,123 369.6,93.8 317.1,67.5 291.4,46.5 246.2,36.3 219.4,42.6 188.2,55.5 155.8,55.8 144.5,74.3 
	110.3,111.5 224,116 228.4,116.1 228.4,338.6 255.6,341.3 268,339.6 267.2,117.4 "/>
<polyline class="st0" points="244,97.8 241.2,80.9 217,84.5 205.5,106 202.9,77.4 179.4,74.3 148.8,87.6 139.5,109.8 134.1,96.2 
	104.9,86.2 95.1,87.1 91.7,106 84.5,92.9 72.1,84 38.4,79.1 20.6,101.8 20.6,114.8 238.3,120.4 452,109.8 447.3,99.5 427.2,97.4 
	409,106 397.5,93.2 386.4,84.9 357.6,93.2 341.6,106 336.8,94.6 319.5,86.2 294.6,80.5 270.6,101.8 "/>
<polygon class="st0" points="235,71.9 241.3,55.9 269,51.1 280.7,57.3 289.5,74.1 287.3,90.4 247.4,97.5 "/>
<polygon class="st1" points="46.3,108.8 50.3,101.8 64.5,101.8 68.1,107.9 60.1,111.5 "/>
<polygon class="st1" points="263.8,69.2 255.6,68.5 255.6,73.2 259.7,80.7 268.3,77.7 267.1,71.3 "/>
<polyline class="st1" points="166.1,101.5 171.8,93.8 182.5,93.8 187.3,101.8 176.7,106.6 166.1,101.5 "/>
<polygon class="st0" points="138.2,97.8 149.2,93.8 166.1,74.3 164.5,62 152.2,56 131.2,63.6 114.3,74.3 107.6,84.6 107.6,91.6 
	115.3,97.3 "/>
<polyline class="st1" points="126.6,80.3 131.2,74.3 141.7,72.2 147.5,76.3 137.7,81.5 126.6,80.3 "/>
<polygon class="st0" points="265.9,53.3 275.2,55.8 295.3,50.8 299.4,42.1 293.2,32.7 275.4,28.1 259.1,27.2 250.1,30.9 247.2,35.4 
	250.1,42.6 "/>
<polyline class="st1" points="265.1,36.8 270.9,35 279.1,38.4 281.4,43.7 272.4,42.6 265.1,36.8 "/>
<polygon class="st0" points="369.6,93.8 350.1,97.3 328.8,93.8 314.6,77.1 326.6,66.7 348.3,68.5 369.6,77.1 "/>
<polygon class="st1" points="335,81.5 344.3,87.1 351.9,85.1 350.5,81.5 342.7,78.2 "/>
<polygon class="st0" points="161.8,56.5 174.2,45.1 191.2,38 209,43.5 205.1,56.4 188.7,65 169.5,68.5 "/>
<polygon class="st1" points="192.3,49.6 183,49.8 178.5,54.7 181.1,56.7 188.2,55.5 "/>
<polygon class="st0" points="176.7,68.5 190.8,75.8 213.7,80.7 236.3,76.9 241.2,68.5 230,63.3 202.1,61.3 184.1,64.3 "/>
<polygon class="st1" points="201,70 209.4,72.2 218.7,71.2 220.7,69.1 209.9,67.5 "/>
<polygon class="st0" points="241.2,48.2 246.2,36.3 247.8,18.3 240.8,2.1 231.9,0 228.4,9.4 230.4,30.6 235.9,43.5 "/>
<polygon class="st1" points="239.1,29.8 240,23.1 237.8,16.3 235.4,15.2 235.4,23.6 "/>
<polygon class="st0" points="285,62.3 295.2,77.6 308.8,82.7 321.6,80.7 328.9,68.5 331.3,56.8 321.8,46.7 307.3,41.5 291.4,46.5 
	286.4,56 "/>
<polygon class="st1" points="304.8,56.8 303.5,63.9 309.8,65.7 312.5,62.7 311.5,57.5 "/>
<polygon class="st0" points="204.2,43.7 210.9,56.8 224.6,65.7 244,61.3 250.7,51.1 240.6,35 224.1,27.2 209,33 "/>
<polygon class="st1" points="224,42.6 224.7,47.7 228.2,51.1 231.6,47.7 228.2,42.6 "/>
<polygon class="st0" points="138.2,62.1 135.2,49.6 149.9,36.3 159.8,36.3 166.1,41.5 170.5,53.2 158.8,62.1 "/>
<polygon class="st1" points="155.6,50.1 152,48.2 149.1,51.6 150.9,53.2 155.8,52.6 "/>
<path class="st0" d="M359.2,80.1l-8.5-6.1c0,0-0.1-12.7,0-13.4s6.4-18.2,6.4-18.2l8.2,1.6l1.2,14.8l-1.6,10L359.2,80.1L359.2,80.1z"
	/>
<polygon class="st1" points="359,56.6 356.8,59.5 356.8,62.3 357.9,64.7 360,62 360,59.5 "/>
<path class="st2" d="M263,31.6c-0.8-0.8-2.1-0.1-2.1,0.8c0,0.4-0.3,0.1-0.5,0.1c-0.7,0.5-1.7,1.3-2,2c-0.1,0.3,0.7,1.7,0.9,1.2
	c0-1.2,1.7-0.8,2.4-1.7C262.1,33.1,263.2,32.6,263,31.6z M260.6,32.5L260.6,32.5C260.8,32.6,260.7,32.6,260.6,32.5z M259.8,35.6
	C259.8,35.6,259.8,35.5,259.8,35.6C259.8,35.5,259.9,35.6,259.8,35.6z M259.4,33.7c0,0.1,0,0.1,0.1,0.2
	C259.5,34,259.4,33.8,259.4,33.7z M259.6,34.4L259.6,34.4L259.6,34.4z M260.1,34.9c-0.1-0.1-0.1-0.1-0.2-0.3S260,34.7,260.1,34.9z
	 M260,34.3L260,34.3L260,34.3z M260.8,34.3c0,0,0,0.1,0.1,0.2C260.9,34.4,260.8,34.3,260.8,34.3l0.1,0.2
	C260.9,34.4,260.9,34.4,260.8,34.3z M262,31.5c0.1,0.1,0.2,0.4,0.3,0.5C262.3,32,262,31.6,262,31.5z M262.8,31.8L262.8,31.8
	L262.8,31.8z M262.5,31.6L262.5,31.6l0.1,0.1l0,0l0,0L262.5,31.6z M262.5,32.5L262.5,32.5L262.5,32.5z M262.8,32.8
	C262.7,32.7,262.7,32.6,262.8,32.8C262.8,32.7,262.8,32.7,262.8,32.8z"/>
<path class="st2" d="M301.2,52.6c-3.1,2.5-6,4.8-8.5,7.9c-0.7,0.5-0.5,1.6,0.3,1.9c1.7,0.2,2.5-1.5,3.7-2.6c1.5-1.5,3.2-3,3.2-5.3
	c0.2-0.7,1.6-1.2,1.4-1.9L301.2,52.6z M299.1,54.2c0,0,0.1,0,0.2,0.1C299.3,54.3,299.2,54.3,299.1,54.2z M293.9,59.7L293.9,59.7
	C293.9,59.8,293.9,59.7,293.9,59.7z M300.1,53.7L300.1,53.7L300.1,53.7C300.1,53.7,300.2,53.7,300.1,53.7z M300.2,53.8L300.2,53.8
	L300.2,53.8L300.2,53.8z M300.2,53.7C300.2,53.7,300.3,53.8,300.2,53.7C300.2,53.8,300.2,53.7,300.2,53.7z"/>
<path class="st2" d="M388.8,93.7c-0.8-1.6-1.9-4.1-3.9-4.1c-1.3,0-1.8-1.9-3-1.7c-1.5-0.2-9.2,11.5-4.2,8.9c1.6-1.6,3-4.2,5.2-4.9
	c2.4,0.4,3.9,0.4,5.2,2.6C388.6,94.7,388.9,94.2,388.8,93.7z M377.8,96.3L377.8,96.3L377.8,96.3z M377.8,96.4L377.8,96.4l-0.1-0.1
	C377.7,96.2,377.8,96.3,377.8,96.4z M379.4,94.8c0,0-0.1-0.1-0.2-0.1C379.2,94.7,379.3,94.8,379.4,94.8z M385.1,90.2
	c-0.1,0.1-0.1,0.1-0.1,0.2c0,0-0.2,0.3-0.1,0c0.1-0.1,0.3-0.3,0.3-0.4l-0.2,0.3L385.1,90.2z M385.3,90.4L385.3,90.4
	C385.3,90.5,385.3,90.5,385.3,90.4z M385.7,90.3c0-0.1-0.1,0.1,0-0.2c0,0,0.1,0,0.1-0.1C385.8,90.1,385.7,90.2,385.7,90.3z
	 M386.6,91.1L386.6,91.1L386.6,91.1L386.6,91.1z M387.1,93.3C387.2,93.3,387.2,93.3,387.1,93.3C387.2,93.3,387.2,93.3,387.1,93.3z
	 M388.1,93.8C388.1,93.9,388.1,93.9,388.1,93.8C388.1,93.9,388.1,93.9,388.1,93.8z"/>
<path class="st2" d="M338.4,71.6c-1-0.9-2.6,0.4-3.7,0.6c-0.8,0.4-1.3,1.6-2.3,1.6c-2.2-0.4-4.5,1.2-6.1,2.5c-0.2,0.4,0.1,1.6,0.4,2
	c1.4,0.8,2.7-1.3,4.3-1.2c2.1-0.8,4.4-1.3,5.7-3.3C337.3,73.3,338.9,72.7,338.4,71.6z M327.7,77.1c0.1,0.2,0.1,0.2,0.1,0.2
	C327.7,77.3,327.7,77.2,327.7,77.1C327.7,77.2,327.7,77.2,327.7,77.1C327.7,77.2,327.7,77.2,327.7,77.1L327.7,77.1
	C327.6,77.1,327.7,77.1,327.7,77.1z M328.5,76.5c0,0.1,0.1,0.1,0.1,0.2C328.5,76.6,328.5,76.5,328.5,76.5z M336.2,73.2L336.2,73.2
	L336.2,73.2z M338.3,72.2c0,0,0-0.1-0.1-0.1C338.2,72.1,338.2,72.1,338.3,72.2z M338.1,72C338.1,72,338.2,72.1,338.1,72
	c0,0,0,0.1,0.1,0.2C338.2,72.1,338.1,72.1,338.1,72z M338.3,72.2c0,0-0.1-0.3,0-0.2C338.3,72.1,338.3,72.2,338.3,72.2
	S338.3,72.1,338.3,72.2z"/>
<path class="st2" d="M237,7.7c-0.2-0.6-0.7-0.5-1.2-0.4c-0.1,0.6,0.1,1.9-0.8,0.9c-0.6-0.5-0.8,0.6-0.8,1c-0.3,1.3,1.8,1.4,2.4,1
	c-0.3-0.6-0.4-0.7,0.4-0.9c0.3-0.2-0.3-0.7-0.2-0.7C236.7,8.4,237,8,237,8L237,7.7z M234.5,9.5L234.5,9.5L234.5,9.5
	C234.5,9.4,234.5,9.4,234.5,9.5C234.5,9.4,234.5,9.4,234.5,9.5C234.5,9.4,234.4,9.4,234.5,9.5c0,0,0.1,0,0.2,0
	C234.6,9.5,234.5,9.5,234.5,9.5z M235.1,8.4L235.1,8.4L235.1,8.4L235.1,8.4z M236,9.9L236,9.9L236,9.9L236,9.9z M235.8,9.8
	C235.9,9.8,235.9,9.8,235.8,9.8L235.8,9.8C235.8,9.7,235.8,9.8,235.8,9.8z M235.5,8L235.5,8C235.5,8.1,235.5,8,235.5,8L235.5,8z
	 M235.8,7.6L235.8,7.6L235.8,7.6L235.8,7.6z M235.7,8.3l-0.1-0.1C235.6,8.2,235.7,8.2,235.7,8.3z M235.5,8.1
	C235.5,8,235.5,8,235.5,8.1C235.5,8,235.5,8,235.5,8.1C235.5,8,235.5,8,235.5,8.1z M235.5,8L235.5,8C235.5,8.1,235.5,8.1,235.5,8
	L235.5,8L235.5,8C235.5,8.1,235.5,8.1,235.5,8z M235.4,9.6C235.4,9.6,235.5,9.6,235.4,9.6C235.5,9.6,235.5,9.6,235.4,9.6z
	 M235.9,9.9c-0.1,0-0.2-0.1-0.3-0.1C235.8,9.8,235.9,9.9,235.9,9.9C236,9.9,236,9.9,235.9,9.9c0.1,0,0.1,0,0.1,0S236,9.9,235.9,9.9
	C236,9.9,236,9.9,235.9,9.9L235.9,9.9C236,9.9,236,9.9,235.9,9.9C236,9.9,236,9.9,235.9,9.9C236,9.9,236,9.9,235.9,9.9
	C236,9.9,236,9.9,235.9,9.9c0.1,0,0.1,0,0.1,0l0,0C236,9.9,236,9.9,235.9,9.9z M236.1,10L236.1,10C236.2,10,236.2,10,236.1,10
	C236.2,10,236.2,10,236.1,10C236.2,10,236.1,10,236.1,10z M236.2,10L236.2,10L236.2,10L236.2,10z M236.4,10L236.4,10L236.4,10
	L236.4,10z M236.4,10L236.4,10L236.4,10L236.4,10L236.4,10z M236,9.8L236,9.8L236,9.8L236,9.8z M236.2,9.8
	C236.1,9.7,236.2,9.7,236.2,9.8C236.2,9.7,236.2,9.8,236.2,9.8z M236.2,9.7C236.2,9.7,236.1,9.7,236.2,9.7L236.2,9.7L236.2,9.7
	L236.2,9.7z M236.2,9.7C236.1,9.7,236.1,9.7,236.2,9.7L236.2,9.7L236.2,9.7L236.2,9.7L236.2,9.7L236.2,9.7
	C236.1,9.7,236.1,9.7,236.2,9.7C236.1,9.7,236.1,9.7,236.2,9.7z M236.1,9.7L236.1,9.7C236.2,9.7,236.1,9.7,236.1,9.7s0.1,0,0.1,0.1
	C236.2,9.8,236.2,9.8,236.1,9.7c0.1,0.1,0.1,0.1,0.1,0.1C236.1,9.7,236.2,9.8,236.1,9.7c-0.1,0-0.1,0-0.1,0l0,0l0,0l0,0
	C236.1,9.7,236,9.6,236.1,9.7z M236.4,9.7l-0.2-0.1L236.4,9.7C236.3,9.7,236.3,9.7,236.4,9.7z M236.7,9L236.7,9L236.7,9L236.7,9
	L236.7,9L236.7,9L236.7,9z M236.9,9.3L236.9,9.3c-0.1-0.1,0,0-0.1-0.2C236.8,9.2,236.9,9.2,236.9,9.3z M236.8,9.1L236.8,9.1
	L236.8,9.1L236.8,9.1z M236.7,8.2L236.7,8.2C236.7,8.2,236.6,8.1,236.7,8.2C236.7,8.1,236.7,8.2,236.7,8.2z M236.7,8.3L236.7,8.3
	L236.7,8.3L236.7,8.3L236.7,8.3z M236.6,8.2L236.6,8.2L236.6,8.2C236.5,8.2,236.5,8.2,236.6,8.2z M236.7,8.3
	C236.7,8.3,236.7,8.2,236.7,8.3C236.7,8.2,236.7,8.3,236.7,8.3L236.7,8.3z M236.6,7.8c0,0.1,0,0.2,0,0.2
	C236.6,7.9,236.6,7.8,236.6,7.8L236.6,7.8z M236.6,7.8L236.6,7.8C236.6,7.9,236.6,7.9,236.6,7.8c0,0.1,0,0.1,0,0.2
	C236.6,8,236.6,7.9,236.6,7.8C236.6,7.9,236.6,7.9,236.6,7.8L236.6,7.8z M236.5,8.2c0,0.2,0.1,0,0.1,0.2L236.5,8.2z M236.6,8.3
	L236.6,8.3L236.6,8.3L236.6,8.3L236.6,8.3z M236.6,8.3L236.6,8.3L236.6,8.3z"/>
<path class="st2" d="M251,63.7c-0.3-0.2-0.6-0.1-0.7,0.1c-0.2,0.1-0.7,0.2-0.5,0.5c0.1,0.3-0.3,0.1-0.5,0.1
	c-0.2,0.1-0.2,0.2-0.6,0.2c-0.2,0-0.1,0.2-0.2,0.3c-0.2,0.3-0.4,0.1-0.6,0.2c-0.3,0.2-0.2,0.8-0.4,1.1c-0.4,0.2-0.3,0.5-0.5,0.8
	c-1,0-1.3,1.4-2,2c-0.5,0.5,0.4,1.1-0.1,1.5c-0.5,1.2-0.7,1.5,0.7,2c-0.4-0.6-0.1-0.3,0.2-0.5c0-0.3,0.4-0.4,0.6-0.6
	c0.2-0.4,0.4-1,1-1c0.4-0.7,0.9-1.1,1.4-1.8c0.3-0.7,0.6-1.2,0.6-1.9c0.1-0.1,0.3,0,0.2-0.2c0-0.6,0.9-1,0.7-1.7
	c0.1-0.1,0.2-0.1,0.3-0.1C251.2,64.6,251.1,63.9,251,63.7z M248.6,64.9c0,0,0.1,0,0.2,0.1C248.8,65,248.7,65,248.6,64.9z
	 M247.7,65.7C247.9,65.9,247.6,65.7,247.7,65.7L247.7,65.7z M246.1,71.5L246.1,71.5C246.1,71.5,246,71.5,246.1,71.5z M246.3,67.3
	c0,0,0.1,0.1,0.2,0.2C246.4,67.5,246.3,67.4,246.3,67.3z M248.1,65.3c0.1,0,0.1,0.1,0.2,0.1C248.3,65.4,248.3,65.4,248.1,65.3z
	 M250.4,63.8L250.4,63.8L250.4,63.8L250.4,63.8z"/>
<path class="st2" d="M219,48.1c-0.2-0.5-1-0.3-1.3-0.6c-0.2-0.1-0.7,0.1-0.5-0.2c0-0.1-0.3-0.1-0.2-0.3c0-0.4-0.3-0.5-0.5-0.7
	c-0.2-0.6-0.2-1-0.9-1.4c-0.3-0.8-0.1-1.9-0.3-2.8c-0.4-0.6,0.2-0.5-0.1-1c0-0.5,0.7-0.4,0.9-0.9c0.1-0.1,0.1-0.2,0.2-0.2
	c0.2,0.2,0.3,0.2,0.5,0c0.5-0.8-0.8-1.1-1.2-0.9c-0.1,0.2,0.1,0.4-0.1,0.5c-0.4-0.2-0.5,0.3-0.9,0.5c0,0.9-1.3,0.4-0.5,1.3
	c0,0.3-0.3,0.5,0,0.8c0.3,0.5,0,1.3,0.2,1.8c-0.5,0.5-0.3,0.5-0.5,1.1c-0.1,0.1,0.2,0.3,0.2,0.3c0.3,0.7,0.8,1.1,1.1,1.8
	c0.3,0.2,0.7,0.1,0.5,0.6c0.3,0.1,0.6-0.1,0.7,0.3c0.4,0.3,0.8,1,1.2,1.1C217.8,49.4,219.1,48.5,219,48.1z M216.1,39.6
	C216.2,39.8,216.1,39.7,216.1,39.6L216.1,39.6z M216.2,40.6c-0.1,0-0.2-0.3-0.2-0.3C216.1,40.4,216.1,40.5,216.2,40.6z M214.2,41.4
	c0.1,0-0.1-0.1-0.2-0.1c0.1,0,0.3,0.1,0.4,0.1C214.3,41.4,214.5,41.5,214.2,41.4z M214.5,41.6C214.6,41.6,214.6,41.6,214.5,41.6
	L214.5,41.6z M214.5,41.7L214.5,41.7L214.5,41.7z M215.7,47.9C215.8,47.9,215.8,47.9,215.7,47.9C215.8,47.9,215.8,47.9,215.7,47.9z
	 M215.7,45.5c0,0,0.1,0,0.1-0.1C215.8,45.4,215.8,45.5,215.7,45.5z M216.7,47.6L216.7,47.6L216.7,47.6z"/>
<path class="st2" d="M230.3,89.2c-0.2-0.3-0.5-0.7-0.8-0.5c-0.2,0.1-0.6-0.2-0.7-0.2c-0.1,0,0,0.1-0.1,0.1c-0.7-0.3,0,0.9-0.4,0.5
	c-0.2-0.1-0.1,0-0.2,0.1c-0.2,0.4-0.6,0.5-0.5,0.9c-0.8-0.3-0.6-0.7-1,0.3c-0.4,0.1-0.8,0.4-0.9,0.8c-0.1,0.2-0.1,0.2-0.3,0.2
	c-0.4,0.1-0.4,0.7-0.7,0.7c0,0.4,1.1,1.9,1.4,1.7c0.1-0.2-0.4-0.7-0.2-1c0.3,0.1,0.1-0.3,0.3-0.2c0.1,0,0.2-0.1,0.2-0.1
	c0.1-0.2,0.2-0.4,0.4-0.5c0.2,0,0.4,0.1,0.4-0.1c0.2-0.5,0.9,0.1,1.3-0.3c0.5-0.3,0.2-0.6,0.4-1c0.5-0.1,0.7-0.7,0.8-1
	C230.2,89.6,230.3,89.5,230.3,89.2z M225.6,91.3c0,0.1,0,0.1,0.1,0.2C225.7,91.6,225.6,91.4,225.6,91.3z M225.8,92.1L225.8,92.1
	L225.8,92.1z M226.3,92.6c-0.1-0.1-0.1-0.1-0.2-0.3C226,92.1,226.2,92.4,226.3,92.6z M226.9,91.7l0.1,0.2
	C227,91.8,227,91.8,226.9,91.7z M228.8,88.8L228.8,88.8C228.8,88.9,228.8,88.9,228.8,88.8z M228.9,88.9c0.1,0.1,0.3,0.3,0.3,0.4
	C229.2,89.3,229,89.1,228.9,88.9z M229,90L229,90L229,90z M229.3,90.3C229.2,90.2,229.2,90.1,229.3,90.3L229.3,90.3z M229.6,89.9
	c-0.1,0-0.2-0.3-0.2-0.3C229.5,89.7,229.5,89.8,229.6,89.9z M229.7,89.1C229.7,89.1,229.8,89.2,229.7,89.1
	C229.7,89.2,229.7,89.1,229.7,89.1z M229.8,89L229.8,89L229.8,89z"/>
<path class="st2" d="M201,84.7c-0.2-1.2-1.5-1.5-2.4-2.2c-0.3,0-0.5,0.2-0.6,0.2c-0.3-0.3-0.6-0.1-1.1-0.3c-0.8-0.8-1.5,0-2.3-0.6
	c-0.7-0.5-1.3,0.5-1.7-0.2c-0.4-0.3-1.3,0.2-1.8,0.2c-0.8-0.1-1.7,0-2.5,0.1c-0.5-0.2-1.6-0.2-2-0.6c-0.6-0.2-1.4,0.2-2.1,0.1
	c-1.6,0.2-3.5,0-4.6,1.2c-0.1,0-0.4-0.2-0.5-0.3c-1.2,0.3-2.4,1.2-3.7,1.6c-1.2,0.1-0.8,1.6-0.2,2c0.5,0,1.2-0.2,1.7-0.5
	c0.3,0,0.3,0.7,0.6,0.7c1.1-0.3,2.3-0.5,3.5-0.9c0.9-0.1,1.8,0.2,2.5-0.2c3.1-1,6.7-0.3,9.9-1c0.5,0.3,1.2-0.3,1.6-0.4
	c1,0.3,2.3,0.4,3.3,0.2c0.3-0.1,0.5-0.1,0.8,0.1c0.4,0.4,1.2,0.2,1.6,0.7c0.1,0.1,0.1-0.1,0.1-0.1L201,84.7z M178.9,82.8
	C178.9,82.8,179,82.8,178.9,82.8C179,82.9,179,83,178.9,82.8z M188.4,82.4C188.4,82.4,188.4,82.5,188.4,82.4
	C188.4,82.5,188.4,82.4,188.4,82.4z M199.5,83.4L199.5,83.4L199.5,83.4z M200.6,84.4L200.6,84.4L200.6,84.4z"/>
<path class="st2" d="M41.6,90c0.2-0.6,0-0.4-0.3-0.7c-0.2-0.1-0.4-0.4-0.6-0.5c-0.3,0-0.3,0.2-0.6,0c-0.3,0.1-0.8-0.2-1.1-0.3
	c-0.5,0.3-0.7,0.1-1.2,0c-1.2,0.5-2.5,1.4-3.9,0.7c-1,1.1-3,1.5-3.1,3.2c-0.2,0.1-0.4,0-0.5,0.1c0.1,0.6-0.8,1.4-0.9,2.2
	c-0.4,0.6,1.5,1.3,1.5,1.2c0.1-0.1,0.5-0.5,0.6-0.6c0-0.2-0.6-0.6-0.1-0.7c0.3-0.6,0.8-1.1,1.2-1.7c0.6-0.4,1.2-0.7,1.7-1.2
	c1-0.3,2.3-0.5,3.2-1c0.2-0.3,0.4-0.3,0.7-0.2c0.7-0.6,1.4,0.3,2.2-0.1c0.2-0.1,0.3-0.2,0.4,0C41.1,90.9,41.5,90.4,41.6,90z
	 M31.7,93.3c0.1,0,0.2,0,0.2,0.1C31.8,93.4,31.7,93.3,31.7,93.3z M33.4,91.9l0.1,0.2C33.5,92,33.5,92,33.4,91.9z M37.3,89.3
	C37.2,89,37.2,89.5,37.3,89.3c-0.1-0.1-0.2-0.5-0.1-0.6v0.4C37.2,88.8,37.3,89.1,37.3,89.3z M40.2,89.3l0.1-0.2
	C40.3,89.2,40.3,89.3,40.2,89.3z"/>
<path class="st2" d="M109.2,93.5c0.1-0.6-0.6-0.3-0.9-0.4c-0.1-0.2-0.2-1-0.6-0.6c-0.9-0.1-0.7,1.1-1.8,0c-1.4-0.4-2.3,1.4-3,2.3
	c0.7,1.1,2.3,2.4,3.4,1.2c0.2-0.1,0.3,0.1,0.3,0c0.1-0.3,0.6-0.3,0.9-0.4C108.2,95.1,108.9,94.2,109.2,93.5z M103.5,94.4
	c0,0,0.1,0.1,0.2,0.2L103.5,94.4z M105.7,95.6L105.7,95.6L105.7,95.6z M106.1,95.8L106.1,95.8C106.1,95.8,106,95.7,106.1,95.8z
	 M106.5,93.4L106.5,93.4L106.5,93.4z M106.6,93.2c0,0.1,0.1,0.1,0.1,0.2C106.7,93.4,106.6,93.3,106.6,93.2z"/>
<path class="st2" d="M131.2,70.4c-1.1-2.3-3.7,0.9-5.1,1c-1.6-0.3-3.5,1.4-4.4,2.5c0.1,1.4,1.1,1.2,2.2,1.5c1.6-0.7,3.4-1.5,5-2.3
	c0.9-0.8,1.2-2.1,2.4-2.5L131.2,70.4z M122.9,73C122.9,73,122.9,73.1,122.9,73L122.9,73z M122.9,72.8L122.9,72.8
	C123,72.9,123,73.2,122.9,72.8z M124.4,74.1L124.4,74.1L124.4,74.1z M126.8,73.9C126.8,73.9,126.8,73.8,126.8,73.9
	C126.7,73.8,126.7,73.9,126.8,73.9z M129.7,71.5C129.7,71.4,129.7,71.4,129.7,71.5L129.7,71.5C129.7,71.3,129.7,71.4,129.7,71.5
	L129.7,71.5z"/>
<path class="st2" d="M154.1,41.6c-0.3-0.7-1.8-0.7-2.5-1c-0.8,0.2-1.6,1.3-2.5,0.8c-1.8,0.4-2.7,3.2-2.7,4.6
	c0.1,0.1,1.3,0.8,1.4,0.2c0-0.4,0-0.4,0.3-0.6c0.9-1.5,2.9-2,4.2-3C152.8,42.3,154.2,42.4,154.1,41.6z M147.2,43.2
	C147.3,43.2,147.3,43.3,147.2,43.2C147.3,43.3,147.3,43.3,147.2,43.2z M148.2,44.9c0.1,0,0.1,0,0.2,0.1
	C148.3,44.9,148.2,44.9,148.2,44.9z M149.2,44.1c0,0,0.1,0.1,0.1,0.2C149.3,44.2,149.3,44.2,149.2,44.1z M154,42.2L154,42.2
	L154,42.2z"/>
<polygon class="st1" points="461.8,319 463.8,137.4 451.5,139.3 430.9,139.3 430.9,321 451.5,321 "/>
<polygon class="st1" points="13.9,152 11.7,318 32.5,321 43.2,317.4 43.2,149.9 "/>
<polygon class="st3" points="2.2,111.4 0.9,114.8 0.9,156.1 254.1,153.9 255.5,149.9 254.1,96.2 "/>
<polygon class="st3" points="0.9,163.4 0,208.4 252,213.9 254.1,213.3 254.1,161.2 "/>
<polygon class="st3" points="255.6,221.5 255.6,275.6 0.9,261.1 0,215.3 "/>
<polygon class="st3" points="255.6,335.9 255.6,281.1 0,266.7 0,313.7 "/>
<ellipse class="st4" cx="8.2" cy="116" rx="0.9" ry="1.2"/>
<ellipse class="st4" cx="8.9" cy="150.9" rx="0.7" ry="1"/>
<ellipse class="st4" cx="239.7" cy="107.9" rx="1.4" ry="1.9"/>
<circle class="st4" cx="241.2" cy="140.7" r="1.4"/>
<circle class="st4" cx="8.6" cy="168.6" r="1.4"/>
<ellipse class="st4" cx="10.6" cy="201.3" rx="1.1" ry="1.7"/>
<ellipse class="st4" cx="238.7" cy="168.9" rx="1.2" ry="1.8"/>
<ellipse class="st4" cx="241.2" cy="204.6" rx="1.4" ry="2.3"/>
<circle class="st4" cx="10.6" cy="271.2" r="1.1"/>
<ellipse class="st4" cx="242.6" cy="288.8" rx="1.4" ry="2.2"/>
<ellipse class="st4" cx="242.6" cy="265.3" rx="1.4" ry="2.2"/>
<ellipse class="st4" cx="242.6" cy="229.2" rx="1.4" ry="2.2"/>
<circle class="st4" cx="240.6" cy="325.1" r="2"/>
<path class="st4" d="M12.8,301.3c0.6,0,1.1,0.7,1.1,1.5s-0.5,1.5-1.1,1.5s-1.1-0.7-1.1-1.5S12.2,301.3,12.8,301.3z"/>
<polygon class="st3" points="261.4,153.9 261.4,97.8 472.4,107.9 472.4,155.2 "/>
<polygon class="st3" points="262.3,161.2 262.3,213.9 470.7,208.4 470.7,162.1 "/>
<polygon class="st3" points="264.8,222.2 262.3,225.8 262.3,275.6 470.7,260.5 470.7,213.9 "/>
<polygon class="st3" points="262.3,282.4 262.3,335.9 470.7,312.6 470.7,266.7 "/>
<ellipse class="st4" cx="271.6" cy="108.8" rx="1" ry="2.7"/>
<ellipse class="st4" cx="271.6" cy="142.4" rx="1" ry="1.7"/>
<ellipse class="st4" cx="274.8" cy="168.9" rx="0.9" ry="1.8"/>
<ellipse class="st4" cx="273.2" cy="203.4" rx="0.7" ry="1.2"/>
<ellipse class="st4" cx="270.6" cy="229.2" rx="0.8" ry="2.2"/>
<ellipse class="st4" cx="274.4" cy="264.4" rx="1.2" ry="2.3"/>
<path class="st4" d="M268.1,287.4c0.4,0,0.7,0.8,0.7,1.9s-0.3,1.9-0.7,1.9c-0.4,0-0.7-0.8-0.7-1.9S267.7,287.4,268.1,287.4z"/>
<ellipse class="st4" cx="271.4" cy="326.6" rx="0.8" ry="1.4"/>
<ellipse class="st4" cx="466.2" cy="307.3" rx="1.1" ry="2"/>
<ellipse class="st4" cx="465" cy="271.9" rx="1.2" ry="2.1"/>
<ellipse class="st4" cx="464.3" cy="255.8" rx="0.8" ry="1.5"/>
<ellipse class="st4" cx="462.7" cy="218.1" rx="0.6" ry="1.3"/>
<ellipse class="st4" cx="460.5" cy="199.6" rx="0.7" ry="1.7"/>
<ellipse class="st4" cx="463.9" cy="168.9" rx="0.6" ry="1.8"/>
<ellipse class="st4" cx="456.7" cy="147.3" rx="0.4" ry="1.4"/>
<circle class="st4" cx="457.6" cy="112.4" r="0.9"/>
<g>
	<path class="st5" d="M198.1,153c0.3,0.1,0.3-0.1,0.4-0.3C198.4,152.8,198.2,152.9,198.1,153z"/>
	<path class="st5" d="M75.6,146c0.4-0.2,0.6-0.5-0.4-0.5c1.1,0.2-0.7,0.6-1,0.8C74.7,146.4,75.1,146.5,75.6,146z"/>
	<path class="st5" d="M143.9,147C144.2,146.9,144.1,146.9,143.9,147L143.9,147z"/>
	<path class="st5" d="M221,153.7c-0.3,0.4-0.6,0.6,0.1,0.5C221.1,153.9,221.1,153.6,221,153.7z"/>
	<path class="st5" d="M112.5,153.6L112.5,153.6c0.1,0.1,0.2,0,0.2,0C112.6,153.6,112.6,153.6,112.5,153.6z"/>
	<path class="st5" d="M219.7,154.2c0.3-0.1,0.8-0.6,0.8-0.9C220.2,153.4,220,153.9,219.7,154.2z"/>
	<path class="st5" d="M222.7,150.9c-0.2,0-1.5,0.3-1.2-0.1c-2.3,0.5-0.2,0.6-1.8,1.5c-0.4-0.1-1.4-2.3-1.5-0.8
		c-0.9-0.2-3.4,1.4-4.5,0.1c-0.4,0.5,1.1,0.2-0.1,0.7c-0.5-1-1.4,0.3-2.5,0c1.9-1.5-4,0.1-6.1,0.4c0.2-0.3-3.2,0.1-4.3-0.3
		c0.2,0.5-2.9,1.5-2.6,0.6H198c0.3-0.1,0.4-0.2,0.7-0.5c-6.8,0.5-8.5,2.5,0.5,1.8c-0.1,0-0.1,0.1-0.2,0.1c0.9,0.3,5.9-1.1,4.1-0.1
		c1,0.2,1.9-0.9,2.8-0.5c-0.4,0.2-1,0.3-1.4,0.4c2.4,0.4,4.8-0.3,7.1-1.2c-1.7,0.9,0,1,0.4,1.3c0.9,0.3,2.9-0.6,3.4,0
		c0,0,0.2,0,0.2,0c-1.1-1.8,3.5,0.1,5-1.1c1,0.5,1.3-1.3,1.2,0.9C223.2,154.4,222.5,151.6,222.7,150.9z M208.3,152.6
		c0-0.5,0.3-1.2,0.5-0.4C208.6,152.2,208.4,152.4,208.3,152.6z"/>
	<path class="st5" d="M121.6,151.3l0.1,0.1C121.7,151.4,121.6,151.3,121.6,151.3z"/>
	<path class="st5" d="M17.3,134.9L17.3,134.9c0.1,0,0.1,0,0.2-0.1C17.4,134.9,17.4,134.9,17.3,134.9z"/>
	<path class="st5" d="M151,152.8c0,0.1,0,0.1,0.1,0.2C151.1,153,151.1,152.8,151,152.8z"/>
	<path class="st5" d="M145,146.8c-0.1,0-0.3,0.1-0.3,0.1C144.8,146.8,144.8,146.8,145,146.8C144.9,146.8,145,146.8,145,146.8z"/>
	<path class="st5" d="M145,146.8c0.1,0,0.2,0,0.3-0.1C145.2,146.7,145.1,146.7,145,146.8z"/>
	<path class="st5" d="M192.4,154.2c-0.7,0.5-0.9,0.1-0.1-0.3c-1,0.5-2.2-0.1-0.6-0.3c-0.7,0-1.5-0.1-1.9-0.4c-0.1,1.2-1.4,0.4-1.7,0
		c-0.5,0.8-4.6,0.2-3.9,1.2c-0.1,0-0.3,0.1-0.4,0.1C184.1,154.3,192.3,154.7,192.4,154.2z M190.3,153.5c0,0.1,0.1,0.1,0.1,0.2
		C190.3,153.6,190.2,153.6,190.3,153.5z"/>
	<path class="st5" d="M152.7,154.8h0.3C152.8,154.7,152.7,154.7,152.7,154.8z"/>
	<path class="st5" d="M109.5,152.7c0.6,0-0.2-0.2-0.4-0.1C109.1,152.7,109.4,152.7,109.5,152.7z"/>
	<path class="st5" d="M151.9,154.2c-0.3-0.3-0.6-0.7-0.8-1.3c0,1.1-1.2-1.2-1.3-1.2c-0.1-0.3,3.8-7.7,3-4.3c1.4-2.1-2.3-1.3-3.7-1.4
		l1.6-0.5c-1,0.3-1.7,0.4-2.4,0.5c1.4,0.6-1.1,0.7-0.8,0.3c-0.5,1.1-2.5,2.1-3.8,1.4c1.7,0,0.1-0.7,1-0.8c-0.2,0-1.3,0.3-0.6-0.1
		c-2,0-1.4,1.7-3.5,0.7c1.9,0.3-2.2,1.4-2.1,1.4c1.3,0.8-1.7,0.3-3.9,0.7c-1-1-2.3-0.5-3.8-0.3c0.5,0.4,0.6,0.3-0.4,0.9l2.5-0.8
		l-1.5,1c0.8-0.1,1.5-0.6,2-0.6c-0.7,0.5-0.6,0.4-0.2,0.7c-1.3-0.6-3.6,2-3.5-0.7c-1.9-0.2-3.1,1.2-5.5,1.3c2.3,0.7-2.1,0.4-2.5,0.3
		c0.1,0,0.1,0.1,0.2,0.1c-0.4-0.2-1.7,0.3-1.8,0.8c-2.2-1.1-3,1.1-4.9,1.4c0.5-0.5-0.4-0.6,0.8-1.2c-0.6,0.1-1.2,0.1-1.1,0.4
		c-0.3,0-2.4,0.7-2.1,0.7c-0.1,0-0.1,0.1-0.2,0.1c0,0.2-0.8,0.5-0.7,0.1c-0.1,0.2-0.9,0.2-0.4,0.7c-5.7-1.6,1-5.1-1-8.5
		c-0.1-1.4-2.1,1.1-3.4,0.5c3.3-2.4-1.9-0.1-3.7-0.6l0.3-0.1c-1-0.3-2.3,0.9-3.9,1c-0.6,0-3.1,1.5-4.5,1.7c0.4-0.6,0.6-0.4,0.3-0.9
		c-0.7,0.2,0.4,0.8-1,1.2c-1.2-0.3-2.6-0.8-0.5-1.1c-2.7-0.4-3.6,1-6.4,1.8c0.8,0.7-2.3,0.9-2.3,0.1c-0.7,0.4-2.5,1.4-3.8,1.9
		c0.6-0.8,2.1-1.4,3.1-2c-0.8,0.2-2.5,0.7-2.9,1.2c0.3-0.1,0.6-0.4,1-0.4c-0.7,0.7-1.6,1.2-2.9,1.6c7-9.5,3.8-8.4-4.6-5.4
		c-1.1,0.4-1.4-0.6-2.6-0.4c-0.2-0.9,1.7,0.1-1.3-1.2c0.3,0.4-0.5,0.7-1.4,0.6l1.4,0.4c-2.2,0.9-2.1-0.8-4.3,0.2l0.7-0.5
		c-0.8-0.2-6.2,2.2-5.3,1.1c-2.4,0-7.2,2.7-8,1.4c-1.3,0.8-1.8,0.2-3.6,0.9l0.5-0.4c-1.9,0.1-3.1,0.8-4.4,1.4c0.1,0,1.9-4.3,2-4.5
		c-5,1.3-10.7,0.3-15.8,1c1.2,0.7-3.2,1.7-2.1,1c-0.7-0.6-3.6-0.5-3.1,1.1c-7.3,0.6-10.1,1.9-16.4,2.4l0.4-0.5
		c-3.8,3.2-0.3,0-4.3,1.1c0.6-0.2,2.4-1.1,0.5-0.6c0.8-0.3-0.7-0.9,0.8-0.7c-1.3-0.2-0.1-1.9-0.1-1c0.8-0.4,0.4-1.1,1.4-1.7
		l-0.1,0.6c1.1-1.2,1.1-3.3,2.9-3.2c-0.4-0.3,1.1-2.9,0.9-1.6c2.3-2.2,1.5-3.8,4.1-5.5c-1,1.6-2,3.1-2.2,3.3
		c0.5,0.1,1.9-1.8,1.8-0.5c0.6-1.7,0.8-4.4,2.5-5.3c0.6-1,0.9-1.5,1.5-2.4c-0.1,0-0.1,0-0.2,0c0.7-0.8-5.2,1-4.4,1.7
		c-0.2,0,1.1-0.4,1.4-0.5l-0.1,0.1l2.2-0.5c-1.2,0.8-2.4,0.8-3.1,1c0.1,0,0.3-0.1,0.4-0.1c-0.7,0.3-2,1-2.5,1.4
		c-2.9-3.4-7.7,2.3-10.4,2.1c0.3-0.2,0.6-0.3,0.8-0.5c-1.4,0.5-3,1.7-3.5,2c-0.2-0.3-0.6-0.8-1.4-0.4c0.4,0.7-1.1,6.7,1.3,4.4
		c0.4-0.1,0.5-0.3,0.9-0.3c0.2-3.6,3.6,0.8,5.1-3c0.7-0.4,0.4,0.5,0.4,0.8c0.4,0,0.5-1.3,1.2-0.9c-0.4,0.4-0.7,0.5-0.6,0.5
		c0.1,0.6,1.9-2.2,0.4,0.2c0.3,0,1.6-1.1,2.4-1c-0.7,0.8-1.7,1.7-2.7,2.6c-0.7,0-1.4,3-1.7,2.1c-0.9,0.6,0.2,0.3,0.1,0.8
		c-0.4,0.5-0.8,0.3-0.6-0.1c-4.4,5.5-11.9,12,0.7,10.6c4.3,0.1,5.8-1.3,10.2-0.7c0.6,0.2,1.8-2.2,1.9-0.7c0,0,1.1-0.9,1.1-0.9
		c0.4,0.5,1.1,0.7,1.6,0.3c-2.4-0.6,2.9-0.9,2.5-0.3c0.1,0,4.5-2,2.3-0.7c1.5-0.2,2.7-0.6,5.2-1.1c0.3,1.2,4.9-0.8,6.8-0.7
		c-1.2,0-0.4-1.4,0.1-0.8c0.1-0.5,1.2-0.6,0.3,0.2c0.6,1.5-3.5,6,0.9,5.2c1.9-2.3,6.5-0.1,7.8-2.6c0.2,0.5,2,0.1,1.1,0.6
		c2.2-0.5,2.8-0.6,5.5-1.4c-1.6-0.6,1.2-0.7,0.5,0c3-1.3,7.4,0.4,9.8-1l-0.1,0.1c3.1-1,4.8-0.6,8.7-1.2c0.7-0.5,0.3,0.8,1,0.4
		c0.8-0.3-0.1,0.6-0.6,0.8c0.7-0.3,0.7-0.1,0,0.2c1.1,3.6-6,4.1,4.8,3.7c2.9,0.4,15.9-4.2,13.5-2.6c4-1.9,10.6-1.6,12.6-2.9
		c0.1,0-0.2,0.4-0.3,0.6c0,0.2,1.1-0.8,0.5-0.1c-0.1,0.1-0.2,0.1-0.3,0.2c0.4-0.2-0.1,0.4,0.7-0.1c-6.5,9.8,30.6,1.6,20.7,4.5
		c1.3,0.4,7.6-2.8,6-1c1.8-0.4,7.5-1.7,7-1.4c0.5-0.1,1.1-0.1,1-0.5c-1.9,0.5,1.1-1.5,1.3-1.7c-0.6,1.3,2.4-0.1,1.4,1.6
		c0.4-0.4,1.3-1,0.7-0.1c1.2-0.3,2.2-1.7,1.8-0.4c0.2-0.4,0.9-0.9,1.5-0.9c-0.1,0.1-0.2,0.3-0.4,0.3c1.3-0.5,0.8,1.9,1.4,3.1
		c-2.4,1.1,4,0.8,4.3,0.8C152.3,154.6,152.1,154.4,151.9,154.2z M19.5,133.9c0,0-0.1,0.1-0.2,0.1C20.8,132.9,21.6,133.4,19.5,133.9z
		 M12.2,140.8c1.3-0.5,0.2,0-0.4,0.5C11.9,141.2,12.1,140.9,12.2,140.8z"/>
	<path class="st5" d="M210.3,151.5c-0.6,0.2-0.7,0.3,0,0.4C211.2,151.7,210.3,151.6,210.3,151.5z"/>
	<path class="st5" d="M109.9,151l-0.1,0.2C109.9,151.1,109.9,151.1,109.9,151z"/>
	<path class="st5" d="M230.7,152.6v0.8C231.1,153.2,231.8,152.2,230.7,152.6z"/>
	<path class="st5" d="M227.1,154.1c0.8,0.4,1.3-1.7,1.9-0.6c0.1-0.2,0.8-0.2,0.9-0.7c-0.8-0.7-2.4,1.6-2.4,0.4
		C227.4,153.5,227.2,153.8,227.1,154.1z"/>
	<path class="st5" d="M215.5,151.7h1.7c-0.3-0.2-0.7-0.4,0-0.6C215,150.7,217.7,151.6,215.5,151.7z"/>
	<path class="st5" d="M109.9,151l0.3-0.4C109.9,150.8,110.1,150.7,109.9,151z"/>
	<path class="st5" d="M139.3,152.8C139,152.9,138.9,153,139.3,152.8C139.2,152.9,139.2,152.9,139.3,152.8z"/>
	<path class="st5" d="M105.1,152.9c0-0.1-0.1-0.3-0.1-0.4c-0.1,0.7-0.1,1.4,0.1,2.2C105.1,154.1,105.1,153.5,105.1,152.9z"/>
	<path class="st5" d="M19.8,154.8h0.3C20,154.5,19.9,154.7,19.8,154.8z"/>
	<path class="st5" d="M87.6,149.4c-0.4-0.2-1.2-0.3-1.6,0.1C86.6,149.5,87.3,149.6,87.6,149.4z"/>
	<path class="st5" d="M139.3,152.8h0.1C139.3,152.8,139.3,152.8,139.3,152.8z"/>
	<path class="st5" d="M23,153.8l-0.3,0.1C22.8,153.9,22.9,153.9,23,153.8z"/>
	<path class="st5" d="M25.5,148.3c0.3,0,0.8-0.2,1-0.4L25.5,148.3z"/>
	<path class="st5" d="M0.9,128.9v6.6c1-0.8,1.1-1.6,1.3-2.5c0.9,0.7,0.8-0.9,1-1.3c0.3-1.5,5.2-2.6,3.9-4.1c0.7-0.6,1.8-2.3,2-1.8
		c0.2-0.7,1.3-1.2,1.7-2.4c1.4-1.1,0.7,1.1,2.5-0.6c0.6-0.7,1.3-2.5,0.9-2.4c-1.8,1.4,0.4-3.1-3.3-1.3c-0.3,1-0.9,1.7-2,1.4l0.9-0.9
		c-1.2,0.9-2.1,1.5-2.3,3.1c-0.4-0.1-0.1-1-0.9-0.4c-0.2,0.8,1,0.1,0.4,1.1c-0.9-0.2-1.6,1.3-1.3,0.1c-0.8,1.1-2.1,3.9-3.4,3.5
		c0,0.3-0.4,1.4-0.8,2C1.5,128.4,1.2,128.6,0.9,128.9z M13,120.2l0.1,0.4C13,120.5,13,120.4,13,120.2z"/>
</g>
<path class="st5" d="M141.8,269.2c0.1-0.3,0.2-0.5,0.3-0.7c-0.6,0.2-1.4,0.2-2,0.6L141.8,269.2z"/>
<path class="st5" d="M153.5,269.4c-0.1,0.2-0.1,0.3-0.2,0.5l1.4,0.1C154.6,269.6,154.2,269.4,153.5,269.4z"/>
<path class="st5" d="M167.5,262.7c-0.2-0.3-0.3-0.5,0,0.1C167.5,262.7,167.5,262.7,167.5,262.7z"/>
<path class="st5" d="M167.1,262.8c0.1,0.1,0.2,0.3,0.3,0.4C167.2,262.9,167.2,262.7,167.1,262.8z"/>
<path class="st5" d="M167.7,262.8c-0.1-0.3-0.4-0.7-0.5-0.9c0,0,0,0.1,0.1,0.1c0,0,0,0-0.1,0c0,0.1,0,0.1,0.1,0.2c0,0,0,0,0-0.1
	C167.4,262.5,167.7,263,167.7,262.8z"/>
<path class="st5" d="M10.1,200.5c0-0.3,0-0.5-0.1-0.5C10,200.1,10,200.3,10.1,200.5z"/>
<path class="st5" d="M9.2,198.1c-1.1,1.2-1.1,1.7-0.9,3.4C9.6,200.2,10.1,199.8,9.2,198.1z"/>
<path class="st5" d="M20.6,204.5c-0.1-0.1-0.3-0.1-0.6,0C20.3,204.6,20.6,204.7,20.6,204.5z"/>
<path class="st5" d="M8.1,201.9c0.1,0,0.2-0.2,0.2-0.4C8.1,201.7,8,201.9,8.1,201.9z"/>
<path class="st5" d="M17.1,208.3c4.6,0.2,51.1,3.6,53.9-1.3c-1.4,1.5,1.3-1,2-0.2c0.7,2.2,2.1,3.3,4.6,2.5c0.9,2.4,7-0.4,8.9,0.8
	c0.2-0.2,2-2.6,1.4-1.1c2.3-0.8-0.8-0.6,0.8-1.6c4.2-0.1,7.6-4.1,10.5,0.9c4.8,0.1,8.4-2.6,11.7,1c0-1.5,0.7-1,0.7,0.3
	c0-0.6,3.5,0.3,1.7,0.7c1.7-0.2,1.3,0.1,1.3,0.6l5.2,0.1c-1.5-1.1-5.2-2.2-7.7-3.5c1.5-1-1-0.9-2.6-2.2c0.4,1.2-1.6,2.1-0.4,0.8
	c-2.5-4.3-6.9,1.7-9.7-0.8c-2.1-6.4-5.4-1-9.5-1.4c-0.8,0.1-2.9,4.6-2.2,1.7c1.3-0.8-2.8,0.1-0.9,0c-3.5,1.5-3.9,1.4-6.1,0.8
	c0.3,0.7-2,2.6-0.7,0.3c-5.6,1.7-2.3-5.5-7.1-3.5c3.6,0.5-0.5,0.2,2.3,1.1c-2.6,0.8-2.3-2.5-4.8-1.5c-5.4,2.6-10.3,8.1-15.5,5.2
	c-6.5-2.6-19.9-2.9-25.2,0.1c-0.7-1.2-0.4-0.2-0.6,0.3c-2,0.2-1.5-2.1-3.3-1c1.1,0.5,0.6,0.6-0.1,0.5c-0.7-0.4,0.5-3.3-0.2-2.5
	c-1,4-4.7,3.5-2.6-0.7c-1.6,1.8-2.6,4.6-4.5,3.2c3.4,0.5-2.9-0.5-0.9-3C15.5,202.3,16.8,208.3,17.1,208.3z"/>
<path class="st5" d="M99.4,205.3l0.3-0.1C99.6,205.1,99.5,205.2,99.4,205.3z"/>
<path class="st5" d="M29,207.3c-0.1-0.2-0.3-0.3-0.2-0.1L29,207.3z"/>
<path class="st5" d="M20,204.5c-0.9-0.3-0.7-0.1-1.5,0.1C16.5,204.6,19.2,205.4,20,204.5z"/>
<path class="st5" d="M27.7,204.3c0,0.1,0,0.3,0.1,0.5C27.9,204.5,27.8,204.3,27.7,204.3z"/>
<path class="st5" d="M28.6,207.1c0.4-0.4-0.7-1.8-0.8-2.3C26.8,206.8,28.5,208.6,28.6,207.1z"/>
<path class="st5" d="M12,202.9l0.5,0.2C12.5,203,12.3,202.9,12,202.9z"/>
<path class="st5" d="M9.2,197.7c-0.1,0-0.1,0.1,0,0.4C9.3,197.9,9.3,197.8,9.2,197.7z"/>
<path class="st5" d="M13.8,208.6c-2.2-0.2-2-3-2.7-5.6c0.3,0.1,0.7,0.2,1,0.3c-0.2-0.5-0.6-0.4-1-0.3c0-0.1-0.1-0.3-0.1-0.4
	c-0.2-0.7-0.5-1.4-0.9-2c-0.6,3.4-5.2,0.7-7.5,2.4c0.4-1.1,0.2-3.7-0.8-4c-0.6,0.1-0.5,0.6,0.2,0.6c0.9-0.3-1.6,2.7-0.4,3.8
	c-0.3,0.2-0.9,0.1-1.5,0.1L0,208.4l14.3,0.3C14.1,208.7,14,208.6,13.8,208.6z M9.9,202.2c0,0.3,0,0.5,0.1,0.6
	C9,203.2,9.5,202.8,9.9,202.2z"/>
<path class="st5" d="M11,202.6l0.8,0.3C11.5,202.6,11.3,202.4,11,202.6z"/>
<path class="st5" d="M12,203l-0.2-0.1C11.8,203,11.9,203,12,203z"/>
<path class="st5" d="M252.3,246.5c-1.1,4-2.4,9.2-3.8,13.5c0.2-1.1,2.6-9.8,2.5-9.9c-1.6,4.1-1.1,4.3-2.9,10.1
	c-0.6,1.1-2.1,8.5-1.3,4.3c-0.6,2.3-0.4,1.4-0.3,0.6c-0.2,0.4,0.4-2.7,0.7-4.4c-0.9,3.5,0.1-1.3-0.8,1.8c-0.4,2.8-1.4,5.8,0,1.1
	l-1,4.4c0.1-0.3,0.6-2.3,0.6-2.1c-0.9,3.6-0.4,1.9-0.9,3.7c-1,4.2,0.6-4.3,0.6-4.4c-2.5,8-2.3,6.6-3.2,9.7l2.2,0.1
	c0.2-0.7,0.5-1.5,0.8-2.6c-0.1,0.5,0.4-0.6-0.3,1.6c0,0,0,0.2-0.2,1c0.1-0.2,0.1-0.3,0.1-0.4s0.1-0.2,0.1-0.2c0,0.1,0,0.2-0.1,0.3
	c0,0,0,0.1,0,0.2v0.1h0.2l1.9,0.1c0.1-0.1,0.1-0.1,0.2-0.1c-0.4-0.2-0.7,0.5,0.1-0.8c-0.1-0.3-0.6,0.1-0.3-0.5c0,0-0.2,0.5,0,0.2
	c1.2-3.1-0.7,0.9,1-2.9c-0.4,0.6,0-0.4-0.6,0.9c0.3-0.8,0.9-2.7-0.4,0.2c0,0.1-0.1,0.1-0.1,0.3c0-0.3,0.1-0.5,0.1-0.7l0.2-0.7
	c-0.1,0.2-0.1,0.4-0.2,0.5c0.5-3.3,1.1-5.4,1.8-7.7c0.5-1.5,0.7-2.2,0.5-1.9c0.4-1.4,0.7-3,1.1-4.9c-2.2,7.6-1.2,3.4,0.1-0.7l0,0
	v-0.1c0.1-0.4,0.2-0.8,0.4-1.2c-0.5,1-2.4,7.6-3.8,12.5c1.5-5.5,4.5-15.1,3.6-13.1c-1.2,4.5-0.7,2.2-2.4,7.9
	c2.1-8.1,3-10.2,3.9-15.3C253,244.6,253.1,244.2,252.3,246.5z M245.3,274c0,0.1-0.1,0.2-0.1,0.3C245.3,273.7,245.5,273.2,245.3,274z
	"/>
<path class="st5" d="M250.2,256.9c0.1-0.3,0.2-0.8,0.3-1.2C250.4,256,250.3,256.5,250.2,256.9z"/>
<path class="st5" d="M245.1,274.6c0,0.1-0.1,0.2-0.1,0.4C245,274.9,245.1,274.8,245.1,274.6L245.1,274.6z"/>
<path class="st5" d="M217.6,211.9c-0.1,0-0.1-0.3-0.2-0.4c-0.2-0.1-0.3,1.5-0.4,1.4c0-0.3-0.1-0.7-0.1-0.9c-0.2,0.6-0.6,0.7-0.7,0
	c0,0,0-0.8,0-0.6c-0.3,0.3-0.5,1.3-1,0.2c-0.2,0.7-0.3,0.5-0.3,0c0-0.2-0.1,0.1-0.1-0.1c-0.2-1-0.6,1.4-0.3,1.5c0.1,0.2,0.4,0,0.6,0
	c0.2-0.1,0.3,0,0.5,0c0.1,0.1,0.4,0.1,0.5,0c0.3,0,0.6,0,1,0c0.2,0,0.4-0.1,0.4-0.2c0.1-0.2,0.2,0.1,0.3,0.1c0.1,0,0.1-0.2,0.1-0.5
	C217.8,213.3,217.7,212,217.6,211.9L217.6,211.9z"/>
<path class="st5" d="M217.5,211.6L217.5,211.6L217.5,211.6z"/>
<path class="st5" d="M170.9,266.1c-0.5-1.5-2.3-4.8-1.9-3.7c-0.5-0.8-0.2-0.1,0,0.4c-0.2-0.4-0.3-0.5-0.1,0c-0.8-0.3-0.8-1-0.8,0.1
	c-0.8-1.2,0.6,1.9-0.7-0.8c0.6,1.3,0.3,0.9,0.1,0.6c0,0,0.1,0.3,0.2,0.5c-0.7-1-0.1,0.3,0.2,0.9c-0.5-0.1-0.3-0.7-1.1-1.6
	c-0.2,0.2,0.2,0.6,0.4,1c0.2,0.7-1-1.4-0.6-0.6c0.7,1.2,0.4,0.9,0,0.1c-0.1,0,0.5,1,0.2,0.6c-0.3-0.8-0.1-0.2,0,0.1
	c-0.8-1.1,0.1,0.5-1.3-0.4c0.2,0.3,0.2,0.4,0.2,0.4s0,0.1,0.1,0.1c-0.4-0.5,0.4,1-0.3,0.4c-0.5-0.8,0.5,0.8,0.1,0.4
	c-0.2-0.4-0.2,0.5-0.8-0.3c0.5,0.7-0.4-0.2,0.3,0.8c-0.7-0.7-1.1-1.2-0.5,0c-0.4-0.5-0.4-0.6-0.2-0.1c0,0.1,0.1,0.1,0.1,0.2
	c-0.1-0.1-0.4-0.3-0.7-0.7c0.1,0.3,0.2,0.4,0.1,0.4c-0.1,0-0.2-0.2-0.2,0.1c-0.6-0.5-0.1,0.3,0.1,0.7c0.1,0.2,0.1,0.2-0.1-0.1l0,0
	l0,0c-0.1-0.1-0.1-0.2-0.3-0.4c-0.1-0.1-1-0.5,0,0.9c-1.3-0.8,0.1,1.3-0.7,0.4c0.1,0.6-1.4-1-0.4,0.5c-0.2-0.3-2-0.2-1.1,0.2
	c0.1,0.5-0.8,0.1-1.3,0.1c-0.1,0,1.3,1.3,0.6,0.8c-0.4-0.6-0.6-0.2-0.5,0.5c-0.6-1-1,0.5-1.3,0.8c0.1,0.3,0.2,0.5,0.3,0.6l3.9,0.2
	c-0.1-0.2-0.2-0.4-0.1-0.4c0.2,0.2,0.3,0.3,0.4,0.4h0.9c-0.1-0.1-0.1-0.3-0.2-0.5c0.2,0.2,0.5,0.4,0.5,0.5l0.5,0.3
	c0-0.1-0.1-0.2-0.1-0.2c0,0.1,0.1,0.1,0.1,0.2c0.2-0.3-0.4-1.2,0.3-0.5c0.1-0.1-0.2-0.1,0-0.3c0.7,0.9,0-0.4-0.2-0.7
	c0.6,0.7,0.8,0.8,1,0.9c0.4,0.4-0.2-0.6-0.3-1c1,0.8,0.9,0.4,0.4-0.1c-0.2-0.4,0.7,0.8,0.7,0.5l-0.6-0.8c1,1.1,0-0.7,0.9,0.4
	c-0.4-1,0.2,0.4,0.3-0.1c0.5,0.8-0.1-0.2-0.5-0.8c0.3,0.4,0.8,0.9,0.6,0.2c0.2,0.4,0.8,0.8,0-0.3c0.6,0.8-0.3-0.7-0.2-0.8
	c0.1,0.1,0.1,0.1,0.1,0.2l0,0c0.1,0.1,0.3,0.2,0,0c0-0.1,0-0.1,0.1-0.2c0.7,1-0.6-1.2,0.5,0.3c-0.5-0.7-0.2-0.5,0-0.2
	c0.2-0.5,0.2,0.4,0.8,1.2c-0.7-1.3-0.4-0.7,0-0.7c-0.3-0.7-0.7-0.8-0.5-0.7c-0.8-1.3-0.1-0.3,0.3,0.3l0,0c0.1,0.1,0.1,0.2,0.1,0.1
	c0.1,0.1,0.1,0.2,0.1,0.2c-0.1-0.3,0.1-0.3-0.4-1.2c0.3,0.2,0.7,1,0.1-0.2c0.3,0.4,0.3,0.5,0.4,0.7c0.8,0.9-0.7-1.8,0.3-0.6
	c0,0,0.1-0.8,0.8-0.2c0.2,0.1-0.4-1,0.1-0.1l-0.3-0.6c-0.1-0.5,0.9,1.2,0.5,0.3c-0.4-0.8,0.1-0.2,0-0.4
	C170.1,264.6,170.8,265.9,170.9,266.1z M159.7,269.3c0,0,0.1,0.1,0.1,0.2C159.8,269.4,159.6,269.4,159.7,269.3z M159.9,268.7
	C159.9,268.8,159.8,268.8,159.9,268.7L159.9,268.7z M164.7,270.2C164.7,270.1,164.7,270.1,164.7,270.2L164.7,270.2z M166.4,264.3
	c0.2,0.1,0.3,0.3,0.3,0.3C166.6,264.5,166.5,264.4,166.4,264.3z"/>
<path class="st5" d="M199.2,225.2C199.1,224.9,199,226,199.2,225.2L199.2,225.2z"/>
<path class="st5" d="M199.2,224.5c-0.1,0.1-0.1,0.3-0.1,0.6C199.1,224.9,199.2,224.7,199.2,224.5z"/>
<path class="st5" d="M211,223.2c0,0.1,0,0.2,0,0.2C211.2,223.7,211,223.3,211,223.2z"/>
<path class="st5" d="M198,225.1c0-0.5,0-0.3,0-0.8C197.9,224.5,198,225,198,225.1z"/>
<path class="st5" d="M215.2,220.3c-3,0.3-8.5-1-10.7,0.2c-0.3-1.2-1.6,0.1-2.1,0.5c-1.2-1-3-0.4-4.3-1c-0.1,0-0.1,0.6-0.2,0.7
	c-0.1-0.4-0.6-0.1-1-0.1c-0.4-0.3-0.9,0.3-1.2,0.5c-0.6,0-1.4-0.2-1.7,0.5c-0.7-0.6-1.2,0.2-1.3,0.9c-0.1-1.4-0.4-0.3-1,0
	c-0.5-1.1-0.6,0.4-0.9,0.9c-0.5-0.1-0.2-0.8-0.9-0.3c-0.7-0.6-0.7-0.2-1.1,0.3c-0.4-0.9-1.3,0-2-0.2c-0.3,0.2,0.1,1.3-0.2,0.4
	c-0.8,1.5-0.5-1.8-1.2,0.4c-0.7-3.9-1.9,3.1-0.5,0.7c0.1-0.1,0.1,0.9,0.2,0.8c0.2,0.2,0.1-0.4,0.2-0.5c0.1-0.1,0.3,0.4,0.5,0.6
	c0.3-0.1,0.8,0.1,1-0.3c0.5,1.1,0.6-0.4,0.7-0.6c0.7,1.8,0.3,0.5,1.7,0.4c0.2,0.3,0.3,0.9,0.8,0.8c0.2,0.7,0.4,0.2,0.6,0
	c0.8,0.9,0.2-1,0.5-1.1c0.2,0.3,0.2,2.1,0.8,0.9c0.2-0.7,0.6,1.9,0.7,0.6c0.1-1,0.2,0.7,0.3,0.5c0.1-0.1,0.3-1.1,0.4-1.3
	c0.2-0.2,0.6,1.5,0.6,1c0.1-0.2-0.4-1.2,0-1.2c0.2,0,0.1,0.9,0.4,0.9c0.3-0.2,0.2-0.9,0.7-0.4c0.7-1.4-0.1,0.6,0.9-0.9
	c0.5,0,0.9,0.2,1.1-0.4c0.2,1.6,0.7,0.4,1-0.2c0.1,0,0.3,0.8,0.4,0.9c0.2,0.2,0.3-1.4,0.6-0.6c1-0.9,1,2.5,2.1,0.4
	c0.4,1.4-0.1,1.1,0.9,1.2c0.4-0.6,1.5-0.6,1.7-1.3c0.3,1.1,1,0.3,1.9,0.1c0.3-0.8,0.3,0.1,0.6,0.2c0.1-0.5-0.2-0.7,0.5-0.6
	c1.4,0.2,0.7,0.5,1.3-0.5c1.1,1.2,1.1-0.5,1.7-0.9c0.9-0.2,0.7,0.9,1,1.3c0.1,0-0.1-1,0.4-0.6c0.5,0.1-0.2-1.1-0.1-1.4
	c0.3,0.5,0.8,1.4,1,0.2c1,0,0.5,0.4,0.9-0.8c0.5-0.2,1.9-0.5,1.7-1.2C215.4,221.2,215,220.7,215.2,220.3z"/>
<path class="st5" d="M245,274.4c-0.1,0.3-0.1,0.2-0.2,0.6C244.9,274.8,244.9,274.6,245,274.4z"/>
<path class="st5" d="M232.1,264.4L232.1,264.4c-0.3-0.2-0.2,0-0.1,0.2c-0.4-0.3,0.7,1.2-0.5,0c0.9,1,0.7,0.4,0.3,0.7
	c-0.7-1,0.3,1-0.9,0.1c0.5,0.8,0,0.6-0.8,0.2c0.6,1,0.2,1.2-0.5,0.9c1.3,1.4,0.6,1.1-0.3,0.1c1.6,1.6-1,0.9-1.4,0.4
	c0,0.3,1.7,1.6-0.1,0.5c0.4,1.4,0.3,1.5,0.8,2.4c-0.8-0.6-0.3-0.8-0.5,0.2c-0.5-0.5-0.6-0.6-0.2-0.6c-1.5-1.3-1.3,0.1-0.5,0.6
	c0.3,0.8-1.6-0.8-1.1,0.1c0.3,0.3,1,0.9,0.5,0.8c-1.4-1.1,0.2,0.2-0.4,0.3c-0.2-0.8-1,1-2.6,2.5l4.9,0.3V274c0.1,0,0.1,0.1,0.2,0.1
	h0.4c0,0-0.1,0-0.1-0.1c0.1,0,0.1,0,0.1,0.1l4.1,0.2c-0.2-0.6-0.5-1.3,0-1.6c-0.7-0.9-1-0.6-1.9,0c0.9-0.5-1.8-2-0.2-2.2
	c0.7-1.3,2.3-1.9,1.6-2.5c2.2-0.1,0.1-0.4,1.1-1c0.4,0.6,0-0.3,0-0.4c0.4,0,0.9,0.9,1.2,0.6C234.7,266,232.5,264.1,232.1,264.4z
	 M225.7,272.5c0.1-0.2,0.4,0.1,0.4,0.2C226.1,272.6,225.9,272.6,225.7,272.5z M228.5,272.4c0,0.5-0.2,0.4-0.2-0.4
	c-0.2,0.7-0.3-0.5,0.2-1.3C228.2,271.2,229,272.1,228.5,272.4z M228.8,272.3l0.1,0.3C228.7,272.7,228.7,272.4,228.8,272.3z
	 M229.1,273.2l0.1,0.3C228.8,273,228.5,272.9,229.1,273.2z M229.2,273.6l0.1,0.4C229.1,273.8,229.1,273.7,229.2,273.6z M229.9,272.2
	C229.8,272.2,229.8,272.1,229.9,272.2C229.8,272,230.1,272.1,229.9,272.2z M230.4,272.2c0.1-0.3-0.1-0.3-0.3-0.6
	C230.6,271.7,230.6,271.9,230.4,272.2z"/>
<path class="st5" d="M245,274.3L245,274.3C245,274.4,245,274.4,245,274.3z"/>
<path class="st5" d="M245,274.3c0-0.1,0.1-0.4,0-0.1C245.1,274,244.9,274.5,245,274.3z"/>
<path class="st5" d="M247.6,274.6l-0.3,0.3C247.4,274.9,247.5,274.7,247.6,274.6z"/>
<path class="st5" d="M29.6,207.4l-0.6-0.2C29.1,207.5,29.4,207.4,29.6,207.4z"/>
<path class="st5" d="M171.4,247.4c0.1-0.8,0.2-1.1,0.5-2.1C169.9,244.9,170.8,246.5,171.4,247.4z"/>
<path class="st5" d="M171.4,248.7c0.3-0.5,0.2-0.9,0-1.3C171.4,247.5,170.8,249.6,171.4,248.7z"/>
<path class="st5" d="M172.9,244c-1.1-1-1.1,1.2-0.8,1.2C172.2,244.4,173.8,244.5,172.9,244z"/>
<path class="st5" d="M168.7,262.2c0-0.1-0.1-0.2-0.1-0.2C168.6,262.1,168.7,262.1,168.7,262.2z"/>
<path class="st5" d="M173.4,244c0.7,0.4,0.3,0.4-0.1,0.3C174.3,245.1,175,242.8,173.4,244z"/>
<path class="st5" d="M171.2,241.6c0,0.2,0.1,0.4,0.2,0.8C171.4,241.9,171.4,241.6,171.2,241.6z"/>
<path class="st5" d="M174.9,243.5c0,0-0.2,0.1-0.3,0.2C174.8,243.7,174.9,243.6,174.9,243.5z"/>
<path class="st5" d="M171.4,243.6c0.9,0.8,0.1-0.8,0-1.2C171.4,242.9,171.3,243.4,171.4,243.6z"/>
<path class="st5" d="M196.3,225.6l-0.1-0.6C196.2,225.1,196.2,225.8,196.3,225.6z"/>
<path class="st5" d="M192.5,227.2C192.6,227.1,192.6,227,192.5,227.2L192.5,227.2z"/>
<path class="st5" d="M191.2,225.2C191.2,225.4,191.3,225.3,191.2,225.2L191.2,225.2z"/>
<path class="st5" d="M184,224c0.1,0,0.1,0.8,0.1,0.8C184.2,224.6,184.2,223.4,184,224z"/>
<path class="st5" d="M183.7,224.1c0.1-1,0-2-0.1-0.3l0,0c0,0.1-0.1-0.2-0.1-0.4c-0.2,0.1,0,1.2,0.1,0.4c0.1,0.9,0.2,0.7,0.4,0.2
	C183.9,222.7,183.9,223.4,183.7,224.1z"/>
<path class="st5" d="M41.1,205.6c-0.7,0.4-1.1,0.6-1.3,0.8C40.3,206.2,40.8,206,41.1,205.6z"/>
<path class="st5" d="M134.9,211.4h0.4C135.2,211,135,211.1,134.9,211.4z"/>
<path class="st5" d="M96.6,206.1l-0.5,0.3C96.5,206.6,96.7,206.6,96.6,206.1z"/>
<path class="st5" d="M133.4,211.3h0.8C134.6,210.9,134,211.2,133.4,211.3z"/>
<path class="st5" d="M89.3,208.8c0.3,0,0.5-0.1,0.6-0.2C89.7,208.6,89.5,208.6,89.3,208.8z"/>
<path class="st5" d="M90.3,208.1c-0.1,0.1-0.2,0.3-0.3,0.4C90.2,208.5,90.4,208.4,90.3,208.1z"/>
<path class="st5" d="M209.1,209.8C209.1,210.1,209.2,209.7,209.1,209.8L209.1,209.8z"/>
<path class="st5" d="M184.7,212.5c0.6,0,0.8-0.3,1.2-0.2c0.4,0,0.6-0.1,0.8,0.2c0.5,0.2,1.3,0,2.6,0.1c6.4,0.1,19.1,0.6,21.9,0.5
	c1.3,0,4,0.7,3-1.6c-0.3,0-0.7,0.3-1.1,0.2c-0.6-0.1-0.9-0.5-1.5-0.7c-0.6-0.2-0.9,0-1,0.5c-0.1,0.2-0.1,0.4-0.2,0
	c-0.1-0.7-0.5-0.6-0.8-1.1c-0.3-0.5-0.3-0.5-0.5,0c0,0-0.1,0-0.1-0.1c-0.2-0.5-0.3-0.3-0.4,0.1c-0.2,0.5-0.2,0.5-0.6,0
	c0,0-0.1,0-0.1,0c-0.1,0.1-0.2,0.7-0.2,0.7c-0.1,0-0.2-0.7-0.5-0.5c-0.2,0.1-0.2,0.1-0.3,0.1c0,0-0.1-0.1-0.2-0.1
	c-0.1,0.1-0.2,0.2-0.3,0.3c-0.2,0.2-0.3,0.1-0.5,0.2c-0.3,0.3-1.4,0.5-1.5,0c-0.1-0.1,0-0.6-0.2-0.6c-0.3,0.1-0.8,1.2-1.3,0.5
	c-0.3-0.3-0.6,0.3-0.9,0.1c-0.2-0.3-0.1-0.2-0.4-0.2c-0.3-0.1-0.8-1-1.4-0.7c-0.1,0-0.1,0.1-0.2,0c-0.1-0.1-0.2-0.8-0.2-1
	c-0.1-0.2-0.1-0.1-0.3-0.1c-0.5,0-1.3,0.1-2,0.2c-0.5,0.1-0.6-0.2-1.1-0.4c-0.8-0.3-1.4,0.5-1.6,0c0-0.1-0.1,0-0.1,0
	c-0.4,0.7-0.8-0.1-1.3-0.3c-0.1,0-0.3,0-0.3,0c-0.5,0.4-0.8-0.2-1.4,0.2c-0.6,0.2-1.3,1.2-1.5,0.1c0-0.5,0.2-1.2-0.5-0.7
	c-0.2,0.1-0.2,0.5-0.4,0.6c0,0-0.1-0.1-0.2-0.1c-0.3-0.4-0.5,0-0.8,0.1c-0.2,0-0.3-0.2-0.6-0.1c-0.2,0.1-0.5,0.3-0.8,0.4
	c-0.7,0-1-0.4-1.7-0.2c-0.4,0-0.5-0.1-0.8-0.2c-0.3,0-0.3,0.1-0.4,0.1c-0.1,0-0.2-0.2-0.2-0.2c0,0-0.1,0-0.1,0
	c-0.5,0.7-0.5,2.2-0.4,3c0.1,0.5,0.3,0.3,0.6,0.3c0.1,0,0.4,0.2,0.6,0.2L184.7,212.5z M188.7,212c0,0.2,0,0.3,0,0.4
	C188.5,212.4,188.7,212,188.7,212z M186.4,211.4c-0.1,0.3,0.1,0.3-0.2,0.7C186.2,211.9,186.4,210.9,186.4,211.4z"/>
<path class="st5" d="M188.6,208.7C188.7,208.7,188.8,208.5,188.6,208.7L188.6,208.7z"/>
<path class="st5" d="M193.8,208.9l-0.2,0.2C193.7,209.2,193.8,209,193.8,208.9z"/>
<path class="st5" d="M201.7,210.9c0-0.3-0.1-0.5-0.1-0.2C201.6,210.7,201.6,211,201.7,210.9z"/>
<path class="st5" d="M206,210.2c0,0.1,0,0.2,0,0.2C206.1,210.4,206.1,210.3,206,210.2z"/>
<path class="st5" d="M112,210.3c0,0.1,0,0.1,0,0.2C112.1,210.4,112.1,210.4,112,210.3z"/>
<path class="st5" d="M96.4,229.6c0.4-0.1,0.6-0.3,0.9,0.2c0.2,0.3,0.5,0.5,1.1,0.7c0.3,0.2,3.5,0.7,2.1,0.1c-1.1-0.3-1.1-1.6,0-1.7
	c0.8,0,0.9,0.2,1.3-0.5c0.4-0.7,0.2,0.1,0.6,0.8c0.2,0.5,0.8,1,1.3,1.1c0.1,0-0.3-0.2-0.3-0.2c-0.5-0.3-0.8-1-0.1-1.3
	c0.5-0.2,1-0.1,1.6-0.2c0.4-0.1,0.7,0,1.2,0.1c0.9,0.1,2,0.1,2.7-0.3c0.2-0.1,0.2-0.1,0.4-0.2c0.3,0,0.2,0.3,0.4,0.4
	c0.2,0.1,0.4-0.2,0.5-0.1c0.1,0.2,0.2,0.5,0.3,0.7c0.2,0.3,0.5,0.1,0.7,0c0.4-0.3,1.1-0.7,1.3-1.1c0.1-0.3-0.1-0.7-0.3-0.7
	c-0.1,0-0.4,0.4-0.5,0.1c-0.1-0.2,0-0.5-0.3-0.3c-0.1,0.1-0.5,0.4-0.6,0.2c-0.2-0.5-1.6-0.4-2.2-0.9c-0.3-0.1-0.6,0.5-0.7,0.2
	c-0.1-0.1-0.1-0.4-0.3-0.5c-0.2,0-0.3,0-0.5,0.1c-1.4,0.9-0.5-0.9-1.4-1.4c-0.6-0.4-1.1-0.4-1.7,0c-0.3,0.2-0.4,0.4-0.7,0.5
	c-0.3-0.1-0.5,0-0.8,0.3c0,0-0.2,0.5-0.3,0.3c0-0.3-0.2-0.8-0.7-0.9c-0.3-0.1-0.6-0.5-1.2-0.9c-0.6-0.3-0.9-0.1-1.3,0
	c-0.3,0.1-0.5,0.4-0.7,0.6c-0.3,0.4-0.2,0.8-0.3,0.9c0,0-0.1,0-0.1-0.1c-0.3-0.2-0.3-0.3-0.7-0.4c-0.3,0-0.5,0.1-0.7,0
	c-0.1-0.1-0.3,0.1-0.3,0.1c-0.2,0.3-0.6,0.2-0.8,0.3c-0.1,0.1-0.2,0.2-0.2,0.2c0,0-0.1,0-0.1,0c0,0.1,0-0.5,0-0.5
	c0.1-0.8-0.5-2.6-0.9-2.8c0.3,0.9-0.3,2.7-1,3.5c-0.2,0.2-0.4-0.6-0.6-0.5c-0.3,0-0.9,0.7-1.2,0.5c-0.3-0.3,0-0.8,0.3-1.1
	c0.4-0.4,1.1-0.7,1-1.1c-0.4-0.6-1.2-0.3-1.8-0.3c-0.9,0.1-1.4-0.2-1.8-0.7c0-0.1-0.1-0.1-0.1,0c-0.1,0.1-0.3,0.5-0.4,0.7
	c-0.4,0.7-1.6,1.8-1.8,1c-0.2-0.3-0.3,0-0.7-0.1c-0.2-0.1-0.6-0.1-0.8,0c-0.1,0-0.5,0.3-0.6,0.1c0-0.2,1.5-1.5,0.7-2.2
	c-0.8-0.7-1.5,0.8-1.3,1.4c0.2,0,0.6-0.6,0.8-0.6c0.3,0,0.1,0.4-0.1,0.5c-0.9,0.7-2.4-0.2-3.4,0c-0.5,0.1-0.9,0.5-1.3,0.9
	c-0.1,0.1-0.3,0.3-0.4,0.3c-0.3-0.1-0.2-0.1-0.4-0.1c-0.3,0.2-0.7,0.4-1.1,0.3c-0.4-0.1-0.8-0.3-1.2-0.5c-0.4-0.1-0.4,0.4-0.6,0.6
	c-0.3,0-0.8-0.4-1.2-0.1c-0.4,0.2-0.6,0.5-1,0.8c-0.3,0.2-0.9,0.2-1.2,0c-0.1-0.1-0.2-0.4-0.2-0.5c-0.1-0.4-0.6-0.2-0.7,0.1
	c-0.1,0.2,0,0.4-0.1,0.7c-0.1,0-0.4-0.4-0.8-0.3c-0.3,0-0.5,0.2-0.7,0.3c-0.2,0.1-0.5-0.1-0.8,0c-0.5,0.1-1.2,0.5-1.9,0.5
	c-0.9-0.1-1.9,0.1-2.7,0c-0.3-0.1-0.5,0.3-0.8,0.2c-0.2-0.1-0.5-0.3-0.6,0c-0.3,0.7,0,3.2,0.4,3.2c0.2,0,0.4,0.1,0.6,0.2
	c0.4,0.1,0.8-0.1,1.2,0c0.2,0,0.4,0.1,0.5,0.1c0.1,0,0.2,0,0.2,0.1c-0.1,0.2-1.8,2.4-1.8,1.4c0-0.3,0-0.4-0.2-0.1
	c-0.7,1.5,0.6,1.5,1.6,1.9c0.1,0.2-0.2,0.3-0.1,0.6c0.3,0.9,1.8,1.9,2.7,1.6c1.2-0.5,1.9-2.4,2.5-3.3c0.1-0.4-1.2,1.3-2.2,0.3
	c-0.6-0.5-0.8-1.7-0.9-2.3c-0.2-0.7,0.2-0.5,0.5-0.9c0.4-0.8,0.7-1.9,0.7,0.1c0,1.1,0.8,2.5,1.1,0.9c0.1-0.4,0.1-0.9,0.3-1.2
	c0.1-0.1,0.3,0.2,0.8,0.1c0.5,0.1,1.5,0.1,2.1-0.1c1.1-0.3,1.6-0.6,2.6-0.4c0.6,0.1,1.1,0.5,1.5,0.4c0.4-0.2,1.1,0.2,1.5,0.3
	c0.4,0.1,0.9-0.1,1.2-0.1c0.5,0,0.9,0.2,1.6,0c0.5-0.2,0.9-0.3,1.3-0.4c0.3,0,0.7-0.1,1,0c0.6,0.2,1.2,0.3,1.6,0.3
	c1.1,0.1,2.2,0.4,3.3,0.5c1,0.1,1.7-0.4,2.7-0.2c0.3,0.1,0.7,0,0.9,0.1c0.2,0.1,0.2,0,0.3,0c0.7-0.1,1-0.2,1.7-0.2
	c0.5,0,1,0.3,1.5,0.1L96.4,229.6z M99.1,228.1c0.2,0.1,0.2,0.2,0.2,0.4C99.2,228.3,98.9,228.3,99.1,228.1z M71.9,225.1
	c0-0.1,0-0.2,0.1-0.2C72,224.9,71.9,225,71.9,225.1z M64.6,229.5c0-0.2-0.1-0.4,0-0.5C64.6,229.2,64.8,229.4,64.6,229.5z
	 M65.1,229.4L65.1,229.4C65.1,229.4,65.2,229.4,65.1,229.4z M67.1,229.5c0.1,0.1,0.2,0.2,0.2,0.4C66.9,230.2,67,229.8,67.1,229.5z
	 M69.9,229.3C69.9,229.1,70,228.7,69.9,229.3C70.1,229.1,70,229.2,69.9,229.3z M72.6,228.6c0-0.7-0.1-0.2,0.2,0
	C72.8,228.6,72.7,228.6,72.6,228.6z M82.7,225.6c0-0.2,0.2-0.3,0.3-0.5C82.9,225.3,82.7,225.6,82.7,225.6z M83.1,224.9v0.1
	C83,225.2,83,225,83.1,224.9z M89,226.2c-0.4-1.7-0.9-0.7,0-2.2C89,224.3,89.3,226,89,226.2z"/>
<path class="st5" d="M124.7,211c0,0.1-0.1,0.1-0.1,0.1h0.3C124.8,211.1,124.7,211.1,124.7,211z"/>
<path class="st5" d="M125.3,211.2h1.3C126.3,211,125.7,211.1,125.3,211.2z"/>
<path class="st5" d="M13.1,204.1c1,0-0.4-0.8-1-0.9C12.4,203.6,12.7,204,13.1,204.1z"/>
<path class="st5" d="M12.5,207.1c1.3,0.3,2.9,0.6,3.4-1.2C15.8,203,12.1,204.2,12.5,207.1z"/>
<path class="st5" d="M0.6,199.4c-0.1,0-0.3,0.1-0.4,0.1v1.6C1,200.2,1.8,199.7,0.6,199.4z"/>
<path class="st5" d="M0.7,200.9c0,0.1-0.1,0.2,0,0.2C0.7,201.1,0.7,201,0.7,200.9z"/>
<path class="st5" d="M218,213.2h0.2c0-0.1,0-0.2,0.1-0.2C218.1,212.3,218,212.7,218,213.2z"/>
<path class="st5" d="M10.9,174.7c0.6-3.9-4.7-4.1-4.1-0.9c-0.5,0.3-4.5,3.2-6.2,6.5l-0.1,6.1C3.6,181.5,7,176.4,10.9,174.7z"/>
<path class="st5" d="M15.2,255.7c3.7-1.3-1-1.5,3.3-4.9c0.6-1.2-2.1-1.9-1.5-0.2c2.3-0.9,0.7,1.4-0.7,1.2c-2.1-0.8,2.8-0.3-0.3-1
	c0.3,0.3-5.5-1.6-4.3-3.1c-0.4,2.1,1.5,0.3,0.9,0c-1.4-0.6-1.8-3.9-2.3-4.9c-1.2-1-3.2,1.4-4.1,0c-1.2,0.3-4.1-3.7-4-1.4
	c-0.5-0.1-0.8-1-0.4,0.1c-0.9-0.4-0.2,0.5-0.1,0.8c-0.3-0.2-0.5-0.6-0.8-0.4c1.3,0.7,0.2,1.1-0.1,0.5c0.2,0.7,0,1-0.2,1l0.2,8.7
	c0.2-0.1,0.4-0.3,0.3-0.9c0.1,0.1,0.7,0.6,0.6,0.1c-0.7-0.8,3.1-1.3,1.6-3.1c0.4-0.1,1.3,0.7,2.9,0.8c-3.2,1.2,2.8,6.3,5.4,5.6
	c0.2-0.5-0.3-0.8,0.6-0.8c-0.9,2,0.6,0.2,0.4,1.1c-1.4,1.7-2.5,3.9-3.4,6.8l3.7,0.2c0.2-0.4,0.4-0.9,0.5-1.2c0.5,0-0.2-1.6,0.4-0.7
	c2.3,0.3,0.3-4.6,2.1-3.5C16,256.2,15.1,256.3,15.2,255.7z M5.3,247.3c-0.1,0.5-0.1,0.1,0.1-0.4C5.6,247.1,5.7,247.4,5.3,247.3z
	 M5.9,247.2C5.8,247.3,5.9,247.2,5.9,247.2L5.9,247.2z M6.9,247.5c-0.3-0.2-1.1,0.1-0.9-0.2C6.2,247.2,7.1,247.3,6.9,247.5z
	 M9.7,250.8c-0.2,0,0-0.3,0.1-0.4C9.9,250.3,9.8,250.6,9.7,250.8z"/>
<path class="st5" d="M242.2,274.5c0-0.1,0-0.1,0.1-0.1C242.2,274.3,242.2,274.4,242.2,274.5z"/>
<path class="st5" d="M167.8,268.1c-0.1-0.2-0.2-0.3-0.3-0.5L167.8,268.1z"/>
<path class="st5" d="M165.9,270.5h0.5c0,0-0.1-0.1-0.2-0.1S166,270.5,165.9,270.5z"/>
<path class="st5" d="M227.5,268.8c0.1,0.1,0.3,0.2,0.4,0.3C227.6,268.8,227.6,268.5,227.5,268.8z"/>
<path class="st5" d="M215.7,220.5c0.3,0.2,0.6,0.3,0.3,0H215.7z"/>
<path class="st5" d="M249.5,254.5c0.1-0.4,0.2-0.6,0.2-0.8C249.7,253.8,249.6,254.1,249.5,254.5z"/>
<path class="st5" d="M249.7,253.7C249.8,253.5,249.8,253.4,249.7,253.7L249.7,253.7z"/>
<path class="st5" d="M251.4,249.6c0.1-0.2,0.2-0.5,0.3-1C251.6,248.9,251.5,249.3,251.4,249.6z"/>
<path class="st5" d="M167.8,264c0-0.1-0.1-0.1-0.1-0.2L167.8,264z"/>
<path class="st5" d="M129,255.1c-0.9-0.8,0.1,0.2,0.2,0.4c-1.3-1.2,0.7,0.8-0.6-0.4c0.1,0.1,0.1,0.2,0.2,0.3c0-0.1-0.1-0.1-0.2-0.2
	c-0.2,0.5-0.1,0.2,0.4,0.7c0.1,0.2-0.1,0.1,0.7,1.1c-0.1,0-0.5-0.3-0.9-0.6c-0.3-0.2-0.5-0.4-0.6-0.4c0.1,0-0.1-0.2,0-0.2
	c-0.3-0.3-0.2-0.1-0.1,0.1l-0.1-0.1c-0.2,0.1,0.2,0.3,0.4,0.5c-0.2-0.2-0.2-0.2-0.2-0.2s0,0,0.1,0c0.2,0.3,0.4,0.4,0.7,0.7
	c0.4,0.6-1.3-1.1-0.7-0.4c0.9,0.9,0.6,0.9,0,0.2c-0.1,0,0.8,0.8,0.3,0.5l0,0v0.1c-0.6-0.6-0.5-0.5-0.2,0.2c-0.4-0.5-0.4-0.1-1.1-0.4
	l0.1,0.1c-0.1,0,1,0.8,0,0.1c0.3,0.4,0.6,0.9,0.1,0.5c-0.5-0.5,0.7,0.8,0.3,0.5c-0.4-0.4,0,0.4-0.8-0.2c0.5,0.7,0.3,0.5-0.5,0
	c0.2,0.3,0.4,0.6,0.5,0.7c0,0,0,0-0.1,0s-0.2-0.1-0.5-0.4c0.1,0.1,0.1,0.2,0.2,0.3c0,0-0.1,0-0.1-0.1c0.1,0.1,0.1,0.2,0.1,0.2l0,0
	c0,0.1-0.6-0.5-0.6,0.2c1.4,1.4-0.2,0-0.4-0.1c-0.3,0.4,0.8,1.1,0.4,1c-0.7-0.1-1.4,0.3-1.8,0.8c-0.3,0.4-0.5,0.7-0.3,1
	c-0.3-0.5-0.3,0-0.3,0.5c-0.6-0.9,0.1,0.4-0.4-0.3c-0.2-0.2,0.4,0.5,0,0.2c-0.9,0.2-1.2,1.6-0.2,2.4c-1.3-1-0.3-0.5-0.4,0.3
	c-0.5-0.6-1-0.7-0.4-0.3c0,0.3,0,0.4,0.6,1.1c-0.3-0.3-0.2,0.1-0.3,0.1c-0.6-0.6-0.9-0.8-0.2,0c-0.1-0.1-0.1-0.1-0.2-0.2
	c0.1,0.1,0.1,0.2,0.2,0.2c-0.8,0-0.4-0.4-1.9-2.4c-4.9,2.3,2,2.9,0.4,3.3c-0.2-0.1,1.3,1.3,0.3,0.4c0.4,0.4,0.4,0.4-0.1,0
	c0.5,0.5,0.4,0.5,0,0.1c0.2,0.3,0.3,0.6-0.1,0c-0.5-0.5-0.7-0.4-0.7-0.3c1,1,0.1,0.3,0.7,1c-1-1-1.3-1.3-1.3-0.9
	c-0.1-0.1-0.3-0.2-0.2-0.1c0.1,0,0.2,0.2,0.3,0.2c0.1,0.2,0.2,0.5,0.5,0.9c-0.2,0,0,0.3-0.7-0.3c0.1,0.2,0.1,0.3,0.3,0.4h0.4l0,0
	h0.2l1.7,0.1c-0.1-0.2-0.3-0.3-0.6-0.6c0.2,0.1,0.5,0.4,0.7,0.6h0.2c-0.3-0.8,0.8,0,0.1-0.9c1.1,0.6,1,1.3,2.7,0.5
	c0.4-0.3,1.5-1.9,0.9-3c0.2,0.2,0.2,0.2-0.5-0.7c-0.5-0.6,0.4,0.3,0-0.2l0.6,0.5c-0.9-1.2,0-0.4,0.3,0.2c0-0.2-0.8-1.1-0.6-1.1
	c1.3,0.9,1,3,2.1,0.8c0.6,0.5,0,0-0.1-0.4c0.4,0.3,0.4,0.4,0.1-0.3c0.2,0.2,0.1,0.1,0-0.1c0,0,0,0,0.1,0.1c0.1-0.2-0.5-1.1,0.2-0.4
	c-0.4-0.5-0.1-0.1,0.1,0c-0.3-0.4-0.2-0.4,0-0.1c-0.5-1.1-0.2-0.5,0.5-0.1c0.4,0.4-0.3-0.6-0.4-0.9c0.8,0.6,0.5,0.1,1,0.4
	c-0.2-0.2-0.3-0.4-0.4-0.5c0.3,0.4,1.3,1.5,0.7-0.1c-0.1-0.2,0.1-0.1,0.3,0s0.3,0.1-0.5-0.8c0.3,0.2,0.9,0.6,0.4-0.1
	c0.3,0.3,0.9,0.8,0-0.2c0.5,0.5,0.1,0-0.1-0.3c0.9,0.9-0.9-1-0.3-0.7c-0.1-0.3,0.2,0.2,0.2,0.2c-0.2-0.4,0-0.3,0.2,0
	c0.5,0.7,1,0.9,0.3,0.1c0-0.1,0.5,0.4,0.4,0.2c-0.4-0.6-1-0.6-0.8-0.6c-1.6-1.8,2,1.8,0.1-0.6c0.2,0.1,0.4,0.3-0.1-0.3
	c0.5,0.4,0.3,0.3,0.5,0.6c0.7,0.4-0.5-1-0.1-0.8c0.5-0.4,1.2,0,0.3-0.8c-0.1-0.3,1.5,1.1,0.3-0.1c0-0.1,0-0.1,0-0.1
	c0.1,0,0.2,0.1,0.3,0.2c-0.8-1.3,0.5,0.4,0.7,0.3C131.4,257.2,128.4,254.4,129,255.1z M128.6,255.4c0.1,0.1,0.2,0.1,0.3,0.2
	c0,0.1,0.1,0.1,0.1,0.2C128.8,255.6,128.7,255.5,128.6,255.4z M121.5,266.2c-0.2,0,0-0.1,0-0.2C121.6,266.3,121.8,266.5,121.5,266.2
	z M121.8,266.1C121.3,265.6,122,265.5,121.8,266.1C122.8,266.7,121.5,265.8,121.8,266.1z M126,264.8
	C125.9,264.8,125.9,264.7,126,264.8L126,264.8z M125.6,264.7c-0.3,0-0.7-0.6-0.4-0.4C125.6,264.7,125.5,264.6,125.6,264.7z
	 M126.7,263.1c0.1,0.1,0.5,0.2,0.4,0.4C127,263.4,126.9,263.3,126.7,263.1z M129.4,260.8c0,0.1-0.1-0.1-0.1-0.1L129.4,260.8z
	 M128.7,257.6c0.2,0.1,0.3,0.2,0.3,0.3C128.9,257.7,128.8,257.7,128.7,257.6z M129.5,261.7c0,0.1,0,0.2,0.1,0.4l-0.4-0.4
	C129.4,261.8,129.5,261.8,129.5,261.7z"/>
<path class="st5" d="M195.2,220.9c0-0.1,0-0.1-0.1-0.1L195.2,220.9z"/>
<path class="st5" d="M195.7,221C195.5,220.5,195.6,220.9,195.7,221L195.7,221z"/>
<path class="st5" d="M192.8,221.7C192.9,221.5,192.8,221.6,192.8,221.7L192.8,221.7z"/>
<path class="st5" d="M184.4,222.6c0,0,0.2,0.3,0.2,0.2C184.6,222.8,184.4,222.3,184.4,222.6z"/>
<path class="st5" d="M186.2,223c0,0,0-0.1-0.1-0.2L186.2,223z"/>
<path class="st5" d="M189.8,222.4v0.5C189.9,222.8,189.9,222.5,189.8,222.4z"/>
<path class="st5" d="M158.2,270.1h0.5V270c0,0.1,0.1,0.1,0.1,0.1h0.2c-0.1-0.1-0.3-0.3-0.5-0.4C158.4,269.8,158.3,269.9,158.2,270.1
	z"/>
<path class="st5" d="M215.5,211.2c0,0.2,0,0.2,0,0.4C215.6,211.5,215.5,211.3,215.5,211.2z"/>
<path class="st6" d="M102,238.6c0,0.1,0,0.4,0.2,0.7C102.2,238.9,102.2,238.6,102,238.6z"/>
<path class="st6" d="M101.8,242.3c0.3,1.2-0.3,4.1,0.2,3.7C102,244.1,103.7,242,101.8,242.3z"/>
<path class="st6" d="M89.1,235.3c0,0.1,0,0.4,0.2,0.7C89.3,235.6,89.3,235.3,89.1,235.3z"/>
<path class="st6" d="M89.2,237.7c1.4,0.8,0.2-1.1,0.1-1.7C89.2,236.6,89,237.5,89.2,237.7z"/>
<path class="st6" d="M110.3,256.8c0.7-1.2-0.5-1.4-0.8-0.3C109.7,256.5,110.2,256.5,110.3,256.8z"/>
<path class="st6" d="M114.8,233.2c-2.5-0.9-4.8-0.2-2.1,2.1C114,235.1,113.3,233.2,114.8,233.2z"/>
<path class="st6" d="M109.1,261.5c-0.2-0.2-0.5-0.3-0.7-0.3C108.5,261.3,108.9,261.4,109.1,261.5z"/>
<path class="st6" d="M109.8,261.2c0,1,2.4,1.1,2.5,0.7C112.1,261.5,110.3,259.2,109.8,261.2z"/>
<path class="st6" d="M111.6,247.5c-0.3-0.2,0.6-1.4-0.5-1.2C110.6,247.3,110.5,247.4,111.6,247.5z"/>
<g>
	<path class="st5" d="M64.5,319.3h0.2l0,0H64.5z"/>
	<path class="st5" d="M14.7,289.5c-0.1,0.1-0.1,0.2-0.3,0.4C14.5,289.8,14.6,289.7,14.7,289.5z"/>
	<path class="st5" d="M117.9,323.9l1.4,0.1c0-0.2,0.1-0.4,0.5-0.4c-0.6-0.6-0.7,0.1-1.2-0.5c0-0.1,0-0.1,0.1-0.1h-0.8
		c0.2-0.1,0-0.6,0.4-0.4c-1.1-0.8-2.2,0.1-2.5-0.7h0.1c-1.8-0.2-0.3,0.5-1.8,0.9l-0.5-1.7l-0.3,0.5c-0.2-0.1-0.5-0.2-0.4-0.4
		c-0.8,0.2,0,0.3-0.4,0.6c-0.7-0.8-2.4-0.3-2.4-1.3c-0.4,0.4,0.7,0.5-0.2,0.6c0-1.1-1.1-0.1-1.8-0.7c0.4-0.5,1,0,0.4-0.7
		c-0.7,0.8-1.5-0.5-2.2-0.5c-0.2,0.7-1.5,0-2.7,0c0.1-0.2-2-0.8-3-1.2l0,0c-0.3,0.7-1.4,0.4-2.2,0.4c0.1-0.4,0.3-0.6,0.7-0.7
		l-0.7-0.1c-0.2,0.2-0.5,0.3-1,0.3l0.3-0.5c-1-0.1-2.1,0.3-3.3-0.2c-0.1,0.5,0.8,1.6-0.6,1.7c0-0.3,0-0.8,0.4-0.8
		c-0.1,0-0.4,0.2-0.7,0l0.6-0.4c-0.5-0.3-0.4,0.3-0.8,0.2c0.1-0.4-0.3-0.3-0.2-0.6c0.1,0,0.4,0.2,0.6,0.1c-0.5-0.1-1.1-0.5-1.3-0.8
		c0,0.2-0.1,0.5-0.5,0.5c-1-0.1-0.3-0.5-0.8-0.8c-0.3,0.2-0.9-0.1-1,0.5c-0.3,0-0.3-0.3-0.4-0.5c-0.5,0.2-2.4-0.2-1.9,0.5l0.1,0.1
		c0,0,0,0-0.1,0c-1.7,0.4-3.5-0.7-5.2-0.5v-0.2c-1,0.1-2.2,0-3,0.4c-0.3,0-0.7-0.4-0.5-0.6c-0.8,0.1-0.9,0.3-2-0.1
		c0.8-0.3-0.2-0.3,0.8-0.2c-1-0.2-1.2-0.5-2.3,0c0.4-0.5-0.7-0.7-1.2-0.5l0.7,0.4c-0.5,0.1-1,0-1.5,0l0.3-0.7c-1-0.4-2,0-2.9,0.3
		s-1.7,0.6-2.5,0c-0.5,0.5,1.2,0.2,0.7,0.8c-1,0-2.1-0.8-2.4-0.8c-0.7-0.1-1,0.2-1.3,0.5s-0.5,0.6-1.2,0.7c0.2,0.2,0.5,0.8-0.4,1.2
		c-0.5,0.1-0.9-0.1-1.1-0.4c0-0.1,0-0.1,0.1-0.2h-0.1c0-0.2,0-0.3,0.2-0.4s0.4,0,0.4,0c0.3-0.2,0.7-0.4,0.2-0.5l-0.1,0.3
		c-0.2,0-0.5,0-0.8,0c-0.3-0.2-0.7,0.1-0.9-0.6c0.2-0.3,0.3-0.8,0.4-1.3c0.1-0.4,0.2-0.8,0.6-1c-0.4,1.1-0.2,1,0,0.9
		s0.4-0.2,0.4,0.4c0.1-0.3,0.2-0.7,0.3-1.1c0.1-0.1,0.1,0.1,0.1,0.2c1.1-2.6-0.5-1-0.1-3.2c0.4,0.1,0.9-1,0.8-1.4
		c-0.1,1-0.7,0.9-0.9,0.4c0.5-1.6,0-1.2,0.1-1.9l-0.3,0.9c-0.4,0.2-0.2-0.5-0.2-1.2c0.1-0.1,0.1-0.1,0.2-0.1c0-0.1,0-0.2,0-0.4
		l0.1-0.2v-0.1v-0.1c-0.1,0-0.2,0-0.2,0c-0.3,0-0.8-0.1-1.6,0.5c-0.4-0.1,0.5-1,0-0.9c-1,0.7-1.3,0.7-1.7,0.7
		c-0.4,0.1-0.9,0.2-1.9,0.9c0.5,0.3,0.5,0.2-0.7,1.3c0.9-0.6,1.8-1.2,2.8-1.8c-0.7,0.6-1.4,1.2-1.9,1.7c0.7-0.4,1.7-1.2,2.1-1.3
		c-1,0.9-0.8,0.7-0.7,1.1c-0.2-0.3-0.8,0.1-1.3,0.5s-1,0.8-1.5,0.8l-0.1-1.3c-0.5,0.1-1.1,0.4-1.5,0.6c-0.3,0.2-0.4,0.2-0.5,0.3
		s-0.2,0.2-0.4,0.3c-0.5,0.5-1.1,1-1.9,1.2l0.6-0.1c0,0.5-1,0.6-1.4,1c-0.1-0.4-0.5-0.3-0.9-0.5c0.2,0.2-1.2,0.6-1,1.4l-1-0.1
		c-1.4,0.5-1,1.8-2.3,2.3c0.2-0.6-0.5-0.5,0.2-1.2c-0.4,0.2-0.8,0.3-0.7,0.6c-0.4-0.1-0.9,1.1-1.5,0.9c-0.1,0.2,0,0.6-0.5,0.9
		c-0.1,0-0.1-0.2-0.1-0.2c0.1,0.2-0.6,0.6,0,0.8c-0.7-0.2-1.3,0-1.9,0.3l7.1,0.6c0.8-0.6,1.3-1.5,2.3-0.9c1-0.8,1.9-1.5,2.8-2.1
		c0.5-0.3,0.9-0.6,1.4-1l0.7-0.5c0.2-0.1,0.5-0.3,0.6-0.4c0,0.1,0,0.2,0.1,0.3v0.1l-0.1,0.1c-0.2,0.2-0.4,0.3-0.7,0.5
		c-0.5,0.3-1,0.6-0.7,1c1.9-1.4,1.8-2.2,2.7-2.4c0.1,0.1-0.3,0.6-0.4,0.8c0.3-0.4,0.7-0.5,0.9-0.6c0.4-0.3,0.2,0.2,0.5,0.2
		c-0.1,0.1-0.2,0.1-0.3,0.2c0,0.1-0.2,0.4,0.3,0h-0.1c0.4-0.5,0.8-0.8,1.1-0.8s0.5,0.2,0.7,0.1c-0.7,0.2-0.8,0.6-1,0.9
		c-0.2,0.4-0.4,0.5-1.2,0.7c0.1,0,0.3,0.1,0.6-0.1c-0.1,0.2-0.3,0.2-0.6,0.2c0.1,0.4,0.6,0.2,0.5,0.8c-0.2-0.1-0.2-0.2-0.5-0.3
		c0.1,0.1,0.2,0.1,0.2,0.3c0,0.2,0.1,0.3,0.1,0.5c0,0.4,0,0.7-0.3,1.2c-0.1-0.1-0.3,0-0.2-0.3c-0.2,0.8-0.2,1.6-0.2,2.3l5.8,0.5
		c0.6-0.6-0.4-0.8,0.8-0.9c-0.2,0.1,0.8-0.2,1.4,0.1c0.4-0.3,0.8-0.6,1.4-0.5c0.2,0.2,0,0.8,0.1,1c0.3-0.7,1.9-0.4,2.4-1.1
		c-0.2,0.2-0.1,0.6-0.1,0.6l0.3-0.5c0.4,0.1,0.5,0.2,0.4,0.5c1.2,0-0.4-0.9,1-0.6c-0.1,0,0,0.1-0.3,0.2c1.4,0.1,2.8-0.4,4.1-0.1
		c0.4,0.8-1.1,0.2-0.7,0.8c1.9-0.1,4-0.8,5.8-0.5l-0.3-0.1c0.3-1,1.4,0.6,2.3,0.2c-0.2,0.1-0.3,0.6-0.3,0.5c1.2,0.2,2.6-0.1,4.6-0.2
		l-0.3,0.2c0.7,0.3,2,0.4,2.7,0.5c0.3-0.2,0.7-0.1,0.5-0.6c2.3,1.8,4.8-0.2,6.9,1.4c-0.3,0-0.7,0.1-0.5,0.2H98
		c-0.1-0.5-0.2-0.3-0.5-0.7c0.3-0.2,0.8-0.4,1.3-0.3c-0.9,0.2-0.1,0.7,0.2,1c0-0.1,0.1-0.3,0.1-0.4c0.8,1,0.3-0.9,1.6-0.1l-0.1,0.2
		c0.5,0,1-0.3,1.6-0.1c0.1,0.6-0.6,0.1-0.7,0.6c0.8,0.1,1.7-0.7,2.2-0.1c-0.4,0.1-0.8,0-1.1,0.1c0.6,0.8,0.7,0.6,1.3,0.8l1.2,0.5
		l-0.3-0.2c1.2-1.2,2,0.1,3.4-0.5c-1.4,0.6-0.3,0.4-0.5,1c0.3,0.2,0.7,0.5,0.5,0.7c0.7-0.4,0.9,0.6,1.9,0.1c0,0.2,0.4,0.2,0.4,0.4
		h0.3c-0.1-0.1-0.3-0.3-0.3-0.4c0.7-0.2,1.3,0.2,2.1,0.6l3.6,0.3c0.7-0.1,1.3-0.4,2.2-0.4C118.6,323.7,118.2,323.9,117.9,323.9z"/>
	<path class="st5" d="M19.3,287.4c0.1-0.1,0.1-0.1,0.1-0.2C19.4,287.2,19.4,287.3,19.3,287.4z"/>
	<polygon class="st5" points="120.5,324.2 120.6,324 120.2,324.1 	"/>
	<path class="st5" d="M63.3,307.5C63.3,307.5,63.2,307.5,63.3,307.5C63.2,307.6,63.2,307.8,63.3,307.5z"/>
	<path class="st5" d="M28.6,315.2l-0.3,0.1c-0.6-1,0.5-0.7,0.1-1.6l0.8-0.2c-0.1-0.6-0.5-2.1-0.5-3.2c0.5,0.7,0.6,1.9,0.9,2.7
		c0.1-0.6,0.2-2-0.1-2.3c0,0.2,0.2,0.6,0,0.8c-0.5-0.8-0.7-1.8-0.5-2.9c0.7,0.2,1-0.8,1.2-2.2c0.2-1.3,0.4-2.8,1.2-4.1
		c0-0.3,0-0.5,0-0.8c-1.7,0.5-3,0.7-4.6,0.9c-0.8,0.1-1.6,0.2-2.5,0.3c-0.3,0-0.6,0.1-0.9,0.1s-0.5,0.1-0.8,0.2
		c1.1,1-0.7,0.2-0.3,1.3c-0.5,0.2-0.8,0.2-0.8,0.1c-0.5-0.1-0.7-0.4-0.9-0.6c0-0.4,0.3-0.3,0.3-0.6c-0.1,0-0.1-0.1-0.1-0.3
		c0-0.2,0.1-0.4,0.2-0.6c-0.2,0.5-0.4,0.7-0.4,0.5c-0.1,0.2-0.2,0.4-0.2,0.6c-0.5,0.4-0.5,0.2-0.3-0.1c0.1-0.3,0.5-0.6-0.1-0.2
		c0.2-0.2,0.5-0.4,0.6-0.5c-0.1,0.1-0.3,0.2-0.4,0.2s-0.3,0-1,0.2c0.2-0.1,0.7-0.4,0.8-0.4c0.2-0.2,0-0.3-0.1-0.7v-0.1
		c0-0.1,0.1-0.3,0.1-0.4c0.1-0.3,0.2-0.5,0.2-0.8c0.2-0.5,0.4-0.9,0.7-1.3l0.2,0.3c0.1-0.4-0.3-0.9,0.2-1.2c0.1,0.1,0.2,0.3,0.3,0.1
		c0-0.2-0.1-1.2,0.2-1.6l0.2,0.5c1.1-1.9,0.3-3.4,0.5-5.1c0.9,0.2,1.6-1.3,1.9-2.1l0.1,0.1c0-0.1,0.1-0.3,0.1-0.5s0.1-0.5,0.1-0.8
		c0.1-0.5,0.2-1,0.2-1.5c0.1-1,0.1-1.8,0.1-2.6c0-1.6-0.1-2.8-0.1-4.2c0.2-0.4,0.4-0.9,0.5-1.3c-0.2,0-0.5,0.1-0.9,0.2
		c-0.7,0.2-1.6,0.6-2.6,1c-2,0.8-4.1,1.9-6,2.5c0.6-0.1,0.1,0.7-0.1,0.9c-0.6,0.1-1,1.2-1.3,0.5l0.2-0.1c-0.7-0.5-1.6,0.2-2.4,0.6
		l0.4,1c-0.7,0-1.3,0.1-1.9,0.5c-0.6,0.3-1.1,0.8-1.7,1.2c-1.1,0.9-1.9,1.7-2.8,1.5c-0.3,0.5-0.8,0.9-1.1,1.5V290
		c-1,0.6-1.5,1-2.4,1.7c0.8-1.3,1.7-2.5,2.9-3.5c0.8-0.7,0.4-1.1,0.5-1.8l0.6,0.2v-1.3c0.4-1.5,2.7-1.3,3-3.5H9.3
		c0.5-0.5,1.1-2,1.4-1.6c0-0.1-0.2-0.4,0.1-0.5l0.3,0.2l0.5-1.7c0.9-1,0.9,0.9,2.1-0.7c0.3-0.7,0.4-2.2,0.1-2.1
		c-0.2,0.2-0.6,0.5-0.9,0.3l0.2-0.6c-0.7-0.6-1.2-1.6-2.6-0.6l-0.2,1.2H9.7l0.5-0.8c-0.6,0.2-0.5,0.7-0.5,1.1
		c-0.2-0.1-0.5,0-0.7,0.1l0.1,1.4c-0.4-0.1-0.3-0.8-0.9-0.3c0.1,0.7,0.9,0,0.7,0.9C8.3,278.3,8,278,8,278.7
		c-0.1-0.1-0.2-0.2-0.2-0.3c-0.2,0.6-0.6,1.2-0.5,1.6c-0.8,0.2-1,1.6-1.6,1.1c0.1,0.3,0,1.2-0.2,1.6c-0.3-1.4-1.1,1.5-1.9,0.7
		c0.4,1.1-1.1,2.3-1.3,3.6c0-0.1-0.1-0.3,0-0.4c-0.5,0.5-0.8,0.5-1.2,0.8c0.6,0.5,0.1,1.5,0.2,2.3c-1.1,0.3-0.5-1-1.2-1.1
		c0.6,0.3-0.3,1.6,0.3,1.6c-0.2,0.1-0.3,0.1-0.4,0.2v9.3c1.3-1.3,2.6-2.6,4.1-3c-0.3-0.9,2.1-1.3,1.5-2.3c1.5-0.4,1.3,0,3.1-0.9
		c0.5-0.3,0.2-1,0.7-1.5l0.4,0.5l0.4-1L11,292c0.1-0.2,0.3-0.3,0.4-0.5c-0.2,0.1-0.6,0.1-0.7-0.1c0.7-0.8,2.2-0.9,2.4-0.7
		c0.5-0.6,1.1-1.1,1.7-1.6c0.1,0.1,0,0.3-0.1,0.4c0.4-0.4,0.4,0.7,0.9-0.2c-0.2,0-0.1-0.4-0.2-0.5c0.7,0,1.8-0.6,2.5-1.1v0.5
		c0.2-0.1,0.4-0.2,0.6-0.3c0.2-0.1,0.1-0.1,0.2-0.1c0,0,0.1-0.1,0.1-0.2c0.1-0.1,0.3-0.3,0.5-0.4c0.1-0.2,0.5-1.3,0.9-1.5
		c-0.2,0.3-0.3,0.6-0.5,1c0.5-0.7,0-0.3,0.8-1.2c0.3,0-0.7,1.1-1,1.5c0.1-0.1,0.3-0.3,0.5-0.5c-0.2,0.2-0.3,0.5-0.6,0.7
		c0,0,0,0,0,0.1s-0.1,0.2-0.2,0.3c-0.2,0.2-0.3,0.3,0.1,0l-0.2,0.2c0,0.1,0.2,0.1,0.2,0.4c0.6,0,0.3,0.6,0.6,1.1
		c-0.4,1.1-1.2,2.2-1.5,3.5c0,1,0.4,0.4,0.6,0.9c-0.5-0.1-0.9,1.2-1,0.4c-0.5,1.6-0.6,2-1,4.1c0.3-0.1,0.5-0.3,0.6-0.1
		c-0.1,0.4-0.5,0.7-0.7,0.6v-0.1c0,0.3-0.1,0.6-0.2,0.9c-0.1,0.1-0.1,0.3-0.2,0.4c-0.1,0.2-0.2,0.5-0.4,0.7c-0.5,0.9-1.2,1.9-2,3
		c-1.5,2.1-3.4,4.9-3.2,5.7v-0.1l-0.1,0.5l0.4-0.1l0.4-0.1l0.8-0.3l1.6-0.5c0.6-0.1,0.3,0.1-0.1,0.3c-0.4,0.2-1,0.5-0.6,0.6
		c2.4-0.9,3.6-1.1,5-1.3c0.6-0.1,1.3-0.2,2-0.3c0.6-0.1,1.4-0.3,2-0.6c0.4,0.3,0.9,0.4,1.5,0.4c0.3,0,0.6-0.1,0.9-0.1
		c0.1,0,0.3-0.1,0.5-0.1h0.1c0.1-0.1,0.7-0.4,0.3,0.2l0.3-0.4c0.4-0.4,0.1,0-0.1,0.2l-0.1,0.1c0.1-0.1,0.2-0.2,0.3-0.3
		c0.1-0.1,0.1-0.2,0.3-0.4c0.1,0.1,0.1,0.5,0,0.8c0,0.2-0.1,0.2-0.1,0.5l-0.4,1.5c-0.5,2-1.1,4-1.5,6l4.2,0.4
		C28.5,315.9,28.5,315.6,28.6,315.2z M1.2,294.7L1,294.6c0.2-0.3,0.3-0.5,0.5-0.8C1.5,294.2,1.4,294.5,1.2,294.7z"/>
</g>
<g>
	<path class="st5" d="M186.8,309.6c-0.3,0.2,0.2-0.8,0.2-0.8C186.3,309.1,186.3,310.7,186.8,309.6z"/>
	<path class="st5" d="M188.5,310.1c0.1,0,0.2,0,0.3-0.1C188.9,309.9,188.6,310.1,188.5,310.1z"/>
	<path class="st5" d="M189.1,309.6l-0.3-0.2C189.1,309.5,188.6,310.4,189.1,309.6z"/>
	<path class="st5" d="M187,309.5c-0.1,0-0.1,0-0.2,0.1C186.9,309.6,187,309.6,187,309.5z"/>
	<path class="st5" d="M188.1,309.7c-0.7,1.1,0.6,0.7,0.1-0.1C189.1,307.5,184.6,311.9,188.1,309.7z"/>
	<path class="st5" d="M147.1,300.3c-0.1,0-0.3,0-0.1-0.1C146.6,300.1,146.7,300.7,147.1,300.3z"/>
	<path class="st5" d="M118.8,290.1c1.2-6.8,18-18,2.1-16.5c-2.6,0.2-8.8,0.5-9.1,3c-2.1-1.6-4.8,0-6.4,1.6c-0.2-1.3-0.2,0.6-0.9,0.8
		c-0.3-0.9-0.7,1-0.8-0.1c-0.9,1.2-6,2.1-3.3,1.1c-0.9-1.7-1.2,0.7-3.2,0.4c-0.1,0-0.2,0.1-0.3,0.2c-0.5-0.1-0.8,1.1,1,0.2
		c-0.7,1.9-2,0.6-3.2,0.6c-0.1-0.7,3.3-1,1.7-2c0.8-1.5,1.3-0.7,1.3-2.3c3.8,0.6,0.3-3.5-1.9-2.7c0.5,0.9-0.6,1-0.1,0.2
		c-0.5,0.5-0.9,0.8-0.4,1.7c-1.2-0.7-0.6-0.3-0.1,0.4c-1.3,0.4-3.4,2.6-4.5,4.7c-1.3-0.7-0.1,3.4-1.6,0.4c1.1,2.7-3.2,1-1.7,2.5
		c-1.2-0.8-9.4,11.3-11.9,13.7c3.6-2.6,13.4-9.3,14.7-10.1c0.2-0.2,0.3-0.2,0.1-0.1c2.7-2.8,0,0,1,0.7c2.9-1.2,0.3-2.3,3.6-1.8
		c-0.3-1,0.7-1.8,0.7-0.4c0.3-0.6,1.5-1.8,0.7-0.6c5.9-2.1,15.9-7.3,21.6-7.4c0.9-2.4,0.3,1.4,4.2-2.2l-1.2,1
		c2.6-2.1-1.1,1.1-1.3,1.1c2.5,0.4-0.8,0.4,0.6,1.7c-26.2,28.6,12.8,13.5,22.1,18.5c3.4-1.1,2.8,2.5,6.3,1.6c-1.9,1.4,0.3,2-0.8,2
		c0.5-0.2,1.2,1.1,0.4,0.7c0.6,8.4,4.7,2.8,6.1,6.1c0.5-0.4,1.8-0.9,1.5-0.1c0.2-0.5,0.6-0.6,0.5,0.1c0.7,0.1-0.2-1,0.7-0.5
		c-0.1,0,0,0.1-0.2,0.2c2.4,1.2,6.3-0.6,6.6,0.9c1.9,0.4,7.7-0.8,8.5,0.6c1.9,0.1,0.1-1.2,1.5-1.4c-1,2.1,3.1-1.1,1.6,0.9
		c2.4-1.3-0.6,0.3,2.2,0.8c-0.5-1.4,1.3-0.5,1.8-1.3c-2,3.2,8,0.3,7.5-0.2c-1.3-0.2-2.4-1.6-3.3,0.7c-0.2-0.2-0.5-2.5-0.6-0.9
		c-0.6-0.3-0.3-0.2-0.5,0.3c-1.4-0.3-1.3-0.7-1.6-0.1c-0.1-1-0.7,0.2-1.1-0.3c0.9-0.9-0.6-0.2-1.2-0.8c-1,1.3-3.4-0.7-4.8,0.4
		c0.3-1.1,0.3-0.9-0.6-0.4c0.4-1.2-1.1,0.3-1.9-0.3c0.3,1.4-0.1,2.4-0.5,1c0.4-0.5,0.5-0.6-0.1-0.2c-0.1-0.7-0.3-0.5,0.3-0.6
		c-2.1-1.2-5.8,0.7-8.6-0.8c-1.6,0.7-0.4-1.1-2.1-0.2c-0.5-1.6-0.3,0.4-1.2-0.2c0.6-2.2-2.4,0.7-2.9-0.8c-0.4,0.4,0.6,0.4,0.3,0.9
		c-1.6-1.8-2-0.8-3.2,0.4c-0.7-0.2,0.3-1.7,0.1-1c0.7-1.1-2.3-0.5-1.1-1.6c0.9,0.2,0.8-2.2,1.3-1.4c-4.5-4.4,1.2,0.6-1.8-4.4
		c-2.6,2.2-2.8-4.7-5.2-2.8c2.8,0.4-1.7,2.2-0.2-0.6c-3.2-0.5-4-1.4-7.3-0.4c1.2-2.3-1.1-0.1-1.6-0.5c-1.5,0.8-5.1-1-6.6,0.6
		c0.7-3.4-8.2,2.2-5.8-0.5c-1.6-0.9-2.4,1.2-3.8,1.1c-0.1-1.6-0.9,0.1-2,0.3c1-1,1.8-2.1,0.1-0.8c0.7,1.5-3.4-0.1-1.9-1.8
		c-2.5-0.9-0.1-1.6,1.3-1.5C116.9,290.6,118,290.1,118.8,290.1z M100.2,283.3c-0.2-0.6,0.1-0.3,0.5-0.2
		C100.6,283.1,100.4,283.2,100.2,283.3z"/>
	<path class="st5" d="M96.9,280.5c0.1-0.1,0.2-0.1,0.3-0.2C97.1,280.3,96.9,280.4,96.9,280.5z"/>
	<path class="st5" d="M119.7,278C119.4,278.2,119.5,278.2,119.7,278L119.7,278z"/>
	<path class="st5" d="M75.5,297.9c-0.2,0.1-0.4,0.3-0.5,0.4C75.1,298.3,75.3,298.1,75.5,297.9z"/>
	<path class="st5" d="M184.1,308.1H184H184.1z"/>
	<path class="st5" d="M90.2,287.8L90.2,287.8L90.2,287.8L90.2,287.8z"/>
</g>
<g>
	<path class="st5" d="M221.1,331.3c-0.1,1-1-0.4-1.1,0.5c-1.2,0-0.3,0.9-1.1-0.2c0.1-0.6-1-2.1-0.9-1c-0.5-0.7-0.2,0.5-0.6,0.8
		c-0.7-0.2-0.4-0.6,0.1-1.1c-0.7-0.6-1.3,0.6-2.4,1c-0.1-0.1-0.7-2.1-1.5-2.1c-0.5,1.3,1,0.1-0.3,1.1c1.2-0.1-0.1,0.7-0.6,0.2
		c0.8-1.7-0.1-1.1-1.3-1.3c0.5,0.9-0.8,0.2-0.5-0.5c-0.3,0-1,0.8-0.9-0.1c-3.1,1.4,0.6-1.1-2.5,0.1c-0.7,0.6-3.1-2-4.3-0.5
		c1-2.2-2.3-1.1-3.6-0.5c-0.8-0.7,0.9-1.7-0.5-1.3c0.3-0.7-1.8,0.9-2,0.5c0.2-1.5-0.6-0.3-1.4-0.1c1.8-2,0.6-0.4-0.8-0.1
		c-0.3-2.2-3.8-2.6-4.4-1.3c-0.8-0.9-0.1-1.3-0.6-2.2c-0.1,0.9-0.8,0.1-0.2,1c-1.2-0.1-0.9-2.1-2.7-0.3c0.5-1.7-2.6,0.8-2.3-0.8
		c-0.5,0.5-0.4-0.1-1.2,0.2c-0.2-1.1-1.7,1.3-2.6-0.9c-1.8,0.8-4.5-0.8-5.5,0.3c-0.8,0.3-0.2-1.2-1.2-1c0.3,1-2.5,0.6-2.8-0.1
		c-1.3,0.4-1.8-1.9-3,0.6c-0.2-3.6-6.6,0.4-5.4-1c-1.5,1-1.1-0.2-2.9-0.2c1-0.6,0.6,0.2,0.9-1.4c-0.4,0.3-1.3,1.4-1.3,0.6
		c-0.7-0.9-1.9,0-0.9,0.3c1.1,0-0.3,0.2-0.4,1c-0.4-2.9-2.6-1.3-3.6-0.9c-0.5-2.3-4.8,0.4-7.2-2c-0.3-0.3-0.5,0.1-0.8,0.4
		c0.3-1-0.2-0.3-0.5,0c-1.7-1.9-0.6-0.6-2.3-0.9c-0.2,0-0.1-0.5-0.8-0.2c0.6-2-0.7-1.6-1.2-0.3c-2.8,2.7,1.3,3.4,1.8,3.1
		c0.6,1.3,1.4,0.1,1.7,1.9c0.8-0.7,1.9-0.7,2,0.3c0.9-1.8,1.3-0.9,0.5,0.4c1-1.7,0.6,0.2,1.5-0.8c0.3,1.5,0.5,0.3,0.7-0.4
		c0.4,1.4,1.4,0.1,2.6,0.3c0-1.7,1-0.9,0.1-0.1c0.4-0.2,1-0.6,1.2-0.4c-1.8,1.1-0.2,2.9,0.6,0.8c1-0.5,0.4,1.8,1.1,1
		c0.2-0.4,0.4-1.3,0.8-0.7c-0.6,1.6,0.2-0.2,0.7,0.3c-0.1,0.3-0.5,0.2-0.4,0.3c1,0.4,3-0.2,5.2,1.5c0.2-0.1,1.3-1.2,2.9-0.3
		c-0.2,0.9,0.7-1,0.9-0.3c1.8,0.3,4.8,2,5.6,0.9c-0.3,1.4,0.4-1,0.4,0.8c0.3-0.6,0.7-1,1.1,0.3c0.8-1.1,3.7,2.3,4.5-0.4
		c0.7,0.6-0.2,1.9,3,1.5c0.3-2,2.1,1.3,2.3-0.8c0.3,2.3,2.1-0.4,2.1,0.6c1-0.6,2,1.8,2.8,0.8c0.8-0.2,1-0.8,0.9,0.3
		c1.9-0.4,4,1.1,4.7,1.1c1.2-1.7,4.3,2.3,5.8,0.4c-0.4,0.7,4.1,1.2,4,0.9c0,0.2,0.1,0.3,0.3,0.5l2.7,0.2c0.1,0,0.2-0.1,0.3-0.1
		c0,0.1,0.1,0.1,0.2,0.1l14.8,1.3C220.9,332,222.1,332.1,221.1,331.3z M160,323.2c0-0.2,0.1-0.4,0.1-0.4
		C160.1,323.2,160.7,323.4,160,323.2z"/>
	<path class="st5" d="M159.3,319.2c-0.1,0.1,0,0.4,0,0.2C159.6,319.5,159.5,319.1,159.3,319.2z"/>
	<path class="st5" d="M141.6,320.3l-0.4-0.2C141.2,320.5,141.4,320.4,141.6,320.3z"/>
	<path class="st5" d="M245.2,335c-0.1-0.6-0.5-0.3-0.8-0.1L245.2,335z"/>
	<path class="st5" d="M244,334.9c0-0.1,0.1-0.3,0.3-0.6c0,0-0.4,0.5-0.5,0.6H244z"/>
	<path class="st5" d="M243.2,333.9c0.5-1.2-0.7,0-0.8-0.6c-1,0.8-0.7,1.7-0.9-0.3c-0.1,0.7-1.1,1.3-1.4,0c-0.2,0.4,0.3,0.4-0.1,0.7
		c0-1-0.5,0.1-0.7-0.4c0.2-0.5,0.4-0.2,0.2-0.7c-0.3,0.5-1.1-0.1-2,0.3c-0.5-0.8-1.4-0.6-2.1-0.2c0.1-0.9,0.4-1-0.4-0.4
		c-0.4-1.3-1.2,0.4-1.5,1.5c0.2-1.2-0.7-1.3-0.2-1.6c-0.6-0.2-0.5-0.9-0.7,0c-0.4-0.2-0.4-1.2-0.8-0.1c0-0.6-1.4-0.1-0.8,0.3
		c-1.1,0-3.4,0.6-3.5,0c-1,1-0.4-1.1-1.4-0.1c-0.1-1.5-0.8,1.1-0.8-0.9c-3.7,1.4-1.9-1.7-3.7,1.5l10.6,0.9c0,0,0,0,0-0.1
		c0.1,0,0.1,0,0.1,0.1l1.9,0.2c0.2,0,0.4,0,0.7,0.1h0.4c-0.1-0.5-0.3-0.8,0.3-0.9c-0.4,0.3,0.2,1.5,0.1,0.6c0.3,0.8,0.3-1.3,0.6-0.1
		c0.6-0.5,0.7-0.2,0.3,0.4c0.3,0,0.7-1,0.9-0.4c-0.6,0.2-0.5,0.4-0.3,0.6l0.8,0.1c0.1-0.7,1-0.2,1.3-0.8c-0.2,0.4-0.2,0.6-0.3,0.9
		l3.4,0.3c0.6-0.5,0.9-0.2,1.2,0.1h0.1C244,334.1,243.8,333.7,243.2,333.9z"/>
	<path class="st5" d="M199.9,327.3c0.1-0.2,0.2-0.1,0.2-0.5C200,326.8,200,327.1,199.9,327.3z"/>
	<path class="st5" d="M163.4,321.4C163.4,321.4,163.5,321.4,163.4,321.4C163.5,321.3,163.4,321.3,163.4,321.4z"/>
	<path class="st5" d="M216.4,330c0,0,0,0.1,0.1,0.1C216.4,330,216.4,330,216.4,330z"/>
	<path class="st5" d="M199.9,327.3c0,0-0.1,0.1-0.1,0.2C199.9,327.5,199.9,327.4,199.9,327.3z"/>
</g>
<g>
	<path class="st5" d="M237.5,307.6c0.1,0,0.2,0,0.3,0C237.5,307.6,236.9,307.6,237.5,307.6z"/>
	<path class="st5" d="M240.5,307.3L240.5,307.3L240.5,307.3L240.5,307.3z"/>
	<path class="st5" d="M240.9,306C240.9,306,240.9,306,240.9,306C240.8,306,240.8,306,240.9,306z"/>
	<path class="st5" d="M240.1,307.3c0.1,0,0.2,0,0.4,0C240.8,307.3,240.9,307.3,240.1,307.3z"/>
	<path class="st5" d="M244.7,298.9c0.2-0.1,0.4-0.2,0.7-0.3c-0.6,0.2-1,0.4-1.4,0.6C244.1,299.2,244.4,299,244.7,298.9z"/>
	<path class="st5" d="M239.4,280.8L239.4,280.8L239.4,280.8z"/>
	<path class="st5" d="M240.7,294.5L240.7,294.5L240.7,294.5L240.7,294.5z"/>
	<path class="st5" d="M240.4,294.3c0.2-0.1,0.4-0.2,0.5-0.3C241,294,240.9,294,240.4,294.3z"/>
	<path class="st5" d="M243.7,308.9c-0.1,0-0.2,0-0.3,0.1C243.5,309,243.6,309,243.7,308.9z"/>
	<path class="st5" d="M244,298.9c2.3-4.2,10.3-5.8,11.6-11.2c-1,0.3-1.9,0.5-0.5-0.1c1.9-1.4-2.9,0.5-2.9,0.7c0-1.3-5.2,0.1-6,0.3
		c1.5-1.8-2.8,0.4-0.1-1.8c1.8-1-0.2-2.1-0.6-0.1c-0.4-0.6,0.6-0.9-0.5-1.2c6.6-3.8-2.5-6.5-5.6-4.7c-1.8,0.6-7.1,1.9-8,2.8
		c-0.5,0.6-3-1.2-2.4,0.6c-1.4,0.6-1.4-0.2-2.3,0.9c-2.2-2.9-2.6,2.3-0.6,3.4c0.4-0.3,0.4-1,0.8-0.3c-1.3,0.5,0.8,0.4,0.9-0.8
		c0.4,1.4,0.3,0.6,0.3-0.2c0.9,1.4,1.5-1,2.7,0.2c0.3-0.9,2.6-0.2,3.5-1.3c1.3,1.1,1.7-3.5,1.8,0.2c0.3-2,1-0.3,1.5-1.5
		c1.1,1.5,0.6-1.2,1,0.9c0-0.6,1.9-2.8,2.4-2.9c-0.4,0.5-0.1,0.5-1,1.2c2.6-2.2,0.5,0.4,0.2-0.1c-1,1.4,0-0.1-1.1,1.4
		c0.5-0.2,1.3-0.9,1.9-1.6c1.9-0.8-2.7,2.4-1,1.5c0.9-0.5,2.6-1.1,1.7-0.4c-3.7,1,1.4,0.1-1.1,0.6c-1.2,0.5,0.8-0.1,0.7,0.1
		c-1.8,0.1,0.1,1-2.3,1.2c-2.2,0.9-1.7,2.1-4.4,4.3c-0.8-0.7,0.9,4.5,0.9,5.2c1.1-3.8,3.5-1.6,5.1-3.4c-1,1.4-0.7,1.4-0.3,1.1
		s0.9-0.6,1.4-1c-3,2.2,1.8-0.9-1.5,1.4c3.7-1.9-1.6,0.9,0.1,0.1c0.6-0.3,1.1-0.6,1.5-0.8c-1,0.6-0.9,0.6-0.2,0.3
		c-1.5,0.8-1.3,0.4-0.9,0.6l0,0l0,0c0.2-0.1,0.1,0,0,0c0.2,0.1,0.4,0.2,0.6,0.6c-1.1-1-3.6,2-2.4,2c-6.1,2.9-12.5,10.2-17.4,10.6
		c-10.1,1.2,7.3,1,11.3,0.5c-4.5,0.7-1.5,0.7-5.9,1.1c0.9-0.1,5-0.3,0.9,0.1c2.1,0,6.7-0.3,2.9,0.1c3.1,0.2,8.2-1.2,8.5,1.5
		c0.4,0.1,3.5-0.6,2.2,0.3c1.5,0.7,0.1-1,1.3-0.8c1.4,0.5,0.8,2.2,2.6,1.5c-0.2,1.1,0.3-0.1,1.4,1.2c-0.2,1.1-1.5-0.4-0.6,1.2
		c0.1,1.1-0.2,2.2-1.1,1.8c-0.3,0.9-1.8,5-0.1,5c-0.9,2.1,2,2,1.5,3.9c-0.8-0.5,0.7,1.5,0.8,0.1c1.6,0-0.7,1.2,0.4,0.9
		c-0.6,0.9,1.4-0.4,0.5,0.7c0.8,0.4,0.9,0.9-0.1,0.6c2.4,1.5-0.6-0.5,0.4,2.3c1.2-0.9,1.1,0.8,2,0.9c-3.3,0,1.9,5.6,3.5,5.2
		c1-2.6-3.4-0.9-0.9-3c-0.6,0.4-2.1-0.6-1.3-1.6c-0.5,0.1-0.1,0.6-0.6,0.3c0.9-0.6-0.5-0.5-0.2-1.1c1.2,0.4,0.1-0.6,0.1-1.3
		c-1.5-0.1-1-3-2.6-3.6c2.2-0.3-0.7-0.5,0.6-0.9c-1.1-1.6-1.2-0.9-2.7-0.8c0.5-0.6,0.9,0,0.5-0.6c0.6,0,0.8-0.2,0.1-0.2
		c0.5-0.5,1.1-1,0.2-1c-0.3-0.5,0.3-0.4,0.4-0.7c-0.9-0.1-0.1-1-1.3-1c-0.5-0.7,2.9-6.3,2.6-4.7c1.7-2-0.7-2.9,1-3.4
		c0.3-2-3.5-0.6-3.6-2.4c0,2-0.3-1.5-2.4-0.5c-0.6,1.8-1.7,0.1-0.5-0.3c-0.3-0.1-0.7-0.6-0.5-0.8c-0.2,0.2-0.3,0.3-0.1,0.5
		c-0.7-0.8-0.9-0.1-2.1,0c0.9-0.6,0.2-0.7,1.5-1c-1,0.1,1.1-0.5,0.5-0.4c-2,0.6-4.3,0.7-0.7,0.1h-0.1c1.9-0.4-0.9,0.2-1.5,0.1
		c4-0.5-2.2,0.2-3.1,0.1c-0.4,0-0.4-0.1,0.4-0.2l-1.6,0.1c0.3,0,0.9,0,1.2,0c-1.6,0-1.2,0-2.5,0.1c1.2-0.1,0.6-0.1,0-0.1
		c-1.5-0.1,5-0.2,5.2-0.2c0.3,0-1.9-0.2-0.7-0.2c-2.7,0,0-0.3,0.8-0.1c-1.3-0.4,1.2,0.1-0.3-0.5c-2-0.9,2.1,0.3,1.1,0
		c-0.2-0.2-0.2-0.4-0.2-0.5c0.5-0.5,3.8,0,4.8-2c2.2,2.8,6-6.6,8.4-9.1c-5.2,5.3-4.9,4.8-9.1,5.2c-0.6-0.1-4.4,2.4-1.7,0.1
		c-3.2,0.6-1.1,0.4-5.4,2C239.9,300.8,243.6,299.7,244,298.9z M246.3,286.1c0.4,0.1,0.1,0.4-0.2,0.4
		C246.1,286.4,246.2,286.3,246.3,286.1z M238.3,293.3c0,0,0.1,0,0.1,0.1C238.4,293.3,238.3,293.3,238.3,293.3z M241.1,290.2
		C241,290.2,241,290.2,241.1,290.2C241,290.1,241,290.2,241.1,290.2z M240.4,286.9c0.1,0,0.2-0.1,0.2-0.1
		C241.1,287,240.7,286.9,240.4,286.9z M241.2,290.1c0-0.3,0.1-0.6,0.4-0.7C242,289.6,241.3,290,241.2,290.1z M241.1,294.3h0.2
		C241.2,294.3,241.2,294.4,241.1,294.3z M243.8,300.6c-0.1,0.1,0.1,0.2-0.1,0.3C243.5,300.8,243.6,300.7,243.8,300.6z M242,301.6
		c-0.1,0-0.2,0-0.3,0.1C241.8,301.5,241.9,301.4,242,301.6z M243.9,288.2c-0.2,0-0.4,0.1-0.6,0.2
		C243.4,288.3,243.7,288.1,243.9,288.2z M243.6,293.4c-0.2,0.1-0.8,0.3-1.4,0.5C242.6,293.8,242.7,293.7,243.6,293.4z M243.5,293.5
		l-2,0.7C242.1,294,243.4,293.5,243.5,293.5z M243.1,299.5C243.1,299.5,243,299.5,243.1,299.5L243.1,299.5z M242.8,299.3
		C243,299.5,243,299.5,242.8,299.3C242.7,299.3,242.7,299.4,242.8,299.3z M242.2,299.9c-1,0.4,0.2-0.3,0.9-0.4
		C243.1,299.5,242.2,299.9,242.2,299.9z M243.9,299.2l-0.8,0.3C243.3,299.3,243.7,299.3,243.9,299.2z M243.2,299.2
		c0.1-0.2,0.2-0.5,0.4-0.5C243.7,299,243.5,299.1,243.2,299.2z"/>
	<path class="st5" d="M238.1,307.4c0,0-0.2,0-0.3,0h1.3c-0.1,0-0.2,0-0.4,0c0.7,0,1.4-0.1,1.8-0.1c-0.8,0-2,0.1-2.8,0.1
		C237.8,307.4,237.9,307.4,238.1,307.4z"/>
	<path class="st5" d="M239.5,294.9C239.2,295,239,295.1,239.5,294.9L239.5,294.9z"/>
	<path class="st5" d="M239.8,294.8c0.1,0,0.3-0.1,0.2-0.1c0.3-0.1,0.8-0.2,0.2-0.1C239.8,294.8,239.7,294.8,239.8,294.8l-0.5,0.1
		C239.4,294.9,239.6,294.9,239.8,294.8z"/>
	<path class="st5" d="M239.5,294.9L239.5,294.9C239.7,294.8,239.6,294.9,239.5,294.9z"/>
	<path class="st5" d="M238.5,285.5c-0.1,0.2-0.3,0.5-0.3,0.5C238.5,285.9,238.5,285.7,238.5,285.5z"/>
	<path class="st5" d="M238.5,285.2c-0.1,0.1-0.1,0.2,0,0.3C238.5,285.4,238.5,285.3,238.5,285.2z"/>
	<path class="st5" d="M245.1,312.2c-0.1,0.1-0.2,0.2-0.2,0.3C245,312.5,245,312.4,245.1,312.2z"/>
	<path class="st5" d="M242.6,300.8c-0.1,0-0.2,0.1-0.1,0.1C242.5,300.9,242.6,300.9,242.6,300.8z"/>
	<path class="st5" d="M240.6,307c-0.1,0-0.3,0-0.4,0C240.3,307,240.2,307,240.6,307z"/>
	<path class="st5" d="M242.3,307.4c-0.2,0-0.3,0-0.3,0.1C242.1,307.4,242.2,307.4,242.3,307.4z"/>
	<path class="st5" d="M249.7,326.2h-0.1C249.6,326.2,249.7,326.2,249.7,326.2z"/>
	<path class="st5" d="M222.8,308.8c0.7,0,0.7,0.2,2.6,0C224.6,308.8,223.7,308.8,222.8,308.8z"/>
</g>
<g>
	<path class="st5" d="M365.2,206.9c-0.1-0.1-0.2-0.2-0.3-0.4C365,206.6,365.1,206.8,365.2,206.9z"/>
	<path class="st5" d="M352.1,206.1c0.1,0,0.2-0.1,0.3-0.2C352.2,205.9,352.1,206,352.1,206.1z"/>
	<path class="st5" d="M401.9,202.5c-0.1-0.1-0.2-0.2-0.3-0.5C401.6,202.3,401.8,202.4,401.9,202.5z"/>
	<path class="st5" d="M340.9,190.1c-0.1,0-0.1,0-0.2,0C340.8,190.1,340.8,190.1,340.9,190.1z"/>
	<path class="st5" d="M279.4,181.3c0.2-0.1,0.3-0.2,0.5-0.3C279.7,181.1,279.6,181.2,279.4,181.3z"/>
	<path class="st5" d="M348.2,206.6c0-0.1-0.1-0.2-0.2-0.3C348.1,206.4,348.1,206.5,348.2,206.6z"/>
	<path class="st5" d="M360.7,207c-0.1,0.1-0.1,0.1-0.2,0.2C360.6,207.2,360.7,207.1,360.7,207z"/>
	<path class="st5" d="M272.1,181.4c0-0.2,0-0.4,0-0.4C271.8,180.1,271.3,181.9,272.1,181.4z"/>
	<path class="st5" d="M273,181.4c0.2-0.5-0.6,0-0.9,0C272.2,181.7,272.4,181.9,273,181.4z"/>
	<path class="st5" d="M284.5,180c0.2-0.1,0.1-0.4,0-0.3C284.5,179.8,284.5,179.9,284.5,180z"/>
	<path class="st5" d="M289.1,197.8c-0.1,0-0.3-0.1-0.5-0.1C288.8,197.8,289,197.8,289.1,197.8z"/>
	<path class="st5" d="M293.9,189.4c0,0.1,0,0.3,0,0.4C293.9,189.7,293.9,189.6,293.9,189.4z"/>
	<path class="st5" d="M284.8,162.7c0.9-1.2-0.7-0.5,0.1,0.4c-1.5-0.5-0.4,0.9-0.3,1.5c-1.9-1.2-0.7-0.2-0.1,0.6
		c-1.3-0.3-1.1,1.1-1.5-0.1c-0.1,1-0.2,3.2-1.8,2.6c0.9,0.8-1,2.5-2.1,2.1c0.9,0.8-0.8,3.9-0.6,3.2c-1.9,0.7-0.1,1.5-0.4,3.4
		c-1.6,0.6-0.8-1.2-2-1.3c0.9,0.4-0.3,2.4,0.7,2.1c-1.2,0.7-0.8,0.6-2.1,0.9c2.1,0.7-2.6,4.5-3.9,4.9c0.7,2.2-1.4,4.3-1.6,5.8
		c1-0.7,5-3.8,2.5-1.1c0.4-0.4-1.3,0.4-0.5,0.3c-4.5,2.3,1.9,0.6-4,3.5l1.5-1.7c-4.1,3.6,0.8-1.1-3.5,2.7c-2.9,3.7,4.2-0.6,5.5-2
		c4.3-2.6-1.7,3.3,2.8,0.3c1.5-1.6,5.7-4.5,2.2-0.9c2.2-0.6,2.7-2.6,4.2-2.3c-3.1,2.1-0.7,1,0.8-0.4c-0.9,1.9,11.9-3.4,13.5-2.5
		c0.8,0.1-0.1-0.6,0.2-1c0.4-0.2,0.7,0.4,0.5,0.7c0.2-0.6,2.4-2.5,1.8-0.9c1.3-2,4.5-1.8,1.3,0.7c1.7-0.7-1,0.9,1.2,0.4
		c-1.3,1-3.5,0.3-1.6,1.7l-0.8-0.4c0.9,1,0.3,1-0.7,0.7c-0.3,0.8,0.2,0.4,0.7,0.6c-1.2,0.7-3,3.3-2.9,2.6c-1.2,1.3-3.8,3.8-5.5,7.3
		c1.4-1,1.9,0.7,0.7,0.7c-3.6,0.5-9,17.2,1,11.2c-0.6,0.8,1.5,0.5,0.1,1.2c14.4-3,26.6-4.5,39-11.5c-0.7,1.7,4.5-1.1,5.7-1.8
		c-0.6,1.6,0.4,0.5,0.6-0.2c0.1,0.1-0.3,0.6-0.4,1c0,0.1,1-1.2,0.1,0.1c0.4-0.5,0.1,0.1,1-1c-0.3,0.5,1.1-0.6,0.5,0.1
		c1.4-1-0.4,0.6,0.7-0.2c-1.6,1.1-1.3,1.1-0.6,0.9c-0.5,0.3-2.5,1.1-0.3,0.4c-4.4,4.5,4.4,18.3,11.2,12.7c-0.1,2.5,16.4,0,17.9,0
		c1,1.1,8-0.1,11.6-0.8c-1.5,2.5,13.8-4,12.6-1.5c2.7-0.4-0.3-1.8,1.8-2.4c-0.9,0.6,1,2,0.5,0.8c1.1,1-0.2-1.4,1.2-0.8
		c-0.1,0.8,1.8-1.6,0.9,0.6c0.7-0.2,1-1.8,1.8-1.2c-1.9,1.3,0.7,1.3,1.7,1.3c-0.9-1.8,1.2-1.3,2-2.3c-0.6,3.1,2.2,0.6,3.2,1.7
		c-0.3-2.4,4-0.1,5.9-4.9c0.2,1.5,0.6,1.5,1.8,0.6c0.7,1.9,0.3-0.5,1.2-0.2c-0.2,2.2,0.3,0.6,1.4-0.3c-0.4,2.1,1,0.5,1.4-0.7
		c-2.1,3.3,0.2-3-3.6,1.1c0-1.7,0-1.2-0.6,0c-0.2-2.6-2.7,0.2-1.8-1.6c-1.2-0.4-1.9,1.6-2.1,0.5c-1.4,1.7,0.2,3.5-2.1,0.3
		c-0.1,2.4-3.1,1.6-4.5,2.2c0.7-2.5-4.3,2.1-7.1,0.2c-0.1,1.6-2.6,1.9-1.3,0.2c-0.9-0.3-1.4,1.9-1.3,0.1c-0.8,0.2-1.6,1.3-2.8,1
		c1.1,1,0,4.1,0.2,1.4c-0.7,0.8-0.4-0.1-0.2-0.5c-0.6-0.2-0.2,0.6-0.6,0.6c-0.4-1.5,0-0.4-1.3-1.6c0.2,1.5-0.8,0.8-1.2,0
		c-0.2,1.7-13.5,3.9-11.2,2.4c-1.6-0.2-1.9-0.3-3.2-0.3c1.2,0.7,0.1,0.6-0.6,0.6c0.2-3.3-2.9,1-4.2-0.2c1.3,1.8-1.1,0-1.7-0.5
		c-1.2-0.5-1,1.5-2.2,1.2c0.5,2.9-2.3,1.4-0.8-0.4c-0.6,0.3-2.4-1-1,0.2c-2.5-1-5.8,2.9-5.2-0.7c-0.8,0.6-2.5-0.3-2.2-0.6
		c-0.4,1-3.3,4-1.5,0.4c-1.9-1-1.4,1.6-2.4,0.1c-1.4,1.9-3.3,1.7-3.8-1.4c-0.1-1-2.3,0.7-0.1,0.6c-2.2,0.6,0.2,0.1-0.9,1.4
		c-0.8-1.5-2.4-0.7-0.1-2.5c-0.7-1.5-3.7-1.7-0.9-2.5c-1.9-2.2,1.2,0.3,0.2-5c3.4,0.6,1.1-2.3,1.7-3.1c-0.4,0.2-0.2-0.5-1.2,0.3
		c7.1-9.1-6.9-1.4-4.6-3.6c1-2.3-3.6,1.3-2.7-0.3c-2.5-0.5-6,5.5-6.5,2.8c-0.4,0.3,0.5,1.1-0.3,1.6c-0.5-0.3-2.5-1-0.8-1.5
		c-1.1-0.8-3.7,1.4-3.7,2.4c-0.4,1-1.6,0.5-2-0.3c-1.6,2.2-2.7,2.6-0.6-0.3c-2.3,3.7-6.3,1.8-12.6,4c1,4.3-2.5,1-3.7-0.2
		c0.5,1.3-1.6,0.7,0.4,1.5c-1.1,1.4-1.7-1.1-2.8,0.3c0.7-2-6.9,4.3-7.2,1.9c-0.9,0.5-0.4,0-3.7,1.9c5.2-4-1.4-1.5,5-6.4
		c-1,0.2-0.7-2.7,0.3-1.8c0.6,0.7,1.6-0.5,1.9-1c-2-1.7,4.6-5.2,4.3-8.6c2.7,0.8,1.9-5.5,3.6-5c0.5-1.4-2.2-0.6-2.2-1.5
		c2.4-1.4,4.6-8.7-0.2-5.1c0.2-0.2,0.8-0.7,1.3-0.9c-6.1,0-11.9,7.1-15.9,5.3c0.4,1.4-7,1.6-2.1,0.6c-0.2-0.7-1.1-0.6-0.7-1.9
		c-1.4,3.6-3.7,0.5-3.6,3.3c1.9-1.3-1.8,3.8-0.3-1c-1,0.8-6,4.7-2.3,1.6c-1,0.7-1.2,0.6-3.5,2.4c0-0.3,2.2-1.8,1.1-1.3
		c3.6-2.5-3.3,1.1,0.4-2c-0.1,0.1-0.2,0.1-0.3,0.2c2-3.5,5.5-6.9,5-9.2c0.1-1.6,3.1-0.9,2.8-3.1c-1.2,0.3,0.3-2.1,0.7-1.5
		c1.1-4.7,0.9-0.6,3-2.4C290.6,162.7,286.3,160,284.8,162.7z M288,184.2c0,0.2,0.5,0.2,0.8,0.4C288.4,184.8,287.5,184.7,288,184.2z
		 M287,185.1c-0.2,0.1-0.3,0.2-0.4,0.2C286.7,185.2,286.8,185.2,287,185.1z"/>
</g>
<g>
	<path class="st5" d="M338.6,231.4c0,0.1,0.1,0.3,0.3,0.4C338.8,231.6,338.7,231.5,338.6,231.4z"/>
	<path class="st5" d="M448.9,257.8c-0.2,0.2-0.3,0.4-0.5,0.5C448.7,258.2,448.8,258.1,448.9,257.8z"/>
	<path class="st5" d="M448.8,257.6l0.1,0.2C448.9,257.7,448.9,257.6,448.8,257.6z"/>
	<path class="st5" d="M423.2,209.8c5.8,2.1,6.5-7.2,7.5-7.9C430.2,202.2,426.7,205.9,423.2,209.8z"/>
	<path class="st5" d="M425.5,215.6c-1.7,0.1-9.8-0.3-9.5,2.5c0-0.6-0.9-0.7-1.1-0.4c2-0.1-1.1,2.3-1.3,2.5c1.9,2-6,0.9-7.5,2.6
		c1,1.6,0,1.2,2.1-0.3c-1.3,2.3-0.8,1.3,0.7,0.4c-1.7,4.7-4.6-1.5-7.6,3.9c-0.9,2.4-3.9-0.7-4.2,2.6c-2.7-1.1-2.4,2.2-4.2,3
		c0.6-3.6-4,1.5-3.2,2.4c-5.2,0.6-9.8,3.3-12.7,6c-0.3-3-1-0.4-3.7-0.3c-1.3-1-6.6,6.9-7.3,3.8c0.3,1.5-1.3,2.4-2.7,0.9
		c3.1-2-4.5,1.2-4.4,2.6c-1.5,1.9-2.6-1.2-4,1.1c-3.4,2.9,1.5-2.2-0.5-1.1c-1.2,3.3-4.1,2-3.4-0.4c2.9-2.8,0.1-1.9,0.8-4.2
		c0.9-0.2,2.6-2.7,2.5-0.4c1-1.3,1-0.2,2-0.9c-1.5-0.4,1.5-2.6-1.2-1c0.4-2.5,2.4-0.9,2.7-3.4c0.3,3.2,1.9-6.5,2.3-4.3
		c16.7-34.2-54.1,5.6-59.5,7.2c-3.4,1.3-2.8,2-5.1,4c0.6-0.7-0.4-2.4,1.1-1.4c-0.6-3.9,3.8-2.4,4.9-5.7c-1.5-0.6,1.7-2.3,1.7-2.7
		c0.6,1.1,1.1-1.8,1.4-1.9c2.3,0.4,4.3-0.4,3.4-3.2c-1.9,1.3-0.8-4-4.6-2.2c0.3,1.5-2.1,2.5-0.4,0.7c-3.1,1.8-0.7,3.2-3.1,2.6
		c2.4,1.7-1.2,2.2-0.8,1.3c-3.5,5-7,7.9-10.9,10.9c0.9,2.1-0.3,4.3-1.4,1.8c0,0.7-0.7,1.7,0,1.9c-2,0.2-1.4,0.2-2,1.9
		c-1.5-0.3-2.5,1.6-2.3,0c-1,1,0.3,1.2,0.6,1.9c-1-0.3-7.5,7-4.8,7.4c0.3-0.3-0.2,1.6-0.8,1.1c0.4-0.7-0.2-1-0.2-0.1
		c-1.1-2.5,0.5,0.6-1.9,0.2l0.9-0.7c-3.9-3.6-2.1,6-6.4,4.9c0.9,0.3,5.9,7.9,6.1,4.9c-0.6-1.3,0.6-3.7,1.2-1.2
		c1.5-1.1-0.2-2,1.8-2.7c-0.7,2,8.9-7.6,13.9-8.6c0.1-0.3,0.6-2.2,0.9-0.9c1.1-0.3-0.3-0.5,0-1.1c0.5-0.4,1,0,0.8,0.4
		c6.6-8.6,20.3-10.4,26-15.7c0.5,0.5,1.2,0.9,1.7,0.1c-2.7-0.6,2.7-1.5,2.5-0.7c0.4-0.3,4-3.3,1.9-0.8c3-1.9,7.1-2.1,12-4.5
		c-1.5-0.1-0.7-1.9-0.1-1c-0.4-1,1.6-0.7,0.6,0.6c3.6,0.3,10.7-3.7,14.6-5c-0.1,1.8,5.4-1.4,2.2,0.7c-0.9,2.1-4.4,4-4,7.6
		c-34.5,37.9,28.7,12.7,40.8,3c0.4,1.1,3,0,2.1-1c4.4,0.1,14.9-11.3,10.2-4.5c6.1-7.1,3.2,0.3,2.8-1.5c0.1,0.7-2.2,3.2,0,1.1
		c-1.8,7.3-8,9.8-8.3,22.5c-1.9,14.3,12.5,1.4,18.4,1.8c0.6-0.6,3.8-1.5,1-1.9c1.2-2.1,0.5-0.3,2.3-0.1c-1-0.4,4.9-4.4,2.8-1.4
		c3.2-3.3-0.1,0.6,4.9-0.6c-1.5-1.7,2.3-1.6,3.1-3c-1.9,3.7,3.9,0.5,4.2,1.7c-1.4-2.4,9.3-1.8,7.2,0.3c-2.4,0.3,4.5,4.9,0.7,4.2
		c2.9,0.8,3.1,3.4,4.4,2.4c-3.8-1.3,3-0.7-3.9-3.8c3.3-0.2-2.5-1.2,0.7-1.5c-0.2-0.9-1.7-3-0.3-2.1c-2.5-6.7-4.1-0.2-5.7-4.5
		c-0.4,1.3-3.3,2.8-5,1.5c-0.3,0.8,1.2,0.3,0.1,1c-3.7-1.4-6.1,1.6-13.1,2.2c0.6,0.2-3.6,3.4-1.9,0.5c-2.6,2-5.7,0.7-5.3,5.2
		c-0.4-1.5-1.2-0.3-0.5-1.7c-1.6,1.5-0.5,0-2.8-0.2c0.6,1.6-1.1,1.1-1.6,0.5c-7.9,8.5-8.7-1.4-4.2-7.5c-1.3,1.4-0.6-0.2-0.2-1.1
		c1,1.2,1.4-0.2,1.6-1c-0.3-6.7,5.1-5.2,2.7-11.2c1-1.5,2.8,0.3,1.5,0.5c-0.9,2.1,3.7-2.9,1.1-0.9c2.6-1.7,2.9-8.7,5.3-5.5
		c0.3-1.4,3.4-3.2,2.4-1.6c1.1-1.2-0.9-1.4,0.6-1.6c-1.9-1.4,0.1-2.6,0.3-2.3C421.2,225.9,423.4,221.3,425.5,215.6z M285.8,258.3
		c-0.6-0.8,0.2-0.4,1-0.7C286.5,257.8,286.2,258,285.8,258.3z M288.9,250.6c0.5-0.7,1.1-1.3,1.6-1.9
		C290.4,249.5,290.1,250.5,288.9,250.6z M293,247.7c-1.2-0.8-0.2,0.6-1.9,1.1C289.8,248,296.4,243.7,293,247.7z M294.6,245.6
		c-0.3-0.4,0.3-0.6,0.6-0.8C295,245.1,294.8,245.4,294.6,245.6z M413.7,222.7c0,0,0-0.1,0.1-0.2
		C413.8,222.6,413.7,222.6,413.7,222.7z M416.8,224.9L416.8,224.9L416.8,224.9z M416.5,218.5l0.4,0.4
		C416.8,218.9,416.5,218.5,416.5,218.5z M420.1,222.8c0.1-0.1,0.3-0.3,0.7-0.1C420.4,223.1,420.4,223.3,420.1,222.8z"/>
	<path class="st5" d="M413.3,220.9c0,0.1-0.1,0.1-0.1,0.2C413.3,221,413.5,220.9,413.3,220.9z"/>
	<path class="st5" d="M269.9,263.2C269.8,263.2,269.8,263.2,269.9,263.2C269.8,263.2,269.8,263.2,269.9,263.2z"/>
	<path class="st5" d="M277.3,257c0.1,0.1,0.1,0.1,0.2,0.1C277.4,257.1,277.4,257,277.3,257z"/>
	<path class="st5" d="M286.8,244.7c0-0.2,0-0.3-0.2-0.5C286.7,244.4,286.7,244.5,286.8,244.7z"/>
</g>
<g>
	<path class="st5" d="M467,304.1c0-0.1-0.1-0.2-0.2-0.3C466.9,303.9,466.9,304,467,304.1z"/>
	<path class="st5" d="M469.6,304.3c-0.1,0-0.2,0-0.3,0C469.4,304.3,469.5,304.3,469.6,304.3z"/>
	<path class="st5" d="M464.3,298.9c0.1-0.2,0.3-0.4,0.5-0.6C464.6,298.5,464.4,298.7,464.3,298.9z"/>
	<path class="st5" d="M381.5,312.3c-0.4,0.4-0.5,0.5-0.8,1.1C381.2,313,381.9,312.8,381.5,312.3z"/>
	<path class="st5" d="M465.2,307.8c-0.4,0-0.6-0.2-1-0.2C464.6,307.8,465.1,308.2,465.2,307.8z"/>
	<path class="st5" d="M464.8,307.6c-0.1,0-0.2-0.1-0.1,0C464.7,307.6,464.8,307.6,464.8,307.6z"/>
	<path class="st5" d="M381,312.8C381,312.7,381,312.7,381,312.8C380.9,312.7,380.9,312.8,381,312.8z"/>
	<path class="st5" d="M465.6,288c0-0.1,0-0.2-0.1-0.3C465.5,287.8,465.6,287.9,465.6,288z"/>
	<path class="st5" d="M459.2,301.7c0.2-0.2,0.4-0.3,0.5-0.4C459.6,301.3,459.4,301.4,459.2,301.7z"/>
	<path class="st5" d="M295.8,325.9l0.1,0.1C295.9,325.9,295.8,325.9,295.8,325.9z"/>
	<path class="st5" d="M310.3,305.4c0.1,0,0.3-0.2,0.4-0.3C310.6,305.1,310.4,305.2,310.3,305.4z"/>
	<path class="st5" d="M289.5,316.3c0.1,0.1,0.2,0.2,0.3,0.3C289.7,316.5,289.6,316.4,289.5,316.3z"/>
	<path class="st5" d="M390.7,279.2c-0.2,0.1-0.3,0.2-0.4,0.3C390.4,279.4,390.6,279.3,390.7,279.2z"/>
	<path class="st5" d="M359.1,290c0-0.1,0-0.2,0-0.3C359.1,289.8,359.1,289.9,359.1,290z"/>
	<path class="st5" d="M470.7,308.5v-4.2c-0.6-0.2,0,0.5-0.7,1.1c-1.6-0.3-1.5,0-0.7-1.1c-0.2,0-0.8-0.2-0.3-0.2
		c-1.2-0.6-1.3,1.1-2,0c-2.3,1.4-4.7-0.3-2.7-5.2c-1.4,1.6-0.2-0.7,0.3-1.7c-0.6,1.2-2.2,2.9-1.5,4.3c-0.7-0.2-0.7-0.8-0.6-1.4
		c-0.5,1.4,0.8,1.2-0.4,1.8c-0.2-3.2,3-6,5.2-8c-4.1,0.4-3.2,1.5-6.4,2.2c1.9,0.9-4.1,0.1-4.6,2.1c-1.6-1.1-4.5,3.6-3.3,0.6
		c-1.3,0.7-3.5,1.7-3.3,2.6c-4.2,0.1-7.9,1.3-10.6,2.8c-0.9-0.4,0.7-0.5,0.2-0.6c-1.9-1.8-8,3.7-8.9,1.9c0.2,1.9-3.5,0.4-1.1,0.1
		c-2.1-0.4-13.6,4.4-7.5,1c-2.3,2.1-10,1.1-14.1-1.6c0.1-2.3,1.9-0.8,1.4-2.8c-2,1.1,0.3-0.8,0.3-1.9c0.5,2.2,0.9-4.9,1.4-3.1
		c0.1-1.2,5.4-12.2,2.7-6.4c0.9-1,5.2-4.3,5.9-4.9c3.8-4.2-1.3,2-0.7,1.9c-7.3,9.1-0.6,14.5,9.7,11.1c-2,1.4,1.7-0.5,2.3-0.9
		c-1.6-0.5-1.3-1.1,0.3-2c-1.1,1,0.5,1,1.2,1.1c-0.2-0.1-0.1-0.5-0.2-0.6c2,0.4-0.3-1.4,2-1.6c0.2,0.9,1.2-1.2,2-1.3
		c0.7,0.5-0.6,0.8-0.3,1.4c4.2-4.6-0.1,0.5,3.9-1.5h-0.1l2-0.7c-1.9-0.9,1.7-2.2,2.7-3.8c-0.9,2,1.7,0.6,2.1,1.4
		c0.5-0.3,2.6-2.7,3.4-1.8c-1.4-2.3,3.5-1.5,5.7-4.3c0.8-0.7,4.2-5.1,3.8-2.8c-1.4,0.6,1.3,1,1.7,1.6c-1.7,0.7,3.3,2-0.4,1.6
		c0.9,0.9,5.1,3,1.6,2c0.9,1,4.6,2.9,3.5,1.3c-1.3,1.5-3-2.4-0.9-0.9c0.8-2-5.7-3.3-2.1-3.9c-1.2-0.1-2.6-1.5-0.8-1.3
		c-0.8-1.2-1.8-1.9-2.9-1.5c0.3-0.3-0.2-0.9,0.7-0.7c-1.8-1.1-3.6,2-4.5,1.2c-2.2,1.9,0.3,4.1-3.6,1.6c0.3,0.6,0,1.4-0.7,0.9
		c0.3,1.1-2.9,3.1-4.1,2.4c-0.1,0.9,1.4-0.3,0.4,1c-1.2-1.1-1.3,1.2-2.8,1.2c-0.1-0.9,1.2-1.2-0.3-1.1c-0.8,1.3-15.2,10.4-13.2,7.1
		c-2.2,1.1-3.1,1.9-6.4,2.5c1.9,1.9-0.9,4,0.1,1.4c-0.2,0.1-0.6,0.4-1,0.3c1.1-1,0.3-0.9-0.4-0.2c-0.4-1-0.6-0.7,0.4-0.9
		c-0.8,0-1.6-0.5-1.7-1c-0.2,1.5-1.5,0.6-1-0.5c-0.5,0-1.5,0.3-0.5-0.3c-0.7-0.5,1.2-4.2-0.6-2.2c1.1-4.7,5.1-8.7,6-13.2
		c-0.9,0.6-3.4,2.9-1.3,0.1c-1.8,1.3-2.3,1.9-3.7,2.1c2-1.8,0-0.5,1.9-1.5c-2.1,0.6-2.4,0.7-4.5,2.6c0.1-1.4-0.3-2.8-3.1-0.3
		c2-2.3-1.2-0.7-2.1-0.3l0.2-0.2c-8,5.1-17.9,9.3-24.4,8.7c-0.4,0.1-0.5,0-0.8-0.1c2.1-0.7,1.5-1.3,1.5-3.7c2.1,1,4.5-6.2,4.8-4.8
		c0.1-0.2,4.3-5.2,2.1-4.2c1.7-0.6,1.5-3.7,3.1-4c-2.4,0.4,0.8-2.3,0-1.2c1.5-1.6-0.9,0.2-1.3,0c4.3-3.2-3.8,3.1-3.2,0.8
		c-0.8,0.8-3.4,2.3-1.7,0.8c-1.7-0.1-3.9,2.5-5.1,1.6c4.4-1.4,1.8-0.4,3.7-2.7c-1.9,2.6-9.8,3-8.5,4.5c3.7-1.6-0.7,2.2-2.5,0.2
		c-1.4,0.3-5.6,3.8-4.2,2c-7.6,2.9-15.9,5.4-24.7,7.2c16.5-17.1,5.9-12.7-5.7-9.5c-1.6,0.7-0.7,3.2-2,4c-1.8-2.7-8.7,4.4-8.3,3
		c-1.2,0.7-4.9,2.3-3.5,3.5c-1.4-1.4-3.3,4.5-3.7,2.2c0.1,2.2-4.1,5.6-3.5,4c-1.5,1.4-1.8,4-4.2,3.2c0.6,0.4-4.8,5.3-5.5,4.7
		c4.1-3.5,1.9-0.9,1.2-3.4c-1.1,3.6-3.3,4.7-6,5.9c0.1-0.1,0.3-0.1,0.3-0.1c-0.2,0.2-0.5,0.4-0.6,0.8c-0.4-1.1-1.4,1.8,0.1,1.4
		c-0.3,0,0.6-0.6,0.6-0.8v0.1c0.4-0.4,0.9-0.8,1.5-1.3c-1,2.7-2.8,4.4-5.6,3.9c-1.8,1.3-5.7,8.9-4.8,5.4c-4.2,6.2-5,1.6-9.6,9.1
		c5.2-9.1,8.5-16.1,11.5-23.5c-0.3-0.9,1.2-2,0.7-3.7c1.1-1.9,1.7,1,2.8-1.9c0.2-1.2-0.2-3.6-0.6-3.3c-1.1,2.5-1.8-3.7-5.1,0
		c0.7,1.6-1.2,3.8-0.1,0.9c-0.8,1.7-1.6,2.6-0.8,4.5c-0.6,0-0.7-1.1-1.4-0.1c0.3,1,1.4-0.3,1.3,1.1c-1.3,0.1-1.4,2.2-1.7,0.6
		c0.1,3.9-2.5,4.5-2.4,7.7c-0.8-2-1.4,2.7-2.8,1.6c0.8,1.6-1.2,3.8-1.4,5.9c0-0.1-0.2-0.4,0-0.6c-2.7,1,0.5,7.7-2.8,3.8
		c0.3,0.7-0.4,2.2,0.3,2.2c-1.1,0.5-0.7,0.6-1.8,0.6c1.2,0.9-0.3,1,0.1,2.1c-1.4,0.9-1.4-0.4-1.8,1.2c-1.3,0.2,0.3-1.6-1.2-1
		c-0.9,1.4,0.5,1.2,0.9,1.9c-3.1,1.1-2.6,5.9-2.7,9.8c2.5,0.9,6.6-4.1,7.3-3.4c1.1-1.3,4-2.6,4.9-4.1c-2.1-0.7,0.9-3.5,0.1-1.1
		c1.5-1.9,0.3,0.2,0.3,0.8c1.1-1.3,2-3.1,3.1-3.6c0.9,0.6-2,2.1-0.1,1.7l-1.7,0.9c2.2,0.3-1,0.6,1.1,1.1c1.7-1.7,4.4-2.8,3.3-4.9
		c2-3,3.7,0.2,4.8-2.5c-0.6-1,1.1-4.4,1.5-1.5c1.8-1.5-0.1-2.1,2.3-3.2c0,0.6-1.1,1.5-0.8,1.4c1.8-0.4,0.4-1.2,1.3-2
		c2.3,1.3,4-4.1,6.2-5.5c0.1,2.3,10.2-7.7,10.2-6.8c1.2-0.5-0.3-0.5,0-1.1c0.5-0.5,1.1-0.2,0.9,0.3c2.8-4.3,6.8-5.8,9.1-8.4
		l-0.2,0.3c4.8-3.2-0.2,2.5-1.7,4.3c1.5-1,1.7,1.3,0.5,0.9c1.2,0.7-1.1,1.8-0.9-0.1c-5.7,3-11.4,18.1-15.9,20.7
		c-2.2,3.4-3.3,4.9-4.7,8.4c4.4-4.2-1.6,2.5-2.6,4.3c18.8,0.9,26.9-11.8,44.5-19.8c2.1-1.2-0.4-3.1,2.9-3.7l-0.2,1.3
		c2.2-2.5,5.2-3.5,7.2-6.1c-2.2,4,2.5-3.3-0.3,1.2c-0.3,0.4,0.1-0.1,0.6-0.6c1.3-1.5-0.1,0.3-0.4,0.7c0.8-0.9,1-1,2-2.2
		c-1.1,1.4,0.4,0-0.7,1.4c1.6-1.2-1.1,1.3,1.1-0.3c-2.3,1.7-1.8,1.3-1.2,1.5c-0.5,0.1-0.6,0.2-1.2,0.3c0.3,0.1,0.4,0.3,0.9,0.4
		c-2.2,3.5-11.9,21.8-1.8,16.1c-1.2,2-5.3,1.4-6.2,3.4c2.6-0.7,14.6-7.5,10.5-3.8c4.8-2.8,11.3-4.8,12.1-10.5c0.2,2,2.6-1.4,2.7,1.4
		c0.2-0.6,0.7-2.1,0.7-0.5c1.1-1.2,2-3.9,2-1.7c-0.2-0.5,2.6-3.8,2.2-2.2c2.2-1.6,2.9-3.9,5.7-5.1c-0.2,1.9,4.4-0.8,2.1-0.7
		c1.2-0.8,1.8-2.1,3-2.5l-0.6,1l2.1-1.6l-1.5,0.5c0-2.4,2.6-2.2,4.8-4.2c0.6,2.4,2.6-0.8,3.7-2c0.1,2,0.4-0.7,1.1-0.1
		c-1.2,1.4-3.2,3.5-3.3,5.3V297c-7.5,22.7,22.5,13,32.7,10.6c-0.2,0.2-0.1,0.4-0.4,0.5c0.9,0.3,5.5-2.1,4.5-0.9
		c3.5-2.5,8.4-1.9,11-4.1c2.2,0.5,8-4.1,5.5-1.8c0.6-0.1,0.7,2-0.1,0.9c1.1,3.2,4,6.4,7.3,4.6c-0.9,1,1.9,0.8,0.5,1.9
		c0.5-0.2,1.6-0.6,0.7,0.2C468.7,308.9,469.8,308.7,470.7,308.5z M316.4,308c0.1-0.2,0.3-0.3,0.6-0.6
		C316.8,307.6,316.6,307.9,316.4,308z M318.4,306.1c-0.8-0.7,0.2-0.6,1.1-0.9C319.2,305.4,318.8,305.8,318.4,306.1z M389,278.6
		c0,0.5,0.6,0.4-0.2,0.5C388.8,278.9,388.9,278.7,389,278.6z M388.2,279.4c-0.1,0.1-0.2,0.1-0.3,0.2
		C388,279.5,388,279.5,388.2,279.4z M341.9,288.8c-0.1,0.1-0.1,0.4-0.3,0.2C341.7,288.9,341.9,288.9,341.9,288.8z M393,297.4
		c0.4,0,0.8,0.2,0.6,0.3c-2.7,1.3-0.7,1.3-2.2,2.5c-1.2,0.2-0.4-1.3-1.8,0.2c-1.2,0.4-0.8-0.6-0.5-1.1c-1.1,1.6-3,1.6-4,2.1l0.6-0.8
		c-0.6,0.9-1.8,0.9-0.3,1.3c-2.2,0.7-0.2,0.4-0.6,2.2c-0.8,0.1-1.6,1.7-2.4,1c1.9-1-0.2-0.7,0.4-1.5c-3.3,0.3-0.8,2.6-3.7,2.7
		c1,0.2-1.8,2.8-1.9,2.9c1.9-1.3-0.1,1.5-0.5,1.1c-3.4,1.7-1.7-2.8-4.3,1.7c0.6-0.5,1.1-1,1.5-1.4c-0.3,0.6-0.8,1.3-1.5,2
		c1.8-1.3,0.9-1.2,0.9,0.3c-0.3-1.1-2.2,2-2.5,1.2l2-3.2c0.5-1.2-3.8,3.2-2.1,0.7c-2.5,2.9-0.3-0.6,1-1.5c-0.1,0,0.2-0.6-1,0.1
		c2.8-1.7-0.1-0.6,0.8-3.6c0.4,0.7,1.1,0.6,0.9,1.5c0.5-0.7,3.2-9,1-6.9c3.5-4.7,5.1-8.9,7.9-14.9c-1.3,1-2.5,1.8-3.4,2.5
		c0.4-0.5,0.6-0.7,0.8-0.8c-0.9,0.2-9,8.9-4,2.8c2.5-4-6,4.4-3.9,1.4c-3.9,0.8-9.6,10.8-11.6,8.5c1.2,2.8-4.7,2.6-1.6,0.8
		c-3.4,0.7-3.4,2.6-6.3,4.9c1.3,1.2-3.9,0.9-6.1,4.8c0.3-1.3,1.7-2.7,2.5-3.9c-0.8,0.5-2.6,1.8-2.7,2.6c3.8-0.5-11.2,5.9-13.9,7.5
		c-1.6,5.5-3.1,2,0-1.3c-0.2,0.3-0.9,1.4-0.7,0.8c-0.5,0.6-1.5,2.5-2,2.5c-0.1-0.2,2.8-3.6,0.8-1.5c0.5-0.5,1-1.1,1.5-1.6
		c-1.6,1.4-4.1,3.6-5.2,4.4c0.9-0.8,2.4-2.2,2.9-2.6c-1.8,0.7-1.4-0.3,0.6-1.3c-1.9,0.8,0-0.3,0.4-0.5c-1.1,0.3-0.7-0.3,0.2-0.3
		c0.9-0.8-1-1.6,0.1-2.7c8-2.4,8.9-13.4,17.2-18.3c-1.4,0.3,0.5-4,1.2-2.8c0.2,1.1,1.8-1,2.7-1.4c-0.7,1.2,2-0.4,2,0.8
		c0.2-0.7,2.8-1.5,3.4-1.6c1.6,1,3.2-3.6,3-0.2c0.2-0.5,1.2-0.8,0.9-1.1c0.7,0.7,4.6-0.9,4.2,0c1.1-0.3,0.3-0.8,0.4-1.3
		c1.2-0.5,0.7,0.4,1.3,0.6c0.6-0.2,1.8-2,1.9-1.1c0.8-0.6,2.6-1.2,3.4-1.6c-1.3-0.9,1.4-2,0.3-0.7c1-0.8,0.2,0.1-0.1,0.5
		c2.6-2.3,3.7-0.7,1-0.3c0,1.6,3.6,0.6,3.6-1.1c1.9-1.3,2.2,1.1,3.5-0.3c0-0.9,1.7-2.3,1.3-0.5c1.5-0.4,0.5-1.3,2.2-1.3
		c-0.2,0.4-1.1,0.6-0.8,0.6c1.3,0.4,0.8-1.8,1.7-0.3c3-2.2,5.8-1.7,6.8-2.6c0.5-0.4,1.3-1,0.2-0.1c2.6,0.8-14.3,15-2.3,16.6
		c-1.4-0.7,3.9-0.3,5.1-0.4c-0.1,0-0.1,0.1-0.2,0.1c0.1-0.1,0.7-0.1,0.5-0.2c0.8-0.1,1.6-0.2,2.5-0.4c-0.3,0.4-0.1,0.5,0.2,0.4
		C395.3,295.8,394.6,296.7,393,297.4z M396.8,294.7c0.3-0.1,0.7-0.1,1-0.2C397.4,294.7,397,294.9,396.8,294.7z M398.6,294.6
		c0.3-0.2,0.5-0.2,0.5-0.1c0.4-0.5,1-0.4,1.6-0.7C402.1,294.9,397.5,297.3,398.6,294.6z M410.3,291l-0.1,0.1
		C410.2,291.1,410.1,291,410.3,291z"/>
	<path class="st5" d="M390.7,279.3c-0.2,0.2-0.5,0.4-0.7,0.5C389.8,280.1,390.2,279.7,390.7,279.3z"/>
	<path class="st5" d="M385.3,276.5c-0.1-0.1-0.2-0.2-0.5,0C384.7,276.8,385.1,276.6,385.3,276.5z"/>
	<path class="st5" d="M417.5,288.9L417.5,288.9C417.4,289,417.4,288.9,417.5,288.9z"/>
	<path class="st5" d="M383.2,303.2c-0.2,0.2-0.3,0.3-0.4,0.4C383,303.5,383.1,303.3,383.2,303.2z"/>
	<path class="st5" d="M374.5,301.3c0,0,0,0-0.1,0C374.4,301.3,374.4,301.3,374.5,301.3z"/>
	<path class="st5" d="M378.6,306.3c0.2,0,0.3,0,0.5,0C379,306.3,378.8,306.3,378.6,306.3z"/>
	<path class="st5" d="M371.7,310.1c0,0,0.1,0,0.3-0.1C371.9,310,371.8,310.1,371.7,310.1z"/>
	<path class="st5" d="M331.1,316.1c0.2-0.2,0.4-0.5,0.6-0.8C331.5,315.5,331.3,315.8,331.1,316.1z"/>
	<path class="st5" d="M376.6,310.3c0.1-0.1,0.1-0.2,0.2-0.3C376.7,310.1,376.7,310.2,376.6,310.3z"/>
	<path class="st5" d="M376.9,309.8c0,0.1,0,0.2-0.1,0.2C376.9,309.9,377.1,309.7,376.9,309.8z"/>
</g>
<g>
	<path class="st5" d="M279.2,126.6C279.8,126.1,280.1,125.8,279.2,126.6L279.2,126.6z"/>
	<path class="st5" d="M374.3,141.1C374.3,141.2,374.3,141.2,374.3,141.1C374.4,141.2,374.4,141.2,374.3,141.1z"/>
	<path class="st5" d="M446.8,140.1c0.1,0.8-0.9,1.3-1.1,0.4C444,142.9,447.9,140.7,446.8,140.1z"/>
	<path class="st5" d="M406.9,146.4L406.9,146.4L406.9,146.4z"/>
	<path class="st5" d="M446.7,140c0.1,0,0.1,0.1,0.1,0.1C446.8,140,446.8,140,446.7,140z"/>
	<path class="st5" d="M295,101.7c0.2-3.2,1.1-0.8,3-1.8c0.9-0.7-7.6-0.5-7.5-0.7c-0.8,2.1-3,4.7-4.7,4.2c0.4,1.9-1.1,3.8-2.5,3.8
		c1.5,2.2,0.4,3.7-1.1,1c0.7,1.2,0.9,2.7-0.9,1.9c1.1,1-0.2,2-0.9,1.5c1.5,1-0.1,1.3-1,0.6c0.4,2.8-1.3,2.5-1.5,5.4
		c0.4,0,1.8,1.6,0.4,1.5c0.1-0.6-0.2-0.7-0.2,0c-1.2-2.4-0.2,0.6-1.4,1.7c-0.3-0.9-0.6-1.7,0.4-2.1c-4.2-2.5-0.8,5.2-4.5,5.7
		c-4.2,1.7,0.8,1.9-1.4,3.7c-4.3,0.1,0.5,0.8-1.9,2.5c-0.5,0,0.3-1.2-0.1-0.8c-2.3,2,0.5,0.5-0.1,1.3c-19.5,21,23.3-7.4,16.1,2.5
		c2.6,0.9-0.8-0.1,1,1.5c-0.5,0.2-1.5,0.1-1,0.9c0.9,5.8-7.8,14.8,8.3,11.2c-1.9-0.5,0.3-2.6,0.4-0.5c-0.5-1.9,1.2-0.7,0.3,0.3
		c4.8,0.8,10.5-1.5,17.2-3.2c-1.8-1.6,4.8,0.6,4.7-0.3c-4.6,12.8,8.1,5.3,18.1,6.3c10.5-6.4,19.7-6.8,32.9-10.2
		c-4.1,2.7,0.3-0.3,2.6,0.3c-0.9,1.2,3.9,1.2,4.6,1.2c0.7-2.3,3.2-1.5,2,1c1.2-0.6,0.4,0.3,2.6-0.1c-1,1.1,6.6-0.6,6.2,3
		c0-0.1,4.7-1.1,2.4,0c2.7,0.1-0.2-2.2,4.8-0.4c-0.8,1.9,1,1.1,2.4,0.5c-0.3,1-0.4,1,0.3,0.2c0.8,2.4,1.1-1.1,1.1,0.4
		c4.8-0.6,2.6,2,6.2,0.6c4.3-2,4,1.5,8.9-1.2c1.2,2.5,8.4-3,9.3-0.4c2.7-0.5,0.2-1.6,1.9-2.4c-0.9,0.6,1,2.1,0.5,0.7
		c1.1,1.1-0.1-1.4,1.3-0.8c-0.1,0.9,0.8-0.6,1.3-0.4c0.3,0.8-0.4,0.5-0.4,1.1c0.7-0.2,1.2-1.7,2-1.1c-2.1,1.1,0.7,1.3,1.7,1.4
		c-1-2,2.1-1.1,2.5-2.4c-2.1,4,7.7,1.4,10-1.5c-0.1,1.6,0.1,1.6,1.7,1c0.1,1.9,0.6-0.3,1.3,0.1c-1.1,2,1,0.5,1.3-0.2
		c1.4-1.6-1.7-0.3-2.4,0.1c0.4-1.4,0.3-1.4-0.6-0.2c-0.2-1.5-0.6-1.5-1.9-1.1c0.6-2.1-2.3,0.6-2.2-0.6c-1.8,0.9-0.3,3.9-2.3,0
		c0.1,1.6-1.1,0-0.7,1.5c-1-0.7-2.2,0.7-2.6-0.7c-0.2,0.7,0.9,0.4,0,1c-1.1-1.9-1.3,1.9-1.9-1.3c-2.5,1.9-6.8,0.4-9.4,2.2
		c0.6-2.5-1.2-0.2-4-0.3c0.5,2,1.3,3.4-0.5,1.7c0.8-1.8-0.4,0.5-0.6-1c1.3,0-0.8-0.3-0.9-0.8c1.8,0.5-15.2,4-13.3,1.7
		c-2.2-1.2-4.4,1-3.6-1.2c-1.6-1.4-3.4,1.9-4.6-0.4c0.9,2.8-1.3-1.7-3.7,0.2c-0.2,3-3.2,0.4-0.4-0.6c-1.1-1.1-8.2,0-6-2.7
		c-2.3-0.1-1.5-1.8-2.6-1.6c0.3,0.2-1.6,3-2.6,0.8c1.1,0.5,0.9-1,0.8-1.2c-1.1-1.2-0.9,0.8-2.3,0.4c0-1.9,0.2-0.4-0.9,0.2
		c-2.2-1.1-0.2,1-2.4,0.5c1-0.4-2.6-0.9-2.3-2.6c-2.3-0.9-3.9,1.1-1,0.4c-1.5,1-1.5,0.8,0.2,0.8c-0.8,0.9-3.5,1.7-2.8-1.1
		c-2.8-0.8-3.4,1.2-5.5,1.2c-0.1-1.3-1.5-1.3-2.1,0.2c-1.7-2-2.1,1.1-3.7,1.2c0.1-0.8,0.3-2.3-0.4-1.2c-5,2.9-11.1,3.9-14.9,4.1
		c-0.6-1.3-5.1,5.5-5.3,2.4c0.2,1.5-0.8,2.1-2,0.4c2.3-1.3-1.4,0.5-0.9-0.4c-1.8,1.1-3.1,4.3-4.2,1.8c-2,2-3.4,2-0.6-0.4
		c-0.6,0-2.9,1.5-1.2,0.7c-1.2,3.3-3.9-0.5-3.9-0.8c1.8-2.1-1.5-0.2-1.3-1.6c0.9-0.3,1.2-1.3,1.6-2.2c0.8-1.3,0.1,1.4,0.6,1.3
		c1.6-4.5,2-3.4,2.1-7.4c0.5-2.1-1.9,5.1-1.2,0.9c-2-2.6-7.1,2.2-11.7,2.4c-5.2,3.1-5.9-0.6-10.6,3.4c-1.8-3.6-5.5-0.8-8.2,0.3
		c-3.7-1.6-2-0.9-4.2,0.1c-0.5,0.2,0.2-0.5,0.5-0.5c2.5-2.2,0.3-0.7-0.6-0.5c1.2-3.4,4.8-13.7,3-15c-2.8,1.1,0-1.4,0.3-2.3
		c-7.4,1.9-11.2,1.5-14.1,6.2c0.7-1.7-0.4,0.6-0.9,0.2c1.6-2-0.6,0.7-1.5,0.7c1.4-1.9-0.7,0.3-1.2,0.3c1-0.9,1.6-1.5-0.2-0.3
		c-2.6,1.5,3-2.4,3.4-2.9c-3.8,2.8-1,0.4,0-0.6c-1.8,0.9-4.4,3.6-3.1,2.1c-6.8,3.1,6.7-3,1.1-3.1c0.1-0.3,1-0.4,1.4,0
		c1.7-5.4,8-11.3,11.1-17.6c1.2,0.8,0.8-0.2,0.6-1c0.3-1.6,3.3-0.6,3.3-2.9C292.4,103.4,294.8,100.8,295,101.7z M267.1,136.9
		c-2.2,0.9,0.2-0.6,0.5-0.8C267,136.5,267.2,136.6,267.1,136.9z M317.7,140.1c-0.2,0.6,0.2,1.3-0.3,1.6
		C317.5,141.2,317.5,140.6,317.7,140.1z"/>
	<path class="st5" d="M280.1,111.3c0-0.4,0-0.7,0-0.7C279.9,110.9,279.9,111.1,280.1,111.3z"/>
	<path class="st5" d="M277.6,117.5c0.1,0.1,0.1,0.1,0.2,0.1C277.7,117.6,277.7,117.5,277.6,117.5z"/>
	<path class="st5" d="M280.4,111.6c-0.5-0.6-0.3,0.1-0.3,0.5C280.2,111.7,280.3,111.6,280.4,111.6z"/>
	<path class="st5" d="M279,126.5c0.3,0,0.8-0.6,0.6-0.4C279.3,126.2,278.5,126.7,279,126.5z"/>
</g>
</svg>
