<?xml version="1.0" encoding="utf-8"?>
<!-- Generator: Adobe Illustrator 28.1.0, SVG Export Plug-In . SVG Version: 6.00 Build 0)  -->
<svg version="1.1" id="Layer_1" xmlns="http://www.w3.org/2000/svg" xmlns:xlink="http://www.w3.org/1999/xlink" x="0px" y="0px"
	 viewBox="0 0 781.8 568.58" style="enable-background:new 0 0 781.8 568.58;" xml:space="preserve">
<style type="text/css">
	.st0{fill:none;stroke:#5EA1C4;stroke-width:4;stroke-miterlimit:10;}
	.st1{fill:#F5AF02;}
	.st2{fill:#0A70A5;}
	.st3{fill:#F96524;}
</style>
<g>
	<g>
		<path class="st0" d="M705.09-420.06"/>
	</g>
</g>
<path class="st1" d="M289.59,561.1l37.86-43.16l-25.36-33.5l-110.83-20.83l30.5-13l11-45.2l-28-13.8c0,0-35-7-35-12s21-68,21-68
	l3-41l-62-21v-56l-43-47l-9-51l76.5-27l108.5-6l61,42l29,56l53,23l28-31l76-5l50,10l11,15l54-24l9,22v13l15,22l-10,39l34,2v22
	l-55,16l-40,52l67,57l28,21l-19,34l-93.33,23.5l-11.67,50.5l-7,40L289.59,561.1z"/>
<polygon class="st2" points="339.76,354.77 331.76,315.84 285.09,282.61 210.42,265.66 263.76,310.61 303.89,310.11 "/>
<path class="st2" d="M524.2,470.16h-5.33l-5.78,3.11l1.7,2.87l-23.09-2.11l11.5-14.66l7.67,5.9l16-10.67l-12.4-9.6l6.85-8.73
	c0,0-18.19,6.03-39.48,12.86l-0.4-0.3l-2.67,1.29c-22.58,7.21-47.77,15.02-58.28,17.41l-4.23-0.39
	c7.01-7.12,17.51-40.53,17.51-40.53l-11.98,1.22l1.98-6.22l5.33-16.2c0,0-4.67-6.8-8.67-6.8s-6.67,14.67-6.67,14.67l7.17,14.64
	l-36.17,3.69l-17-42.33l-36,42.33l28.6,33.67l4.59,5.41l-7.53,75.65l59.8,3.02l22.55,10.51l3.83-9.18l77.72,3.92l16.78-76.33
	l-8.73-0.8L524.2,470.16z"/>
<polygon class="st2" points="482.87,313.61 486.09,308.94 483.2,306.16 480.42,304.72 476.87,308.05 479.09,315.5 "/>
<polygon class="st2" points="457.26,278.94 455.92,274.77 450.26,280.27 451.42,280.27 "/>
<polygon class="st2" points="585.42,248.61 588.42,246.27 588.42,241.27 582.92,237.27 578.76,237.27 577.42,243.94 580.09,247.27 
	"/>
<polygon class="st2" points="538.09,352.27 543.76,357.94 547.09,360.27 547.09,352.27 544.09,349.27 "/>
<polygon class="st2" points="573.42,379.94 573.42,386.61 577.42,384.61 581.09,379.94 577.42,375.94 "/>
<polygon class="st2" points="600.76,378.94 602.42,384.94 605.09,389.27 611.09,381.27 611.09,374.27 604.09,374.27 "/>
<polygon class="st2" points="639.42,421.61 635.42,425.27 638.76,429.94 644.76,431.61 646.76,425.27 643.76,421.61 "/>
<polygon class="st2" points="631.42,459.94 631.42,465.27 638.76,465.27 641.09,458.27 636.42,454.61 "/>
<polygon class="st2" points="652.76,426.61 651.09,436.27 654.42,436.27 660.76,428.94 662.42,421.61 657.09,421.61 "/>
<polygon class="st2" points="531.42,465.27 532.42,470.27 538.09,478.27 539.26,484.27 547.09,479.27 547.09,471.94 542.59,459.94 
	"/>
<polygon class="st2" points="597.09,476.61 598.76,476.61 600.76,465.27 591.09,472.11 "/>
<polygon class="st2" points="651.09,346.72 637.31,359.16 648.87,368.05 664.87,357.39 "/>
<polygon class="st2" points="595.09,142.94 601.09,134.94 601.09,127.94 594.09,127.94 590.76,132.61 592.42,138.61 "/>
<path class="st2" d="M650.44,316.64c0,0,1.92-8.02-0.76-10.99c-2.68-2.97-15.35,4.88-15.35,4.88l-6.49,16.19l7.01-3.18
	L650.44,316.64z"/>
<polygon class="st2" points="285.09,517.94 293.76,545.27 308.42,560.35 319.09,527.94 297.76,496.61 "/>
<polygon class="st2" points="298.42,465.27 289.59,459.77 295.09,465.27 "/>
<polygon class="st2" points="298.42,425.27 300.76,427.77 305.59,424.86 300.76,421.94 "/>
<polygon class="st2" points="531.42,396.39 536.2,398.61 547.09,396.39 542.59,389.27 "/>
<polygon class="st2" points="585.09,282.61 591.09,280.27 593.09,274.77 593.09,271.05 588.42,274.77 "/>
<polygon class="st2" points="574.09,320.83 581.26,322.55 588.42,320.83 585.09,315.5 "/>
<polygon class="st2" points="503.09,204.44 489.81,183.61 486.09,204.44 496.09,217.61 "/>
<polygon class="st2" points="529.54,230.27 513.09,217.61 513.09,222.61 521.31,242.94 "/>
<path class="st3" d="M286.68,540.68c0.1-0.16,0.09-0.23-0.05-0.18c-2,1.07-4.22,2.36-6.19,3.48l-0.13,0.09
	c-1.54,1.21,0.78,0.67,1.51,0.32C283.8,543.78,285.52,542.34,286.68,540.68z"/>
<path class="st3" d="M311.09,525.77c-2.8,2.93-5.5,6.1-9.09,8.1c-2.46,1.38-4.28,1.77-6.83,3.33c-1.52,1.03-3.69,1.95-4.83,3.36
	c0.06,0.32,2.68-0.82,4.74-1.9c5.52-2.64,10.56-7.1,15.69-10.26l0.12-0.09c1.03-0.72,2.1-1.72,2.74-2.86
	C314.98,522.59,311.75,524.96,311.09,525.77z"/>
<path class="st3" d="M352.98,400.2c0.76,0.06,2.95,0.24,3.69,0.3c-0.91-0.13-2.64-0.24-3.62-0.29L352.98,400.2z"/>
<path class="st3" d="M238.64,368.11c0.79,0.06,2.1,0.17,2.88,0.2c-0.73-0.13-2.13-0.28-2.9-0.21L238.64,368.11z"/>
<path class="st3" d="M352.89,400.22l0.04,0c-2.37-0.14-6.91-0.72-9.08-0.72C346.63,400.2,349.94,399.94,352.89,400.22z"/>
<path class="st3" d="M278.93,514.33l0.02,0.04c1.15,0.46,2.98,0.81,4.19,1.03c-0.89-0.28-2.46-0.66-3.45-0.99
	C279.37,514.31,278.95,514.27,278.93,514.33z"/>
<path class="st3" d="M306.98,459.03c-1.35-0.3-2.8,0.27-3.87,0.94c-0.2,0.19,0.37,0.01,0.76-0.01c1.19-0.17,2.72,0.01,3.89-0.02
	c0.24-0.09,0.27-0.19,0.04-0.42c-0.18-0.16-0.11-0.18-0.63-0.43L306.98,459.03z"/>
<path class="st3" d="M336.08,46.91c-0.15,0.32-0.2,0.65,0.04,0.42c0.35-0.21,1.21-0.73,1.6-0.96l-0.01,0
	c-0.03,0.01-0.58,0.14-1.04,0.24C336.29,46.71,336.18,46.67,336.08,46.91z"/>
<path class="st3" d="M224.28,234.56c4.78-2.88-0.13-1.19-1.72-0.44c-1.19,0.74-2.05,1.6-3.68,2.77c-1.04,0.81-1.75,1.5-1.19,1.53
	c1.11-0.04,2.57-0.68,3.57-1.08l0.01-0.01c-0.24,0.02-0.78,0.19-1.06,0.2C219.04,237.52,223.79,234.95,224.28,234.56z"/>
<path class="st3" d="M276.61,513.44c-1.48-0.55-3.4-1.27-4.89-1.89C273.06,512.12,275.15,512.95,276.61,513.44L276.61,513.44z"/>
<path class="st3" d="M220.69,234.85c0.03-0.01,1.09-0.43,1.31-0.51l0.05-0.02C221.96,234.34,220.8,234.81,220.69,234.85z"/>
<path class="st3" d="M283.01,348.31c-0.08-0.18-1.68,0.12-2.06,0.16l-0.02,0.01C281.42,348.54,282.42,348.41,283.01,348.31z"/>
<path class="st3" d="M225.38,352.21l-0.04,0.01c0.75-0.14,3.11-0.6,3.77-0.73C228.2,351.63,226.35,351.99,225.38,352.21z"/>
<path class="st3" d="M148.37,340.98c-0.53-0.01-1.66,0.56-2.06,0.85c0.3-0.12,2.08-0.84,2.1-0.85L148.37,340.98z"/>
<path class="st3" d="M11.79,157.78c-0.54-0.46-0.76-0.74-1.23-0.92c-0.49-0.14-1.4-0.37-1.74-0.56c-0.61-0.23-2.12-1.17-2.43-1.24
	c-0.03,0.01,0.01,0.07,0.11,0.17c0.32,0.3,0.37,0.32,0.64,0.54c2.01,1.47,4.31,2.79,6.98,3.74l-0.02-0.03
	C13.41,158.97,12.37,158.32,11.79,157.78z"/>
<path class="st3" d="M279.2,513.82c-0.69,0.06-1.82-0.17-2.56-0.39c0.26,0.05,3.84,1.53,2.69,0.45L279.2,513.82z"/>
<path class="st3" d="M182.13,121.55c-0.79,0.13-2.23,0.51-2.99,0.83l0.02,0C179.94,122.15,181.39,121.76,182.13,121.55z"/>
<path class="st3" d="M344.99,329.7c-0.3,0.18-0.6,0.36-0.9,0.54C344.41,330.06,344.71,329.88,344.99,329.7z"/>
<path class="st3" d="M143.48,369.92c-0.11,0.09-0.19,0.16-0.22,0.22c-0.04,0.09,0.01,0.16,0.15,0.21c0.62,0.25,3.82,0.03,7.27-0.12
	c1.77-0.12,3.28-0.16,4.64-0.22c-2.48-0.01-4.98-0.02-7.51-0.07C147.44,369.85,145.14,369.98,143.48,369.92z"/>
<path class="st3" d="M321.29,343.03c-4.48,3.63,14.38-7.82,15.79-8.63c2.22-1.31,4.68-2.76,7.01-4.16c-1.21,0.68-2.6,1.31-3.59,1.94
	C333.55,336.07,327.38,339.14,321.29,343.03z"/>
<path class="st3" d="M187.59,156.65c0.26-0.07,0.37-0.12,0.23-0.14c-0.56-0.01-1.48,0.04-2.04,0.06l-0.17,0.01
	c-0.26,0.03-1.97,0.11-1.32,0.18C185.33,156.86,186.6,157.04,187.59,156.65z"/>
<path class="st3" d="M357.38,400.6c0.11,0.02,0.26,0.05,0.36,0.07c-0.13-0.04-0.35-0.1-0.36-0.11l-0.1-0.02
	c-0.03,0-0.73-0.06-0.61-0.04C356.74,400.51,357.18,400.56,357.38,400.6z"/>
<path class="st3" d="M357.74,400.67c0.06,0.02,0.1,0.03,0.1,0.03C357.89,400.71,357.83,400.69,357.74,400.67z"/>
<path class="st3" d="M207.77,116.27c0.74-0.23,1.34-0.39,0.89-0.3c-0.62,0.12-1.5,0.2-2.04,0.35l-0.01,0.06
	C206.68,116.8,207.35,116.33,207.77,116.27z"/>
<path class="st3" d="M268.39,443.24c0.38-0.05,1.79-0.45,2.19-0.54l0.02-0.01C270.03,442.72,269.03,442.99,268.39,443.24z"/>
<path class="st3" d="M326.26,467.93c0.6-0.12,0.78-0.24,0.95-0.35c-0.04-0.01-0.06-0.01-0.09-0.02L326.26,467.93z"/>
<path class="st3" d="M224.26,344.57c-0.5,0.08-2.87,0.81-3.65,1.05l0.02,0C221.61,345.36,223.3,344.87,224.26,344.57z"/>
<path class="st3" d="M314.44,520.93c-0.33,0.03-1.03,0.1-1.43,0.13l0.04,0.01C313.42,521.1,314.21,521.11,314.44,520.93z"/>
<path class="st3" d="M315.16,520.82c-0.21,0.02-0.56,0.09-0.68,0.12l0.01,0.01c0.19-0.02,0.66-0.07,0.97-0.11
	c0.27-0.08,0.19,0.16,0.26,0.04C315.85,520.71,315.41,520.81,315.16,520.82z"/>
<path class="st3" d="M314.17,522.59l0.05-0.02c0.42-0.47,0.95-1.06,1.33-1.58C315.23,521.28,314.12,522.12,314.17,522.59z"/>
<path class="st3" d="M257.18,503.28c0-0.15,0.02-0.31,0.04-0.47C256.89,503.07,256.85,503.23,257.18,503.28z"/>
<path class="st3" d="M279.06,492.88L279.06,492.88c-6.99,2.5-14.48,5.83-21.33,9.46c-0.89,0.53-0.93,0.64,0.04,0.18
	C264.33,499.1,272.54,496.25,279.06,492.88z"/>
<path class="st3" d="M353.86,473.32c-4.59,0.95-9.39,1.99-13.93,3.1c-0.39,0.11-1.32,0.34-0.56,0.39c0.27,0.02,0.7,0.02,1,0.06
	c1.33,0.2-2.19,1.18-1.86,1.22c1.62-0.19,4.11-0.78,5.8-1.11c0.99-0.24,1.3-0.29,1.52-0.85c0.14-0.4,0.37-0.65,0.75-0.83
	c2.16-0.86,5.09-1.41,7.29-1.99L353.86,473.32z"/>
<path class="st3" d="M322.06,460.88c-0.96-0.12-3.48-0.26-4.26-0.21c-0.34,0.04,0.03,0.18,1.13,0.43c0.92,0.21,1.93,0.43,2.78,0.57
	l0.2,0.03c1.31,0.16,2.13,0.28,3.28,0.27c0.45-0.02,0.1-0.18-0.59-0.38C323.61,461.34,322.85,461.08,322.06,460.88z"/>
<path class="st3" d="M248.22,395.55l0.02-0.01c0.1-0.18,0.63-0.74,0.56-0.94c-0.37-0.01-0.83-0.04-1.19,0.02
	C246.85,394.8,248.34,395,248.22,395.55z"/>
<path class="st3" d="M259.7,377.72c-1.36,0.23-2.66,1.01-3.6,1.92c2.85-0.72,6-1.95,8.88-2.81l0-0.01
	C263.17,377.01,261.65,377.39,259.7,377.72z"/>
<path class="st3" d="M301.97,378.54c-0.59,0.08-0.26,0.04,0.64-0.06c1.51-0.17,3.25-0.38,4.73-0.53c0.19-0.02,4.89-0.47,4.71-0.46
	c-2.44,0.21-5.28,0.46-7.64,0.74l-0.19,0.02C303.54,378.33,302.66,378.45,301.97,378.54z"/>
<path class="st3" d="M145.05,344.12c-0.37,0.09-1.62,0.3-1.75,0.61c0.57,0.33,2.03,0.43,2.69,0.35c0.31,0.01,0.73-0.29,0.45-0.52
	c-0.39-0.24-0.66-0.3-1.24-0.44L145.05,344.12z"/>
<path class="st3" d="M239.89,274.52c-3.77-0.03-9.53,0.84-13.91,2.24c4.93-0.68,10.44-1.39,13.92-2.23L239.89,274.52z"/>
<path class="st3" d="M144.96,142.64c-1.03,0.47-3.14,1.57-4.06,2.08c0.84-0.35,2.87-1.33,3.75-1.69c0.95-0.42,4.98-2.05,4.72-1.98
	c-1.32,0.47-3.01,1.03-4.26,1.52L144.96,142.64z"/>
<path class="st3" d="M494.11,543.97c-3.39-1.17-8.12-0.68-11.58-1.45l-0.16-0.01c-0.75-0.32-5.7,1.15-3.77,2.1
	c2.91,0.48,5.97-1.39,9.15-0.95c1.22,0.13,2.46,0.77,3.66,1.13c-0.04,0.09-0.08,0.19-0.14,0.26l-0.09,0.04
	c-0.92,0.18,0.12,1.54,0.69,0.82c0.18-0.27,0.13-0.66,0.04-0.99c0.58,0.13,1.15,0.17,1.71,0.01
	C494.15,544.88,494.67,544.16,494.11,543.97z"/>
<path class="st3" d="M587.61,382.38l-0.07,0c-0.45,0.07-1.56,0.14-1.72,0.41c0.44-0.04,0.99-0.15,1.39-0.23
	C587.58,382.5,587.68,382.42,587.61,382.38z"/>
<path class="st3" d="M599.07,374.38c-0.31-0.12-1.27-0.29-1.62-0.23l0.02,0.01C597.92,374.23,598.58,374.33,599.07,374.38z"/>
<path class="st3" d="M552.63,432.87c1.4-0.42,4.98-1.47,6.54-1.99c-0.97-0.07-4.29,1.25-6.45,1.96L552.63,432.87z"/>
<path class="st3" d="M435.16,541.03l-0.01,0.02c1.36,0.1,3.35,0.13,4.75,0.1C438.66,541.1,436.44,540.81,435.16,541.03z"/>
<path class="st3" d="M481.64,465.31c0.38-0.22,1.52-1.25,1.91-1.54l-0.02,0c-0.06,0.03-0.56,0.28-0.89,0.45
	C482.2,464.41,481.81,465.03,481.64,465.31z"/>
<path class="st3" d="M465.96,489.58c0.56,0.02,1.52,0.11,2.14,0.36c0.76,0.35,0.83-0.04,0.49-0.73l-0.12-0.12
	C467.8,488.6,466.43,489.2,465.96,489.58z"/>
<path class="st3" d="M460.02,534.72c0.18-0.11,0.37-0.22,0.51-0.32L460.02,534.72z"/>
<path class="st3" d="M460.02,534.72c-0.11,0.07-0.22,0.13-0.29,0.18L460.02,534.72z"/>
<path class="st3" d="M519.15,447.63c0.15,0.12,0.39,0.18,0.62,0.17C519.71,447.68,519.48,447.63,519.15,447.63z"/>
<path class="st3" d="M635.22,130.87c-0.05,0.08,0.01,0.13,0,0.2C635.54,130.97,635.64,130.89,635.22,130.87z"/>
<path class="st3" d="M697.49,140.12c-0.1,0.27-0.12,0.39,0.16,0.19c0.28-0.16,0.62-0.36,0.9-0.52l-0.01-0.01
	C698.14,139.84,697.62,139.59,697.49,140.12z"/>
<path class="st3" d="M547.26,368.17c0.1,0.02,0.13,0.03,0.22,0.05C548.81,368.24,548.07,368.18,547.26,368.17z"/>
<path class="st3" d="M435.04,539.91c0.25-0.08,0.44-0.15,0.39-0.13c-0.19,0.06-1.22,0.4-1.53,0.5c-0.44,0.16,0.4,0.39,0.44,0.41
	l0.01-0.01C433.28,540.25,434.59,540.13,435.04,539.91z"/>
<path class="st3" d="M476.31,337.61c0.09,0.08,0.37,0.08,1.17-0.08C477.19,337.45,476.76,337.51,476.31,337.61z"/>
<path class="st3" d="M517.57,366.69l0.04,0.01c-0.02,0-1.78-0.39-2.1-0.46C515.91,366.37,517.12,366.62,517.57,366.69z"/>
<path class="st3" d="M516.59,314.84c0.2-0.07,0.43-0.17,0.68-0.28c-0.26,0.1-0.5,0.2-0.71,0.28L516.59,314.84z"/>
<path class="st3" d="M518.83,313.69c-0.38,0.31-1,0.63-1.56,0.88c0.75-0.3,1.64-0.67,2.13-1.09
	C519.46,313.36,518.99,313.54,518.83,313.69z"/>
<path class="st3" d="M535.75,290.7c0.84,0.48,2.27,0.66,3.21,0.83c-0.17-0.06-2.7-0.71-3.25-0.85L535.75,290.7z"/>
<path class="st3" d="M494.49,131.17c0.84-0.4,2.62-0.66,1.15-0.68c-1.06,0.01-2.56,0.03-3.63,0.14l0,0.03
	c0.43,0.15,1.57,0.65,2.01,0.88C494.15,131.52,494.21,131.26,494.49,131.17z"/>
<path class="st3" d="M437.56,540.64l-0.07-0.01c-0.84,0.07-2.19,0.21-2.97,0.06C435.13,541.02,436.96,541.03,437.56,540.64z"/>
<path class="st3" d="M514.18,306.09l-0.06,0.03c1.19-0.59,5.54-2.79,6.65-3.36C518.66,303.75,516.3,304.97,514.18,306.09z"/>
<path class="st3" d="M613.87,199.52l0.03-0.01c0.07,0-1.74,0.22-1.71,0.24C612.61,199.74,613.49,199.65,613.87,199.52z"/>
<path class="st3" d="M550.6,433.92c0.16-0.18,0.44-0.39,0.76-0.62c0.44-0.14,0.91-0.29,1.21-0.39l0.05-0.02
	c-0.27,0.08-0.74,0.22-1.2,0.36c1.2-0.87,2.82-1.99,0.46-2.94c-11.13-3.32-21.79-7.13-32.05-12.23
	c-7.48-3.35-15.18-6.76-18.24-14.76c-0.25-0.61-0.45-1.34-0.03-1.91c2.02-3.52,3.35-5.4,7.55-6.38c1.01-0.34,2.47-0.44,3.15-1.09
	c3.16-2.14,9-0.3,12.89-1.41c7.98-1.56,15.59-4.47,23.75-4.99c0.96-0.1,1.6-0.17,1.8-0.23c0.2-0.09,0.1-0.09-0.18-0.37
	c-0.09-0.13-0.01-0.27,0.68-0.36c3.73-0.49,8.15,0.07,11.98-0.11c3.86-0.1,7.48-1.2,11.09-2.06c4.61-0.85,9-4.1,13.8-2.75
	c0.85,0.29,0.58,0.69-0.33,1.05c-0.15,0.07-0.47,0.18-0.49,0.18c-0.38,0.15-0.94,0.26-1.28,0.37c-0.36,0.1-0.44,0.17-0.15,0.21
	c2.47,0.25,7.06,0.14,9.02,0.14c0.24-0.01,0.42-0.04,0.57-0.11c0.12-0.1,0.17-0.15,0.37-0.21c2.21-0.36,4.91,0.02,7.55-0.59
	c2.83-0.77,3.65-3.79,2.39-5.82c-0.06-0.23-0.13-0.45-0.2-0.65c-0.17-0.43-0.48-0.53-0.92-0.49c-0.28-0.19-0.58-0.35-0.92-0.48
	c-6.87-0.99-14,1.06-20.73-1.22c-1.94-0.39-3.33-1.36-5.17-1.82c-2.67-0.44-8.78-1.15-11.25-1.81c-1.06-0.18-1.62-0.75-2.61-0.66
	c-0.56,0.02-2.11,0.17-3.04,0.22c-3.19,0.78-7.7,1.59-11.17,0.94c-0.87-0.16-3.07-0.37-1.92-0.88c0.5-0.25,2.59-0.38,2.01-0.88
	c-4.85-2.17-10.64-0.52-15.74-1.5c-2.29-0.6-3.53-0.53-5.75-0.27c-2.42,0.26-6.22-0.41-8.37-0.2c-1.27,0.75-3.45,0.27-5.67-0.03
	c-7.88-1.46-15.65-3.76-23.14-6.29c-3.7-0.92-8.16-2.53-11.7-2.09c-0.34,0.09-0.58,0.01-0.79,0.26c0.05,0.27,0.44,0.31,0.71,0.4
	c1.01,0.38,10.39,1.42,4.57,1.45c-1.94,0.18,3.17,0.78,3.97,1.1c0.22,0.08,0.5,0.14,0.66,0.24c0.09,0.04,0.23,0.16,0.13,0.2
	c-0.04,0.03-0.11,0.05-0.2,0.06c-3,0.01-7.81-1-11.38-1.84c-2.97-0.98-5.12-2.77-7.58-4.52c-2.38-1.61-5.14-3.73-4.69-6.95
	c0.27-1.68,0.55-3.02,1.21-4.33c1.62-1.19,2.99-2.63,4.01-4.39c2.2-1.57,4.73-2.65,7.18-3.87c4.52-2.64,8.86-5.52,13.82-7.64
	c4.44-2.12,7.19-4.83,10.97-7.36c5.41-3.49,1.97,1.06,6.03-1.58c6.18-3.62,12.27-7.84,18.04-11.85c6.5-3.29,13.49-6.38,19.83-10.04
	c3.28-1.71,4.18-3.16-0.02-4.27c-8.54-2.58-16.72-4.2-25.88-6.01c-3.29-0.64-5.98-1.64-9-2.17c-2.81-0.53-7.39-0.18-10.31-1.78
	c-0.67-0.48,0-0.91-0.59-1.44c-0.29-0.27-1.04-0.61-2.14-1c-3.05-1.04-6.74-1.78-9.72-2.8c-2.86-0.93-4.65-1.98-7.64-2.71
	c-6.45-1.64-13-3.15-19.51-4.78c5.47-3.53,9.58-8.39,9.15-15.59c-1.09-6.37-4.15-11.39-8.36-15.45c1.04-0.34,1.97-0.66,2.62-0.88
	c2.16-0.73-0.28-0.26,1.93-1.28c3.03-1.35,6.63-2.51,9.83-3.21c3.83-0.78,7.39-0.34,11.15-0.62c7.29-1.1,14.82-1.23,22.16-1.69
	c0.24,0.02,0.49,0.04,0.73,0.05c7.06,0.6,14.18-1.07,20.95,0.61c2.01,0.33,4.09,0.18,6.17,0.12c6.37-0.26,12.76,0,19.04-0.24
	c1.67-0.09,3.55-0.12,4.88-1.13c0.22-0.16,0.41-0.34,0.58-0.53c0.38-0.1,0.57-0.24,0.38-0.44c-0.01-0.01-0.02-0.01-0.02-0.01
	c1.69-2.48,0.72-6.8-2.31-7.55c-12.47-3.05-26.83-1.24-39.7-1.26c-1.08,0.01-2.11,0.07-3.11,0.14c-3.57-0.12-7.22-0.21-10.22-0.15
	c-2.06,0.03-3.93-0.11-5.74-0.52c-10.17-2.08-21.16-1.94-31.29-4.12c-2.25-0.49-3.97-1.01-6-1.72c-1.26-0.42-2.63-0.57-2.49-0.9
	c0.21-0.41,0.76-0.67,1.27-0.93c2.54-1.12,5.53-2.9,8.3-3.67c4.34-1.02,9.78-0.66,14.5-1.57c13.83-1.82,26.34-5.87,39.47-8.42
	c0.74-0.16,1.46-0.3,2.17-0.41c13.01,0.85,26.02,1.62,38.91,0.47c7.45-0.61,14.76,1.6,22.29,0.88c5.51-0.63,10.47-1.72,15.96-1.53
	c1.64-0.09,3.85,0.06,5.29-0.03c1.27-0.16,2.28-0.76,3.59-0.84c1.49-0.2,4.33-0.19,6.36-0.14c1.7,0.06,3.68-0.14,4.36-1.97
	c0.8-1.99,0.62-4.7-0.79-6.4c-2.42-2.43-8.68-1.22-12.35-1.64c-0.89-0.12-1.19,0.05-1.5-0.38c-0.62-0.7-2.75-0.52-4.37-0.62
	c-9.08,0.47-18.64-0.61-27.91-0.96c-9.22,0.38-20.03,0.4-29.54,2.12c-1.5,1.11-3.35,1.69-5.19,1.74c-0.83,0.13-1.62-0.16-2.42-0.35
	c-6.24-1.31-13.11-0.2-19.55,0.73c-2.4-0.13-4.8-0.22-7.17-0.26c-3.78,0.09-6.16-0.84-9.7-1.23c-4.79-0.84-11.08-0.73-15.52-0.81
	c-5.02-0.53-10.03-1.13-15.07-1.56c-0.72-0.5-1.49-1-2.31-1.48c-6.28-4.52-15.45-6.06-22.81-8.46c-4.71-2-10.26-2.64-15.42-3.13
	c-4.62-0.61-9.65-1.99-14.36-2.63c-1.7-0.19-3.37-0.41-5.02-0.63c-0.08-0.08-0.15-0.17-0.25-0.25c-1.51-1.21-3.62-1.46-5.52-2.08
	c-6.9-1.79-14.47-8.08-6.7-13.56c1.61-1.35,0.95-1.55,0.01-1.3c-0.23,0.02-0.49,0.07-0.71,0.12c-0.37,0.02-0.59,0.29-0.76,0.56
	c-0.27,0.15-0.54,0.3-0.79,0.46c-1.45,0.86-2.5,1.58-1.85,0.85c4.93-6.22,14.57-5.63,21.77-6.82c9.35-2.06,19.11-5.3,28.62-7.4
	c2.05-0.2,0.77,0.72,3.22,0.28c1.5-0.17,3.26-0.54,4.82-0.77c5.54-0.88,9.23-2.41,14.32-1.22c8.32,0.72,17.96-0.74,25.85-1.77
	c7.35-1.11,16.1-1.59,24.29-1.04c25.88,0.46,53.23-1.27,78.87,0.95c8.66-0.05,16.33-0.84,24.98-0.67
	c5.77,0.42,11.63,1.99,18.22,2.06c5.05-0.13,9.43-1.03,14.52-0.52c6.04,0.5,11.55,0.98,17.61,0.78c3.6-0.13,5.78,1.25,9.39,2.36
	c1.34,0.34,3.15,0.44,4.62,0.5c3.31,0.12,6.94-0.15,9.18-0.61c1.64-0.39,0.34-0.96,0.14-1.38c-0.24-0.59,0.57-0.89,0.97-1.22
	c0.48-0.34,1.08-0.78,1.09-1.37c0.01-0.63-0.77-1.37-1.88-1.93c-2.93-1.48-8.67-1.2-11.53-1.44c-1.33-0.08,0.27-0.39,0.19-0.5
	c-0.14-0.04-0.28-0.04-0.53-0.05c-4-0.4-8.85-0.34-12.79-0.32c-3.23-0.33-4.7-0.18-7.71,0.06c-2.26,0.18-3.72-0.64-5.63-0.89
	c-1.59-0.26-3.58-0.23-5.35-0.17c-8.04,0.57-16.88-1.49-25-0.84c-5.99-0.44-12.31-2.04-18.29-1.71c-6.8,0.26-16.09,0.83-23.18,0
	c-5.16-1.41-11.24,1.87-16.58,0.83c-1.05-0.5-0.32-1.41-1.97-1.25c-3.4,0.6-6.86,0.8-10.27,0.42c-4.94-0.07-12.5,0.55-17.09-1.44
	l-0.04,0c-1.76,0.74-4.6,1.74-6.84,1.25c-4.89-1.28-10.8,0.26-15.94,0.39c-6.03,0.26-13.24,0.38-19.42,1.11
	c-3.36,0.3-7.19,3.34-10,2.04c-0.11-0.13,0.08-0.29,0.24-0.45c0.12-0.11,0.18-0.21,0.2-0.3c0.01-0.15,0.02-0.28-0.66-0.24
	c-1.73,0.31-5.67,0.52-7.8,0.93c-1.04,0.04-7.02,0.92-5.12-0.02c2.27-0.97,5.95-1.1,8.51-1.69c1.64-0.96-2.04-1.17-2.78-1.21
	c-6.22,0.07-12.28,0.58-18.21,2.21c-1.04,0.27-2.24,0.69-3.22,0.95c-4.25,1.52-9.07,0.71-13.32,0.53
	c-5.33-0.47-10.14,3.13-15.18,3.79c-1.63,0.03-3.02-0.34-4.6-0.05c-2.84,0.64-6.3,2.55-9.29,2.94c-0.22-0.01-0.17-0.06-0.16-0.09
	c0.19-0.26,0.64-0.43,0.89-0.66c0.09-0.09,0.18-0.15,0.06-0.17c-0.2,0.02-0.45,0.08-0.71,0.16c-4.02,1.52-8.45,2.27-12.77,3.45
	c-7.5,2.35-17.45,6.77-16.62,16.11c0.46,2.6,1.26,5.05,2.46,7.25c-6.64-0.92-13.22-1.66-19.73-2.32c4.17-2.23,8.32-4.49,12.42-6.8
	c0.33-0.2,0.63-0.38,0.88-0.56c0.84-0.57,1.21-1,0.98-1.26c-0.18-0.2-0.71-0.3-1.53-0.33c-9.87,0.31-19.98,1.12-29.89,1.42
	c-3.6,0.06-3.15-0.42-6.15-0.05c-2.71,0.37-5.84,0.8-8.63,1.19c-3.57,0.5-5.94,0.42-8.51,0.59c-1.79,0.12-3.59,0.41-5.46,0.74
	c-6.39-0.3-12.76-0.68-19.44-1.45c2.38-0.39,4.76-0.78,7.11-0.99c2.71-0.06,4.51-0.33,7.14-1.06c3.76-0.65,4.92,0.19,9.67-0.72
	c6.49-0.99,13.13-1.95,19.54-2.85c13.71-2.23,28.16-2.61,40.96-8.04c0.39-0.1,0.43-0.13,0.46,0.06c0.01,0.02,0.03,0.03,0.08,0.02
	c0.37-0.14,0.56-0.29,1.26-0.74c3.83-2.74,12.51-9.05,4.45-12.36c-3.7-1.8-8.07-3.67-11.7-5.56c1.8-0.58,3.63-1.13,5.51-1.65
	c5.63-1.34,11.94-1.29,17.23-3.42c3.35-1.42,3.93-2.45,7.44-3.64c4.11-1.6,7.92-3.44,11.87-5.01c1.88-0.69-0.88,0.97,1.05,0.11
	c1.86-0.74,6.73-3.39,8.41-4.51c0.2-0.18-0.54,0.13-1.39,0.47c-5.21,2.06,1.98-3.28,3.12-3.85c5.86-4.16,18.38-9.88,12.96-18.46
	c-2.06-3.31-4.65-4.57-8.09-5.46c-5.26-1.48-12.41-3.04-17.81-4.5c-3.09-0.86-6.48-2.16-9.57-2.95c-1.65-0.31-3.42,0.05-5.05-0.56
	c-10.78-3.64-22.84-4.94-33.57-7.21c-1.03-0.32-2.39-0.46-3.21-0.83c-0.9-0.32-0.79-0.48,0.17-0.5c1.26,0,4.68,0.13,0.79-0.66
	c-14.32-2.46-29.38-3.67-43.67-5.41c5.88-1.22,11.59-0.72,17.87-1.38c1.04-0.15,2.29-0.14,3.25-0.18c2.39,0-0.5,1.01,1.66,0.79
	c4.75-0.42,9.72-1.73,14.46-1.66c-0.52,0.33-4.29,0.74-4.64,1.05c-0.13,0.1-0.04,0.16,0.11,0.21c0.9,0.24,1.96,0.22,2.97,0.27
	c5.67-0.18,12.8-0.03,18.08-1.15c7.01-2.88,14.99-2.84,22.34-4.46c0.8-0.19,1.72-0.33,2.42-0.5c0.85-0.18,1.25-0.25,1.31-0.2
	c0,0.16-0.51,0.43-0.6,0.67c-0.36,0.86,1.8,0.62,2.38,0.76c5.58,0.36,11.98-1.29,16.64-4.95c5.35-3.7,5.45-12.52,1.24-16.49
	c-0.04,0.12,0.15,0.68-0.13,0.73c-0.85-0.2-2.37-0.97-3.52-1.61c-12.82-5.78-25.71-10.59-39.93-13.16c-7.63-1.48-14.4-2.31-22.1-3.2
	c-1.72-0.28-3.68-0.46-5.2-1.13c-0.91-0.49,0.16-0.91-1.89-1.49c-6.15-1.51-12.54-2.38-18.62-3.81c-2.42-0.57-6.72-0.24-7.49-1.18
	C331.6,5.2,331.81,5,331.71,4.8c-0.07-0.11-0.32-0.21-0.92-0.29c-2.63-0.64-11.73-0.2-13.86-1.07c-0.03-0.23,0.36-0.24,0.53-0.36
	c0.65-0.3,0.36-0.3-0.56-0.44c-4.57-0.54-11.92-0.76-15.75-0.23c-0.07,0.03-0.11,0.07-0.13,0.1c-0.09,0.16,0.35,0.23,1.35,0.19
	c0.11,0,0.33-0.01,0.45-0.02c1.3-0.13,9.4-0.71,9.01,1.11c-0.03,0.26,0.04,0.47,1.13,0.74c7.02,1.55,14.84,1.05,21.62,2.1
	c2.38,0.48,1.62,1.15,3.55,1.4c1.87,0.08,5.92,0.52,7.01,1.54c0.29,0.2,0.57,0.39,0.94,0.56c3.83,1.18,8.15,1.62,12.07,2.78
	c2.64,0.81,4,1.88,6.96,2.3c7.05,1.23,14.44,3.06,21.36,4.8c2.83,0.54,5.27-0.31,7.98,0.55c4.48,1.49,8.5,4.55,13.14,5.56
	c4.12,0.92,7.01,1.33,11.23,3.07c4.54,1.44,9.97,4.27,11.13,8.93c0.8,3.8-7.95,8.47-11.36,9.17c-2.91,0.75-0.2-0.99-2.88-0.42
	c-5.09,1.03-11.08,1.71-16.13,2.03c-2.44,0.45-4.96,0.89-7.53,1.32c0.52-0.19,1.07-0.38,1.54-0.47c1.06-0.19,1.49-0.49,0.25-0.95
	l-0.19-0.01c-0.98,0.04-1.98,0.83-2.55,1.59c-8.26,1.35-16.97,2.45-25.02,2.6c-8.46,0.27-16.97,0.38-25.56,0.55
	c-4.6,0.33-11.08,1.29-16.23,1.21c-5.61,0.01-1-1.11-2.67-1.33c-1.77,0.03-3.62,0.13-5.48,0.2c0.04-0.01,0.07-0.01,0.11-0.02
	c0.23-0.05,0.46-0.1,0.69-0.14c0.5,0,1.08,0,1.31-0.08c0.35-0.09,1.11-0.35,1.26-0.44c-0.06,0-0.15,0.01-0.23,0.02
	c5.27-1.17,10.66-2.65,15.61-4.21c0.49-0.16,0.93-0.31,1.27-0.44c0.89-0.33,1.19-0.53,0.85-0.6c-0.23-0.05-0.76-0.04-1.46-0.01
	c-1.09,0.03-2.47,0.18-3.54,0.12c-0.15-0.01-0.25-0.03-0.31-0.06c-0.06-0.03-0.07-0.06-0.04-0.11c0.23-0.38,4.42-1.52,5.52-2.65
	c0.34-0.31,0.55-0.75,0.27-1.15c-1.11-1.19-4.91-1.2-7.09-1.01c-6.01,0.2-11.91,2.28-17.74,3.5c-1,0.1-2.26,0.49-3.19,0.45
	c-0.23-0.02-0.43,0-0.23-0.15c0.06-0.03,0.14-0.07,0.26-0.12c0.9-0.37,4.42-1.05,4.97-1.25c-2.33,0.05-6.25,1.25-9.06,1.8
	c-3.55,0.76-6.61,0.92-10.79,2.02c-3.37,0.69-7.98,3.1-11.17,2.43c-0.38-0.05-0.72-0.02-1.06,0.04c-5.14-0.28-10.52-0.54-15.87-0.89
	c-2-0.3-4.03-0.58-6.08-0.85c-0.13-0.1-0.28-0.19-0.45-0.26c-0.01,0.07,0.05,0.14,0.17,0.22c-6.56-0.87-13.3-1.61-19.75-2.09
	c-0.87-0.1-1.88-0.1-2.82,0.07c-1.63-0.01-3.09,0.94-3.05,2.17c-0.01,0.04-0.03,0.07-0.04,0.1c-0.14,1.01,0.91,1.69,1.8,2
	c1.81,1.01,4.1,1.25,6.42,1.31c6.41,1.16,12.86,1.95,19.27,2.43c-8.37,1.87-16.61,4.38-25.21,5.72c-3.86,1.01-7.69,1.22-11.36,1.83
	c0.27-0.14,0.25-0.18-0.33-0.06c-0.03,0.05-0.01,0.08,0.01,0.11c-1.31,0.23-2.6,0.51-3.87,0.9c-2.85,0.84-6.05,1.94-8.92,2.62
	c-3.36,0.83-3.81,0.32-7.27,0.87c-1.73,0.23-3.49,0.7-5.59,1.08c-5.9,1.53-11.63,1.35-17.18,3.25c-9.4,2.81-26.61,7.09-38.52,9.9
	c-3.18,0.38-6.68,1.03-9.91,1.62c-3.37,0.67-5.78,1.98-10.37,3.71c-3.94,1.33-8.4,3.19-12.41,3.88c-0.47,0.07-0.84,0.1-1.08,0.07
	c-0.22-0.03-0.37-0.06-0.41-0.26c-0.08-0.51,1.48-1.6,1.52-1.79c-0.05-0.12-0.17-0.03-0.33-0.02c-6.16,1.8-12.09,4.98-18.54,5.44
	c-5.32,0.63-11.29,3.44-16.84,4.65c-4.29,1.22-8.37,1.25-12.23,2.44c-0.99,0.14-1.65,0.51-2.43,0.46c-0.6-0.05,0.89-0.92,0.8-1.02
	l-0.01-0.01c-3.44,1.15-6.1,3.93-9.58,5.26c-4.72,1.56-9.34,1.36-13.88,3.9c-5.16,2.55-9.11,5.16-13.78,7.5
	c-3.75,1.85-6.73,3.49-10.43,6.05c-4.51,3.03-9.34,6.52-11.99,11.42c-4.02,6.75-1.1,16.52,5.97,19.38c2.07,0.39,6.47,1.15,9.11,2.39
	c0.55,0.21,0.86,0.37,1.01,0.49c0.17,0.14,0.18,0.21,0.15,0.36c-0.01,0.08,0.04,0.12,0.12,0.17c0.25,0.15,1.16,0.45,1.71,0.73
	c0.28,0.15,0.17,0.21-0.46,0.15c-1.1-0.09-2.45-0.33-3.58-0.46c-0.46-0.05-0.47-0.01-0.03,0.12c0.28,0.08,0.75,0.2,1.36,0.34
	c5.68,1.32,11.35,1.27,17.48,1.33c3.27,0.04,7.1,0.03,10.27,0.44c0.93,0.16,0.57,0.33-1.04,0.43c-0.19,0.01-0.39,0.02-0.61,0.03
	c-2.32,0.07-5.22,0.11-7.27,0.44c-0.6,0.04-1.78-0.02-3.76-0.2c-2.24-0.17-4.69-0.55-6.74,0.17c-0.15,0.07-0.25,0.16-0.31,0.25
	c-0.11,0.18-0.14,0.35,0.3,0.53c2.28,0.73,5.13,0.87,7.67,1.04c9.23,0.4,17.54,0.52,27.18,0.67c4.58,0,7.76-1.4,12.48-1.41
	c5.08-0.13,10.01,0.51,14.92,1.26c-7.52,7.21-10.85,18.71-0.77,25.7c4.05,2.75,9.01,3.69,13.79,4.29c6.6,0.75,13.58,1.2,20.39,1.49
	c1.3-0.04,3.69,0.26,4.71,0.06c0.09-0.01,0.19-0.08,0.07-0.21c-0.4-0.38-0.72-0.83,0.11-0.98c1.52-0.29,3.72-0.03,5.07-0.01
	c2-0.07,4.15-0.7,6.2-0.23c0.47,0.1,0.72,0.23,0.82,0.37c0.13,0.16,0.08,0.35,0.12,0.52c0.06,0.17,0.23,0.19,0.4,0.22
	c1.87,0.08,5.36-0.02,7.59,0.43c8.11,0.43,16.27-0.14,24.33-0.94c7.94-0.68,15.91-1.63,23.75-2.81c10.54-1.75,23.17-3.17,34.12-6.63
	c19.03-5.51,39.22-5.7,59.25-11.06c2.9-1.07,5.28-1.7,8.28-1.97c5.03-0.46,9.17-0.27,13.91-1.26c6.33-1.14,12.31-1.93,18.27-2.83
	c4.39,0.43,9.09,0.72,13.95,1.07c-4.88,1.99-9.83,3.98-14.63,6.18c-13.56,5.81-25.76,12.36-38.3,19.3
	c-4.67,2.49-8.42,4.73-12.13,6.33c-0.91,0.38-0.38-0.53-1.71-0.11c-17.44,8.89-33.65,16.3-49,23.77
	c-6.49,3.54-13.14,5.46-19.91,8.46c-16.05,6.96-37.11,18.24-54.54,25.58c-4.49,1.9-8.66,4.54-13.21,6.35
	c-1.03,1.08-2.13,1.74-3.51,2.44c-5.95,3.23-12.55,5.84-18.29,9.44c-2.32,1.83,0.8,3.24,2.93,4.15c2.69,1.13,5.48,2.3,8.2,3.33
	c29.07,11.48,61.13,8.05,91.17,3.11c15.03-2.75,29.83-4.7,44.55-8.06c4.4-1.2,7.43-2.63,11.68-3.35
	c-17.05,6.63-34,13.43-50.05,20.82c-0.95,0.43-1.8,0.81-2.42,1.06c-1.67,0.69-1.07,0.24-1.24,0.06c-0.03-0.02-0.07-0.04-0.13-0.04
	c-5.98,1.69-14.87,6.3-19.37,8.63c-1.78,0.97-3.59,2.05-5.46,2.65c-7.17,1.76-15.44,6.88-21.8,9.59c-1.81,0.48-2.97,0.93-4.9,1.94
	c-5.47,2.49-10.5,5.51-15.92,8.33c-6.39,3.05-12.56,6.18-19.01,9.48c-2.89,1.55-6.07,2.91-8.81,4.64c-2.36,1.62-1.29,2.84,1.43,4.09
	c0.74,0.31,1.5,0.59,2.24,0.89c-0.02-0.01-0.04-0.01-0.06-0.02c4.85,2.21,9.85,4.36,14.76,6.37l0.01,0
	c-2.38-1.1-4.81-2.36-7.28-3.51c4.68,1.7,9.42,3.33,14.13,4.97c4.43,1.56,9.29,2.32,13.59,3.82c0.67,0.24,1.36,0.47,2.08,0.71
	c-3.63,1.27-7.24,2.48-11.17,3.51c0.97-0.45,1.89-0.88,2.72-1.28c0.42-0.21,0.61-0.32,0.56-0.33c-1.61,0.43-3.62,1.35-5.39,2
	c-0.52,0.21-1.07,0.42-1.64,0.65c-4.91,1.37-6.82,1.99-6.18,2.41c-1.61,0.64-2.97,1.19-3.69,1.54c-1.37,0.63-0.41,0.83,1.06,0.88
	c0.46-0.35,1.6-0.89,3.16-1.61c0.3-0.14,0.63-0.28,0.95-0.43c1.72,0.27,4.79,0.53,9.04,1.03c1.22,0.26,2.26,0.16,2.96,0.57
	c0.02,0.06-0.09,0.11-0.34,0.16c-1.18,0.21-2.46,0.29-3.92,0.36c9.33,0.03,18.36,0.03,27.45,1.75c1.45,0.29,2.36,0.4,4.55,0.55
	c15.06,1,27.72,0.83,42.93,1.73c4.7,0.1,8.46,1.33,12.99,2.11c4.1,0.58,8.98,1.05,13.23,0.75c2.05-0.2,0.66-0.57,3.17-0.69
	c0.65-0.06,1.36-0.02,2.08-0.05c3.85,0.01,7.8-0.16,11.73-0.22c-8.36,1.86-16.56,4.55-24.49,7.35c-1.45,0.55-3.33,1.24-4.67,1.43
	c-0.5-0.04,1-0.86,1.49-1.1c0.63-0.37,4.3-2.12,3.63-2.07c-9.26,2.93-18.07,8.67-25.95,13.93c-4.58,3-3.79,4.18,1.58,4.4
	c12.68,0.66,25.84,0.71,38.35,1.16c0.48-0.04,0.51-0.07,0.79-0.28c0.18-0.17,1.47-0.3,2.08-0.27c3.64-0.05,9.59,0.83,15.61,1.23
	c2.21,0.16,4.58,0.27,6.55,0.72c1.15,0.33,2.92,0.63,4.49,0.67c12.24,0.62,28.03,0.38,44.33,0.62c7.68,0.68,16.41,1.55,24.38,1.61
	c2.61,0.23,9.87-0.75,4.49,0.91c-18.58,5.51-36.32,14.91-54.53,21.49c-3.17,1.1-6.67,2.54-9.87,3.17c-0.74-0.02,1.32-1.05-0.78-0.23
	c-5.03,2.09-13.58,5.44-16.97,7.17c-1.17,0.71,1.39,0.05,2.48,0.04c0.19-0.01,0.33,0,0.42,0.03c0.31,0.14-0.28,0.51-1.5,1.16
	c-1.68,0.9-4.25,2.01-5.9,2.69c-0.48,0.21-0.77,0.27-1.14,0.26c-0.21-0.05-0.27-0.13-0.54-0.19c-1.51-0.27-3.46,0.72-5.08,1.15
	c-4.72,1.51-8.89,3.91-13.18,6.24c-1.21,1.17-13.87,4.02-10.45,5.53c1.27,0.59,5.37,0.91,6.26,1.23c0.13,0.04,0.22,0.07,0.26,0.1
	c0.05,0.03,0.04,0.06-0.03,0.09c-1.51,0.21-3.83-0.06-5.32-0.03c-0.67-0.01-0.89,0.01-0.56,0.08c0.21,0.05,0.64,0.11,1.24,0.18
	c7.84,1.08,17.07,0.78,24.1,2.56c-2.37,0.13-6.19-0.76-8.76-0.55c-0.07,0.03-0.04,0.08,0.08,0.14c0.2,0.11,0.7,0.27,1.4,0.45
	c6.06,1.41,10.86,2.12,17.38,3.23c2.84,0.51,6.31,1.19,9.03,1.46c0.66-0.02,0.67-0.34,2.21-0.45c9.51-0.18,19.54,2.14,30.26,2.88
	c0.93,0.09,1.41,0.12,1.42,0.19c-0.23,0.08-0.8,0.11-1.24,0.22c-0.43,0.1-0.81,0.25-0.57,0.48c4.61,2.06,10.34,3.18,15.06,3.79
	c1.4,0.19,2.86,0.41,4.39,0.65c-14.76,3.5-28.96,6.95-42.95,13.4c-4.66,2.02-9.22,4.13-13.66,6.42c-5.59,2.72-12.41,7.12-18.81,9.43
	c-1,0.13,0.7-1.29-0.86-0.72c-0.14,0.05-0.31,0.11-0.5,0.18c-1.89,0.79-5.6,1.99-6.77,3.89c-0.47,1.78,2.34,2.77,3.73,3.48
	c2.71,1.13,5.41,2.37,7.6,3.46c3.65,1.99,7.57,3.12,11.69,3.96c0.99,0.26,1.7,0.39,2.45,0.73c0.45,0.23,0.34,0.34,0.31,0.39
	c-0.13,0.17-0.62,0.28-0.85,0.36c-0.11,0.05-0.25,0.08-0.16,0.19c0.03,0.03,0.09,0.06,0.17,0.1c3.02,0.81,11.08,2.08,15,2.35
	c1.03,0.16,2.2,0.22,3.14,0.44c0.69,0.14,0.89,0.26,0.59,0.35c-0.2,0.07-0.6,0.12-1.02,0.16c-0.96,0.11-1.82,0.17-1.08,0.28
	c4.62,0.54,12.12,0.78,16.15,0.05c1.33-0.32-0.89-0.3-1.52-0.21c-2.02,0.18-4.26,0.39-6.25-0.07c-1.09-0.39,0.13-1.05-1.97-1.49
	c-7.94-1.46-16.23-1.78-24.17-3.85c-0.96-0.18-2.2-0.6-2.98-0.86c-1.61-0.6-1.19-0.97-1.57-1.33c-0.15-0.16-0.43-0.31-1.02-0.51
	c-2.37-0.76-5.98-1.46-8.1-2.78c-0.83-0.56-0.51-0.82-0.86-1.33c-0.48-0.72-3.52-1.68-4.24-2.81c-1.37-1.85,4.46-3.5,5.67-3.92
	c6.74-1.69,12.83-5.5,19.41-8.18c4.45-1.89,8.65-2.93,12.91-5c2.67-1.23,2.75-1.88,4.77-3.16c1.31-0.76,2.9-1.38,4.43-1.78
	c5.49-1.11,11.75-1.69,16.8-3.78c2.19-0.7,3.93-1.59,6.01-2.4c5.55-1.65,11.38-3.01,17.13-4.33c1.52,0.1,3.07,0.03,4.32-0.55
	c0.4-0.2,0.7-0.42,0.92-0.65c0.08-0.02,0.17-0.04,0.25-0.06c4.33-0.92,1.77-1.79-0.39-2.3c-0.77-0.8-2.13-1.34-3.21-1.13
	c-0.63,0.19,0.97,0.36-0.36,0.93c-0.54-0.09-1.08-0.19-1.61-0.31c-4.95-1.29-11.98-1.4-17.32-2.56c-1.83-0.47,1.45-0.68,0.03-1.01
	c-1.52-0.41-3.19-0.37-5-0.63c-6.91-0.33-16.1-3.05-22.68-3.49c-4.51-0.05-9.07-0.54-13.75-1.19c-11.7-1.6-23.04-2.91-34.42-5.62
	c-3.44-1.24,1.9-2.82,4.14-4.13c0.93-0.47,1.79-0.92,2.78-1.4c0.72-0.31,15.09-7.03,9.22-2.62c-0.02,0.03-0.05,0.08-0.07,0.1
	c0,0.12,0.14,0.06,0.38,0.01c0.32-0.09,0.86-0.29,1.54-0.56c0.72-0.28,1.45-0.59,2.17-0.91c-0.12,0.1-0.21,0.18-0.23,0.21
	c0.25-0.12,0.74-0.39,1.3-0.69c2.31-1.07,4.6-2.23,6.87-3.06c2.35-0.85,4.59-1.11,6.95-2.07c8.63-3.71,19-8.02,28.66-11.97
	c2.1-1.08-0.84-1.43,0.79-2.81c1.3-1.12,3.17-1.6,4.79-1.43c0.95-0.02,2.19-0.55,2.16-0.26c0.01,0.13-0.1,0.27-0.14,0.39
	c0,0.04-0.09,0.13,0.12,0.09c1.99-0.77,4.11-1.91,6.27-2.27c0.8,0.03-1.4,1.12,0.13,0.61c0.17-0.05,0.37-0.11,0.62-0.19
	c1.65-0.56,3.77-1.15,5.5-1.72c1.99-0.54,3.73-1.23,5.38-1.98c0.35,0.02,1.03-0.05,1.29-0.15c-0.01-0.15-0.7-0.01-1.11,0.07
	c3.32-1.51,6.28-3.23,10.05-4.46c4.16-1.56,6.38-1.77,10.01-2.87c4.74-1.52,9.56-3.72,13.95-5.9c2.75-1.34,6.42-2.49,5.3-2.95
	c-0.26-0.11-0.77-0.19-1.46-0.24c-0.82-0.08-1.82-0.08-2.72-0.11c-6.63-0.11-14.54-0.39-21.69-0.46c-2.14-0.08-3.93,0.07-5.67,0.46
	c-3.35,0.56-8.21,0.28-11.88,0.23c-19.9-0.58-40.07-2.31-59.96-2.93c-9.72-0.26-18.39-0.28-26.89-0.32c-4.53-0.13-8.41-1-11.95-1.15
	c-3.09-0.12-7.71,0.07-10.38-0.62c-0.05-0.09,0.07-0.1,0.18-0.14c0.16-0.04,0.22-0.05,0.53-0.11c0.38-0.1,0.66-0.07,0.92-0.19
	c0.22-0.15,0.07-0.22,0.09-0.43c0.11-2.43,3.23-3.32,6.33-4.74c1.78-0.76,6.49-2.22,5.93-2.48c-1.85,0.24-2.04,0.24,0.32-0.71
	c1.84-0.71,4.94-1.83,6.76-2.24c3.14-0.6,5.47-0.02,8.9-0.85c16.49-3.56,32.57-7.62,49.15-7.29c1.15,0.06,3.05-0.03,3.77-0.04
	c0.65-0.04,0.42-0.11-0.63-0.21c-0.44-0.07-5.88-0.41-2.46-0.7c4.03-0.29,8.9,0.07,12.7,0.29c2.73,0.2,4.96,0.45,6.05-0.94
	c1.42-1.72,0.87-4.35-1.1-5.73c-2.73-1.71-6.38-0.9-9.45-0.85c-5.64,0.39-8.65,1.25-14.28,1.64c-1.96,0.16-4.25,0.22-6.05,0.56
	c-1.41,0.26-2.03,0.71-3.63,1.11c-0.44,0.01-0.89,0.02-1.33,0.03c-1.03,0.03-2.04,0.28-3.03,0.57c-0.73,0.06-1.48,0.1-2.25,0.1
	c-4.66,0.33-13.63-1.22-6.82-1.89c0.01,0.01,0.01,0.01,0.04,0.02l0.09,0.01c0.71-0.03,2.37-0.01,2.99-0.22
	c0.17-0.01,0.33-0.01,0.51-0.02c2.38-0.11,3.69-0.18,3.17-0.29c-4.04-0.29-8.49-0.16-12.6-0.47c-2.71-0.12-5.45-0.54-7.92-0.4
	c-0.73,0.09,0.83,0.42,1.49,0.5c0.05,0.01,0.13,0.02,0.18,0.04c-1.04,0.09-2.96-0.16-4.25-0.14c-7.66-0.28-14-0.3-21.77-0.65
	c-3.31-0.32-6.08,0.05-9.27,0.17c-2.26-0.04-5.38-0.2-7.77-0.24c-4.76,0.06-9.65,0.81-14.29-0.06c-3.11-0.74-6.43-1.28-9.81-1.61
	c5.42,0.02,10.93-0.49,16.22-0.32c8.88,0.28,18.34-1.32,27.51-2.71c5.4-0.9,10.64-0.96,15.84-2.02
	c22.59-5.3,44.11-14.72,64.03-26.42c2.41-1.37,5.46-3.06,8.07-4.56c3.48-1.99,2.72-2.26-0.6-2.05c-7.15,0.4-14.23,1.18-20.85,1.34
	c-2.49-0.14,3.77-0.86,4.38-0.9c5.24-0.48,11.1-0.76,17.41-1.14c1.44-0.05,3.09-0.21,4.31-0.19c0.86,0.01,1.3,0.1,1.26,0.33
	c-0.3,0.37-0.74,0.72-1.26,1.06c0.82-0.49,1.62-0.98,2.38-1.44c2.59-1.62,0.96-1.42-1.52-1.24c-20.78,1.84-41.09,4.25-61.92,7.13
	c-1.24,0.13-2.16,0.27-3.29,0.28c-1.48-0.03,2.23-1.05,1.08-0.95c-0.11,0.01-0.26,0.02-0.45,0.05c-19.68,3.31-39.41,6.93-58.48,12
	c-1.68,0.45-3.09,0.85-4.57,1.12c-1.13,0.12-4.88,0.91-4.88,1.27c0.03,0.01,0.07,0.03,0.13,0.04c0.79,0.06,1.48,0.25,0.25,0.9
	c-3.72,1.82-8.61,3.47-12.64,4.89c-2.68,0.87-5.41,0.5-8.35,1.17c-0.92,0.16-1.83,0.31-2.74,0.44c-2.43,0.31-3.18-0.05-4.88,0.11
	c-1.15,0.17-2.82,0.75-4.19,1.11c-0.63,0.12-1.13,0.18-1.59,0.22c-5.83-1.31-11.67-3.16-17.58-4.69
	c-5.45-1.53-10.89-3.19-15.97-5.08c-4.3-1.58-5.81-3.08-0.71-5.15c8.69-3.75,16.75-8.29,25.63-12.49c5.09-2.71,10.23-4.25,15.13-7
	c5.16-3.04,10.51-7,16.56-8.55c0.68-0.04-0.53,0.79-0.79,1.03c-1.7,1.27-0.41,1,0.66,0.72c5.79-1.56,14.92-6.84,22.95-9.84
	c10.29-3.02,17.5-7.28,28.71-12.26c13.44-5.44,25.62-11.79,40.02-17.54c0.25-0.01,0.5-0.03,0.74-0.04c2.83-0.16,5.65,0.06,7.03-1.16
	c0.56-0.48,0.91-1.14,1.09-1.88c1.03-0.61,2.03-1.27,2.93-1.91c1.97-1.44-0.19-1.42-1.43-1.47c-0.6-0.01-1.22-0.02-1.83-0.03
	c-0.44-1.02-1.19-1.83-2.16-2.07c-1.67-0.36-3.17,0.38-4.79,0.94c-0.63,0.24-1.25,0.48-1.88,0.72c-1.9-0.18-3.78-0.44-5.57-0.84
	c-0.19-0.1-0.13-0.18,0.03-0.24c1.13-0.38,4.62-0.4,5.7-0.6c0.12-0.02,0.21-0.04,0.28-0.06c0.09-0.03,0.12-0.05,0.1-0.07
	c-0.72-0.21-1.69-0.14-3.29-0.17c-2.23,0.02-4.61,0.21-6.86,0.45c-6.3,0.77-12.18,0.69-18.33,1.97c-8.83,2.01-19.01,4.18-27.41,6.56
	c-2.41,0.78-4.84,1.43-7.62,1.81c-5.86,1.16-12.87,1.23-18.87,2.22c-6.79,1.55-15.21,3.39-22.47,4.42c-2.83,0.4-5.16,0.74-6.76,0.78
	c-0.21-0.01-0.16-0.05,0.01-0.11c5.31-1.22,19.94-3.71,24.99-5.19c-3.86,0.3-9.44,1.53-13.79,2.09c-2.68,0.41-5.66,0.89-6.87,1.12
	c-0.7,0.13-0.86,0.17-0.46,0.14c0.8-0.06,3.47-0.37,3.07-0.15c-7.56,2.02-16.97,2.85-26.27,2.39c-4.84-0.35-6.79-1.55-11.23-2.46
	c-3.01-0.89-22.89-3.81-14.12-7.35c21.5-9.97,42.28-19.28,64.13-29.35c2.18-1.07,2.72-1.44,3.84-2.42
	c2.39-2.11,7.73-5.51,10.93-7.34c6.22-3.23,15.14-6.29,22.15-9.04c0.72-0.23,1.11-0.35,1.32-0.32c0.25,0.1-0.95,0.96-1.1,1.15
	c-0.17,0.18-0.31,0.31-0.07,0.3c3.33-1.18,8.38-2.54,11.14-3.78c2.29-1.37,7.58-4.34,10.8-5.92c-0.06-0.07-1.4,0.43-3.03,1
	c-0.85,0.3-1.72,0.6-2.3,0.78c-0.58,0.16-0.9,0.25-0.8,0.09c0.1-0.09,0.71-0.51,1-0.65c9.59-5.24,18.65-7.24,28.36-12.43
	c0.24-0.11,0.41-0.18,0.52-0.22c0.18-0.06,0.15-0.03,0.18-0.03c-0.04,0.14-0.19,0.19-0.33,0.33c-0.23,0.2-0.45,0.38-0.2,0.31
	c0.24-0.07,1.06-0.47,2.19-1.04c11.54-5.71,27.83-13.9,38.25-20.08c1.7-0.84,2.35-0.91,3.67-1.29c4.17-1.41,9.71-4.69,13.97-6.71
	c5.78-2.92,11.57-5.88,17.35-8.87c0.39,0.03,0.84,0.07,1.33,0.12c5.43,0.43,10.74,1.87,15.84,3.24c4.18,1,8.95,1,13.22,1.46
	c3.01,0.31,5.86,0.98,8.82,1.68c2.51,0.62,4.85,0.99,7.12,1.25c1.66,0.67,3.34,1.31,5,1.96c6.46,2.53,12.9,4.9,19.38,7.14
	c13.3,3.72,26.83,5.27,40.43,7.3c2.04,2.26,2.46,4.74-1.13,7.08c-5.48,2.71-12,2.96-17.93,4.13c-9.65,1.82-19.8,4.65-29.73,5.69
	c-4.94,0.46-9.89,2.96-15.26,3.55c-1.15,0.1-2.99,0.38-3.46-0.04c0.3-0.64,1.64-1.13-0.33-1.25c-5.54-0.16-11.88,1.3-17.13,1.6
	c-4.02,0.37-5.78-0.16-9.36,0.1c-0.5,0.03-0.99,0.09-1.49,0.13c-30.61-1.86-61.75-2.12-91.75-4.23c-2.63-0.22-5.6-0.53-6.68,2.39
	c-0.82,2.08-1.19,5.54-0.51,7.53c1.98,4.84,10.27,1.54,14.28,1.85c1.86-0.05,3.83,0.05,5.69,0.23c1.39,0.2,2.34,0.18,3.1,0.76
	c0.32,0.43-0.34,0.79,1.46,0.93c13.69,0.5,27.57,0.76,41.42,0.74c12.8-0.04,25.48-0.62,37.96-1.89c0.85,0.11,1.7,0.23,2.54,0.35
	c12.17,2.48,23.78,3.13,35.71,6.77c6.36,1.83,12.63,4.09,18.73,6.68c-0.54,0.17-1.07,0.32-1.61,0.49
	c-10.55,2.89-19.77,11.23-12.03,22.18c0.93,1.6,3.69,4.1,3.84,5.75c0.06,0.17,0.13,0.33,0.29,0.51c2.42,1.88,5.76,3.13,8.87,4.25
	c-1.3,0.33-2.57,0.68-3.81,1.1c-1.97,0.67-2.46,0.53-3.58,0.68c-9.45,2.7-19.11,4.92-28.64,7.39c-2.72,0.75-5.94,1.38-7.86,1.22
	c-12.03,0.98-24.48,3.46-36.83,4.29c-12.51,1.29-24.9,0.19-37.36,0.41c-2.37,0.09-4.6,0.26-6.32,0.12c-1.6-0.15-1.4-0.59-4.61-0.74
	c-9.72-0.35-19.06,0.25-27.45,0.68c-0.99-0.1-1.98-0.16-2.96-0.12c-1.48,0.21-2.45,1.39-2.85,2.79c-0.24,0.49-0.32,1.02-0.2,1.56
	c0.02,1.35,0.54,2.66,1.64,3.33c1.97,1.01,4.35,1.02,6.7,0.94c25.86,8.14,53.24,8.65,79.38,12.5c20.36,4.79,42.18,8.47,62.48,13.3
	c2.84,0.68,4.43,0.49,7.48,0.69c3.32,0.22,7.94,1.1,10.74,1.81c3.23,0.77,4.98,2.52,8.25,3.44c3.77,1.54,9.52,2.69,11.65,5.93
	c0.53,1.25,0.36,2.32-0.2,3.24c0.05-0.26,0.01-0.75-0.05-1c-0.05-0.23-0.04,0.26-0.1,0.58c0,0.54-0.77,1.32-1.02,1.56
	c0.07-0.01,0.41-0.25,0.69-0.5c-1.83,2.07-5.75,3.28-7.97,4.1c-8.33,2.95-16.96,6.31-25.25,9.28c-12.52,4.74-25.34,7.39-37.59,12.58
	c-1.04,0.62-3.84,1.26-3.14,2.48c0.29,0.3,0.73,0.51,1.04,0.77c0.36,0.23-0.09,0.46,0.52,0.73c0.56,0.13,2.59,0.58,3.62,0.59
	c15.28,1.48,30.29,3.34,44.91,8.09c3.7,1.04,5.56,2.69,9.47,3.33c8.63,1.18,12.91,2.63,19.22,8.97c9.17,6.95,12.49,18.05,4.25,27.21
	c-2.42,2.81-2.71,2.4-5.82,4.21c-4.43,2.74-9.37,4.76-14.09,6.74c-5.19,2.65-10.64,4.02-16.18,5.68
	c-5.48,1.94-12.04,3.28-17.29,4.52c-4.95,1.76-11.28,3.19-16.81,3.1c-2.15,0.23-6.54,1.18-9.34,1.21c-3.03-0.49-6.01-0.23-9.07,0.26
	c-9.59-1.71-19.36-2.59-29.14-3.56c-2.93-0.28-5.42-0.87-7.75-1.5c-3.37-0.73-7.21-0.74-10.78-0.91c-0.04-0.02-0.08-0.03-0.12-0.04
	c-1.09-0.62-2.92-0.43-4.33,0.39c-0.39,0.16-0.76,0.37-1.09,0.61c0.08,0,0.16,0,0.25,0.01c-0.11,0.1-0.21,0.2-0.3,0.3
	c-0.12,0-0.24,0.01-0.36,0.02c-1.15,1.01-1.79,2.51-1.38,4.29c0.55,2.85,3.56,3.74,6.16,4.1c5.68,1.03,11.35,1.96,17.1,2.7
	c6.95,0.81,13.73,1.67,20.52,1.79c4.55-0.17,9.26-0.52,13.75-0.71c0.05-0.01,0.1-0.02,0.15-0.04c4.39,1.51,8.75,3.5,12.99,5.05
	c11.73,3.84,24.52,5.91,34.96,12.96c1.42,0.93,2.79,2.14,3.82,3.37c0.82,0.97,1,1.43,0.97,1.66c-0.07,0.34-0.28,0.32-0.23,1.16
	c0.38,4.38-3.09,6.99-6.73,9.24c-1.87,1.23-4.02,2.56-6.11,3.06c-12.62,3.2-25.64,9.07-37.64,12.43c-2.85,0.84-5.79,1.61-8.75,2.26
	c-0.3-0.05-0.6-0.11-0.89-0.19c-6.49-2.18-13.71-1.33-20.4,0.13c-2.68,0.64-3.33,3.13-3.45,4.98c0.24,1.22,0.64,2.43,1.32,2.98
	c1.54,1.45,3.92,0.83,5.89,0.7c4.96-0.48,10.29-1.01,15.41-1.89c8.26,0.73,16.51,2.24,24.58,4.19c-12.29,2.97-24.71,5.24-37.03,6.33
	c-2.15-0.1-4.26-0.19-6.15-0.34c-2.74-0.49-4.49,1.07-5.07,2.97c-0.22,0.41-0.32,0.89-0.23,1.46c0.01,0.04,0.03,0.07,0.03,0.11
	c0.08,1.96,1.43,3.78,4.25,3.69c1.67-0.08,3.44-0.37,5.16-0.63c2.93,0.2,5.87,0.45,9.04,0.88c4.44,0.29,9.03,0.38,13.38,1.55
	c8.44,2.12,16.04,6.26,23.52,10.78c2.8,2.11,7.12,3.52,8.74,6.35c1.82,3.37,0.37,7.9-3,9.62c-2.63,1.48-5.7,1.98-8.63,2.5
	c-4.51,0.65-10.06,1.61-14.82,1.42c-3.3-0.18-3.88-1.26-7.61-1.47c-6.87-0.35-15.3,0.93-21.81,2.49c-0.21,0.1-0.35,0.11-0.41,0.26
	c-0.1,0.33,2.68,0.5,3.21,0.79c0.13,0.06,0.2,0.13,0.09,0.25c-1.04,0.69-2.73,0.91-3.72,1.7c-0.45,0.33-0.6,0.7-0.46,1.07
	c0.24,0.63,1.19,1.2,2.78,1.58c0.98,0.24,2.12,0.41,3.32,0.51c2.86,0.22,5.77-0.02,8.62-0.38c2.46-0.47,6.9-0.63,7.21-0.43
	c-0.32,0.19-0.85,0.26-1.29,0.34c-0.37,0.07-0.76,0.13-1.11,0.17c-0.44,0.06-0.79,0.11-0.88,0.14c5.44-0.46,11.69-0.33,17.34-1.19
	c2.73-0.86,7.05-0.35,8.76-0.5c3.93-1.84,9.04-2.66,13.26-4.15c1.01-0.31,0.92,0.12,2.56-1.72c6.76-6.94,3.6-16.09-3.22-21.57
	c-5.45-4.26-10.42-8.11-17.35-10.04c-2.25-0.53-5.24-1.34-7.19-2.18c-2.22-1.13-5.01-2.01-7.92-2.76c3.01-1.06,6.06-1.98,8.84-2.02
	c0.12,0.02,0.21,0.06,0.27,0.11c0.63,0.46-1.07,1.73-0.16,1.56c1.33-0.22,2.48-0.74,4.01-1.27c2.28-0.91,4.63-1.71,6.88-2.25
	c2.04-0.61,4.73-0.08,6.23-1.82c0.99-1.32,1.03-4.2,0.15-6.21c-1.14-3.21-5.28-3.14-8.38-4.06c-2.44-0.63-5.12-1.5-7.61-2.32
	c0.12-0.03,0.26-0.07,0.43-0.13c6.71-2.03,13.42-5.01,19.55-7.1c1.66-0.5,0.65,0.18-0.17,0.59c-3.69,2.14-6.92,3.54-10.77,4.64
	c-4.06,1.53-1.98,2.34,1.27,1.41c5.26-1.28,10.37-3.53,14.89-5.52c3.68-1.65,7.64-3.26,10.87-5.73c3.84-3.42,8.79-5.81,12.21-9.63
	c5.98-7.26,1.05-17.71-6.77-21.39c-4.06-2.22-9.31-3.12-13.05-5.75c-1.71-1.32-1.93-2.09-4.77-2.89c-4.61-1.27-9.75-1.42-14.26-3.39
	c-0.28-0.3,2.64,0.36,3.5,0.43c0.36,0.04,0.49,0.02,0.39-0.05c-0.33-0.22-0.63-0.24-1.13-0.42c-0.82-0.18-1.64-0.35-2.46-0.53
	c0.81-0.13,1.61-0.27,2.39-0.4c11.95-1.96,23.86-4.8,34.54-6.96c2.7-0.33,3.69-0.54,7.51-2.03c3.45-1.36,6.56-3.19,10.06-4.67
	c3.41-1.38,6.21-2.34,9.55-4.39c12.66-6.92,21.04-21.68,13.23-35.32c-4.1-7.37-11.32-12.75-18.39-17
	c-4.98-2.74-12.64-5.27-18.84-7.59c-4.24-1.98-18.04-2.89-18.21-7.22c0.66-0.95,1.98-1.12,3.11-1.46c1.74-0.37,4.97-1.24,6.11-1.95
	c0.26-0.29,0.39-0.48,0.75-0.75c5.18-2.89,12.68-3.97,19.52-5.84c-0.12,4.42,1.94,8.87,5.55,11.47c6.53,4.88,15.39,4.25,22.79,6.97
	c1.16,0.81,1.34,0.95,3.06,1.26c10.85,1.98,21.44,3.88,31.8,5.07c0.89,0.12,2.75,0.59,3.3,0.31c0.72-0.26,0.87-0.67,2.4-0.96
	c2.73-0.55,5.77-0.5,8.4,0.26c2.96,1.01,5.35,2.43,8.25,3.12c3.11,0.78,7.34,0.41,10.31,0.62c2.1,0.21,3.07,0.63,5.65,0.57
	c4.61-0.29,9.32,0.84,13.92,1.14c3.48,0.15,6.83,0.14,10.23,0.17c-0.62,0.02-1.23,0.03-1.8,0.03c-4.17-0.09-9.66,0.92-13.2,0.89
	c-2.44-0.08-4.59-0.47-7.07-0.18c-6.2,0.98-12.31,2.45-18.21,2.77c-2.39,0.35-4.21,1.44-6.51,1.44c-7.81,0.7-15.49,3.48-23.24,4.52
	c-1.33,0.1-0.73-0.38-0.33-0.79c1.08-1.03-3.13,0.45-3.64,0.65c-18.27,7.37-8.86,23.54,5.26,28.98c5.25,2.64,8.64,6.13,14.43,8.54
	c4.16,1.67,8.05,2.81,12.57,3.74c1.29,0.48,5.06,0.68,4.29,1.64c-2.48,1.21-6.04,2.29-8.73,3.75c-2.75,1.37-5.51,2.48-8.49,3.41
	c-8.28,2.71-15.42,6.79-23.21,10.63c-3.75,1.81-8.03,3.96-11.99,4.75c-1.9,0.33-4.55,2.01-6.42,3.01c-0.19,0.11-0.37,0.22-0.53,0.32
	c-1.83,1.12-1.51,1.46-1.55,2.04c-1.1,2.45-4.05,2.48-6.48,3.17c-3.65,1.21-6.27,4.25-9.73,5.9c-2.36,1.17-5.39,3.34-7.69,3.76
	c-1.19-0.25-2.69,1.78-3.51,2.7c-1.67,2.11-2.31,5.19-2.6,5.55c-0.04,0.06-0.06,0.08-0.08,0.05c-0.06-0.68,0.09-2.06-0.23-2.7
	c-0.11-0.28-0.25-0.23-0.4,0.14c-2.14,5.47,3.63,12.37,8.95,13.38c5.36,1.22,10.74,4,15.81,6.13c0.2,0.1,0.25,0.49,0.25,0.61
	c0.04,0.28,0.16,0.69,0.64,1.23c0.33,0.36,0.83,0.78,1.29,1.1c3.64,2.58,9.38,4.84,13.51,6.07c0.57,0.2,1.38,0.45,1.3,1.08
	c-0.04,0.45-0.52,1.1-1.42,1.95c-0.61,0.56-1.49,1.22-2.24,1.75c-3.08,2.18-6.13,4.35-9.28,6.86c-5.18,4.03-9.51,7.74-14.41,11.32
	c-1.37,1.02-3.1,2.11-4.33,2.67c-3.38,1.4-5.31,0.78-8.58,2.41c-4.33,1.94-8.53,3.19-12.56,5.13c-0.2,0.31,0.28,0.34,0.5,0.41
	c1.07,0.24,4.54,0.24,5.36,0.4c0.14,0.04,0.33,0.03,0.34,0.15c-0.03,0.24-3.63,0.48-4.06,0.61c-0.12,0.03-0.09,0.06,0.04,0.09
	c2.38,0.43,14.03,0.11,16.53,0.79c0.03,0.03,0.01,0.06-0.06,0.08c-0.22,0.07-0.54,0.12-0.82,0.16c-0.59,0.1-1.6,0.16-2.07,0.24
	c-0.4,0.05-0.3,0.1,0.29,0.16c0.32,0.03,0.78,0.07,1.35,0.11c3.8,0.13,8.37,0.61,12.07,0.4c2.01-0.16,2.93-0.43,1.72-0.4
	c-2.05,0.09-4.96,0.22-6.85-0.33c-0.35-0.15-0.3-0.17-0.39-0.26c-0.04-0.06-0.07-0.12-0.08-0.18c0.03-0.69,0.13-0.87-1.42-1.17
	c-5.51-0.98-11.76-0.49-17.2-0.94c-0.61-0.05-0.97-0.04-1.34-0.24c-0.07-0.21,2.75-0.45,3.26-0.61c0.21-0.05,0.26-0.2,0.22-0.4
	c-0.04-0.35,0.07-0.56,0.44-0.79c2.75-1.15,6.74-1.42,9.86-3.03c3.15-1.3,6.22-1.85,9.17-3.52c3.81-2.34,7.58-4.26,10.78-6.7
	c1.68-1.46,2.72-3.65,4.92-4.72c2.39-1.43,5.86-2.78,7.72-4.45c1.23-1.15,2.15-2.2,3.35-3.35c3.46-3.22,6.8-6,0.88-8.85
	c-3.45-1.02-7.71-3.03-11.01-4.41c-1.31-0.5-1.39-1.09-2.24-1.86c-6.22-3.09-12.82-6.31-19.18-8.87
	c-11.86-5.93-7.74-11.65,2.29-15.69c4.4-1.74,8.69-6.32,13.69-7.45c0.18-0.01,0.33,0.01,0.47,0.03c0.2,0.02,0.22,0.06,0.61,0.08
	c0.16,0,0.31-0.03,0.48-0.09c1.12-0.58,4.15-2.26,5.94-3.02c4.85-1.76,8.84-4.4,13.75-6.73c1.37-0.69,3.02-1.4,3.99-2.45
	c0.69-0.81,0.94-1.91,1.28-2.43c0.32-0.5,1.08-0.74,1.7-0.85c0.69-0.27,1.06,0.43,1.57,0.28c0.66-0.17,1.35-0.32,2.03-0.49
	c1.29-0.46,2.54-0.15,4.03-0.68c4.23-1.48,8.36-3.74,12.8-4.91c5.84-2.47,10.55-4.15,16.7-6.69
	C546.12,436.53,549.32,435.31,550.6,433.92z M222.13,353.2c0.04-0.03,0.05-0.05,0.04-0.07c-0.12-0.08-0.54-0.06-0.61-0.19
	c0.43-0.43,1.65-0.73,2.61-1.04c1.7-0.37,5.81-1.81,7.14-1.72c0.08,0.01,0.12,0.02,0.17,0.03c0.14,0.02,0.45-0.05,1.91-0.4
	c6.84-1.71,14.03-2.37,20.88-3.66c6.97-1.39,14.12-0.94,21.1-2.38c5.53-0.9,11.67-0.74,17.15-2.36c1.28-0.47,2.58-1.14,3.85-1.56
	c1.62-0.45-1.3-0.04-4.02,0.4c-2.93,0.48-11.68,1.97-12.21,1.97c0.04-0.07,0.23-0.12,0.47-0.19c0.27-0.08,0.64-0.18,1.09-0.29
	c1.72-0.41,5.5-1.27,6.76-1.78c-1.37,0.04-11.48,1.97-12.45,2.01c-0.75,0.06-0.14-0.38,0.23-0.54c1.86-0.79,3.86-0.96,6.34-1.3
	c5.48-0.71,11.01-2,16.57-2.55c3.93-0.36,7.36,1.14,11.21,1.43c-0.42,0.2-0.85,0.4-1.27,0.59c-1.1,0.51-2.23,1-3.27,1.5
	c-1.44,0.64,1.44-0.28,0.04,0.57c-3.25,1.68-7.12,3.13-10.62,4.39c-4.15,1.49-8.26,1.87-12.84,3.06
	c-6.19,1.54-12.44,4.19-18.56,5.35c-3.21,0.58-6.55,0.78-9.79,1.24c-9.5,1.19-18.45,3.94-27.91,4.39c-0.81,0.12-4.78,0.01-2.79-0.84
	c4.12-1.37,1.54-0.98-1.05-0.94c-5.56,0.3-11.38,0.31-17.25,0.17C210.16,356.12,218.74,354.79,222.13,353.2z M236.21,154.76
	c-3.07-0.37,3.21-0.76,3.86-0.78c5.5-0.42,10.22-0.33,15.16-0.97c0.16-0.05,0.21-0.11,0.17-0.18c-0.65-0.47-1.78-0.96-2.44-1.38
	c-0.75-0.35-1.03-0.31-2.15-0.22c-1.22,0.13-3.46,0.48-5.61,0.78c-7.91,1.11-16.11,2.13-23.6,2.4c-5.94-0.11-11.72,0.07-17.73,0.17
	c-4.61-0.13-10.32-0.26-15.85-0.07c-2.47-0.01-6.62,0.36-8.44,1.23c-0.17,0.16-0.17,0.23,0,0.36c0.14,0.07,0.18,0.1,0.56,0.18
	c5.29,0.28,13.72-0.46,18.59-0.36c0.12,0.01,0.22,0.02,0.29,0.03c0.08,0.01,0.12,0.03,0.12,0.05c-1.57,0.46-3.62,0.41-5.44,0.58
	c-6.09,0.05-12.32,1.58-18.21,1.55c-11.27-0.47-21.09-2.68-31.88-2.15c-9.4,0.29-19,0.37-27.76,0.66c3.2-1.72,6.35-3.55,9.52-5.18
	c4.01-2.03,7.13-5.1,10.72-6.86c10.79-4.23,22.64-7.69,34.9-11.36c9.51-2.66,19.73-5.22,29.48-6.86c5.31-0.92,9.85-1.03,15.18-1.96
	c2.97-0.53,5.97-1.19,8.95-1.75c5.33-1.2,10.36-0.87,15.81-1.39c11.67-1.26,23.39-2.42,35.28-3.1c3.54-0.12,2.23,0.61,6.27,0.08
	c5.44-0.64,10.72-2.39,16.19-2.71c4.82-0.15,9.68,1.41,14.58,1.79c10.8,0.79,21.66,2.44,32.34,4.63c5.6,1.16,11.22,2.39,16.69,3.77
	c-0.58,0.17-1.18,0.34-1.82,0.48c-4.56,1.15-8.32,2.24-12.38,2.9c-0.34-0.05,0.46-0.4-0.19-0.21c-0.46,0.16-1.14,0.35-1.62,0.58
	c-3.37,1.62-5.88,2.73-8.92,4.81c-2.73,1.65-6.17,2.77-9.62,3.7c-1.37,0.27-3,0.99-3.54,0.73c1.02-0.67,3.61-2.07,4.1-2.69
	c0.27-0.24,0.05-0.26-0.25-0.19c-0.71,0.15-2.84,0.71-4.77,1.11c-5.17,0.77-9.31,3.62-14.13,5.45c-2.08,0.91-5.8,1.02-7.31,1.72
	c-3.82,3.17-10.58,4.14-15.07,6.38c-0.41,0.3,1.43,0.02-0.57,0.9c-0.83,0.07-1.66,0.17-2.51,0.29c0.36-0.1,0.71-0.19,0.98-0.28
	l0.04-0.01c0.02-0.01-0.58,0.15-1.25,0.32c-0.72,0.11-1.45,0.23-2.19,0.38c-3.69,0.78-7.32,0.47-10.15,0.37
	C259.16,152.57,247.67,155.24,236.21,154.76z M245.76,160.33c0-0.06-15.33,1.35-10.06-0.2c1.23-0.26,1.57-0.05,2.86,0.05
	c2.29,0.14,4.81,0.02,7.19,0.14L245.76,160.33z M220.9,161.67c-1.49,0.13-3.55,0.22-5.19,0.3c1.35-0.07,3.35-0.18,5.14-0.3
	L220.9,161.67z M198.33,155.06c-0.85,0.06-1.95,0.11-2.89,0.17c-1.2,0.05-2.77,0.18-4.09,0.24c-0.27-0.01,0.47-0.35,1.08-0.5
	l0.19-0.04c1.74-0.21,4.4-0.36,6.01,0.02C198.72,155.04,198.45,155.04,198.33,155.06z M383.75,134.38c5.01,2.48-3.92,4.62-6.09,5.45
	c-5.68,1.93-12.53,2.65-18.18,3.36c-6.22,1.34-13.53,3.46-20.08,3.25c-4.21-0.05-10.65,1.74-14.91,1.91
	c-0.9,0.07-1.48-0.01-2.22-0.28c-4.54-0.03-8.93,1.24-13.36,2c-2.3,0.41-5.01,0.73-7.81,0.93c4.58-1.96,10.06-2,14.85-2.44
	c2.53-0.54,4.62-1.06,7.18-1.71c4.14-1.38,8-3.74,12.22-4.5c1.06-0.16,1.37-0.1,3.09-0.81c4.38-1.93,10.69-4.23,15.62-5.18
	c6.46-1.86,12.5-4.2,18.64-6.51C376.53,131.3,380.44,132.82,383.75,134.38z M320.04,56.73c-0.25-0.03-0.5-0.06-0.75-0.09
	C319.59,56.65,319.83,56.68,320.04,56.73z M83.63,156.63c-7.3-0.24-14.54,0.47-21.45,0.25c-8.79-2.17-18.27-2.43-27.41-2.88
	c-7.67-0.31-16.23-0.08-23.2-4.07c-6.97-3.94-6.31-11.7-0.42-16.47c4.87-4.21,10.84-7.12,16.61-9.82c6.18-3.37,12.9-5.95,19.6-8.46
	c38-13.37,78.06-22.19,116.93-30.36c3.59-0.85,6.24-1.8,9.33-2.81c4.18-1.25,8.32-1.58,12.61-2.88c4.6-1.44,9.14-3.07,13.72-4.02
	c12.99-2.94,24.79-3.36,40.4-7.18c4.33-0.79,6.16-2.55,10.72-3.48c9.99-2.35,20.06-3.84,30.03-5.75c2.21-0.45,4.5-1.06,6.82-1.68
	c3.37,0.2,6.71,0.46,10.01,0.87c1.01,0.21,1.29,0.16,1.81,0.43c0.25,0.17,0.41,0.3,0.73,0.35c1.84,0.21,5.6,0.22,8.83,0.13
	c4.57,0.46,9.16,0.87,13.76,1.16c4.47,0.22,9.15,1.44,13.33,2.23c3.95,0.66,9.35,0.83,13.12,2.29c0.07,0.07-0.07,0.11-0.33,0.12
	c-0.34,0.02-0.87-0.01-1.17-0.01c-0.13,0.01-0.17-0.01-0.24,0.02c0.23,0.11,0.54,0.15,1.28,0.32c5.53,1.3,11.81,1.76,17.16,3.01
	c2.35,0.5,5.6,1.59,7.76,1.82c2.59,0.39-0.9-0.75,0.8-0.6c1.51,0.1,4.31,0.72,6.2,1.21c2.85,0.79,4.75,2.64,8.08,3.21
	c13.28,3.05,27.2,4.01,39.96,8.79c2.27,0.7-0.91-0.68-1.31-1.03c-1.13-0.86,1.99,0.27,2.58,0.41c3.72,1.26,7.46,2.94,10.93,4.55
	c3.85,1.71,6.14,4.61,2.85,8.3c-3.69,4.59-7.32,9.62-13.35,10.93c-3.01,0.39,0.97-2.14,1.77-2.71c1.29-0.85,2-1.29,1.61-1.18
	c-4.11,2-9.13,4.1-13.38,5.66c-1.27,0.57,1.32,0.08-0.92,0.83c-7.86,3.03-16.17,5.08-23.95,8.28c-1.28,0.52-3.87,1.45-5.64,2.03
	c-4.35,1.42-7.09,3.61-11.45,4.28c-0.09,0.01-0.18,0.03-0.26,0.04c-17.86-7.29-37.23-10.59-56.3-12.75
	c-11.28-1.02-22.09-2.57-33.2-1.65c-6.15,0.31-11.9,0.2-17.97,0.76c-4.9,0.52-9.8,1.55-14.72,1.67
	c-10.56,0.12-20.25,0.48-30.96,2.03c-3.18,0.47-6.2,1.18-9.25,2.07c-6.52,1.83-12.95,2.32-19.54,3.91
	c-3.14,0.46-6.78,0.72-9.97,1.27c-1.54,0.29-1.49,0.54-1.33,0.72c0.18,0.17,0.5,0.31-0.71,0.7c-12.14,3.46-24.34,3.89-35.96,8.77
	c-4.91,1.74-10.12,4.37-14.87,6.14c-0.48,0.07,2.55-1.54,2.59-1.61c-0.74,0.27-1.7,0.66-2.51,0.97c-5.21,1.34-9.45,4.34-14.18,7.12
	c-7.92,3.96-15.63,8.69-22.47,14.11c-0.38,0.28-0.75,0.54-1.12,0.79c-1.3-0.01-2.58-0.12-3.73-0.48c-0.49-0.35,2.25-0.58,2.4-0.6
	C91.33,156.58,87.28,156.69,83.63,156.63z M261.21,171.41c-3.2,0.47-5.03,0.18-8.98,0.48c-9.52,0.9-19.89,2.43-29.15,3.79
	c-23.03,3.88-42.61,8.3-65.72,10.28c-10.91,0.36-19.1-0.15-32.25-0.52c-8.69-0.48-17.4-0.85-25.93-2.41
	c-12.68-2.71-5.16-11.85,1.57-17.66c3.06-0.03,6.34-0.31,9.02-0.78c3.82-0.73,7.62-1.15,11.6-1.13c1.98,0.08,3.07-0.12,4.13,1.11
	c1.97,0.97,4.91,0.25,7.13,0.23c5.12-0.58,10.39-1.4,15.65-0.84c0.08,0.07-0.11,0.1-0.26,0.13c-0.16,0.03-0.38,0.06-0.65,0.09
	c-0.54,0.06-1.28,0.12-2.01,0.18c-1.57,0.09-3.35,0.25-2.89,0.37c4.31,0.56,8.55-0.57,12.89-0.53c3.97,0.06,7.9,0.72,11.86,0.58
	c14.87-0.53,30.89-1.7,46.85-2.61c3.48-0.21,4.8,0.14,6.79,0.39c13.94-0.28,28.61-1.12,43.08-1.96c6.4,1.01,12.73,1.74,19.13,2.58
	c2.47,0.58,4.95,1.03,7.44,1.41c-0.43,0.1-0.87,0.2-1.29,0.3C280.04,166.91,270.81,169.73,261.21,171.41z M395.15,499.78
	c-0.29,0.17-0.65,0.36-0.95,0.52c-0.13,0.06-0.24,0.12-0.34,0.17c-0.92-0.3-1.82-0.59-2.66-0.85c1.37-0.52,2.79-0.71,4.33-0.2
	C395.6,499.48,395.46,499.59,395.15,499.78z M351.15,436.29c-1.41-0.14-3.34-0.29-4.86-0.41l-0.06-0.01
	C347.35,435.92,350.01,436.18,351.15,436.29z M332.62,435.51c0.5,0.04,0.99,0.1,1.47,0.16c-0.18,0.02-0.34,0.02-0.45-0.01
	C333.33,435.63,332.98,435.57,332.62,435.51z M461.25,239.49c-0.22-0.2-0.45-0.4-0.67-0.6c1.91-0.7,3.77-1.35,5.54-1.83
	C468.29,236.62,464.77,238.07,461.25,239.49z M490.39,197.34c-1.39,0.48-2.78,0.99-4.2,1.56c-2.01,0.6-4.05,1.1-6.1,1.55
	c0.47-1.44,0.51-2.95,0.1-4.47C483.65,196.72,486.91,197.37,490.39,197.34z M405.4,169.32c0.4,0.09,0.85,0.24,1.32,0.43
	c-0.69-0.12-1.38-0.24-2.07-0.36C404.33,169.12,404.59,169.08,405.4,169.32z M398.22,155.85c0.09-0.13,0.07,0.36,0,0.6l-0.07,0.16
	c-0.13,0.21-0.93,1.24-1.03,0.83C397.22,156.99,397.97,156.17,398.22,155.85z M391.85,166.32c0.11,0.15,0.24,0.3,0.36,0.46
	c0,0-0.01,0-0.01,0C392.08,166.62,391.97,166.47,391.85,166.32z M391.29,165.53c0.14,0.21,0.31,0.45,0.5,0.7
	C391.59,165.97,391.42,165.73,391.29,165.53z M427.92,223.63c-4.15-1.14-7.97-2.24-11.71-3.22c2.9-0.52,5.82-1.18,8.28-1.49
	c2.16-0.2,3.54-0.18,5.87-0.69c1.07-0.24,2.16-0.49,3.25-0.73c5.86,1.65,15.48,3.47,16.7,3.9c2.59,0.44,6.49,1.59,8.92,1.56
	c1.02-0.08,1.32-0.28,2.77,0.08c3.04,0.87,5.94,1.92,9.13,2.45c3.35,0.56,6.75,1.26,10.18,2c-3.73,0.6-7.43,1.24-11.07,1.94
	c-5.98,1.14-11.92,2.41-17.81,3.85C444.73,228.99,435.74,226.16,427.92,223.63z M446.37,267.13c-1.06-0.39-1.56-0.68-2.25-1.13
	c-0.56-0.38-0.79-0.41-2.19-0.69c-2.04-0.39-4.3-1.18-6.03-2.44c-0.43-0.3-0.74-0.55-1.06-0.88c-1.1-1.18,1-0.7,0.41-1.2
	c-13.51-8.67,2.69-16.9,11.99-17.9c0.94-0.11,1.92-0.3,2.91-0.54c3.08,0.92,6.77,2.64,8.79,4.98c0,0,0,0,0,0
	c0.1,0.11,0.52,0.66,0.62,0.81l0.04,0.05c0.01-0.02-0.44-0.6-0.6-0.79c0.04,0.05,0.09,0.1,0.14,0.16c2.4,2.46,4.03,7.56,2.7,10.52
	c-0.6,1.01-1.39,0.96-2.52,1.72c-1.03,0.62-1.82,1.53-2.9,2.26c-1.68,1.33-4.4,2.52-5.84,3.72c0.23,0.07,3.04-0.65,2.43-0.12
	c-1.51,0.83-3.09,1.49-4.71,2.04C447.65,267.51,447.01,267.33,446.37,267.13z M443.96,313.99c-17.12-5.31-34.63-7.79-53.12-11.22
	c-1.65-0.27-2.33-0.42-2.8-0.21c-0.3,0.29-0.08,0.7-0.79,0.8c-0.44,0.01-1,0.02-1.61-0.08c-1.41-0.21-2.65-0.44-4.11-0.5
	c-1-0.04-2.33-0.2-3.06-0.86c-0.85-1.44-2.46-1.16-4.44-1.83c-1.42-0.38-2.43-0.84-3.86-1.22c-9.91-2.23-20.06-3.89-30.21-5.36
	c0.58-0.08,1.16-0.14,1.73-0.23c12.54,0.59,24.93-0.94,37.97-1.26c10.26-0.59,20.64-1.44,30.69-3.8c7.82-1.88,15.3-4.45,22.98-6.88
	c0.73-0.19,1.35-0.41,1.97-0.46c0.86-0.09,1.02,0.21,1.82,0.14c3.32-0.62,6.88-2.36,10.13-3.53c1.36-0.49,2.78-1.01,4.22-1.58
	c9.45,3.26,19,6.46,28.56,8.92c2.31,0.53,4.44,1.32,6.04,2.21c5.28,2.25,11.1,2.32,16.02,4.37c2.68,1.02,6.63,1.75,9.63,2.51
	c2.86,0.89,6.25,1.75,9.74,2.19c2.45,0.43,4.68,0.57,7,1.28c0.61,0.21,1.04,0.44,1.3,0.67c-0.41,0.16-0.92,0.34-1.18,0.37l0.01,0
	c0.22-0.05,0.8-0.12,1.3-0.22c0.05,0.07,0.09,0.14,0.1,0.21c-0.36,1.32-4.47,2.41-5.91,3.36c-4.81,2.89-9.06,4.62-14,6.84
	c-6.49,4.3-14.61,8.21-20.99,12.15c-4.67,2.06-11.11,5.05-17.01,8.88c-0.74-3.09-2.42-5.92-5.18-7.61
	C460.1,317.71,451.82,315.6,443.96,313.99z M455.76,349.37c0.37-0.1,0.74-0.21,1.11-0.32c-0.14,2.04,0.14,4.16,0.96,6.37
	c0.97,2.55,4.14,5.11,4.58,6.17C457.86,359.26,456.07,354.22,455.76,349.37z"/>
<path class="st3" d="M598.32,200.85c-0.01-0.09-0.01-0.28-0.13-0.24c-0.13,0.04-1.02,0.27-1.11,0.31c0.18,0.01,0.94-0.02,1.23-0.02
	L598.32,200.85z"/>
<path class="st3" d="M473.56,462.76c0.07,0.04,0.51-0.06,1.03-0.21C474.42,462.53,474.12,462.58,473.56,462.76z"/>
<path class="st3" d="M476.18,499.5c0.38-0.05,0.52-0.14,0.66-0.23c-0.02-0.01-0.03-0.02-0.04-0.03L476.18,499.5z"/>
<path class="st3" d="M518.21,374.38c-0.61-0.08-1.59-0.12-2.11-0.13c0.31,0.07,1.28,0.09,2.13,0.14L518.21,374.38z"/>
<path class="st3" d="M513.38,306.49c-0.01,0.01,0,0.01,0,0.02c0.26-0.14,0.48-0.26,0.74-0.39L513.38,306.49z"/>
<path class="st3" d="M469.76,544.43c0.3,0.04,1.17,0.14,1.48,0.18c0.23,0.07,0.31-0.05,0.34-0.12
	C471.28,544.43,470.04,544.46,469.76,544.43L469.76,544.43z"/>
<path class="st3" d="M471.58,544.46l-0.01,0.01c-0.05-0.01,1.41,0.01,1.37-0.01C472.66,544.43,471.86,544.36,471.58,544.46z"/>
<path class="st3" d="M473.09,544.46c-0.29,0,0.23,0.04,0.68,0.08c0.65,0.06,1.56,0.1,2.1-0.07l0.03-0.02
	C475.28,544.44,473.62,544.47,473.09,544.46z"/>
<path class="st3" d="M448.37,535.01c-0.18-0.08-0.35-0.15-0.51-0.24C447.74,534.92,447.89,535,448.37,535.01z"/>
<path class="st3" d="M463.32,528.35c-3.87,1.47-8.19,3.27-12,4.68c-1.18,0.51-2.85,1.03-3.79,1.76c5.02-2,11.34-3.75,15.79-6.43
	L463.32,528.35z"/>
<path class="st3" d="M496.32,511.71c-0.16,0.21,0.24,0.02,0.76-0.23c2.11-0.97,0.31,0.59,0.1,1.14c0.69-0.39,2.03-1.49,2.78-2.05
	c0.84-0.66,1.59-1.23,1.82-1.54c0.17-0.23-0.07-0.28-0.25-0.43c-0.6-0.47,0.51-1.43,0.89-1.84c0.53-0.44,1.3-1.53,1.51-1.98l0,0
	C501.96,507.51,498.74,509.32,496.32,511.71z"/>
<path class="st3" d="M476.21,492.48c-0.07-0.07-0.81-0.27-0.85-0.29c-3.11-0.99-0.61,0.4,0.37,0.99l0.18,0.09
	c0.24,0.11,2.49,1.03,1.55,0.22C476.98,493.12,476.54,492.74,476.21,492.48z"/>
<path class="st3" d="M504.88,407.57c0.02-0.04,1.16-0.37,1-0.48c-0.3-0.26-0.66-0.64-1.01-0.81c-0.1-0.03-0.1,0.07-0.06,0.22
	c0.07,0.27,0.37,0.86,0.08,1.06L504.88,407.57z"/>
<path class="st3" d="M515.53,387.37c1.39-0.26,3.48-0.92,4.93-1.29l0.05-0.02c-0.86-0.04-2.88,0.05-3.45,0.06
	c-0.46,0.05-0.99,0.7-1.37,1C515.55,387.26,515.49,387.34,515.53,387.37z"/>
<path class="st3" d="M543.01,389.41c-0.19,0.05-1.54,0.39-1.29,0.33c0.67-0.15,7-1.54,5.53-1.22c-1.16,0.24-3.08,0.64-4.14,0.87
	L543.01,389.41z"/>
<path class="st3" d="M550.39,292.71l-0.17,0.04c-0.26,0.1-1.05,0.58-1.02,0.88c1.44,0.52,3.76,0.31,4.65,0.28
	c0.76-0.08,1.01-0.29-0.1-0.61C552.64,293.01,551.55,292.77,550.39,292.71z"/>
<path class="st3" d="M437.58,247.13c2.12,0.06,5.65-0.83,7.52-2.07c-2.21,0.53-5.6,1.23-7.53,2.04L437.58,247.13z"/>
<path class="st3" d="M263.45,1.36c0.96,0,1.45-0.28,2.52-0.81c0.72-0.35,1.18-0.55,0.97-0.55c-1.77,0.11-4.36,0.23-6,0.39
	l-0.09,0.02C259.14,1.2,262.97,1.42,263.45,1.36z"/>
<path class="st3" d="M276.69,2.84c3.35,0.29,7.04-0.36,10.18,0.11c0.73,0.11,0.99,0.15,1.7,0.19l0.17,0.01
	c1.55,0.08,3.62-0.37,5.08-1.08c0.47-0.27,1.03-0.52,1.02-1.04c-0.14-0.68-2.36-0.64-4.23-0.26c-3.96,0.62-8.22,2.21-12.2,1.04
	c-2.38-0.84-6.56-1.11-8.59-0.46c-0.14,0.06-0.27,0.14-0.22,0.28C271.59,2.74,274.41,2.58,276.69,2.84z"/>
<path class="st3" d="M430.26,104.57l0.08-0.03c0.46-0.28,1.84-0.99,1.98-1.4c-0.36,0.2-1.2,0.76-1.64,1.04
	C430.26,104.45,430.12,104.6,430.26,104.57z"/>
<path class="st3" d="M395.55,115.99c-0.56,0.07-1.78,0.36-2.25,0.6l0.02,0C393.95,116.42,394.98,116.17,395.55,115.99z"/>
<path class="st3" d="M338.46,5.13l-0.04-0.05c-0.89-0.13-2.48-0.22-3.35-0.19c0.72,0.11,1.99,0.23,2.8,0.33
	C338.14,5.26,338.45,5.19,338.46,5.13z"/>
<path class="st3" d="M354.94,12.6c-0.17-0.02-0.43-0.06-0.71-0.09c0.24,0.03,0.48,0.06,0.67,0.09L354.94,12.6z"/>
<path class="st3" d="M354.1,12.49c0.04,0.01,0.08,0.01,0.12,0.02C354.19,12.5,354.15,12.5,354.1,12.49z"/>
<path class="st3" d="M353.57,12.42c0.18,0.02,0.35,0.05,0.53,0.07C353.93,12.47,353.75,12.45,353.57,12.42z"/>
<path class="st3" d="M353.57,12.42c-0.29-0.04-0.57-0.07-0.81-0.11C352.95,12.34,353.25,12.38,353.57,12.42z"/>
<path class="st3" d="M404.73,525.16c0.49,0.11,0.66,0.11,0.08-0.18C404.72,525.02,404.78,525.11,404.73,525.16z"/>
<path class="st3" d="M359.75,558.55c0.11-0.22,0.2-0.53,0.08-0.47c-0.28,0.15-1.04,0.56-1.43,0.77l0.01,0.01
	C358.52,558.8,359.72,558.86,359.75,558.55z"/>
<path class="st3" d="M324.02,136.63l-0.03,0.02c0.24-0.05,1.23-0.41,1.26-0.46C325.07,136.23,324.25,136.54,324.02,136.63z"/>
<path class="st3" d="M456.85,248.79c-0.83-1.73,0.89-0.32,1.65,0.3c0.51,0.32,2.71,2.78,2.53,1.72c-0.18-0.66-0.55-1.3-0.9-1.9
	c-0.68-1.01-1.91-1.33-3.02-1.99c-3.07-1.44-1.1,1-0.28,1.87L456.85,248.79z"/>
<path class="st3" d="M343.54,6.01c-0.8-0.16-2.34-0.41-3.19-0.49l0.02,0.01C341.2,5.65,342.75,5.88,343.54,6.01z"/>
<path class="st3" d="M378.82,174.85l0.02-0.01c-0.26-0.22-1.19-0.62-1.56-0.73c-0.12-0.02,0.07,0.11,0.24,0.2
	C377.86,174.5,378.43,174.7,378.82,174.85z"/>
<path class="st3" d="M450.66,205.37l0.04,0c0.99,0.07,2.3-0.28,3.26-0.54C453.38,204.93,451.29,205.26,450.66,205.37z"/>
<path class="st3" d="M338.13,5.67l0.14,0.03c0.56-0.18,1.4-0.24,2.06-0.19C340.04,5.52,337.22,4.85,338.13,5.67z"/>
<path class="st3" d="M446.79,176.24c3.51,0.87,7.22,1.9,10.71,3.03C454.33,178.15,450.46,177.08,446.79,176.24L446.79,176.24z"/>
<path class="st3" d="M438,355.06c0.55-0.19,1.3-0.5,1.71-0.74l0.03-0.02c-0.52,0.21-1.72,0.71-2.18,0.9
	C437.32,355.29,437.62,355.19,438,355.06z"/>
<path class="st3" d="M326.88,440.53c-0.34-0.82-0.14-2.29,0.01-3.19c0.02-0.14,0.04-0.29,0.06-0.44
	C326.77,438.07,326.46,439.61,326.88,440.53z"/>
<path class="st3" d="M327.03,436.25c-0.01,0.14-0.03,0.29-0.05,0.45c0.1-0.66,0.29-1.31,0.97-1.55c0.18-0.04,0.37-0.07,0.56-0.08
	c0.13-0.12,0.27-0.22,0.41-0.33C327.82,434.73,327.15,434.97,327.03,436.25z"/>
<path class="st3" d="M326.97,436.69c-0.01,0.07-0.02,0.13-0.03,0.2C326.95,436.82,326.96,436.76,326.97,436.69z"/>
<path class="st3" d="M327.06,440.84c-0.07-0.08-0.13-0.19-0.17-0.3C326.94,440.65,326.98,440.76,327.06,440.84L327.06,440.84z"/>
<path class="st3" d="M326.88,440.53C326.88,440.53,326.88,440.53,326.88,440.53C326.88,440.54,326.88,440.53,326.88,440.53z"/>
<path class="st3" d="M352.99,499.98c0.01,0.11,0.02,0.52,0.07,1.08c0,0.04,0,0.07,0.01,0.11c0-0.04,0-0.07-0.01-0.11
	c0,0.02,0,0.05,0.01,0.07c-0.01-0.13-0.02-0.27-0.03-0.38C353.01,500.32,352.99,500.03,352.99,499.98z"/>
<path class="st3" d="M353.39,505.37c0-0.22-0.1-1.05-0.03-2.06c-0.15-0.78-0.24-1.56-0.29-2.17
	C353.15,502.37,353.31,504.2,353.39,505.37z"/>
<path class="st3" d="M353.23,503.67c0.06,0.89,0.1,1.61,0.11,1.71C353.31,504.91,353.27,504.3,353.23,503.67z"/>
<path class="st3" d="M353.09,501.57c0.04,0.61,0.09,1.37,0.13,2.1C353.18,503,353.13,502.23,353.09,501.57z"/>
<path class="st3" d="M353.09,501.55c-0.01-0.15-0.02-0.27-0.02-0.38c0.01,0.13,0.02,0.26,0.03,0.4
	C353.09,501.57,353.09,501.56,353.09,501.55z"/>
<path class="st3" d="M426.96,359.34l-0.54-0.11c0.02,0.08,0.06,0.15,0.12,0.22L426.96,359.34z"/>
<path class="st3" d="M380.87,56.27c-2.04,0.02-4.7,0.11-6.69,0.22l-0.04,0C374.01,56.51,379.67,56.32,380.87,56.27z"/>
<path class="st3" d="M411.18,52.11c-0.03,0-0.05,0-0.07,0l-0.56,0.58C410.97,52.43,411.08,52.27,411.18,52.11z"/>
<path class="st3" d="M445.67,100.23c0.86-0.65,2.25-1.86,3.08-2.78c0.37-0.48,0.93-1.08,0.8-1.48L449.49,96
	C448.39,97.28,446.88,98.99,445.67,100.23z"/>
<path class="st3" d="M445.59,175.98c0.21,0.08,0.79,0.18,1.08,0.26c0.5,0.11-0.77-0.19-1.05-0.26L445.59,175.98z"/>
<path class="st3" d="M445.56,100.31c-2.11,1.54-4.6,3.27-6.71,4.83l0.02,0C441.2,103.9,443.67,102.09,445.56,100.31z"/>
<path class="st3" d="M305.99,1.08L305.99,1.08c-0.03,0-1.41-0.16-1.72-0.2c-0.09-0.01-0.33,0.17-0.24,0.16
	C304.36,1.05,305.58,1.07,305.99,1.08z"/>
<path class="st3" d="M304,1.05l0.01-0.01c-0.02,0-1.64-0.03-1.97-0.03C302.32,1.04,303.7,1.15,304,1.05z"/>
<path class="st3" d="M301.96,1c-1.1-0.07-2.95-0.23-4.07,0.01l-0.04,0.01C298.5,1.03,301.58,1.02,301.96,1z"/>
<path class="st3" d="M353.95,8.18l0.62-0.29C354.26,7.91,354.05,8,353.95,8.18z"/>
<path class="st3" d="M368.4,11.11c-4.49-1.35-9.27-3.07-13.82-3.39c3.65,0.72,9.66,2.88,13.83,3.41L368.4,11.11z"/>
<path class="st3" d="M413.49,30.04c0.15,0.14,0.51,0.3,1.07,0.56c1.36,0.6,2.77,1.24,4.1,1.69c0.53,0.16,0.66,0.15,0.61-0.06
	c-0.16-1.77,5.47,0.95,6.18,1.19l0.02,0.01c-3.12-1.58-8.17-3.44-11.19-4.52c-0.43-0.06,0.4,0.45,0.52,0.57
	c0.15,0.12,0.31,0.25,0.42,0.36C416.1,30.74,413.43,29.83,413.49,30.04z"/>
<path class="st3" d="M405.67,47.82c0.62-0.09,4-0.74,2.02-0.81c-0.68,0-1.5-0.06-2.13-0.05c-0.8,0.15-2.63,0.54-3.35,0.92
	c0.25,0.23,2.68,0.01,3.27-0.03L405.67,47.82z"/>
<path class="st3" d="M337.73,63.85c-0.32-0.18-1.35-0.42-1.34-0.85l-0.01,0c0,0.05-0.82,0.8-0.66,0.89
	C336.25,64.02,338.7,64.27,337.73,63.85z"/>
<path class="st3" d="M381.97,65.31c1.69,0.36,5.44,0.9,7.24,1.2l-0.01-0.01c-0.55-0.18-4.08-1.47-4.78-1.6
	C383.81,64.89,382.42,65.16,381.97,65.31z"/>
<path class="st3" d="M422.74,81.68c0.89,0.2,1.25,0.29,0.84,0.19c-1.68-0.4-4.18-1.01-5.88-1.34l-0.18-0.03
	c-0.36-0.07-1.95-0.37-1.96-0.35c0.76,0.16,3.29,0.67,3.84,0.78C420.47,81.16,421.64,81.43,422.74,81.68z"/>
<path class="st3" d="M464.75,202.35c1.11-0.4,2.46-1.55,0.26-1.3c-0.94,0.11-2.11,0.41-2.92,0.71l-0.04,0.05
	c0.19,0.24,0.93,0.49,1.24,0.69C463.81,202.76,464.21,202.57,464.75,202.35z"/>
<path class="st3" d="M71.71,449.38l-0.07,0.06c-0.42,0.76,0.84,1.54,1.21,0.24c0.19-0.43,0.39-0.71,0.19-0.66
	C72.85,449.07,71.96,449.28,71.71,449.38z"/>
<path class="st3" d="M77.59,450.39c-0.19,0.22-1.01,0.73-1.47,0.47c-0.51-0.2-0.85-0.65-1.32-0.68c-1.7,0.1-0.89,1.45,0.41,1.56
	c0.95,0.22,2.21-0.6,3.02,0.01l0.09,0.01c0.79-0.25,1.69-1.95,1.5-2.71C79.38,448.09,78.08,450.05,77.59,450.39z"/>
<path class="st3" d="M166.45,459.19l-0.54-0.24C166.05,459.06,166.24,459.13,166.45,459.19z"/>
<path class="st3" d="M167.84,459.72c-0.09-0.38-1.04-0.41-1.34-0.53l-0.05-0.01c0.03,0.01,0.53,0.25,0.94,0.45
	C167.72,459.79,167.87,459.89,167.84,459.72z"/>
<path class="st3" d="M89.4,448.97c0.26-0.05,0.5-0.1,0.76-0.13c0.01-0.07,0.03-0.13,0.05-0.21C89.9,448.69,89.64,448.81,89.4,448.97
	z"/>
<path class="st3" d="M141.41,458.09l0.86-0.47l-0.44-0.04C141.68,457.72,141.54,457.9,141.41,458.09z"/>
<path class="st3" d="M124.53,454.95c-0.12,0.15-0.52,0.57-0.8,0.61c-0.31,0.07-0.1,0.59-0.04,0.85l0.06,0.06
	C124.18,456.39,124.4,455.37,124.53,454.95z"/>
<path class="st3" d="M94.33,453.25l-0.53,0.15C93.94,453.34,94.17,453.3,94.33,453.25z"/>
<path class="st3" d="M155.61,459.6c0.02-0.14-0.04-0.28-0.12-0.42C155.5,459.35,155.55,459.51,155.61,459.6z"/>
<path class="st3" d="M282.52,554.74c0.12-0.11,0.15-0.19,0.01-0.2C282.51,554.62,282.53,554.67,282.52,554.74z"/>
<path class="st3" d="M150.56,495.73c0.36-0.25,0.14-0.15-0.08,0C150.52,495.73,150.53,495.73,150.56,495.73z"/>
<path class="st3" d="M90.69,448.78c0.25-0.01,0.51-0.02,0.77,0C91.11,448.74,90.87,448.74,90.69,448.78z"/>
<path class="st3" d="M120.57,500.37c-0.29,0.18-0.47,0.31-0.63,0.45C120.1,500.72,120.28,500.59,120.57,500.37z"/>
<path class="st3" d="M141.82,500.45l-0.72,0.01C141.4,500.5,141.62,500.48,141.82,500.45z"/>
<path class="st3" d="M110.71,499.77c0.03-0.01,0.04-0.02,0.06-0.03c-0.03,0.01-0.06,0.02-0.08,0.03L110.71,499.77z"/>
<path class="st3" d="M110.03,499.61c0.27,0.02,1.02,0,0.74,0.13c0.13-0.05,0.31-0.12,0.1-0.15
	C110.62,499.59,110.28,499.55,110.03,499.61z"/>
<path class="st3" d="M114.27,497.2c-0.03,0.03-0.08,0.06-0.11,0.1l0.83-0.02C114.79,497.25,114.52,497.22,114.27,497.2z"/>
<path class="st3" d="M90.21,449.26c0.1-0.28,0.24-0.42,0.48-0.48c-0.18,0.01-0.36,0.03-0.54,0.05
	C90.11,449,90.09,449.16,90.21,449.26z"/>
<path class="st3" d="M83.78,501.15l0.06,0.02c-0.71-0.31-2.48-1.08-3.22-1.4C81.41,500.21,82.88,500.81,83.78,501.15z"/>
<path class="st3" d="M170.24,532.19c-0.22,0.74-0.21,1.34,0.47,1.39c0.51-0.03,1.38-0.5,1.68-1.06c-0.53-0.1-1.08-0.2-1.67-0.27
	C170.56,532.23,170.4,532.21,170.24,532.19z"/>
<path class="st3" d="M290.52,555.29c-1.02,0.1-1.94-0.13-3-0.18c-2.92-0.34-7.57-0.47-10.64-0.79c-3.56-0.57-7.16-1.05-10.78-0.42
	c-3.43,0.02-6.06,0.69-9.2,0.99c-1.33,0.1-2.12-0.42-3.56-0.2c-1.43,0.33-3,0.49-4.45,0.28c-1.1-0.12-2.14-0.5-3.18-0.36l-0.07,0.01
	c5.52-3.47,10.94-7.45,12.12-13.68c0.92-7.58-6.81-14.31-13.53-15.83c-7.42-2.74-15.93-6.31-23.99-7.26
	c-2.3-0.59-4.39-1.42-6.67-1.63c-0.4-0.02-0.82-0.03-1.23-0.04c-0.58-2.75-1.68-5.42-3.08-7.7c-1.7-2.94-4.86-4.62-7.33-6.57
	c-2.47-2.06-5.27-3.88-8.23-5.37c-4.68-2.91-10.24-5.83-15.92-7.17c-2.02-0.68-3.86-0.91-5.77-1.13c0.08-0.23,0.15-0.49,0.24-0.81
	c1.08-3.03,4.72-4.07,6.87-5.98c1.91-1.44,3.38-3.33,4.85-5.15c2.1-2.36,3.74-5.62,5.01-8.8c0.6-1.2,1.06-1.74,0.83-2.63
	c-2.08-5.06-8.91-6.57-13.26-8.56c-4.29-2.96-9.71-2.88-14.63-3.9c-6.58-1.38-14.01-0.92-20.65-2.29c-2.08-0.7-3.4,0.62-5.29,0.7
	c-3.73-0.54-8.57,0.59-11.8-1.59c-2.53-1.81-6.64,0.75-9.14-0.19c-1.68-0.77-3.33-2.04-5.34-2.2c-0.72-0.11-1.55-0.03-2.32,0.03
	c-3.28,0.38-7.08-0.23-10.68,0.38c-2.3,0.37-4.29,1.24-6.37,1.28c-2.37-0.06-5.14-1.02-7.28-1.25c-2.03-0.29-4.3-0.65-6.16-0.21
	c-3.25,0.73,5.56,1.81,6.1,1.65c1.76,0.16,3.33,1.02,5,1.54c2.34,0.72,5.18,1.03,7.57,0.25c2.31-0.57,3.89-0.07,6.3,0.19
	c2.51,0,4.94-0.06,7.41,0.28c2.26,0.32,4.14,1.18,6.49,1.37c4.02,0.01,8.44,0.19,12.45,0.98c2.19,0.24,5.57,0.47,7.07,0.82
	c1.64,0.56,3.33,0.92,5.13,0.9c1.7,0.27,4.51-0.97,5.37-1.51c0.6-0.34,0.93,0.13,1.29,0.58c1.03,1.29,2.98,1.7,4.72,2.09
	c4.37,1.21,8.4-0.06,12.92,0.55c4.05,0.91,8.4,2.25,12.23,3.64c2.14,0.85,3.94,1.99,5.1,3.55c0.51,0.74,1,1.5,1.25,2.38
	c0.14,0.56-0.07,1.11-0.52,1.82c-1.15,1.92-3.03,3.85-4.08,5.88c-1,1.82-3.32,2.86-4.98,4.64c-1.57,1.4-1.93,3.85-3.45,5.18
	c-0.26,0.2-0.57,0.23-0.9,0.19c0,0,0-0.01,0-0.02c0,0.01-0.01,0.01-0.01,0.01c-0.55-0.06-1.15-0.29-1.65-0.18
	c-1.55,0.69-2.89,1.71-4.2,2.81c-4.95-1.16-10.02-2.48-15.14-3.32c-3.58-0.83-7.36,0.57-10.57,0.65
	c-4.88-0.57-10.63,0.18-15.63,0.66c-5.18,0.64-9.02,0.65-13.89,1.95c-4.57,0.89-9.26,1.62-13.44,3.49c-2.65,1.06-5.59,2.21-8.47,3.3
	c-0.05-0.01-0.08-0.01-0.15-0.02c-0.91,0.19-2.67,0.51-3.49,0.69l0.07,0c0.06,0.01,1.43-0.12,2.52-0.28
	c-1.78,0.66-3.52,1.3-5.14,1.85c-1.32,0.46-5.14,0.92-3.07,2.39c2.38,1.68,5,2.54,8.15,3.4c5.1,1.28,10.25,3.9,15.55,4.77
	c5.11,0.91,10.83,0.47,15.95,1.25c0.08,0.21-3.56,0.66-3.2,0.89c2.14,0.2,4.83-0.39,7.06-0.71c4.83-0.79,6.21,0.35,11.17-0.59
	c1.96-0.38,4.11-0.72,5.94-1.25c1.78-0.43,2.37-2.27,4.13-2.83c1.72-0.68,3.51,0.55,5.23-0.06c1.28-0.37,2.4-1,3.59-1.63
	c1.47-0.73,3.31-1.48,4.91-2.48c2.61-1.47,5.08-3.6,8.02-4.45c1.02,0.44,2.02,0.92,3,1.4c3.52,1.39,7.11,2.5,10.8,3.88
	c2.49,1.15,5.12,1.28,7.74,1.46c0.34,0.04,0.65,0.12,0.94,0.23c-0.82,0.37-1.43,0.89-0.59,1.75l0.01-0.04
	c-0.06-0.16-0.16-0.57,0.11-0.66c0.4-0.22,1.3-0.14,1.57-0.45c1.02,0.8,1.71,2.03,2.37,3.19c0.86,1.55,2.7,1.2,3.88,2.28
	c2.66,3.12,6.53,5.25,8.98,8.64c-3.24-0.18-6.71-0.42-9.33-0.26c-3.91,0.62-7.61,0.48-11.59,1.18c-2.55,0.38-6.78,1.87-8,2.98
	c-0.53,0.41-1.02,0.95-1.67,1.06c-1.12,0.05-2.2,0.34-3.24,0.76c0.02-0.11,0.06-0.22,0.07-0.33c-0.19-0.79-1.57,0.32-2.11,0.58
	c-2.32,1.46-6.72,4.33-8.96,5.84c-0.5,0.44-1.78,1.04-1.15,1.62c2.47,0.76,5.95,0.58,8.73,0.94c0.12-0.4,0.29-0.84,0.47-1.27
	c0.78,0.2,1.37,0.42,1.49,0.66c0.35,0.3,0.35,0.63,0.19,0.94c2.75,0.54,4.73,1.5,7.36,2.36c4.66,1.7,9.56,1.23,14.39,0.84
	c3.83,0.06,7.59-0.02,11.3-0.82c3.35-0.39,7.27-1.55,9.62-4.47c0.79-0.97,1.38-2.03,1.82-3.14c3.2,0.66,6.33,1.77,9.5,2.01
	c2.26-0.09,3.92-0.47,6.25,0.17c2.98,1.23,6.75,2.86,9.56,3.91c1.99,0.88,3.77,1.62,5.78,2.24c3.11,1.17,8.08,1.63,7.4,5.74
	c-1.12,3.3-4.5,5.54-7.12,7.76c-0.44,0.4-1.21,0.8-1.59,1.08c-0.2,0.11-0.27,0.18-0.3,0.07c0-0.72,0.93-2.44-0.59-1.46
	c-1.07,0.66-2.01,1.58-2.98,2.41c-1.52,1.35-3.78,2.35-4.88,3.31c-0.24,0.3-0.96,0.66-0.66,1.06c0.19,0.2,0.8,0.26,0.87,0.57
	c0.04,0.17-0.17,0.43-0.64,0.77c-2.87,1.67-6.45,1.9-9.43,3.43c-0.11,0.03-0.2,0.05-0.28,0.08c-1.84,0.66-4.39,1.7-5.42,3.49
	c-0.43,0.34-0.72,0.72-0.77,1.18c-0.14,0.76,0.04,1.53,0.43,2.19c0.56,2.01,2.32,3.78,4.38,2.82c0.8-0.31,1.6-0.71,2.38-1.13
	c3.78-0.08,7.15-2.22,10.79-3.23c3.53-1.01,7.1-0.78,10.73-1.31c6.46-0.91,12.93-1.61,19.47-1.28c2.13,0.07,4.42-0.28,6.52-0.59
	c2.91-0.37,6.5,0.62,9.57,0.62c4.22-0.09,8.14-0.68,11.9,0.88c1.22,0.4,2.53,0.8,3.8,0.88c2.89,0.21,4.51-3.31,2.84-5.54
	C297.19,554.94,293.86,555.2,290.52,555.29z M148.73,493.35c-0.66,0.74-1.72,2.14-2.77,1.46c-0.46-0.28-0.89-0.57-1.48-0.41
	c-2.2,0.43-4.12,1.8-5.95,2.95c-1.17,0.94-2.34,1.88-3.82,2.02c-2.52,0.44-6.75-1.04-9.29-0.67c-0.44,0.02-1.19,0.2-1.26,0.43
	c0.01,0.45,0.4,0.62,0.85,0.73c0.5,0.1,1.07,0.36,0.73,0.78c-2.01,1.32-5.81-1.32-8.19-1.08c-2.5,0.19-4.07,0.39-6.16-0.32
	c-2.24-0.24-4.96-0.02-7.21-0.22c-0.32-0.14,2.15-0.48,2.67-0.66c0.14-0.06,0.12-0.11-0.01-0.16c-0.21-0.07-0.31-0.08-0.48-0.11
	c-2.67-0.28-6.06-0.54-8.1-0.7c-0.62-0.05-1.27-0.08-1.82-0.14c-0.16-0.02-0.33-0.04-0.27-0.1c3.38-0.67,7.63-1.51,11.13-2.22
	c2.62-0.44,5.15-2.13,7.81-1.48c5.29,1.43,10.89-1.97,16.29-2.53c2.05-0.47,3.81,0.26,5.56,1.24c0.8,0.38,1.93,0.33,3.66,0.15
	c2-0.22,4.09-0.94,5.99-0.95c0.91-0.01,2.11,0.18,2.95,0.29c0.29,0.05,0.61,0.09,0.95,0.13
	C149.79,492.08,149.18,492.56,148.73,493.35z M242.48,552.94c0.11-0.17,0.23-0.11,0.41-0.11c0.29-0.01,1.21-0.4,1.5-0.46l0.04,0.01
	c-0.34,0.26-1.12,0.92-1.56,1.22C242.4,553.68,242.29,553.29,242.48,552.94z M240.57,555.33c-0.07,0.08-0.56,0.45-0.81,0.64
	c0,0-0.01,0-0.01,0c0.22-0.18,0.61-0.49,0.75-0.6L240.57,555.33z"/>
<path class="st3" d="M237.58,553.54c0.18-0.15,0.45-0.31,0.28-0.38c-0.42-0.05-0.55,0.02-0.96,0.37l-0.04,0.09
	c-0.02,0.07,0.02,0.54,0.05,0.54C237.09,553.92,237.37,553.71,237.58,553.54z"/>
<path class="st3" d="M236.35,555.73c0.18,0.01,0.34,0.01,0.5-0.01c0.01-0.15,0.03-0.3,0.04-0.44c-0.11,0.07-0.22,0.15-0.32,0.22
	C236.49,555.58,236.46,555.65,236.35,555.73z"/>
<path class="st3" d="M165.81,458.92l0.09,0.04c-0.08-0.05-0.14-0.11-0.18-0.19C165.78,458.83,165.78,458.87,165.81,458.92z"/>
<path class="st3" d="M139.89,451.99c0.01,0.07,0.15,0.19,0.32,0.32C140.17,452.2,140.08,452.09,139.89,451.99z"/>
<path class="st3" d="M120.04,450.54c0.01,0,0.01,0,0.02,0.01l0.18-0.48C120.12,450.26,120.08,450.41,120.04,450.54z"/>
<path class="st3" d="M144,507.67c-0.12,0.03-0.23,0.08-0.33,0.13C142.9,508.19,143.44,507.98,144,507.67z"/>
<path class="st3" d="M179.94,487.82c0.35-0.15,1.13-0.78,0.72-1.29l-0.06,0C180.44,486.89,180.12,487.43,179.94,487.82z"/>
<path class="st3" d="M84.18,501.33c0.04,0,0.01,0,0.05,0c-0.14-0.05-0.27-0.1-0.41-0.16L84.18,501.33z"/>
<path class="st3" d="M178.4,489.13c0.53-0.25,1.17-0.73,1.48-1.26c-0.41,0.18-1.24,0.86-1.51,1.25L178.4,489.13z"/>
<path class="st3" d="M82,448.42c0.01,0.07-0.02,0.13-0.05,0.18l0.47-0.14L82,448.42z"/>
<path class="st3" d="M81.48,448.74c0.21,0,0.4-0.01,0.47-0.13L81.48,448.74z"/>
<path class="st3" d="M80.5,449.02l0.98-0.29C81.14,448.74,80.72,448.7,80.5,449.02z"/>
<path class="st3" d="M94.11,448.69c-0.07,0.08-0.12,0.22-0.14,0.41L94.11,448.69z"/>
<path class="st3" d="M97.48,449.13l0-0.04c-0.79-0.26-2.43-1.01-3.27-0.66c-0.25,0.19,0.06,0.14,0.38,0.17
	C95.4,448.68,96.69,449.48,97.48,449.13z"/>
<path class="st3" d="M108.94,455.33c0.16,0.21,1,0.36,1.22,0.39c0.2,0.01,0.23-0.06,0.21-0.17c-0.51-1.07,0.88-0.98,1.6-0.99l0.07,0
	c-0.59-0.1-2.15-0.31-2.77-0.4c-0.26-0.03-0.31,0-0.19,0.14c0.14,0.17,0.44,0.47,0.33,0.65
	C109.34,455.13,109.07,455.13,108.94,455.33z"/>
<path class="st3" d="M121.69,456.16c0.05-0.22-0.54-0.39-0.71-0.49l-0.11-0.01c-1.23,0.12-0.35,0.58,0.03,0.87
	C121.14,456.51,121.52,456.34,121.69,456.16z"/>
<path class="st3" d="M184.54,465.01c0,0.05-0.68,0.78-0.59,0.85c0.92,0.4,0.3-0.45,0.58-0.81L184.54,465.01z"/>
<path class="st3" d="M194.21,471.76c-0.07,0.39-0.29,0.98-0.32,1.17l0.03,0.03c0.3-0.32,1.38-1.12,1.18-1.67
	c-0.12-0.24-0.36-0.52-0.62-0.63C194.32,470.73,194.33,471.38,194.21,471.76z"/>
<path class="st3" d="M183.36,474.92l0.05-0.09c0.05-0.12,0.26-0.61,0.11-0.3c-0.27,0.51-0.54,1.03-0.82,1.54
	c-0.14,0.25,0.08-0.11,0.2-0.32C183.02,475.51,183.26,475.1,183.36,474.92z"/>
<path class="st3" d="M113.03,497.65c-0.45-0.06-0.5-0.04-0.08,0.06c0.88,0.14,2.77,0.52,3.66,0.37l-0.04-0.01
	C115.69,497.94,114.02,497.77,113.03,497.65z"/>
<path class="st3" d="M151.08,494.27l-0.01,0.05c0.45,0.6,1.96,1.12,2.58,0.6C153.25,494.72,151.46,494.18,151.08,494.27z"/>
<path class="st3" d="M780.51,412.95c-0.15,0.45-0.32,0.75-0.13,0.69c0.19-0.07,1.06-0.37,1.3-0.5l0.06-0.07
	C782.09,412.26,780.74,411.62,780.51,412.95z"/>
<path class="st3" d="M777.62,411.29c-0.84,0.03-1.97,0.79-2.71,0.34l-0.09,0c-0.74,0.3-1.66,1.99-1.21,2.72
	c0.14,0.16,0.4,0.09,0.66-0.13c0.7-0.55,1.28-1.65,2.23-2.06c0.86-0.3,1.3,0.6,2.13,0.43C780.41,412.03,778.72,411.09,777.62,411.29
	z"/>
<path class="st3" d="M625.21,450.97c-0.25,0.06-0.46,0.17-0.5,0.34C624.89,451.19,625.04,451.09,625.21,450.97z"/>
<path class="st3" d="M763.22,416.07c0.3-0.1,0.55-0.26,0.76-0.44c-0.25,0.09-0.49,0.17-0.74,0.23
	C763.24,415.93,763.23,415.99,763.22,416.07z"/>
<path class="st3" d="M696.2,420.62c-0.07-0.15-0.17-0.28-0.26-0.35C695.97,420.4,696.07,420.52,696.2,420.62z"/>
<path class="st3" d="M560.75,549.66c-0.02-0.08-0.06-0.12-0.08-0.18C560.63,549.62,560.63,549.71,560.75,549.66z"/>
<path class="st3" d="M611.71,464.97c0.15-0.51,0.02-0.25-0.06,0.06C611.68,465.01,611.68,465,611.71,464.97z"/>
<path class="st3" d="M762.72,415.98c-0.25,0.04-0.51,0.08-0.77,0.1C762.3,416.08,762.54,416.05,762.72,415.98z"/>
<path class="st3" d="M627.89,496.23c0.02,0.11,0.12,0.25,0.44,0.48C628.24,496.51,628.07,496.37,627.89,496.23z"/>
<path class="st3" d="M608.85,476.99c0.17-0.28,0.3-0.51,0.37-0.72C609.1,476.5,608.96,476.74,608.85,476.99z"/>
<path class="st3" d="M645.07,493.99c-0.1-0.07-0.23,0.03-0.42,0.11c-0.14,0.07-0.46,0.03-0.61-0.01
	C644.29,494.17,645.1,494.29,645.07,493.99z"/>
<path class="st3" d="M643.98,494.08l0.03,0.01c0.01,0,0.02,0,0.03,0.01C644.02,494.09,643.99,494.08,643.98,494.08z"/>
<path class="st3" d="M659.64,493.05c-0.16,0.02-0.34,0.04-0.5,0.06l0.79,0.17C659.85,493.2,659.74,493.13,659.64,493.05z"/>
<path class="st3" d="M763.14,415.45c-0.06,0.29-0.18,0.45-0.42,0.54c0.18-0.04,0.36-0.08,0.53-0.13
	C763.27,415.69,763.26,415.53,763.14,415.45z"/>
<path class="st3" d="M643.98,485.17l-0.05,0.01c0.45,0,2.28-0.03,2.61-0.03C646.04,485.08,644.56,485.12,643.98,485.17z"/>
<path class="st3" d="M605.86,527.9c-0.22-0.04-0.43-0.02-0.59,0.1L605.86,527.9z"/>
<path class="st3" d="M654.42,484.53c0.36,0.27,1.04,0.67,1.51,0.69c0.18-0.03,0.37-0.28,0.25-0.3c-0.31-0.07-1.42-0.34-1.8-0.43
	L654.42,484.53z"/>
<path class="st3" d="M663.35,535.19c0,0.16,0,0.03,0-0.07c0-0.07,0-0.18,0-0.3c0,0,0,0,0,0
	C663.34,534.99,663.34,535.12,663.35,535.19z"/>
<path class="st3" d="M640.47,525.31l-0.08,0.05c-0.06,0.05-0.29,0.49-0.26,0.52c0.44-0.15,0.91-0.14,1.35-0.18
	c0.16-0.02,0.15-0.12,0.02-0.23C641.14,525.26,640.98,525.24,640.47,525.31z"/>
<path class="st3" d="M771.98,412.7c-2.16-0.94-5.13-0.42-7.42-0.33c-2.41-0.12-4.41-1.13-6.9-1.01c-2.86-0.32-5.38,1.31-8.04,1.75
	c-3.66,0.02-7.53,1.04-11.22,1.31c-2.34,0.15-4.38-0.33-6.77,0.02c-0.99,0.22-1.99,0.43-3,0.64c0.1-0.19-0.15-0.54-0.24-0.75
	l-0.07-0.04c-0.25,0.1-0.35,0.51-0.39,0.93c-2.92,0.57-5.9,1.05-8.86,1.24c-2.21,0.35-5.52,1.01-7.1,1.11
	c-0.6,0-1.19-0.01-1.77,0.01c0.05-0.11,0.1-0.21,0.15-0.33l-0.34,0.33c-0.68,0.03-1.36,0.11-2.09,0.33
	c-1.7,0.36-3.47,0.95-4.67,2.16c-0.83,0.68-1.11,1.24-1.71,1.48c-0.4,0.1-0.66-0.17-1.02-0.37c-1.4-0.92-3.42-0.59-5.22-0.37
	c-3.93,0.36-7.17,2.36-10.68,3.84c0,0,0,0-0.01,0c-0.38,0-0.57-0.02-0.47,0.11c0.02,0.02,0.05,0.04,0.08,0.05
	c-1.41,0.57-2.86,1.05-4.43,1.29c-5.25,0.79-10.22,3.85-15.4,4.25c-2.41,0.12-4.76,0.71-6.92,1.74c-3.32,0.77-6.73,1.53-9.79,3.81
	c-2.95,2.6-6.81,2.94-9.72,5.57c-1.13,1.2-1.87,3.04-3.24,3.95c-0.72,0.45-1.66-0.31-2.5-0.15c-3.03,1.39-5.37,4.07-7.44,6.72
	c-1.9,3.18-5.64,3.76-8.36,6c-1.94,1.41-1.79,2.44-1.99,4.39c-0.13,0.77-0.32,1.95-0.98,2.36c-0.82,0.35-1.56-0.15-2.06,0.83
	c-2.01,3.31-2.19,7.11-2.02,10.84c-0.67,4.79-6.08,11.48-1.59,16c1.6,1.27,0.46-1.1,0.11-1.63c-0.55-0.87,0.17-1.35,0.11-2.24
	c2.81,1.97,4.01,7.43,8.39,7.35c2.58,0.27,5.34-0.61,7.64-0.61c3.15-0.01,6.15,0.51,9.38-0.19c2.34-0.58,5.22-1.22,7.35-0.74
	c2.44,0.23,4.8-1.42,7.24-1.73c3.57-0.59,7.4-0.13,11.01-0.01c4.18,0.56,7.72-0.21,11.56,0.37c0.79,0.25,1.3,0.52,1.99,0.94
	c0.76,0.52,1.62,0.95,2.5,1.32c-1.02,0.27-2.05,0.72-3.09,1.16c-1.32,0.57-2.42,1.24-3.79,1.66c-2.28,0.58-6.28,1.05-8.13,1.65
	c-1.43,0.5,1.23-1.61-0.16-1.22c-0.72,0.24-2.26,1.44-3.45,1.89c-2.17,0.8-4.91,0.74-7.29,0.63c-6.13,0.14-13.76,0.82-19.27,2.89
	c-1.53,0.96-2.59,1.54-3.54,1.82c0.09-0.18,0.18-0.36,0.28-0.5c0.42-0.67,0.01-1.14-0.67-1.25l-0.01,0.03
	c0.47,0.39,0.16,0.71-0.28,1.08c-0.41,0.31-0.64,0.6-0.61,0.83c-1.23,0.01-2.52-0.46-4.71-1.24c-1.22-0.33-2.2,0.69-3.29,1.01
	c-2.38,0.65-4.93-0.1-7.34,0.8c-6.03,1.89-12.39,3.7-18.69,5.25c-4.18,0.73-8.07,0.8-12.15,1.94c-2.88,0.84-5.69,2.41-8.49,2.99
	c-5.95,0.72-18.25,1.64-9.8,9.77c5.22,5.57,12.89,8.4,20.42,9.07c-3.56,0.91-7.11,1.85-10.69,2.7c-3.26,0.69-5.8,2.72-9.09,3.66
	c-2,0.67-4.2,1.09-6.07,2.04c-3.56,2.07-6.41,4.88-9.53,7.3c-1.95,1.48-4.63,3.17-4.8,5.79c-0.18,4.26,6.36,3.76,7.83,0.87
	c1.18-1.37,1.94-3.21,3.42-4.3c4.38-3.32,9.66-5.15,14.96-6.24c2.81-1.04,5.4-2.16,8.15-3.04c2.58-1.15,4.1-1.97,6.58-1.92
	c1.12-0.05,2.19-0.68,3.28-0.91c1.74-0.49,3.42,0.06,5.14-0.27l0.07-0.02c3.78-1.43,8.38-2.17,12.29-3.95
	c2.29,0.13,4.58,0.28,6.87,0.49c4.5,0.35,9.58,1.91,13.92,1.42c2.19-0.47,4.17-1.29,6.48-1.15c2.06,0.18,4.78,0.83,7.26,0.68
	c4.02,0,7.84,0.3,11.8-0.66c2.23-0.35,4.61-1.09,6.96-1.73c3.5,0.57,5.74,0.67,6.84-1.23c0.23-0.05,0.46-0.12,0.69-0.19
	c0-0.47,0.02-1.3,0-2.2c0.01-0.07,0.02-0.16,0.02-0.23c-0.01,0.97-0.02,1.91-0.02,2.43c1.55-0.53,2.93-1.59,4.25-2.78
	c4.29-3.79,12.25-10.29,13.75-11.95c0.01-0.12-0.62,0.18-1.77,0.8c-5.21,2.35-10.9,6.95-16.53,8.15c-0.11-0.51-0.3-0.98-0.7-1.23
	c-1.75-0.38-3.72,0.59-5.64,0.85c-1.63-0.22-3.27-0.45-4.86-0.53c-2.2-0.27-1.35-0.28-0.27-0.99c1.9-1.22-3.18-0.94-3.87-0.86
	c-2.51,0.33-5.27-0.55-7.69-0.16c-0.84,0.13-0.81,0.39-0.6,0.68c-0.13,0-0.26,0.01-0.38,0.01c-0.11,0.02-0.17,0.07-0.32,0.08
	c0.16,0.1,0.31,0.19,0.46,0.26c0.09-0.11,0.17-0.22,0.25-0.32c0.42,0.57,1.46,1.21-1.89,1.12c-2.71-0.18-5.43-1.48-8.25-1.26
	c-4.29,0.72-8.48,1.75-12.67,2.12c-1.08,0.16-2.34,0.12-3.47-0.02c-1.22-0.23-2.45-0.18-3.68,0.03c-2.81-0.03-5.56-0.13-8.7-0.79
	c-3.5-0.63-6.43-1.06-9.82-1.44c-3.54-0.78-7.93-1.6-11.35-0.37c-0.12,0.02-0.14-0.01-0.12-0.08c0.11-0.16,0.24-0.22,0.44-0.36
	c0.3-0.18,0.77-0.45,1.12-0.65c1.84-1.02-2.34-1.35-1.22-2.35c0.66-0.43,3.03-0.46,4.26-0.75c3.37-0.34,6.91-2.44,10.35-3.02
	c3.38-0.56,9-0.48,12.53-1.1c3.81-0.89,7.24-2.5,11.12-2.83c5.68-1.36,10.85-1.41,17.05-2.52c5.21-0.77,9.71-2.62,14.8-3.88
	c7.01-1.57,14.6-1.43,21.69-3.04c3.92-1.48,5.88-2.73,9.9-2.88c4.6-1.05,9.6-2.18,14.65-3.11c1.94-0.46,6.58-0.83,2.78-2.77
	c-8.64-4.67-17.12-9.5-26.57-11.13c-5.08-1.11-9.81-0.8-14.97-0.36c-11.56,0.5-20.45,0.73-32.34,2.09c-1.65,0.25-3.81,0.5-5.34,0.47
	c-2.13,0.04-0.14-0.83-0.91-0.84c-4.35,0.14-4.21-1.94-3.42-5.57c0.29-1.71,0.85-3.57,0.43-5.24c-0.57-1.72-0.06-3.69,1.63-4.6
	c0.71-0.38,1.34-1.18,1.77-1.88c2.14-4.27,4.4-8.65,8.17-12.38c2.36-1.7,4.84-3.02,6.57-5.32c0.54-0.62,1.64-1.38,1.96-1.85
	c0.45-0.9,0.68-1.89,1.49-2.62c3.23-2.73,7.85-3.27,11.22-5.8c0.96-0.56,2.04-1.09,3.04-1.6c1.48-0.77,3.06-1.58,4.67-2.12
	c2.46-0.91,3.43-0.37,5.59-1.28c4.59-2.12,9.04-5.29,14.52-5.51c7.93-2.58,15.44-4.47,23.63-6.68c3.15-1.49,7.3-0.79,10.03-2.47
	c1.46-1.4,3.01-1.38,4.75-1.76c2.82-0.83,5.69-1.89,8.64-1.22c0.72,0.21,1.14,0.48,1.91,0.42c2.43,0.02,5.44-2.45,7.64-2.12
	c1.59,0.28,3.1,1.11,4.87,1.08c0.98,0.01,1.82-0.12,2.77-0.41c3.31-1.13,7.22-1.09,10.85-2.34c2.19-0.73,3.91-1.8,5.89-2.22
	c2.45-0.42,5.55,0.24,7.74,0.16c1.66-0.1,3.09,0.19,4.74-0.22c0.59-0.14,1.11-0.29,1.47-0.37
	C771.88,413.08,772.07,412.89,771.98,412.7z"/>
<polygon class="st3" points="611.01,527.83 610.59,527.78 610.58,528.06 "/>
<path class="st3" d="M713.51,422.66c-0.03-0.07-0.2-0.14-0.4-0.21C713.18,422.54,713.3,422.62,713.51,422.66z"/>
<path class="st3" d="M724.4,420.64l-0.03,0c0.02,0,1.36,0.1,1.66,0.13C725.99,420.72,724.6,420.61,724.4,420.64z"/>
<path class="st3" d="M733.16,419.77c0.08-0.21,0.09-0.36,0.1-0.5c-0.01,0-0.01,0-0.02,0L733.16,419.77z"/>
<path class="st3" d="M616.59,477.91c-0.03,0.1-0.04,0.21-0.04,0.31C616.54,478.96,616.6,478.48,616.59,477.91z"/>
<path class="st3" d="M639.15,448.03c0.37-0.1,1.17-0.61,0.85-1.15l-0.06-0.01C639.75,447.19,639.37,447.68,639.15,448.03z"/>
<path class="st3" d="M643.66,485.2c0.1-0.01,0.19-0.01,0.29-0.02l-0.29,0C643.66,485.19,643.66,485.19,643.66,485.2z"/>
<path class="st3" d="M639.1,448.07c-0.41,0.11-1.29,0.68-1.58,1.03l0.03,0.02C638.08,448.94,638.74,448.55,639.1,448.07z"/>
<path class="st3" d="M771.46,415.23c-0.02-0.07,0-0.14,0.03-0.19l-0.46,0.19L771.46,415.23z"/>
<path class="st3" d="M771.94,414.86c-0.22,0.03-0.4,0.06-0.45,0.19L771.94,414.86z"/>
<path class="st3" d="M772.9,414.46l-0.95,0.4C772.28,414.82,772.71,414.8,772.9,414.46z"/>
<path class="st3" d="M759.39,416.12l-0.08,0.42C759.37,416.45,759.4,416.31,759.39,416.12z"/>
<path class="st3" d="M758.84,416.71c-0.81,0.03-2.2-0.57-2.93-0.1l0.01,0.04c0.81,0.14,2.55,0.64,3.32,0.17
	C759.46,416.6,759.16,416.69,758.84,416.71z"/>
<path class="st3" d="M743.42,413.44c-0.17-0.14-0.51-0.38-0.45-0.57c0.02-0.18,0.29-0.23,0.38-0.43c0.06-0.09-0.95-0.18-0.9-0.17
	c-0.16,0.01-0.65-0.06-0.53,0.2c0.67,0.92-0.57,1.09-1.36,1.21l-0.06,0.01c0.59,0,2.15-0.07,2.77-0.08
	C743.52,413.6,743.55,413.55,743.42,413.44z"/>
<path class="st3" d="M731.24,414.45l0.11-0.01c1.17-0.35,0.19-0.64-0.16-0.86c-0.34,0.14-0.43,0.24-0.62,0.36
	C730.11,414.33,730.96,414.37,731.24,414.45z"/>
<path class="st3" d="M666.05,429.91l0.02,0.04c-0.04-0.04-0.11-1.04-0.23-1.02C664.84,429.34,665.98,429.45,666.05,429.91z"/>
<path class="st3" d="M657.53,439.03c0.05-0.51,0.16-0.66-0.13-0.42c-0.27,0.18-1.02,0.68-1.28,0.86l0.01,0.01
	c0.03,0,0.66,0.06,1.04,0.09C657.56,439.64,657.44,439.54,657.53,439.03z"/>
<path class="st3" d="M646.19,436.09c0.05-0.05,0.33-0.3,0.37-0.33c-0.37,0.27-1.34,1.02-1.69,1.29c-0.12,0.09,1.19-0.85,1.27-0.91
	L646.19,436.09z"/>
<path class="st3" d="M657.12,494.31l0.04-0.03c-0.01-0.03-0.19-0.63-0.31-1c-0.04-0.23-0.11-0.28-0.27-0.18
	C655.95,493.53,655.97,494.65,657.12,494.31z"/>
<path class="st3" d="M668.3,496.94c-0.62-0.46-2.27-0.58-2.74,0.11c0.47,0.09,2.38,0.13,2.75-0.06L668.3,496.94z"/>
<polygon class="st2" points="485.98,313.27 481.42,318.72 481.42,326.72 490.54,332.5 498.2,325.27 498.2,319.61 495.98,312.61 "/>
<polygon class="st2" points="572.42,205.61 569.42,199.27 560.76,197.27 550.76,197.27 553.76,201.61 556.09,209.94 565.09,211.61 
	574.09,211.61 "/>
</svg>
