<?xml version="1.0" encoding="utf-8"?>
<!-- Generator: Adobe Illustrator 28.1.0, SVG Export Plug-In . SVG Version: 6.00 Build 0)  -->
<svg version="1.1" id="Layer_1" xmlns="http://www.w3.org/2000/svg" xmlns:xlink="http://www.w3.org/1999/xlink" x="0px" y="0px"
	 viewBox="0 0 296.89 702.89" style="enable-background:new 0 0 296.89 702.89;" xml:space="preserve">
<style type="text/css">
	.st0{fill:#0A70A5;}
	.st1{fill:#F84F04;}
	.st2{fill:#069F05;}
	.st3{fill:#202020;}
	.st4{fill:#F5AF02;}
</style>
<polygon class="st0" points="47.11,658.89 42.78,625.89 52.44,564.22 47.11,519.56 47.61,477.89 50.78,471.56 47.61,428.89 
	69.11,352.89 91.78,283.56 113.11,279.56 133.15,283.56 183.11,284.89 212.44,287.56 218.44,304.22 222.44,345.56 217.78,403.56 
	197.78,435.56 181.11,486.22 175.78,522.22 175.78,552.89 163.07,515.97 155.11,496.22 144.44,485.56 125.11,479.56 127.11,457.56 
	132.61,438.22 133.15,404.89 115.78,448.89 101.78,475.56 101.78,482.89 97.78,490.89 101.78,496.22 94.44,503.56 97.78,526.22 
	101.78,608.22 105.11,625.56 109.78,648.22 107.78,662.89 101.78,658.89 "/>
<polygon class="st1" points="47.11,658.89 47.11,675.56 58.44,692.89 74.44,702.89 95.11,702.89 101.78,698.89 101.78,688.22 
	101.78,658.89 95.78,651.56 79.78,651.56 66.44,657.56 59.78,657.56 "/>
<path class="st1" d="M144.44,485.56l-19.33-6l-12,11.33l2.67,27.33l17,21.33l-4,28l11.67,22.67l12.67,13.33h12l10.67-10v-40.67
	c0,0-9.33-28-10-30c-0.67-2-10.67-26.67-10.67-26.67L144.44,485.56z"/>
<path class="st2" d="M91.78,283.56c0,0-8.67-15.11-8.67-16.44s0-9.33,0-9.33l-4.44-21.33l-15.56-45.33L51.56,176L16,119.56L4.89,96
	L0,84.89L12.44,72l13.78-8.89h14.22l8,7.56l6.22,7.56l-3.11,3.11L72,85.78L86.67,84l12.44,3.56l24,7.11l21.33,2.67l23.56,7.56
	l4.89-5.78L204,114.22l22.67,19.11l18.22,15.56c0,0,7.56,14.67,8.44,16c0.89,1.33,24.89,24,24.89,24l18.67,25.78v20.89l-9.78,14.67
	l-49.78-7.56l-23.56-12.44l3.11,12l5.56,13.33l3.78,16.44l-3.78,14.67l-3.33,4.89l-6.67-4l-29.33-2.67l-49.97-1.33l-20.03-4
	L91.78,283.56z"/>
<g>
	<g>
		<g>
			<path class="st3" d="M105.58,97.21c-0.01,0.06-0.02,0.12-0.03,0.17c0.04-0.02,0.08-0.05,0.12-0.07
				C105.66,97.2,105.64,97.12,105.58,97.21z"/>
		</g>
		<g>
			<g>
				<path class="st3" d="M186.51,113.77c0.44-0.26,0.84-0.43,1.38-0.6c1.27-0.32,2.34-0.25,3.46-0.75c1.04-0.47,2.06-0.52,3.28-0.69
					c0.95-0.13,1.88-0.4,2.8-0.7l-6.36-3.09c-1.99,0.59-3.84,1.44-5.56,2.52c-0.59,0.33-0.99-0.04-1.74-0.1
					c-1.44,0.17-2.74,1.54-4.31,1.4c-0.69,0.02-1.39-0.22-2.05-0.15c-0.98,0.21-1.51,1.2-2.46,1.1c-0.99-0.18-1.64,0.56-2.23,1.24
					c-0.42,0.44-0.7,0.49-1,0.43c-0.42-0.07-0.73-0.41-1-0.23c-0.36,0.3-0.48,0.86-0.87,1.19c-0.31,0.31-0.29-0.11-0.51-0.24
					c-0.29-0.29-1.07-0.44-1.43-0.46c-0.07-0.05,0.01-0.15,0.04-0.23c0.22-0.54,0.16-0.7,0.44-1.32c0.11-0.67,0.29-1.37,0.54-2.07
					c0.62-1.63,2.06-3.36,2.65-5.17c0.36-0.95,0.57-1.92,1-2.76c0.39-0.76,0.87-1.5,1.36-2.21c0.21-0.3,0.43-0.67,0.52-1.02
					l-1.56-0.76l-4.89,5.78l-12.2-3.91c-1.56,0.17-3.51-0.13-5.06-0.41c-0.63-0.11-1.07-0.25-1.18-0.54
					c-0.01-0.31,0.12-0.62,0.33-0.95l-5.44-1.75l-16.56-2.07c-1.13,0.22-2.15,0.55-3.37,0.63c-1.04,0.11-2.16-0.18-3.22-0.16
					c-3.44-0.03-5.64,2.1-8.86,2.35c-1.27-0.03-3.04,0.55-4.02-0.36c-0.41-0.58-1.08-0.79-1.78-0.67c-0.36,0.05-0.65,0.12-0.96,0.27
					c0,0.03,0.01,0.07,0.01,0.1c-0.04,0.02-0.09,0.05-0.16,0.11c-0.01,0.03-0.02,0.07-0.02,0.11c0.02-0.09,0.03-0.17,0.05-0.25
					c-0.04,0.02-0.07,0.04-0.11,0.06c-0.86,0.5-0.93,0.88-1.55,0.9c-0.53,0.01-1.77-0.08-2.4,0.11c-0.81,0.25-1.46,0.68-2.21,0.26
					c-0.87-0.19-1.77,0.14-2.96,0.17c-3.96,0.23,0.63-2.15,1.81-2.72c1-0.48,2.05-1.18,2.96-1.79c1.59-1.35,3.53-2.77,5.32-3.87
					c0.24-0.18,0.42-0.4,0.54-0.63l-5.75-1.7c-1.8,1.37-3.59,2.58-5.9,3.54c-2.86,1.23-5.86,2.7-8.46,4.26
					c-0.78,0.51,0.05,0.86,0.39,1.24c0.35,0.37-1.68,0.41-1.36,0.89c0.58,0.49-0.34,0.7-0.59,1c-0.14,0.24-0.6,0.4-0.26,0.83
					c0.14,0.19,0.26,0.35,0.45,0.54c0.82,1.24,2.96,1.8,4.24,1.94c0.26,0.02,0.67,0.14,0.59,0.38c0.04,0.17-0.39,0.34-0.55,0.47
					c-0.12,0.08-0.15,0.09-0.36,0.25c-0.1,0.08-0.19,0.15-0.24,0.22c-0.03,0.03-0.05,0.07-0.06,0.1c-0.02,0.09,0.06,0.12,0.09,0.14
					c1.64,0.34,3.58,0.67,5.29,0.58c0.77,0.04,1.73-0.23,2.46-0.29c0.75,0.01,1.28,0.1,2.02-0.01c0.46-0.01,0.88,0.12,1.71,0.06
					c3.63-0.61,7.45-0.42,11.12-0.36c4-0.6,7.87-1.82,12.05-1.75c3.34,0.05-0.67-3.51-0.77-4.11c2.33,1.16,5.01,4.24,7.9,4.13
					c0.54,0.03,1.17-0.03,1.61,0.21c0.2,0.16,0.07,0.42-0.07,1.03c-0.42,1.55-0.37,3.68,0.67,4.98c1.85,2.46,5.34,0.81,7.84,0.51
					c2.48-0.73,5.55-0.57,8.18-0.85c2.86-0.37,5.08-1.37,8.18-1.2c2.02,0.1,4.84-0.11,6.52-0.74c0.64-0.23,1.25-0.13,0.89,0.74
					c-0.28,1.36-0.98,2.6-1.82,3.8c-2.38,3.06-4.13,5.85-6.25,8.84c-1.51,2.51,2.62,1.54,3.91,1.61c1.63-0.07-0.41,0.68,0.96,0.44
					c3.92-0.97,8.67,0.53,11.97-2.27c0.45-0.42,0.84-0.69,1.31-0.76c0.37-0.06,1.04-0.01,1.31,0.06c1.77,0.14,3.13-1.61,4.96-2.02
					c1.01-0.34,2.23-0.77,3.15-1.05C185.27,115.27,185.66,114.26,186.51,113.77z M106.87,103.06c0.09-0.02,0.21-0.05,0.42-0.09
					c0,0.01,0,0.02,0,0.02C107.12,103.02,106.97,103.05,106.87,103.06z M108.27,102.86c-0.08-0.29-0.03-0.59,0.14-0.59
					c-0.08,0.2,0.34,0.34,0.61,0.57C108.81,102.82,108.55,102.83,108.27,102.86z M135.24,102.66c0.16,0.37-0.8,0.17-1.09-0.01
					c-0.06-0.05-0.06-0.02,0.01,0l0.1,0c0.9-0.23-0.32-0.6,0.19-0.97c0.22-0.11,0.76-0.1,0.8,0.05c0.04,0.1-0.06,0.28-0.1,0.46
					C135.11,102.38,135.22,102.54,135.24,102.66z M146.04,101.98c-0.08,0.19-0.09,0.28-0.08,0.74l-0.04,0.1
					c-0.54,0.24-0.59,0.1-0.62,0.1c-0.02-0.03-0.06,0.03,0.01-0.1c0.07-0.17,0.31-0.58,0.42-0.75c0.09-0.17,0.22-0.51,0.48-0.58
					c0.14-0.04,0.26,0.03,0.26,0.09C146.47,101.73,146.16,101.73,146.04,101.98z"/>
			</g>
		</g>
	</g>
</g>
<polygon class="st4" points="100,42.22 85.33,51.11 74.24,55.56 80.44,67.11 87.12,74.67 93.33,85.9 93.33,89.33 105.78,92.89 
	123.11,94.67 133.15,98.67 144.44,104 164.89,104 164.89,94.22 175.78,91.56 180.89,82.67 180.89,75.11 190.67,73.11 194.67,65.33 
	186.67,58.04 190.67,48.89 186.22,48.89 168,58.04 108.89,58.04 "/>
<polygon class="st1" points="26.22,63.11 45.33,43.56 79.56,24.44 99.11,10.22 120.89,6.22 99.11,29.33 80,48.89 54.67,78.22 
	40.44,63.11 "/>
<path class="st3" d="M185.24,71.62c0.04-0.64,0.52-0.88,0.79-1.6c0.15-0.72-0.05-1.48,0.24-1.92l0.03-0.05
	c0.32-0.47-0.06-1.26-0.14-1.78c-0.07-0.45,0.16-0.75-0.28-1.28c-0.22-0.18-0.47-0.65-0.71-0.72c-0.05,0.12,0.07,0.61-0.11,1.15
	c-0.06,0.26-0.13,0.55-0.09,0.88c0.04,0.41,0.19,0.88,0.24,1.23c0.22,1.05-0.2,1.42-0.81,1.99c-1.48,0.85-0.93,2.95-0.46,4.28
	c0.44,1.58-0.89-0.18-1.34-0.5c-0.29-0.21-0.11,0.39-0.43,0.44c-0.12,0.02-0.29-0.01-0.48-0.06c-0.78-0.35-1.57-0.88-2.19-1.31
	c-0.35-0.4-0.65-0.9-0.96-1.34c-0.75-1.04-1.95-1.26-2.8-2.4c-0.73-1.28-1.79-2.52-2.49-3.75c-0.35-0.59-0.01-1.06-0.41-1.7
	c-0.62-1.54-1.81-2.59-2.98-3.86c-0.28-0.25-0.77-1.02-1.02-0.51c-0.19,0.37-0.29,1.18-0.44,1.2c-0.1,0.1-0.38,0.11-0.5,0.38
	c-0.35,0.97-0.61,2.7-0.6,3.78c0.23,1.51,1.03,2.99,0.55,4.59c-0.55,1.67-0.56,3.68-0.99,5.24c-0.19,0.38-0.27,0.41-0.64,0.6
	c-0.19,0.18-0.36,0.27-0.56,0.38c-0.32,0.5-0.07,1.03-0.78,0.39c-0.44-0.18-0.17,1.23-0.68,0.75c-0.08,0.01,0.02,0.49,0,0.67
	c0,0.06-0.02,0.07-0.04-0.02c-0.23-0.49-0.38-3.07-1.23-1.73c-0.29,0.43-0.77,0.78-0.73,0.11c0.03-0.49,0.42-1.22,0.4-1.48
	c-0.26-1.53-2.13-1.81-2.95-3c-0.85-1.23-0.15-2.28-1.07-3.68c-0.51-0.79-1.01-1.88-1.33-2.64c-0.22-0.44-0.33-0.28-0.69-0.44
	c-0.09-0.01-0.18-0.03-0.26,0.01c-0.63,0.6-1.94,0.54-2.07-0.54c-0.03-0.95,0.09-2-0.74-2.72c-0.57-0.4-1.36-0.7-1.75-1.26
	c-0.14-0.17-0.32-0.48-0.51-0.41c-0.09,0.03-0.19,0.12-0.32,0.2c-0.35,0.22-0.8,0.44-1.23,0.46c-2.46-0.63-3.31,0.26-2.93,2.81
	c0.36,1.51,0.61,1.64,0.67,0.03c0.03-0.35,0.13-0.1,0.24,0.33c0.25,0.89,0.21,0.53,0.44,0.13c0.03-0.07,0.15,0.04,0.16,0.14
	c0.18,0.57,0.42,2.75-0.12,2.89c-0.51,0.12-1.25-0.94-1.54-0.08c-0.24,1.46,0.04,4.14,0.19,5.42c0.29,1.03,0.14,1.98-0.28,2.95
	c-0.55,1.38-0.15,3.31,0.1,4.84c0.06,0.45-0.02,0.69-0.2,0.89c-0.98,0.9,0.18,2.31,0.34,3.35c0.27,1.28-0.86,3.58-0.82,4.85
	c0.01,0.83,0.23,1.51,0.39,2.42c0.33,1.88-0.59-1.12-0.76-1.42c-0.6-0.87-0.64,0.88-0.71,1.2c-0.26,0.83-0.59,0.88-0.76-0.01
	c-0.03-0.1-0.04-0.24-0.07-0.22c-0.39,1.57-0.56-1.19-0.57-2.02c-0.01-0.62-0.08-1.49-0.87-1.39c-0.21,0-0.77,0-0.96-0.25
	c-0.18-0.25-0.27-0.58-0.42-0.87c-0.34-0.74-1.06-1.39-0.95-1.47c0.14-0.12,1.19,0,0.82-0.34c-0.29-0.2-1.37-0.42-1.71-1.06
	c-0.97-1.98-0.76-4.67-2.06-6.53c-1.23-1.79-2.13-4.35-3.78-5.88c-0.33-0.22-0.43-0.34-0.85-0.34c-0.48,0.09-0.56,0.36-0.97,0.5
	c-0.64,0.08-1.19-0.13-1.71-0.51c-0.77-0.56-2.11-2.53-2.58-0.64c-0.08,0.3-0.08,0.33-0.25,0.66c-0.41,0.69-1.61,1.27-2.16,1.77
	c-0.68,0.85-1.36,3.83-1.61,5.49c-0.12,0.65-0.18,1.01-0.2,0.94c0.04-3.31-0.27-6.67-0.22-10.08c-0.04-0.51-0.06-0.65-0.3-1.1
	c-0.47-0.62-0.91-0.91-0.7-2.07c0.08-0.33,0.15-0.81,0.22-0.96c0.25-1.15,1-3.08,0.32-3.98c-0.56,0.18-0.86,1.14-1.26,1.6
	c-0.69,1.05-1.67,1.43-2.77,2.21c-1.27,0.97-2.36,2.33-3.52,3.32c-0.57,0.48-1.15,0.89-1.82,0.52c-0.86-0.57-1.51-1.36-2-1.28
	c-0.79,0.19-1.78,0.02-2.4,0.63c-0.36,0.29-0.45,0.43-0.93,0.33c-1.43-0.37-2.67,0.51-3.73,1.37c-1.24,1.08-2.63,1.15-4.14,1.45
	c-1.26,0.34-2.81,0.98-3.93,0.95c-0.48,0-0.94,0.06-1.34,0.06c-0.35,0,0.5-0.47,0.17-0.48c-0.9,0.03,1.53-1.5,1.74-1.83
	c0.46-0.34,0.54-0.75,0.52-1.24c0.05-0.28,0.54-1.12,1.07-1.53c0.68-0.54,2.32-1.02,1.67-2.16c-0.58-0.92-2.03-2.21-3.43-2.37
	c-0.7,0-1.24,0.54-1.66,1.03c-0.45,0.65-0.48,0.1-0.93,0.77c-0.26,0.36-0.55,0.93-0.72,1.37c-0.29,0.66-0.91,1.34-1.24,1.8
	c-0.05,0.15-0.01,0.15,0.01,0.26c0.18,0.35-0.12,0.82-0.41,1.02c-1.76,0.98-2.34,2.85-3.9,4.41c-0.56,0.45-1.01,0.9-1.44,1.37
	l0.98,1.11l1.67,3.03c1.08-0.55,1.71-0.76,0.44,0.33c-0.05,0.04-0.12,0.09-0.18,0.14l0.18,0.32c0.76-0.42,1.41-0.58,2.29-0.54
	c0.4-0.06,1.27-0.63,1.83-0.56c0.43,0.01,0.47,0.01,0.78,0.11c0.32,0.08,0.24,0.47,0.32,0.75c0.04,0.06,0.09,0.07,0.2-0.04
	c0.16-0.18,1.11-1.09,1.59-1.35c0.64-0.34,1.02,0.28,1.85,0.01c0.39-0.1,7.96-4.19,6.64-1.94c-1.88,2.67-4.72,5.23-5.56,8.49
	c-0.25,0.86-0.99,1.99,0.01,2.91c1.63,1.59,4.32,3.49,5.73,0.61c0.55-0.92,0.91-1.92,1.69-2.7c1.56-1.72,2.77-2.72,4.24-4.23
	c0.74-0.76,1.4-2.01,2.29-2.42c0.41-0.25,0.96-0.61,1.21-0.75c0.22-0.15,0.22-0.43,0.35-0.59c0.08-0.05,0.15,0.02,0.23-0.14
	c0.12-0.2,0.2-0.07,0.34-0.08c0.13-0.05,0.3-0.21,0.42-0.17c0.09,0.05,0.15-0.04,0.16,0.01c-0.01,0.06-0.01,0.06-0.07,0.27
	c-0.03,0.11-0.07,0.22-0.07,0.24c0.01,0.01,0.03-0.03,0.1-0.13c0.18-0.2,0.14,0,0.12,0.15c-0.16,0.68,0.16,1.45,0.85,1.53
	c0.06,0.02,0.17,0.04,0.13,0.12c-0.25,0.45-0.87,0.64-1.01,1.65c-0.2,2.03,0.47,4.45,1.61,6.09c0.8,1.05,1.01,2.53,1.21,3.87
	c0.34,2.22,3.05,1.77,4.71,1.86c2.07,0.13,3.25-1.16,3.33-3.08c0.05-1.15-0.05-1.92,0.48-2.88c0.59-1.17,2.02-2.77,2.58-4.19
	c0.18-0.4,0.27-1.38,0.42-1.66c0.16-0.21,0.37-0.46,0.67-0.3c0.5,0.45,0.39,1.48,1.07,1.73c2.25,1.77,3.04,5.09,4.27,7.47
	c1.29,2.49,2.39,5.42,4.1,7.74c0.68,0.87,1.94,0.34,2.33,1.33c0.57,2.35,1.89,4.29,3.28,6.32h4.49c0-0.1-0.01-0.22-0.01-0.32
	c0-0.54,0.15-0.56,0.29-0.81c0.14-0.27,0.2-0.78,0.21-1.18c-0.03-0.99,0.2-1.65,0.27-2.77c-0.08-2.03-0.2-3.9-0.01-6.05
	c0.05-1.42,0.14-2.82,0.12-4.07c0.19-2.87,1.21-5.44,1.11-8.44c-0.1-2.17,0.57-4.45-0.14-6.6c-0.08-0.62,0.54,0.35,0.41-0.12
	c-0.05-0.51-0.59-1.54-0.01-1.81c0.73-0.63,0.11-1.64,0.11-2.69c-0.03-0.6-0.14-1.06,0.05-1.18c0.53,0.7,0.71,2.99,1.05,3.76
	c0.85,0.4,2.86,1.18,3.18,2.49c0.22,0.71,0.02,1.34,0.53,1.89c0.36,0.37,1.17,0.66,1.61,1.15c0.57,0.36,0.98,2.33,1.59,1.53
	c0.18-0.19,0.26-0.67,0.61-0.49c1.1,1.16,1.72,2.75,2.21,4.28c0.28,1.11,1.2,1.91,1.82,2.69c0.27,0.27,0.5,1.13,0.79,1.33
	c0.18,0.07,0.14-0.57,0.42-0.99c0.5-0.86,0.59-2.06,0.99-2.99c0.32-0.91,0.56-0.16,0.81,0.1c0.07,0.05,0.13-0.03,0.2-0.26
	c0.32-1.21,0.43-3,0.56-4.35c0.24-1.7,0.15-2.68,0.3-3.93c0.08-0.95,0.9-1.67,1.17-2.63c0.51-1.17-0.7-4.38,1.28-4.27
	c0.16,0.02,0.52,0.23,0.67,0.44c0.19,0.26,0.26,0.61,0.45,0.85c0.28,0.39,0.65,0.67,0.71,1.15c-0.43,1.73,0.77,2.14,2.46,2.5
	c1.29,0.22,1.51,1.31,1.9,2.4c0.45,1.09,1.84,1.72,2.66,2.09c0.04,0.02,0.07,0.02,0.11,0.04v-1.63l4.66-0.95
	C185.46,73.2,185.29,72.24,185.24,71.62z M104.67,77.4c0.03-0.06,0.07-0.11,0.1-0.17c0.03,0.01,0.05,0.02,0.08,0.03
	C104.79,77.31,104.73,77.36,104.67,77.4z M105.33,76.2c-0.01,0-0.01-0.01-0.01-0.01c0.09-0.19,0.17-0.36,0.22-0.46
	C105.5,75.83,105.44,75.96,105.33,76.2z M106.05,73.17c-0.18-0.37-0.32-0.74-0.38-1.03c0.39-0.13,0.59-0.71,0.87-0.47
	C106.36,72.14,106.2,72.64,106.05,73.17z M169.44,61.11c-0.01-0.05-0.02-0.09,0-0.14l0.3,0.1L169.44,61.11z M170.8,65.84
	c0.01-0.06,0.02-0.1,0.03-0.16c0.08,0.08,0.16,0.17,0.22,0.26C170.95,65.89,170.87,65.86,170.8,65.84z"/>
<polygon class="st2" points="128.89,65.33 156.44,63.11 168,58.04 168,44.89 165.78,16 144.44,0 111.11,3.11 99.11,10.22 
	93.33,32.67 93.33,49.78 102.22,58.04 116.44,65.33 "/>
<polygon class="st4" points="126.22,55.56 139.11,55.56 150.67,55.56 150.67,49.78 144.44,45.78 133.15,42.22 126.22,47.11 "/>
<g>
	<path class="st3" d="M191.99,360.62c0.38,0.13,0.89-2.97,1.06-1.65c0.06,0.35,0.19,1.11,0.67,0.91c0.17-0.08,0.31-0.18,0.49-0.13
		c0.45,0.07,0.77,0.35,1.28,0.33c0.65,0,1.35-0.51,2.05-0.47c0.32,0.02,0.75,0.13,0.98,0.24c0.46,0.14,0.77,0.56,1.28,0.53
		c0.34-0.1,0.65-0.31,0.96-0.15c0.26,0.03,0.53,0.14,0.83,0.08c0.46-0.14,0.76-0.59,1.29-0.6c0.68-0.01,1.33,0.49,1.92,0.74
		c1,0.42,1.82,0.36,2.84,0.25c1.29-0.03,2.61-0.34,3.84-0.71c0.68-0.14,0.95-0.83,1.38-1.21c0.25-0.19,0.37-0.09,0.55,0.03
		c0.54,0.53,1.05-0.69,1.38-0.88c0.19-0.15,0.33-0.42,0.59-0.34c0.26,0.21,0.35,0.33,0.73,0.29c0.86,0.1,1.75,0.1,2.52-0.32
		c0.23-0.17,0.46-0.42,0.57-0.58c0.12-0.19,0.23-0.1,0.36,0.02c0.45,0.01,0.52,0.93,0.98,1.02c0.62,0.1,0.98-1.03,1.52-0.44
		c0.07,0.03,0.08-0.07,0.08-0.13c-0.02-0.69-0.47-2.76-1.25-2.48c-0.16,0.01-0.16-0.09-0.29-0.22c-0.12-0.13-0.35-0.23-0.49-0.36
		c-0.23-0.19-0.54-0.59-0.84-0.59c-0.47,0.1-0.63,1.18-0.86,0.64c-0.08-0.21-0.16-0.73-0.41-0.76c-0.2,0-0.23,0.03-0.44,0.09
		c-0.39,0.11-0.72,0.03-1-0.28c-0.26-0.26-0.56-0.72-0.85-0.89c-0.28-0.06-0.52,0.42-0.71,0.45c-0.13-0.02-0.34-0.03-0.46-0.13
		c-0.12-0.14-0.19-0.37-0.28-0.53c-0.26-0.56-0.54-0.44-0.69-0.76c-0.22-0.33-0.31,0-0.48,0.25c-0.2,0.18-0.49,0.32-0.65,0.49
		c-0.16,0.23-0.25,0.23-0.37,0.33c-0.06,0.09-0.16,0.18-0.25,0.15c-0.17-0.05-0.52-0.2-0.75-0.19c-0.45,0.24-0.67,0.72-1.22,0.92
		c-0.33,0.12-0.58-0.03-0.91-0.14c-0.27-0.09-0.45-0.05-0.71,0.07c-0.33-0.03-0.56,0.19-0.8,0.1c-0.18,0-0.32-0.05-0.47-0.1
		c-0.33,0.16-0.3,0.15-0.59-0.23c-0.16-0.25-0.69-0.38-0.92-0.59c-0.41-0.42-0.83-1.23-1.29-1.58c-0.59,0-1.22,0.66-1.85,0.5
		c-0.3-0.02-0.72-0.08-1.06-0.07c-0.43-0.08-0.98-0.1-1.41,0.07c-0.43,0.08-0.93-0.23-1.33-0.04c-0.67-0.01-1.11-0.08-1.7,0.38
		c-0.34,0.2-0.52,1.05-0.93,1.21c-0.39-0.09-0.5-0.93-0.79-1.09c-0.27,0.05-0.38,0.61-0.59,0.75c-0.32,0.45-0.66,0.1-1.06,0.32
		c-0.39,0.23-0.7,0.27-1.12,0.33c-0.57,0.11-1.2,0.26-1.74,0.33c-0.3,0.12-0.67-0.21-0.93,0.09c-0.45,0.83-0.43,3.09-0.39,4.22
		c0.03,0.73,0.09,1.27,0.15,1.51c0.07,0.3,0.16,0.3,0.24,0.26c0.28-0.1,0.31,0,0.57,0.15c0.18,0.12,0.32,0.25,0.57,0.15
		c0.42,0.07,0.72-0.29,0.85,0.1c0.06,0.16,0.16,0.34,0.33,0.33L191.99,360.62z M195.12,358.18c0,0.01,0,0.02,0,0.02
		c-0.03,0.02-0.05,0.04-0.06,0.05C195.07,358.23,195.08,358.21,195.12,358.18z M195.37,358.17c-0.03-0.03-0.07-0.04-0.11-0.03
		c-0.01-0.29,0.01-0.59,0.03-0.58C195.28,357.75,195.33,357.92,195.37,358.17z M194.89,352.32c0.04-0.12,0.05,0.05,0.06,0.22
		c-0.02,0.01-0.04,0.04-0.07,0.1c0,0.03,0,0.07-0.01,0.1C194.88,352.59,194.89,352.44,194.89,352.32z"/>
</g>
<g>
	<path class="st3" d="M183.61,361.94c0.25,0.53,1.51,0.51,1.92,0.93c0.03,0.05-0.02,0.09-0.11,0.13c-0.44,0.16-1.18,0.43-0.93,1.03
		c0.09,0.22,0.17,0.39,0.14,0.63c-0.08,0.68-0.39,1.22-0.34,2.01c0.05,0.88,0.45,1.92,0.18,2.86c-0.16,0.83-0.54,1.66-0.83,2.21
		c-0.37,0.49-0.14,1.19-0.12,1.75c-0.07,0.45-0.36,1.04-0.36,1.55c-0.02,0.71,0.43,1.27,0.35,1.98c-0.15,1.48-1.02,2.72-1.3,4.2
		c-0.38,2.32-0.27,4.69-0.13,7.02c0.08,0.65,0.08,1.38,0.24,1.98c0.03,0.4,0.19,0.92,0.49,1.24c0.21,0.3,0.59,0.79,0.53,1.17
		c-0.05,0.34-0.36,0.58-0.26,1c0.15,0.82,0.84,1.53,1.13,2.24c0.2,0.51-0.13,0.96-0.06,1.47c0.21,0.71,0.63,1.48,1.19,1.92
		c1.07,0.77,2.34,1.31,3.65,1.19c0.32-0.01,0.62-0.19,0.91-0.15c0.25,0.24,0.6,0.3,0.73,0.62c0.21,0.42,0.4,0.88,0.91,0.95
		c0.72,0.23,1.66-0.38,2.17,0.31c0.45,0.21,0.24-1.23,0.18-1.46c-0.14-0.47-0.38-0.88-0.79-1.06c-0.22-0.06-0.44-0.03-0.58-0.25
		c-0.23-0.32-0.47-0.39-0.78-0.7c-0.29-0.26-0.57-0.62-0.96-0.82c-0.39-0.15-0.93,0.11-1.14,0.23c-0.24,0.1-0.3,0.06-0.23-0.32
		c0.06-0.32-0.03-0.53-0.39-0.57c-1.04-0.08-0.99-0.57-0.57-1.27c0.07-0.16,0.23-0.37,0.26-0.5c0.03-0.18-0.24-0.26-0.35-0.35
		c-0.24-0.11-0.06-0.23-0.04-0.42c0.14-0.17,0.4-0.27,0.58-0.39c0.49-0.28,0.39-0.62,0.7-0.85c0.27-0.27,0-0.45-0.21-0.69
		c-0.35-0.63-0.42-1.07-0.81-1.79c0.01-0.27,0.28-0.87,0.24-1.24c-0.31-0.83-0.79-1.34-0.75-2.3c0.05-0.43,0.28-0.68,0.32-1.14
		c0.05-0.44-0.1-0.81-0.07-1.29c-0.08-0.45,0-0.86,0.13-1.34c0.01-0.17-0.12-0.33-0.05-0.48c0.21-0.29,0.64-0.75,0.7-1.08
		c0.06-0.21,0.17-0.58,0.36-0.78c0.23-0.27,0.26-0.26,0.5-0.53c0.3-0.51,0.94-0.71,1-1.27c-0.08-0.62-0.2-1.22-0.29-1.82
		c0.01-0.83,0.26-1.64,0.35-2.49c0.16-0.59,0.2-1.33,0.16-1.93c0.01-0.38,0.11-0.81,0.22-1.13c0.11-0.69,0.12-1.5,0.23-2.19
		c-0.03-0.51-0.05-1.2-0.37-1.65c-0.27-0.35-0.79-0.72-0.84-1.21c-0.03-0.56,1.42-1,1.01-1.49c-0.65-0.51-1-1.07-0.87-1.89
		c-0.2-0.77-0.51-1.43-0.66-2.24c-0.31-1.06-0.72-2.34-1.08-3.29c-0.1-0.39-0.09-0.61-0.34-0.9c-1.16-0.64-3.92,0.88-4.71,1.39
		c-0.41,0.3-0.33,0.36-0.11,0.72c0.03,0.18-0.09,0.58-0.08,0.8c0.13,0.31,0.18,0.53,0.28,0.78c0.04,0.15,0.18,0.24,0.12,0.36
		c-0.06,0.14-0.42,0.34-0.33,0.59L183.61,361.94z M185.74,366.28c-0.01,0-0.02,0-0.02,0c-0.02-0.04-0.04-0.07-0.05-0.08
		C185.69,366.22,185.71,366.24,185.74,366.28z M185.75,366.63c0.04-0.04,0.04-0.09,0.04-0.15c0.29-0.01,0.59,0.01,0.58,0.05
		C186.17,366.5,186,366.58,185.75,366.63z M191.6,365.92c0.12,0.06-0.05,0.09-0.22,0.09c-0.01-0.03-0.04-0.07-0.1-0.11
		c-0.03,0-0.07-0.01-0.1-0.01C191.34,365.9,191.49,365.9,191.6,365.92z"/>
</g>
<g>
	<path class="st3" d="M95.74,339.26c1.49,0.83,4.07,0.05,5.92-0.04c0.68,0.22,0.23,0.91,0.55,1.43c0.89,1.3,3.02,0.85,4.37,1.27
		c2.22,0.58,3.11,0.78,5.76,1.46c1.89,0.49,3.84,1.35,5.77,1.38c2.55-0.05,5.08-0.23,7.93,0.28c3.22,0.35,6.37,1.3,9.55,1.44
		c1.61,0.26,3.14,0.88,4.76,0.73c0.76-0.02,1.54-0.4,1.99-0.39c-0.05,0.11-0.23,0.35-0.27,0.61c-0.17,0.64-0.08,1.31-0.02,2
		c0.17,2.98-0.68,6.6-1.88,9.47c-0.58,1.75-0.81,3.26-1.67,5.04c-1.5,2.77-1.56,5.12-3.02,8.18c-0.66,1.25-1.3,2.66-1.82,3.93
		c-1.48,4.87-4.09,9-6.1,13.56c-0.75,1.42-1.81,2.76-2.63,4.17c-0.74,1.5-1.69,3.28-2.57,4.6c-1.09,1.35-2.89,3.02-3.37,4.57
		c-0.17,0.4-0.29,0.78-0.62,1.07c-0.2,0.2-0.79,0.3-1.02,0.32c-1.12,0.12-1.63,1.3-2.74,1.72c-0.68,0.33-1.38,0.64-2.1,0.85
		c-1.13,0.28-1.78,1.37-2.87,1.47c-0.49,0.09-0.72,0.03-1.17-0.03c-0.89-0.25-1.57-0.38-2.47-0.57c-0.6-0.23-1.15-0.56-1.84-0.89
		c-1.41-0.62-2.87-1.28-4.18-1.97c-2.09-1.48-4.56-2.89-6.81-4.23c-1.16-0.62-2.23-1.06-3.37-1.4c-0.82-0.1-1.46-0.4-2.13-0.87
		c-0.44-0.28-0.73-0.99-1.17-1.28c-0.31-0.24-0.67-0.42-0.96-0.68c-0.34-0.27-0.78-0.68-1.05-0.95c-0.46-0.46-0.79-1.19-1.25-1.6
		c-1.6-1.34-5.69-0.94-5.79-3.56c-0.17-0.65-0.39-1.04-0.69-0.88c-0.32,0.33-0.28,0.88-0.25,1.38c0.04,0.73,0.13,1.56,0.53,2.32
		c1.33,1.58,3.48,2.08,4.92,3.54c1.19,1.35,2.72,2.39,4.23,3.39c1.18,0.77,1.83,1.69,2.69,2.05c1.35,0.56,2.66-0.27,2.79,0.86
		c0.11,0.97,0.9,1.74,1.81,2.04c1.41,0.57,2.79,1.1,4.18,1.89c1.53,0.94,2.33,1.73,3.35,2.67c0.6,0.53,1.04,1.13,1.83,1.54
		c2.19,1.13,4.85,1.47,7.12,0.71c0.54-0.1,0.9-0.23,1.36-0.03c0.35,0.13,0.81,0.4,1.33,0.28c1.14-0.34,2.3-1.08,3.57-1.07
		c0.74-0.01,1.37,0.12,2.05-0.01c0.86-0.39,1.17-1.32,2.06-1.56c1.53-0.23,1.39-2,2.3-3c0.76-0.93,2.34-1.29,2.8-1.93
		c0.22-0.31-0.65-0.77-0.34-0.98c1.35-1.13,3.12-2.56,3.83-4.38c0.64-1.23,1.58-2.65,1.87-3.83c1.04-2.84,2.99-6.05,4.71-8.18
		c1.14-1.26,1.36-3.22,1.69-4.82c0.22-0.79,0.86-0.93,1.26-1.53c0.45-0.79,0.7-1.68,0.82-2.61c0.11-0.68,0.21-1.4,0.72-1.83
		c0.33-0.25,0.46-0.4,0.5-0.72c0.11-0.21,0.34-0.95,0.56-1.39c0.62-1.59,2.38-3.16,2.81-4.99c0.21-0.75,0.27-1.51,0.48-2.24
		c0.26-1,1.2-1.8,1.79-2.45c0.77-1.09,0.9-2.92,1.18-4.31c0.12-2.69,0.79-5.01,1.11-7.59c0.23-2.12,1.84-5.22,1.66-7.89
		c-0.23-4.93-5.07-4.94-8.79-4.9c-2.71,0.05-5.95-0.05-8.71-0.83c-1.62-0.21-3.01,0.2-4.71-0.09c-1.84-0.47-3.8-0.93-5.63-0.29
		c-1.94,0.58-4.38,0.76-6.24-0.25c-0.71-0.71-0.94-1.42-2.15-1.56c-0.55-0.09-1.22,0.07-1.56,0.29c-0.38,0.24-0.66,0.45-1.14,0.27
		c-0.69-0.24-1.56-0.51-2.28-0.76c-1.11-0.39-2.24-0.27-3.18-0.61c-0.74-0.21-1.46-0.44-2.19-0.58c-3.33-0.59-6.63-1.86-9.69-3.39
		c-2.75-1.29-5.34-2.36-7.58-4.2c-0.64-0.5-1.31-0.79-2.11-0.39c-1.08,0.52-1.94,2.23-1.83,3.36c0.14,0.83,0.76,1.09,1.37,1.41
		c0.89,0.43,2.13,1.18,3.02,1.93c1.47,1.21,3.28,2.32,5.15,2.74c1.71,0.56,2.47,1.44,3.86,2.3L95.74,339.26z M112.9,343.29
		c0,0.01,0,0.02,0,0.02c-0.15-0.01-0.27-0.02-0.36-0.02C112.61,343.28,112.71,343.29,112.9,343.29z M114.31,343.53
		c-0.17-0.06-0.38-0.11-0.61-0.14c0.01-0.29,0.12-0.58,0.25-0.54C113.84,343.03,114.14,343.25,114.31,343.53z M112.55,337.22
		c0.24-0.07,0.27,0.11,0.27,0.28c-0.1-0.01-0.23-0.01-0.39,0.02c-0.01,0.03-0.03,0.07-0.05,0.1
		C112.43,337.46,112.49,337.32,112.55,337.22z"/>
</g>
<g>
	<path class="st3" d="M56.32,71.96c0.32-0.1-0.36-1.34-0.62-1.8c-0.19-0.32-0.45-0.8,0.19-0.38c0.32,0.23,0.71,0.43,1.05,0.37
		c0.32-0.15,0.18-0.8,0.42-0.91c0.14-0.29,0.3-0.35,0.55-0.61c0.52-0.38,1.29-0.81,1.56-1.45c0.06-0.76,0.42-1.69,1.16-2.2
		c0.48-0.35,1.14-0.73,1.44-1.1c0.3-0.12,0.62-0.2,1.06-0.47c0.36-0.25,0.24-1.31,0.43-1.4c0.27,0.02,0.57,0.18,0.83-0.02
		c0.31-0.17,0.32-0.46,0.4-0.74c0.16-0.5,0.13-1.19,0.52-1.54c0.79-0.77,1.79-1.2,2.7-1.76c1.15-0.67,2.08-1.89,2.94-2.97
		c0.44-0.55,1.19-1,1.36-1.59c0.16-0.33,0.2-0.34,0.46-0.67c0.19-0.24,0.42-0.34,0.63-0.54c0.3-0.44,0.41-0.76,0.67-1.15
		c0.19-0.39,0.46-0.54,0.67-0.9c0.14-0.41-0.04-1.02-0.04-1.44c0-0.23,0.16-0.14,0.31-0.09c0.3,0.11,0.36,0.24,0.55,0.11
		c0.07-0.27,0.24-0.69,0.47-0.93c0.25-0.27,0.27-0.51,0.25-0.85c-0.02-0.27-0.15-0.57,0-0.81c0.1-0.11,0.15-0.18,0.41-0.19
		c0.08-0.01,0.1,0,0.2-0.04c0.15-0.11,0.35-0.3,0.62-0.37c0.89-0.72,1-0.91,1.54-1.45c0.28-0.22,0.71-0.53,0.91-0.82
		c0.2-0.28,0.26-0.52,0.41-0.87c0.16-0.35-0.13-0.7,0.22-0.93c0.17-0.1,0.38,0.06,0.59,0.02c0.14-0.03,0.12-0.09,0.33-0.18
		c0.1-0.01,0.12-0.01,0.28-0.03c0.39-0.05,0.64,0.3,1.04,0.16c0.4-0.53-0.36-2.26,0.98-1.71c0.21-0.01,0.31-0.09,0.25-0.24
		c-0.16-0.27-0.27-0.3-0.57-0.46c-0.4,0.01-1.22-0.74-1.7-0.49c-0.35,0.15-0.33,0.47-0.67,0.48c-0.17,0-0.21,0.26-0.42,0.24
		c-0.44,0.01-0.63-0.02-1.07,0.15c-0.34,0.18-1.17,0.46-1.23,0.58c-0.12,0.36,0.39,1.3,0.24,1.29c-0.24-0.1-0.61-0.45-0.87-0.56
		c-0.64-0.36-0.61,0.52-0.83,0.86c-0.22,0.64-1.06,0.81-1.62,0.69c-0.5-0.07-0.6-0.11-0.92,0.08c-0.16,0.13-0.46,0.24-0.53,0.42
		c-0.12,0.44,0.17,1.1-0.23,1.07c-0.8-0.41-0.83,0.32-1.72,0.09c-0.22-0.05-0.58-0.18-0.6,0.13c-0.04,0.1-0.03,0.29-0.2,0.27
		c-0.66,0.04,0.26,0.89-0.12,1.19c-0.22,0.29-0.98,0-0.61,0.42c0.08,0.13,0.32,0.34,0.3,0.47c-0.26,0.26-0.82,0.12-1.14,0.39
		c-0.11,0.11-0.12,0.33-0.18,0.46c-0.1,0.19-0.17,0.2-0.22,0.36c-0.1,0.27-0.04,0.59-0.14,0.85c-0.19,0.33-0.28,0.67-0.58,0.98
		c-0.45,0.41-1.12,0.3-1.5,0.82c-0.25,0.3-0.03,0.65-0.16,0.94c-0.06,0.13-0.32,0.02-0.48,0.05c-0.13,0.04-0.18,0.16-0.28,0.22
		c-0.18,0.05-0.15,0.45-0.24,0.64c-0.04,0.07-0.11,0.1-0.19,0.1c-0.24-0.03-0.26,0.09-0.42,0.18c-0.15,0.04-0.21,0.04-0.35,0.08
		c-0.58,0.22-0.92,0.29-1.42,0.64c-0.26,0.18-0.21,0.23-0.55,0.32c-0.44,0.08-0.76-0.1-1.2-0.19c-0.37-0.03-0.3,0.34-0.47,0.64
		c-0.27,0.44-0.35,0.71-0.57,1.09c-0.17,0.24-0.28,0.55-0.44,0.76c-0.33,0.26-0.69,0.55-0.99,0.85c-0.67,0.41-1.07,1.19-1.53,1.75
		c-0.24,0.28-0.46,0.78-0.77,1.02c-0.23,0.31-0.66,0.41-0.88,0.67c-0.25,0.42-0.31,0.83-0.64,1.2c-0.17,0.24-0.72,0.39-0.72,0.77
		c-0.05,0.69,0.69,1.48,0.11,2.07c-0.35,0.47-1.79-0.61-1.78,0.21c0.05,0.44,0.76,0.83,0.43,1.12c-0.14,0.21-0.54,0.31-0.61,0.64
		c-0.18,0.73-0.58,1.25-0.97,1.89c-0.34,0.57-0.45,0.86-0.82,1.38c-0.43,0.49-0.67,1-0.97,1.57c-0.16,0.19-0.72,0.29-0.6,0.66
		c0.1,0.59,4.09,3.55,4.3,2.71c0-0.15-0.02-0.31,0.16-0.43c0.05-0.07,0.03-0.1,0.18-0.18c0.18-0.09,0.38-0.06,0.59-0.24
		c0.27-0.15,0.53-0.3,0.51-0.71c-0.01-0.69,0.27-0.49,0.6-0.61c0.14-0.04,0.4-0.05,0.54-0.11L56.32,71.96z M57.98,67.26
		c0.01,0.01,0.01,0.01,0.01,0.01c-0.01,0.04-0.01,0.08-0.02,0.1C57.98,67.35,57.98,67.32,57.98,67.26z M58.18,66.98
		c-0.05,0.01-0.09,0.05-0.12,0.1c-0.24-0.17-0.46-0.37-0.43-0.39C57.78,66.83,57.96,66.87,58.18,66.98z M53.14,63.94
		c-0.06-0.12,0.08-0.03,0.22,0.07c-0.01,0.03,0,0.07,0.02,0.14c0.02,0.02,0.05,0.05,0.08,0.07C53.34,64.12,53.22,64.02,53.14,63.94z
		"/>
</g>
<g>
	<path class="st3" d="M138.27,409.44c0.49-0.24,0.28-1.15,0.43-1.65c0.05-0.27,0.06-0.6,0.14-0.76c0.02-0.07,0.09-0.09,0.13-0.02
		c0.21,0.33,0.6,1.38,1.2,0.92c0.2-0.14,0.36-0.41,0.61-0.42c0.08-0.02,0.1-0.04,0.22-0.11c0.84-0.14,1.97-0.04,2.69-0.63
		c0.4-0.35,0.81-0.67,1.31-0.88c0.89-0.28,1.9-0.19,2.81-0.2c0.56,0.2,1.25,0.25,1.69-0.28c0.24-0.21,0.37-0.32,0.59-0.24
		c0.52,0.37,1.15,0.22,1.6-0.14c0.38-0.28,0.75-0.78,1.24-0.74c0.98-0.17,1.99,0.19,2.92,0.37c1.3,0.25,2.61,0.12,3.97-0.05
		c0.77-0.12,1.68-0.02,2.43-0.22c0.26-0.07,0.66-0.11,0.98-0.14c0.48-0.05,1.1-0.02,1.55-0.12c0.42-0.09,0.65-0.2,1.05-0.22
		c0.39-0.01,0.73-0.1,1.02-0.4c0.22-0.18,0.6-0.67,0.95-0.62c0.16,0.1,0.25,0.4,0.38,0.45c0.37,0.1,0.82-0.08,1.21-0.17
		c0.48-0.2,0.86-0.64,1.37-0.82c0.52,0.02,0.75,0.51,1.42,0.56c0.72,0.18,1.45,0.32,2.21,0.38c0.44,0.16,0.93,0.24,1.4,0.11
		c0.22-0.02,0.57-0.08,0.8-0.23c0.26-0.13,0.42-0.38,0.61-0.21c0.14,0.21,0.45,0.39,0.65,0.61c0.31,0.42,0.4,0.69,0.67,1.04
		c0.57,0.51,1.46-0.87,2-0.15c0.16,0.25,0.29,0.55,0.42,0.35c0.2-0.36,0.06-0.91-0.01-1.28c-0.04-0.64-0.29-1.15-0.64-1.41
		c-0.27-0.17-0.58,0-0.81-0.34c-0.23-0.19-0.45-0.32-0.66-0.6c-0.41-0.33-0.96-0.91-1.53-1.03c-0.4-0.13-1.04,1.25-1.1,0.52
		c-0.08-1.26-0.32-1.07-1.33-0.92c-0.83,0.06-1.26-0.39-1.74-1.07c-0.28-0.38-0.56-0.58-1.02-0.69c-0.28-0.03-0.61,0.32-0.81,0.42
		c-0.62,0.21-0.8-0.54-1.31-0.9c-0.59-0.6-0.88-0.96-1.62-0.71c-0.24,0.15-0.33,0.4-0.63,0.51c-0.19,0.05-0.41,0.02-0.59-0.05
		c-0.26-0.19-0.33,0.34-0.52,0.46c-0.26,0.13-0.55-0.2-0.82-0.31c-0.42-0.19-1.02,0.04-1.37,0.22c-0.32,0.37-0.94,0.43-1.39,0.6
		c-0.41,0.2-0.91-0.1-1.19-0.24c-0.37-0.14-0.81-0.12-1.19,0.01c-0.18,0.08-0.33,0.26-0.58,0.3c-0.23,0-0.37-0.15-0.63-0.16
		c-0.35-0.06-1,0.27-1.3,0.08c-0.34-0.13-0.8-0.51-1.12-0.51c-0.4-0.04-0.65-0.09-1.04-0.27c-0.6-0.3-0.95-0.42-1.33-0.96
		c-0.33-0.44-0.69-0.1-1.1,0.09c-0.54,0.21-0.66,0.17-1.09,0.41c-0.87,0.5-1.84,0.25-2.77,0.44c-0.38,0.08-0.81,0.09-1.23,0.19
		c-0.63,0.24-1.13,0.39-1.74,0.59c-0.36,0.07-0.5,0.02-0.82,0.05c-0.58,0.06-1.03,0.3-1.56,0.48c-0.27,0.06-0.52,0.19-0.78,0.29
		c-0.37,0.13-0.61,0.06-0.84,0.39c-0.45,0.57-0.43,1.6-1.23,1.75c-0.56-0.05-1.41-1.56-1.62-0.48c-0.04,0.41-0.1,0.71-0.4,0.98
		c-0.51,0.23-1.06,0.22-1.48,0.75c-0.88,0.56-1.9,1.05-2.78,1.64c-0.76,0.24-1.33,0.86-1.89,1c-1.28,0.12-0.53,1.47-0.15,2.63
		c0.55,1.15,0.8,2.08,1.61,2.66c0.27-0.15,0.41-0.48,0.8-0.42c0.35,0.04,0.64,0.11,1.02-0.1c0.41-0.26,0.69-0.97,1.2-0.48
		c0.1,0.05,0.12,0.08,0.25,0.06c0.07,0,0.16,0.05,0.23,0.04L138.27,409.44z M142.11,405.76c0,0.01,0.01,0.02,0.01,0.02
		c-0.03,0.03-0.05,0.06-0.07,0.07C142.06,405.83,142.08,405.8,142.11,405.76z M142.45,405.63c-0.05-0.02-0.11-0.01-0.16,0.02
		c-0.1-0.27-0.18-0.56-0.14-0.56C142.19,405.28,142.32,405.41,142.45,405.63z M139.9,400.32c0.02-0.13,0.09,0.02,0.16,0.18
		c-0.02,0.02-0.05,0.06-0.07,0.13c0.01,0.03,0.02,0.07,0.03,0.1C139.96,400.58,139.92,400.43,139.9,400.32z"/>
</g>
<g>
	<path class="st3" d="M139.47,400.38c0.23-0.02-0.1-0.77-0.15-1.19c-0.18-0.6-0.7-1-0.94-1.51c-0.02-0.42,1.01,0.08,1.18,0.12
		c-0.01,0,0.26,0.07,0.25,0.07c0.1,0.02,0.19,0.04,0.24,0.02c0.37-0.27,0.37-0.76,0.35-1.18c0.05-0.21,0.22-0.44,0.26-0.62
		c0.01-0.17,0.04-0.29,0.21-0.36c0.3-0.73,1.5-2.04,2.04-2.83c0.27-0.7-0.04-1.87,0.55-2.85c0.29-0.46,0.47-1,0.84-1.4
		c0.42-0.36,0.89-1.07,1.2-1.44c0.2-0.2,0.08-0.44,0.33-0.63c0.48-0.53,1-0.75,1.45-1.46c0.17-0.47,0.26-1.1,0.1-1.57
		c-0.05-0.19-0.11-0.32-0.07-0.35c0.31-0.03,1.01,0.08,1.27-0.31c0.33-0.62,0.22-1.29,0.23-1.96c0.01-0.29,0.09-0.52,0.17-0.76
		c0.2-0.49,0.07-0.89,0.42-1.33c0.48-0.81,1.45-1.59,1.83-2.43c0.37-0.6,0.82-0.9,1.23-1.44c0.26-0.32,0.43-0.62,0.56-1
		c0.38-0.99,1.5-2.5,1.79-3.74c0.18-1.11,1.15-2.23,1.45-3.21c0.06-0.37,0.13-0.78,0.19-1.11c0.06-0.81,0.76-1.3,0.97-2.01
		c0.13-0.43,0.08-1.03,0.19-1.4c0.11-0.34,0.22-0.6,0.28-0.96c0.34-0.6,0.84-1.94,0.11-2.63c-0.84-0.88,0.19-0.51,0.67-0.67
		c0.21-0.11,0.13-0.37,0.09-0.57c-0.11-0.41-0.08-0.87,0.14-1.24c0.08-0.18,0.19-0.39,0.3-0.65c0.29-0.45-0.69-1-0.69-1.44
		c-0.05-0.47,0.55-0.69,0.74-1.01c0.03-0.07,0.03-0.15,0.03-0.23c-0.07-0.35,0.6-0.82,0.71-1.24c0.16-0.46,0.25-1.19,0.32-1.67
		c0.22-0.71,0.69-1.33,0.69-2.12c0.05-0.52,0.47-1.18,0.28-1.76c-0.04-0.16-0.07-0.19-0.13-0.38c-0.04-0.32-0.44-0.5-0.31-0.83
		c0.05-0.16-0.1-0.28-0.01-0.45c0.12-0.15,0.48-0.23,0.68-0.38c0.24-0.21,0.06-0.62,0.17-0.87c0.31-0.4,0.85-0.27,1.22-0.53
		c0.25-0.21,0.19-0.39,0.13-0.62c-0.2-0.48-0.67-0.98-0.86-1.41c-0.13-0.37-0.29-0.76,0.16-0.94c0.54-0.28,0.97-0.63,0.46-0.93
		c-0.53-0.12-0.92,0.38-1.32,0.58c-0.26,0.19-0.99,0.27-1.26,0.61c-0.1,0.16,0.06,0.36,0.09,0.52c0.05,0.38,0,0.47-0.26,0.71
		c-0.17,0.15,0.11,0.5-0.06,0.69c-0.05,0.1-0.28,0.26-0.41,0.35c-0.19,0.17-0.21,0.23-0.39,0.44c-0.36,0.39-0.42,1.1-0.7,1.56
		c-0.21,0.34-0.49,0.53-0.45,0.81c0.1,0.49,1.3,1.1,1.13,1.14c-0.02,0.02-0.13,0.02-0.3,0.01c-0.91-0.05-1.76,0.09-1.42,0.86
		c0.29,0.95,0.23,2.06-0.62,2.67c-0.29,0.21-0.4,0.35-0.83,0.54c-0.73,0.32-0.92,1.2-1.04,1.86c0.02,0.3,0.4,0.83,0.49,1.15
		c0.03,0.17-0.73-0.04-1.02,0.11c-0.32,0.3,0.15,1.07-0.51,1.25c-0.34,0.14-0.84,0.12-1.16,0.28c-0.06,0.05-0.06,0.11-0.03,0.19
		c0.27,0.45,0.62,0.57-0.2,0.76c-0.06,0.02-0.14,0.05-0.14,0.12c0.09,0.48,0.79,0.72,0.81,1.26c-0.01,0.46-1.42,0.62-0.97,0.9
		c0.28,0.22,1.41,0.31,0.59,0.67c-0.24,0.21-0.66,0.45-0.87,0.72c-0.32,0.65-0.16,1.3-0.35,1.96c-0.03,0.45,0.3,1.3-0.08,1.75
		c-0.28,0.47-0.5,1.19-0.93,1.58c-0.35,0.3-0.66,0.36-0.82,0.75c-0.12,0.49-0.06,0.92,0.14,1.43c0.03,0.11,0.05,0.13,0.03,0.26
		c-0.06,0.19-0.52,0.05-0.77,0.22c-0.67,0.29,0.12,1.35-0.32,1.69c-0.09,0.04-0.21,0.06-0.31,0.08c-0.41-0.02-0.23,0.41-0.41,0.65
		c-0.34,0.46-0.96,0.59-1.47,0.98c-0.56,0.35-0.38,1.06-0.74,1.56c-0.35,0.28-1.33,0.09-1.55,0.3c-0.33,0.31-0.21,0.72-0.47,1.18
		c-0.13,0.56-0.16,1.47-0.52,1.9c-0.31,0.51-0.24,1.13-0.66,1.56c-0.58,0.71-1.25,1.46-1.56,2.41c-0.13,0.4-0.2,0.82-0.36,1.09
		c-0.25,0.4-0.5,0.59-0.55,0.99c-0.05,0.2-0.19,0.43-0.32,0.75c-0.16,0.4-0.11,0.52-0.31,0.83c-0.24,0.36-0.6,0.59-0.87,0.83
		c-0.71,0.46-0.09,1.27-0.39,1.85c-0.18,0.28-0.49,0.38-0.77,0.63c-0.33,0.27-0.35,0.67-0.34,1.04c0.12,0.67,0.67,1.37,0.51,2.09
		c-0.11,0.26-0.18,0.44-0.37,0.7c-0.16,0.31-0.66,0.25-1.04,0.21c-0.66-0.12-1.12,0.3-0.78,0.96c0.05,0.23,0.61,0.54,0.76,0.71
		c0.05,0.06,0.02,0.1-0.06,0.15c-0.3,0.16-0.88,0.56-0.94,1.01c0,0.22,0.07,0.48,0.06,0.69c-0.04,0.27-0.39,0.43-0.43,0.67
		c-0.24,0.68-0.48,1.63-0.69,2.3c-0.33,0.8-1.01,1.68-1.18,2.32c-0.36,0.73-0.59,1.36-0.86,2.03c-0.12,0.4-0.56,0.56-0.77,0.84
		c-0.09,0.14,0.01,0.38,0.15,0.51c0.25,0.3,1.17,0.86,2.07,1.26c1.21,0.41,2.37,1.15,2.79,0.3c0.01-0.08-0.05-0.2-0.07-0.28
		c0.01-0.3,0.18-0.51,0.44-0.77c0.18-0.23,0.42-0.43,0.74-0.65c0.29-0.33,0.63-0.59,0.59-0.99c-0.02-0.23-0.21-0.72-0.08-0.82
		c0.21-0.29,0.28-0.18,0.53-0.27c0.06-0.03,0.09-0.35,0.2-0.35c0.26-0.09,0.43-0.03,0.61-0.25L139.47,400.38z M141.29,393.64
		c0.01,0,0.02,0.01,0.02,0.01c-0.01,0.06-0.01,0.11-0.02,0.14C141.29,393.76,141.29,393.71,141.29,393.64z M141.51,393.15
		c-0.06,0.04-0.1,0.12-0.13,0.2c-0.27-0.11-0.53-0.26-0.49-0.3C141.05,393.15,141.26,393.11,141.51,393.15z M135.76,391.59
		c-0.07-0.13,0.09-0.08,0.25-0.02c0,0.04,0,0.1,0.02,0.18c0.03,0.02,0.06,0.04,0.09,0.05C135.99,391.73,135.86,391.66,135.76,391.59
		z"/>
</g>
<path class="st3" d="M101.78,697.04c-1.1,0.12-1.91,0.22-2.27,0.27l-0.09,0.03c-0.82,0.11-1.95,1.01-2.67,0.49
	c-0.54-0.54-1.03-0.38-1.81-0.42c-0.55,0.02-1.32,0.2-1.82,0.26c-0.25,0.02,0.05-0.58-0.35-0.58c-0.61-0.02-1.73,0.54-2.14,0.43
	c-0.79-0.16-0.96-0.81-1.47-1.26c-0.5-0.41-0.94-0.73-1.53-0.93c-0.79-0.21-1.96-0.1-2.67-0.4c-0.06-0.11,0.27-0.07,0.33-0.1
	c0.73,0,2.11,0.11,2.72,0.04c0.16-0.03,0.27-0.03,0.25-0.15c-0.03-0.07-0.09-0.15,0.02-0.19c0.37-0.12,0.75-0.14,0.09-0.5
	c-0.36-0.22-1.48-1.02-0.3-0.83c0.22,0.04,0.43,0.09,0.49,0.11c0.07,0.01-0.05-0.04-0.16-0.1c-0.23-0.12-0.63-0.32-0.54-0.38
	c0.84-0.1,2.09,0.55,2.91,0.75c1.31,0.43-0.18-1.73,1.08-1.36c0.32,0.07,0.7,0.08,1.04-0.13c0.31-0.15,0.54-0.37,0.61-0.32
	c0.07,0.06,0.01,0.43,0.01,0.65c-0.01,0.24,0.01,0.37,0.11,0.24c0.36-0.69,0.94-1.52,1.88-1.52c1.99,0.29,4.29,0.33,6.29-0.37v-2.55
	v-8.04c-0.51-0.09-0.98-0.17-1.37-0.28c-1.49-1.49-4.37-0.91-6.13-1.79c-1.08-0.53-2.01-1.02-3.07-1.55
	c-0.62-0.5-2.12-0.09-3.01-0.21c-0.78-0.17-0.53-1.33-1.14-1.53c-0.16-0.05-0.35-0.08-0.52-0.1c-0.24-0.06-0.94,0.08-0.87-0.28
	c0.1-0.25,0.84-0.55,1-0.89c0.32-0.7,0.05-0.85,0.84-0.88c1.09,0.06,0.78-1.23,1.47-1.74c1.75-1.3,3.67-2.85,5.66-3.66
	c1.91-0.34,3.68-1.73,5.56-2.29c0.19-0.1,0.26-0.08,0.43-0.3c0.16-0.86-1.29-1.54,0.52-1.7c0.21-0.01,0.41-0.03,0.62-0.05v-4.06
	l-3.63-4.43c-0.62,0.22-1.53,0.48-2,0.68c-0.25,0.03-0.35,0.13-0.52-0.15c-0.14-0.59-0.01-1.49-0.8-1.59
	c-1.34-0.11-3.32,0.36-4.56,0.95c-0.49,0.2-1.09,0.48-1.47,0.03c-0.61-0.33-2,0.82-2.62,0.11c-0.33-0.27-0.34-0.23-0.64-0.38
	c-1.64-0.51-3.16,1.46-4.9,1.09c-2.86-0.6-5.84,0.31-8.73-0.11l-4.62,2.08c-0.34,0.73-0.71,1.49-0.5,2.19
	c0.2,0.55,0.54,1.11,0.7,1.65c0.2,0.55,0.08,1.14,0.15,1.57c0.22,0.76,0.42,1.63-0.21,2.32c-0.48,0.56-0.21,1.38,0.46,1.64
	c0.92,0.31,1.67-0.16,2.88-0.34c0.5-0.1,1.07-0.29,1.46-0.61c0.61-0.39,0.48-1.5,0.68-1.78c0.08-0.29-0.28-0.59-0.38-0.81
	c-0.1-0.35-0.1-0.56-0.42-0.8c-0.04-0.04-0.05-0.04-0.08-0.12c0.06-0.18,0.25-0.67,0.23-0.9c-0.01-0.21-0.08-0.46-0.02-0.6
	c0.31-0.1,0.69,0.52,1,0.11c0.23-0.23,0.55-0.53,0.82-0.89c0.11-0.12,0.2-0.17,0.26,0.03c0.11,0.23,0.01,0.75,0.25,0.72
	c0.27-0.15,0.81-0.41,1.17-0.27c0.4,0.04,0.61-0.03,0.99,0.01c0.37,0.06,0.39,0.17,0.61,0.39c0.17,0.16,0.28,0.56,0.47,0.43
	c0.18-0.24,0.39-0.71,0.72-0.61c0.24,0.04,0.62,0.14,0.96,0.09c0.96-0.45,2.33-0.48,3.19-1.13c0.41-0.32,0.55-1.07,0.9-1.29
	c0.08-0.01,0.15,0.04,0.19,0.13c0.09,0.27-0.05,0.55,0.26,0.56c0.61-0.06,1.75-0.35,0.75,0.6c-0.3,0.23-0.58,0.63-0.22,0.98
	c0.41,0.29,0.63,0.29,1.08,0.25c0.71-0.08,1.2-0.86,1.62-1.01c0.45-0.18,0.61,0.3,0.98,0.3c0.32,0.05,0.53-0.47,0.72-0.38
	c0.11,0.12,0.31,0.11,0.45,0.11c0.12,0.05,0.18,0.01,0.36,0.15c0.04,0.02,0.11,0.04,0.22,0.03c0.29-0.01,1.06-0.38,1.42-0.4
	c0.05,0.01,0,0.08-0.07,0.16c-0.12,0.16-0.69,0.85-0.63,0.98c0.1,0.08,0.43-0.07,0.58-0.08c0.44-0.11,0.63-0.15,0.43-0.08
	c-0.53,0.19-0.52,0.19-0.02,0.06c0.28-0.07,0.67-0.17,0.95-0.24c0.53-0.13,0.54-0.11,0.25-0.02c-1.32,0.42,1.19,0.07,1.26,0.19
	c0.23,0.12-1.18,0.36-1.23,0.39c-0.13,0.03-0.05,0.04,0.21,0.02c0.29-0.01,0.68-0.06,0.99-0.06c0.13,0,0.16,0.01,0.1,0.05
	c-1.07,0.45-2.68,0.78-3.66,1.22c-0.16,0.13-0.12,0.3-0.29,0.37c-0.27,0.09-0.39,0.05-0.62,0.09c-0.67,0.09-0.94,0.26-1.23,0.8
	c-0.46,0.23-0.79,0.33-1.15,0.73c-0.32,0.49-1.45,0.75-2.04,1.15c-0.25,0.16-0.43,0.32-0.6,0.46c-0.4,0.35-0.73,0.3-0.95,0.5
	c-0.52,0.45-0.79,1-1.39,1.37c-2.1,0.95-3.76,2.87-4.7,4.92c-0.16,0.37-0.21,0.64-0.12,0.83c0.11,0.29,0.56,0.48,0.63,0.69
	c0.07,0.35-0.34,0.64-0.6,0.84c-2.48,1.83,0.89,5.52,3.2,5.89c1.18,0.29,2.38-0.21,3.56,0.4c0.87,0.38,1.65,1.14,2.63,1.18
	c1.15-0.12,1.57,1,2.75,1.08c0.72,0.11,1.5-0.28,2.16-0.07c0.42,0.19,0.56,0.67,0.79,0.96c0.29,0.5,1.15,0.67,1.55,0.61
	c0.24,0.02-0.07,0.08,0,0.24c0.21,0.16,0.68,0.23,0.62,0.39c-0.3,0.36-1.69,0.27-2.01,0.66c-0.06,0.01,0.03,0.03,0.12,0.16
	c0.05,0.33-0.91,0.31-1.4,0.31c-2.11,0.13-8.35,0.69-8.5,1.92c-0.11,0.46,0.16,1.08-0.54,1.15c-1.07-0.05-2.29-0.3-3.24,0.4
	c-1.44,0.92-3.28,1.36-4.65,2.34c-0.51,0.51-1.06,0.56-1.33,0.79c0.15,0.55,1.57,0.94,1.95,1.21c0.38,0.19,0.28,0.41,0.62,0.74
	c0.24,0.25,0.62,0.5,0.87,0.68c0.75,0.81,2.39,1.2,3.41,1.88c0.75,0.46,1.09,1.14,0.7,1.25c-0.41,0.11-1.24-0.28-1.49-0.48
	c-0.29-0.22-0.47-0.53-0.68-0.79c-0.23-0.42-0.81-0.46-1.3-0.52c-0.5,0.02-0.59-0.32-0.98-0.37c-0.49-0.05-1-0.22-1.44-0.42
	c-0.62-0.36-1.64-0.53-1.62-1.41c-0.02-0.4-0.46-0.49-0.85-0.59c-0.92-0.22-2.16-0.43-3-0.59c-1.05-0.24-0.87-1.44-1.77-1.9
	c-1.02-0.47-2.12-0.69-2.83-1.58c-1.42-0.97-2.72-2-4.29-2.85c-0.61-0.4-0.82-0.73-1.2-1.37c-0.26-0.46-0.59-0.45-1.17-0.25
	c-0.42,0.13-0.6,0.31-0.69,0.13c-0.18-0.23-0.01-0.65-0.29-0.8c-0.55-0.14-1.03-0.14-1.47-0.49c-0.23-0.25-0.22-0.54-0.43-0.69
	c-0.17-0.22-0.38-0.31-0.48-0.49c-0.07-0.25-0.01-0.24,0.09-0.58c0.17-0.45,0.01-1.07-0.51-1.21c-0.58-0.27-2.18-0.1-2.15-0.93
	c0.04-0.43,0.49-0.83,0.39-1.38c-0.08-0.47-0.38-0.87-0.68-1.22c-0.41-0.42-0.82-0.3-1.27-0.7c-0.39-0.34-0.75-0.87-1.17-1.22
	c-0.49-0.55-1.56-0.69-2.37-0.91v0.16l5.78,8.83c0.58,0.66,0.93,1.59,1.57,2.06c0.34,0.3,0.93,0.48,1.15,0.86
	c0.15,0.33,0.09,0.73,0.32,0.96c0.63,0.65,1.89,1.85,2.95,0.88c0.39-0.27,0.59-0.52,0.68-0.43c0.03,0.02,0.03,0.07,0.02,0.12
	c-0.27,0.69-0.33,1.16-0.23,1.92c0.48,0.68,1.21,1.52,1.97,1.86c0.8,0.44,1.8,0.18,2.76,0.72c0.35,0.2,0.72,0.52,1.03,0.8
	c1.17,1.46,3.43,1.47,4.35,3.06c0.12,0.17,0.18,0.36,0.35,0.64c0.13,0.26,0.62,0.64,1.02,0.93c0.43,0.3,0.89,0.22,1.09,0.5
	c0.12,0.18,0.29,0.65,0.57,0.94c0.5,0.57,2.01,0.47,2.82,0.75c0.35,0.12,0.63-0.14,0.93,0.11c0.37,0.34,0.75,0.98,1.3,1.1
	c0.48,0.13,1.02-0.08,1.48-0.43c0.67-0.64,1.75-0.91,1.35,0.17c-0.17,0.36-0.29,0.55-0.08,0.78c0.07,0.06,0.15,0.12,0.23,0.17h14.59
	l6.67-4V697.04z M92.64,659.13c-0.12,0.02-0.23,0.04-0.3,0.05c0.07-0.01,0.16-0.03,0.33-0.07
	C92.66,659.12,92.65,659.13,92.64,659.13z M93.58,659.09c-0.03-0.04-0.16-0.04-0.31-0.03c0.56-0.3,1.21-0.61,1.29-0.59
	C94.09,658.67,93.99,658.84,93.58,659.09z M98.87,698c-0.01-0.08-0.02-0.15-0.01-0.22l0.02,0.21L98.87,698z"/>
<g>
	<path class="st3" d="M109.27,645.75c-1-0.04-2.11-0.2-2.86-0.23c-0.51-0.01-0.04,0.29,0.08,0.46c0.71,0.71-2.06-0.05-2.2-0.03
		c-0.69-0.12-1.26-0.34-1.89,0c-0.4,0.2-0.9,1.16-1.7,1.65c-0.59,0.35-1.22,0.68-1.9,0.49c-0.68-0.19-1.25-0.15-1.8-0.18
		c-0.84,0.09-1.54,0.56-0.75,0.9c0.54,0.16,1.03,0.13,1.55,0.22c1.2-0.01,2.03,0.81,3.35,0.67c0.87-0.2,1.51-0.99,2.4-1.04
		c0.37-0.07,0.73-0.02,1.17-0.08c0.7-0.16,1.27-0.5,2.01-0.61c0.98-0.21,1.98-0.12,2.96-0.11L109.27,645.75z"/>
	<path class="st3" d="M75.18,605.32c-0.07-0.1-0.18-0.2-0.31-0.31c0.02,0.02,0.05,0.06,0.07,0.08c-0.04,0.18-0.09,0.3-0.14,0.41
		C74.97,605.56,75.15,605.58,75.18,605.32z"/>
	<path class="st3" d="M51.66,635.55c0.14,0.09,0.35,0.16,0.41,0.3c0.63,3.59,6.53,2.21,9.08,1.86c1.71-0.47,3.59-0.09,5.25-0.51
		c0.91-0.14,1.75-0.41,2.75-0.53c1.35-0.08,2.81,0.32,4.18,0.15c1.94-0.02,3.23-0.73,5.1-0.72c1.49,0.03,3.33-0.29,4.75-0.15
		c0.1,0.11-1.76,0.67-0.79,0.81c1.31,0.28,2.4,0.49,3.72,0.83c1.6,0.33,3.73,0.43,5.26,1.34c1.21,0.82,3.49,1.21,4.66,0.82
		c0.64-0.2,1.29-0.28,1.93,0.04c0.91,0.39,1.98,1.21,2.66,1.2c0.59,0.07,1.19,0.29,1.52,0.62c0.95,0.8,2.02,0.65,3.32,0.76
		c0.24,0.06,0.88,0,0.76,0.34c-0.05,0.48,1.04,0.41,1.42,0.55c0.38,0.07,0.77,0.15,1.16,0.23l-0.92-4.45
		c-0.64-0.25-0.97-0.68-1.67-0.98c-0.94-0.54-2.85-0.9-4.18-0.95c-0.69-0.1-1.24-0.54-1.94-0.6c-0.71-0.13-2.48,0.23-2.61-0.1
		c-0.17-0.26-0.13-0.69-0.41-0.89c-0.2-0.24-2.01,0.06-1.47-0.58c0.19-0.23,0.66-0.52,0.82-0.79c-0.2-0.12-2.32,0.48-2.05,0.29
		c0.24-0.08,1.55-0.46,1.27-0.49c-0.5-0.02-0.75,0.06-1.26,0.06c-0.73,0.04-2.19,0.16-2.93,0.11c-0.2-0.01-0.24-0.04-0.06-0.06
		c0.71-0.06,3.45-0.11,4.37-0.95c1.14-1.16,2.43-0.87,3.94-1.42c1.88-0.6,4.25-1.18,5.43-1.38c0.39-0.04,0.66-0.2,0.85-0.43
		l-0.89-4.33l-0.47-2.42c-0.01-0.02-0.02-0.04-0.04-0.05c-0.98-0.88-2.52,0.33-3.65,0.57c-2.86,0.56-5.49,1.53-8.11,2.93
		c-2.23,1.27-2.37,0.95-3.35,1.61c-1.74,1.4-4.81-0.25-7.13,0.41c-1.18,0.15-1.95,0.99-3.09,1.31c-0.45,0.1-1.02-0.34-1.52-0.68
		c-0.53-0.43-1.04-0.42-1.65-0.29c-2.13,0.07-4.53,0.97-6.67,1.41c-1.09,0.19-2.18,0.27-3.22,0.24c-1.08,0.11-2.2,0.48-3.34,0.33
		c-1.41-0.09-2.78-0.01-3.64-0.81c-0.06-0.23,0.02-0.31,0.05-0.47c0.08-0.22,0.01-0.45,0.18-0.67c0.8-1.82,2.21-3.87,3.65-5.21
		c1.09-1.07,0.86-2.55,1.63-3.76c0.37-0.79,1.29-1.35,1.91-2.17c1.48-1.77,1.57-4.31,2.16-6.33c0.36-1.11,1.01-1.87,1.72-3.02
		c0.38-0.46,0.82-1.24,1.43-1.15c0.84,0.31,0.94,0.07,1.71-1c0.38-0.81,0.7-1.3,0.58-1.86c-0.12-0.35-0.75-0.67-0.34-1.05
		c0.53-0.51,2.03-1.72,2.53-2.93c0.24-0.53,0.37-1.15,0.6-1.66c0.45-0.91,1.42-1.56,1.91-2.66c1.67-4.02,4.58-7.53,7.04-11.2
		c1.17-1.93,2.62-3.84,3.77-5.77c0.98-1,2.73-1.83,1.24-3.46c-1.09-1.18-3.62-2.21-4.45-0.56c-0.56,1.34-1.63,2.63-2.62,3.82
		c-0.65,0.64-1.53,1.47-2.06,2.24c-1,1.01-1.15,2.86-2.17,3.79c-0.42,0.22-0.74,0.68-1.02,1.12c-0.2,0.28-0.32,0.22-0.61,0.44
		c-0.29,0.17-0.4,0.4-0.61,0.6c-0.47,0.33-0.45,1.07-0.98,2.2c-0.34,0.64-0.34,1.5-0.34,2.18c-0.03,0.86,0.21,1.81-0.79,1.92
		c-0.42,0.11-0.69-0.27-1.1-0.37c-0.3-0.08-0.52,0.13-0.63,0.36c-0.67,0.96-1.09,2.45-1.7,3.33c-0.49,0.63-0.73,1.59-1.26,1.98
		c-0.32,0.34-0.46,0.59-0.71,0.95c-1.15,2.26-3.34,4.46-4.85,6.53c-1.37,2.56-2.13,5.42-3.79,7.9c-1.57,2.31-3.25,4.57-4.93,6.78
		c-0.76,0.84-0.92,1.87-1.69,2.67c-0.84,1.27-1.93,2.51-2.59,3.89C50.9,629.5,48.16,633.9,51.66,635.55z M69.49,603.22
		c-0.03,0.07-0.07,0.17-0.15,0.35c-0.01,0-0.01-0.01-0.01-0.01C69.4,603.42,69.45,603.3,69.49,603.22z M68.92,604.32
		c0.27,0.11,0.5,0.32,0.4,0.44c-0.12-0.17-0.45,0.04-0.78,0.09C68.66,604.72,68.79,604.53,68.92,604.32z"/>
</g>
<g>
	<g>
		<g>
			<path class="st3" d="M87.47,446.58c0.05,0.04,0.06,0.07,0.05,0.09c0.38,0.04,0.75,0.08,0.58,0.02c-0.31-0.05-0.56-0.1-0.83-0.14
				C87.33,446.55,87.41,446.57,87.47,446.58z"/>
		</g>
		<g>
			<g>
				<path class="st3" d="M120.24,434.8c0.71-0.1,1.19-0.38,1.37-1.09l0.03-0.12c0.44-1.56-0.94-3.88-2.08-4.03
					c-1.09-0.22-2.06,0.37-2.97,0.81c-1.4,0.37-2.98,0.65-4.5,1.06c-1.56,0.14-2.91,0.2-4.58,0.84c-1.66,0.37-2.89,1.76-4.5,1.68
					c-0.69-0.22-1.29,0.47-1.99,0.5c-0.83-0.03-1.71-0.15-2.42,0.2c-0.56,0.45-1.86,0.98-2.69,1.42c-0.98,0.54-1.95,1.68-2.56,2.48
					c-0.32,0.52-1.09,0.28-1.54,0.3c-0.97,0.02,0.1-1.12-0.77-1.31c-0.99-0.1-1.69,0.79-2.5,1.24c-0.97,0.64-2.32,0.72-3.41,1.16
					c-0.85,0.37-1.55,0.82-2.24,1.17c-0.44,0.24-0.69,0.33-1.12,0.47c-0.68,0.17-1.41,0.4-1.96,0.66c-0.59,0.15-1.01,0.17-1.64,0.42
					c-2.17,0.71-4.29,2.17-6.47,2.81c-1.1,0.35-2.06,0.58-3.1,0.95c-2.46,1.09-6.13,1.85-8.36,2.96c-0.22,0.31,0.35,0.45,1.01,0.48
					c0.55,0.08,0.9,0.23,1.52,0.44c1.12,0.38,2.57,0.55,3.7,1.01c2.32,1.04,4.56,0.84,6.89,1.65c2.45,0.74,4.93,1.55,7.42,1.52
					c2.1-0.09,3.82,0.73,5.83,0.78c1.2,0.05,2.28-0.32,3.37-0.35c1.75-0.16,4.48,0.32,6.23,0.54c0.94,0.34,2.4,0.02,3.21-0.17
					c0.12-0.04,0.25-0.06,0.34-0.07c0.08,0.01,0.07,0.04-0.12,0.18c-0.31,0.24-1.23,0.54-1.73,0.96c-0.16,0.16-0.25,0.51-0.35,0.78
					c-0.3,0.8-0.83,1.46-1.49,2.06c-1.61,1.14-3.31,2.53-4.79,4.1c-1.51,1.18-3.99,1.43-5.61,2.54c-1.25,0.82-2.08,1.73-3.42,2.31
					c-3.37,1.6-6.69,3.69-10.28,4.8c-0.98,0.42-2.99,1.03-2.78,2.15c0.26,0.9,2.4,1.62,3.53,2.01c2.09,0.53,4.16,1.08,6.14,2.01
					c1.74,0.79,4.08,1.85,5.76,2.84c0.71,0.44,1.52,1.05,2.29,1.06c0.48,0.06,0.87-0.2,1.32-0.03c0.41,0.2,0.86,0.25,1.26,0.37
					c0.07,0.11,0.22,0.11,0.38,0.14c0.63,0.06,0.44,0.06-0.29,0.1c-0.05,0-0.07,0.01-0.06,0.01c0.46,0.09,1.3,0.11,1.77,0.38
					c0.23,0.19,0.32,0.23,0.35,0.29c-0.16,0.06-0.49,0.01-0.74,0.02c-0.54,0-1.53-0.13-1.91-0.02c-0.08,0.06-0.01,0.17-0.21,0.23
					c-0.07,0.03-0.18,0.08-0.3,0.14c-0.41,0.2-0.68,0.25-1.14,0.35c-1.52,0.57-2.83,0.57-4.59,0.67c-0.86,0.07-2.08,0.22-2.73,0.62
					c-1.07,0.79-1.5,2.02-2.75,0.97c-0.44-0.38-1.13-0.46-1.61-0.26c-1.51,0.41-2.85,0.95-4.5,1.34c-1.3,0.27-2.94-0.06-4.18,0.2
					c-1.57,0.3-1.87,1.24-3.09,1.75c-1.02,0.38-2.64-0.5-3.69,0.11c-1.33,0.86-1.12,2.99-0.22,4.05c0.5,0.65,1.19,1.01,1.9,1.34
					c1.9,0.88,2.51,2.35,5.03,2.13c1.15-0.05,2.38-0.3,3.48,0.03c1.39,0.52,2.79,0.86,4.4,0.92c3.55,0.31,7.63,0.7,10.94,0.8
					c1.03-0.24,1.39-0.68,2.43-0.57c0.52,0.06,1.1-0.11,1.56-0.11c0.63-0.05,1.28-0.03,1.78,0.32c0.26,0.18,0.46,0.28,0.79,0.49
					c0.52,0.4,1.25,0.32,1.84,0.13c0.57-0.15,1.17-0.49,1.74-0.26c0.45,0.2,0.81,0.54,1.22,0.82c0.08,0.07,0.17,0.13,0.25,0.19
					l2.62-2.62c-0.46,0.04-0.92,0.06-1.4-0.03c-0.64-0.08-1.5-0.56-2.24-0.69c-2.44-0.22-5.33-0.17-7.73-0.68
					c-1.26-0.08-2.11-0.86-3.35-0.44c-0.69,0.21-1.42,0.79-1.95,1.18c-0.41,0.24-0.49-0.51-0.7-0.73c-0.62-0.96-3-1.39-4.32-1.05
					c-2.48,0.65-6.29-0.26-8.68-0.63c-0.75-0.13-2.3-0.74-0.87-1.3c0.52-0.27,0.98-0.62,1.58-0.78c1.6-0.5,3.41,2.2,4.75,0.61
					c0.99-1.15,1-0.65,2.09-0.17c1.21,0.3,2.29-0.86,3.13-1.61c0.62-0.59,1.44-0.64,2.56-0.28c0.87,0.27,2.26,0.79,3.02,0.32
					c0.21-0.29-0.07-0.49-0.32-0.68c-0.36-0.17-0.3-0.58,0.07-0.7c0.95-0.01,1.96,0.61,2.95,0.71c1.66,0.35,3.2-0.62,4.69-1.06
					c1.37-0.2,3.1-0.14,4.57-0.5c0.27-0.08,0.52-0.18,0.77-0.29l3.17-6.35v-1.51c-0.81-0.08-1.64-0.16-2.51-0.25
					c-0.5-0.08-0.72-0.15-0.72-0.23c0.06-0.21,0.31-0.2,0.01-0.22c-0.85-0.08-1.57-0.16-1.03-0.7c1.56-1.6-5.4-1.27-6.25-1.57
					c-0.7-0.17-1.35-0.52-1.93-0.74c-0.47-0.26-1.45-0.4-1.54-0.9c0.01-0.24,0.51-0.53-0.05-0.4c-0.51,0.07-1.18,0.19-1.63-0.12
					c-0.52-0.46-0.48-0.98-0.49-1.57c-0.05-0.44-0.44-0.77-0.8-0.88c-0.2-0.13-0.59-0.17-0.63-0.38c-0.05-0.18,1.7-0.13,2.21-0.03
					c0.49,0,1.13,0.27,1.49-0.02c1.75-1.07,4.17-3.09,6.18-4.62c1.36-1.11,2.89-1.44,4.15-2.72c0.97-1.09,2-2.38,3.44-2.97
					c1.55-0.59,3.07-1.3,4.06-2.71c2.59-3.46,3.09-11.08-2.6-11.59c-2.02,0.04-3.21-0.17-4.94-0.77c-1.18-0.2-2.6,0.29-4.28,0.39
					c-1.19-0.08-2.74,0.17-3.75-0.37c-0.37-0.35-0.78-0.27-1.28-0.02c-0.22,0-2.15,1.35-1.81,0.72c0.07-0.2,0.21-0.49,0.3-0.66
					c0.15-0.39,0.16-0.34-0.38-0.31c-0.83,0.13-3.02,0.48-3.49,0.36c-0.02-0.02,0.06-0.05,0.02-0.06c-0.89,0.04-2.99,0.4-3.84,0.39
					c-0.73,0.03-1.21-0.09-0.25-0.32c0.24-0.11,0.35-0.11-0.1-0.25c-0.05-0.04-0.02-0.05,0.03-0.08c0.26-0.09,1.32-0.27,1.6-0.38
					c0.4-0.31,0.87-0.41,1.42-0.52c1.52-0.37,3.48,0.1,5.2-0.12c0.14-0.01,0.05-0.04-0.08-0.07c-0.15-0.05-0.96-0.11-0.34-0.29
					c0.94-0.33-1.24-0.42-1.6-0.56c-1.2-0.2-1.1-0.5,0.42-0.36c0.9,0.08,1.72-0.03,2.34-0.35c0.67-0.28,1.06-1.09,1.83-1.24
					c2.19-0.17,3.88-0.94,5.69-2.18c1.41-0.88,2.92-1.06,4.59-1.56c2.6-0.98,5.7-1.78,8.44-2.48c1.26-0.52,2.35-1.07,3.74-1.26
					c1.82-0.36,3.24-0.97,4.85-1.55C118.36,434.7,119.29,434.99,120.24,434.8z M73.43,446.77c-0.47-0.05-1.82,0.26-2.35,0.31
					c0.58-0.25,1.18-0.5,1.83-0.44c0.1,0.03,0.64,0,0.58,0.12L73.43,446.77z M73.51,446.06c-0.02,0-0.03,0-0.04,0
					c0.21-0.11,0.4-0.2,0.51-0.26C73.88,445.85,73.75,445.93,73.51,446.06z M63.08,491.7c-0.06,0.02-0.12,0.04-0.21,0.06
					c0.01-0.06,0.07-0.13,0.13-0.19c0.09-0.07,0.2-0.12,0.32-0.15L63.08,491.7z M66.24,492.51c-0.26,0.03-0.56,0.17-0.42,0.44
					c0.02,0.03,0.33,0.15,0.19,0.23c-0.25-0.1-0.85-0.01-0.99-0.34c-0.05-0.22,0.3-0.58,0.38-0.85l-0.01-0.12
					c-0.56-0.81,0.74-0.25,0.83,0.21C66.31,492.29,66.34,492.45,66.24,492.51z"/>
			</g>
		</g>
	</g>
</g>
<g>
	<g>
		<g>
			<path class="st3" d="M148.74,506.57c-0.19,0.25-0.35,0.43-0.49,0.58c0.16,0.09,0.38,0.12,0.62-0.26
				c-0.01-0.13-0.08-0.27-0.15-0.41c0,0,0,0,0,0C148.72,506.51,148.73,506.54,148.74,506.57z"/>
		</g>
		<g>
			<path class="st3" d="M175.78,587.19c-1.21,0.28-2.37,1.15-3.48,1.53c-0.4,0.02,0.59-1.01,0.57-1.17
				c-0.01-0.05-0.02-0.08-0.09-0.09c-0.64,0.06-1.21,0.47-1.88,0.57c-0.32,0.08-0.71,0.16-1.05,0.18c-0.67,0.06-0.91-0.23-1.05-0.34
				c-0.03-0.02-0.11-0.09-0.17-0.07c-0.32,0.09-0.67,0.28-0.95,0.33c-0.3-0.03-0.75-0.18-1.11-0.24c-0.04-0.02-0.05-0.04-0.01-0.08
				c0.37-0.22,1.54-0.58,1.89-0.74c0.02-0.02,0.02-0.03,0-0.03c-0.08-0.02-0.42,0.01-0.57-0.01c-0.1-0.01-0.15-0.03-0.09-0.09
				c0.14-0.13,0.63-0.37,0.76-0.47c0.17-0.08,0.05-0.24,0.15-0.37c0.16-0.34,2.46-1.34,3.92-2c0.79-0.29,1.06-0.94,1.76-1.32
				c0.43-0.19,0.56-0.28,0.96-0.37c0.15-0.04,0.3-0.12,0.45-0.19v-4.33c-0.9,0.87-2.07,1.55-3.01,1.85
				c-0.57,0.28-2.22,1.1-1.37,1.77c0.97,0.47,0.01,0.57-0.65,0.82c-0.56,0.2-1.47,0.24-1.43,0.75c0.18,0.24,0.22,0.47-0.09,0.87
				c-0.87,0.85-2.11,1.03-3.13,1.56c-0.17,0.15-0.32,0.48-0.62,0.64c-0.29,0.13-0.78,0.24-1.16,0.3c-0.82,0.21-1.23,0.19-1.99,0.46
				c-1.77,0.69-3.66,1.41-5.21,2.37c0.38,0.01,1.18-0.2,1.69-0.32c1.43-0.36,1.92,0.06,3.11,0.09c-0.31,0.13-1.14,0.26-1.55,0.42
				c-0.66,0.23-1.31,0.48-1.73,0.93c-0.13,0.16-0.19,0.33,0.02,0.45c1,0.28,2.34,0.01,3.37,0.23c0.72-0.04,1.7-0.44,2.44-0.46
				c1.04-0.09,2.11,0.19,3.13,0.27c2.45,0.26,5.7-1.01,8.18-1.99V587.19z"/>
		</g>
		<g>
			<path class="st3" d="M132.02,573.33c-0.07,0.05-0.12,0.11-0.19,0.16l0.3,0.59C132.1,573.84,132.19,573.42,132.02,573.33z"/>
		</g>
		<g>
			<g>
				<path class="st3" d="M156.33,575.86c0.26-0.05,0.59-0.05,0.7-0.26c0.12-0.29,0.16-0.33,0.21-0.7c0.03-0.27,0.13-0.43,0.42-0.59
					c0.76-0.32,1.39-0.47,2.21-0.52c1.69,0.05,2.82,0.42,4.3-0.34c0.57-0.27,1.26-0.16,1.73-0.33c0.82-0.31,1.52-0.49,2.4-0.59
					c1.17-0.14,2.74-0.81,3.72,0.18c0.93,0.2,2.49-0.47,3.76-0.9v-3.32c0,0-0.01,0-0.01,0c-0.32-0.19-0.4-0.42-0.79-0.44
					c-1.19,0-3.35-0.07-4.17,0.27c-0.72,0.13-1.33-0.37-2.12-0.4c-0.55-0.08-1.34,0.11-1.97,0.39c-0.97,0.49-2.25,0.74-3.16,1.13
					c-0.25,0.14-0.45,0.25-0.73,0.27c-0.44,0.07-2-0.33-2.94,0.06c-1.41,0.34-1.71,2.08-3.01,2.5c-0.95,0.2-0.4-0.99-0.96-1.19
					c-0.57-0.18-1.25-0.02-1.84,0.19c-0.79,0.31-2.57,0.66-3.42,1.42c-0.66,0.49-1.32,0.52-1.28-0.5c-0.02-0.13,0.13-0.92-0.24-0.76
					c-0.69,0.47-1.76,1.58-2.67,1.95c-0.06,0.02-0.08,0-0.06-0.04c0.03-0.05-0.01-0.02,0.16-0.2c0.5-0.5,1.64-1.24,2.06-1.72
					c0.04-0.12-1.48,0.81-1.54,0.77c-0.02,0,0.12-0.11,0.13-0.12c0.08-0.06,0.21-0.16,0.28-0.2c0.05-0.04,0.06-0.05-0.02-0.01
					c-0.91,0.54-4.17,2.05-5.55,2.58c-0.4,0.14-1.1,0.51-1.24,0.37c0.09-0.14,0.22-0.25,0.3-0.41c1.22-1.35,4.23-1.92,5.52-2.91
					c-2.23,0.55-4.31,1.71-6.54,2.51c-0.53,0.2,0.42-0.59,0.71-0.75c1.42-0.79,3.24-1.06,4.71-1.71c0.17-0.08,0.18-0.07,0.45-0.25
					c0.18-0.12,0.27-0.22,0.28-0.31c0.03-0.24-0.26-0.34-0.16-0.58c0.35-0.28,1.23-0.59,1.65-0.92c0.86-0.57,1.22-2.75,2.49-2.42
					c0.33,0.05,0.56,0.02,0.86-0.25c0.72-0.69,1.41-1.93,1.93-2.83c0.74-1.03,3.33-2.37,4.71-3.32c2.47-1.32,4.44-3.02,5.99-5.08
					c0.28-0.14,0.57-0.06,0.86,0.02c0.77,0.19,1.67-0.42,2.38-0.83c1.4-0.7,2.53-2.28,3.79-3.37c1.09-0.82,2.58-0.86,3.73-1.56
					c0.12-0.07,0.24-0.16,0.34-0.24c-0.62-1.85-1.44-4.33-2.35-7.04c-0.77,0.1-1.51,0.29-2.07,0.97c-0.68,0.71-1.38,1-2.58,1.54
					c-0.65,0.25-3,1.8-1.46,0.17c0.36-0.4,0.67-0.79,0.01-0.57c-0.76,0.23-1.05,0.99-1.65,1.45c-1.78,1.28-4.07,0.14-6.21,0.44
					c-1.2-0.05-2.29,0-3.33,0.52c-1.09,0.39-2.29,1.78-3.45,1.89c0.15-0.54,0.67-0.82,1.22-1.3c0.95-0.77,3.08-1.99,3.87-2.54
					c0.28-0.18-0.22,0.06-1.03,0.49c-0.72,0.38-1.42,0.77-2.18,1.09c-0.26,0.1-0.12-0.02,0.24-0.25c0.56-0.37,1.14-0.66,1.74-0.97
					c0.68-0.34-0.05-0.2-0.63-0.17c-0.13-0.07,0.07-0.25,0.21-0.4c0.72-0.64,1.45-1.49,2.28-1.99c0.9-0.61,1.81-0.99,2.71-2.48
					c0.88-1.59,1.91-3.14,3.7-3.79c4.86-1.8,6.22-7.92,0.85-9.91c-3.27-1.14-6.43-1.79-10.14-1.93c-0.82-0.07-1.43-0.03-2.12,0.16
					c-0.64,0.17-0.89,0.29-0.95,0.16c-0.18-0.64-0.88-0.06-1.31-0.03c-0.12,0.02-0.2-0.02-0.2-0.11c0.01-0.22,0.46-0.74,0.65-1.02
					c0.73-1.16,1.57-2.42,2.83-3.57c1.93-1.89,3.26-4.63,5-6.74c1.56-1.99-1.13-1.26-1.49-2.36c-0.04-0.41-1-0.71-1.58-0.7
					c-3.66-0.24-7.46-0.74-10.83,0.42c-1.05,0.09-2.36,0.82-3.25,0.96c-0.34,0.07-0.61,0.1-0.7,0.04c-0.1-0.08,0.09-0.18,0.29-0.39
					c0.08-0.11,0.1-0.21,0.17-0.33c0.18-0.69,1.5-1.19,2.08-1.73c0.43-0.5,0.83-0.73,1.32-1.01c0.36-0.25,0.57-0.01,0.89,0.15
					c0.37,0.26,0.76,0.18,1.05-0.1c0.28-0.29,0.4-0.86,1.24-1.29c0.36-0.23,0.83-0.51,1.18-0.86c0-0.01,0-0.01-0.01-0.02
					c0,0.01,0.01,0.01,0.01,0.02c0.28-0.28,0.49-0.61,0.49-0.98c-0.06-0.5-1.18,0.19-1.3,0.14c-0.14-0.15-0.03-0.44,0.04-0.66
					c0.4-1.06,1.57-1.52,2.65-1.63c2.77-0.55,3.67-2.94,5.28-5.24c-0.48-1.17-0.76-1.89-0.76-1.89l-0.73-0.73
					c-0.92,0.1-1.84,0.23-2.57,0.41c-1.27,0.33-1.6,0-2.65-0.14c-0.54,0.03-1.21,0.27-1.76,0.38c-0.64,0.13-1.2,0.23-1.86-0.09
					c-1.13-0.49-2.26-0.31-3.43,0.11c-0.94,0.36-1.77,0.93-2.66,1.39c-1.86,0.97-3.17,0.61-5.2,0.86c-1.31-0.03-3.19,0.58-4.26-0.22
					c-0.13-0.82,1.4-1.26,1.78-1.86c0.22-0.24,0.2-0.23,0.3-0.34c0.07-0.08,0.14-0.16,0.19-0.22c0.25-0.6,0.2-0.81,0.95-1.43
					c0.48-0.4,1.64-0.8,2.17-1.25c0.78-0.62,1.1-1.67,2.03-2.21c0.79-0.47,1.43-1.16,2.22-1.63c0.78-0.5,1.72-0.31,2.56-0.58
					c0.52-0.25,1.01-0.69,1.18-1.26c0.23-0.96-0.2-1.55-0.67-2.4l-3.65-1.13c-0.3,0.13-0.41,0.12-0.72,0.19
					c-0.49,0.16-0.95,0.97-1.39,1.26c-0.55,0.4-0.8,0.87-1.23,1.26c-0.26,0.24-0.28,0.26-0.54,0.39c-1.63,0.49-2.19,2.07-4.08,3.09
					c-1.7,0.87-2.52,2.28-4.12,3.32c-0.91,0.56-1.9,1.15-2.79,1.76c-1.94,1.2-3.12,3.86-4.9,5.35c-3.51,2.96,1.81,0.79,3.03,1.72
					c0.1,0.25-1.95,0.78-1.92,0.9c0.73,0.08,1.91-0.18,2.56,0c0.66,0.12,0.94,0.28,1.51,0.4c0.86,0.05,2.76,0.12,2.62,1.36
					c0.08,0.25,0.14,0.15,0.92-0.26c0.49-0.19,0.91-0.49,1.47-0.46c0.58,0.1,0.82,0.81,1.9,0.52c1.39-0.39,2.76-0.89,4.19-1.1
					c1.51-0.45,4.13-0.63,5.25-2.02c0.5-0.68,0.67-1.23,1.02-1.17c0.16,0.04,0.21,0.21,0.26,0.36c0.23,0.57,1.49-0.24,2.03-0.21
					c0.64,0.04,0.04,0.53-0.19,0.71c-0.41,0.28-0.64,0.61-0.84,1.06c-0.22,0.76-0.6,1.23-1.49,1.57c-2.34,1.35-4.16,3.66-6.41,5.19
					c-2.56,1.98-5.47,3.9-7.54,6.44c-0.2,0.23,0.5,0.16-0.02,0.53c-0.43,0.36-1.55,1.09-0.32,1.22c2.8,0.14,6.04-0.88,8.76,0.08
					c0.43,0.15,0.7,0.13,1.27,0.07c1.13-0.13,2.38-0.52,3.52-0.73c1.94-0.38,2.67,0.02,4.26,0.13c0.75,0.1,2.14,0.35,1.82,1.36
					c-0.25,0.32-0.58,0.39-0.89,0.64c-1.2,0.91-1.38,2.61-2.47,3.73c-0.46,0.63-1.24,1.36-1.62,1.96c-0.01,0.18,0.19,0.3,0.17,0.49
					c-0.07,0.7-1.22,1.75-1.8,2.39c-1.08,1.06-4.29,3.66-1.46,4.15c0.37,0.05-0.06,0.25-0.15,0.38c-0.09,0.28,0.45,0.23,0.81,0.21
					c0.78-0.09,1.56-0.27,2.35-0.27c1.24,0.05,3.75,0.21,4.88,0.45c1.51,0.48,3.26,0.52,4.83,0.48c1.44,0.03,3.65-0.05,4.54-1.13
					c0.51-0.4-0.07,0.98-0.03,1.18c0.09,0.57,1.61,0.42,1.26,1.15c-1.16,1.04-1.84,2.16-3.45,2.87c-1.53,1.08-3.18,2.9-4.03,4.69
					c-2.62,2.02-5.44,4.17-8.25,6.06c-0.95,0.71-2.05,1.61-2.76,2.51c-0.73,0.85-0.7,1.71-1.22,2.57c-0.19,0.29-0.44,0.61-0.65,0.87
					c-0.16,0.22-0.4,0.45-0.25,0.75c0.82,0.67,2.21,0.57,3.34,0.78c2.2,0.04,3.66,1.17,5.8,1.09c2.97-0.26,6.25-0.84,9.14-1.6
					c0.57-0.15,1.15-0.59,1.62-0.66c0.11-0.01,0.13,0.02,0.06,0.17c-0.18,0.47-1,1.23-1.49,1.66c-2.07,1.99-4.23,3.44-6.68,4.83
					c-2.42,1.54-4.22,4.1-6.87,5.42c-3.5,1.91-6.08,5.81-9.11,8.17c-0.18,0.12-0.28,0.14-0.35,0.1l2.46,4.77
					c0.67-0.25,1.35-0.5,1.85-0.54c-0.1,0.62-0.81,1.27-1.2,1.79l0.06,0.13c0.16,0,0.45-0.04,0.65,0c0.25,0.03,0.31,0.03,0.48,0.02
					c0.59-0.09,1.62-0.47,2.1-0.55c0.71-0.12,0.51,0.18,1.29-0.1c0.3-0.11,0.69-0.23,1.03-0.34c1.81-0.6,2.09-0.11,3.6-0.6
					c1.99-0.53,4.67-2.19,6.67-1.86c0.96,0.2,1.64,0.57,2.55,0.1C154.62,576.53,155.34,575.92,156.33,575.86z M142.94,504.28
					c0.08-0.08,0.15-0.16,0.21-0.21c-0.12,0.13-0.29,0.31-0.59,0.62c-0.01-0.01-0.01-0.01-0.01-0.01
					C142.69,504.53,142.82,504.4,142.94,504.28z M140.94,506.21c0.38,0.05,0.56,0.29,0.28,0.52c-0.04-0.22-0.86,0.29-1.58,0.61
					C140.03,507.03,140.47,506.64,140.94,506.21z"/>
			</g>
		</g>
	</g>
</g>
<path class="st3" d="M163.58,457.65c-0.25-0.37-0.66-0.63-1.09-0.78c-1.05-0.3-2.04-1.05-2.83-1.9c-1.29-1.11-3.2-0.32-4.86-0.84
	c-0.95-0.28-1.96-0.09-2.85-0.04c-0.78-0.04-1.45-0.06-2.41,0.34c-1.62,0.55-3.5-0.2-4.79,0.21c-0.57,0.4-0.6,1.02-1.32,1.19
	c-0.76,0.17-1.75-0.23-2.48,0.15c-0.73,0.27-1.33,0.77-1.76,1.41c-0.37,0.63-0.73,1.34-1.23,1.9c-0.6,0.42-1.14,0.9-1.9,1.26
	c-0.59,0.3-0.89,0.16-1.25-0.29c-0.49-0.71-1.76,1.17-1.86,1.5c-0.03,0.23,0.09,0.37,0.25,0.55c1.25,1.04-1.19,0.68-1.59,1.88
	c-0.35,0.58-0.18,1.38-0.6,1.91c-0.95,0.7-1.21,2.37-1.52,3.59c-0.61,1.65-1.85,3.21-2.57,4.74c-0.37,0.7-0.97,1.41-1.52,2.07
	l-0.28,3.06l3,0.93c0.15-0.16,0.31-0.35,0.68-0.57c0.49-0.25,0.57-0.55,0.99-0.93c0.51-0.42,1.25-0.67,1.66-1.31
	c0.31-0.4,0.57-0.86,0.59-1.38c0.04-0.4,0.07-1.09,0.29-1.16c0.12-0.16,0.37-0.16,0.58-0.25c0.13-0.11,0.08-0.32,0.14-0.48
	c0.16-0.52,0.86-0.32,1.07-0.73l0.02-0.03c0.15-0.33-0.13-0.64,0.04-1.18c0.11-0.36,0.11-0.85-0.08-1.23
	c-0.08-0.18-0.08-0.18-0.22-0.5c-0.04-0.09-0.09-0.18-0.13-0.26c-0.13-0.31-0.4-0.49-0.26-0.72c0.44-0.3,0.79-0.18,1.29,0.11
	c0.24,0.12,0.23,0.1,0.35,0.14c0.36,0.1,0.38-0.3,0.49-0.6c0.25-0.58,0.21-1.17,0.63-1.59c0.09-0.22,0.04-0.43,0.25-0.56
	c0.38-0.23,0.53-0.53,1.24-1.22c0.66-0.58,1.72-0.93,2.45-1.37c0.85-0.73,1.37-1.68,2.45-2.3c1.13-0.56,2.79-1.04,4.14-1
	c0.67-0.07,1.15,0.03,1.7-0.12c0.27-0.1,0.4-0.23,0.74-0.15c0.63-0.05,1.42,0.27,1.98,0.27c0.92,0.2,2.18,0.19,2.93-0.49
	c0.23-0.22,0.31-0.32,0.37-0.28c0.15,0.2,0.16,0.7,0.55,1.1c0.1,0.15,0.37,0.17,0.52,0.18c0.53-0.01,1.07-0.08,1.64-0.17
	c0.75-0.16,1.15,0.34,1.78,0.53c-0.01-0.01,0.22,0.15,0.21,0.15c0.05,0.05,0.09,0.1,0.14,0.15c0.42,0.85,0.32,2.25,0.71,3.07
	c0.04,0.31,0.01,0.34-0.01,0.58c-0.12,0.87-0.34,1.92-0.37,2.8c0.04,0.54,0.26,1.02,0.23,1.68c-0.02,1.08-0.62,2.21-0.62,3.31
	c-0.08,1.08,0.2,1.46,0.1,2.26c-0.27,1.08-0.4,2.99-0.7,3.79c-0.24,0.79-0.18,1.63-0.08,2.49c0.2,1.12-0.43,1.97-0.62,2.97
	c-0.01,0.23-0.07,0.59-0.08,0.73c-0.11,1.13,0.29,2.38,0.09,3.48c-0.38,0.79,0.06,1.81-0.23,3.03c-0.09,0.46-0.03,0.94,0.34,1.26
	c0.37,0.38,0.82,0.35,1.05,0.73c-0.01,0.32-0.64,0.4-0.94,0.58c-0.39,0.23-0.23,0.51-0.08,1c0.22,0.7,0.67,1.47,0.44,2.25
	c-0.07,0.44-0.17,0.94-0.16,1.33c0.12,0.69,1.52,0.99,1.43,1.8c-0.09,0.42-0.36,0.84-0.4,1.25c-0.13,0.46,0.15,0.8,0.16,1.27
	c0.17,0.66-0.3,1.37-0.21,2.06c0.07,0.65,0.48,1.09,0.64,1.77c0.03,0.18,0.05,0.35,0.06,0.52l2.98,7.4l3.55,10.33
	c0.18-0.14,0.24-0.35,0.11-0.62c-0.09-0.26-0.06-0.29-0.09-0.47c0-0.29-0.2-0.57-0.18-0.84c0.05-0.44,0.79-1.46,0.18-1.92
	c-0.26-0.21-0.66-0.3-0.79-0.58c-0.11-0.25,0.19-0.72-0.1-1c-0.28-0.33-0.49-0.64-0.38-1.09c0.63-1.37-0.45-2.75-0.4-4.07
	c-0.07-0.61,0.13-0.92-0.05-1.42c-0.34-0.46-1.66-0.67-1.78-0.73c-0.14-0.12,0.53-0.37,0.64-0.46c1.02-0.74,0.84-1.55,0.01-2.31
	c-0.95-1.42-1.13-3.45-0.23-4.85c0.19-0.63,0.52-1.36,0.42-2.11c-0.04-0.29-0.19-0.44-0.29-0.77c-0.05-0.22,0.04-0.43,0.02-0.65
	c0-0.52-0.89-1.19-1.07-1.43c-0.03-0.07,0.02-0.12,0.14-0.18c0.28-0.16,0.78-0.18,0.93-0.51c0.24-0.48-0.63-1.36-0.35-1.89
	c0.26-0.74,2.33-1.21,0.82-1.9c-0.61-0.3-0.06-0.45,0.2-0.65c0.99-0.64-0.9-1.24-1.13-1.83c-0.23-0.64,0.85-1.11,1.01-1.62
	c0.24-0.67-0.89-0.17-1.18-0.35c-0.19-0.08-0.11-0.23,0.04-0.35c0.7-0.62,1.09-1.59,0.9-2.45c0.07-0.49,0.13-1.03-0.06-1.48
	c-0.16-0.56,0.18-1.06,0.01-1.6c-0.23-0.41-0.6-1.09-0.38-1.61c0.18-0.69,0.62-1.45,0.59-2.16c0.02-0.43,0-0.75,0.07-0.98
	c0.14-0.46,0.55-0.62,0.8-0.94c0.72-0.79-0.35-2.58-0.45-3.09c-0.1-0.27,0.1-0.41,0.33-0.53c0.24-0.2,0.65-0.3,0.78-0.66
	c0.04-0.4-0.39-0.95-0.46-1.34c-0.07-0.38-0.15-0.47-0.15-0.83c-0.07-0.58,0.52-0.67,0.68-0.95c-0.12-0.32-0.31-0.71-0.23-1.08
	c0.38-1.1,1.41-2,1.4-3.23c0-0.51,0-0.68-0.28-1.19c-0.16-0.35-0.48-0.71-0.43-1.03c0.15-0.51,0.88-0.86,1.22-1.26
	c0.25-0.32-0.17-0.72-0.15-1.27C167.33,461.57,164.59,459.61,163.58,457.65z M133.48,461.95c0.02,0.03,0.04,0.06,0.06,0.09
	c-0.11-0.12-0.2-0.24-0.26-0.34c0.03-0.2,0.19-0.13,0.33-0.03C133.57,461.74,133.53,461.82,133.48,461.95z M138.03,465.31
	c0.02-0.04,0.05-0.08,0.09-0.17c0.01,0.01,0.01,0.01,0.01,0.01C138.09,465.22,138.05,465.28,138.03,465.31z M138.4,464.83
	c-0.21-0.2-0.39-0.45-0.32-0.49c0.1,0.18,0.34,0.18,0.58,0.3C138.57,464.67,138.49,464.74,138.4,464.83z"/>
<g>
	<g>
		<g>
			<path class="st3" d="M184.03,477.35c-0.58,0.11-1.18,0.2-1.81,0.25c-3.28,0.61-6.15,2.57-9.4,2.66
				c-1.45,0.12-2.96-0.08-4.26,0.69c-2.07,1.31-0.82,4.52,1.37,4.8c1.97,0.4,3.95-0.52,5.74-1.29c2.21-0.65,4.25-1.01,6.57-1.66
				L184.03,477.35z"/>
		</g>
		<g>
			<path class="st3" d="M188.51,455.55c-1.97,0.14-3.98,0.78-5.63,1.81c-1.86,1.39-4.85,1.49-6.21,3.36
				c-0.08,0.1-0.02,0.36,0.14,0.5c0.36,0.4,1.63,1.04,3.24,1.61c2.58,0.88,5.36,1.46,8.01,2.27l3.13-9.51
				C190.35,455.52,189.47,455.47,188.51,455.55z"/>
		</g>
		<g>
			<path class="st3" d="M217.71,377.78c-1.85-0.85-5.24-0.64-6.7-1.82c-0.75-1.07,1.14-1.86,1.83-2.19c0.8-0.42,1.38-0.6,2.2-0.94
				c1.93-1.02,3.41-2.54-0.21-1.18c-1.1,0.29-2.13,1.05-3.19,1.49c-1.38,0.27-2.81,1.77-2.53,3.28c0.33,1.09,1.53,1.62,2.65,1.88
				c0.97,0.14,2.09,0.13,2.94,0.23c0.52,0.09,0.44,0.35,0.7,0.68c0.23,0.25,0.94,0.33,1.18,0.62c0.42,0.62-0.91,1.2-1.63,1.52
				c-1.22,0.52-2.39,0.84-3.72,1.11c-2.81,0.73-4.76,2.63-7.58,3.8c-3.02,1.12-5.73,3.14-8.39,4.73c-1.32,0.75-3.04,1.3-4.08,2.39
				c-2.29,2.77,5.86,0.56,6.02,0.56c0.76-0.08-0.01,0.3-0.26,0.37c-0.36,0.17-0.58,0.14-0.54,0.42c-0.18,0.26-0.07,0.45,0.2,0.69
				c0.34,0.31,2.05,0.63,2.65,0.78c1.66,0.31,3.01,0.71,4.85,0.78c3.03,0.01,5.44-0.73,8.24,0.18c0.48,0.12,1.19,0.34,1.24,0.77
				c-0.55,1.39-2.95,1.65-4.18,2.11c-1.72,0.45-2.8,0.96-4.59,1.32c-0.88,0.27-1.64,0.55-2.51,0.87c-1.39,0.57-2.12,1.26-3.01,1.43
				c-0.77,0.17-1.5,0.21-2.3,0.4c-0.56,0.13-1.18,0.27-1.73,0.48c-1.41,0.53-2.22,1.87-3.6,2.32c-0.63,0.22-1.07-0.74-1.75-0.79
				c-1.68,0.06-3.17,0.75-5.16,1.44c-1.62,0.75-3.36,1.67-5.16,1.24c-1.5-0.21-3.39-0.58-4.8-0.11c-0.56,0.31-1.02,1.13-1.62,1.55
				c-0.23,0.29-1.03,0.69-1.28,0.58c-0.5-0.16-0.53-0.42-0.9-0.58c-0.2-0.13-0.8,0.04-1,0.1c-1.49,0.41-2.82,1.29-4.07,2.18
				c-0.78,0.69-1.53,1.47-2.41,1.77c-2.19,0.9-6.43,0.02-8.42,1.45c-0.22,0.17-0.16,0.27-0.02,0.36c0.33,0.33,1.21-0.01,1.43,0.29
				c0.29,1.05-2.31,1.03-3.09,1.03c-2.98-0.26-5.9,1.63-8.62,2.52c-0.69,0.23-1.29,0.33-1.85,0.77c-2.4,2.59-7.33,7.81-10.24,10.92
				l-0.02,1.36c3.05-1.62,8.07-4.48,10.29-5.58c1.78-0.94,1.93-0.85,3.67-1.17c1.81-0.24,3.82-1.03,5.62-1.02
				c0.71,0,1.34,0.25,2.04,0.24c1.22,0.04,3.14-0.92,4.62-1.07c3.92-0.48,8.59,0.26,12.25-0.05c1.48-0.08,3-0.79,4.36-0.31
				c0.26,0.1,0.58,0.37,0.92,0.5c0.61,0.27,1.74,0.15,2.41,0.03c2.09-0.4,4.64-1.1,6.7-1.45c0.45-0.05,0.76-0.17,1-0.08
				c-0.08,0.12-1.52,0.56-0.99,0.43c0.61-0.16,3.25-0.87,3.08-0.66c-0.35,0.37-3.39,1.16-4.29,1.49c-0.52,0.18-0.74,0.29-0.4,0.29
				c1.52-0.15,2.66-0.45,4.63-0.78c2.33-0.42,4.54-0.84,6.55-1.16c0.77-0.12,1.15-0.1,0.85,0.02c-0.73,0.25-2.41,0.57-3.62,0.85
				c-0.58,0.13-0.78,0.19-0.51,0.16c0.73-0.07,8.25-1.29,8.97-1.27c-0.11,0.03-0.4,0.08-0.82,0.15c-3.88,0.66-8,1.19-11.29,1.83
				c0.67-0.04,2.61-0.34,3.47-0.47c2.77-0.54,6.63-1.11,9.26-1.46c1.17-0.15,2.64-0.33,2.01-0.15c-2.32,0.55-6.57,0.87-8.83,2.28
				c-3,1.12-5.88,1.15-8.83,1.65c-0.32,0.06-1.09,0.11-1.17,0.2c2.61-0.1,5.22-0.3,7.75-0.36c0.21-0.01,0.94-0.03,0.59,0.03
				c-2.17,0.25-4.89,0.43-7.33,0.58c-2.91,0.15-7.01,0.32-9.63,0.44c-0.21,0.01-0.09,0.01,0.01,0.01c0.8-0.01,1.97-0.04,2.71-0.06
				c0.85-0.02,1.6-0.04,2.29-0.03c-0.16,0.07-0.86,0.05-1.4,0.1c-4.76,0.1-0.38,0.29-2.7,0.93c-1.99,0.61-3.33,0.63-5.68,1.29
				c-1.69,0.49-3.25,1.57-4.96,2.03c-2.91,0.6-6.62,0.05-9.67,1.32c-5.12,1.46-9.09,4.53-14.24,5.58
				c-1.37,0.41-8.74,1.72-10.64,3.08l-0.27,0.94c1.16,1.06,6.92,0.75,8.14,1.69c0.68,0.61,0.95,1.04,2.07,1.2
				c3.39,0.25,6.64,0.76,9.92,1.63c5.03,0.62,9.82,1.1,14.72,2.09c1.91,0.28,4.13,1,5.87,0.75c2.01-0.42,3.98-0.97,6.02-0.25
				c4.09,0.93,8.26,1.62,12.42,1.6c0.68,0.02,1.38,0.01,2.07,0l1.88-5.72c-0.44-0.08-0.88-0.18-1.3-0.28
				c-2.84-0.62-5.41-0.36-8.34-0.87c-4.28-0.46-8.42-1.43-12.59-1.43c-2.28-0.01-4.3-0.86-6.42-1.07c-1.28-0.19-2.44,0.25-3.42-0.15
				c-0.46-0.12-0.91-0.25-1.06-0.37c-0.11-0.2,0.11-0.26-0.05-0.31c-0.17-0.03-0.56-0.02-0.69-0.12c-0.09-0.07,0.02-0.2-0.13-0.31
				c-0.46-0.27-1.39-0.27-1.97-0.35c-1.24-0.1-0.71-0.09-0.73-0.15c0.87-0.15,2.49,0.01,3.56,0.01c0.63,0,0.96-0.03,1.48-0.36
				c1.39-1.41,4.85-2.09,6.95-2.73c2.33-0.77,4.56-0.88,6.93-1.74c1.91-0.59,2.8-1.39,4.48-1.9c5.9-1.39,13.26-2.11,19.12-2.96
				c0.28-0.03,0.55-0.08,0.82-0.12l8.26-13.21c-1.09,0.06-2.25,0.18-3.28,0.22c-6.4,0.47-12.63,0.4-19,0.95
				c-1.31,0.15-2.57,0.1-3.57-0.13c-2.94-0.08-6.2,0.48-9.23,0.23c-2.44-0.08-5.24,0.83-7.64,0.57c-0.24-0.38,1.04-1.76,1.59-1.98
				c1.34-0.64,2.56,0.39,3.88-0.03c3.26-1.15,6.16-2.45,9.79-3.72c1.42-0.47,3.04-0.32,4.47-0.51c0.92-0.13,1.95-0.66,2.67-0.98
				c0.69-0.38,2.13-0.51,2.44-1.08c0.3-0.43,0.65-0.8,1.12-1.06c2.17-1.17,5.13-0.67,7.3-1.54c3.54-1.18,6.56-2.63,9.88-4.01
				c0.93-0.36,1.78-0.3,2.7-0.52c0.95-0.3,1.67-0.86,2.9-1.83c0.85-0.72,1.75-1.44,2.61-2.18l0.36-4.44c-0.99-0.09-2-0.12-2.79-0.2
				c-3.14-0.1-4.46-0.63-7.02-1.08c-3.07-0.44-5.47-0.29-8.29-0.7c-1.1-0.15,0.03-0.85-0.1-1.08c-0.09-0.17-0.25-0.15-0.4-0.23
				c-0.11-0.04-0.15-0.05-0.27-0.12c-0.07-0.04-0.05-0.08,0.02-0.13c0.19-0.18,1.4-0.51,1.63-0.79c0.2-0.22,0.16-0.24,0.24-0.38
				c0.29-0.68,1.02-0.99,1.62-1.36c1.15-0.72,2.18-0.91,3.51-0.95c2.09-0.3,3.31-2.81,5.33-3.29c1.4-0.35,2.76-0.04,4.71-0.57
				c0.92-0.28,1.91-0.63,2.78-1.1l0.29-3.58C219.14,378.53,218.39,377.95,217.71,377.78z"/>
		</g>
	</g>
</g>
<g>
	<path class="st3" d="M201.39,339.17c1.8-0.06,3.96-0.56,5.54-1.58c1.6-0.79,2.76-1.4,4.11-2.37c1.63-0.92,4.48-1.87,6.02-2.39
		c0.75-0.12,1.3-0.16,2.08-0.3c0.58-0.16,1.28-0.28,2-0.41l-0.73-7.55c-2.31,0.41-5.18-0.92-7.34-0.06
		c-0.56,0.13-1.19,0.14-1.69-0.24c-0.49-0.33-0.86-0.76-1.39-0.95c-0.64-0.22-2.4-0.08-3.52-0.07c-2.3,0.53-4.73,0.43-6.77,0.56
		c-0.38,0.02-0.46-0.04-0.88-0.15c-0.32-0.08-0.6-0.04-0.97-0.13c-0.35-0.08-0.85,0.03-1.13,0.03c-0.56-0.03-1.42,0.15-1.96,0.3
		c0.1-0.06,0.12-0.06,0.39-0.18c0.35-0.15,0.71-0.29,0.58-0.28c-0.45,0.08-1.7,0.47-1.99,0.5c-0.17,0.02-0.22-0.02-0.06-0.12
		c0.49-0.24,0.89-0.55,1.29-0.8c0.58-0.27,1.58-0.38,2.2-0.64c0.42-0.18-2.2-0.1-1.87-0.23c0.69-0.23,2.09-0.06,2.64-0.67
		c0.12-0.31-0.02-0.57,0.01-0.93c0.07-0.61,0.76-1.27,1.44-1.55c0.7-0.34,1.58-0.95,2.34-0.76c0.12,0.04,0.13,0.04,0.32,0.13
		c0.58,0.39,1.27,0.3,1.87-0.07c0.65-0.43,0.98-0.8,1.13-1.25c0.1-0.45,0-0.88,0.43-0.97c1.29-0.3,3.19-1.03,4.21-2.09
		c3.07-1.27,5.29-3.47,8.54-4.81c0.22-0.09,0.44-0.19,0.66-0.29l-0.45-4.63l-0.27-0.74c-0.69,0.35-1.11,0.4-1.82,0.59
		c-0.34,0.12-0.48,0.11-0.85,0.19c-1,0.1-1.77,0.82-2.53,1.61c-0.87,0.69-1.08,2.22-1.95,2.77c-0.58,0.13-0.84-0.61-1.32-0.88
		c-0.2-0.15-0.44-0.08-0.61,0c-1.14,0.37-2.22,1.61-3.24,2.02c-0.23,0.11-0.44,0.22-0.63,0.37c-0.33,0.3-0.7,0.27-1.16,0.49
		c-0.39,0.24-0.95,0.52-1.43,0.74c-1.52,0.9-4.82,1.77-6.29,2.67c-2.26,1.83-5.11,3.61-7.47,5.09c-1.53,1.1-3.54,1.88-5,2.95
		c-0.65,0.48-1.43,1.16-2.1,1.62c-0.74,0.52-1.81,1.14-2.37,1.71c-0.47,0.48-0.73,0.97-1.18,1.41c-0.72,0.57-1.3,1.25-1.6,1.91
		c-0.09,0.2,0.04,0.29,0.25,0.36c0.54,0.14,0.81,0.34,1.56,0.57c1.4,0.6,3.05,0.66,4.55,0.42c0.67,0.02,2.09-0.66,1.77-0.25
		c-0.17,0.25-0.88,0.8-0.77,1.12c0.19,0.34,0.97,0.38,1.39,0.43c3.8,0.16,7.65-1.35,11.46-1.04c1.82,0.21,3.38-0.17,5.26-0.24
		c1.31-0.1,3.43,0.77,1.9,2.03c-2.16,1.44-4.43,1.74-6.85,2.92c-0.73,0.33-1.17,1.4-1.77,1.74c-0.58,0.24-1.13-0.26-1.65-0.19
		c-1.25,0.38-2.43,1.54-3.94,1.75c-0.25,0.05-0.68,0.2-0.94,0.27c-0.31,0.09-0.7,0.17-0.97,0.27c-0.78,0.33-1.15,1.45-1.93,1.7
		c-1.38,0.6-2.63,0.14-4.04,0.95c-1.78,0.67-2.66,4.1-0.58,4.84c1.05,0.3,2.43,0.23,3.58,0.33c2.62,0.31,5.2,0.38,7.93,0.29
		c1.23,0.07,2.52-0.07,3.59-0.37c0.49-0.06,0.82-0.36,1.29-0.45c0.56-0.02,0.85-0.05,1.4-0.11c0.49-0.02,0.95,0.46,1.39,0.57
		c0.71,0.15,1.49-0.02,2.18,0.12c0.62,0.04,1.31,0.62,1.87,0.82c0.49,0.19,0.82,0.16,1.27,0.1c1.42-0.35,3.34-1.33,4.65-1.34
		c0.95-0.01,2.18,0.96,3.02,0.65c0.33-0.14,0.34-0.38-0.01-0.65c-0.23-0.22-0.42-0.25-0.66-0.34c-1.04-0.32-1.63-1-2.71-1.38
		c-0.96-0.17-1.92,0.21-2.89,0.18c-0.45-0.02-0.97-0.22-1.46-0.11c-0.3,0.06-0.58,0.05-0.92-0.02c-1.39-0.44-2.9-0.72-4.44-0.71
		c-2.05-0.12-4.66-0.04-2.94-2.55c0.45-0.63,1.05-1,1.95-1.03c0.64-0.09,1.45,0.15,1.98-0.17C201.61,340,200.9,339.18,201.39,339.17
		z M208.17,329.99c0.33,0.08,0.18,0.25,0.06,0.47c-0.06-0.15-0.2-0.19-0.33-0.29L208.17,329.99z M207.22,330.98
		c-0.1-0.08-0.2-0.14-0.29-0.18l0.18-0.11C207.13,330.77,207.16,330.87,207.22,330.98z M206.96,330.74l-0.05,0.05c0,0,0,0,0,0
		C206.93,330.77,206.95,330.76,206.96,330.74z M201.51,313.28c-0.05,0.04-0.13,0.1-0.26,0.21c0-0.01-0.01-0.01-0.01-0.01
		C201.36,313.39,201.45,313.32,201.51,313.28z M200.61,313.87c0.17,0.24,0.27,0.53,0.14,0.57c-0.03-0.21-0.38-0.21-0.67-0.34
		C200.24,314.06,200.42,313.97,200.61,313.87z M183.54,342.45c0,0-0.01,0.01-0.01,0.01c-0.02,0.02-0.04,0.04-0.05,0.05c0,0,0,0,0,0
		C183.5,342.5,183.52,342.48,183.54,342.45C183.55,342.45,183.54,342.45,183.54,342.45z M188.46,343.45
		c-0.25-0.03-0.61,0.07-0.84-0.09c-0.31-0.3-0.34-1.15-0.04-1.47l0.09-0.04C188.21,341.88,188.8,343.06,188.46,343.45z
		 M190.47,343.67c-0.19,0.14-0.58,0.29-0.85,0.26c-0.24-0.03-0.36-0.29-0.6-0.34c0,0,0.39,0.06,0.54,0.02
		c0.32,0.01,0.92-0.49,0.99,0.01L190.47,343.67z M190.68,342.85c-0.01-0.04,0-0.07,0.03-0.08c0.11,0.01,0.19,0,0.26-0.01
		C190.86,342.78,190.77,342.81,190.68,342.85z M192.54,342.4l-0.08-0.03c-0.33,0.14-0.43,0.37-0.65,0.77
		c-0.08,0.07-0.18-0.37-0.3-0.46c-0.21-0.11-0.35,0.09-0.25-0.27c0.06-0.55,0.32-1.36,0.77-0.41c0.1,0.29,0.17,0.36,0.39,0.29
		c0.56-0.21,0.72,0.82,0.46,1.02C192.73,343.41,192.68,342.52,192.54,342.4z M193.04,343.34c-0.06,0-0.1-0.01-0.14-0.02
		c0.1-0.15,0.22-0.25,0.36-0.29C193.21,343.19,193.15,343.31,193.04,343.34z M194.45,345.58l-0.07-0.03
		c-0.11-0.1-0.03-0.62,0.02-0.88c0.06-0.26-0.12-0.19-0.16-0.33c-0.04-0.12,0.11-0.55,0.02-0.49c-0.25,0.22-0.46,0.27-0.53-0.17
		c-0.07-0.24,0.23-0.31,0.11-0.47c-0.05-0.06-0.14-0.16-0.12-0.17c0.02-0.05,0.71,0.12,0.8,0.32
		C194.85,343.88,195.11,345.25,194.45,345.58z M194.61,342.95l-0.09-0.12c0.25,0.05,0.43-0.01,0.52,0.27
		C194.91,343.09,194.76,343.05,194.61,342.95z M195.12,343.11l-0.08-0.05c-0.05-0.3-0.49-1.12-0.37-1.56
		c0.13-0.46,1.53-0.52,0.96,0.11c-0.03,0.34,0.21,0.79,0.1,1.04c-0.01,0.05,0.12-0.02,0.27-0.02
		C196.43,342.82,195.16,343.19,195.12,343.11z"/>
	<path class="st3" d="M204.87,317.96c0.1,0.14,0.24,0.26,0.37,0.05c-0.02-0.12-0.06-0.26-0.12-0.41c0.01,0.03,0.02,0.07,0.03,0.1
		C205.04,317.82,204.95,317.9,204.87,317.96z"/>
</g>
<g>
	<path class="st3" d="M120.57,282.84c-0.13-0.27,0.79-0.27,0.85-0.53c0.1-0.24-0.5-0.77-0.54-0.97c-0.04-0.09-0.05-0.17-0.05-0.24
		l-4.82-0.96c-0.19,0.37-0.31,0.52-0.33,1.08c-0.12,0.5-0.26,1.13-0.27,1.7c-0.04,1.82,0.22,3.66-0.76,5.32
		c-0.07,0.18-0.11,0.35-0.1,0.51c0,0.32,0.31,0.61,0.35,0.78c0.05,0.18-0.14,0.26-0.17,0.39c-0.09,0.08,0.32,0.48,0.33,0.52
		c0.92,1.04-1.02,1.57-0.97,2.57c-0.02,0.48,0.5,0.66,0.66,1.02c0.13,0.27-0.04,0.68-0.06,1c-0.05,0.27-0.22,0.3-0.22,0.54
		c-0.05,0.19,0.1,0.5,0.19,0.83c0.22,0.93-1.4,0.39-1.6,1.13c-0.18,0.51,0.56,1.29,1,1.41c0.37,0.11,0.68-0.18,1.03-0.07
		c1.03,0.45,2.64,0.86,3.65,0.27c0.67-0.29-0.54-1.59,0.54-1.01c0.05,0.03-0.03-0.19,0-0.4c0.01-0.16,0.11-0.27,0.15-0.4
		c0.13-0.18-0.5-0.59-0.6-0.76c-0.15-0.17,0.76-0.05,0.65-0.2c-0.03-0.12-0.95-0.2-0.81-0.41c0.03-0.17,0.32-0.45,0.5-0.49
		c0.15-0.06,0.26-0.07,0.29-0.21c-0.16-0.59-0.63-1.35,0.06-1.95c0.1-0.13,0.15-0.11,0.22-0.34c0.02-0.13-0.16-0.34-0.3-0.54
		c-0.08-0.18-0.19-0.22,0.02-0.39c0.34-0.13,0.47-0.37,0.7-0.72c0.18-0.24,0.34-0.24,0.44-0.54c0.01-0.22-0.43-0.76-0.44-1.31
		c-0.14-0.91-0.25-1.15,0.36-1.58c0.41-0.55-1.22-1.01-1.2-1.6c0.02-0.52,1.41,0.15,1.59,0.15c0.15-0.32-1.63-0.89-0.32-1.3
		c0.34-0.22-0.21-0.36-0.25-0.65c-0.08-0.45,0.66-0.83,0.97-0.97c0.19-0.05,0.46-0.02,0.5-0.04
		C121.91,283.37,120.54,283.06,120.57,282.84z"/>
	<path class="st3" d="M172.89,295.26c-0.39-0.23-0.9-0.27-0.98-0.54c-0.12-0.44,0.73-0.41,0.83-0.55c0.08-0.09-0.04-0.32-0.07-0.55
		c-0.02-0.19,0.03-0.36,0.03-0.48c0.07-0.26-0.28-0.43-0.43-0.95c-0.11-1.09-0.06-2.02-0.38-3.11c-0.07-0.33-0.1-0.57,0.23-0.73
		c0.26-0.14,0.14-0.59-0.03-0.82c-0.08-0.11-0.18-0.25-0.22-0.38c0.04-0.15,0.38-0.35,0.37-0.67c0.07-0.62,0.12-0.6-0.12-1.17
		c-0.06-0.2-0.01-0.46,0.03-0.71l-8.64-0.23c0.2,0.36,0.49,0.69,0.83,0.78c0.43,0.15-0.03,0.35-0.07,0.79
		c0.38,1.24-0.71,3.02-0.59,4.16c0.12,0.62,0.45,0.84,0.89,1.39c0.18,0.28,0.61,0.66,0.2,0.84c-0.53,0.24-0.1,0.78,0.03,1.23
		c0.14,0.74,0.22,1.5,0.31,2.21c-0.08,0.71-0.63,1.32-0.36,2.08c0.11,0.5,0.33,1.02,0.43,1.52c0.08,0.31,0.05,0.65,0.04,0.9
		c0.02,0.48,0.18,0.41,0.33,0.92c0.76,0.08,0.71,1.34,1.03,1.88c0.37,0.42,1.01,0.1,1.47,0.05c0.9-0.19,2.42-0.51,3.29-0.69
		c0.77-0.24,1.41-0.09,1.84-0.73c-0.02-1.58,0.66-3.91,0.44-5.43C173.53,295.83,173.31,295.48,172.89,295.26z"/>
	<path class="st3" d="M210.54,306.13c-0.05-0.33-0.51-0.83-0.58-1.2c-0.07-0.5-0.91-0.3-1.44-0.32c-0.77-0.18,1.09-1.02,1.1-1.2
		c0.05-0.09-0.23-0.07-0.36-0.15c-0.14-0.06-0.18-0.17-0.28-0.22c-0.14-0.07-0.4-0.09-0.48-0.39c-0.25-0.69-0.01-1.01-0.06-1.41
		c-0.06-0.03-0.18,0-0.22-0.07c0-0.29-0.03-0.53-0.1-0.83c-0.08-0.31,0.33-0.37,0.59-0.44c0.02-0.03,0.06-0.1,0.08-0.13
		c-0.11-0.29-0.18-0.35-0.19-0.63c0-0.19,0.05-0.41,0.02-0.57c-0.05-0.28-0.27-0.41-0.46-0.62c-0.31-0.33-0.47-0.94-0.45-1.34
		c0.02-0.44,0.27-1.32,0.29-1.98c0.05-0.49-0.83-0.7-0.82-1.23c-0.09-0.48,1.11-0.13,0.76-0.57c-0.1-0.11-0.18-0.24-0.25-0.36
		c-0.06-0.19,0.44-0.28,0.22-0.71c-0.22-0.36-0.41-0.98-0.56-1.27c-0.35-0.57-1.68,0.38-2.14-0.14c0.03-0.3,1.07-0.21,1.2-0.51
		c0.01-0.07,0-0.24,0.11-0.3c0.25-0.08,0.49,0,0.73-0.32c0.35-0.37-0.04-0.53-0.11-0.86c0.05-0.27,0.62-0.52,0.32-0.83
		c-0.19-0.15-0.22-0.3-0.21-0.47l-4-0.36c0.01,0.02,0.01,0.05,0.01,0.08c0.13,0.4,0.51,0.49,0.44,0.82
		c-0.05,0.31-0.35,0.88-0.21,1.33c0.2,0.9,1.12,1.84,0.73,2.76c-0.11,0.22-0.15,0.23-0.4,0.44c-0.14,0.23-0.04,0.49,0.2,0.78
		c0.36,0.47,0.87-0.08,1.33,0.13c1.03,0.49-1.97,0.5,0.16,1.4c0.26,0.13,0.23,0.4,0.29,0.63c0.06,0.22,0.22,0.49,0.15,0.62
		c-0.05,0.1-0.3,0.09-0.43,0.1c-0.08,0.01-0.1,0.03-0.06,0.08c0.07,0.13,0.68,0.61,0.66,0.78c0.02,0.11-0.13,0.05-0.34,0.02
		c-0.16,0-0.17-0.08-0.49,0.07c-0.31,0.21-0.65,1.33-0.34,1.49c-0.08,0.02,0.74,0.11,0.79,0.21c0.49,0.24,0.74,1.05,0.98,1.33
		c0.08,0.03-0.12,0.13-0.18,0.11c-0.8-0.03-1.85,1.04-1.28,1.78c0.11,0.19,0.28,0.64,0.11,0.94c0.22,0.04,0.58-0.16,0.78,0.15
		c0.18,0.29,0.14,0.79,0.12,1.16c-0.17,1.15,1.22,1.98,2.13,2.31c0.32,0.14,0.75,0.26,0.91,0.58c0.01,0.27-0.42,0.3-0.56,0.5
		c-0.12,0.12-0.1,0.29-0.04,0.49c0.16,0.44,0.07,0.67,0.06,0.99c0.02,0.12,0.22,0.26,0.3,0.36c0.1,0.1-0.04,0.19-0.27,0.26
		c-0.78,0.16-0.02,0.4,0.34,0.7c0.43,0.38-0.19,0.33-0.43,0.41l-0.02,0.04c0,0.08,0.2,0.28,0.47,0.46c0.31,0.21,0.63,0.29,0.86,0.26
		c0.05-0.05-0.57-0.13-0.53-0.4c0.01-0.13,0.12-0.23,0.28-0.31c0.19-0.11,0.26-0.06,0.57-0.29c0.23-0.33,0.02-0.63-0.36-0.91
		c-0.25-0.19-0.51-0.37-0.54-0.5c-0.07-0.2,0.47-0.29,0.61-0.36c0.2-0.09-0.5-0.19-0.51-0.39c-0.05-0.15,0.48-0.3,0.62-0.49
		c0.29-0.27,0-0.79,0.13-1.06C210.31,306.49,210.53,306.35,210.54,306.13z"/>
</g>
<path class="st3" d="M230.41,195.11c0.17-4.08-0.78-8.19-1.49-12.25c-0.18-1.24-1.08,1.94-1.36,1.85c-0.47,0.3-0.32-0.57-0.17-1.27
	c0.58-1.33,0.3-2.26,0.23-3.5c-0.03-0.38,0.12-0.64,0.29-0.82c0.03-0.46-0.05-1.24-0.09-1.8c-0.05-0.61-0.1-1.29-0.16-1.87
	c-0.11-1.11-0.66-1.21-0.93-2.53c-0.22-1.23,0.06-4.42-0.9-3.04c-0.87,2.43-2.06,3.97-3.17,6.8c-1.04,2.03-0.88,3.88-1.54,5.94
	c-1.32,3.91-3.08,7.22-4.25,11.11c-1.48,3.7-1.37,8.81-2.66,12.59c-0.15,0.4-0.13,1.33-0.7,1.17c-0.43,0.16-0.21,1.55-0.36,1.93
	c-0.11,0.24-0.39-0.32-0.49-0.35c-0.11-0.05-0.01,0.77-0.39-0.05c-0.42-0.85-0.52-1.53-0.96-2.41c-1.2-2.16-4.34-3.25-5.86-5.48
	c-0.86-0.98-0.14,0.4-0.81,0.01c-0.77-0.6-1.51-1.75-2.12-2.56c-2.68-3.53-6.54-6.55-9.62-9.76c-0.63-0.61-0.99-0.97-1.08-0.92
	c0.77,3.11,3.25,9.61,3.99,12.06c0.63,2.18,2.54,4.23,4.1,5.74c0.96,0.7,2.04,1.3,2.27,2.62c0.28,1.99-0.81,1.27-1.5,0.26
	c-0.11-0.12-0.12-0.01-0.05,0.35c0.15,0.73,0.43,1.63,0.6,2.38c0.19,0.51,0.12,1.05,0.62,1.27c1.13,2.31,1.75,5.52,3.33,7.57
	c1.59,2.41,1.56,3.51-1.4,2.34c-0.13-0.05-0.1,0.09,0.01,0.43c0.19,0.46,0.07,1.24-0.52,1.08c-0.32-0.08-0.56-0.75-0.56-0.99
	c0.09-1.74-2.17-1.26-3.08-2.3c-0.96-1.2-2.08-0.75-3.22-1.39c-0.52-0.23-1.4-0.76-1.82-0.89c-0.37-0.08-0.37,0.18-0.89,0.02
	c-0.27-0.07-0.7-0.3-1.16-0.6c-1.84-1.43-3.65-3.4-5.15-5.26c-1.58-1.9-3.33-4.81-6-4.93c-0.74,0.18,0.5,0.75,1.09,1.16
	c1.65,1.04,1.45,0.97-0.01,0.65c-0.23-0.02-0.05,0.16,0.42,0.48c1.5,0.85,1.75,1.76,0.02,0.7c-1.15-0.89-3.17-1.71-3.66-2.93
	c-0.45-1.12-0.5-2.46-1.65-3.17c-2.22-1.53-4.65-2.4-6.95-3.76c-0.93-0.52-0.67-0.06-1.53-0.35c-1.36-0.5-2.67-1.92-3.77-2.79
	c-3.15-1.69-8.76-3.15-12.54-4.64c-1.23-0.42-1.69-0.63-1.14-0.02c1.48,1.58,5.86,6.06,7.98,8.23c1.72,1.78,3.16,4.2,5.19,5.71
	c0.87,0.74,3,1.65,2.91,2.9c-0.14,0.22-0.43,0.3-0.54,0.54c0.58,1.27,1.98,2.05,3.03,3.28c1.66,1.8,3.77,2.5,4.92,4.64
	c1.66,3.13,4.97,6.3,6.33,9.11c1.45,2.85,4.12,5.1,5.76,7.78c0.7,1.39,2.65,1.97,3.62,3.47c0.11,0.23,0.31,0.6,0.07,0.78
	c-1.65,0.85,1.75,3.67,2.21,4.84c2.21,4.83,7.25,8.62,10.65,13.17c0.29,0.41,0.52,0.72,0.6,1.13c0.01,0,0.03,0.31,0.02,0.29
	c0.01,0.14-0.06,0.25,0.03,0.36c0.16,0.15,1.28,1,1.47,1.52c0.49,0.87,0.59,2.17,0.32,2.34c-0.24,0.18-0.56-0.16-0.78-0.15
	c0.83,2.38,2.12,5.06,3.56,7.26c1.03,2.18,2.86,4.2,1.64,6.57c-0.18,0.7-0.19,1.72-1.03,1.93c-1.42,0.21-1.03-0.36-0.17-1.17
	c0.05-0.08,0.09-0.19-0.02-0.25c-0.71-0.32-0.84,0.53-1.53,0.64c-0.88,0.17-2.03-0.02-2.98-0.34c-1.26-0.44-1.63-1.17-2.79-1.97
	c-1.33-0.9-3.53-1.72-5.03-2.55c-1.84-1.06-3.12-2.13-5.05-2.8c-4.57-1.48-8.25-5.2-12.72-6.49c-2.61,0.29-4.35-0.4-6.21-2.66
	c-0.22-0.23-0.45-0.49-0.61-0.74c-0.46-0.77-0.14-1.02-0.4-1.66c-0.74-1.58-2.35-2.28-3.57-3.39c-1.45-1.13-2.28-2.73-3.35-4.31
	c-1.29-1.54-1.86-2.82-2.87-4.55c-2.62-3.11-5.7-6.54-9.05-9.19c-0.42-0.11-0.97,0.24-1.41-0.12c-0.47-0.35-1.29-0.71-1.36-1.33
	c-1.33-5.03-9.04-8.99-13.2-11.81c-1.15-0.7-2.41-1.06-3.7-1.4c-3.11-0.88-4.9-2.77-7.35-4.39c-3.23-2.3-9.89-7.12-10.68-7.63
	c1.14,2.55,5.37,8.54,7.24,11.75c1.78,2.6,3.05,5.53,5.81,7.73c2.15,1.02,2.24,3.44,3.91,4.93c2.07,2.12,4.58,4.61,7.21,5.93
	c0.73,0.75,1.14,1.65,2.08,2.41c4.63,3.97,7.96,9.91,13.54,12.76c1.76,1.11,4.22,1.72,5.15,3.66c-0.01,0.33,3.65,2.02,2.24,2.02
	c-2-0.36-3.58-1-5.62-2.1c-2.5-0.82-5.63-1.86-8.21-2.83c-0.96-0.16-2.96,0.56-4,0.24c-3.9-2.4-8.1-4.89-12.49-6.47
	c-1.51-0.57-1.28-0.8-2.44-1.6c-0.72-0.45-1.85-1.1-2.86-1.57c-4.3-1.58-7.77-4.21-11.81-6.5c-1.33-0.67-1.96-2.02-3.04-2.87
	c-2.54-1.67-5.22-3.35-7.73-5.18c-0.73-0.54-1.7-1.14-2.4-0.48c-1.17,1.36-3.47,3.98-3.09,5.44c1.53,2.57,4.69,4.09,7.2,5.42
	c1.96,1.69,4.61,2.55,6.78,4.05c1.62,1.32,3.73,2.4,5.48,3.31c3.7,2.99,8.22,6.81,12.3,8.78c0.65,0.3,1,0.53,1.55,1.01
	c0.48,0.4,0.07,0.54,0.18,0.9c1.19,1.15,3.7,2.79,5.12,3.84c0.27,0.21,0.27,0.38,0.4,0.54c0.22,1.22,0.99,2.57,2.37,3.52
	c2.29,1.79,5.7,3.58,7.16,6.18c-0.03,0.23-0.78-0.08-1.06-0.21c-0.39-0.19-0.1,0.01-0.78-0.23c-7.41-2.86-15.18-4.61-22.33-8.21
	c-2.92-0.69-5.49-1.4-8.65-1.88c-1.93-0.54-3.56-1.85-5.46-2.87c-2.19-1.48-4.53-0.97-7.01-1.64c-1.16-0.4-2.34-0.84-3.4-1.42
	c-0.93-0.54-3.11-1.13-4.23-2.22c-0.9-1-0.31-2.39-0.81-3.99c-0.2-1.13-0.82-2.07-1.9-2.4c-0.22-0.14-0.42-0.55-0.69-1.02
	c-0.35-0.65-1.03-1.01-1.72-0.78c-1.76,0.73-2.17,3.38-1.52,5.3c0.23,0.85,0.79,1.8,0.85,2.63c-0.01,0.23-0.23-0.05-0.47-0.47
	c-0.97-1.63,0.08,0.7,0.39,1.09c1.05,1.64,2.16,3.36,4.15,3.99c1.14,0.29,1.12,1.14,1.88,1.39c1.37-0.28,2.51,0.33,3.45,1.28
	c1.98,1.24,4.65,1.03,6.89,2.27c1.2,0.57,2.11,1.3,3.48,1.46c2.84,0.21,4.93,2.76,7.74,3.45c2.25,0.32,5.19,1.2,7.7,1.92
	c0.87,0.25,1.41,0.69,2.2,1.18c1.08,0.67,2.57,0.52,3.94,0.45c0.81,0.02,1.57,0.04,2.21,0.52c0.42,0.44-0.48,1.06-0.27,1.19
	c0.03,0.03,0.09,0.05,0.17,0.08c1.25,0.24,2.63,0.04,3.85,0.49c1.09,0.29,2.11,1.26,3.17,1.6c1.51,0.57,3.11,0.54,4.65,1.16
	c1.46,0.44,3,1.61,4.14,2.19c0.71,0.44,2.32,0.79,2.9,1.33c0.36,0.23-0.03,0.8,0.53,0.67c0.68-0.18-0.6-1.67,0.52-1.43
	c1.25,0.22,2.39,1.14,3.55,1.87l6.41,0.17c-0.24-0.24-0.47-0.47-0.65-0.7c-3.54-3.82-6.68-8.02-11.53-10.24
	c-0.62-0.41-2.1-1.7-0.93-1.29c0.31,0.14-0.45-0.79,0.4-0.22c0.43,0.31,1.03,0.7,1.41,1c0.17,0.12,0.23,0.14,0.16,0.05
	c-0.11-0.38-9.32-7.93-6.29-6.32c1.14,0.78,2.12,1.42,2.81,2c0.83,0.89,1.72,2.02,2.95,2.35c2.33-0.21-5.79-6.52-5.97-7.45
	c0.01-0.9,2.99,0.57,3.68,0.64c4.02,0.28,6.84,3.13,10.65,4.16c2.31,0.66,4.71-0.11,6.97,0.79c1.56,0.46,3.23,0.3,4.72,1.02
	c0.93,0.42,2.13,0.89,3.09,1.01c0.08,0.01,0.14,0,0.17-0.01c0.3-0.09-1.31-0.71-1.04-0.83c0.89-0.07,1.93,0.22,2.82,0.34
	c4.23,1.14,8.55,4.04,12.51,5.78c1.47,0.74,2.73,0.66,4.3,1.23c7.35,2.94,14.41,5.96,22,7.97c0.66,0.2,1.56,0.34,1.99-0.14
	c1.35-5.73,0.99-12.46-1-17.97c-0.77-1.94-2.78-2.76-3.52-4.59c-0.46-1.23,0.43-1.28,0.02-2.11c-3.99-6.34-8.06-12.93-12.65-18.67
	c-0.87-1.07-0.48-1.13-0.97-2.16c-0.66-1.44-2.49-2.7-3.33-4.11c-1.42-2.75-4.1-6.14-6.35-8.44c-2.31-2.71-4.31-5.47-6.7-8.17
	c-1.14-1.13-1.86-2.3-2.55-3.72c-0.76-1.36-2.65-3.14-2.85-3.69c-0.06-0.14-0.04-0.2,0.12-0.14c0.92,0.51,0.97,0.5,2.18,1.24
	c0.33,0.24,0.75,0.59,0.99,0.89c0.43,0.58-0.07,0.63,0.54,1.13c3.58,2.6,7.02,5.44,10.6,7.71c0.81,0.55,1.05,1.07,1.51,0.84
	c0.82-0.55,2.61-0.14,3.48,0.31c1.66,0.98,1.77,3.4,3.37,4.2c1.42,1.55,3.76,1.55,5.59,2.4c2.26,1.63,5.28,1.46,7.72,3.03
	c1.52,0.87,1.25-0.82,0.86-1.87c-1.32-3.77-2.73-6.96-3.87-10.61c-0.75-1.99,0.42-4.56-0.77-6.33c-1.13-1.17-2.36-3.29-2.84-4.67
	c-0.21-0.7,0.18-0.43-0.04-1.08c-0.28-0.7-0.37-2.03,0.76-1.2c0.5,0.67,0.58,1.05,1.27,1.85c2.87,3.56,6.07,6.9,7.92,11.1
	c0.31,0.95-0.78-0.06-0.62,0.51c0.16,0.5,0.46,0.98,0.78,1.35c0.57,0.62,0.78,0.09,0.83-0.54c0.18-5.5-0.21-11.98,0.63-17.43
	c0.23-1.09-0.13-1.6,0.03-2.65c0.31-1.9,1.68-3.81,2.38-5.68c1.04-3.27,0.64-6.72,2.87-9.46c0.85-1.29,0.83-3.27,1.65-4.16
	c0.25-0.04,0.52,0.73,0.81,1.61c0.57,1.72,1.57,3.74,1.4,5.8c-0.09,1.12-1.02,4.73,0.77,4.5c0.4,0.04,0.44,0.34,0.6,0.64
	c0.47,1.16-0.76,1.74-0.67,2.88c-0.07,0.97,0.68,2.01,0.75,3.05c0.1,1.22,0.07,2.62,0.1,3.86c-0.07,0.93-0.69,0.28-0.5,1.33
	c0.15,0.94,0.39,2.18,0.37,3.1c-0.08,0.86-0.49-1.58-0.99-0.09c-0.38,1.07-0.43,2.17-0.58,2.96c-0.12,0.67-0.23,1.48,0.02,2.2
	c1.15,1.96,0.78,4.61,0.96,6.79c-0.01,0.29,0.01,0.38-0.1,0.53c-0.23,0.12-0.34,0.02-0.59,0.15c-0.25,0.11-0.45,0.39-0.61,0.65
	c-1.19,2.24-0.63,5.18-0.89,7.68c-0.07,0.69,0.46,0.48,0.61,1.55c0.11,1.5-0.1,3.12-0.24,4.72l3.13,1.65
	c0.02-0.12,0.04-0.25,0.04-0.37c-0.26-1.79-0.75-2.36-0.62-4.77c0.04-0.99,0.09-2.15,0.25-3.06c0.2-1.1,0.07-1.01,0.01-1.42
	c0.03-1.11,0.11-2.69,0.2-3.71c0.03-0.75,0.49-0.6,0.7-1.13c0.11-1.47,0.15-2.98,0.41-4.45c0.07-2.56-0.58-5.9-0.16-8.76
	c0.31-2.4,0.66-5.1,0.84-7.75c0.15-1.69-0.77-3.37-0.65-5.25c0.02-0.37,0.1-0.6,0.2-0.73c0.28-0.37,0.77-0.11,0.59-1.01
	C230.47,195.51,230.44,195.29,230.41,195.11z M203.95,205.26c-0.17-0.05-0.33-0.02-0.46,0.03c-0.03-0.07-0.06-0.13-0.1-0.19
	C203.58,205.18,203.77,205.24,203.95,205.26z M204.61,208.62c-0.24-0.23-0.65-0.42-0.89-0.32c-0.52,0.01-0.7-1.02-0.88-1.44
	c-0.05-0.58-0.85-2.06-0.68-2.49c0.11-0.05,0.57,0.24,0.82,0.45c0.23,0.19,0.17,0.48,0.18,0.65c0.08,0.23,0.47,0.44,0.58,0.65
	c0.1,0.13,0-0.14,0.13-0.29c0.26-0.13,0.46,0.16,0.66,0.29c0.09,0.13,0.39,0.77,0.18,0.73c-0.08-0.04-0.19-0.24-0.21-0.22
	c-0.02,0.02,0.02,0.23,0.06,0.39l0.02,0.11c0.05,0.25,0.42,1.55,0.41,1.76C205.11,209.08,204.66,208.68,204.61,208.62z
	 M109.84,238.21c-0.11-0.45-0.67-0.85-1.02-1.26c-0.07-0.08-0.21-0.23-0.28-0.31c0.64,0.4,1.37,0.92,2,1.33l0.05,0.09
	C110.54,238.44,110.06,238.4,109.84,238.21z M113.25,239.71c0.49,0.31,0.91,0.58,1.17,0.75c-0.25-0.15-0.59-0.37-1.18-0.74
	C113.25,239.71,113.25,239.71,113.25,239.71z M114.97,248.1c-0.55-0.29-0.77-0.53-0.86-0.72c0.39,0.22,0.79,0.45,1.18,0.67
	C115.19,248.08,115.09,248.11,114.97,248.1z M140.26,261.12c-0.57-0.37-1.02-0.73-1.4-1.06c0.68,0.32,1.34,0.65,1.98,0.98
	C140.74,261.13,140.59,261.18,140.26,261.12z M169.71,257.36C169.71,257.35,169.71,257.35,169.71,257.36L169.71,257.36
	C169.71,257.36,169.71,257.36,169.71,257.36z M170.72,258.83c0.27,0.33,0.56,0.67,0.84,1C171.23,259.44,170.95,259.12,170.72,258.83
	z"/>
<g>
	<path class="st3" d="M92.17,144.32c-1.1-0.31-2.86,0.28-3.97,0.25c-0.13-0.03,0.12-0.09,0.41-0.19c6.75-1.75-10.82,0.48-11.7,0.57
		c-1.36,0.16-2.99,0.41-4.29,0.47c-0.56,0.01,0.27-0.2,1.66-0.44c1.26-0.22,2.92-0.44,4.26-0.61c0.9-0.17,2.38-0.13,2.98-0.61
		c0-0.03-0.05-0.05-0.14-0.07c-3.3-0.34-9.6,0.43-13.08,0.53c-1.57-0.02,0.02-0.52,0.37-0.67c0.48-0.16,0.81-0.4,1.03-0.81
		c0.1-0.3-0.24-0.33-0.62-0.42c-0.66-0.11-1.35-0.17-2.35,0c-1.87,0.33-4.33,0.9-6.12,1.04c-1.03,0.02,0.59-0.69,0.76-0.92
		c0.37-0.29-1.43-0.16-2.84-0.12c-3.4,0.1-7,1.35-10.31,1.46c-1.75-0.06-3.28-0.83-4.94-1.15c-0.54-0.14-3.96-0.69-2.95,0.36
		c1.23,0.78-0.23,0.82-0.87,0.62c-2.55-0.33-4.96-1.11-7.16-0.64c-0.42,0.05-0.93,0.12-1.42,0.18l3.72,5.91
		c0.94,0.12,3.37-0.11,4.18-0.14c1.47-0.07,2.79-0.22,4.06-0.63c0.71-0.18,1.61-0.64,2.23-0.65c0.12,0.3-1.58,0.92-1.16,1.07
		c1.75-0.18,3.88-0.5,5.69-0.65c0.47-0.03,0.81-0.04,1.06-0.04c0.12,0.01,0.3-0.01,0.23,0.08c-0.23,0.21-1.44,0.38-1.59,0.53
		c4.21-0.24,9.92-1.48,13.7-1.5c0.68,0.07-0.17,0.23-0.41,0.27c-1.04,0.19-3.45,0.49-4.34,0.68c0.13,0,0.28,0,0.45-0.02
		c1.39-0.1,3.41-0.34,4.72-0.4c-0.33,0.07-0.91,0.14-1.31,0.19c-0.59,0.07,0.38-0.03,0.27,0.01c-0.16,0.05-0.45,0.08-0.61,0.12
		c-0.08,0.01-0.1,0.02-0.04,0.02c0.26-0.01,0.72-0.06,0.98-0.07c0.2-0.01,0.32,0.01,0.15,0.07c-2.48,0.71-5.81,0.73-8.15,1.43
		c-0.02,0.12,0.5,0.26,0.68,0.36c0.59,0.31-0.57,0.32-0.89,0.39c-4.61,0.45-9.82,2.18-14.04,3.88c-0.74,0.32-1.39,0.68-2.09,0.97
		l1.44,2.28c2.26-0.33,4.78-0.77,6.1-2.41c0.53-0.66,1.2-0.46,1.88-0.4c2.41,0.29,4.87-0.16,7.25-0.88c2.21-0.91,3.5-1.9,5.99-2.41
		c3.94-0.96,7.44-2.16,11.56-2.68c3.01-0.39,6.07-0.88,9.06-1.49c1.36-0.28,1.03-0.3,1.54-0.48c2.24-0.48,7.36-0.8,8.97-1.81
		C92.35,144.65,92.48,144.43,92.17,144.32z"/>
	<path class="st3" d="M9.9,106.63c1.82-0.65,3.68-1.5,5.37-2.02c1.26-0.25,1.17,1.04,2.12,1.26c2.21,0.27,4.68-0.61,6.89-0.83
		c0.34-0.04,0.67-0.07,0.99-0.1c-1.22,0.71-2.45,1.39-3.65,1.99c-3.09,1.63-6.34,2.95-9.51,4.39l3.01,6.38
		c1.8-0.99,3.27-2.08,5.15-3.11c3.77-1.74,7.9-3.31,10.82-6.31c2.05-1.92,4.27-3.03,6.57-4.28c-0.23,0.02-0.47,0.03-0.59-0.05
		c-0.08-0.06-0.09-0.2-0.05-0.33c0.08-0.05,0.16-0.1,0.24-0.15c0.01,0,0.02,0,0.03,0c0.03,0.12,0.38,0.26,0.63,0.38
		c0.86-0.47,1.73-0.97,2.61-1.55c0.95-0.7,7.09-5.14,5.76-5.73c-1.75,0.03-4.48,1.17-6.23,1.49c-0.51,0.1-1.15,0.28-1.6,0.13
		c-0.4-0.11-0.53-0.39-0.98-0.52c-1.67-0.34-3.68-0.09-5.19,0.72c-1.16,0.99-3.37,0.47-5.14,0.69c-2.86-0.11-5.42,1.06-8.18,0.89
		c-0.59,0.01-1.19,0.07-1.78,0.15c-3.16,0.6-6.39,1.05-9.65,1.46L9.9,106.63z M32.45,98.49c0.39-0.15,0.54,0.01,0.6,0.18
		c-0.19,0.03-0.41,0.07-0.69,0.15c-0.01,0.03-0.03,0.08-0.04,0.11C32.34,98.76,32.38,98.6,32.45,98.49z"/>
	<path class="st3" d="M31.54,126.58c-3.62-0.38-7.11,0.3-10.94,0.27l4.03,6.4c0.43,0,0.86,0.03,1.28,0.09
		c0.58,0.05,1.25,0.14,1.81,0.16c0.43,0.02,0.72-0.07,1.01-0.04c-0.39,0.23-0.8,0.46-1.22,0.68c-0.44,0.12-0.87,0.23-1.18,0.34
		c-0.29,0.11-0.24,0.09-0.26,0.11c0.19,0.02,0.39,0,0.58-0.03c-0.3,0.15-0.62,0.28-0.93,0.42l3.33,5.29
		c1.06-0.41,2.13-0.98,2.98-1.45c1.62-0.84,3.93-2.07,5.68-2.49c0.5-0.09,0.65-0.19,0.94,0.01c0.23,0.25,0.61,0.28,0.94,0.18
		c0.85-0.17,2.33-1.6,3.48-2.16c2.19-1.06,4.67-1.61,7.03-2.23c5.03-1.33,10.27-3.14,15.29-4.95c0.77-0.3,3.85-1.27,2.79-1.37
		c-2.07,0-6.6,1.32-8.8,1.17c-0.1-0.03-0.12-0.07-0.07-0.13c0.38-0.53,6.52-2.07,5.04-2.13c-1.02,0.04-4.09,0.76-5.7,0.74
		c-0.93,0-1.1-0.01-1.32-0.4c-0.81-0.34-2.03-0.08-3.14-0.04c-3.78,0.45-7.61,0.89-10.77,0.9
		C39.89,126.22,34.69,126.77,31.54,126.58z M29.04,133.64c-0.19,0.1-0.43,0.19-0.7,0.27c0.24-0.14,0.44-0.28,0.6-0.41
		C29.03,133.54,29.13,133.56,29.04,133.64z"/>
</g>
<g>
	<path class="st3" d="M223.09,145.53c0.06,0.09,0.1,0.16,0.11,0.22c0.17-0.03,0.33-0.08,0.21-0.21c-0.11-0.02-0.26-0.02-0.43-0.03
		C223.02,145.52,223.06,145.53,223.09,145.53z"/>
	<path class="st3" d="M237.48,161.57c0.69,2.33,0.24,4.95,0.79,7.4c0.33,1.28,0.78,2.44,0.79,3.74c-0.16,1.95-0.13,3.42,0.37,5.13
		c0.14,0.54,0.78,0.42,1.2,0.16c0.62-0.2,3.25-2.8,2.24-1c-0.02,0.06,0.03,0.04,0.19-0.09c0.35-0.31,0.83-0.68,1.23-0.98
		c1.1-0.86,2.07-0.9,3.23-1.57c0.53-0.31,1.01-0.75,1.21-1.33c0.24-0.73,0.37-1.68,1.31-1.02c1.07,0.74,1.42-0.83,2.32-1.21
		c0.51-0.26,0.95-0.42,1.52-0.68c0.19-0.04,0.32-0.16,0.43-0.31c-0.01,0.1-0.04,0.2-0.04,0.3c-0.02,0.34-0.36,0.48-0.47,0.83
		c-0.11,0.23-0.29,0.31-0.58,0.28c-0.18,0.02-0.39-0.06-0.62,0.05c-0.35,0.16-0.51,0.56-0.76,0.86c-0.6,0.51-1.56-0.3-2.12,0.33
		c-0.66,0.72-0.78,2.62-1.6,3.1c-0.46,0.17-1.13-0.05-1.47,0.1c-0.74,0.32-0.46,0.89,0.25,0.9c0.95-0.2,1.82,0.34,2.72,0.15
		c0.38-0.27,0.43-0.72,0.8-1.03c0.21-0.21,0.54-0.24,0.88-0.4c0.21-0.17,0.33-0.54,0.62-0.67c0.25-0.15,0.81-0.17,1.07-0.28
		c1.15-0.4,1.86-1.57,2.84-2.12c0.55-0.34,1.07-0.48,1.18-1.06c0-0.76-0.45-1.66-0.28-1.64c0.46,0.17,0.98,0.3,1.42,0.25
		c-2.2-2.14-3.88-3.8-4.53-4.52c-0.55,0.89-0.42,0.17-1.34-0.04c-0.39,0.04-0.66,0.46-1.01,0.7c-0.41,0.37-1.02,0.28-1.5,0.07
		c-0.34-0.1-0.84-0.48-1.06-0.04c-0.23,0.4-0.06,0.98-0.72,0.67c-0.25-0.11-0.36-0.35-0.43,0.06c-0.05,0.4,0.03,0.99-0.18,1.32
		c-0.04,0.06-0.09,0.04-0.16-0.02c-0.12-0.14-0.26-0.35-0.41-0.47c-0.26-0.25-0.2,1.34-0.43,1.59c-0.03,0.12-0.12-0.26-0.15-0.29
		c-0.11-0.3-0.37-0.34-0.56-0.25c-0.28,0.19-0.42,0.32-0.5,0.23c-0.15,0.01-0.43,0.35-0.53,0.32c-0.1-0.14-0.01-0.38-0.11-0.58
		c-0.14-0.09-0.5,0.19-0.66,0.06c-0.17-0.36,0.05-0.91-0.02-1.35c-0.03-0.69-0.02-1.23,0.31-1.83c0.63-1.04-0.54-2.21-0.99-3.1
		c-0.11-0.36,0.41-0.51,0.55-0.91c0.35-0.8-0.61-1.55-0.74-2.3c-0.14-0.4,0.55-0.65,0.38-0.98c-0.08-0.2-0.27-0.93-0.13-1.28
		c0.46-1.36,1.48-2.9,0.53-4.27c-0.25-0.4-0.47-0.64-0.65-1.08c-0.22-0.7,0.34-1.46,0.56-2.11c0.25-0.75-0.49-1.09-0.75-1.8
		c-0.11-0.25-0.26-0.46-0.42-0.66l-1.11-0.94c-1.62-0.94-3.95-1.03-5.64-1.16c-0.48,0.01-0.91,0.3-1.3,0.58
		c-0.93,0.79-2.44,1.2-3.65,1.81c-1.33,0.86-2.62,3.06-3.74,3.26c-0.21,0.1-0.27,0.11-0.49,0.29c-0.26,0.22-0.56,0.34-0.94,0.47
		c-0.49,0.26-0.77,0.46-1.23,0.15c-0.37-0.35-1.23,0.76-1.24,0.16c0-0.15,0.02-0.66-0.14-0.76c-0.18-0.14-0.3-0.13-0.42-0.17
		c-0.7-0.06-1.34-0.71-1.28-1.61c-0.05-0.6-0.07-1.27,0.31-1.5c0.52-0.31,1.13-0.4,1.04-1.19c-0.06-0.47-0.35-0.87-0.53-1.02
		c-0.23-0.22-0.98-0.14-0.95-0.43c0.16-0.5,0.42-1.31,0.34-2.02c-0.07-0.4-0.33-0.7-0.44-1.03c-0.12-0.67,0.18-1.08-0.11-1.94
		c-0.13-1.04-0.59-2.17-0.66-3.31c0.09-2.66-0.36-5.11-0.56-7.64c-0.01-0.38,0.23-0.75,0.25-1.13l-0.98-0.83
		c-1.42-0.29-3.87,0.14-4.3,0.78c-0.17,0.46-0.1,0.74,0.14,1.07c0.11,0.24,0.05,0.48,0.08,0.73c0,1.18-0.39,1.85-0.44,2.95
		c-0.19,0.93,0.92,1.52,0.54,2.4c-0.06,0.1-0.18,0.19-0.21,0.3c-0.03,0.1,0.09,0.52,0,0.62c-0.15,0.28-0.41,0.43-0.4,0.77
		l-0.01,0.03c-0.16,0.27,0.34,0.56,0.61,1.29c0.15,0.37,0.43,0.63,0.76,0.87c0.3,0.25,0.8,0.53,1.02,0.83
		c0.12,0.42-0.5,0.55-0.85,0.59c-0.19,0.05-0.76,0.07-0.79,0.39c-0.11,0.79,0.44,1.47,0.48,2.15c0.01,0.39,0.1,0.63,0.16,0.96
		c-0.01,0.24-0.15,0.38-0.09,0.68c0.15,1.05,0.03,2.01-0.09,3.34c-0.3,1.45-0.11,2.11,0.4,3.27c0.52,3,2.44,6.41,5.63,7.27
		c1.06,0.3,2.09,0.47,3.13,0.27c1.09-0.42,2.58-0.41,3.62-0.55c1.38-0.33,3.22-0.89,3.8-2.37c0.24-0.8,0.33-0.57,0.99-0.46
		c0.27,0.02,0.69,0.03,0.99-0.15c0.42-0.29,0.74-0.83,0.89-1.34c0.22-0.87,0.24-0.96,0.68-1.38c0.28-0.44,0.73-0.12,0.91,0.29
		c0.09,0.24,0.39,0.72,0.37,0.98c0,0.39-0.19,0.8-0.19,1.19c-0.06,0.67,0.43,1.49,0.31,3.02
		C237.11,158.97,237.13,160.35,237.48,161.57z M217.6,146.81c-0.02-0.08-0.05-0.16-0.06-0.2c0.02,0.04,0.04,0.1,0.08,0.2
		C217.61,146.8,217.6,146.81,217.6,146.81z M217.68,147.64c0.03-0.1,0.03-0.23,0.01-0.36c0.29-0.05,0.59-0.03,0.58,0.05
		C218.07,147.29,217.91,147.5,217.68,147.64z"/>
</g>
<path class="st3" d="M154.5,27.68c0.34,0.05,0.58,0.18,0.77,0.32c1.2,1.21,1.02-0.54,2.07-0.46c1.96,1.23,5.28,0.95,7.39,1.25
	c0.67,0.13,1.42-0.04,2.02-0.3l-0.45-5.91c-0.2-0.04-0.41-0.09-0.63-0.14c0.19,0.01,0.33-0.01,0.44-0.04
	c0.06,0.02,0.11,0.03,0.17,0.05l-0.02-0.23c-0.1-0.06-0.2-0.12-0.26-0.15c0.06,0.03,0.14,0.08,0.26,0.14l-0.48-6.2l-0.57-0.43
	c-0.34-0.06-0.65-0.12-0.88-0.19c-1.99-0.48-2.74-1.57-4.32-2.26c-1.32-0.67-2.92-1.14-4.16-2.13c-0.8-0.49-1.52-1.16-2.4-1.38
	c-1.2-0.11-2-1.49-2.94-2.09c-0.99-0.57-2.23-0.94-2.38-2.19c-0.21-2.4-2.4-1.02-3.65-0.08c-1.35,0.85-1.23,2.17-0.68,3.2
	c0.25,0.22,0.72,0.45,0.95,0.73c0.78,0.3,1.06,0.79,1.62,1.43c0.93,0.81,2.1,1.56,2.79,2.49c0.44,0.82,1.21,1.33,2.11,1.57
	c1.17,0.46,1.65,1.02,2.72,0.9c0.86-0.03,0.4,0.53,0.65,0.9c0.16,0.16,0.66,0.2,1.02,0.34c0.39,0.2,0.69,0.44,0.93,0.76
	c0.22,0.24,0.17,0.93,0.62,0.76c0.37-0.15,0.99,0.11,1.45,0.3c0.99,0.06,2.42-0.63,3.35-0.8c0.2-0.01-0.37,0.32-0.39,0.33
	c-0.24,0.19,0.64,0.31,0.16,0.46c-0.5,0.17-1.66,0.19-1.96,0.61c0.32,0.26,1.47-0.03,1.89,0.1c0.13,0.07-1.17,0.3-0.88,0.37
	c0.58,0.12,1.62,0.06,2.3,0.22c0.1,0.05-1.05,0.03-1.11,0.06c0.1,0.07,0.51,0.11,0.81,0.18c0.11,0.02,0.21,0.04,0.25,0.05
	c0.05,0.01,0.05,0.02,0,0.02c-0.24,0.01-0.53-0.05-0.72-0.04c-0.05,0,0.14,0.04,0.34,0.09c0.1,0.02,0.2,0.05,0.27,0.06
	c0.09,0.02,0.14,0.04,0.12,0.04c-0.07,0.02-1.05-0.07-0.4,0.19c0.58,0.25,1.54,0.52,2,0.84c-0.79-0.04-2.14-0.36-3.03-0.45
	c-0.18-0.02-1.55-0.3-0.88,0.09c0.21,0.15,0.77,0.42,0.17,0.54c-0.2,0.02-0.36,0.26-0.5,0.31c-0.85,0.51-1.89-0.08-2.83-0.23
	c-1.09-0.3-1.97-0.08-3.07-0.14c-1.42,0.02-2.7-1.32-4.2-1.33c-1.38-0.13-1.82,0.48-3.07-0.07c-0.82-0.2-0.92-0.33-1.07-0.05
	c-0.45,0.27-1.15-0.16-1.66-0.3c-1.52-0.72-3.07-0.79-4.57-1.16c-0.45-0.09-0.96-0.47-1.31-0.32c-0.24,0.09-0.29,0.15-0.71,0.08
	c-0.92-0.08-3.59-0.99-3.51-0.35c0.22,1.43,2.1,3.1,3.19,3.73c0.35,0.23,0.49,0.42,0.74,0.65c-0.05,0.07-0.24,0.04-0.47,0.03
	c-0.3-0.03-0.59-0.13-0.69-0.01c-0.28,0.31-0.13,0.83,0.09,1.18c1.01,1.95,2.85,3.24,4.7,4.37c1,0.71,1.5,2.05,2.59,2.72
	c0.59,0.37,0.85,0.45,1.31,0.79c0.37,0.25,0.56,0.86,0.8,1.16c0.56,0.68,1.6,1.24,2.46,1.58c1.24,0.46,2.13,0.65,2,1.39
	c-0.18,0.95-0.69,0.3-1.88-0.21c-1.44-0.43-2.92-0.96-4.36-1.33c-1.56-0.39-4.72-1.17-6.99-1.73c-1.82-0.42-2.88-0.82-2.65-0.37
	c1.43,2.1,4.42,5.76,5.82,7.62c0.81,1.55,1.73,3.08,2.96,4.41c1.25,1.03,2.94,1.82,4.1,2.98c1,0.95,1.51,2.04,2.85,2.69
	c0.62,0.3,1.11,0.77,1.65,1.19c0.69,0.56,1.73,1.05,2.51,1.38c0.32,0.17,0.23,0.23,0.19,0.49c0.16,0.21,0.7,0.29,0.99,0.72
	c0.22,0.44,0.32,0.89,0.88,1.12c0.7,0.39,1.7,0.65,2.21,1.25c-0.53,0.16-2.27-0.67-2.81-0.83c-0.25-0.1-0.19,0.13-0.44,0.3
	c-0.2,0.28-1.14,1.16-1.78,0.93c-0.46-0.04-0.46-0.1-0.8-0.18c-0.58-0.19-1.09,0.29-1.57,0.5c-0.34,0.15-0.72,0.27-0.83,0.61
	c-0.74,1.88-2.22,0.41-3.55,0.47c-0.92,0.23-1.78,0.32-2.66,0.51c-0.62,0.12-1.32,0.02-1.89-0.24c-0.35-0.16-0.64-0.31-1.15-0.21
	c-0.79,0.09-1.83,0.71-2.64,0.94c-0.82,0.29-1.47-0.36-2.38-0.4c-1.41,0.17-2.89,0.41-4.32,0.33c-1.64,0.02-3.71,0.49-5.36,0.13
	c-0.69-0.22-0.98,0.93-1.47,0.88c-0.67-0.42-1.17,0.14-1.78,0.2c-0.81-0.06-1.51-0.12-1.97-0.9c-0.46-0.75-1.46-0.05-1.97,0.2
	c-0.37,0.16-0.57,0.32-0.89,0c-0.39-0.63-0.82-1.57-1.75-1.65c-0.28-0.02-0.74,0.16-1.09,0.14c-1.14-0.01-2.83,0.06-4.1,0.76
	c-1.22,0.55-1.84-0.83-2.91-1.35c-0.3-0.09-0.4-0.33-0.67-0.42c-0.2-0.07-0.48-0.05-0.65-0.06c-0.28-0.04-0.43,0.06-0.4,0.38
	c0.28,0.68,1.18,1.16,1.84,1.34c0.34,0.15,0.37,0.57,0.78,0.85c0.28,0.32,0.43,0.76,0.89,0.93c0.53,0.29,1.2,0.49,1.77,0.12
	c0.36-0.17,0.54-0.45,0.94-0.35c0.42,0.08,0.57,0.99,1.09,0.71c0.69-0.26,1.41-0.09,2.07,0.05c0.56-0.01,0.91,0.35,1.45,0.72
	c0.4,0.26,0.6,0.31,1.04,0.3c1.67-0.25,3.75,0.35,5.41,0.38c0.4,0.07,0.83,0.1,1.12,0.37c0.45,0.29,1.48,0.18,1.98-0.15
	c0.45-0.29,0.8-1.16,0.96-1.53c0.06-0.06,0.15,0.09,0.25,0.29c0.35,1.33,1.72,1.66,2.96,1.57c1.31-0.42,2.7-1.37,4.28-1.03
	c1.74,0.2,3.11-0.58,4.43,0.11c0.37,0.25,0.71,0.32,1.01,0.47c0.46,0.25,1.16,0.01,1.6,0.09c1,0.47,2.28,0.52,3.31,0
	c0.92-0.76,1.67,0.1,2.85-0.23c0.71-0.26,0.96-1.48,1.63-1.56c0.33,0.09,0.32,0.74,0.5,0.99c0.11,0.2,0.22,0.26,0.45,0.29
	c0.98,0.07,1.95-0.39,2.91-0.99c0.67-0.43,1.53-0.49,2.21-0.06c0.96,0.59,2.31,0.56,3.5,0.6l0.85-0.37c0.03-0.26-0.1-0.62-0.07-0.92
	c0.32-1.96,1.95,0.78,2.81-0.6c0.44-0.45,0.6-0.97,0.53-1.6c-0.3-0.84-0.88-1.43-0.8-2.3c0.38-1.26,1.21-2.89-0.5-3.53
	c-0.17-0.03-0.26-0.08-0.34,0.07c-0.01,0.39,0.1,0.62-0.33,0.79c-0.09,0.06-0.08,0.12-0.19,0.19c-0.22,0.04-0.49-0.18-0.69-0.32
	c-1.32-1.02,1.04-2.09-0.85-3.21c-0.8-0.76-2.44-1.13-2.87-1.8c-0.67-0.88-1.3-1.6-2.5-1.85c-0.43-0.14-0.9-0.34-1.15-0.63
	c-0.25-0.54-0.28-0.93-1.12-1.01c-0.6-0.07-1.05,0.01-1.51-0.24c-1.58-0.78-1.16-2.91,0.64-1.76c0.53,0.38,1.63,0.32,1.61,0.48
	c-0.07,0.22-0.31,0.44-0.38,0.65c-0.03,0.08,0,0.11,0.1,0.09c0.27-0.04,1.06-0.55,1.52-0.51c1.38,0.21,1.86,1.64,3.09,2.2
	c2.81,1.48,5.02,4,7.51,6.19c0.63,0.58,0.97,0.86,1.03,0.66c-0.16-1.86-1.01-5.07-1.36-7.06c-0.52-2.07-0.34-3.34-1.68-4.74
	c-0.51-0.5-0.79-0.9-1.34-1.42c-0.21-0.26-0.34-0.61-0.17-1.14c0.11-0.36,0.32-0.93,0.03-1.2c-0.25-0.19-0.74-0.06-1.05-0.39
	c-0.33-0.3-0.42-0.8-0.62-1.2c-0.55-1.16-2.5-1.54-3.47-2.46c-0.66-0.55-2.43-1.22-2.7-1.94c-0.1-0.28-0.49-0.33-0.81-0.41
	c-0.42-0.14-0.92-0.13-1.12-0.33c0-0.16,1.56-0.12,1.43-0.38c-0.17-0.27-3.68-1.31-2.4-1.31c0.29-0.04,1.27,0.33,1.37,0.18
	c-0.1-0.2-1.72-1-1.48-1c0.8,0.35,1.74,0.99,2.48,1.29c0.07-0.02-1.43-0.97-1.57-1.11c-0.02-0.03-0.06-0.04,0.01-0.03
	C153.24,27.33,154.18,27.68,154.5,27.68z"/>
</svg>
