<?xml version="1.0" encoding="utf-8"?>
<!-- Generator: Adobe Illustrator 28.1.0, SVG Export Plug-In . SVG Version: 6.00 Build 0)  -->
<svg version="1.1" id="Layer_2_00000108292893057610726070000004907517880573836986_"
	 xmlns="http://www.w3.org/2000/svg" xmlns:xlink="http://www.w3.org/1999/xlink" x="0px" y="0px" viewBox="0 0 236.9 406"
	 style="enable-background:new 0 0 236.9 406;" xml:space="preserve">
<style type="text/css">
	.st0{fill:#069F05;}
	.st1{fill:#202020;}
	.st2{fill:#F5AF02;}
	.st3{fill:#F84F04;}
	.st4{fill:#0A70A5;}
	.st5{fill:#E5BD95;}
</style>
<path class="st0" d="M162.7,107.7l14.1,15.6l17.3,13l15.8,25.7l0.1,10.4l2.6,3.6l-4.9,5.9l3.4,1.2l6.3-5.4c0,0,1.2,8.2,0.2,7.8
	c-1-0.4,3.4,1.2,3.4,1.2l5.1-3.3l4.9-4.8l1.5-4.2l1.4-3.8l2-5.4l1.2-3.3l-11.1-13.1l-10.9-22l-16.6-28.8l-14.9-17.4L173,73.1
	l-0.5,13.1l-6.5,15.6L162.7,107.7z"/>
<g>
	<path class="st1" d="M189,117.3c0,0,0.1,0,0.2-0.1c0,0,0,0,0,0C189.1,117.2,189,117.3,189,117.3z"/>
	<path class="st1" d="M228.5,181l0.4-0.4c-0.2-0.1-0.3-0.1-0.4-0.2c0.2,0,0.4,0,0.7-0.1l1.7-1.7l1.5-4.2l0.4-1
		c-2.5,0.1-4.5-0.5-6.9-0.9c2,0.7-5.3,0.9-2.1,0.3l-2.6,0.1c1.5,0,1.3,1.1-0.2,1c0.6,0-3.5-0.4-1.1-0.7c-2.7,0.6-6.8-0.2-8.8-2
		c-0.2-0.1-0.6-0.3-1.1-0.4l0,1.6l2.5,3.5c0.9,0,1.7,0.1,2.5,0.3c-0.4,0.9,2.8,1.6,4,1.6c2,2.1,7,1,9.6,2.8
		C227.5,180.4,227.9,180.7,228.5,181z"/>
	<path class="st1" d="M195.5,113.2c0.1,0,0.2,0,0.3,0C195.6,113.2,195.4,113.1,195.5,113.2z"/>
	<path class="st1" d="M227.6,181c0.2,0.1,0.4,0.2,0.6,0.2l0.1-0.1C228,181.1,227.8,181.1,227.6,181z"/>
	<path class="st1" d="M189.4,109.6c-0.6-1.9,3.1-0.2,0.9-0.3c1.8,0.5,0.2,0.3-0.5,0.4c0.8,0.4,4.5,0.7,3.8,1.6c-0.4,0-1.9-0.9-1,0.1
		l-1.5-1c0.7,1.6-0.9-0.5-0.3,1c1.2,0.8,1.8,0.8,2.7,1.2c0.5-0.3,1.8-0.7,2.1-0.1c-0.1,0.5-2.7,0.3-0.8,0.5c2.7,0.2,4.5,0.9,1,0.3
		c0.5,0.1,1.4,0.5-0.2,0c-1.7-0.2,0.2,0.1,0.1,0.2c-0.6,0-1.5-0.6-2,0.2c-1.1,1.2-4.2,2.4-4.5,3.5c0.4-0.3,1.2-0.9,1.7-1.2
		c-0.5,0.4-1.4,1-1.7,1.3c-0.1,0.5,0.4,0.9,2.2,1.3c1.6,2.6,12,5.3,12.6,6c10,1.6,7.6,1.2,2,4.5c-0.9,3.4,9.4,4.5,11.6,6.6
		c-0.7-0.6,0.4-0.3,1.9,0.4l-2.8-5.5c-0.2-0.1-0.4-0.1-0.6-0.2c0.2,0,0.3,0,0.5,0l-1.7-3.3l-2.9-5c-1.9-0.1-4.4,0.3-4.7-0.6
		c-2.1,0-11.4-4-9.7-3.7c-0.4-1,3.6-1.1,0.4-1.5c-2.3-1.6,6,0.3,11.2,0.8l-1.4-2.4c-3.6-1.4-7.2-2.7-3.7-1.8
		c-3.4-1.6-6.4-2.2-7.9-3.6c0.4-2-8-2.2-9.4-4.5c-3.8-0.6,4.6-3.2,12.3-5.3l-0.7-1.3l-1.5-1.8c-1.2,0.3-2.5,0.8-3.9,1.6
		c0.1-0.1,0.2-0.3,0.4-0.3c-1.7-0.9-4.8,3.8-4.8,1.6c2-1.9-2.6,0.9-1.8,1c-1.3-0.4-11.2,3.8-9.3,1.8c-3.9,1.3,2.5,0.4-0.2,1.3
		c-5.2,0.9,5.5,2,4.3,3C184,107.1,187.1,108.7,189.4,109.6z M191.2,118.2c0.2,0.1,0.8,0.3,0.9,0.4
		C191.9,118.5,191.3,118.3,191.2,118.2z M193.7,119.3c0.2-0.7,0.6,0.1,1.3,0.6C194.6,119.8,194.2,119.5,193.7,119.3z M195.3,117
		c-0.6-0.3,0.3-0.5,0.6-0.2C195.7,116.9,195.5,116.9,195.3,117z M196,117.4c0.1,0,0.2-0.1,0.2-0.2
		C196.2,117.3,196.1,117.4,196,117.4z"/>
	<path class="st1" d="M209.8,164.1l0,0.1c0.5-0.1,0.9-0.2,1.2-0.3C210.6,164,210.2,164.1,209.8,164.1z"/>
	<path class="st1" d="M224.2,145.6l-2.4-4.9c-3.1,2-5.7,5.2-8.4,7c1.8,2.2,8.4,2.8,8.4,4.4c2.1,1.6,6.8,1.6,6.8,2.6
		c1.5,0.2,2.7,1.1,4,2l-6.7-7.9l-0.1-0.1c-0.9-0.4-1.8-0.8-2.8-1.2c-3.9-0.2-0.8-0.4,0.8-1.3C223.9,146,224.1,145.8,224.2,145.6z"/>
	<path class="st1" d="M233.8,163.1c1.3-0.1,2.1-0.1,2.7,0l0.4-1.1l-2.5-3c-7.7,2.4-16.5,1.5-25.9,0.8l1.3,2.2l0,1.6
		c1.8,0,2.8,0,1.2,0.4C217.1,163.6,227.9,167.2,233.8,163.1z"/>
</g>
<polygon class="st0" points="3.2,406.2 0,369.4 0.3,341.2 7.5,303.8 45,313.5 54.2,323.9 38,346 35.1,363.7 34.4,385.1 27.4,388.6 
	26.6,404.2 "/>
<polygon class="st0" points="154.6,399.5 134.2,362.5 128,345 119.9,324.2 159.4,330.2 167.3,330.2 173.5,367.1 179.2,375.6 
	187.3,393.4 "/>
<polygon class="st2" points="28.2,241.3 12.8,270.1 3.3,306.2 19.8,320.8 44.3,324.1 56.3,329.7 82.2,310.3 93.6,298.4 101.6,308.6 
	100.9,331.9 127.5,339 165.8,341.7 178.9,334.5 171.9,323.1 173,310.3 169.2,291.9 167.8,259.7 "/>
<path class="st3" d="M42.2,77.3l-4.2,6L26.3,95.4l-9.8,26.7l1.1,37.8l1,11.5l10.5,47l-5,17.2l18,24.3l22.3,15.5l32.3-2.8l45.2-2.1
	l21.2-7.2l8.1-11.4l-8.9-31.4c0,0-4.2-14.8-4.4-17s2.6-16.7,2.6-16.7l-2.4-6.5l-1-24.2l2.5-17.9l5.3-15.2l9.9-3.5l3.7-8.3l-0.3-4
	l-0.2-23.6l-5.1-12.1l-14.7-9l-10.2-8l-15.5-5.8l-23.9,2.1l-15.2,1.3L42.2,77.3z"/>
<path class="st1" d="M134.9,51.3c-1.4-0.6-2.2-1-3.3-1.3c-2.6-0.9-5.5,0-8.1,0.2c-3.2,0.3-5.2,0-8.5,1.1c-0.6,0.2-1.2,0.4-1.7,0.5
	c-0.9,0.1-1.4-0.6-2.1-1c-0.1-0.1-0.3-0.1-0.4-0.2l-2.2,0.2l-2.7,0.2c-0.4,0.1-0.8,0.3-1.2,0.4c-3.5,0.7-7.4,1.7-11.2,2
	c-2.4,0.7-4.6,1.2-6.8,1.9L65.7,65.8c2.1-0.5,4.2-1,6.5-1.1c1.5-0.2,3.1-1,4.5-1.2c2.2-0.6,5.1-0.8,7.3-1.4c4-0.9,9.1-1.1,12.7-2.9
	c0.9-0.7,1.1-0.7,2.1-0.4c2.4,0.5,5.4-0.5,7.7-1.1c2-0.6,4.2-1.8,6.4-1.6c0.4,0.1-0.3,0.3-0.6,0.5c-4.9,2-9.9,3.7-15,5.1
	c-6.9,2-13.5,3.7-20.2,5.7c-0.3,0.1-0.6,0.2-0.9,0.3c0,0-0.4,0.2-0.4,0.2c-0.1,0-0.1,0.1-0.1,0.1c-0.1,0.3,2.3,0.2,2,0.3
	c-0.8,0.3-1.9,0.3-2.6,0.6c-0.8,0.3-0.7,1.4-1.3,2c-1.3,1.3,0,1.7,1.4,1.8c0.4,0.1,0.8,0,1.1,0.2c0.1,0.1,0.3,0.2,0.2,0.4
	c0,0.2-0.4,0.3-0.7,0.6c0,0.1,0.6-0.1,1.1-0.1c2.4,0,5-0.7,7.5-0.9c4,0,8.3-0.9,12.3-1.7c1.5-0.3,2.8-0.7,4.1-1
	c0.5-0.1-0.3,0.4,0.4,0.2c0.5-0.1,1.1-0.3,1.5-0.4c0.7-0.1,0.3,0.2,1.7-0.1c0.4-0.1,0.9-0.2,1.3-0.3c2.7-0.7,7.3-2.2,9.8-2.8
	c-2.6,0.9-5.6,1.9-8.4,2.7c-0.1,0,0,0,0.1,0c0.1,0,0.7-0.2,0.4-0.1c-0.1,0-0.7,0.2-0.5,0.3c0,0.1-0.2,0.1-0.2,0.2
	c0,0.1,0.1,0.1,0.1,0.1c-0.8,1.2-2.9,1.3-4.2,1.9c-0.8,0.4-1.2,1-1.5,1.7c-0.4,0.4-0.8,0.7-1.4,1c-2.8,0.7-4.4,1.5-6.9,2.7
	c-2.5,1.3-5.1,2.7-7.8,3.8c-0.7,0.3-1.8,0.3-2.5,0.6c-1,0.6-2.7,1.3-3.2,2.3c0.3,0.7,3.1,0.1,4.1,0.3c0.7,0,0.9,0.4,1.4,0.6
	c2.4,0.3,5.8-0.3,8.3-0.1c4.6,0.4,9.4-0.4,14-0.6c1,0.1,2.2,0.1,2.5,0.3c0.3,0.3-0.3,0.3-1.1,0.5c-1.5,0.1-3.4,0.4-5,0.7
	c-1,0.1-3.4,0.9-2.6,1c0.5,0.1,1,0.1,1.9,0c0.8-0.1,1.8-0.4,2.6-0.6c1.1-0.1,2.1,0,3.2,0c1.2-0.1,2.8-0.4,4-1
	c0.7-0.4,1.2-0.7,1.9-0.9c1.7-0.2,3.4-0.9,5.2-1c1.5-0.2,2.3-0.7,3.4-0.9c0.2-0.1,0.2,0,0.5-0.2c0.9-0.6,0-2-1.1-1.9
	c-1.1,0-2.1,0.3-3.1,0.7c-1.5,0.6-4.7,0.5-6.5,0.9c-2.4,0.1-4.3-0.4-6.5,0.6c-0.5,0.2-1.3,0.9-1.6,0.9c-0.1,0-0.4-0.1-0.6-0.3
	c-0.7-0.5-1.7-0.6-2.7-0.6c-2.1-0.1-3.9,0-5.9,0.5c-2.4,0.6-4.8-0.2-7.1,0.1c-4.4,0.3,0.5-1.1,1.7-1.4c1-0.3,1.3-0.6,2.3-0.9
	c1-0.3,2.4-0.7,3.1-1.5c0.6-0.6,2.5-0.9,3.5-1.4c1.5-0.6,2-2.2,3.4-2.8c0.4-0.2,0.9-0.3,1,0.1c0,0.2,0,0.3,0.3,0.2
	c0.5-0.1,1.2-0.3,1.7-0.5c1.5-0.6,1-0.5,2.1-1.1c1.2-0.5,3.5-1.6,4.2-2.2c0.7-0.6,1.1-1,2-1.4c3.2-1.4,5.7-1.6,9.2-3.2
	c1.5-0.6,3.6-1.3,4.9-1.9c0.1-0.1,0.1-0.1,0.1-0.1c-0.2,0-0.5,0-0.7,0c-0.3,0,1-0.5-0.1-0.2c-0.7,0.1-1.6,0.4-2.3,0.4
	c-0.2,0-0.2-0.1,0-0.2c1.3-0.8,2.8-1.1,4.3-1.4c1.4-0.4,3-0.9,4.2-1.3l0.1-0.1c1-0.4,1.7-0.7,0.2-0.6c-0.4,0.1-0.7,0.1-0.7,0
	c0.1-0.2,0.8-0.4,1-0.5c-1.4,0.4-4.1,1.2-5.8,1.5c-3,0.4-5.6,1.9-8.4,1.7c-0.5-0.1-1.1,0-1.3-0.5c-0.1-0.1,0-0.1-0.3-0.2
	c-2-0.1-4.4,0.4-6.2,1.3c-0.1,0.1,0.1,0,0.4,0c0.7-0.1,1.7-0.4,2.4-0.4c0.1,0-2.2,0.7-2.1,0.7c0.1,0.1,1.7-0.3,1.3-0.1
	c-1.1,0.4-2.3,0.7-3.4,0.9c-0.9,0.2-1.5,0.2-1.3-0.1c0.1-0.2,0.4-0.5,0.4-0.7c-0.2-0.3-0.9-0.1-1.4-0.1c-3.8,0.6-7.4,1.8-11.1,2.8
	c-0.4,0.1,0.6-0.2,1-0.4c0.2-0.1,0.2-0.1-0.1-0.1c-0.1,0-0.4,0.1-0.7,0.1c-2,0.5-2,0.5-4.3,1c-0.6,0.1-1.4,0.4-1.9,0.4
	c0.1-0.1,0.3-0.1,0.4-0.2c0,0,0,0,0,0c0.1-0.1-1.3,0.1-0.8-0.1c0.2-0.1,0.5-0.2,0.6-0.2c0.3-0.1-0.7,0.1-1.3,0.2
	c-0.8,0.2-1.4,0.3-1.7,0.3c0,0,0.1,0,0.1,0c0,0,0.1,0,0.1,0c-0.9,0.2-1.7,0.4-2.7,0.6c-1.4,0.3-2.9,0.7-4.2,0.9
	c4-1.1,8.4-1.8,12.6-2.9c0.9-0.2-0.4,0,0.3-0.2c0.8-0.2,2-0.4,2.9-0.7c-0.2,0-0.3,0-0.6,0.1c-1.2,0.1-1.9,0.2-3.2,0.4
	c-1.2,0.1-1.7,0.1-1.3,0c0.8-0.2,2.1-0.4,3.1-0.6c1.4-0.3-1,0.1-1.5,0.2c-0.6,0.1-1.2,0.2-1.8,0.3c-1.2,0.1,4.1-0.9,5-1
	c0.4-0.1,5.5-0.7,4-0.9c-0.5-0.1-1.6,0-1.7-0.1c-0.2-0.1,0-0.1,0.2-0.2c1.3-0.2,4.6-0.9,5.3-1.1c0.1-0.1,0.1-0.2,0.3-0.3
	c0.1-0.2,0.8-0.3,1-0.4c3.3-0.3,5.9-0.8,9.3-1.8c1.2-0.3,2.5-0.7,3.5-1.4c0.4-0.3,0.6-0.5,1.1-0.7c0.5-0.2,0.8-0.1,1.1-0.2
	c0.2-0.1,0.3-0.1,0.6-0.2c0.9-0.4,1.8,0.4,2.8,0.2c0.7,0,1.1-0.7,1.6-0.9c0.8-0.3,1.7-0.3,2.6-0.4c2.3-0.4,5-1.9,7.2-3.3
	c0.6-0.4,0.9-0.8,0.9-1.1C136.8,51.9,135.6,51.6,134.9,51.3z M111.3,82.5c0,0-0.4,0.2-0.4,0.3c-0.1,0.2,0.3,0.3,0.3,0.4
	c0,0.1-0.4,0.3-0.5,0.4c-0.1,0.1-0.3,0-0.4-0.2c-0.2-0.1-0.5-0.2-0.7-0.3l-0.1-0.1C109.8,82.9,111,82.5,111.3,82.5z M116,55.5
	c0-0.1-0.1-0.2,0.2-0.4c0,0.1,0.2,0.2,0.4,0.2C116.4,55.4,116.2,55.4,116,55.5z"/>
<polygon class="st4" points="181.6,248.1 167.8,259.7 148.5,264.6 133.1,262.6 113.5,255.4 100.2,233.9 100.6,223.4 111.3,219.4 
	131.9,217.6 154.8,223.2 174.2,233.6 "/>
<polygon class="st5" points="135.4,245.9 121.7,240.8 118.6,235.9 131.5,234.8 151,239.5 159.9,244.3 147.3,247.5 "/>
<path class="st0" d="M17.3,168.3l0.1,20.1l1.4,16.6l10.2,13.6L47.3,230l18.2,10.5l13.2,0.9c0,0,10.4,16.2,11.2,16.1
	c0.8-0.1,10.3,5.1,10.3,5.1l6.8-0.6l9.1-0.8l5.8-0.5l-0.6-7l-5.3-7.5l8.5,3.3l6.3-3.6l-3.6-3.7l-7.5-1.4l-6.5-8.5l-12.1-7l-32-18.3
	l-14-9.8l-6.3-6.5l4-11.4l-9.7-7.2l-15.8-4.7L17.3,168.3z"/>
<polygon class="st0" points="64.2,-0.2 46.5,1.4 34,17.6 31.6,36.5 36.8,55 43.8,79.1 49.4,86.8 54.5,94.8 68.3,99.4 82.9,98.1 
	92.6,91.9 102.8,78.1 103.7,64.8 98.1,56.7 97,49.8 100.1,46.7 99.3,37 98.5,28.5 93.2,26.3 91.6,28.7 88.8,17 81.8,8.1 73.3,1.7 
	"/>
<g>
	<path class="st1" d="M24,383.4c0.8-0.4,1.3-0.7,2-0.4c0.4,0.2,0.8,0.5,1.3,0.5c0.8,0,1.3-0.1,2.1-0.2c1.6-0.4,4.8,0,5-2.1
		c-0.2-1-1.3-1.3-2.1-1.6c-0.8-0.4-2-1-2.9-0.4c-0.8,0.6-1.5,0.4-2.4,0.1c-1.2-0.2-2.2,0.4-3.4,0.7c-0.8,0.2-1.7,0-2.9-0.4
		c-0.5-0.2-3.3-1-2.1,0.2c0.2,0.4-0.7,0.3-0.8,0.2c-0.7-0.2-1.3-0.7-2-0.9c-0.8-0.2-1.6-0.1-2.4-0.1c-1.2,0.1-2.5-0.3-4-0.4
		c-1.3,0-2.6-0.2-3.4-0.4c-0.8-0.1-1.7,0-2.5-0.2c-1.9-0.4-1-2.3,0.4-2.4c2.2-0.1,4.3-2.5,6.1-3.3c0.8-0.4,1.6-0.1,2.4-0.3
		c1.8-0.7,3.6-2.1,5.6-2.4c3.4-1.3,7.7-0.5,11.1-1.7c1.5-0.5,2.6-1.7,4.2-1.6c1.6,0.4,1.7-0.5,1.8-1.9c0.1-1.7,0.2-3.2-2-2.5
		c-8.6,2.1-22.2,5.2-29.6,9.3c-1.2,0.7-2.6,1-3.2,2.3c-0.4,1.4,0,2.9,0,4.4c0.1,1.6,0.3,2.9,1.9,3.3c6.4,2.2,12.5,1.8,19.1,2.2
		c0.8,0.1,1.7,0.2,2.5-0.1L24,383.4z"/>
	<path class="st1" d="M27.6,389.4c0-0.4-0.2-0.7-0.6-0.8c-0.8,0-1.7,1.3-2.5,1.5c-1.2,0.2-2.2-0.3-3.4,0.4c-1.4,0.7-3.1,1.3-4.4,2.3
		c-1.7,1.5-3.4,2.1-5.6,2.3c-1.1,0.2-4.1,1.5-4.2,2.3c0.3,0.8,2.3,0.8,3.1,0.8c0.4,0,0.2-0.2,0-0.4c-0.5-0.6,0.3-1.4,0.8-1.7
		c1.4-0.9,3.1-0.1,4.5-0.7c1-0.2,1.6-1.4,2.5-1.6c1.5-0.1,2.7-1,4.1-1.4c0.8-0.4,1.8-0.2,2.5-0.5c1.2-0.4,2.8-1.2,3.1-2.4
		L27.6,389.4z M9.7,396.1C9.7,396.2,9.7,396.2,9.7,396.1C9.7,396.2,9.7,396.2,9.7,396.1z"/>
	<path class="st1" d="M20.5,342.1c1.5,0.1,3.5-0.9,4.8-0.9c0.4,0.4,1.1,0.4,1.6,0.6c0.1,0,0.1,0.1,0,0.2c-2.6,1.8-5.1,3.3-7.8,5.2
		c-1.2,0.9-1.3,1.7,0.2,2.3c0.9,0.4,2.1,0.9,2.9,1.5c2.6,1.6-0.5,1.8-1.7,2.4c-1.1,0.4-0.7,1.7-0.7,2.9c0.3,2.5,2.3,3.3,4.5,3.3
		c0.6,0.1,0.4,0.6,1,0.8c2,0.7,4.2,0.7,6.3,0.7c1.4-0.1,2.9,0,3.7-0.6c1.2-0.8,1.6-3.3,0.5-4.2c-1.6-1.1-4.7-0.3-6.5-1
		c-1-0.4-0.4-0.4,0.1-0.5c0.2,0,0.3-0.2,0.4-0.4c0.4-0.6,2.2-1.3,3.6-1.7c0.4-0.1,1.1-0.3,1.1-0.7c-0.4-1.6-2.5-3.6-4-4
		c-0.9-0.2-2.5,0.1-3.1-0.4c0-0.3,0.4-0.6,0.5-0.7c0.3-0.3,0.5-0.7,0.8-1c1.7-2.1,5-2.9,7.5-3.6c0.2,0,0.5,0,0.5,0.1
		c0.9,0.7,3.3-0.6,4-1.4c0.5-0.5,0.6-0.7,1.1-1.1c1-0.6,2.1-1,2.8-1.9c3.8-4.8-6-1.1-7.8-1.5c-0.8-0.1-1.5,0.1-2.3,0
		c-0.6-0.1-0.6-0.1-1.1-0.1c-0.4,0-1.1,0.1-1.5,0.3c-0.8,0.3-1.5,0.2-2.4,0.5c-1.7,0.4-3.3,1.3-4.7,2.2c-1.6,0.5-2.5,1.3-3.9,1.8
		c-1.1,0.4-3.1,0.4-4.1,0.9c0.8,0.3,2.4,0,3.4,0L20.5,342.1z M40.1,341.2c0,0-0.1-0.3-0.1-0.3C40.1,340.9,40.2,341.3,40.1,341.2z
		 M39.1,337.3l0.1,0.2C39,337.6,38.9,337.3,39.1,337.3z M37.3,342.1c-0.1,0-0.2,0.1-0.3,0.1C37.1,342.1,37.3,342,37.3,342.1z"/>
</g>
<g>
	<path class="st1" d="M162,395c0-0.1-0.1-0.2-0.1-0.2c0,0.4,0.3,0.9,0.3,1.2c0-0.2,0.2,0.5,0.3,0.9c0,0,0-0.1,0-0.1
		c1.3-0.6,2,0.1,5.5-1.8c-4.1,3,6.5-2.3,6.6-1.2c4.2-0.9,0.6-1.9,3.2-1.7c0.5-0.6,2.3,0.1,2.9,0.3c0.7-1.7,2.2-0.2,2.1-1.6
		c0.9,0,2-0.4,3.1-0.7l-0.8-1.7C179.6,391,166.7,394.4,162,395z M162.2,395.8c0,0-0.1-0.4-0.1-0.4
		C162.9,395,162.5,395.3,162.2,395.8z M162.4,396.6c0-0.1-0.2-0.6-0.1-0.7C165.2,394,165.4,395.8,162.4,396.6z M168.2,395
		c0,0,0.9-0.3,0.9-0.3C169.1,395.3,168.6,395.2,168.2,395z M170.7,394c0.1-0.1,0.2-0.1,0.3,0L170.7,394z"/>
	<path class="st1" d="M183.2,384.5c-1.1,0.2-2.2,0.5-3.3,0.7l1.3-0.1c-0.7,0.1-1.6,0.3-1.7,0.1c-8.6,1.9-17.8,4-20.5,2.8
		c1.1-1.5,3.5-2,5.3-2.3c0.2-0.2,0.2-0.3,0.1-0.3c5.6-1.2,13-8.9,12.4-5.7c-4.5,1.9,2.6-0.9,2.5-0.3c-0.1-0.3,0.4-0.7,1.1-1
		l-1.3-2.9l-2-3c-0.4,0.2-0.6,0.2-0.1-0.1l0,0c-1.4,0.8-1.7,0.4-2.4,0.7c-0.2-0.5,0.6-1.1,1.8-1.7l-1.8-2.7c-4,3.6-9.6,7.8-10.3,8.4
		c0,0,0,0-0.1,0c0,0,0,0,0,0c0,0-0.1,0,0,0c-2.3,1.6-3.1,3-1,1c2.4-1.4,1.4,0.7,4-0.7c3.5-1.2-0.3,0.1,0,0.3c0.1,0.2,2.3-0.3,2.4,0
		c-2.4,1.4-1.2,1,0.7,0.1c4.2,0.2,5.2-1.3,6.1-0.8c-8.7,5-15.8,7.1-24.3,10.4l-1.7,0.9c0-0.1,0.1-0.2,0.1-0.3
		c-0.6,0.2-1.1,0.4-1.7,0.7l0.1,0.1c0,0,0.1,0,0.1,0c0,0,0-0.1,0-0.1c0,0,0.1,0,0.1,0.1c0.3-0.1,0.3-0.1,0,0.1c0.2,0,0.2,0.1,0,0.2
		l1.5,2.8c10.6-1.4,23.6-3.6,33.7-5.5L183.2,384.5z M177.1,376.5c1.7-0.5,0.1,0.2-0.7,0.5C176.4,376.9,177.1,376.5,177.1,376.5z
		 M162.6,385.7c0.5,0.1,1,0,1.5-0.1C163.2,385.8,162,386.3,162.6,385.7z"/>
	<path class="st1" d="M142.9,367.7c1.3,0.1,1.7,0.5-0.1,0.7c1.5,0.8-0.6,2.3-0.9,2.9c3.5,1.4,4.9,1.8,12.7-0.9
		c7-1.2,12.5-2.7,18.6-4.7l-0.7-4c-6,1.7-8.7,3.2-12.7,3.9c-8.2,3.2-7,1.4,1.2-1.3c-0.4,0,3.1-1.8,2.9-1.4c2.7-1-1.3,0.1-1.6,0
		c2.1-1.1,7.3-2,9.3-2.9c0.2-0.1,0.3-0.2,0.5-0.4l-1.4-8.4c-6.4,1.1-16.5,3.1-19.7,6.2c-4.2,1.7,0.7-0.9-2.2-0.6
		c1.8-0.1-1.5,1.1-0.8,1.3c-5,0.2-10.1,1.5-14.4,3.2l0.5,1.3l2.9,5.3c3.8-1.2,8.4-2.9,13.9-5C155.7,363.3,146.4,366.1,142.9,367.7z
		 M149.1,358c0.1,0,0.2,0,0.3,0L149.1,358z"/>
	<path class="st1" d="M155.3,343.9c-0.2-0.6-0.3-1.2-0.3-1.1L155.3,343.9z"/>
	<path class="st1" d="M155.3,343.9c0.2,0.6,0.3,1.2,0.5,1.6c0,0,0,0,0,0L155.3,343.9z"/>
	<path class="st1" d="M157.6,345.8c-1,0.3-1.5,0.1-1.8-0.4l0.1,0.3c0,0-0.1-0.2-0.1-0.3c-0.7-1.2-0.1-3.8-2.9-2.6
		c-4.2,1.7-14.9,7.2-21.6,11.5l1.7,4.8c0.3-0.1,0.7-0.2,1.1-0.3c7.2-0.1,25.8-6.8,36.4-9.8l-0.7-3.9c-3.6,1-7.1,2-10.7,3.1
		c3.6-1.7,7-3.6,10.3-5.7l-0.7-3.9c-2.9,1.9-6.1,3.8-8.8,6.5c-2.3,0.3,0.8-1.4-0.2-1.7C160.1,343.9,156.7,345.7,157.6,345.8z
		 M148.2,349.7c-0.3,0.1-0.1-0.1,0-0.2C148.4,349.4,148.3,349.6,148.2,349.7z M149.2,348.6c0.3-0.2,0.5-0.3,0.9-0.4
		C150,348.2,149.7,348.3,149.2,348.6z M151.2,348c-0.2-0.1-0.6,0.1-1.1,0.1C150.4,348.1,151.6,347.5,151.2,348z M152.5,348
		c0.8-0.5,1.2-1.3,2.3-1.3C154.3,347,153.3,347.6,152.5,348z"/>
</g>
<g>
	<path class="st1" d="M39.5,190.9c2.7,2.3,6.6-0.9,9.1,0.7c0.2,0.1,0.5-0.1,0.7-0.4l-0.5-0.5l1.5-4.2c-1.2,0.1-2.3,0.1-3.2-0.5
		c-0.2-0.3-0.1-0.8,0.3-0.9c1.6-0.2-1-3.5-1.7-3.1c-1.6,1.5-4.5,1.6-4.4,4.3C39.3,184.9,37.1,189.6,39.5,190.9z M46.2,186.5
		c-0.5-2.2,1.3,0.4,0.4,1.2C46.7,187.1,45.2,185.6,46.2,186.5z M45.5,186.7c-0.1,0.1-0.1,0.1-0.2,0.3
		C45.3,186.9,45.3,186.7,45.5,186.7z M44.8,187.2c0-0.1,0-0.1,0-0.2C44.8,187,44.8,187.2,44.8,187.2z M43.9,188.1
		c-0.1-0.2,0-0.6-0.1-0.2C43.6,187.7,44.5,187.6,43.9,188.1z M43.6,187.8c0.2,0,0.1,0.5,0,0.3L43.6,187.8z M43.3,188.3
		c0,0.1-0.1,0.1-0.2,0C43.1,187.7,43.6,187.6,43.3,188.3z M42.4,190.6c-0.1,0.2,0.4,0.4,0,0.4C42.3,190.8,42.3,190.6,42.4,190.6z
		 M42,191.1C42,191.1,41.9,191.1,42,191.1C41.9,191.1,42,191.1,42,191.1z M41.7,188.1C41.7,188,41.6,188.3,41.7,188.1L41.7,188.1z"
		/>
	<path class="st1" d="M49.5,191.3L49.5,191.3C49.5,191.3,49.5,191.3,49.5,191.3z"/>
	<path class="st1" d="M55.2,197.2l-0.9-1c-3.3,0.1-3.3-0.3-1.6-1.7l-2.6-2.7c-4.9,3.6-8.4,11.5,2.1,7.1c1.7-0.2,0.4,2.5-0.8,2.2
		c0.6,1.1,2.4,0.3,3.2-0.4c1.2-0.4,2.2-1.3,2.5-2.2L55.2,197.2z M47.2,196.7L47.2,196.7C47.3,196.8,47.3,196.7,47.2,196.7z
		 M48.1,199.2c-0.1-0.1-0.1-0.3-0.1-0.4C48,198.6,48.2,199.3,48.1,199.2z M50.3,196c0.1,0.1,0.1,0.3,0,0.4
		C50.2,196.3,50.1,196.1,50.3,196z M50.3,197.6c-0.1-0.1,0.2-0.2-0.3-0.7C50.4,197,50.4,197.4,50.3,197.6z M50.7,195.7
		c0.2,0.3,0.4,0.8,0.4,0.7C51.2,197,50.7,195.9,50.7,195.7z M54.2,198.3c0,0-0.3,0-0.3,0C53.9,197.4,54.1,198.1,54.2,198.3z
		 M54.3,199.6c-0.3-0.8-1.4-0.9-0.4-1.3C54.9,199.3,53.9,198.8,54.3,199.6z M54.9,198.8c0-0.2-0.1-0.4,0-0.5
		C55,198.6,55.3,199,54.9,198.8z M55.3,198.7c-0.4-0.3-0.4-0.5-0.1-0.7C55,198.3,55.5,198.5,55.3,198.7z"/>
</g>
<g>
	<path class="st1" d="M110.1,239.1c1.6-0.3,3.4-0.2,2.7,0.2c0.5-0.3,0.3-0.1,1.9-0.7c-1.5,0.7-1.1,0.6-0.2,0.3c-0.9,0.4-2,0.8,0.2,0
		c-2.2,0.8,2.5-0.6-0.9,0.4c7.5-1.4-3.4,0.6,4-0.6c-3.1,0.8-1.9,0.6,0.7,0.4l-2.5-3.3c-0.4,0.1-0.8,0.2-1.2,0.4
		c1.7-1.5-1-1.3-2.1-1.1c-0.1-0.2-1.9,1.6-1.2-0.1c-0.2,0.1-0.1,0.8-0.5,0.9c-0.3-1.6-0.4-2.1-1.7-0.7c-1,0.4-0.1-1.3-1.9,0
		c1.5-1.2,0.4-1.3,0.5-0.9c-1.3,1.6-2.3-1.7-4.6-1.6c0,0.7-0.3,1-0.6,1c0,0,0,0,0,0.1c0,0,0,0,0-0.1c-0.4-0.1-0.7-0.6-0.3-1.2
		c-1.6-1.2,2.6-1.5,4.8-2.5c-1.6-0.5-0.6-0.6,0.6-0.7l-6.8-3.9l-4.3-2.5c-0.1,0.1-0.2,0.1-0.3,0.2c0-0.2,0-0.3,0-0.4l-1-0.6
		c-0.6,0.3-1.5,0.7-2-0.2c-1.1,0.4-4.6-2.1-5-1c-1.5-2.2-1.4,0.1-2.1-1.1c-1.7,0.2-0.4-0.2-1-1.3c-2.5,1.7-1.9,5.4-0.4,3.8
		c-0.9,1.7,1-0.8,0.2,0.9c0.9-0.3,2.4,0.2,2.2,1.4c1.7-1.3,1.5,1,2.8-0.9c-0.2,1.3-0.9,1.8,0.2,0.6c0.2,0.9,0,0.8,0.7,0.3
		c0.3,1.4,0.1,1.6,0.6,0.2c0.3,1.1,0.8,0.6,2.4,0.3c-0.1,0.5,0.4-1.7,0.6-0.7c-0.1,0-0.4,0.5,0,0.1c-0.7,1.2,0.1,0,0.7,0.3
		c-0.6,1.2-0.9-0.1-1,1.4c0.9,0.3,1.4,0.1,1.5-0.7c0.9-0.5,0.2,1.8,1,1.1c0.2-0.4,0.5-1.2,0.8-0.7c-0.6,1.7,0.2-0.2,0.7,0.3
		c-0.8,0.7-0.1,0.4,0.2,0c0,0.5-0.2,1,0.4,0.4c1.3,1,0.4,0,2.2,0.4c-2,0.5,2.6-0.6,1.5-0.2c-0.6,0.1,0.7,0.3-0.7,0.5
		c1.1-0.1-1.2,0.2,1.6-0.1c-1.7,0.3-1.8,0.3-3.2,0.5c0.9-0.1,2.7-0.1,0.1,0.1c2.2-0.1,1,0-0.3,0.1c2.4-0.1,0.9,0.1-0.5,0.1
		c1.8,0.2-1.1,0-0.2,0.1c1.6,0.2-0.1-0.1,0.2,0.2c-1.5-0.4,0,0.4,0.2,0.7c-0.3-0.1-0.4-0.3-0.5-0.3c0,0,0.2,0.2,0.5,0.4
		c-0.7-0.3-0.7-0.5-1.1-0.8c-0.1-0.3-1.7,0.9-1.2,2.1c-2.5,0.1-3.7,4.3-5.3,7.3c0.8,0,5-3,4.4-1.8c1.2-0.1,2,2.1,3.4,0.7
		c-0.3,0.8,1.1,0.7,1.9,0.6c2.1,2.2,3.8-0.2,7.1,2.3C109.6,239,110.7,237.2,110.1,239.1z M84.3,220l0.2-0.3
		C84.4,219.7,84.3,220,84.3,220z M100.3,226.2c-0.3,0,0.2-0.4,0.2-0.4C100.4,226,100.4,226.1,100.3,226.2z M101.5,232.5
		c0.2-0.5,0.3-0.4,0.4,0C101.7,232.7,101.5,232.6,101.5,232.5z"/>
	<path class="st1" d="M125.3,248.8c0.4-1.9-0.6,0.9-0.3-0.9c-0.3-0.2-1,0-0.6-0.5c-0.4-0.4-0.9,0.7-0.9,0c-0.7,1.2-0.4,1.6-0.9-0.2
		c0.1,0.7-0.8,1.4-1.3,0.2c0.2,0.9-0.1,0.3-0.7,0.4c0.5-1-0.2-0.2-0.7-0.8c0.2-0.8-0.1,0.2-0.6,0.4l4.3,1.7c0.5-0.6,1.1-1.6,0.7-0.3
		c0.4,0.2,0.7,0.2,0.9,0.2l1-0.5C126.1,248.1,125.8,248,125.3,248.8z"/>
	<path class="st1" d="M119.3,240.3c-1.5-0.2-1.1-0.3-0.2-0.3l-0.6-0.8c-2,0.2-5,0.4-1.8,0.2c-2,0.1,1.3-0.1-0.7,0.1
		c-0.1,0,1.6-0.1,0.4,0c-1.3,0-2.4,0.2-1.1,0.1c0.5,0.1-1.2,0.3,0.1,0.2c2.5,0.3-0.8,0-0.1,0.6c-1.3-0.2-1,0-0.9,0.6
		c-0.7,0-0.5,0.9-0.7,2.4c0.8-0.1,2.5-0.8,1.3,0.6c0.4-0.1,2.4-1.1,2.2-0.7c-0.1,0.2-0.3,0.4,0.1,0.2c-1.6,0.9,0.5,0,1,0.4
		c-0.7,0.2-1.4,1.2-0.1,0.7c-2.2,0.6,0,1.3-1.8,1.4c0,0.1,0,0.1,0,0.2l2.4,0.9c0,0-0.1-0.1-0.1-0.1c0.5,0.3,0.2-0.4,1-1.3
		c-0.7,0.2-3.2-0.4-1.1-0.1c0.5-0.5,0.5,0,1.9-0.7c-1.8,0.1,1.4-0.7-0.2-0.7c0.4-0.2,0.4-0.6,0.1-1c0,0,0,0,0,0c0,0,0,0,0,0
		c-0.5-0.8-1.8-1.6-2.8-1.1c-1.4-0.9,1.2-0.3,2.4-0.6c1.4-0.2,1-0.5,0.5-0.7l-1-0.2L119.3,240.3z M115.6,241c0.1-0.4,0.2,0,0.3,0.1
		C115.8,241.1,115.7,241,115.6,241z M116.4,241.8l0.1,0.1C116.5,241.9,116.4,241.8,116.4,241.8z M116.6,242.2c0-0.4,0.4,0.2,0.5,0.3
		C116.9,242.5,116.6,242.4,116.6,242.2z M118.6,247L118.6,247C118.5,247.1,118.6,247,118.6,247z M120.5,243.5
		C120.4,243.5,120.4,243.5,120.5,243.5L120.5,243.5z"/>
</g>
<g>
	<path class="st1" d="M94.6,49.9c0.1-0.1-0.1,0-0.2,0c-0.7,0.2-1.3-0.2-2.1-0.1c-1.1,0-0.7-0.8-0.2-1.3c1.3-0.9,3-2.1,3.3-3.9
		c0-0.5-0.1-1,0.3-1.3c0.3-0.3,0.8-0.4,1-0.8c0.1-0.5,0.2-0.8,0.4-1.2c0.1-0.3,0.3-0.6,0.5-0.8c0.5-0.7,1-0.4,1.2-1
		c0.2-0.8,0.1-1.9-0.9-1.8c-0.5-0.2-1.7,0.1-2,0.4c-0.3,0.2-0.5,0.6-0.9,0.7c-1.1,0.5-2.5,0.3-3.6,1c-0.2,0.1-0.6,0.3-0.7,0.3
		c-0.4,0,0.9-0.9,1.1-1.1c-0.3,0.1-0.8,0.5-1.1,0.6c-0.2,0,0.6-0.7,0.4-1c-0.5-0.1-1.3,0.6-1.9,0.8c-0.4,0.2-0.3,0-0.1-0.1
		c0.9-0.6,1.7-1.2,2.6-1.8c0.6-0.5,1-1.1,1.5-1.7c0.2-0.5,0.3-1.2,0.6-2c0.4-0.9,1.2-1.6,1.9-2.4c0.9-0.9,1.6-2.1,2.3-3.1l-2.7-1.1
		c-0.1,0.1-0.2,0.2-0.1,0.3c1.3,0.6,0.1,1.6-0.8,2.3c-0.9,0.7-1.3,2.2-2.1,2.9c-1.4,1.2-1.9,3-3.2,4.4c-0.2,0.2-0.4,0.5-0.6,0.8
		c-1.1,1.7-1.7,3.7-3.3,5.1c-1.5,1.5,0.6,0.5,1.2,0.1c0.4-0.3,1-0.7,1.4-0.8c0.2,0-0.1,0.4-0.1,0.5c0,0.1,0.1,0.1,0.3,0
		c0.8-0.4,1.7-0.9,2.5-1.2c0.6-0.2,0.9-0.3,0.8,0c0.1,0.1,0.2-0.1,0.4-0.1c0.3-0.1,1.2-0.7,1-0.3c-0.2,0.5,0.7,0.5,1.1,0.5
		c0.6,0.1,0.3,0.6,0.2,1.2c-0.3,0.9-0.3,1.9-0.5,2.7c-0.2,1.1-1.3,1.1-1.8,2.2c-0.5,0.8-1,0.5-1.3,1.9c-0.4,2.1,0.6,1.4,1.9,0.9
		c0.2-0.1,0.4-0.1,0.5-0.1C93.5,50.7,94.3,50.3,94.6,49.9z M97.6,39.3c0.1,0,0.1,0.1,0.2,0.1C97.7,39.5,97.6,39.6,97.6,39.3z
		 M94.4,41.1c0.6-0.8,1-1.1,1.4-1.4c-0.3,0.5-0.7,0.9-1.2,1.4L94.4,41.1z"/>
	<path class="st1" d="M93.2,26.3l-0.8,1.2c0.7-0.2,1.5-0.5,2.2-0.6L93.2,26.3z"/>
	<path class="st1" d="M59.7,1.2c0.8-0.3,1.1-0.8,1.8-1.2l-11.9,1c-0.1,0.2-0.3,0.3-0.4,0.5c-0.4,0.5-1,0.8-1.4,1.3
		C47.3,3.3,47,4,46.7,4.6C46.1,5.8,45.4,6.1,45,7c-0.3,0.5-0.4,1.3-1.1,1.4c-0.4,0.4-0.5,1.1-1.1,1.6c-0.4,0.3-0.8,0.8-1.2,1.1
		c-0.1,0.1-0.1,0.1-0.4,0.2c-0.1,0.1-0.2,0.1-0.2,0.2c-0.1,0.3,0.1,0.5-0.1,0.9c-0.4,0.5-1.7,1.7-1.3,2.8c0.5,0.9,1.6,1.6,2.6,1.8
		c1.5,0,1.4-2.2,2.2-3.1c0.3-0.4,0.5-0.6,0.5-0.3c0.1,0.5,0.6,0.3,0.8,0.1c0.8-0.6,0.9-2.1,1.4-2.9c0.3-0.5,1.1-0.8,1.5-1.3
		C49,9,49.2,8.1,49.7,7.9c0.3-0.3,0.8-0.6,1-0.9c0.1-0.1,0.3-0.2,0.4-0.3c1.2-0.7,2.4-1.9,3.5-3C56.1,2.8,58,2,59.7,1.2z M56.6,1.8
		c0,0.2,0.4,0,0.8,0c-0.2,0.1-0.5,0.3-0.7,0.4C56.4,2.1,56.4,1.9,56.6,1.8z M55.7,2.9c-0.2,0.1-0.3,0.2-0.4,0.3
		C55.4,3.1,55.5,3,55.7,2.9z"/>
	<path class="st1" d="M85.3,30.8c0.6-0.5,1.1-1,1.8-1.1c0.7-0.1,0.4-0.8,0.8-1.1c0.4-0.3,0.6-0.2,1-0.2c0.5-0.1,0.9-0.4,1.4-0.4
		c0.3,0,0.7,0,1.1-0.1l-0.7-2.9c-0.5,0-0.9,0-1.3,0.2c-1,0.3-1.2,1.3-2,1.8c-0.3,0.2-0.8,0.3-0.8-0.2c0-0.2-0.1-0.3-0.3-0.3
		c-1,0.1-1.4,0.5-2.4,0.9c-0.2,0.1-1.4,0.5-0.9,0c0.6-0.5,1.4-0.8,2-1.4c0.9-0.9,1.9-1.8,2.4-3c0.3-0.5,0.6-0.9,1.2-0.9
		c0.5,0,0.7-0.3,1.2-1.1l-1-4l-2.6-3.3c-0.1,0.1-0.3,0.2-0.4,0.3c-1,0.8-2.1,1.8-2.8,2c-1,0.8-2.1,0.9-3.2,1.7
		c-0.2,0.1-1.1,1-1.1,0.7c0-0.2,0.8-1.1,0.4-0.8c-0.5,0.4-2.6,2-2.8,2.1c0.2-0.3,4-3.2,3.4-2.9c-0.4,0.3-0.9,0.7-1.3,1.1
		c-0.2,0.2-2,1.8-2.1,0.9c0-0.1,0.3-0.6,0.7-1c1.4-1.2,2.5-2.6,4.1-3.8c0.5-0.4,0.9-0.7,1-1.3c0-0.5-0.2-0.8,0.2-1.3
		c0.4-0.5,0.9-0.7,1.5-1l-1.9-2.4l-3.2-2.4c-1,0.5-2,1.1-3.2,1.3c-0.7,0.2-1.3,0.6-1.9,0.4c-0.2,0-0.2,0-0.2-0.1
		c-0.3,0-0.4-0.4-0.2-0.6c0.2-0.3,1.2-0.5,1.6-0.9c0.5-0.6,0.9-1.3,1.4-2l-2.9-2.2l-4.7-1c-0.1,0.1-0.2,0.1-0.3,0.1
		C68,1,67.9,1,67.8,0.9c0-0.1,0.1-0.2,0.2-0.3l-3.8-0.8l-0.7,0.1c-0.4,0.4-0.7,0.9-1.1,1.3c-0.8,0.8-1.1,1.8-2,2.5
		c-0.4,0.3-0.9,0.5-1.2,0.8c-0.4,0.3-1,1.3-1.3,1.8c-0.3,0.3-0.4,0.5-0.4,0.9c-0.2,2.1-1.2,10.6-1.7,14.6c-0.3,3-0.4,2.8,0.5,0
		c1.2-3.3,3-8.8,4.1-11.8c0.8-0.9,2.9-1.8,4.3-2.5c0.4-0.3,0.6-0.2,1-0.3c0.4,0,0.9-0.4,1.3-0.8C67.8,5.5,69.1,3.8,70,3
		c-0.4,1.6-1.3,3.1-2.6,4.3c-1,1-2,2-2.3,3.4c-0.1,0.6-1.4,1.4-1.3,1.7c0.9,0.5,2.2,0,3.3,0c1-0.1,2-0.4,2.9-0.5
		c1-0.1,1.6,0,2.8-0.1c0.8,0.1,4.5-0.7,2.9,1c-1.1,1.4-3.1,3.6-3.7,5c0.2,1.5-0.7,3.6-0.5,5.2c0,1.4,1.4,1.4,2.5,1.6
		c0.6,0.1,1.2,0.1,1.7-0.1c1.3-0.5,2.1-1.4,3.1-2.2c0.9-0.8,1.8-1.6,2.9-2c0.5-0.2,0.7-0.1,0.7,0.1c0.1,0.2,0,0.3,0.3,0.1
		c0.5-0.3,0.9-0.6,1.4-0.9c0.5-0.2,1.1-0.8,1.7-1.1c0.1,0-0.1,0.1-0.3,0.2c-0.2,0.2-0.8,0.5-0.5,0.5c0,0,0.4-0.1,0.4-0.1
		c0.1,0,0.1,0.1,0.1,0.1c0,0.3,0.1,0.2,0.1,0.4c-0.2,0.3-0.8,0.7-1.1,0.8c-0.2,0.1-0.3,0.1-0.4,0.2c0,0.3-0.1,0.5-0.4,0.7
		c-1.5,1-3,3.1-4.3,4.4c-0.2,0.3-0.9,0.9-0.5,0.1c0.2-0.4,0.4-0.7,0.1-0.5c-0.8,0.8-1.6,2.6-2.7,3.1c-1.1,0.5-1.8,1.5-2.7,2.5
		c-0.7,0.9-1.3,1.5-1.6,2.4c0.1,0.3,0.4,0.3,0.5,0.8c0.1,1,0.2,3-0.2,4.1c-0.3,0.7-0.7,1.2-0.9,2c-0.2,0.7-0.2,1.6,0.3,0.8
		c0.7-1,2.2-3.4,2.6-4.1c0.3-0.6-0.3,0-0.3-0.3c0-0.4,0.6-1.1,1.1-1.4c0.5-0.2,0.9-0.2,1.3-0.2c0.4,0,0.4,0.1,0.7,0
		c0.3-0.2,0.8-0.5,1.1-0.7c1.1-0.9,2.5-1.5,3.8-2.6c0.3-0.2,0.7-0.5,1.1-0.6C83.8,31,84.6,31.3,85.3,30.8z M83.9,19.5L83.9,19.5
		L83.9,19.5L83.9,19.5c0.1-0.1,0.4-0.3,0.9-0.8c-0.2,0.2-0.5,0.5-0.6,0.7L83.9,19.5z M84.6,19.2l-0.1,0.1c0.4-0.4,0.8-0.7,0.9-0.8
		C85.4,18.4,85,18.8,84.6,19.2z M74.9,35.1c-0.1-0.1-0.1-0.3,0-0.4c0.1,0.1,0.2,0.2,0.3,0.2L74.9,35.1z M81.3,29.4
		c0.2-0.2,0.3-0.5,0.5-0.7C81.7,28.8,81.8,29,81.3,29.4z M82.9,28c-0.5,0.1-0.7,0.2-0.9,0.3c0.2-0.2,0.4-0.4,0.6-0.6
		C82.8,27.8,83,27.9,82.9,28z"/>
</g>
<g>
	<path class="st1" d="M98,58.1c0.2-0.4-0.1-0.5-0.5-0.3c-0.2,0.3-0.6,0.4-1,0.6c-0.2,0.2-0.1,0.5-0.2,0.7c0,0.2-0.1,0.3-0.1,0.5
		c0,0.1,0,0.4-0.1,0.5c-0.4,0.4-0.6,0.7-0.8,1.3c-0.1,0.1-0.1,0.2-0.2,0.4c-0.1,0.2-0.3,0.4-0.3,0.6c0,0.3,0.7,0.8,0.7,0.9
		c-0.6,0.1-1.3,0-1.1,0.7c0,0.3,0.1,0.7,0,1c-0.1,0.5-0.6,1-0.8,1.2c-0.5,0.2-0.7,0.5-0.9,1c-0.1,0.2-0.1,0.3-0.1,0.4
		c0.1,0.2,0.2,0.6,0.2,0.8c-0.1,0.1-0.3,0.1-0.4,0.1c-0.4,0-0.1,0.7-0.6,0.9c-0.1,0-0.1,0-0.2,0.1c-0.2,0.1-0.7,0-0.6,0.3
		c0,0.1,0.1,0.2,0.1,0.3c0,0.2-0.6,0.2-0.2,0.6c0.1,0.2,0.2,0.4,0.2,0.6c-0.1,0.4-0.8,0.5-0.5,0.7c0.1,0.1,0.2,0.2,0.3,0.2
		c0,0.3-0.7,0.5-0.8,0.8c-0.2,0.2-0.1,0.4-0.2,0.7c-0.2,0.5-0.1,0.9-0.2,1.4c-0.2,0.5-0.6,1.3-1.1,1.6c-0.4,0.2-0.7,0.7-0.6,1.3
		c0,0.2,0,0.3-0.2,0.3c-0.3,0-0.6,0.2-0.7,0.5c-0.1,0.2,0,0.6-0.2,0.7c-0.4,0.1-0.3,0.2-0.6,0.4c-0.3,0.3-1,0.5-1.3,0.9
		c-0.2,0.2-0.3,0.5-0.5,0.7c-0.4,0.2-1.1-0.1-1.2,0.3c-0.5,0.9-1,2.1-1.9,2.8c-0.5,0.5-1.1,0.7-1.5,1.3c-0.3,0.6-0.6,0.7-0.9,1.1
		c-0.3,0.4-0.7,0.8-1,1.1c-0.3,0.1-0.6,0.2-0.8,0.4c-0.4,0.4-0.5,1-1.1,1.2c-0.6,0.2-0.7,0.8-0.8,1.4c-0.1,0.7-0.7,1.3-1.4,0.9
		c-0.2-0.1-0.4-0.1-0.5,0c0,0,0,0,0,0c0,0,0,0.1,0,0.1c0,0,0,0,0,0.1c0-0.1,0-0.1-0.1-0.1c-0.2,0.3,0,0.8,0,0.9c0,0-0.1,0.1-0.2,0.1
		c-0.3,0.2-0.6,0.2-0.8,0.6c-0.1,0.2-0.2,0.3-0.5,0.4c-1.3,1.2-3,2.1-4.5,3.1c-0.3,0.1-0.6,0.1-0.8,0.2c-0.2,0.4,0,0.8,0.3,1.4
		c0,0,0,0.1,0.1,0.1l1.6,0.5l2.2-0.2c0.1-0.2,0.3-0.4,0.4-0.4c0.1-0.1,0.3,0,0.5-0.1c0.2,0,0.4,0.1,0.5,0l0,0c0.4-0.1,0.5-1.4,0.6-2
		c0-0.1,0.1-0.1,0.2,0c0.3,0.3,0.8,0.9,1.3,0.2c0.2-0.3,0.5-0.6,0.8-0.7c0.6-0.4,1.6-0.8,2.3-1.2c0.5-0.4,0.5-0.9,1.1-1.5
		c0.6-0.6,1.2-1,1.9-1.4c0.8-0.4,1-0.8,1.8-1.1c0.6-0.1,1.1-1.1,1.2-1.7c0.1-0.1,0.4,0.1,0.7-0.1c0,0,0.1-0.1,0.1-0.1
		c0.8-0.9,0.9-2.2,1.8-2.8c0.5-0.5,1.1-0.8,1.5-1.3c0.3-0.4,0.7-0.6,1-0.9c0.8-0.8,1.7-2.1,2.3-3c0.6-1.3,1.6-2.4,2-3.7
		c0.2-0.5,0.5-0.7,0.7-1.2c0.1-0.2,0.2-0.7,0.3-0.9c0.1-0.4,0.2-0.6,0.4-0.9c0.1-0.2,0.3-0.6,0.4-1c0.1-0.5-0.3-1.1-0.3-1.2
		c0.1-0.1,0.1-0.1,0.4-0.2c0.5,0,0.2-0.6,0.4-0.9c0.1-0.2,0.1-0.3,0.2-0.6c0.3-0.5-0.1-0.9-0.2-1.3c0-0.3,0.2-0.5,0.4-0.7
		c0.2-0.5,0.1-0.3,0.5-1c0.2-0.5,0.2-0.7,0.4-1.2c0.2-0.9,0.6-1.7,0.8-2.6c0-0.3,0-0.6,0-0.8c-0.1-0.5-0.3-0.4-0.1-0.9
		c0.1-0.1,0.2-0.1,0.4-0.3c0.1-0.1,0-0.2,0.1-0.4c0.1-0.3,0.5-0.5,0.8-0.7c0.4-0.3,0-0.7-0.1-1C97.5,58.9,97.4,58.4,98,58.1z
		 M75.9,94.6c-0.1-0.2-0.2-0.3-0.2-0.3c0.1,0.1,0.2,0.2,0.4,0.2C76,94.5,76,94.6,75.9,94.6z"/>
	<path class="st1" d="M73.2,91.9c-0.1-0.1-0.1-0.1-0.1,0C73.1,91.9,73.1,92,73.2,91.9C73.1,92,73.1,92,73.2,91.9
		C73.2,91.9,73.2,91.9,73.2,91.9z"/>
</g>
<g>
	<path class="st1" d="M40.9,258.4l-2.3-3.2c-5.3,0.7-10.7,1.3-15.9,2.5c-1.2,0-2.3,0.2-3.5,0.4l-1.8,3.5c3.1-0.4,6.2-1.1,9.7-1.4
		C31.3,260.1,36.8,259.1,40.9,258.4z"/>
	<path class="st1" d="M151.3,288c1.3,0.6,4.4-1.2,5-0.7c0.1,0.5,0.5,0.3,0.9,0.2c3.8-0.2,7.8-0.4,11.7-0.6l-0.2-4.4
		c-0.8,0.1-1.5,0.2-1.8,0.1c-0.7,0-2.2-0.1-1.4,0.8c-0.2,0.6-2-0.3-2.6-0.2c-0.6,0-2.1,0.7-2.6,0.6c0.1-0.5-3.3,0.8-2,0.1
		c1.3-0.5-0.2-0.5-0.1-1.1c3.3-1.8,6.7-3.6,10.3-5.2l-0.2-3.7c-4.1,1.8-8.1,4-12,5.6c-2.9,1-5.6,3.5-8.2,5.7c-0.6,0.7,2-0.2,1.4,0.3
		c-0.6,0.4-1.7,0.5-2.2,0.8c-0.2,0.2,0,0.2,0.1,0.3c0.4,0.8-2.1,0.6-2.5,0.7c-0.6,0-2.3,0.3-2.6,1
		C145.3,289.2,148.9,286.5,151.3,288z M168.6,286.4C168.6,286.4,168.6,286.4,168.6,286.4c-0.2,0-0.4,0.1-0.5,0.1
		C168.2,286.5,168.4,286.5,168.6,286.4z M166.5,282.8c-0.2,0-0.4,0-0.6,0.1c0,0,0,0,0,0.1C165.8,282.5,166.4,282.6,166.5,282.8z"/>
	<path class="st1" d="M167.9,260.7l0-1l-1.9-0.3l-1.6,2.2C165.3,261.7,166.2,261.8,167.9,260.7z"/>
	<path class="st1" d="M58,278.9c-1.1-0.2,1.7-1,0.8-1.2c0,0,0,0,0,0c-0.3,0-0.5,0.1-0.8,0.2C57.6,278.4,56.6,279,58,278.9z"/>
	<path class="st1" d="M39.7,260.1c0.4,0,0.6,0.1,0.9,0.1C40.1,260,42.1,258.8,39.7,260.1z"/>
	<path class="st1" d="M51.1,266.3l-4.3-3c-0.6,0-1-0.1-1.4-0.3c-3,0.2-2.9-0.5-1.3-1.6l-2-1.4l-0.4-0.5c-0.8,0.8-1.6,1.7-2.5,2.2
		c-0.4-0.6-0.6-0.4-1.5,0.2c-2.3,1.6-3.9,1.7-0.7-0.3c0.7-0.5-0.1-0.6-0.6-0.5c-5.4,2.2-9.9,6.3-15.7,8.3c-0.6,0.3-0.8,0.4-0.6,0.4
		c5.4-1,10.7-1.8,16-1.5C41,267.4,46,266.8,51.1,266.3z"/>
	<path class="st1" d="M30,260.6c0,0,0-0.1,0-0.1C29.9,260.5,29.9,260.6,30,260.6z"/>
	<path class="st1" d="M40.7,271.7c0.5,3.2,0.9,4.2,4.2,3.1c4.9-1.2,9.7-2,14.6-2.7l-5.8-4c-3.9,0.8-7.8,1.5-11.3,2.1
		c-0.6,0.1-1.3,0.2-1.6,0.7l0,0.1c0,0,0,0,0,0l0,0.2c0-0.1,0-0.2-0.1-0.3C40.7,271.1,40.6,271.3,40.7,271.7z M50.5,273.4
		c-0.1,0.1-0.2,0.1-0.3,0.1C50.3,273.5,50.4,273.5,50.5,273.4z"/>
	<path class="st1" d="M164.5,261.9C164.4,261.9,164.4,261.9,164.5,261.9C164,262.1,164.2,262,164.5,261.9z"/>
	<path class="st1" d="M167.9,261.5l0-0.3c-0.1,0-0.3-0.1-0.2-0.1c-0.9,0.3-1.2,0.4,0,0.4C167.7,261.6,167.8,261.6,167.9,261.5z"/>
	<path class="st1" d="M163,269.5c-0.1,0.1-0.3,0.2-0.5,0.2L163,269.5z"/>
	<path class="st1" d="M145.8,286.8c0.7-0.3,1.4-0.5,2-0.7C146.4,286.6,147.5,285.7,145.8,286.8z"/>
	<path class="st1" d="M40.8,270.6c0,0,0,0.1,0,0.2c0,0,0,0,0,0L40.8,270.6z"/>
	<path class="st1" d="M65,284.9c21.2-4.3,42.7-8.4,63.9-13.7l-21.2,1c-3.7,0.8-7.3,1.6-10.8,2.9c-6.5-1.4-13.2,2.9-19.7,3.7
		c-0.9,0-2.7,0.9-3.6,0.4c-2-1.5-6.9,1.2-9.5,1.7c-2.8,0.3-7.1,0.7-9.5,1c0.5-0.2,2.8-0.8,3.1-1c-0.2-0.3-1.9,0.2-2.5,0.2
		c-0.7,0.9-7.2,1.4-5.5-0.2c2.9-0.1,5.6-2.2,8.4-3c0.1-0.1,0.1-0.1,0.1-0.2c0.2,0,0.4,0,0.6,0c1.1-0.2,2.2-0.1,3.3,0.5
		c0.9,0.2,3,0.2,3.1-0.9c4.2-0.8,8.9-1.2,12.8-2.9l-13.5,1.2l-3-2.1c-9.1,2-18.7,3.5-27.1,6.8C43,285.8,54.9,286,65,284.9z
		 M58.1,277.7l-0.3,0C58,277.7,58,277.7,58.1,277.7z"/>
	<path class="st1" d="M159.2,264.9c0.2,0.2,1.7,0.2,2.1,0.1c2,0,4.3-1.3,6.7-1.7l-0.1-1.5c-1.5,0.2-3,0.7-4.3,0.9l-0.5,0.6l-4,1.4
		C159.1,264.8,159.2,264.8,159.2,264.9z"/>
	<path class="st1" d="M161.2,270.3c0.1,0,0.2,0,0.3-0.1c-0.1,0-0.1-0.1-0.2-0.1C161.2,270.2,161.2,270.3,161.2,270.3z"/>
	<path class="st1" d="M161.9,267.7l0.1-0.2C161.9,267.5,161.9,267.6,161.9,267.7z"/>
	<path class="st1" d="M161.5,271.2c0,0,0,0.1,0,0.1c0.3-0.1,0.5-0.2,0.7-0.3C162,271.1,161.7,271.1,161.5,271.2z"/>
	<path class="st1" d="M161.9,267.4c0.6-0.1,2.4-0.4,3-0.9C164.1,266.7,162.7,266.8,161.9,267.4z"/>
	<path class="st1" d="M160,269.4l0.2,0.8l0.4-0.2c-0.1,0-0.2,0-0.3,0C161.6,269.6,160.5,268.9,160,269.4z"/>
	<path class="st1" d="M168.2,267.9l-0.1-1.6c-0.3,0.2-0.5,0.4-0.7,0.5c-1.7,2-4.4,0.8-6.2,2.7c-0.2,0.3-0.1,0.6,0.2,0.7
		c0.7-1.1,2.1-0.6,3.1-1.4c0.3,0.8-1.6,1.2-2.9,1.5c1.2,0.5,4.6,0,6.8-0.6l0-0.4C167.2,269.2,167.2,268.6,168.2,267.9z"/>
	<path class="st1" d="M161.4,271c-0.1,0.2-0.2,0.2-0.4,0.3C161.2,271.3,161.8,271.2,161.4,271z"/>
	<path class="st1" d="M160.3,271.5c0.3,0,0.5-0.1,0.7-0.1C160.8,271.4,160.5,271.4,160.3,271.5z"/>
	<path class="st1" d="M167.9,321.3l0.1-0.7C167.6,320.7,167,321.4,167.9,321.3z"/>
	<path class="st1" d="M122.2,272.9C122.2,272.9,122.2,272.9,122.2,272.9c-0.1,0-0.2,0-0.3,0L122.2,272.9z"/>
	<path class="st1" d="M126.6,272c-0.4,0.1-1.5,0.5-1.9,0.6L126.6,272z"/>
	<path class="st1" d="M171.2,301.7c-1.3-0.2-2.5,0-3.8,0.8c-1.1,0.4-2.4,0.1-3.5,0.6c-0.4,0.1,1.6-0.8,1.4-0.9
		c-0.5,0-2.6,1.3-3.2,1.1c2-3.2-4.9-0.6-6.5-0.7c-0.3-0.2,4.8-0.9,5.2-1.1c-0.5,0.1-1.6,0.3-2,0.3c2.2-0.5,5.2-0.9,7.6-1.3
		c-0.4,0.1-3.8,0.5-3.3,0.4c0.7-0.1,1.8-0.3,2.4-0.4c-1.1-0.5,0.7-0.6,1.1-0.9c1.2-0.4,2.4-0.9,3.7-1.4l-0.9-4.3
		c-1.3,0.6-2.7,1.1-4.1,1.3c-7.4,4.1-16.8,4.5-23.2,10.2c9.3,3.1,19.8,2.2,29.8,0.6L171.2,301.7z"/>
	<path class="st1" d="M172.1,319.4l0.2-0.1l0,0L172.1,319.4C172.1,319.4,172.1,319.4,172.1,319.4z"/>
	<path class="st1" d="M167.5,302c-0.1-0.3-0.2-0.5-0.6-0.1C167.2,301.9,167.4,302.1,167.5,302z"/>
	<path class="st1" d="M169.2,312.1c-1.3,0.9,0.3,0.8,1,0.7c0.9-0.1,1.7-0.1,2.6,0l0.2-2.5l-0.1-0.7
		C171.6,310.4,170.4,311.3,169.2,312.1z"/>
	<path class="st1" d="M171.4,319.8l0.4-0.2C171.7,319.6,171.5,319.6,171.4,319.8z"/>
	<path class="st1" d="M170,321.2c-2.7-0.6-1.2,1.2,0.5-0.1C171.2,321.9,171.8,317.9,170,321.2z"/>
	<path class="st1" d="M172.1,319.4l-0.2,0.1C172,319.5,172,319.5,172.1,319.4z"/>
	<path class="st1" d="M97,296.9c-7.6,1.2-15.9,2.3-23.8,2.6c-2.2-0.2-4.3,0.5-6.2-0.4c-0.7-0.1-0.8,1.6-0.8,1.6c0-0.1,0-0.4,0-0.6
		c-0.3,2.1-3.2,1.7-4.8,3.1c-4.5-0.8-9.5,2.7-14,3.9c-3.4,1.2,10.5,6.4,11.5,6c-0.7,0.4-4.7-0.2-5.7,0.6c2.3,1.9,5.9,5.4,9,5.5
		c5.3,1,0.1,2.1-2.2,1.3c-1.7,1-2.5-0.2-4.1-0.1c-1.3,0.1-3.7,1-5.2,1.6c-1.5,0-4.6-0.8-4.4,1.5c0.9,0.5,2.1,1,2.8,1
		c0.2-0.4-2.4-2.1-0.2-1.9c1.8,1.3,3.6,0,5.6,0.1c0.2,0,0.5-0.1,0.7-0.1c0,0-0.1-0.1-0.1-0.1l0.6,0c3.7-0.2,7.8,0.6,11.2-0.7
		c0.3-0.3,0.5-0.5,0.7-0.5l7.5-5.7c-2.1,0.1-4.3,0.3-6.1,0.3c-0.8,0.2-2.4,0.7-2.7,0c-0.1-1.1,1.7-1,2.3-0.5c1.9-0.4,4-0.2,5.6-1.7
		c0.2-0.1,0.8-0.5,0.5-0.2c-2.4,2.1-0.4,1,2.9-0.2c0.2-0.1,0.5-0.2,1-0.4l1.2-0.9c-0.1,0-0.2-0.1-0.4-0.1c-1.4-0.4-4.1,0.4-5.3,0
		c0.2-0.1,1.2-0.5,0.3-0.5c-2.9-1.6-6.8-2.6-10.2-2c-0.1,0.2-0.4,0.5-0.3,0.6c-0.3-0.3-0.3-0.4-0.1-0.5c-0.1,0-0.1,0-0.2,0
		c-4.1-2.7,11.3-4.2,12.9-4.1c2.1-1.2,4.3-1,6.6-1.3c2.3-0.7,4.7-1.7,7.1-2.2l3.5-3.6l2.2,2.9c0-0.1,0-0.2,0.1-0.3l0,0.4
		C97,300.2,97,298.1,97,296.9z M52.5,310.5l0.1-0.4c0,0,0,0,0,0C52.6,310.2,52.6,310.4,52.5,310.5z M53.2,306.5
		C53.2,306.5,53.2,306.5,53.2,306.5l0-0.3l0,0L53.2,306.5z M66.3,318.8c-0.1,0.5,0.4,0.7,1,0.7c-0.5,0.1-1,0.1-1.5-0.2
		C66.1,319.2,66.2,319.1,66.3,318.8z M65.7,319.1l-0.8,0.2c-0.1-0.1-0.2-0.2-0.2-0.2C65,318.9,65.4,319.1,65.7,319.1z M64.2,319.5
		c-0.1,0-0.1-0.1-0.1-0.1C64.1,319.4,64.1,319.5,64.2,319.5z M60.4,313.6c-0.2,0.1-0.2-0.1-0.3-0.3c0.2,0,0.3-0.1,0.4-0.1
		C60.5,313.4,60.4,313.5,60.4,313.6z M61.5,308.3c0.2,0.3,1,0.8-0.1,0.7c-0.4-0.2-0.6-0.7-1.1-0.8c0.1-0.1,0.8-0.5,1-0.5
		C62.2,307.8,62.7,308.4,61.5,308.3z M86.9,302.6c0,0,0.1-0.1,0.2-0.1C87,302.7,86.9,302.6,86.9,302.6z M95.5,299l-0.1-0.7
		c0,0,0.1,0,0.2,0C95.6,298.5,95.7,298.8,95.5,299z"/>
	<path class="st1" d="M64.4,280.2c-0.5-0.2-1.8-0.2-2.6,0.2C62.8,280.3,63.9,280.3,64.4,280.2z"/>
</g>
<g>
	<path class="st1" d="M64.2,241.6C64.2,241.6,64.2,241.6,64.2,241.6c0.1,0,0.2,0,0.3-0.1L64.2,241.6z"/>
	<path class="st1" d="M123.3,260.3l-1,0.1C122.6,260.5,123,260.5,123.3,260.3z"/>
	<path class="st1" d="M56.1,242.9C56.1,242.8,56.1,242.8,56.1,242.9C56,242.8,56,242.9,56.1,242.9z"/>
	<path class="st1" d="M42.1,235.6C42.2,235.5,42.3,235.5,42.1,235.6C42.1,235.6,42.1,235.6,42.1,235.6z"/>
	<path class="st1" d="M46.9,236.2c1.9-0.4,5.9-1.6,5.7-1.3c0.6-0.3,1.3-0.5,2.1-0.7l-1.7-1c-0.8,0.2-1.3,0.2-1,0
		c-5.5,1.9-9,2.1-13.8,3.9c2.4-1.2-5.2,1.4-4.7,0.7c-1.2,0.7-3.7,1.4-6.3,2.1l1.1,1.5c6.2-1.8,12.5-3.4,19.3-5.2L46.9,236.2z"/>
	<path class="st1" d="M57.2,242.7c-0.1,0-0.2,0-0.4,0.1c0.3,0,0.6,0,0.9-0.1C57.6,242.6,57.4,242.7,57.2,242.7z"/>
	<path class="st1" d="M88.1,255.3c-0.8-1.1-1.8-2.5-2.8-4c-4.9,0.6-9.6,1.3-13.8,2.3l1.5-0.5c-12.3,2-22.7,2.3-34.4,2.2l1.5,2
		c0.2,0,0.2,0.1,0.1,0.2l0.1,0.2c1-0.1,2-0.2,0.7,0.2c0.5-0.1,1.4-0.1,2.4,0c-0.6,0.1-1.6,0.2-2.6,0.4l1.1,1.5
		c0.3-0.1,0.7-0.1,1.2-0.2c1.1,0.1,0.1,0.2-1,0.4l0.1,0.2l2,1.4c1.6-0.2,3.3-0.4,4.2-0.6c-0.7,0.2,1.7,0,1,0.2
		c2.3-0.2,4.3-0.6,3.9-0.8C75.7,258.2,79.7,255.8,88.1,255.3z M57.5,257.6c2.2-0.4,5.6-1.2,8.4-1c-1.5,0.4-2.5,0.6-3.9,0.5
		c-4,0.4-4.5,1.1-8.4,1.5C54.8,257.8,56,257.8,57.5,257.6z M44.7,259.7c0.2-0.1,0.2,0,0.5,0C45,259.7,44.9,259.7,44.7,259.7z"/>
	<path class="st1" d="M125.8,261.8c0,0-0.2,0-0.4-0.1C125.4,261.8,125.6,261.8,125.8,261.8z"/>
	<path class="st1" d="M127.9,260.7c-2.3,0.2-6.6,0.3-3-0.2c-1.2,0-1.9,0-3,0.1l0,0l-5.8,0.5l-4.7,0.4c2.4,0,4.8,0.1,7.1,0.3
		c-3.7,0.2,3.1,0,4.1,0c-0.4-0.2-0.7-0.1-1.8-0.3c0.7-0.1,2.2-0.2,3.5-0.2c-2.4,0.2,0,0.4,1.1,0.5c-0.2-0.1,0.2-0.2,0.1-0.2
		c2.3,0.5,1.5-0.8,4-0.1c0.1,0,0.2,0,0.2,0L127.9,260.7z"/>
	<path class="st1" d="M55,248.4c7-2.8,14.2-2.6,21.4-4.7c-0.1,0.1-0.2,0.2-1,0.4c1.8-0.2,3.3-0.5,4.6-0.8c-0.8-1.2-1.3-1.9-1.3-1.9
		l-5.5-0.4c-1.8,0.3-3.3,0.6-5.3,0.5c1.8-0.2,3.4-0.4,4.5-0.5l-2.1-0.1c-2,0.4-4.3,0.9-6.1,0.9c-2.1,0.5-8.8,0.1-8.1,1.2
		c0.3,0,1.5-0.2,1.7-0.3c0,0-0.1,0-0.1,0c0.9-0.1,2.1-0.2,3.4-0.4c-7.7,1.3-17.3,1.7-24.5,2.7c0.2,0,0.4-0.1,0.5-0.1
		c-2.6,0.3-4.3,0.6-5.7,0.8l1.3,1.7c3.9-0.6,8-1.3,11.5-1.6l-1,0.5c4.1-0.4,2.2-0.8,6.5-1c-5.9,1.1,11.7-1.3,15.8-1.9
		c-1.3,0.5,0.4,0.3,0.9,0.2c-11.2,2-20.8,4.1-31.6,6.6l1.5,2c6.5-1.5,11.4-2.4,19.6-4.2L55,248.4z M69.3,242.7c-0.3,0.1,1.1,0,1.9,0
		C71,242.7,67.3,243.1,69.3,242.7z M58.6,242.3c0,0-0.1,0-0.1,0c0.4-0.4,1.8-0.3,1.7-0.3C59.7,242.1,59.2,242.2,58.6,242.3z"/>
	<path class="st1" d="M48.8,261l-3.1,0.3C46.6,261.2,47.8,261.1,48.8,261z"/>
	<path class="st1" d="M38.8,249.2c0,0,0.3-0.1,0.4-0.2C39.1,249,38.7,249.1,38.8,249.2z"/>
</g>
<g>
	<path class="st1" d="M114.6,182.3c1.4,0.1,2.9,0.5,4.3,0.8c3.5,0.8,6.9,0.8,10.5,0.9c1.3,0,2.5,0.3,3.8-0.2c1.1-0.6,2.7-1,3.8-0.3
		c0.8,0.4,1.8,1.5,2.7,0.9c0.3-0.2,0.3-0.2,0.7-0.4c1.1-0.1,2.4,0.4,3.2,0.4c1,0.1,2.2,0,3.3-0.2c2.3-0.3,3.8-0.4,5.6-0.5
		c0.2,0.1,0.4,0.1,0.5,0.1c0.6,0.3-0.5,0.9-0.9,1c-3.1,0.4-4.9,3.3-7.8,4.7c-3.3,1.6-11.1,4.6-8.9,9.6c0.2,0.7,1,0.9,1.7,0.9
		c4.8,0.4,9.7-0.7,14.5-0.8c2.2-0.3,4.5,0.6,6.4-0.5c0.2-0.1,0.3-0.2,0.4-0.2c0.2-1.3,0.4-2.7,0.7-4.1c-0.6,0.1-1.1,0.2-1.7,0.2
		c-1.5,0.3-3-0.4-4.6-0.2c-1,0.1-1.7,0.2-2.6,0.5c-1.4,0.1-2.4,0.2-3.6,0.3c-0.2,0-0.5-0.1-0.7-0.1c-0.1-0.1-0.1-0.1-0.1-0.2
		c-0.2,0-0.5,0.1-0.5-0.1c0.1-0.2,0.5-1,0.4-1.3c-0.1-0.2,0.3-0.1,0.8-0.1c1,0.1,2.3-0.7,3.2-1.2c2.8-1.6,5.3-3.5,7.7-5.6
		c0.8-0.5,1.6-0.9,2.4-1.3l-1.8-4.9l0-0.6c-3.4-0.1-6.9-0.6-10.3-0.7c-1.9,0.1-3.9,0.7-5.8,0.4c-1.6-0.1-3.3,0.1-4.9,0
		c-1.9,0-3.5-0.5-5.8-0.4c-2,0.1-4.2,0-6.2,0.2c-1.5,0.3-5.2,0.7-5.9,0c-0.3-0.3,0.7-1.1,1.4-1.9c0.4-0.5,0.8-0.9,1.4-1.1
		c0.7-0.2,1.3-0.4,2-0.8c2.3-1.5,5.1-2.7,7.5-4.1c3.7-1.8,7.6-3.5,11-6c1.5-0.8,2.7-1.4,3.9-2.6c2.1-1.3,4.9-2.7,6.9-4.5
		c1.3-1.1,2.7-2.4,4.1-3.6l0.4-2.7c-3.1-1.7-6.7-2.6-9.8-4.1c-0.4-0.2,0.7,0,1.1,0c0.2,0,0.1,0-0.2-0.2c-1.8-0.7-3.9-1-5.4-2.2
		c-0.6-0.7-3.2-1.4-3-2.6c0.3-0.6,1.7-0.4,2.2-0.8c0.6-0.5,1.2-0.9,1.7-1.3c1-0.8,2.1-1.5,3.2-2.3c1-0.8,2.3-2.1,3.5-2.5
		c0.8-0.3,1.7-0.5,2.4-0.8c1.1-0.7,2-2,3.2-2.4c0.7-0.3,0.3-1,0.8-1.4c0.2-0.2,0.2-0.2,0.4-0.3c1.5-0.7,2.7-1.5,4.3-2
		c0.4-0.2,0.7-0.5,1.1-0.7l1.6-4.5c-0.9,0.7-1.9,1.5-2.8,2.1c-1.1,0.4-3.3,1.2-4,2.4c-0.5,0.7-0.9,1.8-1.8,1.9
		c-0.4,0-0.3-0.6-0.7-0.5c-0.1,0-0.2,0-0.2,0.1c-0.4,0.2-0.6,0.2-1,0.5c-1.2,0.9-2.8,1.7-3.9,2.9c-0.8,0.8-1.8,1.5-3,1.5
		c-0.9,0.1-2.3,0.7-3.2,0.9c-0.6,0.2-0.7,0.4-1.1,1.1c-0.2,0.5-0.7,1.2-1.2,1.6c-0.4,0.4-0.8-0.2-1.2-0.2c-0.6,0-1.3,1-2,1.7
		c-0.5,0.4-1.2,0.9-1.6,1.2c-0.5,0.6-0.8,1.3-1.2,1.8c-1.5,1.6,0.1,2.6,1.7,3.8c1.4,1,3.4,3.1,5.1,3.1c0.3-0.1-0.4-0.5-0.5-0.6
		c-0.3-0.2-0.3-0.3-0.4-0.6c-0.4-0.5,0.2-0.2,0.4-0.2c1.7,0.4,2.3,2.4,3.9,3c1.9,0.9,3.5,0.9,4.5,1.7c0.8,0.5,1.3,0.9,1,1.6
		c-0.6,0.8-2,1.2-2.6,2.1c-3.2,4.2-9.1,5.1-12.9,8.5c-0.3,0.3-0.6,0.5-1,0.6c-0.5,0-1.1-0.1-1.7,0.2c-4.3,1.3-7.1,5-11.2,6.6
		c-0.4,0.1-0.7-0.2-1-0.2c-2.8,0.8-4.8,3.6-6.9,5.4c-1.3,1.1-1,2.7,0,3.8c0.2,0.2,0.4,0.5,0.3,0.5c-0.5-0.1-1.6-1.5-2-1.7
		c-0.1,0.1,0.7,1.3,0.9,1.7C113.8,182.3,113.9,182.2,114.6,182.3z"/>
	<path class="st1" d="M159.9,211.9c-0.3-1.1-0.6-2.3-0.9-3.3c0,0-0.1,0-0.1,0c-0.9,0.3-2.1,0.2-3,0.2c-0.5,0-1-0.4-1.4-0.2
		c-0.9,0.6-1.8,0.5-2.8,0.6c-0.9,0.1-2.8,0.7-3.3,0.5c-0.2-0.1,0-0.2,0.2-0.5c0.2-0.1,0.5-0.3,0.7-0.4c2.7-0.9,6.1-2.2,9-3.3
		c-0.2-0.9-0.3-1.6-0.4-1.9c0-0.4,0-1.2,0.2-2.2c-1.9,0.9-4,1.5-5.9,2.5c-0.2,0.1-0.4,0.2-0.6,0.2c-0.2,0-0.3,0.1-0.1-0.1
		c0.3-0.2,1.9-1.1,0.9-1.3c-0.8,0.1-1.3,0.6-1.9,1c-1.6,1.2-3.6,1.2-5.2,2.3c-0.2,0.2-0.3,0.4-0.1,0.4c0.4,0,0.8-0.2,1.1-0.2
		c0,0,0.1,0,0,0.1c-1.1,1.5-3.8,1.3-5.4,1.8c-1.5,0.5-3.1,1.8-4.2,2.4c-0.3,0.2-0.7,0.3-1,0.5l0,0.2c-0.1,0-0.2-0.1-0.2-0.1
		c-0.7,0.3-1.3,0.6-2.1,1.1c-1.7,0.9-4.9,2.7-5.5,3.1c-0.1,0.1-0.2,0.2,0,0.2c0.6,0,4.4-0.6,6.3-0.8c1.4-0.1,3.2,0.1,4.4-0.4
		c0.5-0.1,1,0,1.5,0c2.8,0.4,5.2-1.1,8.1-1.3C152.3,213,156.1,212.5,159.9,211.9z M152.2,206.3c-0.1,0.2,0.6,0,1.1,0
		c-0.3,0.1-0.8,0.3-1.2,0.5C151.9,206.6,151.9,206.4,152.2,206.3z M150.5,207.5L150.5,207.5c-0.3,0.2-0.5,0.3-0.7,0.3
		C150,207.8,150.2,207.7,150.5,207.5z M143.5,211c0.1-0.1,0.2-0.2,0.4-0.3l0.1,0.1L143.5,211C143.5,211,143.5,211,143.5,211z
		 M143.6,211.2c0.3,0,0.4-0.1,0.5-0.3l0.3,0.3c0.2-0.1,0.5-0.3,0.7-0.4c0,0.1,0,0.1,0,0.2C144.4,211.1,143.9,211.6,143.6,211.2z"/>
	<path class="st1" d="M150.3,118.8c2.6-1.1,4.1-1.8,6.5-1.8c0.8-0.1,1.7-0.5,2.6-0.4c0.3,0,0.5,0.1,0.5,0.1c0.1,0,0.1,0.1,0,0.2
		c-0.1,0.1-0.3,0.2-0.4,0.2c-1,0.4-1.5,0.1-2.6,0.7c-0.2,0.1-0.6,0.3-0.4,0.5c0.3,0.1,1.7,0.2,2.2,0.6c1.6,0.8,3.8,0.6,5.6,0.6
		c1.3-0.1,2.5-0.7,3.9-0.7c1.7,0,3.1,0.3,4.6,0.2c2.6,0.1-1.8,1.5-2.6,1.8c-0.6,0.2-1.5,0.6-1.9,0.9c-0.7,0.4-1.3,0.4-2.2,0.9
		c-0.1,0-0.1,0.1-0.2,0.1l8.9-3.2l1.3-2.9c-2.5,0.1-5.2,0.6-7.7,0.3c-1.2-0.2-3.5,0-4.7,0c-0.3,0-0.5-0.1-0.6-0.2
		c-0.1-0.1,0-0.3,0.4-0.5c1.1-0.4,2.3-1.2,3.5-1.6c1-0.3,1.7,0,2.7,0c0.8,0,1.7-0.3,2.6-0.1c1.4-0.1,2.9,0,4.3-0.7c0,0-0.1,0-0.2,0
		c0,0-0.3,0-0.3,0c-0.5,0-1.2-0.3-1.9-0.2c-1.3,0.2-2.8,0.5-3.4,0.3c-1-0.2-2.2-0.2-3.2-0.5c-0.4-0.2-0.5-1.4-1-1.6
		c-0.3-0.1-0.7,0.2-1,0.3c-0.8,0.2-1.5,0.4-2.3,0.4c-0.5,0-1.3,0.4-1.8,0.2c-2-1.5-4.1,1.5-6.3,1.6c-0.4,0-0.4-0.1-0.7-0.2
		c-0.8-0.4-1.4-0.2-2.3,0.6c-1.8,1.4-5.8,4.6-7.8,6.3C145.9,120.8,148.9,119.3,150.3,118.8z M166.6,114c-0.1,0-0.1,0-0.2,0.1
		c0,0,0,0,0,0C166.5,114.1,166.6,114,166.6,114z M165.1,114.4c0.1,0,0.2,0,0.3,0C165.3,114.5,165.2,114.5,165.1,114.4
		C165.1,114.5,165.1,114.4,165.1,114.4z M162.1,114.6c-0.1,0.1-0.2,0.2-0.3,0.3l-0.3-0.3C161.7,114.6,161.9,114.6,162.1,114.6z
		 M161.3,114.6l-0.1,0.5c-0.2,0-0.7,0-0.7-0.2C160.7,114.8,161,114.7,161.3,114.6z M160.3,114.9c-0.6,0.4,0.3,0.2-0.2,0.6
		c-0.5-0.2-1.1-0.1-1.7-0.1C158.9,115.2,159.6,115.1,160.3,114.9z M154.3,116.2l0.1,0.5c0,0,0,0,0,0L154.3,116.2
		C154.3,116.2,154.3,116.2,154.3,116.2z M154.1,115.2l0.1,0.5c0,0,0,0,0,0L154.1,115.2C154.1,115.2,154.1,115.2,154.1,115.2z"/>
	<path class="st1" d="M135.7,210.7c-0.1,0.1-0.3,0.2-0.4,0.3c0.1,0,0.2,0.1,0.3,0.1c0.1,0,0.1-0.1,0.2-0.1L135.7,210.7z"/>
	<path class="st1" d="M145.9,205.6C145.9,205.6,145.9,205.5,145.9,205.6c0.3-0.3,0.5-0.4,0.7-0.5c-0.1-0.1-0.3-0.1-0.7,0.2
		C145.9,205.4,145.9,205.5,145.9,205.6z"/>
</g>
</svg>
